<svg xmlns="http://www.w3.org/2000/svg" style="height: 0; width: 0; position: absolute;"><symbol id="icon-jsopx-rcl-x-components-logo-white-fill-simple" viewBox="0 0 504.5 504.9"><g class="jsopx-icon-wrapper"><g id="1737724800633-5384193_m" stroke="none"><path d="M154.41,205.14c3.33-3.5,5-8.37,5-14.63s-1.68-11.17-5.05-14.73c-3.36-3.56-8.31-5.34-14.84-5.34h-21.96v39.94h21.96c6.6,0,11.56-1.75,14.89-5.24Z" fill="currentColor" stroke="none"></path><path d="M470.59,386.46h-92.04c-2.31,0-4.18,1.99-4.18,4.47v67.05h100.41v-67.05c0-2.48-1.87-4.47-4.19-4.47Z" fill="currentColor" stroke="none"></path><path d="M140.77,387.75c-1.13-.6-2.36-.95-3.38-1.13-.49-.09-.88-.12-1.12-.15-.09-.01-.16-.01-.19-.01H35.75c-2.72,0-4.21.69-5.04,1.29-.88.63-1.58,1.53-2.13,2.71-.56,1.21-.88,2.52-1.05,3.62-.09.53-.12.94-.15,1.19,0,.11,0,.18-.01.21v53.57c0,2.91.66,4.49,1.21,5.38.59.95,1.43,1.69,2.54,2.27,1.13.6,2.36.95,3.38,1.13.49.09.88.13,1.12.15.09.01.16.01.19.01h100.33c2.72,0,4.21-.69,5.04-1.29.46-.32.87-.74,1.23-1.22.06-.62.13-1.23.26-1.86l1.84-9.61v-48.61c0-2.9-.65-4.49-1.21-5.38-.58-.94-1.43-1.68-2.53-2.27Z" fill="currentColor" stroke="none"></path><path d="M228.87,356.53l-48.76-10.25c-4.49-.94-8.86,2.12-9.76,6.82l-17.46,91.32v4.61s0,4.58-2.17,9.11c.44,3.6,3.01,6.65,6.59,7.4l48.76,10.24c4.49.94,8.86-2.11,9.77-6.81l19.53-102.22c.91-4.7-2-9.28-6.5-10.23ZM193.07,455.34c-.9,4.7-5.26,7.75-9.76,6.81s-7.4-5.52-6.51-10.23c.91-4.7,5.28-7.75,9.77-6.81,4.48.94,7.39,5.52,6.5,10.23Z" fill="currentColor" stroke="none"></path><path d="M356.8,405.76l-87.2-36.19c-4.01-1.67-8.51.29-10.06,4.37l-22.31,59.07c-1.53,4.08.47,8.74,4.48,10.4l87.2,36.18c4.02,1.67,8.52-.29,10.06-4.37l22.31-59.07c1.55-4.08-.46-8.74-4.48-10.39ZM342.86,442.67c-1.53,4.08-6.04,6.04-10.06,4.37-4.01-1.67-6.01-6.33-4.47-10.4,1.53-4.08,6.04-6.03,10.05-4.37,4.02,1.67,6.03,6.33,4.48,10.4Z" fill="currentColor" stroke="none"></path><path fill="currentColor" d="M366 425.92L366 425.93 368.26 419.94 366 425.92z" stroke="none"></path><path d="M368.04,406.53c-.55-1.18-1.23-2.29-2.04-3.31h0c.81,1.03,1.49,2.14,2.04,3.31Z" fill="currentColor" stroke="none"></path><path d="M233.53,420.54l-3.84,20.08c-1.06-3.38-1.06-7.11.27-10.62l2.09-5.54-2.09,5.53c-1.33,3.52-1.33,7.25-.27,10.63l3.84-20.09h0Z" fill="currentColor" stroke="none"></path><path fill="currentColor" d="M471.51 27.81L473.89 27.81 473.89 19.71 476.86 19.71 476.86 17.86 468.6 17.86 468.6 19.71 471.51 19.71 471.51 27.81z" stroke="none"></path><path fill="currentColor" d="M480.27 25.49L480.04 20.72 482.44 27.81 484.02 27.81 486.41 20.73 486.18 25.49 486.18 27.81 488.56 27.81 488.56 17.86 485.43 17.86 483.23 24.78 481.02 17.86 477.89 17.86 477.89 27.81 480.27 27.81 480.27 25.49z" stroke="none"></path><path d="M457,54.22c0-32.23-52.86-60.47-82.69-52.66L45.38,54.26C20.27,55.44.25,77.13.25,103.74v353.57c0,26.04,21.31,47.34,47.34,47.34h409.33c26.03,0,47.33-21.3,47.33-47.34V103.74c0-27.35-21.15-49.52-47.25-49.52ZM418.76,136.39c4.46,0,8.04,1.18,10.74,3.54s4.25,5.62,4.62,9.76h-8.83c-.07-2.25-.63-3.87-1.69-4.85-1.06-.98-2.67-1.47-4.84-1.47s-3.82.83-4.84,2.49c-1.03,1.66-1.56,4.31-1.61,7.95v2.62c0,3.94.49,6.76,1.48,8.46.98,1.69,2.68,2.54,5.08,2.54,2.03,0,3.59-.48,4.67-1.45s1.65-2.5,1.71-4.6h8.8c-.12,2.57-.81,4.85-2.07,6.82-1.26,1.97-3.03,3.5-5.31,4.58-2.28,1.08-4.88,1.62-7.81,1.62-4.83,0-8.63-1.58-11.4-4.75-2.77-3.17-4.16-7.63-4.16-13.41v-1.83c0-3.62.63-6.79,1.88-9.51s3.06-4.82,5.41-6.3c2.35-1.48,5.08-2.22,8.17-2.22ZM418.62,264.32v24.26h-85.85v-130.81h31.32v106.55h54.53ZM375.4,146.42h8.93l3.83,7.57,3.96-7.57h8.83l-7.19,13.38,7.54,14.09h-8.88l-4.29-8.12-4.21,8.12h-8.93l7.57-14.09-7.16-13.38ZM358.41,43.23c9.95-2.6,51.18-6.61,51.18,4.13v7.26h-234.3l183.12-11.39ZM245.34,256.68c3.48,5.99,9.48,8.98,17.98,8.98,7.2,0,12.7-1.71,16.51-5.12,3.81-3.41,5.83-8.83,6.07-16.26h31.14c-.42,9.11-2.86,17.15-7.32,24.12-4.46,6.98-10.72,12.38-18.79,16.22-8.06,3.83-17.27,5.75-27.62,5.75-17.08,0-30.52-5.6-40.34-16.8-9.82-11.2-14.72-27.01-14.72-47.44v-6.47c0-12.82,2.22-24.03,6.65-33.65,4.43-9.61,10.81-17.04,19.14-22.28,8.33-5.24,17.97-7.86,28.91-7.86,15.77,0,28.44,4.18,38.02,12.53,9.58,8.36,15.02,19.87,16.33,34.54h-31.23c-.24-7.97-2.23-13.69-5.98-17.16-3.75-3.47-9.46-5.21-17.13-5.21s-13.51,2.94-17.13,8.8c-3.63,5.87-5.53,15.24-5.71,28.12v9.25c0,13.96,1.74,23.93,5.22,29.92ZM82.82,143.55h56.69c17.08,0,30.44,3.81,40.07,11.44,9.63,7.63,14.45,18.41,14.45,32.34,0,10.08-2.03,18.44-6.08,25.08s-10.41,12.01-19.05,16.12l30.08,58.56v1.5h-37.2l-25.43-51.3h-18.8v51.3h-34.73v-145.03ZM472.06,484.81h-96.03c-6.12,0-11.07-6-11.07-13.41h118.19c0,7.4-4.96,13.41-11.08,13.41ZM483.14,425.31v41.62h-117.14v-41l-19.76,52.3c-3.08,8.15-12.08,12.07-20.12,8.74l-87.2-36.18c-4.56-1.89-7.83-5.72-9.23-10.17l-5.75,30.06c-1.79,9.41-10.53,15.51-19.51,13.63l-48.76-10.25c-5.1-1.06-9.18-4.48-11.42-8.96-2.13,1.12-4.79,1.83-8.11,1.83h-33.47c0,5.96.69,10.43,2.09,13.41h6.27c2.31,0,4.19,2,4.19,4.47h-58.58c0-2.46,1.87-4.47,4.19-4.47h6.27c1.4-2.98,2.09-7.45,2.09-13.41h-33.47s-16.74,0-16.74-17.89v-53.65s0-7.63,4.67-12.92c2.48-2.81,6.26-4.96,12.07-4.96h100.4s16.74,0,16.74,17.89v4.79l9.33-48.8c1.8-9.41,6.54-15.51,15.51-13.62l52.77,10.24c8.97,1.89,14.8,11.04,12.99,20.45l-9.96,52.07,18.74-49.6c3.08-8.15,12.08-12.06,20.12-8.74l87.2,36.18c2.59,1.08,4.76,2.77,6.41,4.85v-12.29c0-7.4,5.62-13.42,12.54-13.42h92.04c3.16,0,6.05,1.24,8.25,3.32,2.63,2.45,4.3,6.07,4.3,10.1v34.38Z" fill="currentColor" stroke="none"></path></g></g></symbol><symbol id="icon-jsopx-logo-white-fill-simple" viewBox="0 0 504.58 504.9"><g class="jsopx-icon-wrapper"><path fill="currentColor" d="M471.58 27.83L473.97 27.83 473.97 19.73 476.93 19.73 476.93 17.87 468.67 17.87 468.67 19.73 471.58 19.73 471.58 27.83z" stroke="none"></path><path fill="currentColor" d="M480.35 25.5L480.12 20.74 482.52 27.83 484.09 27.83 486.48 20.75 486.25 25.5 486.25 27.83 488.64 27.83 488.64 17.87 485.5 17.87 483.3 24.8 481.1 17.87 477.97 17.87 477.97 27.83 480.35 27.83 480.35 25.5z" stroke="none"></path><path d="M228.94,356.55l-48.76-10.25c-4.49-.94-8.86,2.12-9.76,6.82l-17.46,91.32v4.61s0,4.58-2.17,9.11c.44,3.6,3.01,6.65,6.59,7.4l48.76,10.24c4.49.94,8.86-2.11,9.77-6.81l19.53-102.22c.91-4.7-2-9.28-6.5-10.23ZM193.15,455.36c-.9,4.7-5.26,7.75-9.76,6.81s-7.4-5.52-6.51-10.23c.91-4.7,5.28-7.75,9.77-6.81,4.48.94,7.39,5.52,6.5,10.23Z" fill="currentColor" stroke="none"></path><path d="M368.11,406.54c-.55-1.18-1.23-2.29-2.04-3.31h0c.81,1.03,1.49,2.14,2.04,3.31Z" fill="currentColor" stroke="none"></path><path d="M233.61,420.56l-3.84,20.08c-1.06-3.38-1.06-7.11.27-10.62l2.09-5.54-2.09,5.53c-1.33,3.52-1.33,7.25-.27,10.63l3.84-20.09h0Z" fill="currentColor" stroke="none"></path><path d="M140.84,387.76c-1.13-.6-2.36-.95-3.38-1.13-.49-.09-.88-.12-1.12-.15-.09-.01-.16-.01-.19-.01H35.82c-2.72,0-4.21.69-5.04,1.29-.88.63-1.58,1.53-2.13,2.71-.56,1.21-.88,2.52-1.05,3.62-.09.53-.12.94-.15,1.19,0,.11,0,.18-.01.21v53.57c0,2.91.66,4.49,1.21,5.38.59.95,1.43,1.69,2.54,2.27,1.13.6,2.36.95,3.38,1.13.49.09.88.13,1.12.15.09.01.16.01.19.01h100.33c2.72,0,4.21-.69,5.04-1.29.46-.32.87-.74,1.23-1.22.06-.62.13-1.23.26-1.86l1.84-9.61v-48.61c0-2.9-.65-4.49-1.21-5.38-.58-.94-1.43-1.68-2.53-2.27Z" fill="currentColor" stroke="none"></path><path d="M470.66,386.48h-92.04c-2.31,0-4.18,1.99-4.18,4.47v67.05h100.41v-67.05c0-2.48-1.87-4.47-4.19-4.47Z" fill="currentColor" stroke="none"></path><path d="M457.08,54.24c0-32.23-52.86-60.47-82.69-52.66L45.46,54.28C20.35,55.46.33,77.15.33,103.76v353.57c0,26.04,21.31,47.34,47.34,47.34h409.33c26.03,0,47.33-21.3,47.33-47.34V103.76c0-27.35-21.15-49.52-47.25-49.52ZM358.49,43.25c9.95-2.6,51.18-6.61,51.18,4.13v7.26h-234.3l183.12-11.39ZM312.83,187.89c4.75,3.63,13.11,7.38,25.07,11.25,11.96,3.87,21.78,8.04,29.47,12.5,18.69,10.85,28.04,25.8,28.04,44.86,0,15.23-5.7,27.2-17.11,35.89-11.41,8.69-27.05,13.04-46.94,13.04-14.02,0-26.72-2.53-38.08-7.6-11.37-5.06-19.92-12-25.67-20.82-5.74-8.81-8.61-18.96-8.61-30.45h41.83c0,9.33,2.4,16.21,7.19,20.64,4.79,4.43,12.58,6.64,23.35,6.64,6.89,0,12.34-1.5,16.34-4.49,4-2.99,6-7.2,6-12.62,0-6.14-2.16-10.93-6.48-14.36-4.32-3.43-11.9-6.98-22.75-10.65-10.85-3.67-19.73-7.22-26.62-10.65-22.42-11.08-33.63-26.32-33.63-45.7,0-9.65,2.79-18.16,8.38-25.54,5.58-7.38,13.49-13.12,23.71-17.23,10.22-4.11,21.71-6.16,34.46-6.16s23.59,2.23,33.45,6.7c9.86,4.47,17.53,10.83,22.99,19.08,5.47,8.25,8.2,17.69,8.2,28.29h-41.59c0-7.1-2.16-12.6-6.48-16.51-4.32-3.91-10.16-5.86-17.53-5.86s-13.33,1.66-17.65,4.96c-4.32,3.31-6.48,7.52-6.48,12.62,0,4.47,2.38,8.51,7.13,12.14ZM152.37,243.95c0,8.95,1.53,15.44,4.6,19.47,3.07,4.03,8.2,6.04,15.4,6.04,6.49,0,11.49-2.44,15-7.32,3.51-4.88,5.27-11.7,5.27-20.48V107.53h46.68v134.14c0,12.44-2.87,23.54-8.6,33.3-5.73,9.76-13.74,17.32-24.01,22.69s-21.72,8.06-34.34,8.06c-21.16,0-37.61-5.37-49.35-16.11s-17.61-25.96-17.61-45.65h46.95ZM472.13,484.82h-96.03c-6.12,0-11.07-6-11.07-13.41h118.19c0,7.4-4.96,13.41-11.08,13.41ZM483.22,425.33v41.62h-117.14v-41l-19.76,52.3c-3.08,8.15-12.08,12.07-20.12,8.74l-87.2-36.18c-4.56-1.89-7.83-5.72-9.23-10.17l-5.75,30.06c-1.79,9.41-10.53,15.51-19.51,13.63l-48.76-10.25c-5.1-1.06-9.18-4.48-11.42-8.96-2.13,1.12-4.79,1.83-8.11,1.83h-33.47c0,5.96.69,10.43,2.09,13.41h6.27c2.31,0,4.19,2,4.19,4.47h-58.58c0-2.46,1.87-4.47,4.19-4.47h6.27c1.4-2.98,2.09-7.45,2.09-13.41h-33.47s-16.74,0-16.74-17.89v-53.65s0-7.63,4.67-12.92c2.48-2.81,6.26-4.96,12.07-4.96h100.4s16.74,0,16.74,17.89v4.79l9.33-48.8c1.8-9.41,6.54-15.51,15.51-13.62l52.77,10.24c8.97,1.89,14.8,11.04,12.99,20.45l-9.96,52.07,18.74-49.6c3.08-8.15,12.08-12.06,20.12-8.74l87.2,36.18c2.59,1.08,4.76,2.77,6.41,4.85v-12.29c0-7.4,5.62-13.42,12.54-13.42h92.04c3.16,0,6.05,1.24,8.25,3.32,2.63,2.45,4.3,6.07,4.3,10.1v34.38Z" fill="currentColor" stroke="none"></path><path d="M356.88,405.77l-87.2-36.19c-4.01-1.67-8.51.29-10.06,4.37l-22.31,59.07c-1.53,4.08.47,8.74,4.48,10.4l87.2,36.18c4.02,1.67,8.52-.29,10.06-4.37l22.31-59.07c1.55-4.08-.46-8.74-4.48-10.39ZM342.94,442.69c-1.53,4.08-6.04,6.04-10.06,4.37-4.01-1.67-6.01-6.33-4.47-10.4,1.53-4.08,6.04-6.03,10.05-4.37,4.02,1.67,6.03,6.33,4.48,10.4Z" fill="currentColor" stroke="none"></path><path fill="currentColor" d="M366.07 425.93L366.07 425.95 368.34 419.95 366.07 425.93z" stroke="none"></path></g></symbol><symbol id="icon-jsopx-blazor-server-core-logo-white-fill-simple" viewBox="0 0 528 528"><g class="jsopx-icon-wrapper"><path d="M240.77,367.88l-48.76-10.25c-4.49-.94-8.86,2.12-9.76,6.82l-17.46,91.32v4.61s0,4.58-2.17,9.11c.44,3.6,3.01,6.65,6.59,7.4l48.76,10.24c4.49.94,8.86-2.11,9.77-6.81l19.53-102.22c.91-4.7-2-9.28-6.5-10.23ZM204.97,466.69c-.9,4.7-5.26,7.75-9.76,6.81s-7.4-5.52-6.51-10.23c.91-4.7,5.28-7.75,9.77-6.81,4.48.94,7.39,5.52,6.5,10.23Z" fill="currentColor" stroke="none"></path><path d="M245.43,431.89l-3.84,20.08c-1.06-3.38-1.06-7.11.27-10.62l2.09-5.54-2.09,5.53c-1.33,3.52-1.33,7.25-.27,10.63l3.84-20.09h0Z" fill="currentColor" stroke="none"></path><path d="M152.67,399.09c-1.13-.6-2.36-.95-3.38-1.13-.49-.09-.88-.12-1.12-.15-.09-.01-.16-.01-.19-.01H47.65c-2.72,0-4.21.69-5.04,1.29-.88.63-1.58,1.53-2.13,2.71-.56,1.21-.88,2.52-1.05,3.62-.09.53-.12.94-.15,1.19,0,.11,0,.18-.01.21v53.57c0,2.91.66,4.49,1.21,5.38.59.95,1.43,1.69,2.54,2.27,1.13.6,2.36.95,3.38,1.13.49.09.88.13,1.12.15.09.01.16.01.19.01h100.33c2.72,0,4.21-.69,5.04-1.29.46-.32.87-.74,1.23-1.22.06-.62.13-1.23.26-1.86l1.84-9.61v-48.61c0-2.9-.65-4.49-1.21-5.38-.58-.94-1.43-1.68-2.53-2.27Z" fill="currentColor" stroke="none"></path><path d="M368.7,417.1l-87.2-36.19c-4.01-1.67-8.51.29-10.06,4.37l-22.31,59.07c-1.53,4.08.47,8.74,4.48,10.4l87.2,36.18c4.02,1.67,8.52-.29,10.06-4.37l22.31-59.07c1.55-4.08-.46-8.74-4.48-10.39ZM354.76,454.02c-1.53,4.08-6.04,6.04-10.06,4.37-4.01-1.67-6.01-6.33-4.47-10.4,1.53-4.08,6.04-6.03,10.05-4.37,4.02,1.67,6.03,6.33,4.48,10.4Z" fill="currentColor" stroke="none"></path><path d="M482.49,397.81h-92.04c-2.31,0-4.18,1.99-4.18,4.47v67.05h100.41v-67.05c0-2.48-1.87-4.47-4.19-4.47Z" fill="currentColor" stroke="none"></path><path fill="currentColor" d="M377.9 437.27L377.9 437.28 380.16 431.28 377.9 437.27z" stroke="none"></path><path d="M379.94,417.87c-.55-1.18-1.23-2.29-2.04-3.31h0c.81,1.03,1.49,2.14,2.04,3.31Z" fill="currentColor" stroke="none"></path><path fill="currentColor" d="M483.41 39.16L485.79 39.16 485.79 31.06 488.76 31.06 488.76 29.2 480.5 29.2 480.5 31.06 483.41 31.06 483.41 39.16z" stroke="none"></path><path fill="currentColor" d="M492.17 36.83L491.94 32.07 494.34 39.16 495.92 39.16 498.31 32.08 498.08 36.83 498.08 39.16 500.46 39.16 500.46 29.2 497.33 29.2 495.13 36.13 492.92 29.2 489.79 29.2 489.79 39.16 492.17 39.16 492.17 36.83z" stroke="none"></path><path d="M468.9,65.57c0-32.23-52.86-60.47-82.69-52.66L57.28,65.61c-25.11,1.18-45.13,22.87-45.13,49.48v353.57c0,26.04,21.31,47.34,47.34,47.34h409.33c26.03,0,47.33-21.3,47.33-47.34V115.09c0-27.35-21.15-49.52-47.25-49.52ZM370.31,54.58c9.95-2.6,51.18-6.61,51.18,4.13v7.26h-234.3l183.12-11.39ZM148.03,243.14c.01-27.59,13.03-53.55,35.14-70.05,14.65-10.79,32.35-16.63,50.55-16.68h27.19c21.48-.02,41.96-9.06,56.44-24.92.15-.17.35-.28.57-.33.46-.1.92.11,1.16.51.11.2.17.42.15.65-1.15,12.22-5.22,23.99-11.86,34.31-.1.18-.15.38-.14.58.03.42.31.78.71.92.19.07.4.08.6.04,25.45-5.75,46.67-23.24,57.16-47.13.13-.21.31-.39.53-.51.44-.25.98-.25,1.42,0,.21.12.39.3.52.51,10.66,20.41,14.25,43.77,10.23,66.44h0c-10.36,64.93-66.14,112.85-131.88,113.3-6.45.25-12.9-.14-19.28-1.16-27.45-4.66-47.92-27.87-49.13-55.69.12-31.68,25.9-57.26,57.58-57.14,31.19.12,56.57,25.14,57.13,56.33.24,9.5-3.88,17.84-12.34,18.09-9.05,0-13.28-6.46-13.28-15.15v-24.17c.01-8.14-6.55-14.76-14.69-14.82h-20.26c-19.48-.13-35.37,15.56-35.5,35.03-.13,19.48,15.56,35.37,35.03,35.5,10.12.07,19.77-4.21,26.52-11.75l.71-1.06.72,1.17c4.95,6.72,12.93,10.53,21.27,10.13,15.22-1.11,26.78-14.15,26.05-29.39.07-6.29-.63-12.57-2.1-18.69-8.37-38.63-46.47-63.16-85.11-54.79-33.05,7.16-56.58,36.47-56.41,70.29.47,38.98,31.68,70.6,70.64,71.58,0,0,5.31.48,11.28.34,29.08-.18,57.5-8.66,81.93-24.44.35-.24.7.24.46.59-24.07,25.93-58.33,39.94-93.67,38.31-46.67.85-85.2-36.3-86.05-82.97-.02-1.25-.02-2.5.02-3.76ZM255.14,222.98v19.74c0,11.68-9.47,21.15-21.15,21.15s-21.15-9.47-21.15-21.15,9.47-21.15,21.15-21.15l19.7-.04c.78.04,1.41.67,1.45,1.45ZM483.96,496.15h-96.03c-6.12,0-11.07-6-11.07-13.41h118.19c0,7.4-4.96,13.41-11.08,13.41ZM495.04,436.66v41.62h-117.14v-41l-19.76,52.3c-3.08,8.15-12.08,12.07-20.12,8.74l-87.2-36.18c-4.56-1.89-7.83-5.72-9.23-10.17l-5.75,30.06c-1.79,9.41-10.53,15.51-19.51,13.63l-48.76-10.25c-5.1-1.06-9.18-4.48-11.42-8.96-2.13,1.12-4.79,1.83-8.11,1.83h-33.47c0,5.96.69,10.43,2.09,13.41h6.27c2.31,0,4.19,2,4.19,4.47h-58.58c0-2.46,1.87-4.47,4.19-4.47h6.27c1.4-2.98,2.09-7.45,2.09-13.41h-33.47s-16.74,0-16.74-17.89v-53.65s0-7.63,4.67-12.92c2.48-2.81,6.26-4.96,12.07-4.96h100.4s16.74,0,16.74,17.89v4.79l9.33-48.8c1.8-9.41,6.54-15.51,15.51-13.62l52.77,10.24c8.97,1.89,14.8,11.04,12.99,20.45l-9.96,52.07,18.74-49.6c3.08-8.15,12.08-12.06,20.12-8.74l87.2,36.18c2.59,1.08,4.76,2.77,6.41,4.85v-12.29c0-7.4,5.62-13.42,12.54-13.42h92.04c3.16,0,6.05,1.24,8.25,3.32,2.63,2.45,4.3,6.07,4.3,10.1v34.38Z" fill="currentColor" stroke="none"></path></g></symbol><symbol id="icon-jsopx-maui-hybrid-net-core-logo-white-fill-simple" viewBox="0 0 528 528"><g class="jsopx-icon-wrapper"><path fill="currentColor" d="M483.41 39.16L485.79 39.16 485.79 31.06 488.76 31.06 488.76 29.2 480.5 29.2 480.5 31.06 483.41 31.06 483.41 39.16z" stroke="none"></path><path fill="currentColor" d="M492.17 36.83L491.94 32.07 494.34 39.16 495.92 39.16 498.31 32.08 498.08 36.83 498.08 39.16 500.46 39.16 500.46 29.2 497.33 29.2 495.13 36.13 492.92 29.2 489.79 29.2 489.79 39.16 492.17 39.16 492.17 36.83z" stroke="none"></path><path d="M240.77,367.88l-48.76-10.25c-4.49-.94-8.86,2.12-9.76,6.82l-17.46,91.32v4.61s0,4.58-2.17,9.11c.44,3.6,3.01,6.65,6.59,7.4l48.76,10.24c4.49.94,8.86-2.11,9.77-6.81l19.53-102.22c.91-4.7-2-9.28-6.5-10.23ZM204.97,466.69c-.9,4.7-5.26,7.75-9.76,6.81s-7.4-5.52-6.51-10.23c.91-4.7,5.28-7.75,9.77-6.81,4.48.94,7.39,5.52,6.5,10.23Z" fill="currentColor" stroke="none"></path><path d="M152.67,399.09c-1.13-.6-2.36-.95-3.38-1.13-.49-.09-.88-.12-1.12-.15-.09-.01-.16-.01-.19-.01H47.65c-2.72,0-4.21.69-5.04,1.29-.88.63-1.58,1.53-2.13,2.71-.56,1.21-.88,2.52-1.05,3.62-.09.53-.12.94-.15,1.19,0,.11,0,.18-.01.21v53.57c0,2.91.66,4.49,1.21,5.38.59.95,1.43,1.69,2.54,2.27,1.13.6,2.36.95,3.38,1.13.49.09.88.13,1.12.15.09.01.16.01.19.01h100.33c2.72,0,4.21-.69,5.04-1.29.46-.32.87-.74,1.23-1.22.06-.62.13-1.23.26-1.86l1.84-9.61v-48.61c0-2.9-.65-4.49-1.21-5.38-.58-.94-1.43-1.68-2.53-2.27Z" fill="currentColor" stroke="none"></path><path d="M245.43,431.89l-3.84,20.08c-1.06-3.38-1.06-7.11.27-10.62l2.09-5.54-2.09,5.53c-1.33,3.52-1.33,7.25-.27,10.63l3.84-20.09h0Z" fill="currentColor" stroke="none"></path><path fill="currentColor" d="M377.9 437.27L377.9 437.28 380.16 431.28 377.9 437.27z" stroke="none"></path><path d="M379.94,417.87c-.55-1.18-1.23-2.29-2.04-3.31h0c.81,1.03,1.49,2.14,2.04,3.31Z" fill="currentColor" stroke="none"></path><path d="M468.9,65.57c0-32.23-52.86-60.47-82.69-52.66L57.28,65.61c-25.11,1.18-45.13,22.87-45.13,49.48v353.57c0,26.04,21.31,47.34,47.34,47.34h409.33c26.03,0,47.33-21.3,47.33-47.34V115.09c0-27.35-21.15-49.52-47.25-49.52ZM370.31,54.58c9.95-2.6,51.18-6.61,51.18,4.13v7.26h-234.3l183.12-11.39ZM234.9,174.81l2.37-4.25c1.21-2.18,4.33-2.23,5.62-.1l10.72,17.8,9.58,16.6,9.96-17.9,9.69-17.4c1.23-2.2,4.39-2.23,5.65-.04l9.96,17.24,44.51,77.09c1.25,2.16-.31,4.87-2.81,4.87h-17.91c-1.16,0-2.23-.62-2.81-1.62l-33.45-57.94-9.96,17.9,18.35,31.79c1.25,2.16-.31,4.87-2.81,4.87h-17.91c-1.16,0-2.23-.62-2.81-1.62l-7.29-12.64-7.01,12.59c-.57,1.03-1.66,1.67-2.84,1.67h-17.75c-2.48,0-4.04-2.66-2.84-4.82l17.61-31.64-10.09-17.48-31.88,57.27c-.57,1.03-1.66,1.67-2.84,1.67h-17.75c-2.48,0-4.04-2.66-2.84-4.82l42.48-76.32,7.1-12.77ZM219.38,116.79c13.85-5.87,29.07-9.12,45.06-9.12s31.21,3.25,45.06,9.12h-90.12ZM333.66,130.68c24.7,18.5,41.74,46.65,45.53,78.86l-45.53-78.86ZM189.39,311.09c-19.73-16.87-33.71-40.27-38.6-66.85l38.6,66.85ZM301.27,332.79c-11.57,3.89-23.95,5.99-36.82,5.99s-25.26-2.11-36.82-5.99h73.65ZM378.24,243.4c-4.79,27.21-19.11,51.14-39.39,68.22l39.39-68.22ZM190.96,134.03l-40.51,70.17c4.66-28.11,19.45-52.8,40.51-70.17ZM483.96,496.15h-96.03c-6.12,0-11.07-6-11.07-13.41h118.19c0,7.4-4.96,13.41-11.08,13.41ZM495.04,436.66v41.62h-117.14v-41l-19.76,52.3c-3.08,8.15-12.08,12.07-20.12,8.74l-87.2-36.18c-4.56-1.89-7.83-5.72-9.23-10.17l-5.75,30.06c-1.79,9.41-10.53,15.51-19.51,13.63l-48.76-10.25c-5.1-1.06-9.18-4.48-11.42-8.96-2.13,1.12-4.79,1.83-8.11,1.83h-33.47c0,5.96.69,10.43,2.09,13.41h6.27c2.31,0,4.19,2,4.19,4.47h-58.58c0-2.46,1.87-4.47,4.19-4.47h6.27c1.4-2.98,2.09-7.45,2.09-13.41h-33.47s-16.74,0-16.74-17.89v-53.65s0-7.63,4.67-12.92c2.48-2.81,6.26-4.96,12.07-4.96h100.4s16.74,0,16.74,17.89v4.79l9.33-48.8c1.8-9.41,6.54-15.51,15.51-13.62l52.77,10.24c8.97,1.89,14.8,11.04,12.99,20.45l-9.96,52.07,18.74-49.6c3.08-8.15,12.08-12.06,20.12-8.74l87.2,36.18c2.59,1.08,4.76,2.77,6.41,4.85v-12.29c0-7.4,5.62-13.42,12.54-13.42h92.04c3.16,0,6.05,1.24,8.25,3.32,2.63,2.45,4.3,6.07,4.3,10.1v34.38Z" fill="currentColor" stroke="none"></path><path d="M368.7,417.1l-87.2-36.19c-4.01-1.67-8.51.29-10.06,4.37l-22.31,59.07c-1.53,4.08.47,8.74,4.48,10.4l87.2,36.18c4.02,1.67,8.52-.29,10.06-4.37l22.31-59.07c1.55-4.08-.46-8.74-4.48-10.39ZM354.76,454.02c-1.53,4.08-6.04,6.04-10.06,4.37-4.01-1.67-6.01-6.33-4.47-10.4,1.53-4.08,6.04-6.03,10.05-4.37,4.02,1.67,6.03,6.33,4.48,10.4Z" fill="currentColor" stroke="none"></path><path d="M482.49,397.81h-92.04c-2.31,0-4.18,1.99-4.18,4.47v67.05h100.41v-67.05c0-2.48-1.87-4.47-4.19-4.47Z" fill="currentColor" stroke="none"></path></g></symbol><symbol id="icon-jsopx-aspnet-core-logo-white-fill-simple" viewBox="0 0 528 528"><g class="jsopx-icon-wrapper"><g id="1737703696969-4086864_l" stroke="none"><path d="M245.43,431.89l-3.84,20.08c-1.06-3.38-1.06-7.11.27-10.62l2.09-5.54-2.09,5.53c-1.33,3.52-1.33,7.25-.27,10.63l3.84-20.09h0Z" fill="currentColor" stroke="none"></path><path fill="currentColor" d="M377.9 437.27L377.9 437.28 380.16 431.28 377.9 437.27z" stroke="none"></path><path d="M379.94,417.87c-.55-1.18-1.23-2.29-2.04-3.31h0c.81,1.03,1.49,2.14,2.04,3.31Z" fill="currentColor" stroke="none"></path><path d="M240.77,367.88l-48.76-10.25c-4.49-.94-8.86,2.12-9.76,6.82l-17.46,91.32v4.61s0,4.58-2.17,9.11c.44,3.6,3.01,6.65,6.59,7.4l48.76,10.24c4.49.94,8.86-2.11,9.77-6.81l19.53-102.22c.91-4.7-2-9.28-6.5-10.23ZM204.97,466.69c-.9,4.7-5.26,7.75-9.76,6.81s-7.4-5.52-6.51-10.23c.91-4.7,5.28-7.75,9.77-6.81,4.48.94,7.39,5.52,6.5,10.23Z" fill="currentColor" stroke="none"></path><path d="M152.67,399.09c-1.13-.6-2.36-.95-3.38-1.13-.49-.09-.88-.12-1.12-.15-.09-.01-.16-.01-.19-.01H47.65c-2.72,0-4.21.69-5.04,1.29-.88.63-1.58,1.53-2.13,2.71-.56,1.21-.88,2.52-1.05,3.62-.09.53-.12.94-.15,1.19,0,.11,0,.18-.01.21v53.57c0,2.91.66,4.49,1.21,5.38.59.95,1.43,1.69,2.54,2.27,1.13.6,2.36.95,3.38,1.13.49.09.88.13,1.12.15.09.01.16.01.19.01h100.33c2.72,0,4.21-.69,5.04-1.29.46-.32.87-.74,1.23-1.22.06-.62.13-1.23.26-1.86l1.84-9.61v-48.61c0-2.9-.65-4.49-1.21-5.38-.58-.94-1.43-1.68-2.53-2.27Z" fill="currentColor" stroke="none"></path><path d="M468.9,65.57c0-32.23-52.86-60.47-82.69-52.66L57.28,65.61c-25.11,1.18-45.13,22.87-45.13,49.48v353.57c0,26.04,21.31,47.34,47.34,47.34h409.33c26.03,0,47.33-21.3,47.33-47.34V115.09c0-27.35-21.15-49.52-47.25-49.52ZM370.31,54.58c9.95-2.6,51.18-6.61,51.18,4.13v7.26h-234.3l183.12-11.39ZM264,107.67c63.82,0,115.56,51.74,115.56,115.56s-51.74,115.56-115.56,115.56-115.56-51.74-115.56-115.56,51.74-115.56,115.56-115.56ZM483.96,496.15h-96.03c-6.12,0-11.07-6-11.07-13.41h118.19c0,7.4-4.96,13.41-11.08,13.41ZM495.04,436.66v41.62h-117.14v-41l-19.76,52.3c-3.08,8.15-12.08,12.07-20.12,8.74l-87.2-36.18c-4.56-1.89-7.83-5.72-9.23-10.17l-5.75,30.06c-1.79,9.41-10.53,15.51-19.51,13.63l-48.76-10.25c-5.1-1.06-9.18-4.48-11.42-8.96-2.13,1.12-4.79,1.83-8.11,1.83h-33.47c0,5.96.69,10.43,2.09,13.41h6.27c2.31,0,4.19,2,4.19,4.47h-58.58c0-2.46,1.87-4.47,4.19-4.47h6.27c1.4-2.98,2.09-7.45,2.09-13.41h-33.47s-16.74,0-16.74-17.89v-53.65s0-7.63,4.67-12.92c2.48-2.81,6.26-4.96,12.07-4.96h100.4s16.74,0,16.74,17.89v4.79l9.33-48.8c1.8-9.41,6.54-15.51,15.51-13.62l52.77,10.24c8.97,1.89,14.8,11.04,12.99,20.45l-9.96,52.07,18.74-49.6c3.08-8.15,12.08-12.06,20.12-8.74l87.2,36.18c2.59,1.08,4.76,2.77,6.41,4.85v-12.29c0-7.4,5.62-13.42,12.54-13.42h92.04c3.16,0,6.05,1.24,8.25,3.32,2.63,2.45,4.3,6.07,4.3,10.1v34.38Z" fill="currentColor" stroke="none"></path><path d="M482.49,397.81h-92.04c-2.31,0-4.18,1.99-4.18,4.47v67.05h100.41v-67.05c0-2.48-1.87-4.47-4.19-4.47Z" fill="currentColor" stroke="none"></path><path d="M368.7,417.1l-87.2-36.19c-4.01-1.67-8.51.29-10.06,4.37l-22.31,59.07c-1.53,4.08.47,8.74,4.48,10.4l87.2,36.18c4.02,1.67,8.52-.29,10.06-4.37l22.31-59.07c1.55-4.08-.46-8.74-4.48-10.39ZM354.76,454.02c-1.53,4.08-6.04,6.04-10.06,4.37-4.01-1.67-6.01-6.33-4.47-10.4,1.53-4.08,6.04-6.03,10.05-4.37,4.02,1.67,6.03,6.33,4.48,10.4Z" fill="currentColor" stroke="none"></path><path d="M176.25,230.84c-1.58,0-2.77.45-3.57,1.34-.79.9-1.19,2.02-1.19,3.36s.4,2.37,1.19,3.23,1.98,1.3,3.57,1.3,2.79-.43,3.61-1.3c.82-.87,1.23-1.95,1.23-3.23s-.41-2.46-1.23-3.36c-.82-.9-2.02-1.34-3.61-1.34Z" fill="currentColor" stroke="none"></path><path fill="currentColor" d="M202.22 192.5L232.79 239.62 240.84 239.62 240.84 178.48 232.87 178.48 232.87 225.8 202.22 178.48 194.17 178.48 194.17 239.62 202.22 239.62 202.22 192.5z" stroke="none"></path><path fill="currentColor" d="M292.79 233.02L262.22 233.02 262.22 211.36 288.54 211.36 288.54 204.76 262.22 204.76 262.22 185.07 292.38 185.07 292.38 178.48 254.21 178.48 254.21 239.62 292.79 239.62 292.79 233.02z" stroke="none"></path><path fill="currentColor" d="M318.5 239.62L326.46 239.62 326.46 185.07 345.98 185.07 345.98 178.48 299.02 178.48 299.02 185.07 318.5 185.07 318.5 239.62z" stroke="none"></path><path d="M221.4,256.99c1.62-2.13,3.86-3.19,6.72-3.19,2.33,0,4.14.61,5.44,1.83,1.3,1.22,2.14,3.2,2.53,5.92h4.49c-.36-3.58-1.62-6.38-3.79-8.4s-5.06-3.04-8.66-3.04c-2.72,0-5.11.64-7.17,1.93-2.06,1.29-3.66,3.14-4.78,5.54s-1.69,5.2-1.69,8.37v3.28c0,4.84,1.21,8.71,3.62,11.6,2.41,2.89,5.62,4.34,9.63,4.34,3.69,0,6.65-.98,8.88-2.94,2.23-1.96,3.55-4.75,3.97-8.36h-4.49c-.43,2.81-1.32,4.79-2.64,5.92-1.33,1.13-3.23,1.7-5.72,1.7-2.76,0-4.91-1.09-6.45-3.28-1.54-2.19-2.3-5.14-2.3-8.84v-3.31c0-3.92.81-6.95,2.43-9.08Z" fill="currentColor" stroke="none"></path><path d="M255.86,285.18c2.27,0,4.27-.55,6.02-1.64,1.75-1.09,3.09-2.62,4.03-4.58.94-1.96,1.41-4.18,1.41-6.64v-.3c0-3.97-1.06-7.15-3.18-9.54s-4.89-3.59-8.32-3.59c-2.22,0-4.19.54-5.92,1.62-1.73,1.08-3.08,2.61-4.05,4.59-.97,1.98-1.46,4.22-1.46,6.7v.3c0,3.94,1.06,7.1,3.18,9.49,2.12,2.39,4.88,3.59,8.3,3.59ZM250.66,265c1.3-1.7,3.02-2.55,5.15-2.55s3.91.86,5.23,2.59,1.97,3.98,1.97,6.76c0,3.11-.64,5.53-1.93,7.25-1.29,1.73-3.03,2.59-5.21,2.59s-3.91-.85-5.2-2.55c-1.3-1.7-1.94-3.96-1.94-6.77,0-3.17.65-5.61,1.96-7.31Z" fill="currentColor" stroke="none"></path><path d="M276.49,262.29l-.07-2.93h-4.19v25.36h4.31v-18c1.01-2.42,2.92-3.63,5.75-3.63.76,0,1.47.05,2.12.16v-4.03c-.43-.22-1.07-.33-1.91-.33-2.59,0-4.59,1.13-6.01,3.4Z" fill="currentColor" stroke="none"></path><path d="M287.79,265.2c-.95,1.98-1.43,4.22-1.43,6.74v.8c0,3.78,1.07,6.8,3.21,9.06s4.92,3.39,8.33,3.39c4.22,0,7.39-1.63,9.5-4.9l-2.63-2.06c-.79,1.03-1.71,1.86-2.77,2.48s-2.34.94-3.86.94c-2.14,0-3.91-.77-5.3-2.31-1.39-1.54-2.11-3.56-2.18-6.06h17.06v-1.8c0-4.05-.91-7.16-2.72-9.33-1.82-2.17-4.36-3.26-7.64-3.26-2,0-3.86.56-5.58,1.68-1.72,1.12-3.05,2.66-4,4.64ZM297.37,262.45c1.8,0,3.23.61,4.28,1.82,1.06,1.21,1.65,2.92,1.77,5.12v.33h-12.62c.28-2.3,1.01-4.08,2.19-5.36s2.64-1.91,4.38-1.91Z" fill="currentColor" stroke="none"></path></g></g></symbol><symbol id="icon-jsopx-vue-core-logo-white-fill-simple" viewBox="0 0 528 528"><g class="jsopx-icon-wrapper"><path d="M152.67,399.09c-1.13-.6-2.36-.95-3.38-1.13-.49-.09-.88-.12-1.12-.15-.09-.01-.16-.01-.19-.01H47.65c-2.72,0-4.21.69-5.04,1.29-.88.63-1.58,1.53-2.13,2.71-.56,1.21-.88,2.52-1.05,3.62-.09.53-.12.94-.15,1.19,0,.11,0,.18-.01.21v53.57c0,2.91.66,4.49,1.21,5.38.59.95,1.43,1.69,2.54,2.27,1.13.6,2.36.95,3.38,1.13.49.09.88.13,1.12.15.09.01.16.01.19.01h100.33c2.72,0,4.21-.69,5.04-1.29.46-.32.87-.74,1.23-1.22.06-.62.13-1.23.26-1.86l1.84-9.61v-48.61c0-2.9-.65-4.49-1.21-5.38-.58-.94-1.43-1.68-2.53-2.27Z" fill="currentColor" stroke="none"></path><path d="M379.94,417.87c-.55-1.18-1.23-2.29-2.04-3.31h0c.81,1.03,1.49,2.14,2.04,3.31Z" fill="currentColor" stroke="none"></path><path d="M245.43,431.89l-3.84,20.08c-1.06-3.38-1.06-7.11.27-10.62l2.09-5.54-2.09,5.53c-1.33,3.52-1.33,7.25-.27,10.63l3.84-20.09h0Z" fill="currentColor" stroke="none"></path><path d="M240.77,367.88l-48.76-10.25c-4.49-.94-8.86,2.12-9.76,6.82l-17.46,91.32v4.61s0,4.58-2.17,9.11c.44,3.6,3.01,6.65,6.59,7.4l48.76,10.24c4.49.94,8.86-2.11,9.77-6.81l19.53-102.22c.91-4.7-2-9.28-6.5-10.23ZM204.97,466.69c-.9,4.7-5.26,7.75-9.76,6.81s-7.4-5.52-6.51-10.23c.91-4.7,5.28-7.75,9.77-6.81,4.48.94,7.39,5.52,6.5,10.23Z" fill="currentColor" stroke="none"></path><path fill="currentColor" d="M377.9 437.27L377.9 437.28 380.16 431.28 377.9 437.27z" stroke="none"></path><path d="M482.49,397.81h-92.04c-2.31,0-4.18,1.99-4.18,4.47v67.05h100.41v-67.05c0-2.48-1.87-4.47-4.19-4.47Z" fill="currentColor" stroke="none"></path><path d="M468.9,65.57c0-32.23-52.86-60.47-82.69-52.66L57.28,65.61c-25.11,1.18-45.13,22.87-45.13,49.48v353.57c0,26.04,21.31,47.34,47.34,47.34h409.33c26.03,0,47.33-21.3,47.33-47.34V115.09c0-27.35-21.15-49.52-47.25-49.52ZM370.31,54.58c9.95-2.6,51.18-6.61,51.18,4.13v7.26h-234.3l183.12-11.39ZM239.34,128.21l26.91,46.6,26.9-46.6h89.6l-116.5,201.79-116.5-201.79h89.59ZM483.96,496.15h-96.03c-6.12,0-11.07-6-11.07-13.41h118.19c0,7.4-4.96,13.41-11.08,13.41ZM495.04,436.66v41.62h-117.14v-41l-19.76,52.3c-3.08,8.15-12.08,12.07-20.12,8.74l-87.2-36.18c-4.56-1.89-7.83-5.72-9.23-10.17l-5.75,30.06c-1.79,9.41-10.53,15.51-19.51,13.63l-48.76-10.25c-5.1-1.06-9.18-4.48-11.42-8.96-2.13,1.12-4.79,1.83-8.11,1.83h-33.47c0,5.96.69,10.43,2.09,13.41h6.27c2.31,0,4.19,2,4.19,4.47h-58.58c0-2.46,1.87-4.47,4.19-4.47h6.27c1.4-2.98,2.09-7.45,2.09-13.41h-33.47s-16.74,0-16.74-17.89v-53.65s0-7.63,4.67-12.92c2.48-2.81,6.26-4.96,12.07-4.96h100.4s16.74,0,16.74,17.89v4.79l9.33-48.8c1.8-9.41,6.54-15.51,15.51-13.62l52.77,10.24c8.97,1.89,14.8,11.04,12.99,20.45l-9.96,52.07,18.74-49.6c3.08-8.15,12.08-12.06,20.12-8.74l87.2,36.18c2.59,1.08,4.76,2.77,6.41,4.85v-12.29c0-7.4,5.62-13.42,12.54-13.42h92.04c3.16,0,6.05,1.24,8.25,3.32,2.63,2.45,4.3,6.07,4.3,10.1v34.38Z" fill="currentColor" stroke="none"></path><path d="M368.7,417.1l-87.2-36.19c-4.01-1.67-8.51.29-10.06,4.37l-22.31,59.07c-1.53,4.08.47,8.74,4.48,10.4l87.2,36.18c4.02,1.67,8.52-.29,10.06-4.37l22.31-59.07c1.55-4.08-.46-8.74-4.48-10.39ZM354.76,454.02c-1.53,4.08-6.04,6.04-10.06,4.37-4.01-1.67-6.01-6.33-4.47-10.4,1.53-4.08,6.04-6.03,10.05-4.37,4.02,1.67,6.03,6.33,4.48,10.4Z" fill="currentColor" stroke="none"></path><path fill="currentColor" d="M293.15 137.57L266.25 184.17 239.34 137.57 196.35 137.57 266.25 258.64 336.15 137.57 293.15 137.57z" stroke="none"></path></g></symbol><symbol id="icon-jsopx-react-core-logo-white-fill-simple" viewBox="0 0 528 528"><g class="jsopx-icon-wrapper"><g id="1737692171071-8988881_b" stroke="none"><g id="1737692171071-8988881_c" stroke="none"><path d="M191.31,232.14c-2.01,2.07-3.96,4.19-5.85,6.37-14.99,17.38-20.69,33.51-16.33,41.06,3.66,4.56,9.03,7.41,14.86,7.86,10.51,1.57,21.22,1.19,31.6-1.11,2.03-.41,4.04-.86,6.04-1.36-2.41-10.7-4.11-21.54-5.1-32.46-8.85-6.22-17.27-13.02-25.22-20.36Z" fill="currentColor" stroke="none"></path><path d="M244.81,258.44c6.35,3.65,12.82,7.06,19.42,10.22,6.27-3.09,12.66-6.52,19.11-10.24,6.48-3.74,12.71-7.64,18.61-11.63.46-7.26.69-14.52.68-21.8,0-7.32-.26-14.62-.78-21.92-6.06-4.03-12.24-7.86-18.55-11.48-6.28-3.62-12.68-7.02-19.2-10.18-6.43,3.09-12.91,6.49-19.33,10.2-6.39,3.69-12.57,7.59-18.47,11.61-.53,7.14-.81,14.29-.81,21.43v.38c0,7.28.28,14.55.83,21.81,6.02,4.1,12.18,7.97,18.49,11.6ZM253.26,206.32c3.37-1.95,7.05-2.87,10.68-2.87,7.39,0,14.57,3.83,18.53,10.69,5.9,10.23,2.4,23.3-7.83,29.21-10.22,5.9-23.3,2.4-29.2-7.83-5.91-10.23-2.4-23.3,7.82-29.2Z" fill="currentColor" stroke="none"></path><path d="M239.71,267.3c-4.08-2.35-8.11-4.79-12.08-7.33.98,7.77,2.27,15.22,3.85,22.18,7.09-2.29,14.07-4.95,20.89-7.96-4.28-2.19-8.5-4.49-12.66-6.89Z" fill="currentColor" stroke="none"></path><path d="M191.33,217.85c7.95-7.3,16.36-14.07,25.18-20.28.97-10.78,2.66-21.49,5.05-32.06-1.62-.39-3.21-.75-4.77-1.07-24.46-5.02-43.1-1.89-47.72,6.13-.91,1.58-1.36,3.57-1.36,5.87,0,8.66,6.35,21.89,18.5,35.84,1.66,1.9,3.37,3.75,5.12,5.57Z" fill="currentColor" stroke="none"></path><path d="M198.65,225c5.15,4.77,10.83,9.51,16.95,14.14-.23-4.7-.34-9.4-.34-14.1s.11-9.42.32-14.12c-6.1,4.62-11.78,9.34-16.93,14.08Z" fill="currentColor" stroke="none"></path><path d="M231.42,168.26c-1.56,6.87-2.84,14.19-3.8,21.83,7.95-5.1,16.12-9.82,24.51-14.15-6.77-2.9-13.68-5.47-20.71-7.68Z" fill="currentColor" stroke="none"></path><path d="M288.41,182.73c4.11,2.36,8.18,4.81,12.19,7.34-.86-7.28-2.08-14.52-3.67-21.68-6.74,2.07-13.72,4.62-20.82,7.61,4.15,2.15,8.25,4.4,12.3,6.73Z" fill="currentColor" stroke="none"></path><path d="M337.31,217.56c.99-1.04,1.94-2.07,2.86-3.1,16.59-18.65,23.23-36.36,18.6-44.37-4.35-7.53-21.69-10.54-44.69-6.06-2.38.46-4.81,1-7.29,1.61,2.33,10.45,3.95,21.04,4.86,31.71,9,6.15,17.58,12.9,25.66,20.21Z" fill="currentColor" stroke="none"></path><path d="M276.19,274.04c7.2,3.03,14.28,5.63,21.09,7.73,1.56-7.27,2.73-14.61,3.53-22-4.01,2.56-8.13,5.06-12.35,7.51-4.12,2.37-8.21,4.63-12.27,6.76Z" fill="currentColor" stroke="none"></path><path d="M294.38,158.47c-.45-1.56-.94-3.12-1.45-4.66-7.86-23.7-19.88-38.29-29.14-38.28-8.69,0-19.96,13.52-27.58,35.68-.8,2.36-1.55,4.74-2.24,7.13,10.31,3.24,20.38,7.16,30.16,11.76,9.81-4.54,19.92-8.43,30.25-11.63Z" fill="currentColor" stroke="none"></path><path d="M368.7,417.1l-87.2-36.19c-4.01-1.67-8.51.29-10.06,4.37l-22.31,59.07c-1.53,4.08.47,8.74,4.48,10.4l87.2,36.18c4.02,1.67,8.52-.29,10.06-4.37l22.31-59.07c1.55-4.08-.46-8.74-4.48-10.39ZM354.76,454.02c-1.53,4.08-6.04,6.04-10.06,4.37-4.01-1.67-6.01-6.33-4.47-10.4,1.53-4.08,6.04-6.03,10.05-4.37,4.02,1.67,6.03,6.33,4.48,10.4Z" fill="currentColor" stroke="none"></path><path d="M379.94,417.87c-.55-1.18-1.23-2.29-2.04-3.31h0c.81,1.03,1.49,2.14,2.04,3.31Z" fill="currentColor" stroke="none"></path><path fill="currentColor" d="M377.9 437.27L377.9 437.28 380.16 431.28 377.9 437.27z" stroke="none"></path><path d="M234.02,292.08c.75,2.61,1.57,5.2,2.46,7.76,7.57,21.67,18.7,34.67,27.42,34.66,2.88-.44,5.62-1.48,8.04-3,2.42-1.52,4.54-3.53,6.19-5.94,6.61-8.32,11.63-17.79,14.82-27.94.66-1.95,1.28-3.93,1.85-5.91-10.41-3.24-20.6-7.15-30.5-11.72-9.81,4.71-19.92,8.75-30.28,12.09Z" fill="currentColor" stroke="none"></path><path d="M468.9,65.57c0-32.23-52.86-60.47-82.69-52.66L57.28,65.61c-25.11,1.18-45.13,22.87-45.13,49.48v353.57c0,26.04,21.31,47.34,47.34,47.34h409.33c26.03,0,47.33-21.3,47.33-47.34V115.09c0-27.35-21.15-49.52-47.25-49.52ZM370.31,54.58c9.95-2.6,51.18-6.61,51.18,4.13v7.26h-234.3l183.12-11.39ZM160.2,165.46c7.51-13.03,30.32-16.86,58.65-11.04,1.76.36,3.51.76,5.26,1.19.75-2.6,1.56-5.17,2.43-7.72,8.89-25.86,22.83-42.58,37.24-42.59,15.04-.01,29.75,17.84,38.86,45.29.57,1.7,1.1,3.42,1.6,5.15,2.61-.65,5.24-1.24,7.89-1.76,26.84-5.22,48.29-1.49,55.5,10.99,7.51,13.03-.6,34.69-19.82,56.29-1.02,1.14-2.08,2.28-3.16,3.43,1.55,1.61,3.04,3.22,4.44,4.82,18.38,21,26.01,42.57,18.61,55.43-7.17,12.45-28.11,16.37-54.49,11.38-2.87-.54-5.72-1.17-8.56-1.88-.64,2.24-1.31,4.4-2.02,6.49-9.01,26.41-23.89,43.79-38.73,43.8-14.36.01-28.22-16.17-37.07-41.52-.96-2.76-1.84-5.54-2.65-8.34-2.19.55-4.4,1.04-6.62,1.48-27.37,5.39-49.87,1.19-57.29-11.66-7.18-12.44-.08-32.53,17.45-52.86,1.96-2.27,4.06-4.56,6.28-6.85-1.88-1.94-3.72-3.94-5.5-5.98-17.97-20.62-25.49-41.04-18.3-53.54ZM483.96,496.15h-96.03c-6.12,0-11.07-6-11.07-13.41h118.19c0,7.4-4.96,13.41-11.08,13.41ZM495.04,436.66v41.62h-117.14v-41l-19.76,52.3c-3.08,8.15-12.08,12.07-20.12,8.74l-87.2-36.18c-4.56-1.89-7.83-5.72-9.23-10.17l-5.75,30.06c-1.79,9.41-10.53,15.51-19.51,13.63l-48.76-10.25c-5.1-1.06-9.18-4.48-11.42-8.96-2.13,1.12-4.79,1.83-8.11,1.83h-33.47c0,5.96.69,10.43,2.09,13.41h6.27c2.31,0,4.19,2,4.19,4.47h-58.58c0-2.46,1.87-4.47,4.19-4.47h6.27c1.4-2.98,2.09-7.45,2.09-13.41h-33.47s-16.74,0-16.74-17.89v-53.65s0-7.63,4.67-12.92c2.48-2.81,6.26-4.96,12.07-4.96h100.4s16.74,0,16.74,17.89v4.79l9.33-48.8c1.8-9.41,6.54-15.51,15.51-13.62l52.77,10.24c8.97,1.89,14.8,11.04,12.99,20.45l-9.96,52.07,18.74-49.6c3.08-8.15,12.08-12.06,20.12-8.74l87.2,36.18c2.59,1.08,4.76,2.77,6.41,4.85v-12.29c0-7.4,5.62-13.42,12.54-13.42h92.04c3.16,0,6.05,1.24,8.25,3.32,2.63,2.45,4.3,6.07,4.3,10.1v34.38Z" fill="currentColor" stroke="none"></path><path d="M245.43,431.89l-3.84,20.08c-1.06-3.38-1.06-7.11.27-10.62l2.09-5.54-2.09,5.53c-1.33,3.52-1.33,7.25-.27,10.63l3.84-20.09h0Z" fill="currentColor" stroke="none"></path><path d="M482.49,397.81h-92.04c-2.31,0-4.18,1.99-4.18,4.47v67.05h100.41v-67.05c0-2.48-1.87-4.47-4.19-4.47Z" fill="currentColor" stroke="none"></path><path d="M337.37,231.88c-8.04,7.43-16.59,14.29-25.58,20.54-.82,10.8-2.37,21.52-4.64,32.11,2.72.67,5.38,1.25,7.96,1.74,22.56,4.27,39.37,1.12,43.72-6.44,2.12-5.44,1.89-11.52-.64-16.79-1.95-4.94-4.35-9.69-7.17-14.17-2.81-4.49-6.03-8.71-9.63-12.62-1.27-1.45-2.61-2.91-4.02-4.37Z" fill="currentColor" stroke="none"></path><path d="M330.02,224.75c-5.58-5.04-11.42-9.78-17.49-14.22.21,4.82.32,9.64.33,14.46,0,4.74-.09,9.49-.28,14.23,6.06-4.52,11.88-9.35,17.44-14.47Z" fill="currentColor" stroke="none"></path><path d="M152.67,399.09c-1.13-.6-2.36-.95-3.38-1.13-.49-.09-.88-.12-1.12-.15-.09-.01-.16-.01-.19-.01H47.65c-2.72,0-4.21.69-5.04,1.29-.88.63-1.58,1.53-2.13,2.71-.56,1.21-.88,2.52-1.05,3.62-.09.53-.12.94-.15,1.19,0,.11,0,.18-.01.21v53.57c0,2.91.66,4.49,1.21,5.38.59.95,1.43,1.69,2.54,2.27,1.13.6,2.36.95,3.38,1.13.49.09.88.13,1.12.15.09.01.16.01.19.01h100.33c2.72,0,4.21-.69,5.04-1.29.46-.32.87-.74,1.23-1.22.06-.62.13-1.23.26-1.86l1.84-9.61v-48.61c0-2.9-.65-4.49-1.21-5.38-.58-.94-1.43-1.68-2.53-2.27Z" fill="currentColor" stroke="none"></path><path d="M240.77,367.88l-48.76-10.25c-4.49-.94-8.86,2.12-9.76,6.82l-17.46,91.32v4.61s0,4.58-2.17,9.11c.44,3.6,3.01,6.65,6.59,7.4l48.76,10.24c4.49.94,8.86-2.11,9.77-6.81l19.53-102.22c.91-4.7-2-9.28-6.5-10.23ZM204.97,466.69c-.9,4.7-5.26,7.75-9.76,6.81s-7.4-5.52-6.51-10.23c.91-4.7,5.28-7.75,9.77-6.81,4.48.94,7.39,5.52,6.5,10.23Z" fill="currentColor" stroke="none"></path></g></g></g></symbol><symbol id="icon-jsopx-angular-core-logo-white-fill-simple" viewBox="0 0 528 528"><g class="jsopx-icon-wrapper"><path d="M152.67,399.09c-1.13-.6-2.36-.95-3.38-1.13-.49-.09-.88-.12-1.12-.15-.09-.01-.16-.01-.19-.01H47.65c-2.72,0-4.21.69-5.04,1.29-.88.63-1.58,1.53-2.13,2.71-.56,1.21-.88,2.52-1.05,3.62-.09.53-.12.94-.15,1.19,0,.11,0,.18-.01.21v53.57c0,2.91.66,4.49,1.21,5.38.59.95,1.43,1.69,2.54,2.27,1.13.6,2.36.95,3.38,1.13.49.09.88.13,1.12.15.09.01.16.01.19.01h100.33c2.72,0,4.21-.69,5.04-1.29.46-.32.87-.74,1.23-1.22.06-.62.13-1.23.26-1.86l1.84-9.61v-48.61c0-2.9-.65-4.49-1.21-5.38-.58-.94-1.43-1.68-2.53-2.27Z" fill="currentColor" stroke="none"></path><path fill="currentColor" d="M314.22 280.53L318.61 290.52 344.87 291.07 267.93 129.45 267.81 129.71 339.87 281.07 314.22 280.53z" stroke="none"></path><path d="M240.77,367.88l-48.76-10.25c-4.49-.94-8.86,2.12-9.76,6.82l-17.46,91.32v4.61s0,4.58-2.17,9.11c.44,3.6,3.01,6.65,6.59,7.4l48.76,10.24c4.49.94,8.86-2.11,9.77-6.81l19.53-102.22c.91-4.7-2-9.28-6.5-10.23ZM204.97,466.69c-.9,4.7-5.26,7.75-9.76,6.81s-7.4-5.52-6.51-10.23c.91-4.7,5.28-7.75,9.77-6.81,4.48.94,7.39,5.52,6.5,10.23Z" fill="currentColor" stroke="none"></path><path fill="currentColor" d="M267.75 182.06L268.05 181.36 263.11 171.22 262.75 172.06 241.26 222.44 250.52 222.44 267.75 182.06z" stroke="none"></path><path fill="currentColor" d="M236.53 253.73L267.75 253.73 301.84 253.73 297.45 243.73 262.75 243.73 231.53 243.73 216.66 280.16 198.77 280.51 194.11 290.7 221.66 290.16 236.53 253.73z" stroke="none"></path><path d="M482.49,397.81h-92.04c-2.31,0-4.18,1.99-4.18,4.47v67.05h100.41v-67.05c0-2.48-1.87-4.47-4.19-4.47Z" fill="currentColor" stroke="none"></path><path d="M245.43,431.89l-3.84,20.08c-1.06-3.38-1.06-7.11.27-10.62l2.09-5.54-2.09,5.53c-1.33,3.52-1.33,7.25-.27,10.63l3.84-20.09h0Z" fill="currentColor" stroke="none"></path><path d="M379.94,417.87c-.55-1.18-1.23-2.29-2.04-3.31h0c.81,1.03,1.49,2.14,2.04,3.31Z" fill="currentColor" stroke="none"></path><path fill="currentColor" d="M377.9 437.27L377.9 437.28 380.16 431.28 377.9 437.27z" stroke="none"></path><path d="M368.7,417.1l-87.2-36.19c-4.01-1.67-8.51.29-10.06,4.37l-22.31,59.07c-1.53,4.08.47,8.74,4.48,10.4l87.2,36.18c4.02,1.67,8.52-.29,10.06-4.37l22.31-59.07c1.55-4.08-.46-8.74-4.48-10.39ZM354.76,454.02c-1.53,4.08-6.04,6.04-10.06,4.37-4.01-1.67-6.01-6.33-4.47-10.4,1.53-4.08,6.04-6.03,10.05-4.37,4.02,1.67,6.03,6.33,4.48,10.4Z" fill="currentColor" stroke="none"></path><path fill="currentColor" d="M483.41 39.16L485.79 39.16 485.79 31.06 488.76 31.06 488.76 29.2 480.5 29.2 480.5 31.06 483.41 31.06 483.41 39.16z" stroke="none"></path><path fill="currentColor" d="M492.17 36.83L491.94 32.07 494.34 39.16 495.92 39.16 498.31 32.08 498.08 36.83 498.08 39.16 500.46 39.16 500.46 29.2 497.33 29.2 495.13 36.13 492.92 29.2 489.79 29.2 489.79 39.16 492.17 39.16 492.17 36.83z" stroke="none"></path><path d="M231.53,243.73h65.92l4.39,10h.61l11.77,26.8,25.65.54-72.06-151.36-.06.13-68.98,150.67,17.89-.35,14.87-36.43ZM262.75,172.06l.36-.84,4.94,10.13.06-.13,24.98,51.22h-46.83l4.27-10h-9.27l21.49-50.38Z" fill="currentColor" stroke="none"></path><path d="M468.9,65.57c0-32.23-52.86-60.47-82.69-52.66L57.28,65.61c-25.11,1.18-45.13,22.87-45.13,49.48v353.57c0,26.04,21.31,47.34,47.34,47.34h409.33c26.03,0,47.33-21.3,47.33-47.34V115.09c0-27.35-21.15-49.52-47.25-49.52ZM370.31,54.58c9.95-2.6,51.18-6.61,51.18,4.13v7.26h-234.3l183.12-11.39ZM267.75,108.24h.04s118.52,38.14,118.52,38.14l-19.16,144.02-99.36,51.83-.04-.02-97.72-51.14-17.72-144.01,115.44-38.82ZM483.96,496.15h-96.03c-6.12,0-11.07-6-11.07-13.41h118.19c0,7.4-4.96,13.41-11.08,13.41ZM495.04,436.66v41.62h-117.14v-41l-19.76,52.3c-3.08,8.15-12.08,12.07-20.12,8.74l-87.2-36.18c-4.56-1.89-7.83-5.72-9.23-10.17l-5.75,30.06c-1.79,9.41-10.53,15.51-19.51,13.63l-48.76-10.25c-5.1-1.06-9.18-4.48-11.42-8.96-2.13,1.12-4.79,1.83-8.11,1.83h-33.47c0,5.96.69,10.43,2.09,13.41h6.27c2.31,0,4.19,2,4.19,4.47h-58.58c0-2.46,1.87-4.47,4.19-4.47h6.27c1.4-2.98,2.09-7.45,2.09-13.41h-33.47s-16.74,0-16.74-17.89v-53.65s0-7.63,4.67-12.92c2.48-2.81,6.26-4.96,12.07-4.96h100.4s16.74,0,16.74,17.89v4.79l9.33-48.8c1.8-9.41,6.54-15.51,15.51-13.62l52.77,10.24c8.97,1.89,14.8,11.04,12.99,20.45l-9.96,52.07,18.74-49.6c3.08-8.15,12.08-12.06,20.12-8.74l87.2,36.18c2.59,1.08,4.76,2.77,6.41,4.85v-12.29c0-7.4,5.62-13.42,12.54-13.42h92.04c3.16,0,6.05,1.24,8.25,3.32,2.63,2.45,4.3,6.07,4.3,10.1v34.38Z" fill="currentColor" stroke="none"></path></g></symbol><symbol id="icon-jsopx-web-api-white-fill-simple" viewBox="0 0 504.5 504.9"><g class="jsopx-icon-wrapper"><path d="M294.76,175.11h-20.88v37.73h20.53c6.07,0,10.7-1.53,13.88-4.58,3.18-3.05,4.78-7.37,4.78-12.94,0-6.11-1.64-10.99-4.91-14.64-3.27-3.65-7.73-5.51-13.39-5.57Z" fill="currentColor" stroke="none"></path><path d="M140.77,387.75c-1.13-.6-2.36-.95-3.38-1.13-.49-.09-.88-.12-1.12-.15-.09-.01-.16-.01-.19-.01H35.75c-2.72,0-4.21.69-5.04,1.29-.88.63-1.58,1.53-2.13,2.71-.56,1.21-.88,2.52-1.05,3.62-.09.53-.12.94-.15,1.19,0,.11,0,.18-.01.21v53.57c0,2.91.66,4.49,1.21,5.38.59.95,1.43,1.69,2.54,2.27,1.13.6,2.36.95,3.38,1.13.49.09.88.13,1.12.15.09.01.16.01.19.01h100.33c2.72,0,4.21-.69,5.04-1.29.46-.32.87-.74,1.23-1.22.06-.62.13-1.23.26-1.86l1.84-9.61v-48.61c0-2.9-.65-4.49-1.21-5.38-.58-.94-1.43-1.68-2.53-2.27Z" fill="currentColor" stroke="none"></path><path d="M457,54.22c0-32.23-52.86-60.47-82.69-52.66L45.38,54.26C20.27,55.44.25,77.13.25,103.74v353.57c0,26.04,21.31,47.34,47.34,47.34h409.33c26.03,0,47.33-21.3,47.33-47.34V103.74c0-27.35-21.15-49.52-47.25-49.52ZM358.41,43.23c9.95-2.6,51.18-6.61,51.18,4.13v7.26h-234.3l183.12-11.39ZM395.8,150.77v130.81h-31.23v-130.81h31.23ZM344.82,195.15c0,12.76-4.54,22.96-13.61,30.59s-21.52,11.46-37.35,11.46h-19.99v44.38h-31.32v-130.81h51.85c9.94,0,18.73,1.84,26.37,5.53s13.56,8.93,17.76,15.72c4.19,6.8,6.29,14.51,6.29,23.13ZM149.28,136.55h32.65l53.23,145.03h-37.3l-8.41-27.09h-47.59l-8.31,27.09h-37.1l52.83-145.03ZM472.06,484.81h-96.03c-6.12,0-11.07-6-11.07-13.41h118.19c0,7.4-4.96,13.41-11.08,13.41ZM483.14,425.31v41.62h-117.14v-41l-19.76,52.3c-3.08,8.15-12.08,12.07-20.12,8.74l-87.2-36.18c-4.56-1.89-7.83-5.72-9.23-10.17l-5.75,30.06c-1.79,9.41-10.53,15.51-19.51,13.63l-48.76-10.25c-5.1-1.06-9.18-4.48-11.42-8.96-2.13,1.12-4.79,1.83-8.11,1.83h-33.47c0,5.96.69,10.43,2.09,13.41h6.27c2.31,0,4.19,2,4.19,4.47h-58.58c0-2.46,1.87-4.47,4.19-4.47h6.27c1.4-2.98,2.09-7.45,2.09-13.41h-33.47s-16.74,0-16.74-17.89v-53.65s0-7.63,4.67-12.92c2.48-2.81,6.26-4.96,12.07-4.96h100.4s16.74,0,16.74,17.89v4.79l9.33-48.8c1.8-9.41,6.54-15.51,15.51-13.62l52.77,10.24c8.97,1.89,14.8,11.04,12.99,20.45l-9.96,52.07,18.74-49.6c3.08-8.15,12.08-12.06,20.12-8.74l87.2,36.18c2.59,1.08,4.76,2.77,6.41,4.85v-12.29c0-7.4,5.62-13.42,12.54-13.42h92.04c3.16,0,6.05,1.24,8.25,3.32,2.63,2.45,4.3,6.07,4.3,10.1v34.38Z" fill="currentColor" stroke="none"></path><path fill="currentColor" d="M165.6 177.19L150.17 227.49 181.14 227.49 165.6 177.19z" stroke="none"></path><path d="M356.8,405.76l-87.2-36.19c-4.01-1.67-8.51.29-10.06,4.37l-22.31,59.07c-1.53,4.08.47,8.74,4.48,10.4l87.2,36.18c4.02,1.67,8.52-.29,10.06-4.37l22.31-59.07c1.55-4.08-.46-8.74-4.48-10.39ZM342.86,442.67c-1.53,4.08-6.04,6.04-10.06,4.37-4.01-1.67-6.01-6.33-4.47-10.4,1.53-4.08,6.04-6.03,10.05-4.37,4.02,1.67,6.03,6.33,4.48,10.4Z" fill="currentColor" stroke="none"></path><path d="M470.59,386.46h-92.04c-2.31,0-4.18,1.99-4.18,4.47v67.05h100.41v-67.05c0-2.48-1.87-4.47-4.19-4.47Z" fill="currentColor" stroke="none"></path><path d="M368.04,406.53c-.55-1.18-1.23-2.29-2.04-3.31h0c.81,1.03,1.49,2.14,2.04,3.31Z" fill="currentColor" stroke="none"></path><path d="M228.87,356.53l-48.76-10.25c-4.49-.94-8.86,2.12-9.76,6.82l-17.46,91.32v4.61s0,4.58-2.17,9.11c.44,3.6,3.01,6.65,6.59,7.4l48.76,10.24c4.49.94,8.86-2.11,9.77-6.81l19.53-102.22c.91-4.7-2-9.28-6.5-10.23ZM193.07,455.34c-.9,4.7-5.26,7.75-9.76,6.81s-7.4-5.52-6.51-10.23c.91-4.7,5.28-7.75,9.77-6.81,4.48.94,7.39,5.52,6.5,10.23Z" fill="currentColor" stroke="none"></path><path fill="currentColor" d="M366 425.92L366 425.93 368.26 419.94 366 425.92z" stroke="none"></path><path d="M233.53,420.54l-3.84,20.08c-1.06-3.38-1.06-7.11.27-10.62l2.09-5.54-2.09,5.53c-1.33,3.52-1.33,7.25-.27,10.63l3.84-20.09h0Z" fill="currentColor" stroke="none"></path><path fill="currentColor" d="M471.51 27.81L473.89 27.81 473.89 19.71 476.86 19.71 476.86 17.86 468.6 17.86 468.6 19.71 471.51 19.71 471.51 27.81z" stroke="none"></path><path fill="currentColor" d="M480.27 25.49L480.04 20.72 482.44 27.81 484.02 27.81 486.41 20.73 486.18 25.49 486.18 27.81 488.56 27.81 488.56 17.86 485.43 17.86 483.23 24.78 481.02 17.86 477.89 17.86 477.89 27.81 480.27 27.81 480.27 25.49z" stroke="none"></path></g></symbol><symbol id="icon-jsopx-bridge-too-far-logo-white-fill-simple" viewBox="0 0 504.5 504.9"><g class="jsopx-icon-wrapper"><path d="M228.87,356.53l-48.76-10.25c-4.49-.94-8.86,2.12-9.76,6.82l-17.46,91.32v4.61s0,4.58-2.17,9.11c.44,3.6,3.01,6.65,6.59,7.4l48.76,10.24c4.49.94,8.86-2.11,9.77-6.81l19.53-102.22c.91-4.7-2-9.28-6.5-10.23ZM193.07,455.34c-.9,4.7-5.26,7.75-9.76,6.81s-7.4-5.52-6.51-10.23c.91-4.7,5.28-7.75,9.77-6.81,4.48.94,7.39,5.52,6.5,10.23Z" fill="currentColor" stroke="none"></path><path d="M140.77,387.75c-1.13-.6-2.36-.95-3.38-1.13-.49-.09-.88-.12-1.12-.15-.09-.01-.16-.01-.19-.01H35.75c-2.72,0-4.21.69-5.04,1.29-.88.63-1.58,1.53-2.13,2.71-.56,1.21-.88,2.52-1.05,3.62-.09.53-.12.94-.15,1.19,0,.11,0,.18-.01.21v53.57c0,2.91.66,4.49,1.21,5.38.59.95,1.43,1.69,2.54,2.27,1.13.6,2.36.95,3.38,1.13.49.09.88.13,1.12.15.09.01.16.01.19.01h100.33c2.72,0,4.21-.69,5.04-1.29.46-.32.87-.74,1.23-1.22.06-.62.13-1.23.26-1.86l1.84-9.61v-48.61c0-2.9-.65-4.49-1.21-5.38-.58-.94-1.43-1.68-2.53-2.27Z" fill="currentColor" stroke="none"></path><path d="M167.59,245.15c0-12.09-5.97-18.16-17.91-18.23h-24.34v34.76h22.76c6.27,0,11.08-1.44,14.45-4.33,3.36-2.89,5.05-6.95,5.05-12.2Z" fill="currentColor" stroke="none"></path><path d="M159.67,199.81c3.23-2.73,4.85-6.76,4.85-12.09,0-6.13-1.75-10.54-5.24-13.24-3.5-2.7-9.14-4.05-16.92-4.05h-17.02v33.57h18.11c7.58-.07,12.99-1.46,16.23-4.2Z" fill="currentColor" stroke="none"></path><path d="M470.59,386.46h-92.04c-2.31,0-4.18,1.99-4.18,4.47v67.05h100.41v-67.05c0-2.48-1.87-4.47-4.19-4.47Z" fill="currentColor" stroke="none"></path><path d="M356.8,405.76l-87.2-36.19c-4.01-1.67-8.51.29-10.06,4.37l-22.31,59.07c-1.53,4.08.47,8.74,4.48,10.4l87.2,36.18c4.02,1.67,8.52-.29,10.06-4.37l22.31-59.07c1.55-4.08-.46-8.74-4.48-10.39ZM342.86,442.67c-1.53,4.08-6.04,6.04-10.06,4.37-4.01-1.67-6.01-6.33-4.47-10.4,1.53-4.08,6.04-6.03,10.05-4.37,4.02,1.67,6.03,6.33,4.48,10.4Z" fill="currentColor" stroke="none"></path><path d="M457,54.22c0-32.23-52.86-60.47-82.69-52.66L45.38,54.26C20.27,55.44.25,77.13.25,103.74v353.57c0,26.04,21.31,47.34,47.34,47.34h409.33c26.03,0,47.33-21.3,47.33-47.34V103.74c0-27.35-21.15-49.52-47.25-49.52ZM416.18,212.21v24.26h-50.51v52.11h-31.32v-130.81h86.92v24.35h-55.6v30.1h50.51ZM358.41,43.23c9.95-2.6,51.18-6.61,51.18,4.13v7.26h-234.3l183.12-11.39ZM211.61,182.11v-24.35h108.61v24.35h-39v106.46h-31.32v-106.46h-38.28ZM90.61,143.55h51.75c18.53,0,32.63,3.42,42.3,10.26,9.66,6.84,14.5,16.77,14.5,29.78,0,7.5-1.72,13.91-5.15,19.22-3.43,5.31-8.48,9.23-15.14,11.75,7.52,1.99,13.29,5.71,17.31,11.16,4.02,5.45,6.04,12.09,6.04,19.92,0,14.21-4.47,24.89-13.41,32.02-8.94,7.14-22.18,10.78-39.73,10.91h-58.47v-145.03ZM472.06,484.81h-96.03c-6.12,0-11.07-6-11.07-13.41h118.19c0,7.4-4.96,13.41-11.08,13.41ZM483.14,425.31v41.62h-117.14v-41l-19.76,52.3c-3.08,8.15-12.08,12.07-20.12,8.74l-87.2-36.18c-4.56-1.89-7.83-5.72-9.23-10.17l-5.75,30.06c-1.79,9.41-10.53,15.51-19.51,13.63l-48.76-10.25c-5.1-1.06-9.18-4.48-11.42-8.96-2.13,1.12-4.79,1.83-8.11,1.83h-33.47c0,5.96.69,10.43,2.09,13.41h6.27c2.31,0,4.19,2,4.19,4.47h-58.58c0-2.46,1.87-4.47,4.19-4.47h6.27c1.4-2.98,2.09-7.45,2.09-13.41h-33.47s-16.74,0-16.74-17.89v-53.65s0-7.63,4.67-12.92c2.48-2.81,6.26-4.96,12.07-4.96h100.4s16.74,0,16.74,17.89v4.79l9.33-48.8c1.8-9.41,6.54-15.51,15.51-13.62l52.77,10.24c8.97,1.89,14.8,11.04,12.99,20.45l-9.96,52.07,18.74-49.6c3.08-8.15,12.08-12.06,20.12-8.74l87.2,36.18c2.59,1.08,4.76,2.77,6.41,4.85v-12.29c0-7.4,5.62-13.42,12.54-13.42h92.04c3.16,0,6.05,1.24,8.25,3.32,2.63,2.45,4.3,6.07,4.3,10.1v34.38Z" fill="currentColor" stroke="none"></path><path d="M233.53,420.54l-3.84,20.08c-1.06-3.38-1.06-7.11.27-10.62l2.09-5.54-2.09,5.53c-1.33,3.52-1.33,7.25-.27,10.63l3.84-20.09h0Z" fill="currentColor" stroke="none"></path><path d="M368.04,406.53c-.55-1.18-1.23-2.29-2.04-3.31h0c.81,1.03,1.49,2.14,2.04,3.31Z" fill="currentColor" stroke="none"></path><path fill="currentColor" d="M366 425.92L366 425.93 368.26 419.94 366 425.92z" stroke="none"></path><path fill="currentColor" d="M471.51 27.81L473.89 27.81 473.89 19.71 476.86 19.71 476.86 17.86 468.6 17.86 468.6 19.71 471.51 19.71 471.51 27.81z" stroke="none"></path><path fill="currentColor" d="M480.27 25.49L480.04 20.72 482.44 27.81 484.02 27.81 486.41 20.73 486.18 25.49 486.18 27.81 488.56 27.81 488.56 17.86 485.43 17.86 483.23 24.78 481.02 17.86 477.89 17.86 477.89 27.81 480.27 27.81 480.27 25.49z" stroke="none"></path></g></symbol><symbol id="icon-jsopx-shared-resources-logo-white-fill-simple" viewBox="0 0 528 528"><g class="jsopx-icon-wrapper"><path d="M212.58,277.02c-4.33,3.24-10.22,4.85-17.67,4.85-11.65,0-20.07-2.39-25.26-7.18-5.19-4.79-7.78-12.23-7.78-22.32h-45.24c0,12.42,3.1,23.4,9.32,32.93,6.21,9.53,15.47,17.04,27.76,22.51,12.29,5.48,26.03,8.22,41.19,8.22,21.51,0,38.43-4.7,50.77-14.1,12.34-9.4,18.51-22.34,18.51-38.82,0-20.62-10.11-36.79-30.33-48.52-8.31-4.83-18.94-9.34-31.87-13.52-12.94-4.18-21.98-8.24-27.12-12.16-5.14-3.92-7.71-8.3-7.71-13.13,0-5.52,2.33-10.07,7-13.65,4.67-3.58,11.03-5.37,19.09-5.37s14.29,2.11,18.96,6.34c4.67,4.23,7,10.18,7,17.86h44.98c0-11.47-2.96-21.67-8.87-30.6-5.91-8.93-14.2-15.81-24.87-20.64-10.67-4.83-22.73-7.25-36.18-7.25s-26.22,2.22-37.27,6.66c-11.05,4.44-19.6,10.65-25.64,18.63-6.04,7.98-9.06,17.19-9.06,27.63,0,20.96,12.12,37.44,36.37,49.43,7.45,3.71,17.05,7.55,28.79,11.52,11.74,3.97,19.94,7.81,24.61,11.52,4.67,3.71,7,8.89,7,15.53,0,5.87-2.17,10.42-6.49,13.65Z" fill="none" stroke="none"></path><path d="M387.92,496.15h96.03c6.12,0,11.08-6,11.08-13.41h-118.19c0,7.4,4.95,13.41,11.07,13.41Z" fill="none" stroke="none"></path><path d="M198.48,456.46c-4.49-.94-8.86,2.11-9.77,6.81-.9,4.7,2.02,9.28,6.51,10.23s8.86-2.11,9.76-6.81c.9-4.7-2.02-9.28-6.5-10.23Z" fill="none" stroke="none"></path><path d="M421.49,58.71c0-10.74-41.23-6.73-51.18-4.13l-183.12,11.39h234.3v-7.26Z" fill="none" stroke="none"></path><path d="M401.35,227.56c4.57-7.48,6.86-16.9,6.86-28.27,0-15.71-5.43-27.86-16.29-36.46-10.86-8.6-25.92-12.9-45.18-12.9h-63.92v163.52h39.16v-57.84h21.2l28.67,57.84h41.94v-1.69l-33.91-66.02c9.74-4.64,16.9-10.7,21.47-18.17ZM363.53,219.37c-3.76,3.94-9.35,5.91-16.79,5.91h-24.76v-45.03h24.76c7.36,0,12.94,2.01,16.73,6.02,3.79,4.02,5.69,9.55,5.69,16.61s-1.88,12.55-5.63,16.49Z" fill="none" stroke="none"></path><path d="M241.86,441.34l2.09-5.53-2.09,5.54c-1.33,3.51-1.33,7.24-.27,10.62l3.84-20.08h0s9.96-52.08,9.96-52.08c1.8-9.41-4.02-18.56-12.99-20.45l-52.77-10.24c-8.97-1.89-13.71,4.21-15.51,13.62l-9.33,48.8v-4.79c0-17.89-16.74-17.89-16.74-17.89H47.65c-5.81,0-9.6,2.15-12.07,4.96-4.67,5.3-4.67,12.92-4.67,12.92v53.65c0,17.89,16.74,17.89,16.74,17.89h33.47c0,5.96-.69,10.43-2.09,13.41h-6.27c-2.32,0-4.19,2-4.19,4.47h58.58c0-2.46-1.88-4.47-4.19-4.47h-6.27c-1.4-2.98-2.09-7.45-2.09-13.41h33.47c3.32,0,5.98-.71,8.11-1.83,2.24,4.48,6.33,7.9,11.42,8.96l48.76,10.25c8.98,1.88,17.72-4.22,19.51-13.63l5.75-30.06c-1.06-3.38-1.06-7.11.27-10.63ZM156.41,455.35l-1.84,9.61c-.12.63-.2,1.24-.26,1.86-.36.48-.77.9-1.23,1.22-.83.59-2.32,1.29-5.04,1.29H47.71s-.1,0-.19-.01c-.24-.01-.63-.06-1.12-.15-1.02-.18-2.25-.53-3.38-1.13-1.11-.58-1.95-1.32-2.54-2.27-.55-.88-1.21-2.46-1.21-5.38v-53.57s.01-.1.01-.21c.02-.25.06-.66.15-1.19.17-1.1.49-2.41,1.05-3.62.55-1.18,1.24-2.08,2.13-2.71.83-.59,2.32-1.29,5.04-1.29h100.33s.1,0,.19.01c.24.02.63.06,1.12.15,1.02.18,2.25.53,3.38,1.13,1.1.59,1.95,1.33,2.53,2.27.56.88,1.21,2.48,1.21,5.38v48.61ZM227.73,480.33c-.91,4.7-5.28,7.75-9.77,6.81l-48.76-10.24c-3.57-.75-6.15-3.81-6.59-7.4,2.17-4.52,2.17-9.11,2.17-9.11v-4.61l17.46-91.32c.9-4.7,5.26-7.76,9.76-6.82l48.76,10.25c4.49.94,7.4,5.52,6.5,10.23l-19.53,102.22Z" fill="none" stroke="none"></path><path d="M482.49,388.86h-92.04c-6.92,0-12.54,6.01-12.54,13.42v12.29c.81,1.02,1.49,2.14,2.04,3.31-.55-1.17-1.23-2.29-2.04-3.3h0c-1.65-2.09-3.82-3.78-6.41-4.86l-87.2-36.18c-8.03-3.33-17.04.58-20.12,8.74l-18.74,49.6-3.84,20.09c1.4,4.45,4.67,8.28,9.23,10.17l87.2,36.18c8.03,3.34,17.04-.58,20.12-8.74l19.76-52.3h0s2.26-5.99,2.26-5.99l-2.26,5.99v41h117.14v-76c0-4.03-1.67-7.65-4.3-10.1-2.21-2.07-5.1-3.32-8.25-3.32ZM373.18,427.5l-22.31,59.07c-1.53,4.08-6.04,6.04-10.06,4.37l-87.2-36.18c-4.01-1.67-6.01-6.33-4.48-10.4l22.31-59.07c1.55-4.08,6.05-6.04,10.06-4.37l87.2,36.19c4.02,1.66,6.03,6.32,4.48,10.39ZM486.67,469.33h-100.41v-67.05c0-2.48,1.87-4.47,4.18-4.47h92.04c2.32,0,4.19,1.99,4.19,4.47v67.05Z" fill="none" stroke="none"></path><path d="M350.28,443.61c-4.01-1.66-8.51.29-10.05,4.37-1.55,4.08.46,8.74,4.47,10.4,4.02,1.67,8.52-.29,10.06-4.37,1.55-4.08-.46-8.74-4.48-10.4Z" fill="none" stroke="none"></path><path d="M152.67,399.09c-1.13-.6-2.36-.95-3.38-1.13-.49-.09-.88-.12-1.12-.15-.09-.01-.16-.01-.19-.01H47.65c-2.72,0-4.21.69-5.04,1.29-.88.63-1.58,1.53-2.13,2.71-.56,1.21-.88,2.52-1.05,3.62-.09.53-.12.94-.15,1.19,0,.11,0,.18-.01.21v53.57c0,2.91.66,4.49,1.21,5.38.59.95,1.43,1.69,2.54,2.27,1.13.6,2.36.95,3.38,1.13.49.09.88.13,1.12.15.09.01.16.01.19.01h100.33c2.72,0,4.21-.69,5.04-1.29.46-.32.87-.74,1.23-1.22.06-.62.13-1.23.26-1.86l1.84-9.61v-48.61c0-2.9-.65-4.49-1.21-5.38-.58-.94-1.43-1.68-2.53-2.27Z" fill="currentColor" stroke="none"></path><path d="M346.74,180.25h-24.76v45.03h24.76c7.44,0,13.03-1.97,16.79-5.91,3.75-3.94,5.63-9.44,5.63-16.49s-1.9-12.59-5.69-16.61c-3.79-4.01-9.37-6.02-16.73-6.02Z" fill="currentColor" stroke="none"></path><path d="M368.7,417.1l-87.2-36.19c-4.01-1.67-8.51.29-10.06,4.37l-22.31,59.07c-1.53,4.08.47,8.74,4.48,10.4l87.2,36.18c4.02,1.67,8.52-.29,10.06-4.37l22.31-59.07c1.55-4.08-.46-8.74-4.48-10.39ZM354.76,454.02c-1.53,4.08-6.04,6.04-10.06,4.37-4.01-1.67-6.01-6.33-4.47-10.4,1.53-4.08,6.04-6.03,10.05-4.37,4.02,1.67,6.03,6.33,4.48,10.4Z" fill="currentColor" stroke="none"></path><path d="M468.9,65.57c0-32.23-52.86-60.47-82.69-52.66L57.28,65.61c-25.11,1.18-45.13,22.87-45.13,49.48v353.57c0,26.04,21.31,47.34,47.34,47.34h409.33c26.03,0,47.33-21.3,47.33-47.34V115.09c0-27.35-21.15-49.52-47.25-49.52ZM370.31,54.58c9.95-2.6,51.18-6.61,51.18,4.13v7.26h-234.3l183.12-11.39ZM413.79,311.76v1.69h-41.94l-28.67-57.84h-21.2v57.84h-39.16v-163.52h63.92c19.26,0,34.32,4.3,45.18,12.9,10.86,8.6,16.29,20.76,16.29,36.46,0,11.37-2.29,20.79-6.86,28.27-4.57,7.48-11.73,13.54-21.47,18.17l33.91,66.02ZM212.07,247.84c-4.67-3.71-12.87-7.55-24.61-11.52-11.74-3.97-21.33-7.81-28.79-11.52-24.25-11.99-36.37-28.47-36.37-49.43,0-10.44,3.02-19.65,9.06-27.63,6.04-7.98,14.59-14.19,25.64-18.63,11.05-4.44,23.48-6.66,37.27-6.66s25.51,2.42,36.18,7.25c10.67,4.83,18.96,11.71,24.87,20.64,5.91,8.93,8.87,19.13,8.87,30.6h-44.98c0-7.68-2.34-13.63-7-17.86-4.67-4.23-10.99-6.34-18.96-6.34s-14.42,1.79-19.09,5.37c-4.67,3.58-7,8.13-7,13.65,0,4.83,2.57,9.21,7.71,13.13,5.14,3.93,14.18,7.98,27.12,12.16,12.94,4.19,23.56,8.69,31.87,13.52,20.22,11.73,30.33,27.91,30.33,48.52,0,16.48-6.17,29.42-18.51,38.82-12.34,9.4-29.26,14.1-50.77,14.1-15.17,0-28.9-2.74-41.19-8.22-12.3-5.48-21.55-12.98-27.76-22.51-6.21-9.53-9.32-20.51-9.32-32.93h45.24c0,10.09,2.59,17.53,7.78,22.32,5.18,4.79,13.6,7.18,25.26,7.18,7.45,0,13.34-1.62,17.67-4.85,4.33-3.23,6.49-7.78,6.49-13.65,0-6.64-2.34-11.82-7-15.53ZM483.96,496.15h-96.03c-6.12,0-11.07-6-11.07-13.41h118.19c0,7.4-4.96,13.41-11.08,13.41ZM495.04,436.66v41.62h-117.14v-41l-19.76,52.3c-3.08,8.15-12.08,12.07-20.12,8.74l-87.2-36.18c-4.56-1.89-7.83-5.72-9.23-10.17l-5.75,30.06c-1.79,9.41-10.53,15.51-19.51,13.63l-48.76-10.25c-5.1-1.06-9.18-4.48-11.42-8.96-2.13,1.12-4.79,1.83-8.11,1.83h-33.47c0,5.96.69,10.43,2.09,13.41h6.27c2.31,0,4.19,2,4.19,4.47h-58.58c0-2.46,1.87-4.47,4.19-4.47h6.27c1.4-2.98,2.09-7.45,2.09-13.41h-33.47s-16.74,0-16.74-17.89v-53.65s0-7.63,4.67-12.92c2.48-2.81,6.26-4.96,12.07-4.96h100.4s16.74,0,16.74,17.89v4.79l9.33-48.8c1.8-9.41,6.54-15.51,15.51-13.62l52.77,10.24c8.97,1.89,14.8,11.04,12.99,20.45l-9.96,52.07,18.74-49.6c3.08-8.15,12.08-12.06,20.12-8.74l87.2,36.18c2.59,1.08,4.76,2.77,6.41,4.85v-12.29c0-7.4,5.62-13.42,12.54-13.42h92.04c3.16,0,6.05,1.24,8.25,3.32,2.63,2.45,4.3,6.07,4.3,10.1v34.38Z" fill="currentColor" stroke="none"></path><path d="M240.77,367.88l-48.76-10.25c-4.49-.94-8.86,2.12-9.76,6.82l-17.46,91.32v4.61s0,4.58-2.17,9.11c.44,3.6,3.01,6.65,6.59,7.4l48.76,10.24c4.49.94,8.86-2.11,9.77-6.81l19.53-102.22c.91-4.7-2-9.28-6.5-10.23ZM204.97,466.69c-.9,4.7-5.26,7.75-9.76,6.81s-7.4-5.52-6.51-10.23c.91-4.7,5.28-7.75,9.77-6.81,4.48.94,7.39,5.52,6.5,10.23Z" fill="currentColor" stroke="none"></path><path fill="currentColor" d="M377.9 437.27L377.9 437.28 380.16 431.28 377.9 437.27z" stroke="none"></path><path d="M379.94,417.87c-.55-1.18-1.23-2.29-2.04-3.31h0c.81,1.03,1.49,2.14,2.04,3.31Z" fill="currentColor" stroke="none"></path><path d="M245.43,431.89l-3.84,20.08c-1.06-3.38-1.06-7.11.27-10.62l2.09-5.54-2.09,5.53c-1.33,3.52-1.33,7.25-.27,10.63l3.84-20.09h0Z" fill="currentColor" stroke="none"></path><path d="M482.49,397.81h-92.04c-2.31,0-4.18,1.99-4.18,4.47v67.05h100.41v-67.05c0-2.48-1.87-4.47-4.19-4.47Z" fill="currentColor" stroke="none"></path><path fill="currentColor" d="M483.41 39.16L485.79 39.16 485.79 31.06 488.76 31.06 488.76 29.2 480.5 29.2 480.5 31.06 483.41 31.06 483.41 39.16z" stroke="none"></path><path fill="currentColor" d="M492.17 36.83L491.94 32.07 494.34 39.16 495.92 39.16 498.31 32.08 498.08 36.83 498.08 39.16 500.46 39.16 500.46 29.2 497.33 29.2 495.13 36.13 492.92 29.2 489.79 29.2 489.79 39.16 492.17 39.16 492.17 36.83z" stroke="none"></path></g></symbol><symbol id="icon-jsopx-class-library-logo-white-fill-simple" viewBox="0 0 528 528"><g class="jsopx-icon-wrapper"><path d="M152.67,399.09c-1.13-.6-2.36-.95-3.38-1.13-.49-.09-.88-.12-1.12-.15-.09-.01-.16-.01-.19-.01H47.65c-2.72,0-4.21.69-5.04,1.29-.88.63-1.58,1.53-2.13,2.71-.56,1.21-.88,2.52-1.05,3.62-.09.53-.12.94-.15,1.19,0,.11,0,.18-.01.21v53.57c0,2.91.66,4.49,1.21,5.38.59.95,1.43,1.69,2.54,2.27,1.13.6,2.36.95,3.38,1.13.49.09.88.13,1.12.15.09.01.16.01.19.01h100.33c2.72,0,4.21-.69,5.04-1.29.46-.32.87-.74,1.23-1.22.06-.62.13-1.23.26-1.86l1.84-9.61v-48.61c0-2.9-.65-4.49-1.21-5.38-.58-.94-1.43-1.68-2.53-2.27Z" fill="currentColor" stroke="none"></path><path d="M245.43,431.89l-3.84,20.08c-1.06-3.38-1.06-7.11.27-10.62l2.09-5.54-2.09,5.53c-1.33,3.52-1.33,7.25-.27,10.63l3.84-20.09h0Z" fill="currentColor" stroke="none"></path><path d="M240.77,367.88l-48.76-10.25c-4.49-.94-8.86,2.12-9.76,6.82l-17.46,91.32v4.61s0,4.58-2.17,9.11c.44,3.6,3.01,6.65,6.59,7.4l48.76,10.24c4.49.94,8.86-2.11,9.77-6.81l19.53-102.22c.91-4.7-2-9.28-6.5-10.23ZM204.97,466.69c-.9,4.7-5.26,7.75-9.76,6.81s-7.4-5.52-6.51-10.23c.91-4.7,5.28-7.75,9.77-6.81,4.48.94,7.39,5.52,6.5,10.23Z" fill="currentColor" stroke="none"></path><path d="M368.7,417.1l-87.2-36.19c-4.01-1.67-8.51.29-10.06,4.37l-22.31,59.07c-1.53,4.08.47,8.74,4.48,10.4l87.2,36.18c4.02,1.67,8.52-.29,10.06-4.37l22.31-59.07c1.55-4.08-.46-8.74-4.48-10.39ZM354.76,454.02c-1.53,4.08-6.04,6.04-10.06,4.37-4.01-1.67-6.01-6.33-4.47-10.4,1.53-4.08,6.04-6.03,10.05-4.37,4.02,1.67,6.03,6.33,4.48,10.4Z" fill="currentColor" stroke="none"></path><path d="M468.9,65.57c0-32.23-52.86-60.47-82.69-52.66L57.28,65.61c-25.11,1.18-45.13,22.87-45.13,49.48v353.57c0,26.04,21.31,47.34,47.34,47.34h409.33c26.03,0,47.33-21.3,47.33-47.34V115.09c0-27.35-21.15-49.52-47.25-49.52ZM370.31,54.58c9.95-2.6,51.18-6.61,51.18,4.13v7.26h-234.3l183.12-11.39ZM406.73,283.12v30.32h-107.31v-163.52h39.15v133.19h68.16ZM125.9,214.2c0-18.46,3.19-34.61,9.58-48.46,6.38-13.84,15.57-24.54,27.57-32.09,12-7.55,25.88-11.32,41.64-11.32,22.71,0,40.96,6.02,54.75,18.05,13.79,12.03,21.63,28.62,23.52,49.75h-44.98c-.34-11.47-3.21-19.71-8.61-24.71-5.4-5-13.62-7.5-24.68-7.5s-19.45,4.23-24.68,12.68c-5.23,8.46-7.97,21.95-8.23,40.5v13.33c0,20.1,2.51,34.46,7.52,43.09,5.01,8.63,13.64,12.94,25.9,12.94,10.37,0,18.29-2.46,23.78-7.38,5.48-4.92,8.4-12.72,8.74-23.42h44.86c-.6,13.11-4.11,24.69-10.54,34.74-6.43,10.05-15.45,17.84-27.06,23.36-11.61,5.52-24.87,8.28-39.78,8.28-24.59,0-43.96-8.06-58.09-24.2-14.14-16.13-21.21-38.9-21.21-68.32v-9.32ZM483.96,496.15h-96.03c-6.12,0-11.07-6-11.07-13.41h118.19c0,7.4-4.96,13.41-11.08,13.41ZM495.04,436.66v41.62h-117.14v-41l-19.76,52.3c-3.08,8.15-12.08,12.07-20.12,8.74l-87.2-36.18c-4.56-1.89-7.83-5.72-9.23-10.17l-5.75,30.06c-1.79,9.41-10.53,15.51-19.51,13.63l-48.76-10.25c-5.1-1.06-9.18-4.48-11.42-8.96-2.13,1.12-4.79,1.83-8.11,1.83h-33.47c0,5.96.69,10.43,2.09,13.41h6.27c2.31,0,4.19,2,4.19,4.47h-58.58c0-2.46,1.87-4.47,4.19-4.47h6.27c1.4-2.98,2.09-7.45,2.09-13.41h-33.47s-16.74,0-16.74-17.89v-53.65s0-7.63,4.67-12.92c2.48-2.81,6.26-4.96,12.07-4.96h100.4s16.74,0,16.74,17.89v4.79l9.33-48.8c1.8-9.41,6.54-15.51,15.51-13.62l52.77,10.24c8.97,1.89,14.8,11.04,12.99,20.45l-9.96,52.07,18.74-49.6c3.08-8.15,12.08-12.06,20.12-8.74l87.2,36.18c2.59,1.08,4.76,2.77,6.41,4.85v-12.29c0-7.4,5.62-13.42,12.54-13.42h92.04c3.16,0,6.05,1.24,8.25,3.32,2.63,2.45,4.3,6.07,4.3,10.1v34.38Z" fill="currentColor" stroke="none"></path><path fill="currentColor" d="M377.9 437.27L377.9 437.28 380.16 431.28 377.9 437.27z" stroke="none"></path><path d="M482.49,397.81h-92.04c-2.31,0-4.18,1.99-4.18,4.47v67.05h100.41v-67.05c0-2.48-1.87-4.47-4.19-4.47Z" fill="currentColor" stroke="none"></path><path d="M379.94,417.87c-.55-1.18-1.23-2.29-2.04-3.31h0c.81,1.03,1.49,2.14,2.04,3.31Z" fill="currentColor" stroke="none"></path><path fill="currentColor" d="M483.41 39.16L485.79 39.16 485.79 31.06 488.76 31.06 488.76 29.2 480.5 29.2 480.5 31.06 483.41 31.06 483.41 39.16z" stroke="none"></path><path fill="currentColor" d="M492.17 36.83L491.94 32.07 494.34 39.16 495.92 39.16 498.31 32.08 498.08 36.83 498.08 39.16 500.46 39.16 500.46 29.2 497.33 29.2 495.13 36.13 492.92 29.2 489.79 29.2 489.79 39.16 492.17 39.16 492.17 36.83z" stroke="none"></path></g></symbol><symbol id="icon-jsopx-rcl-x-proper-logo-white-fill-simple" viewBox="0 0 504.5 504.9"><g class="jsopx-icon-wrapper"><path d="M154.41,205.14c3.33-3.5,5-8.37,5-14.63s-1.68-11.17-5.05-14.73c-3.36-3.56-8.31-5.34-14.84-5.34h-21.96v39.94h21.96c6.6,0,11.56-1.75,14.89-5.24Z" fill="currentColor" stroke="none"></path><path d="M470.59,386.46h-92.04c-2.31,0-4.18,1.99-4.18,4.47v67.05h100.41v-67.05c0-2.48-1.87-4.47-4.19-4.47Z" fill="currentColor" stroke="none"></path><path d="M140.77,387.75c-1.13-.6-2.36-.95-3.38-1.13-.49-.09-.88-.12-1.12-.15-.09-.01-.16-.01-.19-.01H35.75c-2.72,0-4.21.69-5.04,1.29-.88.63-1.58,1.53-2.13,2.71-.56,1.21-.88,2.52-1.05,3.62-.09.53-.12.94-.15,1.19,0,.11,0,.18-.01.21v53.57c0,2.91.66,4.49,1.21,5.38.59.95,1.43,1.69,2.54,2.27,1.13.6,2.36.95,3.38,1.13.49.09.88.13,1.12.15.09.01.16.01.19.01h100.33c2.72,0,4.21-.69,5.04-1.29.46-.32.87-.74,1.23-1.22.06-.62.13-1.23.26-1.86l1.84-9.61v-48.61c0-2.9-.65-4.49-1.21-5.38-.58-.94-1.43-1.68-2.53-2.27Z" fill="currentColor" stroke="none"></path><path d="M422.91,153.18c.9-.86,1.35-2.08,1.35-3.66,0-1.73-.46-3.11-1.39-4.14-.92-1.03-2.19-1.56-3.78-1.57h-5.9v10.66h5.8c1.71,0,3.02-.43,3.92-1.29Z" fill="currentColor" stroke="none"></path><path d="M228.87,356.53l-48.76-10.25c-4.49-.94-8.86,2.12-9.76,6.82l-17.46,91.32v4.61s0,4.58-2.17,9.11c.44,3.6,3.01,6.65,6.59,7.4l48.76,10.24c4.49.94,8.86-2.11,9.77-6.81l19.53-102.22c.91-4.7-2-9.28-6.5-10.23ZM193.07,455.34c-.9,4.7-5.26,7.75-9.76,6.81s-7.4-5.52-6.51-10.23c.91-4.7,5.28-7.75,9.77-6.81,4.48.94,7.39,5.52,6.5,10.23Z" fill="currentColor" stroke="none"></path><path fill="currentColor" d="M366 425.92L366 425.93 368.26 419.94 366 425.92z" stroke="none"></path><path d="M356.8,405.76l-87.2-36.19c-4.01-1.67-8.51.29-10.06,4.37l-22.31,59.07c-1.53,4.08.47,8.74,4.48,10.4l87.2,36.18c4.02,1.67,8.52-.29,10.06-4.37l22.31-59.07c1.55-4.08-.46-8.74-4.48-10.39ZM342.86,442.67c-1.53,4.08-6.04,6.04-10.06,4.37-4.01-1.67-6.01-6.33-4.47-10.4,1.53-4.08,6.04-6.03,10.05-4.37,4.02,1.67,6.03,6.33,4.48,10.4Z" fill="currentColor" stroke="none"></path><path d="M233.53,420.54l-3.84,20.08c-1.06-3.38-1.06-7.11.27-10.62l2.09-5.54-2.09,5.53c-1.33,3.52-1.33,7.25-.27,10.63l3.84-20.09h0Z" fill="currentColor" stroke="none"></path><path d="M368.04,406.53c-.55-1.18-1.23-2.29-2.04-3.31h0c.81,1.03,1.49,2.14,2.04,3.31Z" fill="currentColor" stroke="none"></path><path fill="currentColor" d="M471.51 27.81L473.89 27.81 473.89 19.71 476.86 19.71 476.86 17.86 468.6 17.86 468.6 19.71 471.51 19.71 471.51 27.81z" stroke="none"></path><path fill="currentColor" d="M480.27 25.49L480.04 20.72 482.44 27.81 484.02 27.81 486.41 20.73 486.18 25.49 486.18 27.81 488.56 27.81 488.56 17.86 485.43 17.86 483.23 24.78 481.02 17.86 477.89 17.86 477.89 27.81 480.27 27.81 480.27 25.49z" stroke="none"></path><path d="M457,54.22c0-32.23-52.86-60.47-82.69-52.66L45.38,54.26C20.27,55.44.25,77.13.25,103.74v353.57c0,26.04,21.31,47.34,47.34,47.34h409.33c26.03,0,47.33-21.3,47.33-47.34V103.74c0-27.35-21.15-49.52-47.25-49.52ZM426.44,138.49c2.16,1.04,3.83,2.52,5.02,4.44,1.19,1.92,1.78,4.1,1.78,6.54,0,3.61-1.28,6.49-3.85,8.65-2.56,2.16-6.08,3.24-10.55,3.24h-5.65v12.54h-8.85v-36.97h14.65c2.81,0,5.29.52,7.45,1.56ZM418.62,264.32v24.26h-85.85v-130.81h31.32v106.55h54.53ZM375.4,146.42h8.93l3.83,7.57,3.96-7.57h8.83l-7.19,13.38,7.54,14.09h-8.88l-4.29-8.12-4.21,8.12h-8.93l7.57-14.09-7.16-13.38ZM358.41,43.23c9.95-2.6,51.18-6.61,51.18,4.13v7.26h-234.3l183.12-11.39ZM245.34,256.68c3.48,5.99,9.48,8.98,17.98,8.98,7.2,0,12.7-1.71,16.51-5.12,3.81-3.41,5.83-8.83,6.07-16.26h31.14c-.42,9.11-2.86,17.15-7.32,24.12-4.46,6.98-10.72,12.38-18.79,16.22-8.06,3.83-17.27,5.75-27.62,5.75-17.08,0-30.52-5.6-40.34-16.8-9.82-11.2-14.72-27.01-14.72-47.44v-6.47c0-12.82,2.22-24.03,6.65-33.65,4.43-9.61,10.81-17.04,19.14-22.28,8.33-5.24,17.97-7.86,28.91-7.86,15.77,0,28.44,4.18,38.02,12.53,9.58,8.36,15.02,19.87,16.33,34.54h-31.23c-.24-7.97-2.23-13.69-5.98-17.16-3.75-3.47-9.46-5.21-17.13-5.21s-13.51,2.94-17.13,8.8c-3.63,5.87-5.53,15.24-5.71,28.12v9.25c0,13.96,1.74,23.93,5.22,29.92ZM82.82,143.55h56.69c17.08,0,30.44,3.81,40.07,11.44,9.63,7.63,14.45,18.41,14.45,32.34,0,10.08-2.03,18.44-6.08,25.08s-10.41,12.01-19.05,16.12l30.08,58.56v1.5h-37.2l-25.43-51.3h-18.8v51.3h-34.73v-145.03ZM472.06,484.81h-96.03c-6.12,0-11.07-6-11.07-13.41h118.19c0,7.4-4.96,13.41-11.08,13.41ZM483.14,425.31v41.62h-117.14v-41l-19.76,52.3c-3.08,8.15-12.08,12.07-20.12,8.74l-87.2-36.18c-4.56-1.89-7.83-5.72-9.23-10.17l-5.75,30.06c-1.79,9.41-10.53,15.51-19.51,13.63l-48.76-10.25c-5.1-1.06-9.18-4.48-11.42-8.96-2.13,1.12-4.79,1.83-8.11,1.83h-33.47c0,5.96.69,10.43,2.09,13.41h6.27c2.31,0,4.19,2,4.19,4.47h-58.58c0-2.46,1.87-4.47,4.19-4.47h6.27c1.4-2.98,2.09-7.45,2.09-13.41h-33.47s-16.74,0-16.74-17.89v-53.65s0-7.63,4.67-12.92c2.48-2.81,6.26-4.96,12.07-4.96h100.4s16.74,0,16.74,17.89v4.79l9.33-48.8c1.8-9.41,6.54-15.51,15.51-13.62l52.77,10.24c8.97,1.89,14.8,11.04,12.99,20.45l-9.96,52.07,18.74-49.6c3.08-8.15,12.08-12.06,20.12-8.74l87.2,36.18c2.59,1.08,4.76,2.77,6.41,4.85v-12.29c0-7.4,5.62-13.42,12.54-13.42h92.04c3.16,0,6.05,1.24,8.25,3.32,2.63,2.45,4.3,6.07,4.3,10.1v34.38Z" fill="currentColor" stroke="none"></path></g></symbol><symbol id="icon-jsopx-rcl-x-assets-logo-white-fill-simple" viewBox="0 0 504.5 504.9"><g class="jsopx-icon-wrapper"><path fill="currentColor" d="M471.5 27.81L473.89 27.81 473.89 19.71 476.85 19.71 476.85 17.86 468.59 17.86 468.59 19.71 471.5 19.71 471.5 27.81z" stroke="none"></path><path d="M480.27,25.48l-.23-4.76,2.4,7.09h1.58l2.39-7.08c-.08,1.55-.29,5.58-.23,7.08h2.39v-9.95h-3.14l-2.2,6.92-2.21-6.92h-3.13v9.95h2.38v-2.32Z" fill="currentColor" stroke="none"></path><path d="M233.53,420.54l-3.84,20.08c-2.01-5.14.32-11.26,2.36-16.16-2.05,4.9-4.37,11.01-2.36,16.16l3.84-20.09h0Z" fill="currentColor" stroke="none"></path><path d="M140.76,387.75c-3.37-2.21-106.5-2.3-110.06,0-6.64,2.58-2.07,55.81-3.34,61.3-.19,6.25,3.46,8.44,8.45,8.94,2.19-1.09,108.74,2.77,106.6-2.51.03-.96,1.87-10.28,2.09-11.47,0,0,0-48.61,0-48.61-.26-4.6-.75-5.71-3.74-7.65Z" fill="currentColor" stroke="none"></path><path d="M368.03,406.52c-.55-1.18-1.23-2.29-2.04-3.31h0c.81,1.03,1.49,2.14,2.04,3.31Z" fill="currentColor" stroke="none"></path><path d="M228.86,356.53l-48.76-10.25c-4.49-.94-8.86,2.12-9.76,6.82-2.07,7.74-18.54,101.12-19.63,105.04.44,3.6,3.01,6.65,6.59,7.4l48.76,10.24c4.49.94,8.86-2.11,9.77-6.81l19.53-102.22c.91-4.7-2-9.28-6.5-10.23ZM193.07,455.34c-2.04,11.18-18.56,7.48-16.26-3.42,2.05-11.17,18.55-7.49,16.26,3.42Z" fill="currentColor" stroke="none"></path><path d="M154.4,205.14c6.7-6.4,6.65-22.94-.05-29.36-6.25-8.15-27.53-4.64-36.81-5.34v39.94c9.29-.69,30.61,2.76,36.86-5.24Z" fill="currentColor" stroke="none"></path><path fill="currentColor" d="M366 425.92L366 425.93 368.26 419.94 366 425.92z" stroke="none"></path><path fill="currentColor" d="M419.11 147.28L415.18 160.11 423.07 160.11 419.11 147.28z" stroke="none"></path><path d="M457,54.22c0-32.23-52.86-60.47-82.69-52.66,0,0-328.93,52.7-328.93,52.7C18.6,55.33-1.73,80.24.25,108.05c-.17,40.46.12,316.19,0,349.26,0,26.04,21.31,47.34,47.34,47.34h409.33c26.03,0,47.33-21.3,47.33-47.34-.29-31.51.21-310.26,0-349.26,2-28.55-19.43-54.03-47.25-53.83ZM423.27,136.92l13.57,36.97h-9.51l-2.14-6.91h-12.13l-2.12,6.91h-9.46l13.47-36.97h8.32ZM418.62,264.32v24.26h-85.85v-130.81h31.32v106.55h54.53ZM375.4,146.42h8.93l3.83,7.57,3.96-7.57h8.83l-7.19,13.38,7.54,14.09h-8.88l-4.29-8.12-4.21,8.12h-8.93l7.57-14.09-7.16-13.38ZM358.41,43.23c9.95-2.6,51.18-6.61,51.18,4.13v7.26h-234.3l183.12-11.39ZM245.33,256.68c5.13,11.07,26.59,11.4,34.49,3.86,3.81-3.41,5.83-8.83,6.07-16.26h31.14c-.48,28.78-25.83,46.98-53.72,46.09-39.93.47-57.28-32.42-55.06-70.71.02-22.85,7.17-44.05,25.79-55.93,32.54-19.66,82.09-2.11,83.26,39.22h-31.23c-.24-7.97-2.23-13.69-5.98-17.16-7.55-7.29-28.68-7.71-34.27,3.59-8.13,13.08-7.74,54.62-.49,67.29ZM82.82,143.54c37.49,1.66,111.78-12.49,111.21,43.78-.07,19.82-7.38,32.66-25.13,41.19l30.08,58.56v1.5h-37.2l-25.43-51.3h-18.8v51.3h-34.73v-145.03ZM472.05,484.8h-96.03c-6.12,0-11.07-6-11.07-13.41h118.19c0,7.4-4.96,13.41-11.08,13.41ZM483.14,425.31v41.62h-117.14v-41s-19.76,52.3-19.76,52.3c-3.08,8.15-12.08,12.07-20.12,8.74-7.58-5.53-97.35-34.11-96.43-46.35-4.02,13.97-2.31,48.12-25.26,43.69,0,0-48.76-10.25-48.76-10.25-5.1-1.06-9.18-4.48-11.42-8.96-4.71,3.45-35.68,1.24-41.57,1.83,0,5.96.69,10.43,2.09,13.41,3.58.09,10.58-1.18,10.46,4.47h-58.58c-.13-5.65,6.89-4.38,10.46-4.47,1.4-2.98,2.09-7.45,2.09-13.41-14.48-2.46-49.69,9.4-50.21-17.89-.02-13.11.01-40.42,0-53.65,0,0,0-7.63,4.67-12.92,2.68-10.08,104.65-2.96,112.47-4.96,1.83-.21,19.45,1.98,16.74,22.68,0,0,9.33-48.8,9.33-48.8,1.8-9.41,6.54-15.51,15.51-13.62,78.91,15.28,70.73,3.94,55.81,82.76,0,0,18.74-49.6,18.74-49.6,3.08-8.15,12.08-12.06,20.12-8.74,5.05,3.52,93.02,35.61,93.61,41.03-.36-10.22-1.27-25.3,12.54-25.7,0,0,92.04,0,92.04,0,7.17.04,12.56,6.22,12.56,13.42,0,0,0,34.38,0,34.38Z" fill="currentColor" stroke="none"></path><path d="M356.8,405.76l-87.2-36.19c-4.01-1.67-8.51.29-10.06,4.37l-22.31,59.07c-1.53,4.08.47,8.74,4.48,10.4l87.2,36.18c4.02,1.67,8.52-.29,10.06-4.37l22.31-59.07c1.55-4.08-.46-8.74-4.48-10.39ZM342.86,442.67c-3.63,9.77-18.32,3.29-14.53-6.04,3.63-9.77,18.32-3.27,14.53,6.04Z" fill="currentColor" stroke="none"></path><path d="M470.58,386.46h-92.04c-2.31,0-4.18,1.99-4.18,4.47v67.05h100.41v-67.05c0-2.48-1.87-4.47-4.19-4.47Z" fill="currentColor" stroke="none"></path></g></symbol></svg>