<?xml version="1.0" encoding="utf-8"?>
<!-- Generator: Adobe Illustrator 29.0.0, SVG Export Plug-In . SVG Version: 9.03 Build 54978)  -->
<svg version="1.1" xmlns="http://www.w3.org/2000/svg" xmlns:xlink="http://www.w3.org/1999/xlink" x="0px" y="0px"
	 viewBox="0 0 528 528" style="enable-background:new 0 0 528 528;" xml:space="preserve">
<style type="text/css">
	.st0{fill:#FFFFFF;}
</style>
<g id="Layer_2">
</g>
<g id="Layer_1">
	<g id="jsopx-logo">
		<g>
		</g>
		<g id="XMLID_00000098916552542147406250000000532646841085305771_">
			<g>
				<polygon class="st0" points="267.6,147.9 267.6,126.3 267.6,126.3 386.1,164.4 367,308.4 267.6,360.3 267.6,360.2 267.6,271.8 
					302.3,271.8 318.4,308.5 344.7,309.1 267.8,147.5 				"/>
				<polygon class="st0" points="152.1,165.1 267.6,126.3 267.6,147.9 193.9,308.7 221.5,308.2 236.4,271.8 267.6,271.8 
					267.6,360.2 169.9,309.1 				"/>
				<path class="st0" d="M36.4,454.9c0,0.4,0,0.8,0,1.1c-1.6-0.9-3.2-2-4.7-3.1v-0.5c0,0,0.1,0.1,0.1,0.1v-29.7c0,0,0-3.3,1.3-7
					c0.1-0.2,0.2-0.5,0.3-0.7c0.7-1.6,1.6-3.3,2.9-4.8V454.9z"/>
				<path class="st0" d="M516.2,115.1v297.1c0,16.8-8,31.6-20.1,40.5v-34.4c0-4-1.7-7.6-4.3-10.1V405c0-5.8-2.8-10.8-7.1-13.8v-22.3
					c9.6-4.4,17.1-12.7,20.9-23c0.1-0.4,0.3-0.8,0.4-1.1c1.5-4.4,2.3-9.1,2.3-14c0-16.9-9.7-31.5-23.6-37.8v-23
					c9.6-4.4,17.1-12.8,20.9-23c0.1-0.4,0.3-0.8,0.4-1.1c1.5-4.4,2.3-9.1,2.3-14c0-16.9-9.7-31.5-23.6-37.8v-23
					c9.2-4.2,16.5-12.1,20.4-21.8c0.2-0.4,0.3-0.8,0.5-1.2c1.8-4.7,2.8-9.8,2.8-15.2c0-22.8-17.6-41.3-39.4-41.3
					c-8.3,0-16,2.7-22.3,7.3H81.7c-6.3-4.6-14-7.3-22.3-7.3c-16.5,0-30.5,10.6-36.4,25.6c-0.1,0.2-0.1,0.4-0.2,0.6
					c-1.9,4.8-2.9,10-2.9,15.5c0,16.9,9.7,31.5,23.6,37.8v23c-9.2,4.3-16.5,12.1-20.4,21.8c-0.1,0.3-0.3,0.6-0.4,1
					c-1.8,4.8-2.8,9.9-2.8,15.4c0,16.9,9.7,31.5,23.6,37.8v23.1c-9.2,4.2-16.5,12-20.4,21.7c-0.1,0.4-0.3,0.7-0.4,1.1
					c-1.8,4.8-2.8,10-2.8,15.4c0,16.9,9.7,31.5,23.6,37.8v22.4c-2.7,1.9-4.8,4.6-5.9,7.8c-0.8,1.9-1.2,4-1.2,6.2v4.7
					c-1.3,1.6-2.3,3.3-2.9,5c-0.1,0.2-0.2,0.5-0.3,0.7c-1.5,3.9-1.5,7.4-1.5,7.4v29.1c-11.9-9-19.6-23.6-19.6-40.1V115.1
					c0-26.6,20-48.3,45.1-49.5l328.9-52.7c29.8-7.8,82.7,20.4,82.7,52.7C495,65.6,516.2,87.7,516.2,115.1z M421.5,66v-7.3
					c0-10.7-41.2-6.7-51.2-4.1L187.2,66H421.5z"/>
				<path class="st0" d="M370.4,499.2h133.9c0,7.4-5.6,13.4-12.5,13.4H382.9C376,512.7,370.4,506.6,370.4,499.2z"/>
				<polygon class="st0" points="500.5,29.2 500.5,39.2 498.1,39.2 498.1,36.8 498.3,32.1 495.9,39.2 494.3,39.2 491.9,32.1 
					492.2,36.8 492.2,39.2 489.8,39.2 489.8,29.2 492.9,29.2 495.1,36.1 497.3,29.2 				"/>
				<path class="st0" d="M495.9,453.1v41.6H378.7v-41l2.6-6.8c2.1-5.5,0.9-11.6-2.6-15.9v-12.3c0-7.4,5.6-13.4,12.6-13.4h92
					c3.2,0,6.1,1.2,8.2,3.3v46.2c0,0.4,0,0.8,0,1.1C493,455.1,494.5,454.2,495.9,453.1z M487.5,485.8v-67.1c0-2.5-1.9-4.5-4.2-4.5
					h-92c-2.3,0-4.2,2-4.2,4.5v67.1H487.5z"/>
				<path class="st0" d="M495.9,418.8v34.4c-1.4,1-2.8,2-4.3,2.9c0-0.4,0-0.7,0-1.1v-46.2C494.2,411.1,495.9,414.7,495.9,418.8z"/>
				<path class="st0" d="M468.8,100c17.4,0,31.5,14.8,31.5,33s-14.1,33-31.5,33s-31.5-14.8-31.5-33S451.4,100,468.8,100z
					 M485.2,133.2v-0.7c0-2.6-0.4-4.9-1.1-7.1c-0.7-2.2-1.7-4.1-3.1-5.7c-1.4-1.6-3-2.8-5-3.7c-2-0.9-4.3-1.4-6.9-1.4
					c-2.6,0-4.9,0.5-6.9,1.4c-2,0.9-3.7,2.1-5,3.7c-1.4,1.6-2.4,3.5-3.1,5.7c-0.7,2.2-1,4.5-1,7.1v0.7c0,2.5,0.3,4.9,1,7
					c0.7,2.2,1.7,4,3.1,5.7c1.4,1.6,3,2.8,5,3.7c2,0.9,4.3,1.3,6.9,1.3c2.6,0,4.9-0.4,6.9-1.3c2-0.9,3.6-2.1,5-3.7
					c1.4-1.6,2.4-3.5,3.1-5.7C484.8,138.1,485.2,135.8,485.2,133.2z"/>
				<path class="st0" d="M468.8,199c17.4,0,31.5,14.8,31.5,33c0,18.2-14.1,33-31.5,33s-31.5-14.8-31.5-33
					C437.2,213.8,451.4,199,468.8,199z M483.4,226.9v-0.6c0-2.3-0.2-4.4-0.7-6.3c-0.5-1.9-1.2-3.5-2.2-4.9c-0.9-1.4-2.1-2.4-3.5-3.2
					c-1.4-0.7-3-1.1-4.9-1.1c-1.8,0-3.2,0.4-4.5,1.2c-0.9,0.6-1.7,1.3-2.4,2.2l-0.3-2.8h-8.4v42.3h9.1v-14.2
					c0.6,0.7,1.3,1.3,2.1,1.8c1.3,0.8,2.8,1.2,4.5,1.2c1.9,0,3.5-0.4,4.9-1.2c1.4-0.8,2.6-1.9,3.6-3.3c1-1.4,1.7-3.1,2.2-5
					C483.1,231.2,483.4,229.1,483.4,226.9z"/>
				<path class="st0" d="M468.8,298.1c17.4,0,31.5,14.8,31.5,33c0,18.2-14.1,33-31.5,33s-31.5-14.8-31.5-33
					C437.2,312.8,451.4,298.1,468.8,298.1z M486.5,351.7L475.3,331l10.9-20.4h-10.8l-6.4,13.7l-6.4-13.7h-10.8l11,20.4l-11.3,20.7
					h10.9l6.6-13.9l6.6,13.9H486.5z"/>
				<polygon class="st0" points="488.8,29.2 488.8,31.1 485.8,31.1 485.8,39.2 483.4,39.2 483.4,31.1 480.5,31.1 480.5,29.2 				"/>
				<path class="st0" d="M474.8,132.6v0.7c0,1.3-0.1,2.5-0.3,3.7c-0.2,1.1-0.5,2.1-0.9,3c-0.4,0.8-1,1.5-1.8,2
					c-0.7,0.5-1.6,0.7-2.7,0.7c-1.1,0-2-0.2-2.8-0.7c-0.7-0.5-1.3-1.1-1.7-2c-0.4-0.9-0.7-1.9-0.9-3c-0.2-1.1-0.3-2.4-0.3-3.7v-0.7
					c0-1.3,0.1-2.4,0.3-3.6c0.2-1.1,0.5-2.1,0.9-3c0.4-0.9,1-1.6,1.7-2.1c0.7-0.5,1.7-0.7,2.7-0.7c1.1,0,2,0.2,2.8,0.7
					c0.7,0.5,1.3,1.2,1.8,2.1c0.4,0.9,0.7,1.9,0.9,3C474.7,130.1,474.8,131.3,474.8,132.6z"/>
				<path class="st0" d="M474.3,226.3v0.6c0,1.1-0.1,2.2-0.2,3.2c-0.1,1-0.4,1.9-0.7,2.7c-0.3,0.8-0.8,1.3-1.4,1.8
					c-0.6,0.4-1.3,0.6-2.2,0.6c-1.3,0-2.3-0.3-3.1-0.9c-0.5-0.4-1-1-1.3-1.6v-12c0.1-0.2,0.2-0.3,0.3-0.5c0.4-0.6,0.9-1.1,1.6-1.4
					c0.7-0.3,1.5-0.5,2.5-0.5c0.8,0,1.5,0.2,2.1,0.6c0.6,0.4,1,1,1.4,1.7c0.4,0.7,0.6,1.6,0.8,2.6
					C474.2,224.1,474.3,225.1,474.3,226.3z"/>
				<path class="st0" d="M378.7,431.1c3.5,4.4,4.6,10.4,2.6,15.9l-2.6,6.8V431.1z"/>
				<path class="st0" d="M378.7,431.1v22.7L359,506.1c-3.1,8.2-12.1,12.1-20.1,8.7l-87.2-36.2c-4.6-1.9-7.8-5.7-9.2-10.2l3.8-20.1
					l18.7-49.6c3.1-8.2,12.1-12.1,20.1-8.7l87.2,36.2C374.9,427.3,377.1,429,378.7,431.1z M374,444c1.5-4.1-0.5-8.7-4.5-10.4
					l-87.2-36.2c-4-1.7-8.5,0.3-10.1,4.4L250,460.9c-1.5,4.1,0.5,8.7,4.5,10.4l87.2,36.2c4,1.7,8.5-0.3,10.1-4.4L374,444z"/>
				<path class="st0" d="M351.1,460.1c4,1.7,6,6.3,4.5,10.4c-1.5,4.1-6,6-10.1,4.4c-4-1.7-6-6.3-4.5-10.4
					C342.6,460.4,347.1,458.5,351.1,460.1z"/>
				<polygon class="st0" points="267.9,199.2 292.9,250.5 267.6,250.5 267.6,200.1 				"/>
				<polygon class="st0" points="267.6,200.1 267.6,250.5 246.1,250.5 				"/>
				<path class="st0" d="M243.2,375.9c9,1.9,14.8,11,13,20.4l-10,52.1l-3.6,9.5c-1.3,3.5-1.3,7.2-0.3,10.6l-5.8,30.1
					c-1.8,9.4-10.5,15.5-19.5,13.6l-48.8-10.2c-5.1-1.1-9.2-4.5-11.4-9c3.2-1.7,5.2-4.3,6.5-7c0.4,3.6,3,6.7,6.6,7.4l48.8,10.2
					c4.5,0.9,8.9-2.1,9.8-6.8l19.5-102.2c0.9-4.7-2-9.3-6.5-10.2l-48.8-10.2c-4.5-0.9-8.9,2.1-9.8,6.8l-17.5,91.3V428l9.3-48.8
					c1.8-9.4,6.5-15.5,15.5-13.6L243.2,375.9z"/>
				<path class="st0" d="M246.3,448.4l-3.8,20.1c-1.1-3.4-1.1-7.1,0.3-10.6L246.3,448.4z"/>
				<path class="st0" d="M199.3,473c4.5,0.9,7.4,5.5,6.5,10.2c-0.9,4.7-5.3,7.8-9.8,6.8c-4.5-0.9-7.4-5.5-6.5-10.2
					C190.5,475.1,194.8,472,199.3,473z"/>
				<path class="st0" d="M165.6,472.3v4.6c0,0,0,4.6-2.2,9.1c-0.1-0.9-0.1-1.9,0.1-2.8L165.6,472.3z"/>
				<path class="st0" d="M165.6,428v44.2l-2.1,10.9c-0.2,0.9-0.2,1.9-0.1,2.8c-1.3,2.7-3.3,5.3-6.5,7c-1.4-2.9-2.1-6.2-1.8-9.6
					c0.3-0.4,0.6-0.9,0.9-1.5c0.6-1.2,0.9-2.5,1.1-3.6c0.1-0.5,0.1-0.9,0.1-1.2c0-0.1,0-0.2,0-0.2v-5L165.6,428z"/>
				<path class="st0" d="M165.6,423.2v4.8l-8.4,43.8v-48.6c0-2.9-0.6-4.5-1.2-5.4c-0.6-0.9-1.4-1.7-2.5-2.3
					c-1.1-0.6-2.4-0.9-3.4-1.1c-0.5-0.1-0.9-0.1-1.1-0.1c-0.1,0-0.2,0-0.2,0H48.5c-2.7,0-4.2,0.7-5,1.3c-0.9,0.6-1.6,1.5-2.1,2.7
					c-0.6,1.2-0.9,2.5-1,3.6c-0.1,0.5-0.1,0.9-0.2,1.2c0,0.1,0,0.2,0,0.2v53.6c0,2.9,0.7,4.5,1.2,5.4c0.6,0.9,1.4,1.7,2.5,2.3
					c1.1,0.6,2.4,0.9,3.4,1.1c0.5,0.1,0.9,0.1,1.1,0.1c0.1,0,0.2,0,0.2,0h100.3c2.7,0,4.2-0.7,5-1.3c0.5-0.3,0.9-0.7,1.2-1.2
					c-0.3,3.4,0.4,6.7,1.8,9.6c-2.1,1.1-4.8,1.8-8.1,1.8h-33.5c0,6,0.7,10.4,2.1,13.4h6.3c2.3,0,4.2,2,4.2,4.5H69.4
					c0-2.5,1.9-4.5,4.2-4.5h6.3c1.4-3,2.1-7.4,2.1-13.4H48.5c0,0-16.7,0-16.7-17.9v-24c1.5,1.1,3.1,2.2,4.7,3.1c0-0.4,0-0.7,0-1.1
					v-44.6c2.5-2.8,6.3-5,12.1-5h100.4C148.9,405.4,165.6,405.4,165.6,423.2z"/>
				<path class="st0" d="M157.2,471.9v5c0,0,0,0.1,0,0.2c0,0.2,0,0.7-0.1,1.2c-0.2,1.1-0.5,2.4-1.1,3.6c-0.2,0.6-0.6,1.1-0.9,1.5
					c0.1-0.6,0.1-1.2,0.3-1.9L157.2,471.9z"/>
				<path class="st0" d="M59.2,100c17.4,0,31.5,14.8,31.5,33s-14.1,33-31.5,33s-31.5-14.8-31.5-33S41.8,100,59.2,100z M77,133
					c0-0.9-0.1-1.7-0.2-2.5l-11.7,4.6l5.1,12.5C74.3,144.1,77,138.9,77,133z M57.3,126.8l15.1-6.3c-3.2-3.7-7.9-6.1-13.1-6.1
					c-9.8,0-17.7,8.3-17.7,18.6c0,2.3,0.4,4.5,1.1,6.6l-7.8,6.8c2.6,5.2,6.7,9.5,11.6,12.2l6.5-8.2c1.9,0.8,4,1.2,6.3,1.2
					c2.6,0,5-0.6,7.2-1.6l-5.2-12.9L57.3,126.8z"/>
				<path class="st0" d="M59.2,298.1c17.4,0,31.5,14.8,31.5,33c0,18.2-14.1,33-31.5,33s-31.5-14.8-31.5-33
					C27.8,312.8,41.8,298.1,59.2,298.1z M76,344.3v-13.6c0-3.6-2.5-6-5.4-7v-6.1c0-6.3-4.8-11.4-10.8-11.4c-6,0-10.8,5.1-10.8,11.4
					v6.1c-2.9,0.9-5.4,3.4-5.4,7v13.6c0,4.6,4.2,7.4,8.1,7.4h16.2C71.8,351.7,76,349,76,344.3z"/>
				<path class="st0" d="M58.1,197.1c17.8,0,32.2,15.1,32.2,33.8s-14.4,33.8-32.2,33.8c-17.8,0-32.2-15.1-32.2-33.8
					S40.4,197.1,58.1,197.1z M83.8,232.2c0.7-0.7,0.7-1.9,0-2.6l-12.2-12.7c-0.7-0.7-1.8-0.7-2.5,0c-0.7,0.7-0.7,1.9,0,2.6l11,11.4
					l-11,11.4c-0.7,0.7-0.7,1.9,0,2.6c0.7,0.7,1.8,0.7,2.5,0L83.8,232.2z M66.8,207.9c0.3-1-0.2-2-1.2-2.3c-0.9-0.3-1.9,0.2-2.2,1.2
					l-14,47c-0.3,0.9,0.2,2,1.2,2.3c0.9,0.3,1.9-0.2,2.2-1.2L66.8,207.9z M47.2,219.5c0.7-0.7,0.7-1.9,0-2.6c-0.7-0.7-1.8-0.7-2.5,0
					l-12.2,12.7c-0.7,0.7-0.7,1.8,0,2.6l12.2,12.7c0.7,0.7,1.8,0.7,2.5,0c0.7-0.7,0.7-1.9,0-2.6l-11-11.4L47.2,219.5z"/>
				<path class="st0" d="M65.2,317.7v5.7H54.3v-5.7c0-3.1,2.4-5.7,5.4-5.7S65.2,314.5,65.2,317.7z"/>
				<path class="st0" d="M57,140.3l0.6,1.9l-5.9,2.1c-0.4,0.1-0.8,0-1.1-0.4c-0.2-0.3-0.3-0.8,0-1.2l2.3-3.7l-3.2,1.1
					c-0.4,0.1-0.8,0-1.1-0.4c-0.2-0.4-0.3-0.8,0-1.2l2.3-3.7l-3.2,1.1l-0.6-2L53,132c0.4-0.2,0.8,0,1.1,0.3c0.3,0.4,0.3,0.8,0,1.2
					l-2.4,3.7l3.2-1.1c0.4-0.1,0.8,0,1.1,0.4c0.3,0.3,0.3,0.8,0,1.2l-2.3,3.7L57,140.3z"/>
				<path class="st0" d="M33.2,415.8c-1.3,3.8-1.3,7-1.3,7v29.7c0,0-0.1-0.1-0.1-0.1v-29.1C31.8,423.2,31.8,419.7,33.2,415.8z"/>
			</g>
		</g>
	</g>
</g>
</svg>
