<?xml version="1.0" encoding="utf-8"?>
<!-- Generator: Adobe Illustrator 29.0.0, SVG Export Plug-In . SVG Version: 9.03 Build 54978)  -->
<svg version="1.1" xmlns="http://www.w3.org/2000/svg" xmlns:xlink="http://www.w3.org/1999/xlink" x="0px" y="0px"
	 viewBox="0 0 528 528" style="enable-background:new 0 0 528 528;" xml:space="preserve">
<style type="text/css">
	.st0{opacity:0;}
	.st1{fill:#426DB5;}
	.st2{fill:#4D7ABD;}
	.st3{fill:#FFFFFF;}
</style>
<g id="Layer_2">
	<g class="st0">
		<rect class="st1" width="527.4" height="531"/>
	</g>
</g>
<g id="Layer_1">
	<g id="jsopx-logo">
		<g id="XMLID_00000098935339110928308420000014050644340565471674_">
			<g>
				<g>
					<g>
						<path class="st2" d="M421.5,66v-7.3c0-10.7-41.2-6.7-51.2-4.1L187.2,66H421.5z M516.2,115.1v297.1c0,16.8-8,31.6-20.1,40.5
							v-34.4c0-4-1.7-7.6-4.3-10.1v-3.3c0-5.8-2.8-10.8-7.1-13.8v-22.7c13.9-6.4,23.6-20.9,23.6-37.8c0-16.9-9.7-31.5-23.6-37.8
							v-23.4c13.9-6.4,23.6-20.9,23.6-37.8s-9.7-31.5-23.6-37.8v-23.4c13.9-6.4,23.6-20.9,23.6-37.8c0-22.8-17.6-41.3-39.4-41.3
							c-8.3,0-16,2.7-22.3,7.3H81.7c-6.3-4.6-14-7.3-22.3-7.3c-21.8,0-39.4,18.5-39.4,41.3c0,16.9,9.7,31.5,23.6,37.8v23.4
							C29.7,200.2,20,214.7,20,231.6s9.7,31.5,23.6,37.8v23.4C29.7,299.2,20,313.7,20,330.7c0,16.9,9.7,31.5,23.6,37.8v22.7
							c-4.3,3-7.1,8-7.1,13.8v5c-4.7,5.3-4.7,12.9-4.7,12.9v29.6c-12-9-19.7-23.7-19.7-40.3V115.1c0-26.6,20-48.3,45.1-49.5
							l328.9-52.7c29.8-7.8,82.7,20.4,82.7,52.7C495,65.6,516.2,87.7,516.2,115.1z"/>
					</g>
				</g>
				<g>
					<g>
						<path class="st1" d="M370.4,499.2h133.9c0,7.4-5.6,13.4-12.6,13.4H382.9C376,512.6,370.4,506.6,370.4,499.2z"/>
					</g>
				</g>
				<g>
					<g>
						<path class="st3" d="M508.1,133c0,16.9-9.7,31.5-23.6,37.8v23.4c13.9,6.4,23.6,20.9,23.6,37.8s-9.7,31.5-23.6,37.8v23.4
							c13.9,6.4,23.6,20.9,23.6,37.8c0,16.9-9.7,31.5-23.6,37.8v22.7c4.3,3,7.1,8,7.1,13.8v3.3c-2.2-2.1-5.1-3.3-8.3-3.3h-92
							c-6.9,0-12.5,6-12.5,13.4v12.3c-1.6-2.1-3.8-3.8-6.4-4.8L285.1,390c-8-3.3-17,0.6-20.1,8.7l-18.7,49.6l10-52.1
							c1.8-9.4-4-18.6-13-20.5l-52.8-10.2c-9-1.9-13.7,4.2-15.5,13.6l-9.3,48.8v-4.8c0-17.9-16.7-17.9-16.7-17.9H48.5
							c-5.8,0-9.6,2.2-12.1,5v-5c0-5.8,2.8-10.8,7.1-13.8v-22.7c-13.9-6.4-23.6-20.9-23.6-37.8c0-16.9,9.7-31.5,23.6-37.8v-23.4
							C29.6,263.5,19.9,249,19.9,232s9.7-31.5,23.6-37.8v-23.4c-13.9-6.4-23.6-20.9-23.6-37.8c0-22.8,17.6-41.3,39.4-41.3
							c8.3,0,16,2.7,22.3,7.3h364.9c6.3-4.6,14-7.3,22.3-7.3C490.5,91.7,508.1,110.2,508.1,133z M500.3,133c0-18.2-14.1-33-31.5-33
							c-17.4,0-31.5,14.8-31.5,33s14.1,33,31.5,33C486.2,166,500.3,151.2,500.3,133z M500.3,232c0-18.2-14.1-33-31.5-33
							c-17.4,0-31.5,14.8-31.5,33s14.1,33,31.5,33C486.2,265,500.3,250.3,500.3,232z M500.3,331.1c0-18.2-14.1-33-31.5-33
							c-17.4,0-31.5,14.8-31.5,33c0,18.2,14.1,33,31.5,33C486.2,364.1,500.3,349.3,500.3,331.1z M90.7,133c0-18.2-14.1-33-31.5-33
							c-17.4,0-31.5,14.8-31.5,33s14.1,33,31.5,33C76.6,166,90.7,151.2,90.7,133z M90.7,331.1c0-18.2-14.1-33-31.5-33
							c-17.4,0-31.5,14.8-31.5,33c0,18.2,14.1,33,31.5,33C76.6,364.1,90.7,349.3,90.7,331.1z M90.4,230.9
							c0-18.6-14.4-33.8-32.2-33.8c-17.8,0-32.2,15.1-32.2,33.8s14.4,33.8,32.2,33.8C75.9,264.6,90.4,249.5,90.4,230.9z"/>
					</g>
				</g>
				<g>
					<g>
						<path class="st1" d="M495.9,453.2v41.6H378.7v-41l2.6-6.8c2.1-5.5,0.9-11.6-2.6-15.9v-12.3c0-7.4,5.6-13.4,12.5-13.4h92
							c3.2,0,6,1.2,8.3,3.3v46.2c0,0.4,0,0.8,0,1.1C493.1,455.1,494.5,454.2,495.9,453.2z M487.5,485.8v-67.1c0-2.5-1.9-4.5-4.2-4.5
							h-92c-2.3,0-4.2,2-4.2,4.5v67.1H487.5z"/>
					</g>
				</g>
				<g>
					<g>
						<path class="st1" d="M495.9,418.8v34.4c-1.4,1-2.8,2-4.3,2.8c0-0.4,0-0.7,0-1.1v-46.2C494.2,411.1,495.9,414.7,495.9,418.8z"
							/>
					</g>
				</g>
				<g>
					<g>
						<path class="st2" d="M468.7,100c17.4,0,31.5,14.8,31.5,33s-14.1,33-31.5,33c-17.4,0-31.5-14.8-31.5-33S451.4,100,468.7,100z
							 M485.2,133.2v-0.7c0-2.6-0.3-4.9-1-7.1c-0.7-2.2-1.7-4.1-3.1-5.6s-3-2.8-5-3.7c-2-0.9-4.3-1.4-6.9-1.4
							c-2.6,0-4.9,0.5-6.9,1.4c-2,0.9-3.7,2.1-5,3.7c-1.4,1.6-2.4,3.5-3.1,5.6c-0.7,2.2-1,4.5-1,7.1v0.7c0,2.5,0.3,4.9,1,7.1
							c0.7,2.2,1.7,4,3.1,5.6c1.4,1.6,3,2.8,5,3.7c2,0.9,4.3,1.3,6.9,1.3c2.6,0,4.9-0.4,6.9-1.3c2-0.9,3.7-2.1,5-3.7
							c1.4-1.6,2.4-3.5,3.1-5.6C484.8,138.1,485.2,135.8,485.2,133.2z"/>
					</g>
				</g>
				<g>
					<g>
						<path class="st2" d="M468.7,199c17.4,0,31.5,14.8,31.5,33s-14.1,33-31.5,33c-17.4,0-31.5-14.8-31.5-33S451.4,199,468.7,199z
							 M483.4,226.9v-0.6c0-2.3-0.2-4.4-0.7-6.3c-0.5-1.9-1.2-3.5-2.2-4.9c-1-1.4-2.1-2.4-3.6-3.2c-1.4-0.7-3-1.1-4.9-1.1
							c-1.7,0-3.2,0.4-4.5,1.2c-0.9,0.6-1.7,1.3-2.4,2.2l-0.3-2.8h-8.4v42.3h9.1v-14.2c0.6,0.7,1.3,1.3,2.1,1.8
							c1.3,0.8,2.8,1.2,4.5,1.2c1.8,0,3.5-0.4,4.9-1.2c1.4-0.8,2.6-1.9,3.6-3.3c1-1.4,1.7-3.1,2.2-5
							C483.1,231.2,483.4,229.1,483.4,226.9z"/>
					</g>
				</g>
				<g>
					<g>
						<path class="st2" d="M468.7,298.1c17.4,0,31.5,14.8,31.5,33c0,18.2-14.1,33-31.5,33c-17.4,0-31.5-14.8-31.5-33
							C437.3,312.8,451.4,298.1,468.7,298.1z M486.5,351.7L475.3,331l10.9-20.4h-10.8l-6.4,13.7l-6.4-13.7h-10.8l11,20.4l-11.3,20.7
							h10.9l6.6-13.9l6.6,13.9H486.5z"/>
					</g>
				</g>
				<g>
					<g>
						<path class="st3" d="M487.5,418.8v67.1H387.1v-67.1c0-2.5,1.9-4.5,4.2-4.5h92C485.6,414.3,487.5,416.3,487.5,418.8z"/>
					</g>
				</g>
				<g>
					<g>
						<polygon class="st3" points="475.3,331 486.5,351.7 475.6,351.7 469,337.8 462.4,351.7 451.5,351.7 462.8,331 451.8,310.6 
							462.6,310.6 469,324.3 475.4,310.6 486.2,310.6 						"/>
					</g>
				</g>
				<g>
					<g>
						<path class="st3" d="M485.2,132.6v0.7c0,2.5-0.3,4.9-1,7.1c-0.7,2.2-1.7,4-3.1,5.6c-1.4,1.6-3,2.8-5,3.7
							c-2,0.9-4.3,1.3-6.9,1.3c-2.6,0-4.9-0.4-6.9-1.3c-2-0.9-3.7-2.1-5-3.7c-1.4-1.6-2.4-3.5-3.1-5.6c-0.7-2.2-1-4.5-1-7.1v-0.7
							c0-2.6,0.3-4.9,1-7.1c0.7-2.2,1.7-4.1,3.1-5.6c1.4-1.6,3-2.8,5-3.7c2-0.9,4.3-1.4,6.9-1.4c2.6,0,4.9,0.5,6.9,1.4
							c2,0.9,3.7,2.1,5,3.7s2.4,3.5,3.1,5.6C484.8,127.6,485.2,130,485.2,132.6z M474.8,133.2v-0.7c0-1.3-0.1-2.5-0.3-3.6
							c-0.2-1.1-0.5-2.1-0.9-3c-0.4-0.9-1-1.6-1.8-2.1c-0.7-0.5-1.7-0.7-2.8-0.7c-1.1,0-2,0.2-2.7,0.7c-0.7,0.5-1.3,1.2-1.7,2.1
							c-0.4,0.9-0.7,1.9-0.9,3c-0.2,1.1-0.3,2.3-0.3,3.6v0.7c0,1.3,0.1,2.5,0.3,3.7c0.2,1.1,0.5,2.1,0.9,3c0.4,0.8,1,1.5,1.7,2
							c0.7,0.5,1.7,0.7,2.8,0.7c1.1,0,2-0.2,2.7-0.7c0.7-0.5,1.3-1.1,1.8-2c0.4-0.9,0.7-1.9,0.9-3
							C474.7,135.8,474.8,134.5,474.8,133.2z"/>
					</g>
				</g>
				<g>
					<g>
						<path class="st3" d="M483.4,226.3v0.6c0,2.2-0.2,4.3-0.7,6.2c-0.5,1.9-1.2,3.6-2.2,5c-1,1.4-2.1,2.5-3.6,3.3
							c-1.4,0.8-3,1.2-4.9,1.2c-1.7,0-3.2-0.4-4.5-1.2c-0.8-0.5-1.5-1.1-2.1-1.8v14.2h-9.1v-42.3h8.4l0.3,2.8
							c0.7-0.9,1.5-1.6,2.4-2.2c1.3-0.8,2.8-1.2,4.5-1.2c1.8,0,3.5,0.4,4.9,1.1c1.4,0.7,2.6,1.8,3.6,3.2c1,1.4,1.7,3,2.2,4.9
							C483.1,221.9,483.4,224,483.4,226.3z M474.3,226.9v-0.6c0-1.2-0.1-2.3-0.2-3.2c-0.2-1-0.4-1.9-0.8-2.6
							c-0.3-0.7-0.8-1.3-1.4-1.7c-0.6-0.4-1.3-0.6-2.1-0.6c-1,0-1.8,0.2-2.5,0.5c-0.6,0.3-1.2,0.8-1.6,1.4c-0.1,0.2-0.2,0.3-0.3,0.5
							v12c0.3,0.7,0.7,1.2,1.3,1.6c0.8,0.6,1.8,0.9,3.1,0.9c0.9,0,1.6-0.2,2.2-0.6c0.6-0.4,1-1,1.4-1.8c0.3-0.8,0.6-1.7,0.7-2.7
							C474.2,229.1,474.3,228,474.3,226.9z"/>
					</g>
				</g>
				<g>
					<g>
						<path class="st2" d="M474.8,132.6v0.7c0,1.3-0.1,2.5-0.3,3.7c-0.2,1.1-0.5,2.1-0.9,3c-0.4,0.8-1,1.5-1.8,2
							c-0.7,0.5-1.6,0.7-2.7,0.7c-1.1,0-2-0.2-2.8-0.7c-0.7-0.5-1.3-1.1-1.7-2c-0.4-0.9-0.7-1.9-0.9-3c-0.2-1.1-0.3-2.4-0.3-3.7
							v-0.7c0-1.3,0.1-2.5,0.3-3.6c0.2-1.1,0.5-2.1,0.9-3c0.4-0.9,1-1.6,1.7-2.1c0.7-0.5,1.7-0.7,2.7-0.7c1.1,0,2,0.2,2.8,0.7
							c0.7,0.5,1.3,1.2,1.8,2.1c0.4,0.9,0.7,1.9,0.9,3C474.7,130.1,474.8,131.3,474.8,132.6z"/>
					</g>
				</g>
				<g>
					<g>
						<path class="st2" d="M474.3,226.3v0.6c0,1.1-0.1,2.2-0.2,3.2c-0.1,1-0.4,1.9-0.7,2.7c-0.3,0.8-0.8,1.3-1.4,1.8
							c-0.6,0.4-1.3,0.6-2.2,0.6c-1.3,0-2.3-0.3-3.1-0.9c-0.5-0.4-1-1-1.3-1.6v-12c0.1-0.2,0.2-0.3,0.3-0.5c0.4-0.6,0.9-1.1,1.6-1.4
							c0.7-0.3,1.5-0.5,2.5-0.5c0.8,0,1.5,0.2,2.1,0.6c0.6,0.4,1,1,1.4,1.7c0.4,0.7,0.6,1.6,0.8,2.6
							C474.2,224,474.3,225.1,474.3,226.3z"/>
					</g>
				</g>
				<g id="XMLID_00000005957960195878438980000001016327574471476406_">
					<g>
						<g>
							<path class="st1" d="M378.7,431.1c3.5,4.4,4.6,10.4,2.6,15.9l-2.6,6.8V431.1z"/>
						</g>
					</g>
				</g>
				<g>
					<g>
						<path class="st1" d="M378.7,431.1v22.7L359,506.1c-3.1,8.2-12.1,12.1-20.1,8.7l-87.2-36.2c-4.6-1.9-7.8-5.7-9.2-10.2l3.8-20.1
							l18.7-49.6c3.1-8.2,12.1-12.1,20.1-8.7l87.2,36.2C374.9,427.3,377.1,429,378.7,431.1z M374,444c1.5-4.1-0.5-8.7-4.5-10.4
							l-87.2-36.2c-4-1.7-8.5,0.3-10.1,4.4L250,460.8c-1.5,4.1,0.5,8.7,4.5,10.4l87.2,36.2c4,1.7,8.5-0.3,10.1-4.4L374,444z"/>
					</g>
				</g>
				<g>
					<g>
						<path class="st3" d="M369.5,433.6c4,1.7,6,6.3,4.5,10.4l-22.3,59.1c-1.5,4.1-6,6-10.1,4.4l-87.2-36.2c-4-1.7-6-6.3-4.5-10.4
							l22.3-59.1c1.5-4.1,6-6,10.1-4.4L369.5,433.6z M355.6,470.5c1.5-4.1-0.5-8.7-4.5-10.4c-4-1.7-8.5,0.3-10,4.4
							c-1.5,4.1,0.5,8.7,4.5,10.4C349.6,476.6,354.1,474.6,355.6,470.5z"/>
					</g>
				</g>
				<g>
					<g>
						<path class="st1" d="M351.1,460.1c4,1.7,6,6.3,4.5,10.4c-1.5,4.1-6,6-10.1,4.4c-4-1.7-6-6.3-4.5-10.4
							C342.6,460.4,347.1,458.5,351.1,460.1z"/>
					</g>
				</g>
				<g>
					<g>
						<path class="st1" d="M243.2,375.9c9,1.9,14.8,11,13,20.5l-10,52.1l-3.6,9.5c-1.3,3.5-1.3,7.2-0.3,10.6l-5.7,30.1
							c-1.8,9.4-10.5,15.5-19.5,13.6l-48.8-10.2c-5.1-1.1-9.2-4.5-11.4-9c3.2-1.7,5.2-4.3,6.5-7c0.4,3.6,3,6.7,6.6,7.4l48.8,10.2
							c4.5,0.9,8.9-2.1,9.8-6.8l19.5-102.2c0.9-4.7-2-9.3-6.5-10.2l-48.8-10.2c-4.5-0.9-8.9,2.1-9.8,6.8l-17.5,91.3V428l9.3-48.8
							c1.8-9.4,6.5-15.5,15.5-13.6L243.2,375.9z"/>
					</g>
				</g>
				<g>
					<g>
						<path class="st3" d="M241.6,384.4c4.5,0.9,7.4,5.5,6.5,10.2l-19.5,102.2c-0.9,4.7-5.3,7.8-9.8,6.8L170,493.4
							c-3.6-0.8-6.1-3.8-6.6-7.4c2.2-4.5,2.2-9.1,2.2-9.1v-4.6l17.5-91.3c0.9-4.7,5.3-7.8,9.8-6.8L241.6,384.4z M205.8,483.2
							c0.9-4.7-2-9.3-6.5-10.2c-4.5-0.9-8.9,2.1-9.8,6.8c-0.9,4.7,2,9.3,6.5,10.2C200.6,490.9,204.9,487.9,205.8,483.2z"/>
					</g>
				</g>
				<g id="XMLID_00000057116336481445925930000007610601234836376744_">
					<g>
						<g>
							<path class="st1" d="M246.3,448.4l-3.8,20.1c-1.1-3.4-1.1-7.1,0.3-10.6L246.3,448.4z"/>
						</g>
					</g>
				</g>
				<g>
					<g>
						<path class="st1" d="M199.3,473c4.5,0.9,7.4,5.5,6.5,10.2c-0.9,4.7-5.3,7.8-9.8,6.8c-4.5-0.9-7.4-5.5-6.5-10.2
							C190.5,475.1,194.8,472,199.3,473z"/>
					</g>
				</g>
				<g>
					<g>
						<path class="st2" d="M165.6,472.3v4.6c0,0,0,4.6-2.2,9.1c-0.1-0.9-0.1-1.9,0.1-2.8L165.6,472.3z"/>
					</g>
				</g>
				<g>
					<g>
						<path class="st1" d="M165.6,423.2v4.8l-8.4,43.8v-48.6c0-2.9-0.6-4.5-1.2-5.4c-0.6-0.9-1.4-1.7-2.5-2.3
							c-1.1-0.6-2.4-1-3.4-1.1c-0.5-0.1-0.9-0.1-1.1-0.1c-0.1,0-0.2,0-0.2,0H48.5c-2.7,0-4.2,0.7-5,1.3c-0.9,0.6-1.6,1.5-2.1,2.7
							c-0.6,1.2-0.9,2.5-1.1,3.6c-0.1,0.5-0.1,0.9-0.1,1.2c0,0.1,0,0.2,0,0.2v53.6c0,2.9,0.7,4.5,1.2,5.4c0.6,1,1.4,1.7,2.5,2.3
							c1.1,0.6,2.4,1,3.4,1.1c0.5,0.1,0.9,0.1,1.1,0.1c0.1,0,0.2,0,0.2,0h100.3c2.7,0,4.2-0.7,5-1.3c0.5-0.3,0.9-0.7,1.2-1.2
							c-0.3,3.4,0.4,6.7,1.8,9.6c-2.1,1.1-4.8,1.8-8.1,1.8h-33.5c0,6,0.7,10.4,2.1,13.4h6.3c2.3,0,4.2,2,4.2,4.5H69.4
							c0-2.5,1.9-4.5,4.2-4.5h6.3c1.4-3,2.1-7.4,2.1-13.4H48.5c0,0-16.7,0-16.7-17.9v-24c1.5,1.1,3.1,2.2,4.7,3.1c0-0.4,0-0.7,0-1.1
							v-44.6c2.5-2.8,6.3-5,12.1-5h100.4C148.9,405.4,165.6,405.4,165.6,423.2z"/>
					</g>
				</g>
				<g>
					<g>
						<path class="st1" d="M165.6,428v44.2l-2.1,10.9c-0.2,1-0.2,1.9-0.1,2.8c-1.3,2.7-3.3,5.3-6.5,7c-1.4-2.9-2.1-6.2-1.8-9.6
							c0.3-0.4,0.6-0.9,0.9-1.5c0.6-1.2,0.9-2.5,1.1-3.6c0.1-0.5,0.1-0.9,0.1-1.2c0-0.1,0-0.2,0-0.2v-5L165.6,428z"/>
					</g>
				</g>
				<g>
					<g>
						<path class="st2" d="M157.3,471.8v5c0,0,0,0.1,0,0.2c0,0.2,0,0.7-0.1,1.2c-0.2,1.1-0.5,2.4-1.1,3.6c-0.3,0.6-0.6,1.1-0.9,1.5
							c0.1-0.6,0.1-1.2,0.3-1.9L157.3,471.8z"/>
					</g>
				</g>
				<g>
					<g>
						<path class="st3" d="M157.3,423.2v48.6l-1.8,9.6c-0.1,0.6-0.2,1.2-0.3,1.9c-0.4,0.5-0.8,0.9-1.2,1.2c-0.8,0.6-2.3,1.3-5,1.3
							H48.6c0,0-0.1,0-0.2,0c-0.2,0-0.6-0.1-1.1-0.1c-1-0.2-2.3-0.5-3.4-1.1c-1.1-0.6-1.9-1.3-2.5-2.3c-0.5-0.9-1.2-2.5-1.2-5.4
							v-53.6c0,0,0-0.1,0-0.2c0-0.2,0.1-0.7,0.1-1.2c0.2-1.1,0.5-2.4,1.1-3.6c0.5-1.2,1.2-2.1,2.1-2.7c0.8-0.6,2.3-1.3,5-1.3h100.3
							c0,0,0.1,0,0.2,0c0.2,0,0.6,0.1,1.1,0.1c1,0.2,2.3,0.5,3.4,1.1c1.1,0.6,1.9,1.3,2.5,2.3C156.6,418.7,157.3,420.3,157.3,423.2z
							"/>
					</g>
				</g>
				<g>
					<g>
						<path class="st3" d="M83.8,229.6c0.7,0.7,0.7,1.8,0,2.6l-12.2,12.7c-0.7,0.7-1.8,0.7-2.5,0c-0.7-0.7-0.7-1.9,0-2.6l11-11.4
							l-11-11.4c-0.7-0.7-0.7-1.9,0-2.6c0.7-0.7,1.8-0.7,2.5,0L83.8,229.6z"/>
					</g>
				</g>
				<g>
					<g>
						<path class="st2" d="M59.3,100c17.4,0,31.5,14.8,31.5,33s-14.1,33-31.5,33c-17.4,0-31.5-14.8-31.5-33S41.8,100,59.3,100z
							 M77,133c0-0.9-0.1-1.7-0.2-2.5l-11.6,4.6l5.1,12.5C74.3,144.1,77,138.9,77,133z M57.3,126.8l15.1-6.3
							c-3.2-3.7-7.9-6.1-13.1-6.1c-9.8,0-17.7,8.3-17.7,18.6c0,2.3,0.4,4.5,1.1,6.6l-7.8,6.8c2.6,5.2,6.7,9.5,11.6,12.2l6.5-8.2
							c1.9,0.8,4.1,1.2,6.3,1.2c2.6,0,5-0.6,7.2-1.6l-5.3-12.8L57.3,126.8z"/>
					</g>
				</g>
				<g>
					<g>
						<path class="st2" d="M59.3,298.1c17.4,0,31.5,14.8,31.5,33c0,18.2-14.1,33-31.5,33c-17.4,0-31.5-14.8-31.5-33
							C27.7,312.8,41.8,298.1,59.3,298.1z M76,344.3v-13.6c0-3.6-2.5-6-5.4-6.9v-6.1c0-6.3-4.8-11.4-10.8-11.4s-10.8,5.1-10.8,11.4
							v6.1c-2.9,0.9-5.4,3.4-5.4,6.9v13.6c0,4.6,4.2,7.4,8.1,7.4h16.2C71.8,351.7,76,349,76,344.3z"/>
					</g>
				</g>
				<g>
					<g>
						<path class="st2" d="M58.1,197.1c17.8,0,32.2,15.1,32.2,33.8s-14.4,33.8-32.2,33.8c-17.8,0-32.2-15.1-32.2-33.8
							S40.4,197.1,58.1,197.1z M83.8,232.2c0.7-0.7,0.7-1.8,0-2.6l-12.2-12.7c-0.7-0.7-1.8-0.7-2.5,0c-0.7,0.7-0.7,1.9,0,2.6
							l11,11.4l-11,11.4c-0.7,0.7-0.7,1.9,0,2.6c0.7,0.7,1.8,0.7,2.5,0L83.8,232.2z M66.8,207.9c0.3-1-0.2-2-1.2-2.3
							c-0.9-0.3-1.9,0.2-2.2,1.2l-14,47c-0.3,1,0.2,2,1.2,2.3c0.9,0.3,1.9-0.2,2.2-1.2L66.8,207.9z M47.2,219.5
							c0.7-0.7,0.7-1.9,0-2.6s-1.8-0.7-2.5,0l-12.2,12.7c-0.7,0.7-0.7,1.8,0,2.6l12.2,12.7c0.7,0.7,1.8,0.7,2.5,0s0.7-1.9,0-2.6
							l-11-11.4L47.2,219.5z"/>
					</g>
				</g>
				<g>
					<g>
						<path class="st3" d="M76.8,130.5c0.1,0.8,0.2,1.7,0.2,2.5c0,5.9-2.6,11.1-6.7,14.5l-5.1-12.5L76.8,130.5z"/>
					</g>
				</g>
				<g>
					<g>
						<path class="st3" d="M76,330.7v13.6c0,4.6-4.2,7.4-8.1,7.4H51.6c-3.9,0-8.1-2.7-8.1-7.4v-13.6c0-3.6,2.5-6,5.4-6.9v-6.1
							c0-6.3,4.8-11.4,10.8-11.4s10.8,5.1,10.8,11.4v6.1C73.5,324.7,76,327.2,76,330.7z M65.2,323.3v-5.7c0-3.1-2.4-5.7-5.4-5.7
							c-3,0-5.4,2.5-5.4,5.7v5.7H65.2z"/>
					</g>
				</g>
				<g>
					<g>
						<path class="st3" d="M72.3,120.5l-15.1,6.3l3.9,10.3l5.3,12.8c-2.2,1-4.6,1.6-7.2,1.6c-2.2,0-4.3-0.4-6.3-1.2l-6.5,8.2
							c-5-2.7-9-7-11.6-12.2l7.8-6.8c-0.7-2-1.1-4.3-1.1-6.6c0-10.3,7.9-18.6,17.7-18.6C64.4,114.4,69.1,116.8,72.3,120.5z
							 M57.6,142.2l-0.6-1.9l-3.2,1.1l2.3-3.7c0.2-0.4,0.2-0.9,0-1.2c-0.3-0.4-0.7-0.5-1.1-0.4l-3.2,1.1l2.3-3.7
							c0.2-0.4,0.2-0.9,0-1.2s-0.7-0.5-1.1-0.3l-5.9,2.1l0.6,2l3.2-1.1l-2.3,3.7c-0.2,0.4-0.2,0.8,0,1.2c0.3,0.3,0.7,0.5,1.1,0.3
							l3.2-1.1l-2.4,3.7c-0.2,0.4-0.2,0.9,0,1.2c0.2,0.3,0.7,0.5,1.1,0.4L57.6,142.2z"/>
					</g>
				</g>
				<g>
					<g>
						<path class="st3" d="M65.6,205.6c0.9,0.3,1.4,1.3,1.2,2.3l-14,47c-0.3,1-1.3,1.5-2.2,1.2c-0.9-0.3-1.4-1.3-1.2-2.3l14-47
							C63.7,205.9,64.7,205.3,65.6,205.6z"/>
					</g>
				</g>
				<g>
					<g>
						<path class="st2" d="M65.2,317.7v5.7H54.3v-5.7c0-3.1,2.4-5.7,5.4-5.7C62.7,312,65.2,314.5,65.2,317.7z"/>
					</g>
				</g>
				<g>
					<g>
						<path class="st3" d="M57,140.3l0.6,1.9l-5.9,2.1c-0.4,0.1-0.8,0-1.1-0.4c-0.3-0.3-0.3-0.8,0-1.2l2.4-3.7l-3.2,1.1
							c-0.4,0.1-0.8,0-1.1-0.3c-0.3-0.4-0.3-0.8,0-1.2l2.3-3.7l-3.2,1.1l-0.6-2L53,132c0.4-0.1,0.8,0,1.1,0.3s0.3,0.8,0,1.2
							l-2.3,3.7l3.2-1.1c0.4-0.1,0.8,0,1.1,0.4c0.3,0.3,0.3,0.8,0,1.2l-2.3,3.7L57,140.3z"/>
					</g>
				</g>
				<g>
					<g>
						<path class="st3" d="M47.2,216.9c0.7,0.7,0.7,1.9,0,2.6l-11,11.4l11,11.4c0.7,0.7,0.7,1.9,0,2.6s-1.8,0.7-2.5,0l-12.2-12.7
							c-0.7-0.7-0.7-1.8,0-2.6l12.2-12.7C45.4,216.2,46.5,216.2,47.2,216.9z"/>
					</g>
				</g>
				<g>
					<g>
						<path class="st1" d="M36.4,454.9c0,0.4,0,0.8,0,1.1c-1.6-0.9-3.2-2-4.7-3.1v-29.6c0,0,0-7.6,4.7-12.9V454.9z"/>
					</g>
				</g>
			</g>
		</g>
		<g>
			<g>
				<g>
					<path class="st2" d="M488.8,31.1h-3v8.1h-2.4v-8.1h-2.9v-1.9h8.3V31.1z"/>
				</g>
			</g>
			<g>
				<g>
					<path class="st2" d="M492.9,29.2l2.2,6.9l2.2-6.9h3.1v10h-2.4v-2.3l0.2-4.8l-2.4,7.1h-1.6l-2.4-7.1l0.2,4.8v2.3h-2.4v-10H492.9
						z"/>
				</g>
			</g>
		</g>
		<g>
		</g>
		<g>
			<path class="st1" d="M206.5,154.6h42.4v121.9c0,11.3-2.6,21.4-7.8,30.3c-5.2,8.9-12.5,15.7-21.8,20.6c-9.3,4.9-19.7,7.3-31.2,7.3
				c-19.2,0-34.2-4.9-44.9-14.6c-10.7-9.8-16-23.6-16-41.5h42.7c0,8.1,1.4,14,4.2,17.7c2.8,3.7,7.5,5.5,14,5.5
				c5.9,0,10.4-2.2,13.6-6.7c3.2-4.4,4.8-10.6,4.8-18.6V154.6z"/>
			<path class="st1" d="M358.9,288.8c0-5.8-2-10.3-6.1-13.5c-4.1-3.2-11.2-6.5-21.4-10c-10.2-3.4-18.5-6.8-25-10
				c-21-10.4-31.6-24.7-31.6-42.9c0-9.1,2.6-17.1,7.9-24c5.2-6.9,12.7-12.3,22.3-16.2c9.6-3.9,20.4-5.8,32.4-5.8
				c11.7,0,22.1,2.1,31.4,6.3c9.3,4.2,16.5,10.2,21.6,17.9s7.7,16.6,7.7,26.6h-39c0-6.7-2-11.8-6.1-15.5c-4.1-3.7-9.5-5.5-16.5-5.5
				c-7,0-12.5,1.6-16.6,4.7c-4.1,3.1-6.1,7.1-6.1,11.8c0,4.2,2.2,8,6.7,11.4c4.5,3.4,12.3,6.9,23.5,10.6
				c11.2,3.6,20.5,7.5,27.7,11.7c17.5,10.2,26.3,24.2,26.3,42.1c0,14.3-5.4,25.5-16.1,33.7c-10.7,8.2-25.4,12.2-44.1,12.2
				c-13.2,0-25.1-2.4-35.8-7.1c-10.7-4.8-18.7-11.3-24.1-19.5c-5.4-8.3-8.1-17.8-8.1-28.6h39.3c0,8.8,2.2,15.2,6.7,19.4
				c4.5,4.2,11.8,6.2,21.9,6.2c6.5,0,11.6-1.4,15.3-4.2C357.1,297.9,358.9,293.9,358.9,288.8z"/>
		</g>
	</g>
</g>
</svg>
