<?xml version="1.0" encoding="UTF-8"?><svg id="a" xmlns="http://www.w3.org/2000/svg" viewBox="0 0 504.5 504.9"><path d="M154.41,205.14c3.33-3.5,5-8.37,5-14.63s-1.68-11.17-5.05-14.73c-3.36-3.56-8.31-5.34-14.84-5.34h-21.96v39.94h21.96c6.6,0,11.56-1.75,14.89-5.24Z"/><path d="M470.59,386.46h-92.04c-2.31,0-4.18,1.99-4.18,4.47v67.05h100.41v-67.05c0-2.48-1.87-4.47-4.19-4.47Z"/><path d="M140.77,387.75c-1.13-.6-2.36-.95-3.38-1.13-.49-.09-.88-.12-1.12-.15-.09-.01-.16-.01-.19-.01H35.75c-2.72,0-4.21.69-5.04,1.29-.88.63-1.58,1.53-2.13,2.71-.56,1.21-.88,2.52-1.05,3.62-.09.53-.12.94-.15,1.19,0,.11,0,.18-.01.21v53.57c0,2.91.66,4.49,1.21,5.38.59.95,1.43,1.69,2.54,2.27,1.13.6,2.36.95,3.38,1.13.49.09.88.13,1.12.15.09.01.16.01.19.01h100.33c2.72,0,4.21-.69,5.04-1.29.46-.32.87-.74,1.23-1.22.06-.62.13-1.23.26-1.86l1.84-9.61v-48.61c0-2.9-.65-4.49-1.21-5.38-.58-.94-1.43-1.68-2.53-2.27Z"/><path d="M422.91,153.18c.9-.86,1.35-2.08,1.35-3.66,0-1.73-.46-3.11-1.39-4.14-.92-1.03-2.19-1.56-3.78-1.57h-5.9v10.66h5.8c1.71,0,3.02-.43,3.92-1.29Z"/><path d="M228.87,356.53l-48.76-10.25c-4.49-.94-8.86,2.12-9.76,6.82l-17.46,91.32v4.61s0,4.58-2.17,9.11c.44,3.6,3.01,6.65,6.59,7.4l48.76,10.24c4.49.94,8.86-2.11,9.77-6.81l19.53-102.22c.91-4.7-2-9.28-6.5-10.23ZM193.07,455.34c-.9,4.7-5.26,7.75-9.76,6.81s-7.4-5.52-6.51-10.23c.91-4.7,5.28-7.75,9.77-6.81,4.48.94,7.39,5.52,6.5,10.23Z"/><polygon points="366 425.92 366 425.93 368.26 419.94 366 425.92"/><path d="M356.8,405.76l-87.2-36.19c-4.01-1.67-8.51.29-10.06,4.37l-22.31,59.07c-1.53,4.08.47,8.74,4.48,10.4l87.2,36.18c4.02,1.67,8.52-.29,10.06-4.37l22.31-59.07c1.55-4.08-.46-8.74-4.48-10.39ZM342.86,442.67c-1.53,4.08-6.04,6.04-10.06,4.37-4.01-1.67-6.01-6.33-4.47-10.4,1.53-4.08,6.04-6.03,10.05-4.37,4.02,1.67,6.03,6.33,4.48,10.4Z"/><path d="M233.53,420.54l-3.84,20.08c-1.06-3.38-1.06-7.11.27-10.62l2.09-5.54-2.09,5.53c-1.33,3.52-1.33,7.25-.27,10.63l3.84-20.09h0Z"/><path d="M368.04,406.53c-.55-1.18-1.23-2.29-2.04-3.31h0c.81,1.03,1.49,2.14,2.04,3.31Z"/><polygon points="471.51 27.81 473.89 27.81 473.89 19.71 476.86 19.71 476.86 17.86 468.6 17.86 468.6 19.71 471.51 19.71 471.51 27.81"/><polygon points="480.27 25.49 480.04 20.72 482.44 27.81 484.02 27.81 486.41 20.73 486.18 25.49 486.18 27.81 488.56 27.81 488.56 17.86 485.43 17.86 483.23 24.78 481.02 17.86 477.89 17.86 477.89 27.81 480.27 27.81 480.27 25.49"/><path d="M457,54.22c0-32.23-52.86-60.47-82.69-52.66L45.38,54.26C20.27,55.44.25,77.13.25,103.74v353.57c0,26.04,21.31,47.34,47.34,47.34h409.33c26.03,0,47.33-21.3,47.33-47.34V103.74c0-27.35-21.15-49.52-47.25-49.52ZM426.44,138.49c2.16,1.04,3.83,2.52,5.02,4.44,1.19,1.92,1.78,4.1,1.78,6.54,0,3.61-1.28,6.49-3.85,8.65-2.56,2.16-6.08,3.24-10.55,3.24h-5.65v12.54h-8.85v-36.97h14.65c2.81,0,5.29.52,7.45,1.56ZM418.62,264.32v24.26h-85.85v-130.81h31.32v106.55h54.53ZM375.4,146.42h8.93l3.83,7.57,3.96-7.57h8.83l-7.19,13.38,7.54,14.09h-8.88l-4.29-8.12-4.21,8.12h-8.93l7.57-14.09-7.16-13.38ZM358.41,43.23c9.95-2.6,51.18-6.61,51.18,4.13v7.26h-234.3l183.12-11.39ZM245.34,256.68c3.48,5.99,9.48,8.98,17.98,8.98,7.2,0,12.7-1.71,16.51-5.12,3.81-3.41,5.83-8.83,6.07-16.26h31.14c-.42,9.11-2.86,17.15-7.32,24.12-4.46,6.98-10.72,12.38-18.79,16.22-8.06,3.83-17.27,5.75-27.62,5.75-17.08,0-30.52-5.6-40.34-16.8-9.82-11.2-14.72-27.01-14.72-47.44v-6.47c0-12.82,2.22-24.03,6.65-33.65,4.43-9.61,10.81-17.04,19.14-22.28,8.33-5.24,17.97-7.86,28.91-7.86,15.77,0,28.44,4.18,38.02,12.53,9.58,8.36,15.02,19.87,16.33,34.54h-31.23c-.24-7.97-2.23-13.69-5.98-17.16-3.75-3.47-9.46-5.21-17.13-5.21s-13.51,2.94-17.13,8.8c-3.63,5.87-5.53,15.24-5.71,28.12v9.25c0,13.96,1.74,23.93,5.22,29.92ZM82.82,143.55h56.69c17.08,0,30.44,3.81,40.07,11.44,9.63,7.63,14.45,18.41,14.45,32.34,0,10.08-2.03,18.44-6.08,25.08s-10.41,12.01-19.05,16.12l30.08,58.56v1.5h-37.2l-25.43-51.3h-18.8v51.3h-34.73v-145.03ZM472.06,484.81h-96.03c-6.12,0-11.07-6-11.07-13.41h118.19c0,7.4-4.96,13.41-11.08,13.41ZM483.14,425.31v41.62h-117.14v-41l-19.76,52.3c-3.08,8.15-12.08,12.07-20.12,8.74l-87.2-36.18c-4.56-1.89-7.83-5.72-9.23-10.17l-5.75,30.06c-1.79,9.41-10.53,15.51-19.51,13.63l-48.76-10.25c-5.1-1.06-9.18-4.48-11.42-8.96-2.13,1.12-4.79,1.83-8.11,1.83h-33.47c0,5.96.69,10.43,2.09,13.41h6.27c2.31,0,4.19,2,4.19,4.47h-58.58c0-2.46,1.87-4.47,4.19-4.47h6.27c1.4-2.98,2.09-7.45,2.09-13.41h-33.47s-16.74,0-16.74-17.89v-53.65s0-7.63,4.67-12.92c2.48-2.81,6.26-4.96,12.07-4.96h100.4s16.74,0,16.74,17.89v4.79l9.33-48.8c1.8-9.41,6.54-15.51,15.51-13.62l52.77,10.24c8.97,1.89,14.8,11.04,12.99,20.45l-9.96,52.07,18.74-49.6c3.08-8.15,12.08-12.06,20.12-8.74l87.2,36.18c2.59,1.08,4.76,2.77,6.41,4.85v-12.29c0-7.4,5.62-13.42,12.54-13.42h92.04c3.16,0,6.05,1.24,8.25,3.32,2.63,2.45,4.3,6.07,4.3,10.1v34.38Z"/></svg>