<svg xmlns="http://www.w3.org/2000/svg" viewBox="0 0 528 528"><g class="jsopx-icon-wrapper"><g id="1737691941335-1294322_af"><path d="M72.57,324.73c-.65-.42-1.35-.75-2.08-.98h0c.73.24,1.44.57,2.08.98Z" fill="none"></path><path d="M34.75,146.38l7.82-6.84c-.72-2.04-1.13-4.26-1.13-6.57,0-10.26,7.93-18.57,17.72-18.57,3.89,0,7.49,1.32,10.41,3.54-2.92-2.23-6.52-3.54-10.41-3.54-9.79,0-17.72,8.31-17.72,18.57,0,2.31.41,4.53,1.13,6.57l-7.82,6.84c2.27,4.53,5.67,8.37,9.8,11.08-4.13-2.71-7.53-6.54-9.79-11.08Z" fill="none"></path><path d="M49.42,253.84l2.57-8.67,11.39-38.36c.28-.95,1.26-1.49,2.18-1.2.12.04.23.08.33.14-.1-.06-.21-.11-.33-.14-.92-.29-1.9.25-2.18,1.2l-11.39,38.36-2.57,8.67c-.24.83.11,1.72.83,2.12-.71-.4-1.06-1.29-.82-2.12Z" fill="none"></path><path d="M69.05,244.8c.09.09.18.17.28.23-.1-.07-.19-.14-.27-.23-.68-.7-.68-1.86,0-2.56l10.98-11.38-10.98-11.38c-.51-.53-.64-1.31-.38-1.97.08-.22.21-.43.38-.6.59-.61,1.51-.69,2.19-.23-.68-.46-1.6-.39-2.2.23-.17.17-.3.38-.38.6-.26.66-.13,1.44.38,1.97l10.98,11.38-10.98,11.38c-.68.7-.68,1.86,0,2.56Z" fill="none"></path><path d="M32.4,232.14c-.34-.36-.51-.82-.51-1.28s.17-.92.51-1.28l12.22-12.67c.59-.61,1.51-.69,2.19-.23-.68-.46-1.6-.39-2.2.23l-12.22,12.67c-.34.36-.51.82-.51,1.28s.17.92.51,1.28l12.22,12.66c.09.09.18.17.28.23-.1-.07-.19-.14-.27-.23l-12.22-12.66Z" fill="none"></path><path d="M43.41,344.31v-13.61c0-3.57,2.5-6.01,5.43-6.95v-6.1c0-6.27,4.84-11.36,10.83-11.36,2.24,0,4.32.72,6.05,1.94-1.73-1.23-3.81-1.94-6.05-1.94-5.99,0-10.83,5.09-10.83,11.36v6.1c-2.93.94-5.43,3.38-5.43,6.95v13.61c0,2.61,1.34,4.61,3.21,5.87-1.87-1.26-3.21-3.26-3.21-5.87Z" fill="none"></path><path d="M155.85,417.35s-.03-.03-.04-.04c.08.1.15.21.23.31-.06-.09-.12-.18-.19-.27Z" fill="none"></path><path d="M31.72,422.66s0-.28.03-.76c-.08.82-.08,1.32-.08,1.32v29.05s.03.03.05.04v-29.65Z" fill="none"></path><path d="M467.46,212.01c1.26-.79,2.75-1.18,4.5-1.18,1.85,0,3.47.36,4.87,1.1.35.18.69.38,1.01.61-.33-.22-.67-.43-1.02-.61-1.4-.74-3.02-1.1-4.87-1.1-1.75,0-3.24.39-4.5,1.18-.89.57-1.68,1.3-2.37,2.19h0c.69-.88,1.48-1.61,2.37-2.18Z" fill="none"></path><path d="M457.1,145.92c.68.8,1.43,1.5,2.28,2.12-.84-.62-1.6-1.32-2.27-2.12-1.36-1.62-2.38-3.5-3.08-5.65-.7-2.17-1.04-4.52-1.04-7.05v-.69c0-2.55.34-4.9,1.04-7.05.7-2.18,1.72-4.06,3.08-5.65,1.35-1.59,3.02-2.82,5.02-3.7,1.98-.9,4.27-1.36,6.88-1.36s4.93.46,6.92,1.36c1,.44,1.92.97,2.76,1.58-.84-.62-1.76-1.14-2.77-1.58-1.99-.9-4.3-1.36-6.92-1.36s-4.9.46-6.88,1.36c-2,.88-3.67,2.11-5.02,3.7-1.36,1.59-2.38,3.47-3.08,5.65-.7,2.15-1.04,4.5-1.04,7.05v.69c0,2.53.34,4.88,1.04,7.05.7,2.15,1.72,4.03,3.08,5.65Z" fill="none"></path><path d="M40.05,476.87v-53.57s.01-.1.01-.22c.03-.24.06-.66.15-1.18.17-1.1.49-2.41,1.05-3.62.55-1.18,1.24-2.08,2.13-2.71.83-.59,2.32-1.29,5.05-1.29h100.52s.1,0,.19.01c.23.02.63.06,1.12.15,1.02.18,2.25.52,3.39,1.13.75.4,1.38.88,1.89,1.44-.34-.4-.72-.77-1.17-1.09-.06-.04-.12-.08-.19-.12-.21-.14-.42-.26-.63-.38-1.15-.61-2.37-.95-3.4-1.13-.49-.09-.89-.13-1.12-.15-.08-.01-.15-.01-.19-.01H48.34c-2.73,0-4.22.7-5.06,1.29-.88.63-1.57,1.53-2.12,2.71-.57,1.21-.88,2.52-1.06,3.62-.08.52-.12.94-.14,1.18,0,.12,0,.18-.01.22v53.57c0,2.89.64,4.47,1.2,5.35,0,0,0,0,0,.02.01.01.02.03.03.04.01.02.03.04.04.06-.54-.89-1.18-2.46-1.18-5.31Z" fill="none"></path><path d="M465.42,239.44h0c.6.73,1.3,1.33,2.07,1.82,0,0,0,0,0,0-.77-.49-1.47-1.09-2.07-1.82Z" fill="none"></path><path fill="none" d="M65.06 135.03L70.17 147.52 70.17 147.52 65.06 135.03 76.71 130.46 76.71 130.45 65.06 135.03z"></path><path fill="none" d="M451.46 351.68L462.71 330.99 451.74 310.61 462.54 310.61 462.54 310.61 451.74 310.61 462.71 330.99 451.45 351.68 451.46 351.68z"></path><path fill="none" d="M475.35 310.61L486.12 310.61 486.12 310.61 475.35 310.61 468.95 324.27 468.95 324.27 475.35 310.61z"></path><path fill="none" d="M456.35 211.39L456.41 211.39 464.79 211.39 464.79 211.39 456.35 211.39 456.35 253.65 456.35 253.65 456.35 211.39z"></path><path d="M250.83,467.65c.08.14.16.29.25.42.03.05.06.1.1.15,0,0,0,0,0,0-.12-.19-.24-.38-.35-.58Z" fill="none"></path><path d="M250.32,460.83l22.35-59.07c1.54-4.08,6.06-6.04,10.08-4.37l87.37,36.19c1.18.49,2.18,1.24,2.98,2.15-.43-.52-.9-1-1.46-1.41-.11-.07-.22-.14-.31-.21-.42-.27-.86-.5-1.31-.69l-87.37-36.19c-4.03-1.67-8.54.29-10.08,4.37l-22.35,59.07c-.89,2.35-.59,4.89.6,6.94-1.1-2.02-1.36-4.5-.49-6.79Z" fill="none"></path><path d="M373.45,436.15s-.07-.08-.11-.13c.09.11.17.22.25.34-.05-.07-.09-.14-.14-.21Z" fill="none"></path><path d="M164.97,489.7c.07.11.14.21.21.3.03.05.07.1.11.15.03.04.07.07.1.11-.14-.19-.29-.36-.42-.56Z" fill="none"></path><path d="M246.69,387.32c-.04-.05-.09-.09-.13-.14.05.07.11.13.17.19-.01-.02-.03-.03-.04-.05Z" fill="none"></path><path d="M387.72,418.75c0-2.48,1.87-4.47,4.19-4.47h92.22c1.39,0,2.61.72,3.38,1.83-.02-.03-.03-.06-.05-.08-.04-.07-.09-.13-.14-.19-.25-.36-.56-.67-.91-.93-.06-.03-.11-.07-.16-.09-.64-.44-1.4-.69-2.22-.69h-92.23c-2.31,0-4.19,1.99-4.19,4.47v67.05h.12v-66.9Z" fill="none"></path><path d="M355.91,470.34c-1.53,4.08-6.04,6.04-10.07,4.37-.44-.18-.84-.4-1.23-.65.45.31.94.58,1.47.8,4.03,1.67,8.54-.29,10.07-4.37,1.38-3.63-.06-7.71-3.25-9.75,3.02,2.08,4.36,6.06,3.01,9.6Z" fill="none"></path><path d="M370.23,54.56l-183.12,11.39h234.3v-7.26c0-10.74-41.23-6.73-51.18-4.13Z" fill="none"></path><path d="M205.85,483.01c-.9,4.7-5.28,7.75-9.78,6.81-1.03-.22-1.97-.63-2.81-1.18.89.64,1.92,1.1,3.04,1.33,4.5.94,8.88-2.11,9.78-6.81.69-3.62-.89-7.17-3.71-9.04,2.67,1.91,4.14,5.36,3.48,8.89Z" fill="none"></path><path d="M246.9,387.6c-.04-.05-.08-.11-.12-.16.07.09.12.18.19.27-.02-.03-.04-.07-.06-.1Z" fill="none"></path><path d="M165.81,476.87v-4.62l17.49-91.32c.9-4.71,5.28-7.76,9.78-6.82l48.85,10.24c1.63.34,3.05,1.17,4.16,2.31-.45-.48-.93-.92-1.48-1.28-.83-.56-1.77-.96-2.79-1.18l-48.86-10.24c-4.5-.94-8.88,2.11-9.77,6.82l-17.49,91.32v4.62s0,4.58-2.18,9.1c.17,1.42.67,2.75,1.44,3.87-.7-1.1-1.17-2.37-1.33-3.72,2.17-4.52,2.17-9.1,2.17-9.1Z" fill="none"></path><path d="M468.82,65.55c0-32.23-52.86-60.47-82.69-52.66L57.2,65.59c-25.11,1.18-45.13,22.87-45.13,49.48v297.13c0,16.48,7.67,31.07,19.5,40.06v-.07s.06.06.1.08v-29.05s0-.5.08-1.32c.01-.14.02-.3.04-.48.12-1.29.43-3.45,1.25-5.79.08-.23.18-.46.26-.69.68-1.64,1.62-3.31,2.94-4.8.08-.09.16-.18.25-.27v-4.94c0-5.76,2.81-10.83,7.08-13.79v-22.66c-13.9-6.36-23.62-20.91-23.62-37.83s9.72-31.46,23.62-37.83v-23.38c-13.9-6.36-23.62-20.91-23.62-37.83s9.72-31.46,23.62-37.84v-23.37c-13.9-6.37-23.62-20.91-23.62-37.83,0-22.8,17.63-41.28,39.38-41.28,8.27,0,15.97,2.69,22.31,7.27h364.87c6.34-4.58,14.03-7.27,22.31-7.27,21.75,0,39.38,18.48,39.38,41.28,0,16.92-9.72,31.46-23.63,37.83v23.37c13.91,6.38,23.63,20.91,23.63,37.84s-9.72,31.47-23.63,37.83v23.38c13.91,6.37,23.63,20.91,23.63,37.83s-9.72,31.47-23.63,37.83v22.66c4.28,2.96,7.09,8.03,7.09,13.79v3.03s.08.07.12.1c.18.14.33.29.5.44,2.64,2.45,4.31,6.07,4.31,10.1v33.65c11.81-8.99,19.48-23.58,19.48-40.05V115.07c0-27.35-21.15-49.52-47.25-49.52ZM421.41,65.95h-234.3l183.12-11.39c9.95-2.6,51.18-6.61,51.18,4.13v7.26Z" fill="#4dc7e8"></path><path fill="#2bb4d2" d="M492.09 36.81L491.86 32.05 494.26 39.14 495.84 39.14 498.23 32.06 498 36.81 498 39.14 500.38 39.14 500.38 29.18 497.25 29.18 495.05 36.11 492.84 29.18 489.71 29.18 489.71 39.14 492.09 39.14 492.09 36.81z"></path><path d="M468.67,165.99c17.4,0,31.5-14.79,31.5-33.02s-14.1-33.02-31.5-33.02-31.5,14.79-31.5,33.02,14.1,33.02,31.5,33.02ZM452.98,132.53c0-2.55.34-4.9,1.04-7.05.7-2.18,1.72-4.06,3.08-5.65,1.35-1.59,3.02-2.82,5.02-3.7,1.98-.9,4.27-1.36,6.88-1.36s4.93.46,6.92,1.36c1.01.44,1.93.97,2.77,1.58.84.62,1.6,1.32,2.28,2.12,1.36,1.59,2.39,3.47,3.08,5.65.7,2.15,1.05,4.5,1.05,7.05v.69c0,2.53-.35,4.88-1.05,7.05-.69,2.15-1.72,4.03-3.08,5.65-1.35,1.59-3.02,2.82-5,3.7-2,.89-4.29,1.33-6.9,1.33s-4.91-.44-6.92-1.33c-1.01-.44-1.93-.97-2.77-1.58-.84-.62-1.6-1.32-2.28-2.12-1.36-1.62-2.38-3.5-3.08-5.65-.7-2.17-1.04-4.52-1.04-7.05v-.69Z" fill="#2bb4d2"></path><path d="M468.67,364.07c8.16,0,15.58-3.24,21.18-8.58,6.34-6.04,10.32-14.75,10.32-24.44s-3.98-18.4-10.32-24.43c-5.6-5.33-13.02-8.58-21.18-8.58-17.4,0-31.5,14.78-31.5,33.01s14.1,33.02,31.5,33.02ZM451.74,310.61h10.8s0,0,0,0l6.41,13.65,6.4-13.66h10.77,0s0,0,0,0l-10.92,20.38,11.22,20.69h-10.88s0,0,0,0l-6.59-13.89-6.6,13.9h-10.9,0s0,0,0,0l11.26-20.69-10.97-20.38Z" fill="#2bb4d2"></path><path fill="#2bb4d2" d="M483.33 39.14L485.71 39.14 485.71 31.04 488.68 31.04 488.68 29.18 480.42 29.18 480.42 31.04 483.33 31.04 483.33 39.14z"></path><path fill="#fff" d="M462.71 330.99L451.46 351.68 451.45 351.68 462.35 351.68 468.95 337.79 468.95 337.78 475.54 351.68 475.54 351.68 486.42 351.68 475.2 330.99 486.12 310.61 486.12 310.61 475.35 310.61 468.95 324.27 468.95 324.27 462.54 310.61 462.54 310.61 451.74 310.61 462.71 330.99z"></path><path d="M469,114.77c-2.61,0-4.9.46-6.88,1.36-2,.88-3.67,2.11-5.02,3.7-1.36,1.59-2.38,3.47-3.08,5.65-.7,2.15-1.04,4.5-1.04,7.05v.69c0,2.53.34,4.88,1.04,7.05.7,2.15,1.72,4.03,3.08,5.65.67.79,1.43,1.5,2.27,2.12.84.62,1.76,1.14,2.77,1.58,2.01.89,4.32,1.33,6.92,1.33s4.9-.44,6.9-1.33c1.98-.88,3.65-2.11,5-3.7,1.36-1.62,2.39-3.5,3.08-5.65.7-2.17,1.05-4.52,1.05-7.05v-.69c0-2.55-.35-4.9-1.05-7.05-.69-2.18-1.72-4.06-3.08-5.65-.68-.8-1.43-1.5-2.28-2.12-.84-.62-1.76-1.14-2.76-1.58-1.99-.9-4.3-1.36-6.92-1.36ZM463.35,132.53c0-1.26.09-2.45.27-3.57.19-1.14.49-2.14.93-3,.42-.89.99-1.57,1.71-2.06.74-.49,1.66-.74,2.74-.74s2.03.25,2.77.74c.74.49,1.32,1.17,1.76,2.06.42.86.74,1.86.92,3,.19,1.12.28,2.31.28,3.57v.69c0,1.31-.09,2.53-.28,3.67-.18,1.14-.5,2.14-.92,3-.44.84-1.02,1.49-1.76,1.96-.72.48-1.62.72-2.71.72s-2.03-.24-2.77-.72c-.74-.47-1.32-1.12-1.74-1.96-.44-.86-.74-1.86-.93-3-.18-1.14-.27-2.36-.27-3.67v-.69Z" fill="#fff"></path><path d="M456.35,211.39v42.26h9.07v-14.21s0,0,0,0h0c.6.73,1.3,1.33,2.07,1.82,1.26.82,2.76,1.22,4.49,1.22,1.85,0,3.47-.39,4.87-1.16,1.43-.78,2.6-1.88,3.55-3.29.96-1.41,1.67-3.07,2.17-4.98.48-1.89.71-3.95.71-6.17v-.59c0-2.32-.23-4.43-.71-6.32-.5-1.9-1.22-3.53-2.19-4.88-.71-1.03-1.56-1.88-2.53-2.55-.32-.22-.66-.42-1.01-.61-1.4-.74-3.02-1.1-4.87-1.1-1.75,0-3.24.39-4.5,1.18-.89.57-1.68,1.3-2.37,2.19h0s0,0,0,0l-.3-2.81h-8.44ZM465.42,220.57c.08-.18.17-.35.27-.52.39-.64.91-1.11,1.55-1.41.67-.31,1.48-.47,2.46-.47.84,0,1.54.19,2.13.58.57.4,1.03.96,1.36,1.7.36.73.63,1.59.79,2.59.15.99.24,2.06.24,3.25v.59c0,1.14-.08,2.22-.22,3.22-.14.99-.38,1.88-.72,2.65-.35.75-.8,1.35-1.38,1.77-.57.42-1.28.63-2.15.63-1.3,0-2.31-.3-3.07-.91-.53-.42-.96-.97-1.26-1.63v-12.04Z" fill="#fff"></path><path d="M464.55,139.89c.42.84,1,1.49,1.74,1.96.74.48,1.67.72,2.77.72s1.99-.24,2.71-.72c.74-.47,1.32-1.12,1.76-1.96.42-.86.74-1.86.92-3,.19-1.14.28-2.36.28-3.67v-.69c0-1.26-.09-2.45-.28-3.57-.18-1.14-.5-2.14-.92-3-.44-.89-1.02-1.57-1.76-2.06-.74-.49-1.66-.74-2.77-.74s-2,.25-2.74.74c-.72.49-1.29,1.17-1.71,2.06-.44.86-.74,1.86-.93,3-.18,1.12-.27,2.31-.27,3.57v.69c0,1.31.09,2.53.27,3.67.19,1.14.49,2.14.93,3Z" fill="#2bb4d2"></path><path d="M469.75,235.15c.87,0,1.58-.21,2.15-.63.58-.42,1.03-1.02,1.38-1.77.34-.77.58-1.66.72-2.65.14-1,.22-2.08.22-3.22v-.59c0-1.19-.09-2.26-.24-3.25-.16-1-.43-1.86-.79-2.59-.33-.74-.79-1.3-1.36-1.7-.59-.39-1.29-.58-2.13-.58-.98,0-1.79.16-2.46.47-.64.3-1.16.77-1.55,1.41-.1.17-.19.34-.27.52v12.04c.3.66.73,1.21,1.26,1.63.76.61,1.77.91,3.07.91Z" fill="#2bb4d2"></path><path d="M456.41,262.44c3.77,1.67,7.91,2.59,12.26,2.59,17.4,0,31.5-14.78,31.5-33.02s-14.1-33.02-31.5-33.02c-4.35,0-8.49.93-12.26,2.6-11.31,5.01-19.24,16.75-19.24,30.42s7.93,25.41,19.24,30.43ZM456.35,211.39h8.44s.3,2.81.3,2.81c0,0,0,0,0,0,.69-.89,1.48-1.62,2.37-2.19,1.26-.79,2.75-1.18,4.5-1.18,1.85,0,3.47.36,4.87,1.1.35.18.69.39,1.02.61.97.67,1.82,1.52,2.53,2.55.97,1.35,1.69,2.98,2.19,4.88.48,1.89.71,4,.71,6.32v.59c0,2.22-.23,4.28-.71,6.17-.5,1.91-1.21,3.57-2.17,4.98-.95,1.41-2.12,2.51-3.55,3.29-1.4.77-3.02,1.16-4.87,1.16-1.73,0-3.23-.4-4.49-1.22,0,0,0,0,0,0-.77-.49-1.47-1.09-2.07-1.81,0,0,0,0,0,0v14.21h-9.07v-42.26Z" fill="#2bb4d2"></path><path d="M484.12,414.28h-92.22c-2.31,0-4.19,1.99-4.19,4.47v66.9h100.49v-67.05c0-.93-.27-1.78-.71-2.49-.76-1.11-1.98-1.83-3.38-1.83Z" fill="#fff"></path><path d="M251.65,468.82c.48.57,1.05,1.08,1.68,1.51.09.08.2.15.32.22.33.2.69.38,1.06.53l87.37,36.18c4.01,1.67,8.52-.29,10.07-4.37l22.36-59.07c.95-2.49.55-5.21-.82-7.32-.03-.05-.06-.09-.1-.14-.08-.11-.16-.23-.25-.34-.07-.1-.16-.19-.24-.29-.8-.91-1.8-1.66-2.98-2.15l-87.37-36.19c-4.02-1.67-8.54.29-10.08,4.37l-22.35,59.07c-.87,2.29-.61,4.76.49,6.79,0,0,.01.02.02.03.11.2.23.39.35.58.14.21.3.4.46.6ZM341.36,464.31c1.53-4.08,6.05-6.03,10.06-4.37.53.22,1.02.49,1.48.8,3.19,2.03,4.63,6.12,3.25,9.75-1.53,4.08-6.04,6.04-10.07,4.37-.52-.22-1.01-.49-1.47-.8-3.18-2.03-4.63-6.12-3.25-9.75Z" fill="#fff"></path><path d="M167.33,492.05c.09.08.2.14.32.21.75.45,1.57.78,2.47.97l48.86,10.23c4.5.94,8.88-2.1,9.79-6.81l19.57-102.22c.46-2.44-.09-4.85-1.38-6.73-.06-.09-.12-.18-.19-.27-.02-.02-.03-.04-.05-.06-.05-.07-.11-.13-.17-.19-.14-.18-.31-.35-.46-.52-1.11-1.13-2.53-1.96-4.16-2.31l-48.85-10.24c-4.5-.94-8.88,2.11-9.78,6.82l-17.49,91.32v4.62s0,4.58-2.17,9.1c.16,1.35.63,2.62,1.33,3.72,0,0,0,0,0,0,0,0,0,0,0,0,.13.2.28.37.42.56.55.69,1.19,1.29,1.94,1.79ZM189.54,479.59c.91-4.7,5.29-7.75,9.79-6.8,1.12.24,2.15.7,3.04,1.33,2.81,1.87,4.4,5.41,3.71,9.04-.9,4.7-5.28,7.75-9.78,6.81-1.13-.24-2.15-.7-3.04-1.33-2.82-1.87-4.4-5.41-3.71-9.04Z" fill="#fff"></path><path d="M153.67,415.57c-1.13-.61-2.36-.95-3.39-1.13-.49-.09-.89-.13-1.12-.15-.09-.01-.16-.01-.19-.01H48.45c-2.73,0-4.22.7-5.05,1.29-.89.63-1.58,1.53-2.13,2.71-.56,1.21-.88,2.52-1.05,3.62-.09.52-.12.94-.15,1.18,0,.12,0,.18-.01.22v53.57c0,2.85.64,4.42,1.18,5.31.48.72,1.09,1.34,1.88,1.83.06.04.12.08.19.12.13.08.27.16.41.23,1.13.6,2.37.95,3.38,1.13.5.09.88.13,1.13.14.08,0,.14,0,.19,0h100.52c2.73,0,4.22-.69,5.05-1.28.47-.33.87-.74,1.24-1.22.05-.62.12-1.24.25-1.86l1.83-9.61v-48.61c0-2.9-.64-4.49-1.21-5.38-.01-.02-.03-.05-.05-.07-.07-.11-.15-.21-.23-.31-.08-.1-.17-.2-.26-.3-.51-.56-1.14-1.04-1.89-1.44Z" fill="#fff"></path><path d="M383.28,512.48h108.99c6.94,0,12.57-6.01,12.57-13.41h-134.13c0,7.4,5.62,13.41,12.56,13.41Z" fill="#2bb4d2"></path><path d="M492.28,408.5c-.17-.15-.32-.3-.5-.44-.04-.03-.08-.07-.12-.1-2.1-1.74-4.76-2.78-7.64-2.78h-92.23c-6.93,0-12.57,6.02-12.57,13.42v12.29c-1.64-2.09-3.82-3.78-6.42-4.85l-87.37-36.18c-8.04-3.33-17.07.58-20.15,8.74l-18.77,49.6,9.97-52.07c1.81-9.41-4.02-18.56-13.01-20.45l-52.88-10.24c-8.99-1.89-13.74,4.22-15.54,13.62l-9.34,48.8v-4.79c0-17.89-16.78-17.89-16.78-17.89H48.34c-5.55,0-9.25,1.95-11.73,4.56-.04.04-.08.09-.12.13-.09.09-.17.18-.25.27-1.32,1.49-2.26,3.16-2.94,4.8-.08.23-.18.46-.26.69-.82,2.34-1.13,4.5-1.25,5.79-.02.18-.03.34-.04.48-.03.48-.03.76-.03.76v29.65s-.03-.02-.05-.04c-.04-.02-.07-.05-.1-.08v24.53c0,17.88,16.77,17.88,16.77,17.88h33.54c0,5.96-.71,10.43-2.11,13.41h-6.29c-2.32,0-4.2,2-4.2,4.47h58.7c0-2.47-1.89-4.47-4.2-4.47h-6.27c-1.42-2.98-2.11-7.45-2.11-13.41h33.53c3.31,0,5.99-.7,8.12-1.82,2.25,4.48,6.34,7.89,11.44,8.96l48.86,10.25c9,1.88,17.75-4.23,19.55-13.64l5.76-30.06c1.41,4.45,4.68,8.28,9.25,10.17l87.37,36.18c8.05,3.34,17.06-.58,20.15-8.74l19.79-52.3v41h117.37v-76c0-4.03-1.67-7.65-4.31-10.1ZM41.16,482.09s0-.01,0-.02c-.56-.88-1.2-2.46-1.2-5.35v-53.57s.01-.1.01-.22c.02-.24.06-.66.14-1.18.18-1.1.49-2.41,1.06-3.62.55-1.18,1.24-2.08,2.12-2.71.84-.59,2.33-1.29,5.06-1.29h100.52s.11,0,.19.01c.23.02.63.06,1.12.15,1.03.18,2.25.52,3.4,1.13.21.12.42.24.63.38.07.04.13.08.19.12.45.33.83.7,1.17,1.09.08.1.18.19.26.3.01.01.03.03.04.04.07.09.13.18.19.27.01.02.03.04.05.07.57.89,1.21,2.48,1.21,5.38v48.61l-1.83,9.61c-.13.62-.2,1.24-.25,1.86-.37.48-.77.89-1.24,1.22-.83.59-2.32,1.28-5.05,1.28H48.41s-.11,0-.19,0c-.25-.01-.63-.05-1.13-.14-1.01-.18-2.25-.53-3.38-1.13-.14-.07-.28-.15-.41-.23-.07-.04-.13-.08-.19-.12-.79-.5-1.4-1.11-1.88-1.83-.01-.02-.03-.04-.04-.06-.01-.01-.02-.03-.03-.04ZM165.18,490c-.07-.09-.14-.19-.21-.3,0,0,0,0,0,0,0,0,0,0,0,0-.77-1.13-1.27-2.46-1.44-3.87,2.18-4.52,2.18-9.1,2.18-9.1v-4.62l17.49-91.32c.89-4.71,5.27-7.76,9.77-6.82l48.86,10.24c1.02.22,1.96.62,2.79,1.18.55.36,1.03.8,1.48,1.28.16.17.32.34.46.52.04.05.09.09.13.14.01.02.03.03.04.05.02.02.03.04.05.06.04.06.08.11.12.16.02.03.04.07.06.1,1.28,1.88,1.84,4.29,1.38,6.73l-19.57,102.22c-.91,4.71-5.29,7.75-9.79,6.81l-48.86-10.23c-.9-.19-1.72-.52-2.47-.97-.12-.07-.23-.13-.32-.21-.75-.49-1.39-1.1-1.94-1.79-.03-.04-.07-.07-.1-.11-.04-.05-.08-.1-.11-.15ZM251.08,468.07c-.09-.14-.16-.28-.25-.42,0,0-.01-.02-.02-.03-1.18-2.05-1.49-4.59-.6-6.94l22.35-59.07c1.54-4.08,6.05-6.04,10.08-4.37l87.37,36.19c.45.19.89.42,1.31.69.09.07.2.14.31.21.56.4,1.04.89,1.46,1.41.08.1.17.19.24.29.03.04.08.08.11.13.05.07.1.14.14.21.03.05.07.09.1.14,1.37,2.11,1.77,4.83.82,7.32l-22.36,59.07c-1.55,4.08-6.06,6.04-10.07,4.37l-87.37-36.18c-.37-.15-.73-.33-1.06-.53-.12-.07-.23-.14-.32-.22-.63-.43-1.2-.93-1.68-1.51-.16-.2-.32-.39-.46-.6,0,0,0,0,0,0-.04-.05-.07-.1-.1-.15ZM387.6,418.6c0-2.48,1.88-4.47,4.19-4.47h92.23c.82,0,1.58.25,2.22.69.05.02.1.06.16.09.35.26.66.57.91.93.05.06.1.12.14.19.02.03.03.06.05.08.44.71.71,1.56.71,2.49v67.05h-100.61v-67.05Z" fill="#2bb4d2"></path><path d="M344.61,474.06c.39.25.8.47,1.23.65,4.03,1.67,8.54-.29,10.07-4.37,1.35-3.54.01-7.52-3.01-9.6-.46-.31-.95-.59-1.48-.8-4.01-1.66-8.53.29-10.06,4.37-1.38,3.63.07,7.72,3.25,9.75Z" fill="#2bb4d2"></path><path d="M193.26,488.64c.84.56,1.78.97,2.81,1.18,4.5.94,8.88-2.11,9.78-6.81.67-3.52-.8-6.98-3.48-8.89-.89-.64-1.91-1.1-3.04-1.33-4.5-.95-8.88,2.1-9.79,6.8-.69,3.63.89,7.18,3.71,9.04Z" fill="#2bb4d2"></path><path d="M90.29,230.86c0-18.65-14.43-33.77-32.23-33.77s-32.21,15.12-32.21,33.77,14.43,33.77,32.21,33.77,32.23-15.12,32.23-33.77ZM69.05,219.48c-.51-.53-.64-1.31-.38-1.97.08-.22.21-.43.38-.6.6-.61,1.51-.69,2.2-.23.1.07.19.14.28.23l12.21,12.67c.35.36.52.82.52,1.28s-.17.92-.52,1.28l-12.21,12.66c-.6.62-1.52.7-2.2.23-.1-.07-.19-.14-.28-.23-.68-.7-.68-1.86,0-2.56l10.98-11.38-10.98-11.38ZM47.09,242.24c.43.44.58,1.05.48,1.62-.07.35-.23.68-.48.94-.6.62-1.52.7-2.2.23-.1-.07-.19-.14-.28-.23l-12.22-12.66c-.34-.36-.51-.82-.51-1.28s.17-.92.51-1.28l12.22-12.67c.6-.61,1.51-.69,2.2-.23.1.07.19.14.28.23.68.71.68,1.86,0,2.57l-10.99,11.38,10.99,11.38ZM50.57,256.1c-.12-.04-.23-.09-.33-.14-.71-.4-1.07-1.29-.83-2.12l2.57-8.67,11.39-38.36c.28-.95,1.26-1.49,2.18-1.2.12.04.23.09.33.14.72.4,1.08,1.29.83,2.13l-2.47,8.32-11.49,38.7c-.28.96-1.26,1.49-2.19,1.2Z" fill="#2bb4d2"></path><path d="M69.05,216.91c-.17.17-.3.38-.38.6-.26.66-.13,1.44.38,1.97l10.98,11.38-10.98,11.38c-.68.7-.68,1.86,0,2.56.08.09.18.16.27.23.68.47,1.59.39,2.2-.23l12.21-12.66c.35-.36.52-.82.52-1.28s-.17-.92-.52-1.28l-12.21-12.67c-.09-.09-.18-.16-.28-.23-.68-.46-1.6-.38-2.19.23Z" fill="#fff"></path><path d="M90.67,132.97c0-18.23-14.1-33.02-31.5-33.02s-31.5,14.79-31.5,33.02,14.1,33.02,31.5,33.02,31.5-14.79,31.5-33.02ZM76.71,130.45c.11.83.17,1.67.17,2.52,0,5.89-2.62,11.14-6.71,14.55h0s0,0,0,0l-5.11-12.49,11.65-4.58s0,0,0,0h0ZM52.89,150.34l-6.53,8.21c-.62-.34-1.23-.71-1.82-1.09-4.13-2.71-7.53-6.55-9.8-11.08l7.82-6.84c-.72-2.04-1.13-4.26-1.13-6.57,0-10.26,7.93-18.57,17.72-18.57,3.89,0,7.49,1.32,10.41,3.54.97.74,1.87,1.59,2.68,2.52l-15.06,6.32,3.93,10.31,5.25,12.85c-2.2,1.03-4.64,1.6-7.21,1.6-2.22,0-4.32-.43-6.27-1.2Z" fill="#2bb4d2"></path><path d="M90.67,331.05c0-18.23-14.1-33.01-31.5-33.01s-31.5,14.78-31.5,33.01,14.1,33.02,31.5,33.02,31.5-14.78,31.5-33.02ZM43.41,344.31v-13.61c0-3.57,2.5-6.01,5.43-6.95v-6.1c0-6.27,4.84-11.36,10.83-11.36,2.24,0,4.32.72,6.05,1.94,2.88,2.04,4.76,5.5,4.76,9.42v6.1c.73.24,1.44.56,2.08.98,1.94,1.25,3.35,3.29,3.35,5.97v13.61c0,4.63-4.24,7.37-8.12,7.37h-16.24c-1.71,0-3.48-.53-4.93-1.5-1.87-1.26-3.21-3.26-3.21-5.87Z" fill="#2bb4d2"></path><path d="M48.34,405.18h100.59s16.78,0,16.78,17.89v4.79l9.34-48.8c1.8-9.4,6.55-15.51,15.54-13.62l52.88,10.24c8.99,1.89,14.82,11.04,13.01,20.45l-9.97,52.07,18.77-49.6c3.08-8.16,12.11-12.07,20.15-8.74l87.37,36.18c2.6,1.07,4.78,2.76,6.42,4.85v-12.29c0-7.4,5.64-13.42,12.57-13.42h92.23c2.88,0,5.54,1.04,7.64,2.78v-3.03c0-5.76-2.81-10.83-7.09-13.79v-22.66c13.91-6.36,23.63-20.91,23.63-37.83s-9.72-31.46-23.63-37.83v-23.38c13.91-6.36,23.63-20.91,23.63-37.83s-9.72-31.46-23.63-37.84v-23.37c13.91-6.37,23.63-20.91,23.63-37.83,0-22.8-17.63-41.28-39.38-41.28-8.28,0-15.97,2.69-22.31,7.27H81.64c-6.34-4.58-14.04-7.27-22.31-7.27-21.75,0-39.38,18.48-39.38,41.28,0,16.92,9.72,31.46,23.62,37.83v23.37c-13.9,6.38-23.62,20.91-23.62,37.84s9.72,31.47,23.62,37.83v23.38c-13.9,6.37-23.62,20.91-23.62,37.83s9.72,31.47,23.62,37.83v22.66c-4.27,2.96-7.08,8.03-7.08,13.79v4.94s.08-.09.12-.13c2.48-2.61,6.18-4.56,11.73-4.56ZM468.67,99.95c17.4,0,31.5,14.79,31.5,33.02s-14.1,33.02-31.5,33.02-31.5-14.79-31.5-33.02,14.1-33.02,31.5-33.02ZM456.41,201.59c3.77-1.67,7.91-2.6,12.26-2.6,17.4,0,31.5,14.79,31.5,33.02s-14.1,33.02-31.5,33.02c-4.35,0-8.49-.92-12.26-2.59-11.31-5.02-19.24-16.75-19.24-30.43s7.93-25.41,19.24-30.42ZM468.67,298.04c8.16,0,15.58,3.25,21.18,8.58,6.34,6.03,10.32,14.75,10.32,24.43s-3.98,18.4-10.32,24.44c-5.6,5.34-13.02,8.58-21.18,8.58-17.4,0-31.5-14.78-31.5-33.02s14.1-33.01,31.5-33.01ZM27.67,132.97c0-18.23,14.1-33.02,31.5-33.02s31.5,14.79,31.5,33.02-14.1,33.02-31.5,33.02-31.5-14.79-31.5-33.02ZM25.85,230.86c0-18.65,14.43-33.77,32.21-33.77s32.23,15.12,32.23,33.77-14.43,33.77-32.23,33.77-32.21-15.12-32.21-33.77ZM27.67,331.05c0-18.23,14.1-33.01,31.5-33.01s31.5,14.78,31.5,33.01-14.1,33.02-31.5,33.02-31.5-14.78-31.5-33.02Z" fill="#fff"></path><path d="M70.17,147.52h0c4.09-3.4,6.71-8.65,6.71-14.54,0-.85-.06-1.69-.17-2.52h0s-11.65,4.58-11.65,4.58l5.11,12.48Z" fill="#fff"></path><path d="M67.79,351.68c3.88,0,8.12-2.74,8.12-7.37v-13.61c0-2.68-1.41-4.72-3.35-5.97-.65-.42-1.35-.75-2.08-.98h0v-6.1c0-3.92-1.89-7.38-4.76-9.42-1.72-1.22-3.8-1.94-6.05-1.94-5.99,0-10.83,5.09-10.83,11.36v6.1c-2.93.94-5.43,3.38-5.43,6.95v13.61c0,2.6,1.34,4.61,3.21,5.87,1.45.98,3.23,1.5,4.93,1.5h16.24ZM54.24,317.65c0-3.14,2.44-5.68,5.43-5.68s5.41,2.54,5.41,5.68v5.66h-10.84v-5.66Z" fill="#fff"></path><path d="M61.12,137.09l-3.93-10.31,15.06-6.32c-.81-.93-1.71-1.78-2.68-2.52-2.92-2.23-6.52-3.54-10.41-3.54-9.79,0-17.72,8.31-17.72,18.57,0,2.31.41,4.53,1.13,6.57l-7.82,6.84c2.27,4.53,5.66,8.37,9.79,11.08.59.39,1.2.75,1.82,1.09l6.53-8.21c1.95.77,4.05,1.2,6.27,1.2,2.57,0,5.01-.57,7.21-1.6l-5.25-12.85ZM52.93,132c.41-.15.84,0,1.1.34.26.35.27.83.04,1.2l-2.35,3.69,3.19-1.11c.4-.14.84,0,1.09.36.26.34.27.82.04,1.19l-2.34,3.69,3.18-1.11.62,1.95-5.91,2.07c-.39.14-.84,0-1.09-.36-.25-.34-.28-.83-.04-1.2l2.35-3.68-3.19,1.11c-.39.14-.83,0-1.09-.35-.25-.36-.27-.84-.03-1.2l2.34-3.69-3.18,1.12-.63-1.96,5.9-2.06Z" fill="#fff"></path><path d="M66.72,207.88c.25-.84-.11-1.73-.83-2.13-.1-.06-.21-.11-.33-.14-.92-.29-1.9.25-2.18,1.2l-11.39,38.36-2.57,8.67c-.24.83.11,1.71.82,2.12.1.06.21.11.33.14.93.29,1.91-.24,2.19-1.2l11.49-38.7,2.47-8.32Z" fill="#fff"></path><path d="M65.08,317.65c0-3.14-2.42-5.68-5.41-5.68s-5.43,2.54-5.43,5.68v5.66h10.84v-5.66Z" fill="#2bb4d2"></path><path d="M50.84,134.9l-2.34,3.69c-.24.36-.22.84.03,1.2.26.35.7.49,1.09.35l3.19-1.11-2.35,3.68c-.24.37-.21.86.04,1.2.25.35.7.5,1.09.36l5.91-2.07-.62-1.95-3.18,1.11,2.34-3.69c.23-.37.22-.85-.04-1.19-.25-.36-.69-.5-1.09-.36l-3.19,1.11,2.35-3.69c.23-.37.22-.85-.04-1.2-.26-.34-.69-.49-1.1-.34l-5.9,2.06.63,1.96,3.18-1.12Z" fill="#2bb4d2"></path><path d="M47.09,216.91c-.09-.09-.18-.16-.28-.23-.68-.46-1.6-.38-2.19.23l-12.22,12.67c-.34.36-.51.82-.51,1.28s.17.92.51,1.28l12.22,12.66c.08.09.18.16.27.23.68.47,1.59.39,2.2-.23.25-.26.41-.59.48-.94.1-.57-.05-1.18-.48-1.62l-10.99-11.38,10.99-11.38c.68-.71.68-1.86,0-2.57Z" fill="#fff"></path></g><path d="M349.09,244.27c18.38,20.99,26.01,42.56,18.61,55.42-7.17,12.45-28.11,16.38-54.49,11.39-2.87-.55-5.72-1.18-8.56-1.88-.64,2.23-1.31,4.4-2.02,6.48-9.01,26.41-23.89,43.8-38.73,43.81-14.36,0-28.22-16.18-37.07-41.52-.96-2.76-1.84-5.54-2.65-8.35-2.19.55-4.4,1.05-6.62,1.49-27.37,5.38-49.87,1.18-57.29-11.67-7.18-12.44-.08-32.53,17.45-52.86,1.96-2.27,4.06-4.56,6.28-6.84-1.88-1.95-3.72-3.94-5.5-5.98-17.97-20.62-25.49-41.05-18.3-53.54,7.51-13.03,30.32-16.86,58.65-11.05,1.76.37,3.51.76,5.26,1.19.75-2.59,1.56-5.17,2.43-7.72,8.89-25.86,22.83-42.58,37.24-42.59,15.04,0,29.75,17.85,38.86,45.29.57,1.71,1.1,3.42,1.6,5.15,2.61-.65,5.24-1.23,7.89-1.75,26.84-5.22,48.29-1.5,55.5,10.99,7.51,13.02-.6,34.68-19.82,56.28-1.02,1.14-2.07,2.29-3.16,3.43,1.55,1.61,3.04,3.22,4.44,4.83ZM358.83,294.59c2.12-5.45,1.89-11.53-.64-16.8-1.95-4.94-4.35-9.68-7.17-14.16-2.81-4.49-6.03-8.72-9.63-12.63-1.27-1.45-2.61-2.9-4.02-4.36-8.04,7.42-16.59,14.29-25.58,20.54-.82,10.79-2.37,21.52-4.64,32.1,2.72.68,5.38,1.26,7.96,1.75,22.56,4.26,39.37,1.11,43.72-6.44ZM340.17,229.21c16.59-18.65,23.23-36.35,18.6-44.37-4.35-7.52-21.69-10.53-44.69-6.06-2.38.47-4.81,1-7.29,1.61,2.33,10.45,3.95,21.05,4.86,31.72,9,6.14,17.58,12.89,25.66,20.2.99-1.04,1.94-2.07,2.86-3.1ZM312.58,253.97c6.06-4.51,11.88-9.34,17.44-14.46-5.58-5.04-11.42-9.79-17.49-14.22.21,4.81.32,9.63.33,14.45,0,4.75-.09,9.49-.28,14.23ZM301.95,261.54c.46-7.26.69-14.52.68-21.79,0-7.32-.26-14.63-.78-21.93-6.06-4.03-12.24-7.85-18.55-11.48-6.28-3.62-12.68-7.01-19.2-10.18-6.43,3.09-12.91,6.5-19.33,10.21-6.39,3.69-12.57,7.58-18.47,11.61-.53,7.13-.81,14.28-.81,21.43v.38c0,7.28.28,14.55.83,21.8,6.02,4.11,12.18,7.97,18.49,11.6,6.35,3.66,12.82,7.07,19.42,10.23,6.27-3.1,12.66-6.52,19.11-10.25,6.48-3.74,12.71-7.64,18.61-11.63ZM297.28,296.53c1.56-7.27,2.73-14.62,3.53-22.01-4.01,2.57-8.13,5.07-12.35,7.51-4.12,2.38-8.21,4.63-12.27,6.77,7.2,3.03,14.28,5.62,21.09,7.73ZM300.6,204.83c-.86-7.29-2.08-14.53-3.67-21.69-6.74,2.08-13.72,4.63-20.82,7.61,4.15,2.16,8.25,4.4,12.3,6.73,4.11,2.37,8.18,4.82,12.19,7.35ZM292.95,312.38c.66-1.96,1.28-3.93,1.85-5.92-10.41-3.23-20.6-7.14-30.5-11.71-9.81,4.71-19.92,8.74-30.28,12.08.75,2.61,1.57,5.2,2.46,7.76,7.57,21.68,18.7,34.67,27.42,34.67,2.88-.45,5.62-1.48,8.04-3,2.42-1.53,4.54-3.54,6.19-5.95,6.61-8.32,11.63-17.79,14.82-27.93ZM294.38,173.22c-.45-1.56-.94-3.11-1.45-4.66-7.86-23.69-19.88-38.28-29.14-38.28-8.69.01-19.96,13.53-27.58,35.69-.8,2.36-1.55,4.73-2.24,7.12,10.31,3.24,20.38,7.17,30.16,11.76,9.81-4.54,19.92-8.42,30.25-11.63ZM252.37,288.95c-4.28-2.2-8.5-4.49-12.66-6.89-4.08-2.35-8.11-4.8-12.08-7.34.98,7.77,2.27,15.22,3.85,22.19,7.09-2.3,14.07-4.95,20.89-7.96ZM252.13,190.7c-6.77-2.91-13.68-5.48-20.71-7.69-1.56,6.88-2.84,14.19-3.8,21.83,7.95-5.1,16.12-9.81,24.51-14.14ZM221.56,180.27c-1.62-.4-3.21-.76-4.77-1.08-24.46-5.02-43.1-1.89-47.72,6.13-4.34,7.53,1.75,24.04,17.14,41.71,1.66,1.9,3.37,3.76,5.12,5.57,7.95-7.29,16.36-14.07,25.18-20.27.97-10.79,2.66-21.5,5.05-32.06ZM215.59,301.07c2.03-.4,4.04-.85,6.04-1.35-2.41-10.7-4.11-21.55-5.1-32.47-8.85-6.22-17.27-13.02-25.22-20.35-2.01,2.06-3.96,4.18-5.85,6.36-14.99,17.39-20.69,33.52-16.33,41.07,3.66,4.56,9.03,7.4,14.86,7.86,10.51,1.57,21.22,1.19,31.6-1.12ZM215.26,239.79c0-4.71.11-9.41.32-14.11-6.1,4.61-11.78,9.34-16.93,14.08,5.15,4.77,10.83,9.51,16.95,14.14-.23-4.7-.34-9.4-.34-14.11Z" fill="#509fd6"></path><path d="M282.47,228.9c5.9,10.22,2.4,23.3-7.83,29.2-10.22,5.91-23.3,2.4-29.2-7.82-5.91-10.23-2.4-23.31,7.82-29.21,10.23-5.9,23.3-2.4,29.21,7.82h0Z" fill="#509fd6"></path></g></svg>