<?xml version="1.0" encoding="UTF-8"?>
<svg id="Layer_1" xmlns="http://www.w3.org/2000/svg" version="1.1" xmlns:xlink="http://www.w3.org/1999/xlink" viewBox="0 0 1144 720">
  <!-- Generator: Adobe Illustrator 29.8.2, SVG Export Plug-In . SVG Version: 2.1.1 Build 3)  -->
  <defs>
    <style>
      .st0 {
        fill: url(#linear-gradient2);
      }

      .st1 {
        fill: #426db5;
      }

      .st2 {
        fill: #3b8dc3;
      }

      .st3 {
        fill: #26ee21;
      }

      .st4 {
        fill: #426db5;
      }

      .st5 {
        fill: #ebe2e9;
      }

      .st6 {
        fill: #1065af;
      }

      .st7 {
        fill: #29b3d1;
      }

      .st8 {
        fill: #4d7bbd;
      }

      .st9, .st10 {
        fill: #fff;
      }

      .st11 {
        fill: url(#linear-gradient1);
      }

      .st12 {
        fill: #426db4;
      }

      .st13 {
        fill: #699bc1;
      }

      .st14 {
        fill: #4dc6e7;
      }

      .st15 {
        fill: #b6d1e6;
      }

      .st16 {
        fill: url(#linear-gradient3);
      }

      .st17 {
        fill: #a4b8c6;
      }

      .st18 {
        display: none;
      }

      .st19 {
        fill: #317eb3;
      }

      .st20 {
        fill: #92aad0;
      }

      .st21 {
        opacity: .1;
      }

      .st22 {
        fill: #090c0c;
      }

      .st23 {
        fill: #6d828e;
      }

      .st24 {
        fill: #79add2;
      }

      .st25 {
        fill: #b2747b;
      }

      .st26 {
        fill: url(#linear-gradient);
      }

      .st27 {
        fill: #c67f7c;
      }

      .st28 {
        fill: #343434;
      }

      .st10 {
        filter: url(#outer-glow-1);
      }

      .st29 {
        fill: #111620;
      }
    </style>
    <linearGradient id="linear-gradient" x1="0" y1="63.71" x2="1144" y2="63.71" gradientUnits="userSpaceOnUse">
      <stop offset="0" stop-color="#1a1a1b"/>
      <stop offset="1" stop-color="#1a1a1a"/>
    </linearGradient>
    <linearGradient id="linear-gradient1" x1="0" y1="405.261" x2="1144" y2="405.261" gradientUnits="userSpaceOnUse">
      <stop offset="0" stop-color="#426db4" stop-opacity=".2"/>
      <stop offset=".273" stop-color="#5492ca" stop-opacity=".14"/>
      <stop offset="1" stop-color="#7febff" stop-opacity="0"/>
    </linearGradient>
    <filter id="outer-glow-1" x="30" y="108" width="1153" height="651" filterUnits="userSpaceOnUse">
      <feOffset dx="0" dy="0"/>
      <feGaussianBlur result="blur" stdDeviation="13"/>
      <feFlood flood-color="#000" flood-opacity=".33"/>
      <feComposite in2="blur" operator="in"/>
      <feComposite in="SourceGraphic"/>
    </filter>
    <linearGradient id="linear-gradient2" x1="145.8" y1="20.11" x2="1115.747" y2="20.11" gradientTransform="translate(-1.689 7.527) scale(1.012 .774)" gradientUnits="userSpaceOnUse">
      <stop offset="0" stop-color="#4d4d4d"/>
      <stop offset="1" stop-color="#606060"/>
    </linearGradient>
    <linearGradient id="linear-gradient3" x1="16.723" y1="21.382" x2="33.462" y2="21.382" gradientUnits="userSpaceOnUse">
      <stop offset="0" stop-color="#4d80bd"/>
      <stop offset="1" stop-color="#4d7bbd" stop-opacity=".7"/>
    </linearGradient>
  </defs>
  <rect class="st26" y="36.899" width="1144" height="53.623"/>
  <path class="st28" d="M13,0h1118c7.175,0,13,5.825,13,13v31.692H0V13C0,5.825,5.825,0,13,0Z"/>
  <rect class="st11" y="90.522" width="1144" height="629.478"/>
  <path class="st10" d="M98.249,147.939h1045.724v572.061H69.988V176.2c0-15.598,12.663-28.261,28.261-28.261Z"/>
  <rect class="st0" x="145.923" y="13.013" width="982" height="20.143" rx="10.071" ry="10.071"/>
  <circle class="st8" cx="45.092" cy="21.382" r="8.369"/>
  <circle class="st16" cx="25.092" cy="21.382" r="8.369"/>
  <g class="st18">
    <path class="st14" d="M-210.794-1135.328c0-32.23-52.86-60.47-82.69-52.66l-328.93,52.7c-25.11,1.18-45.13,22.87-45.13,49.48v297.13c0,16.48,7.67,31.07,19.5,40.06v-.07c.03.03.06.06.1.08v-29.05s0-.5.08-1.32c.01-.14.02-.3.04-.48.12-1.29.43-3.45,1.25-5.79.08-.23.18-.46.26-.69.68-1.64,1.62-3.31,2.94-4.8.08-.09.16-.18.25-.27v-4.94c0-5.76,2.81-10.83,7.08-13.79v-22.66c-13.9-6.36-23.62-20.91-23.62-37.83s9.72-31.46,23.62-37.83v-23.38c-13.9-6.36-23.62-20.91-23.62-37.83s9.72-31.46,23.62-37.84v-23.37c-13.9-6.37-23.62-20.91-23.62-37.83,0-22.8,17.63-41.28,39.38-41.28,8.27,0,15.97,2.69,22.31,7.27H-233.104c6.34-4.58,14.03-7.27,22.31-7.27,21.75,0,39.38,18.48,39.38,41.28,0,16.92-9.72,31.46-23.63,37.83v23.37c13.91,6.38,23.63,20.91,23.63,37.84s-9.72,31.47-23.63,37.83v23.38c13.91,6.37,23.63,20.91,23.63,37.83s-9.72,31.47-23.63,37.83v22.66c4.28,2.96,7.09,8.03,7.09,13.79v3.03c.04.03.08.07.12.1.18.14.33.29.5.44,2.64,2.45,4.31,6.07,4.31,10.1v33.65c11.81-8.99,19.48-23.58,19.48-40.05v-297.13c0-27.35-21.15-49.52-47.25-49.52ZM-258.204-1134.928h-234.3l183.12-11.39c9.95-2.6,51.18-6.61,51.18,4.13v7.26Z"/>
    <polygon class="st7" points="-187.519 -1164.065 -187.749 -1168.825 -185.349 -1161.735 -183.769 -1161.735 -181.379 -1168.815 -181.609 -1164.065 -181.609 -1161.735 -179.229 -1161.735 -179.229 -1171.695 -182.359 -1171.695 -184.559 -1164.765 -186.769 -1171.695 -189.899 -1171.695 -189.899 -1161.735 -187.519 -1161.735 -187.519 -1164.065"/>
    <path class="st7" d="M-210.944-1034.888c17.4,0,31.5-14.79,31.5-33.02s-14.1-33.02-31.5-33.02-31.5,14.79-31.5,33.02,14.1,33.02,31.5,33.02ZM-226.634-1068.348c0-2.55.34-4.9,1.04-7.05.7-2.18,1.72-4.06,3.08-5.65,1.35-1.59,3.02-2.82,5.02-3.7,1.98-.9,4.27-1.36,6.88-1.36s4.93.46,6.92,1.36c1.005.44,1.928.968,2.769,1.585.841.617,1.6,1.323,2.276,2.119,1.36,1.59,2.39,3.47,3.08,5.65.7,2.15,1.05,4.5,1.05,7.05v.69c0,2.53-.35,4.88-1.05,7.05-.69,2.15-1.72,4.03-3.08,5.65-1.35,1.59-3.02,2.82-5,3.7-2,.89-4.29,1.33-6.9,1.33s-4.91-.44-6.92-1.33c-1.006-.44-1.929-.968-2.769-1.585-.841-.617-1.6-1.322-2.276-2.119-1.36-1.62-2.38-3.5-3.08-5.65-.7-2.17-1.04-4.52-1.04-7.05v-.69Z"/>
    <path class="st7" d="M-210.944-836.808c8.16,0,15.58-3.24,21.18-8.58,6.34-6.04,10.32-14.75,10.32-24.44s-3.98-18.4-10.32-24.43c-5.6-5.33-13.02-8.58-21.18-8.58-17.4,0-31.5,14.78-31.5,33.01s14.1,33.02,31.5,33.02ZM-227.874-890.268h10.8l.002.003h.003l6.407,13.653,6.398-13.656h10.77l-.002.003h.007l-10.92,20.38,11.22,20.69h-10.88l-.002-.003h-.003l-6.587-13.893-6.598,13.897h-10.9l.002-.003h-.007l11.26-20.69-10.97-20.38Z"/>
    <polygon class="st7" points="-196.279 -1161.735 -193.899 -1161.735 -193.899 -1169.835 -190.929 -1169.835 -190.929 -1171.695 -199.189 -1171.695 -199.189 -1169.835 -196.279 -1169.835 -196.279 -1161.735"/>
    <polygon class="st9" points="-216.899 -869.885 -228.157 -849.198 -228.159 -849.195 -217.259 -849.195 -210.66 -863.091 -210.659 -863.095 -204.07 -849.198 -204.069 -849.195 -193.189 -849.195 -204.409 -869.885 -193.489 -890.265 -193.495 -890.265 -204.259 -890.265 -210.659 -876.605 -210.662 -876.612 -217.069 -890.265 -217.072 -890.265 -227.869 -890.265 -216.899 -869.885"/>
    <path class="st9" d="M-210.609-1086.105c-2.61,0-4.9.46-6.88,1.36-2,.88-3.67,2.11-5.02,3.7-1.36,1.59-2.38,3.47-3.08,5.65-.7,2.15-1.04,4.5-1.04,7.05v.69c0,2.53.34,4.88,1.04,7.05.7,2.15,1.72,4.03,3.08,5.65.675.795,1.432,1.499,2.271,2.115.84.617,1.763,1.145,2.769,1.585,2.01.89,4.32,1.33,6.92,1.33s4.9-.44,6.9-1.33c1.98-.88,3.65-2.11,5-3.7,1.36-1.62,2.39-3.5,3.08-5.65.7-2.17,1.05-4.52,1.05-7.05v-.69c0-2.55-.35-4.9-1.05-7.05-.69-2.18-1.72-4.06-3.08-5.65-.676-.796-1.435-1.502-2.276-2.119-.839-.615-1.76-1.142-2.764-1.581-1.99-.9-4.3-1.36-6.92-1.36ZM-216.259-1068.345c0-1.26.09-2.45.27-3.57.19-1.14.49-2.14.93-3,.42-.89.99-1.57,1.71-2.06.74-.49,1.66-.74,2.74-.74,1.11,0,2.03.25,2.77.74.74.49,1.32,1.17,1.76,2.06.42.86.74,1.86.92,3,.19,1.12.28,2.31.28,3.57v.69c0,1.31-.09,2.53-.28,3.67-.18,1.14-.5,2.14-.92,3-.44.84-1.02,1.49-1.76,1.96-.72.48-1.62.72-2.71.72-1.1,0-2.03-.24-2.77-.72-.74-.47-1.32-1.12-1.74-1.96-.44-.86-.74-1.86-.93-3-.18-1.14-.27-2.36-.27-3.67v-.69Z"/>
    <path class="st9" d="M-223.259-989.485v42.257h9.065v-14.21s.003.003.005.005v-.002c.599.729,1.298,1.328,2.066,1.817,1.26.819,2.759,1.219,4.489,1.219,1.85,0,3.47-.39,4.87-1.16,1.43-.78,2.6-1.88,3.55-3.29.96-1.41,1.67-3.07,2.17-4.98.48-1.89.71-3.95.71-6.17v-.59c0-2.32-.23-4.43-.71-6.32-.5-1.9-1.22-3.53-2.19-4.88-.712-1.034-1.559-1.883-2.531-2.55-.324-.222-.662-.424-1.014-.606-1.4-.74-3.02-1.1-4.87-1.1-1.75,0-3.24.39-4.5,1.18-.89.57-1.68,1.3-2.37,2.19v-.008s-.004.003-.005.005l-.3-2.807h-8.435ZM-214.189-980.305c.08-.18.17-.35.27-.52.39-.64.91-1.11,1.55-1.41.67-.31,1.48-.47,2.46-.47.84,0,1.54.19,2.13.58.57.4,1.03.96,1.36,1.7.36.73.63,1.59.79,2.59.15.99.24,2.06.24,3.25v.59c0,1.14-.08,2.22-.22,3.22-.14.99-.38,1.88-.72,2.65-.35.75-.8,1.35-1.38,1.77-.57.42-1.28.63-2.15.63-1.3,0-2.31-.3-3.07-.91-.53-.42-.96-.97-1.26-1.63v-12.04Z"/>
    <path class="st7" d="M-215.059-1060.985c.42.84,1,1.49,1.74,1.96.74.48,1.67.72,2.77.72,1.09,0,1.99-.24,2.71-.72.74-.47,1.32-1.12,1.76-1.96.42-.86.74-1.86.92-3,.19-1.14.28-2.36.28-3.67v-.69c0-1.26-.09-2.45-.28-3.57-.18-1.14-.5-2.14-.92-3-.44-.89-1.02-1.57-1.76-2.06-.74-.49-1.66-.74-2.77-.74-1.08,0-2,.25-2.74.74-.72.49-1.29,1.17-1.71,2.06-.44.86-.74,1.86-.93,3-.18,1.12-.27,2.31-.27,3.57v.69c0,1.31.09,2.53.27,3.67.19,1.14.49,2.14.93,3Z"/>
    <path class="st7" d="M-209.859-965.725c.87,0,1.58-.21,2.15-.63.58-.42,1.03-1.02,1.38-1.77.34-.77.58-1.66.72-2.65.14-1,.22-2.08.22-3.22v-.59c0-1.19-.09-2.26-.24-3.25-.16-1-.43-1.86-.79-2.59-.33-.74-.79-1.3-1.36-1.7-.59-.39-1.29-.58-2.13-.58-.98,0-1.79.16-2.46.47-.64.3-1.16.77-1.55,1.41-.1.17-.19.34-.27.52v12.04c.3.66.73,1.21,1.26,1.63.76.61,1.77.91,3.07.91Z"/>
    <path class="st7" d="M-223.204-938.438c3.77,1.67,7.91,2.59,12.26,2.59,17.4,0,31.5-14.78,31.5-33.02s-14.1-33.02-31.5-33.02c-4.35,0-8.49.93-12.26,2.6-11.31,5.01-19.24,16.75-19.24,30.42s7.93,25.41,19.24,30.43ZM-223.264-989.488h8.44v.003s.3,2.807.3,2.807c.001-.002.003-.003.004-.005.689-.888,1.478-1.616,2.366-2.185,1.26-.79,2.75-1.18,4.5-1.18,1.85,0,3.47.36,4.87,1.1.354.183.693.386,1.019.61.973.668,1.82,1.516,2.531,2.55.97,1.35,1.69,2.98,2.19,4.88.48,1.89.71,4,.71,6.32v.59c0,2.22-.23,4.28-.71,6.17-.5,1.91-1.21,3.57-2.17,4.98-.95,1.41-2.12,2.51-3.55,3.29-1.4.77-3.02,1.16-4.87,1.16-1.729,0-3.229-.4-4.489-1.219,0,0,0,0-.001,0-.768-.489-1.466-1.087-2.065-1.815-.002-.002-.003-.003-.005-.005v14.21h-9.07v-42.26Z"/>
    <path class="st9" d="M-195.494-786.595h-92.216c-2.314,0-4.188,1.99-4.188,4.47v66.897h100.495v-67.05c0-.925-.274-1.782-.714-2.487-.763-1.106-1.984-1.829-3.377-1.829Z"/>
    <path class="st9" d="M-427.968-732.053c.484.571,1.051,1.08,1.685,1.505.09.08.2.15.32.22.33.2.69.38,1.06.53l87.37,36.18c4.01,1.67,8.52-.29,10.07-4.37l22.36-59.07c.95-2.49.55-5.21-.82-7.32-.028-.048-.065-.093-.096-.14-.082-.115-.165-.228-.252-.339-.074-.1-.162-.19-.241-.286-.795-.914-1.797-1.665-2.98-2.152l-87.367-36.19c-4.018-1.67-8.536.29-10.079,4.37l-22.353,59.07c-.867,2.287-.611,4.761.493,6.785.006.01.012.02.017.029.109.198.227.39.352.579.139.209.302.402.46.598ZM-338.25-736.564c1.533-4.08,6.052-6.03,10.059-4.37.529.219,1.02.491,1.475.804,3.186,2.031,4.63,6.12,3.246,9.745-1.533,4.08-6.042,6.04-10.069,4.37-.524-.218-1.013-.489-1.465-.801-3.176-2.03-4.63-6.12-3.246-9.748Z"/>
    <path class="st9" d="M-512.284-708.828c.09.08.2.14.32.21.75.45,1.57.78,2.47.97l48.86,10.23c4.5.94,8.88-2.1,9.79-6.81l19.57-102.22c.462-2.437-.095-4.852-1.376-6.729-.063-.088-.121-.18-.187-.266-.016-.022-.032-.043-.048-.064-.053-.067-.112-.129-.167-.195-.143-.182-.305-.348-.463-.518-1.109-1.133-2.529-1.961-4.162-2.306l-48.853-10.24c-4.499-.94-8.877,2.11-9.779,6.82l-17.493,91.32v4.62s0,4.58-2.174,9.1c.161,1.348.625,2.619,1.33,3.721.001.002.002.003.003.005,0,.002.002.003.003.004.126.197.279.374.421.56.55.688,1.19,1.294,1.936,1.786ZM-490.069-721.284c.912-4.7,5.29-7.75,9.789-6.8,1.122.235,2.146.698,3.037,1.333,2.815,1.868,4.396,5.413,3.708,9.036-.902,4.7-5.28,7.75-9.779,6.81-1.126-.235-2.152-.698-3.044-1.334-2.818-1.868-4.399-5.414-3.711-9.045Z"/>
    <path class="st9" d="M-525.945-785.305c-1.132-.61-2.365-.95-3.386-1.13-.491-.09-.892-.13-1.122-.15-.09-.01-.16-.01-.19-.01h-100.522c-2.725,0-4.218.7-5.05,1.29-.892.63-1.583,1.53-2.134,2.71-.561,1.21-.882,2.52-1.052,3.62-.09.52-.12.94-.15,1.18,0,.12,0,.18-.01.22v53.57c0,2.854.636,4.424,1.18,5.314.475.724,1.09,1.336,1.879,1.833.06.04.12.08.19.12.13.08.27.16.41.23,1.13.6,2.37.95,3.38,1.13.5.09.88.13,1.13.14.08.01.14.01.19.01h100.52c2.73,0,4.22-.69,5.05-1.28.47-.33.87-.74,1.24-1.22.05-.62.12-1.24.25-1.86l1.83-9.61v-48.61c0-2.9-.64-4.49-1.21-5.38-.014-.024-.034-.045-.049-.069-.073-.106-.147-.212-.228-.313-.077-.104-.172-.197-.257-.296-.512-.557-1.137-1.036-1.888-1.438Z"/>
    <path class="st7" d="M-296.329-688.394h108.988c6.943,0,12.574-6.01,12.574-13.41h-134.126c0,7.4,5.621,13.41,12.564,13.41Z"/>
    <path class="st7" d="M-187.333-792.378c-.17-.15-.32-.3-.5-.44-.04-.03-.08-.07-.12-.1-2.1-1.74-4.76-2.78-7.64-2.78h-92.23c-6.93,0-12.57,6.02-12.57,13.42v12.29c-1.64-2.09-3.82-3.78-6.42-4.85l-87.37-36.18c-8.04-3.33-17.07.58-20.15,8.74l-18.77,49.6,9.97-52.07c1.81-9.41-4.02-18.56-13.01-20.45l-52.88-10.24c-8.99-1.89-13.74,4.22-15.54,13.62l-9.34,48.8v-4.79c0-17.89-16.78-17.89-16.78-17.89h-100.59c-5.55,0-9.25,1.95-11.73,4.56-.04.04-.08.09-.12.13-.09.09-.17.18-.25.27-1.32,1.49-2.26,3.16-2.94,4.8-.08.23-.18.46-.26.69-.82,2.34-1.13,4.5-1.25,5.79-.02.18-.03.34-.04.48-.03.48-.03.76-.03.76v29.65c-.02-.01-.03-.02-.05-.04-.04-.02-.07-.05-.1-.08v24.53c0,17.88,16.77,17.88,16.77,17.88h33.54c0,5.96-.71,10.43-2.11,13.41h-6.29c-2.32,0-4.2,2-4.2,4.47h58.7c0-2.47-1.89-4.47-4.2-4.47h-6.27c-1.42-2.98-2.11-7.45-2.11-13.41h33.53c3.31,0,5.99-.7,8.12-1.82,2.25,4.48,6.34,7.89,11.44,8.96l48.86,10.25c9,1.88,17.75-4.23,19.55-13.64l5.76-30.06c1.41,4.45,4.68,8.28,9.25,10.17l87.37,36.18c8.05,3.34,17.06-.58,20.15-8.74l19.79-52.3v41h117.37v-76c0-4.03-1.67-7.65-4.31-10.1ZM-638.454-718.788c0-.01-.01-.01-.01-.02-.56-.88-1.2-2.46-1.2-5.35v-53.57c.01-.04.01-.1.01-.22.02-.24.06-.66.14-1.18.18-1.1.49-2.41,1.06-3.62.55-1.18,1.24-2.08,2.12-2.71.84-.59,2.33-1.29,5.06-1.29h100.52c.04,0,.11,0,.19.01.23.02.63.06,1.12.15,1.03.18,2.25.52,3.4,1.13.21.12.42.24.63.38.07.04.13.08.19.12.451.327.829.695,1.167,1.092.084.099.18.192.257.296.011.015.026.027.037.042.072.088.132.178.191.271.015.024.034.044.049.069.57.89,1.21,2.48,1.21,5.38v48.61l-1.83,9.61c-.13.62-.2,1.24-.25,1.86-.37.48-.77.89-1.24,1.22-.83.59-2.32,1.28-5.05,1.28h-100.52c-.05,0-.11,0-.19-.01-.25-.01-.63-.05-1.13-.14-1.01-.18-2.25-.53-3.38-1.13-.14-.07-.28-.15-.41-.23-.07-.04-.13-.08-.19-.12-.788-.496-1.404-1.109-1.879-1.833-.013-.02-.029-.037-.041-.057-.01-.01-.02-.03-.03-.04ZM-514.434-710.878c-.069-.089-.138-.188-.207-.296,0-.002-.002-.003-.003-.004-.001-.002-.002-.003-.003-.005-.768-1.129-1.267-2.457-1.437-3.875,2.18-4.52,2.18-9.1,2.18-9.1v-4.62l17.49-91.32c.89-4.71,5.27-7.76,9.77-6.82l48.86,10.24c1.02.22,1.96.62,2.79,1.18.551.358,1.032.802,1.478,1.279.158.169.32.336.463.518.04.05.09.092.128.143.013.017.026.034.039.052.016.021.032.042.048.064.041.056.082.112.123.164.023.033.041.068.064.101,1.282,1.877,1.838,4.292,1.376,6.729l-19.57,102.22c-.91,4.71-5.29,7.75-9.79,6.81l-48.86-10.23c-.9-.19-1.72-.52-2.47-.97-.12-.07-.23-.13-.32-.21-.746-.491-1.386-1.097-1.936-1.786-.032-.04-.072-.073-.104-.114-.04-.05-.08-.1-.11-.15ZM-428.534-732.808c-.09-.136-.165-.281-.247-.422-.006-.01-.012-.02-.017-.029-1.184-2.051-1.49-4.591-.596-6.939l22.35-59.07c1.54-4.08,6.05-6.04,10.08-4.37l87.37,36.19c.45.19.89.42,1.31.69.09.07.2.14.31.21.559.402,1.036.887,1.461,1.406.079.096.167.186.241.286.033.045.076.083.108.129.054.066.097.139.144.21.031.047.068.092.096.14,1.37,2.11,1.77,4.83.82,7.32l-22.36,59.07c-1.55,4.08-6.06,6.04-10.07,4.37l-87.37-36.18c-.37-.15-.73-.33-1.06-.53-.12-.07-.23-.14-.32-.22-.634-.425-1.201-.934-1.685-1.505-.158-.196-.321-.389-.46-.598-.002-.002-.004-.004-.005-.007-.04-.05-.07-.1-.1-.15ZM-292.014-782.278c0-2.48,1.88-4.47,4.19-4.47h92.23c.82,0,1.58.25,2.22.69.05.02.1.06.16.09.35.26.66.57.91.93.05.06.1.12.14.19.017.026.029.056.046.083.44.706.714,1.562.714,2.487v67.05h-100.61v-67.05Z"/>
    <path class="st7" d="M-335.003-726.816c.387.248.796.47,1.232.652,4.028,1.67,8.536-.29,10.069-4.37,1.35-3.537.01-7.518-3.013-9.596-.455-.313-.947-.585-1.475-.804-4.008-1.66-8.526.29-10.059,4.37-1.384,3.628.07,7.718,3.246,9.748Z"/>
    <path class="st7" d="M-486.358-712.239c.838.556,1.78.97,2.811,1.185,4.499.94,8.877-2.11,9.779-6.81.669-3.525-.804-6.982-3.475-8.887-.891-.635-1.915-1.098-3.037-1.333-4.499-.95-8.877,2.1-9.789,6.8-.687,3.631.893,7.177,3.711,9.045Z"/>
    <path class="st7" d="M-589.324-970.018c0-18.65-14.43-33.77-32.23-33.77s-32.21,15.12-32.21,33.77,14.43,33.77,32.21,33.77,32.23-15.12,32.23-33.77ZM-610.564-981.398c-.51-.53-.64-1.31-.38-1.97.08-.22.21-.43.38-.6.596-.613,1.514-.689,2.196-.227.098.066.192.143.279.231l12.21,12.67c.35.36.52.82.52,1.28s-.17.92-.52,1.28l-12.21,12.66c-.604.622-1.523.699-2.199.231-.097-.067-.19-.145-.276-.234-.68-.7-.68-1.86,0-2.56l10.98-11.38-10.98-11.38ZM-632.519-958.635c.43.44.58,1.05.48,1.62-.07.35-.23.68-.48.94-.604.622-1.523.699-2.199.231-.097-.067-.19-.145-.276-.234l-12.22-12.66c-.34-.36-.51-.82-.51-1.28s.17-.92.51-1.28l12.22-12.67c.596-.613,1.514-.689,2.196-.227.098.066.192.143.279.231.68.71.68,1.86,0,2.57l-10.99,11.38,10.99,11.38ZM-629.039-944.775c-.117-.037-.227-.086-.33-.145-.71-.402-1.07-1.287-.825-2.119l2.57-8.67,11.39-38.36c.28-.95,1.26-1.49,2.18-1.2.118.037.229.086.333.145.717.403,1.077,1.289.832,2.129l-2.47,8.32-11.49,38.7c-.28.96-1.26,1.49-2.19,1.2Z"/>
    <path class="st9" d="M-610.559-983.965c-.17.17-.3.38-.38.6-.26.66-.13,1.44.38,1.97l10.98,11.38-10.98,11.38c-.68.7-.68,1.86,0,2.56.084.088.175.165.271.231.676.468,1.595.391,2.199-.231l12.21-12.66c.35-.36.52-.82.52-1.28s-.17-.92-.52-1.28l-12.21-12.67c-.087-.088-.18-.165-.279-.231-.682-.458-1.597-.381-2.191.231Z"/>
    <path class="st7" d="M-588.944-1067.908c0-18.23-14.1-33.02-31.5-33.02s-31.5,14.79-31.5,33.02,14.1,33.02,31.5,33.02,31.5-14.79,31.5-33.02ZM-602.899-1070.425c.11.83.17,1.67.17,2.52,0,5.89-2.62,11.14-6.71,14.55l-.002-.006s-.002.002-.003.002l-5.11-12.49,11.65-4.58s0,.003,0,.005l.004-.002ZM-626.719-1050.535l-6.53,8.21c-.62-.341-1.227-.706-1.818-1.095-4.131-2.71-7.53-6.546-9.797-11.079l7.82-6.84c-.72-2.04-1.13-4.26-1.13-6.57,0-10.26,7.93-18.57,17.72-18.57,3.893,0,7.493,1.316,10.412,3.544.975.743,1.874,1.588,2.683,2.519l-15.06,6.32,3.93,10.31,5.25,12.85c-2.2,1.03-4.64,1.6-7.21,1.6-2.22,0-4.32-.43-6.27-1.2Z"/>
    <path class="st7" d="M-588.944-869.828c0-18.23-14.1-33.01-31.5-33.01s-31.5,14.78-31.5,33.01,14.1,33.02,31.5,33.02,31.5-14.78,31.5-33.02ZM-636.204-856.568v-13.61c0-3.57,2.5-6.01,5.43-6.95v-6.1c0-6.27,4.84-11.36,10.83-11.36,2.243,0,4.325.716,6.05,1.943,2.877,2.042,4.765,5.501,4.765,9.421v6.098c.733.235,1.438.565,2.084.982,1.939,1.25,3.346,3.292,3.346,5.97v13.61c0,4.63-4.24,7.37-8.12,7.37h-16.24c-1.708,0-3.48-.525-4.934-1.505-1.869-1.257-3.211-3.264-3.211-5.869Z"/>
    <path class="st9" d="M-631.274-795.698h100.59s16.78,0,16.78,17.89v4.79l9.34-48.8c1.8-9.4,6.55-15.51,15.54-13.62l52.88,10.24c8.99,1.89,14.82,11.04,13.01,20.45l-9.97,52.07,18.77-49.6c3.08-8.16,12.11-12.07,20.15-8.74l87.37,36.18c2.6,1.07,4.78,2.76,6.42,4.85v-12.29c0-7.4,5.64-13.42,12.57-13.42h92.23c2.88,0,5.54,1.04,7.64,2.78v-3.03c0-5.76-2.81-10.83-7.09-13.79v-22.66c13.91-6.36,23.63-20.91,23.63-37.83s-9.72-31.46-23.63-37.83v-23.38c13.91-6.36,23.63-20.91,23.63-37.83s-9.72-31.46-23.63-37.84v-23.37c13.91-6.37,23.63-20.91,23.63-37.83,0-22.8-17.63-41.28-39.38-41.28-8.28,0-15.97,2.69-22.31,7.27h-364.87c-6.34-4.58-14.04-7.27-22.31-7.27-21.75,0-39.38,18.48-39.38,41.28,0,16.92,9.72,31.46,23.62,37.83v23.37c-13.9,6.38-23.62,20.91-23.62,37.84s9.72,31.47,23.62,37.83v23.38c-13.9,6.37-23.62,20.91-23.62,37.83s9.72,31.47,23.62,37.83v22.66c-4.27,2.96-7.08,8.03-7.08,13.79v4.94c.04-.04.08-.09.12-.13,2.48-2.61,6.18-4.56,11.73-4.56ZM-210.944-1100.928c17.4,0,31.5,14.79,31.5,33.02s-14.1,33.02-31.5,33.02-31.5-14.79-31.5-33.02,14.1-33.02,31.5-33.02ZM-223.204-999.288c3.77-1.67,7.91-2.6,12.26-2.6,17.4,0,31.5,14.79,31.5,33.02s-14.1,33.02-31.5,33.02c-4.35,0-8.49-.92-12.26-2.59-11.31-5.02-19.24-16.75-19.24-30.43s7.93-25.41,19.24-30.42ZM-210.944-902.838c8.16,0,15.58,3.25,21.18,8.58,6.34,6.03,10.32,14.75,10.32,24.43s-3.98,18.4-10.32,24.44c-5.6,5.34-13.02,8.58-21.18,8.58-17.4,0-31.5-14.78-31.5-33.02s14.1-33.01,31.5-33.01ZM-651.944-1067.908c0-18.23,14.1-33.02,31.5-33.02s31.5,14.79,31.5,33.02-14.1,33.02-31.5,33.02-31.5-14.79-31.5-33.02ZM-653.764-970.018c0-18.65,14.43-33.77,32.21-33.77s32.23,15.12,32.23,33.77-14.43,33.77-32.23,33.77-32.21-15.12-32.21-33.77ZM-651.944-869.828c0-18.23,14.1-33.01,31.5-33.01s31.5,14.78,31.5,33.01-14.1,33.02-31.5,33.02-31.5-14.78-31.5-33.02Z"/>
    <path class="st9" d="M-609.441-1053.36l.002.006c4.09-3.41,6.71-8.66,6.71-14.55,0-.85-.06-1.69-.17-2.52l-.004.002-11.646,4.578,5.108,12.484Z"/>
    <path class="st9" d="M-611.819-849.195c3.88,0,8.12-2.74,8.12-7.37v-13.61c0-2.678-1.406-4.72-3.346-5.97-.646-.417-1.352-.745-2.084-.98v-6.1c0-3.92-1.888-7.379-4.765-9.421-1.724-1.224-3.804-1.939-6.045-1.939-5.99,0-10.83,5.09-10.83,11.36v6.1c-2.93.94-5.43,3.38-5.43,6.95v13.61c0,2.603,1.34,4.608,3.206,5.865,1.454.979,3.226,1.505,4.934,1.505h16.24ZM-625.369-883.225c0-3.14,2.44-5.68,5.43-5.68s5.41,2.54,5.41,5.68v5.66h-10.84v-5.66Z"/>
    <path class="st9" d="M-618.489-1063.785l-3.93-10.31,15.06-6.32c-.809-.931-1.708-1.776-2.683-2.519-2.919-2.226-6.517-3.541-10.407-3.541-9.79,0-17.72,8.31-17.72,18.57,0,2.31.41,4.53,1.13,6.57l-7.82,6.84c2.265,4.531,5.663,8.365,9.792,11.075.592.388,1.198.754,1.818,1.095l6.53-8.21c1.95.77,4.05,1.2,6.27,1.2,2.57,0,5.01-.57,7.21-1.6l-5.25-12.85ZM-626.679-1068.875c.41-.15.84,0,1.1.34.26.35.27.83.04,1.2l-2.35,3.69,3.19-1.11c.4-.14.84,0,1.09.36.26.34.27.82.04,1.19l-2.34,3.69,3.18-1.11.62,1.95-5.91,2.07c-.39.14-.84-.01-1.09-.36-.25-.34-.28-.83-.04-1.2l2.35-3.68-3.19,1.11c-.39.14-.83,0-1.09-.35-.25-.36-.27-.84-.03-1.2l2.34-3.69-3.18,1.12-.63-1.96,5.9-2.06Z"/>
    <path class="st9" d="M-612.889-992.995c.245-.84-.115-1.726-.832-2.129-.102-.057-.212-.105-.328-.141-.92-.29-1.9.25-2.18,1.2l-11.39,38.36-2.57,8.67c-.244.829.114,1.711.82,2.115.103.059.213.108.33.145.93.29,1.91-.24,2.19-1.2l11.49-38.7,2.47-8.32Z"/>
    <path class="st7" d="M-614.529-883.225c0-3.14-2.42-5.68-5.41-5.68s-5.43,2.54-5.43,5.68v5.66h10.84v-5.66Z"/>
    <path class="st7" d="M-628.769-1065.975l-2.34,3.69c-.24.36-.22.84.03,1.2.26.35.7.49,1.09.35l3.19-1.11-2.35,3.68c-.24.37-.21.86.04,1.2.25.35.7.5,1.09.36l5.91-2.07-.62-1.95-3.18,1.11,2.34-3.69c.23-.37.22-.85-.04-1.19-.25-.36-.69-.5-1.09-.36l-3.19,1.11,2.35-3.69c.23-.37.22-.85-.04-1.2-.26-.34-.69-.49-1.1-.34l-5.9,2.06.63,1.96,3.18-1.12Z"/>
    <path class="st9" d="M-632.519-983.965c-.087-.088-.18-.165-.279-.231-.682-.458-1.597-.381-2.191.231l-12.22,12.67c-.34.36-.51.82-.51,1.28s.17.92.51,1.28l12.22,12.66c.084.088.175.165.271.231.676.468,1.595.391,2.199-.231.25-.26.41-.59.48-.94.1-.57-.05-1.18-.48-1.62l-10.99-11.38,10.99-11.38c.68-.71.68-1.86,0-2.57Z"/>
  </g>
  <g id="background_splash">
    <g id="Generative_Object" class="st21">
      <path class="st22" d="M378.149,492.301c-.513,4.786,3.037,10.942,3.86,14.956,6.551,31.98,14.088,71.712,23.158,108.071,1.239,4.966,7.563,20.389,7.719,22.193.38,4.374-.789,8.363-5.79,6.272-9.959-18.397-20.814-38.696-28.948-57.895-5.81-13.714-10.331-28.593-14.474-42.939l-1.93-.482c-1.674.24-4.242,4.958-4.825,6.272-2.731,6.161-6.411,19.889-8.684,27.018-6.935,21.745-11.979,44.434-17.369,66.58l-6.754-.965c2.206-13.531,1.731-27.483,2.895-41.009.695-8.077,2.316-16.118,2.895-24.123.925-12.792,2.507-23.247,2.895-36.667.037-1.277-.024-2.582,0-3.86s-.015-2.581,0-3.86c.084-7.278-3.139-29.858.965-33.772,3.897-3.718,33.151-.174,44.386-5.79Z"/>
      <path class="st2" d="M302.885,452.739c2.518-.597,15.02-.784,15.439,3.86-.15.214.084,1.328,0,1.93-5.261-1.043-6.624-1.005-9.649,4.342-.013,1.422,4.551,5.973,5.79,6.272-4.497,9.646-.266,39.36,15.439,27.983l3.86.965c-4.104,3.915-.881,26.494-.965,33.772l-96.01-91.668c-1.372-.301-5.042,1.392-5.307,2.412-1.484,5.714,44.509,36.605,50.658,41.974,17.122,14.949,32.107,36.709,50.658,51.141-.024,1.278.037,2.583,0,3.86-7.215-9.716-15.227-.73-22.193-4.825-5.345-3.142-1.463-15.046-3.377-16.404-.969-.687-19.185.948-22.676-4.825-.947-1.406-3.994-5.923-4.825-6.754,5.807-13.633-16.127-10.466-25.088-13.026,9.132-22.336-11.016-17.424-23.641-24.605-14.227-8.094-27.815-37.379-7.719-46.316,9.643-4.288,18.022.426,26.053,5.79,5.068,3.385,15.238,17.106,16.404,17.369,1.495.337,11.881-4.932,12.544-4.825,4.286.693,4.35,13.897,6.272,16.886,5.817,9.046,13.627-4.191,18.334-5.307Z"/>
      <path class="st22" d="M1061.313,549.231c.616,23.422-3.379,50.763-2.895,74.781.099,4.92,4.286,15.849.965,18.334-1.73-12.313,2.084-18.834-12.062-21.711l-1.447,2.412c2.072,6.932,3.76,14.499,2.412,21.711l-8.684-44.386c-1.504,3.54-8.519,43.436-10.614,42.457l3.377-19.781-10.132-1.447c-3.878,1.389,3.622,20.621-3.377,19.781l.965-90.22c7.932,3.759,32.88,1.9,41.492-1.93Z"/>
      <path class="st15" d="M1059.383,447.914c-1.195-7.646-4.366-16.872-11.097-21.228-4.739-3.067-15.17-5.078-20.263-2.895-4.777,2.048-12.996,38.722-8.684,45.351.461.364,10.447-3.454,11.097-3.86l1.93,1.93c-7.584.637-34.771,17.216-42.457,22.193-.345.223-3.717.826-3.86.965-1.432-.612-2.614-2.026-3.86-2.895,7.955-9.035-5-36.252,7.237-38.597,5.405-1.036,16.05,7.835,20.263,5.79,4.978-2.417-2.981-20.939-1.447-25.57,16.298,3.708,11.56-4.815,17.369-14.474,21.735-36.144,56.408,6.265,33.772,33.29Z"/>
      <path class="st15" d="M978.33,496.16c.393.516-1.59,1.481-.965,2.412,1.696,2.528,6.277,5.292,7.719,7.719.797,1.342-3.735,1.967-1.447,3.377,2.66,1.64,12.177-.04,14.956,4.825-7.853,1.787-14.298.778-20.263,3.377,4.634,26.505-1.057,16.058-16.886,18.816-6.323,1.102-12.271,8.818-18.816,9.649.006-1.278-.007-2.582,0-3.86l35.702-46.316Z"/>
      <path class="st22" d="M1059.383,447.914c.602,3.849-.2,9.325,0,13.509l-.965.965c-21.549,3.578-2.06-11.58-6.754-17.851-2.312-3.582-3.666,1.039-5.307.482-1.447-.491-2.467-13.807-13.509-12.544-8.297.949-7.139,14.689-5.307,20.746,2.085,6.893,10.508,7.302,2.895,12.062-.649.406-10.636,4.224-11.097,3.86-4.312-6.629,3.908-43.304,8.684-45.351,5.094-2.183,15.524-.173,20.263,2.895,6.731,4.356,9.901,13.582,11.097,21.228Z"/>
      <path class="st15" d="M859.645,397.738c-1.206,1.712-3.607,6.003-5.307,6.754-4.931,2.18-5.275-1.154-9.167-2.895.496-3.225,2.45-5.877,3.86-8.684,5.06-10.08,14.708-31.936,29.43-27.018,11.643,3.89,2.512,22.653-.965,23.158-.839.122-7.093-3.772-10.614-2.895-3.717.926-5.922,9.713-7.237,11.579Z"/>
      <path class="st23" d="M1058.418,462.388l.965-.965c.005.099,1.894-.31,1.93.482-1.638,2.462-1.973.329-2.895.482Z"/>
      <path class="st15" d="M947.452,476.862c.153.139-.662,2.155,1.447,3.86,2.961,2.392,21.497,13.084,21.711,15.921-7.435,6.668-14.309,25.009-20.263,30.877-2.732,2.693-4.294,2.68-7.719,1.447.132-17.827.071-35.759,0-53.553.834-1.741,4.113.799,4.825,1.447Z"/>
      <path class="st9" d="M978.33,496.16l-35.702,46.316c.025-4.49-.033-9.019,0-13.509,3.425,1.233,4.987,1.246,7.719-1.447,5.954-5.869,12.828-24.21,20.263-30.877-.214-2.837-18.75-13.53-21.711-15.921-2.11-1.704-1.294-3.72-1.447-3.86,1.626.501,4.492-2.941,5.307-2.895,1.69.097,23.485,19.455,25.57,22.193Z"/>
      <g>
        <path class="st22" d="M849.03,392.914c-1.409,2.808-3.364,5.459-3.86,8.684-1.294-.579-5.848.797-6.754-.482-6.473-9.136,13.66-71.394-16.886-72.852h-387.898c-7.107,1.76-12.16,4.562-15.921,11.097l-.965,224.827c3.104,10.069,11.06,13.818,20.746,15.921h335.793c-.326,5.433,7.059,3.911,8.202,6.272.842,1.74-1.026,3.848-.965,4.342h-96.01l11.579,50.176-137.019.965,11.579-51.141h-147.633c-9.736-2.851-15.448-6.784-16.886-17.369.51-63.336-.681-126.757,0-190.09.155-14.374-2.343-42.064,0-54.518,1.387-7.373,9.194-12.929,15.921-14.956h411.057c27.663,4.696,11.67,59.21,15.921,79.124Z"/>
        <path class="st9" d="M627.581,594.582c10.867-.072,13.551,14.769,4.825,17.369-15.706,4.679-19.168-17.274-4.825-17.369Z"/>
      </g>
      <path class="st27" d="M356.921,436.335c1.353.445,2.329,1.122,4.825,1.93.065.021-.373.513.965.965,7.025,2.374,13.924,5.49,21.228,7.237.073,8.368,2.804,17.373,2.895,25.57.089,8.067.426,14.5-6.754,19.298-.09.06-1.378.689-1.93.965-11.235,5.615-40.489,2.072-44.386,5.79l-3.86-.965c2.294-1.662,7.153-13.952,6.754-16.886-.129-.948-9.279-14.353-10.614-15.921-3.004-3.528-1.05-4.468-7.719-5.79.084-.602-.15-1.716,0-1.93,1.094-1.561,18.37-14.489,21.228-16.404,2.018-1.352,4.513-4.685,4.825-4.825,4.361-1.961,8.388-.4,12.544.965Z"/>
      <path class="st9" d="M377.184,409.318c-6.424,7.181-.157,3.12,2.412,4.825,2.568,1.704-.219,2.418.482,3.86,5.057,10.39,2.149,24.483,2.895,25.57,1.06,1.545,7.619-2.211,6.754,7.719-.084.967-2.905,3.619-2.895,3.86.08,1.923,14.831,10.841,0,16.886-.09-8.197-2.822-17.203-2.895-25.57-7.304-1.747-14.203-4.863-21.228-7.237,1.264-1.041,1.193-1.782,2.895-2.895,2.639-1.726,5.36-1.662,6.754-5.307-.335-1.588-6.48,3.118-6.754,3.377-5.669-1.084-3.727-2.984-6.272-6.754l2.412,10.614c-2.495-.808-3.471-1.485-4.825-1.93-4.641-6.668-3.44-15.206-4.825-23.158-.054-.312.069-.661,0-.965,3.7-.448,9.115.508,12.544,0-2.12,8.99,6.725,3.796,7.719-1.93,1.813-.156.748-2.198,4.825-.965Z"/>
      <path class="st22" d="M356.921,436.335c-4.156-1.365-8.183-2.926-12.544-.965-.702-4.499-1.211-9.007-1.93-13.509-.328-2.053.383-4.789,0-6.754h.965c1.529-.182,3.408.271,4.825,0,1.106-.212,2.657-1.601,3.86-1.93,1.385,7.953.184,16.49,4.825,23.158Z"/>
      <g>
        <path class="st15" d="M406.132,383.265c-.681,63.332.51,126.753,0,190.09l-15.439-28.948c-3.89-17.592-6.988-35.421-10.614-53.071,7.181-4.798,6.843-11.232,6.754-19.298,14.831-6.045.08-14.963,0-16.886-.01-.241,2.811-2.893,2.895-3.86.864-9.93-5.695-6.174-6.754-7.719-.746-1.088,2.162-15.181-2.895-25.57,7.159-5.378,3.181-6.846-2.895-8.684-4.077-1.233-3.012.809-4.825.965-4.355.375-5.984,1.673-7.719,1.93-3.429.508-8.844-.448-12.544,0-.393-1.729.636-4.149-.482-5.79-.883-1.295-9.619-3.772-11.579-2.895-5.291,2.367,2.142,10.194,2.412,11.579.383,1.966-.328,4.702,0,6.754l-1.447,4.825c-17.392-25.92-25.704-57.024-41.974-83.466,3.109,12.377,9.53,23.615,13.509,35.702,3.732,11.337,4.572,24.924,9.649,35.702,4.641,9.853,16.282,14.933,17.369,25.57-2.858,1.915-20.134,14.843-21.228,16.404-.419-4.644-12.921-4.457-15.439-3.86.701-8.462,2.786-13.906.965-22.676-2.785-13.41-23.346-26.862-18.334-39.562,1.552-3.931,8.934-4.189,8.684-9.649-.253-5.527-17.851-13.744-19.298-27.018-4.034-36.998,41.058-46.188,54.036-16.404,2.605,5.979,5.484,28.687,12.062,30.395,3.467.9,16.25-6.917,22.193-7.719,33.252-4.488,32.51,10,35.702,37.632,1.213-4.829.402-13.379,7.237-14.474Z"/>
        <path class="st9" d="M342.447,421.862c.719,4.501,1.228,9.01,1.93,13.509-.311.14-2.806,3.472-4.825,4.825-1.086-10.638-12.727-15.717-17.369-25.57-5.077-10.778-5.917-24.365-9.649-35.702-3.979-12.087-10.399-23.326-13.509-35.702,16.27,26.442,24.582,57.545,41.974,83.466l1.447-4.825Z"/>
        <path class="st19" d="M352.096,412.212c.069.304-.054.653,0,.965-1.202.328-2.754,1.718-3.86,1.93,1.578-9.175-8.69-10.67-4.825,0h-.965c-.27-1.385-7.704-9.212-2.412-11.579,1.96-.877,10.696,1.6,11.579,2.895,1.119,1.641.09,4.06.482,5.79Z"/>
        <path class="st9" d="M369.947,377.475c4.229.617-6.71,16.594-5.79,20.263-2.33-3.091,3.161-20.647,5.79-20.263Z"/>
        <path class="st25" d="M389.245,477.827l6.272,6.272c.032,1.921-6.455,4.491-7.719,2.895l1.447-9.167Z"/>
        <path class="st1" d="M380.079,418.002c-.702-1.442,2.085-2.156-.482-3.86-2.57-1.705-8.837,2.356-2.412-4.825,6.076,1.838,10.054,3.306,2.895,8.684Z"/>
        <path class="st22" d="M372.359,410.282c-.995,5.726-9.84,10.92-7.719,1.93,1.735-.257,3.364-1.555,7.719-1.93Z"/>
        <path class="st29" d="M367.052,401.598l9.167,3.377c-1.34,1.514-13.091-1.795-9.167-3.377Z"/>
        <path class="st9" d="M399.86,399.668c.728.906,4.846,5.55,2.895,6.754-3.122.972-4.033-6.068-2.895-6.754Z"/>
      </g>
      <g>
        <path class="st15" d="M279.727,506.775c.831.832,3.878,5.348,4.825,6.754,2.965,4.402,6.714,15.854,8.684,18.816,3.592,5.399,13.72,9.948,17.369,2.412,6.966,4.094,14.978-4.891,22.193,4.825-.388,13.42-1.969,23.875-2.895,36.667-3.76.794-12.612,1.923-15.921.965-3.62-1.048-4.088-6.743-5.79-6.754-1.305-.008-10.907,12.715-23.158,9.649-6.834-1.71-7.972-11.3-8.684-11.579-6.557-2.567-23.492,4.398-29.913,7.719-2.398-29.977-17.775-15.16-36.667-20.263-17.428-4.707-36.548-31.061-23.641-47.764,9.989-12.926,31.313-1.89,42.939,4.342,1.308.701,5.141,5.75,5.79,5.79,1.285.078,10.189-7.985,10.614-10.614,3.827.47,8.433,12.162,9.649,12.544,12.516,3.931,10.099-28.028,24.605-13.509Z"/>
        <path class="st9" d="M204.945,523.178c2.694-.5,41.649,22.013,49.211,24.123,10.031,2.799,31.945,7.674,42.457,9.649,2.995.563,33.696-.1,31.36,5.307-9.534-2.352-19.921-.762-29.43-2.412-8.475-1.47-16.809-5.893-25.088-7.719-6.67-1.471-17.202-1.297-23.158-2.895-5.516-1.479-39.459-14.492-44.386-18.334-2.731-2.129-7.07-6.586-.965-7.719Z"/>
      </g>
      <path class="st9" d="M310.604,534.757c-3.649,7.535-13.776,2.987-17.369-2.412-1.971-2.962-5.719-14.414-8.684-18.816,3.491,5.773,21.706,4.137,22.676,4.825,1.914,1.357-1.968,13.262,3.377,16.404Z"/>
      <path class="st9" d="M378.149,585.898c8.134,19.2,18.988,39.498,28.948,57.895.074.73-1.223,4.71-1.447,4.825-2.834,1.452-59.11.878-63.685,0-.691-.133-7.919-3.667-8.202-4.342l20.263-75.746c-.162,9.473,15.361,18.823,24.123,17.369Z"/>
      <path class="st15" d="M378.149,585.898c-8.762,1.454-24.285-7.896-24.123-17.369.122-7.121,6.734-18.538,7.719-26.053l1.93.482c4.143,14.346,8.664,29.225,14.474,42.939Z"/>
      <path class="st9" d="M332.798,531.863c-.015,1.278.024,2.582,0,3.86-18.551-14.432-33.536-36.192-50.658-51.141-6.149-5.369-52.143-36.26-50.658-41.974.265-1.02,3.935-2.713,5.307-2.412l96.01,91.668Z"/>
      <path class="st24" d="M329.903,497.125c-15.705,11.377-19.936-18.336-15.439-27.983,4.147,1.001,8.979-1.453,11.579-4.825,1.335,1.568,10.485,14.973,10.614,15.921.399,2.934-4.461,15.224-6.754,16.886Z"/>
      <path class="st9" d="M318.324,458.529c6.67,1.322,4.716,2.262,7.719,5.79-2.6,3.372-7.432,5.825-11.579,4.825-1.238-.299-5.802-4.85-5.79-6.272,3.025-5.347,4.388-5.385,9.649-4.342Z"/>
      <g>
        <path class="st22" d="M380.079,491.336c3.627,17.65,6.724,35.479,10.614,53.071,7.394,33.435,17.112,66.33,24.123,99.869l7.237,4.342h88.773c1.499-.608,1.453-5.581,5.79-6.754,5.341-1.445,31.087-.152,38.597,0,46.237.934,94.579,2.928,141.843,1.93,7.698-.163,27.918-4.398,36.667-1.93,4.704,1.327,2.533,5.722,4.825,6.754h272.108c5.325-9.73,9.813-3.3,14.474-2.895,2.463.214,5.744-2.378,7.719-1.93,2.577.585-.335,4.02,1.93,4.825,5.95,2.113,8.666-3.727,9.649-3.86,1.982-.267,4.413,2.968,5.79,2.895,2.622-.14,11.73-5.175,13.509-3.86,1.043.771-.354,3.749,1.93,4.825,4.407,2.076,29.921-1.904,36.667,0,1.571.443,1.554,2.102,0,2.895l-952.377-.965,180.44-2.895.965-1.93c-3.304-.291-8.416-.64-9.167-4.342-1.552-7.658,5.168-31.644,4.825-41.009-1.163,13.526-.689,27.478-2.895,41.009l6.754.965c5.389-22.146,10.434-44.834,17.369-66.58,2.274-7.129,5.953-20.857,8.684-27.018.583-1.314,3.151-6.032,4.825-6.272-.985,7.514-7.597,18.931-7.719,26.053l-20.263,75.746c.283.675,7.51,4.209,8.202,4.342,4.575.878,60.851,1.452,63.685,0,.224-.115,1.522-4.095,1.447-4.825,5,2.091,6.17-1.898,5.79-6.272-.157-1.804-6.481-17.227-7.719-22.193-9.07-36.359-16.607-76.091-23.158-108.071-.822-4.014-4.373-10.17-3.86-14.956.552-.276,1.84-.905,1.93-.965Z"/>
        <path class="st5" d="M412.404,645.723c.107-.012,1.949,1.408.965,1.93-2.484,1.317-2.785-1.723-.965-1.93Z"/>
      </g>
      <g>
        <path class="st2" d="M366.087,266.509c41.148-4.612,44.637,56.522,8.684,60.79-41.767,4.958-45.271-56.689-8.684-60.79Z"/>
        <path class="st9" d="M368.017,279.053c24.803-2.419,23.103,35.028,5.79,34.737-9.8-.165,4.933-6.005,5.307-7.237.656-2.161-2.68-4.786-1.93-6.754.573-1.506,11.839-2.426,2.412-12.062-.393-.402-9.087-5.807-9.649-5.79-.719.023-10.817,8.459-11.097,9.167-2.67,6.755,3.18,5.141,3.86,6.754.732,1.739-3.105,5.43-1.93,8.684,1.038,2.876,12.011,2.861,7.237,7.237-19.66-2.148-19.124-32.872,0-34.737Z"/>
        <path class="st9" d="M368.017,296.422c5.675-2.117,8.507,6.087,4.825,7.719-7.552,3.348-9.223-6.079-4.825-7.719Z"/>
      </g>
      <g>
        <path class="st2" d="M605.388,235.632c34.632-6.739,37.536,42.705,8.684,45.351-29.875,2.74-32.177-40.78-8.684-45.351Z"/>
        <path class="st9" d="M611.177,248.176c2.911-.048,5.461.668,8.202,1.447l-.482,15.921c-9.057-1.3-16.949-4.228-15.921-14.956.501-1.096,7.284-2.397,8.202-2.412Z"/>
      </g>
      <g>
        <path class="st2" d="M821.53,235.632c37.251-7.103,37.819,51.171,0,44.386-21.639-3.882-20.675-40.444,0-44.386Z"/>
        <path class="st9" d="M836.004,248.176c2.715-.477,3.701.539,5.307,2.412,2.477,3.272-11.875,18.538-13.026,18.816-10.409,2.517-27.907-38.988-.965-10.614,2.953-2.045,4.944-9.958,8.684-10.614Z"/>
      </g>
      <path class="st22" d="M365.605,434.405c-.122.115.069,1.313,0,1.93-1.702,1.113-1.631,1.853-2.895,2.895-1.337-.452-.9-.944-.965-.965l-2.412-10.614c2.545,3.771.603,5.671,6.272,6.754Z"/>
      <path class="st17" d="M365.605,436.335c.069-.617-.122-1.815,0-1.93.274-.259,6.42-4.965,6.754-3.377-1.395,3.645-4.115,3.581-6.754,5.307Z"/>
      <path class="st9" d="M348.236,415.107c-1.417.271-3.296-.182-4.825,0-3.865-10.67,6.402-9.175,4.825,0Z"/>
      <g>
        <path class="st2" d="M681.617,214.403c4.721-1.039,62.569-1.015,67.544,0,4.175.852,10.23,6.769,11.097,11.097.825,4.115.852,47.264,0,51.141s-8.086,10.308-12.062,11.097c-6.867,1.363-64.901.361-69.474-1.93-2.51-1.258-7.638-8.177-8.202-11.097-1.206-6.246-.401-48.566,1.93-53.071.882-1.705,7.32-6.83,9.167-7.237Z"/>
        <g>
          <path class="st9" d="M683.546,226.947c.928-.028,2.815-.345,3.377.482,1.274,3.273,1.634,20.063,3.377,20.746,8.963,3.512.946-20.534,1.93-21.228,11.452,2.307,39.837-3.068,49.211,0,4.203,1.376,4.821,35.284,3.377,39.079-1.57,4.128-43.303,2.633-49.693,3.377-3.782-20.341-11.971-12.509-4.342,2.412l-11.097-1.447-.482-41.009c1.024-.187,4.094-2.405,4.342-2.412Z"/>
          <path class="st24" d="M737.582,230.807c2.401,10.109,2.401,23.663,0,33.772-.803-11.191-.803-22.58,0-33.772Z"/>
          <path class="st8" d="M702.845,248.176c6.536-2.155,6.745,7.654,1.93,7.719-3.795.052-5.583-6.515-1.93-7.719Z"/>
        </g>
      </g>
      <g>
        <path class="st2" d="M488.632,221.158c9.31-1.42,49.517-1.455,55.483,5.307,10.431,11.822,10.736,57.252-11.097,61.273-7.471,1.376-49.598.576-55.001-2.895-14.957-9.609-13.141-60.062,10.614-63.685Z"/>
        <path class="st24" d="M514.203,234.667c-2.803,6.397-2.769,17.064-2.895,24.123l-2.412,4.825-2.412-3.86c-.126-3.52-1.561-12.385-4.825-13.509-4.122-15.483,2.756-11.269,12.544-11.579Z"/>
        <g>
          <path class="st9" d="M511.308,258.79c.125-7.059.092-17.726,2.895-24.123,8.217-.261,16.352-.018,24.605,0,4.8,3.743-2.177,6.827-2.412,8.202-.671,3.926.965,25.509-.482,26.535h-24.123c-1.401-.403-.517-8.685-.482-10.614Z"/>
          <path class="st2" d="M517.58,247.211c18.05-7.252,18.277,23.236,2.895,19.298-5.601-1.434-6.613-17.804-2.895-19.298Z"/>
          <path class="st2" d="M522.405,239.491c5.391-1.456,18.173,1.002,8.684,5.79l.482-4.342c-1.555-.717-1.668,4.439-3.377,3.377-1.234-.767.684-4.112-1.93-3.86l-.965,3.86-1.93-2.895-3.86,2.895c-.125-1.108,2.545-4.73,2.895-4.825Z"/>
          <polygon class="st2" points="515.65 235.632 517.58 236.597 516.615 244.316 515.65 235.632"/>
        </g>
        <g>
          <path class="st9" d="M501.659,246.246c3.264,1.124,4.699,9.989,4.825,13.509.041,1.15.98,5.535.482,5.79-5.984,2.547-9.106-3.03-9.649-2.895-.765.19-.013,3.08-1.93,3.86-1.443.587-14.478-2.279-14.956-3.377-3.634-8.336,3.312-9.567,3.86-10.614.912-1.743-1.849-5.354.482-6.272.786-.309,16.088-.275,16.886,0Z"/>
          <path class="st2" d="M499.246,248.176c5.225,1.48-3.91,10.134-6.272,4.342-1.301-3.19,5.859-4.459,6.272-4.342Z"/>
        </g>
      </g>
      <g>
        <path class="st2" d="M914.163,269.404c41.956-3.413,42.601,58.028,5.79,60.79-39.213,2.943-42.607-57.795-5.79-60.79Z"/>
        <g>
          <path class="st9" d="M915.128,280.983c10.995-1.635,21.848,6.697,21.711,17.851-.018,1.454-2.867,2.692-2.895,2.895-.245,1.773,2.41,2.349,1.93,3.86-6.893,21.686-38.77,13.691-34.737-10.614.966-5.82,7.975-13.097,13.991-13.991Z"/>
          <path class="st2" d="M926.707,286.773c4.92-.991,8.845,5.468,8.202,10.132-4.288-2.615-1.414,1.102-6.272,1.447-2.868.204-15.067-5.842-4.342,6.272-11.012,6.626-18.375-1.402-18.334-12.544,1.214-3.322,8.849,6.093,12.062,5.307.693-.17,5.674-10.008,8.684-10.614Z"/>
        </g>
      </g>
      <g>
        <path class="st2" d="M845.171,401.598c3.892,1.741,4.235,5.075,9.167,2.895,1.7-.752,4.101-5.043,5.307-6.754,12.421-18.864,9.189-5.575,16.886,0,.957.693,20.136,8.008,21.228,7.719,4.973-1.317,2.545-20.106,4.342-24.605,1.38-2.411,16.165,1.949,16.886,1.447.564-.392,2.526-9.962,4.342-13.026,31.872-53.767,75.192,6.63,41.009,35.22-9.067,7.583-25.801,6.919-22.676,19.781,2.329,9.584,17.096,14.62-.965,15.439,4.628,8.681,3.261,21.188,1.93,30.877,4.985-1.002,4.66-4.701,11.097-3.377,1.711.352,24.518,17.511,28.465,20.263,1.246.869,2.428,2.283,3.86,2.895-6.128,5.941,10.134,13.562,13.991,12.544,7.811-2.062-9.021-10.554-10.132-13.509,7.686-4.977,34.872-21.556,42.457-22.193,5.537-.465,12.363,1.48,18.816.965,7.526-.601,15.375-9.432,20.746,5.307,5.289,14.514-8.905,10.138-14.474,19.298-5.788,9.521,3.511,43.186,3.86,56.448-8.611,3.83-33.559,5.689-41.492,1.93-8.539-4.046-.527-16.506,0-22.676,1.092-12.786-4.262-22.317-4.825-34.737-19.488,9.177.549,6.385-4.825,16.404-2.393,4.462-8.288,3.593-11.579,4.342-2.78-4.865-12.297-3.185-14.956-4.825-2.288-1.41,2.245-2.036,1.447-3.377-1.442-2.427-6.023-5.192-7.719-7.719-.625-.931,1.358-1.896.965-2.412-2.086-2.738-23.88-22.097-25.57-22.193-.815-.047-3.681,3.396-5.307,2.895-.712-.649-3.99-3.188-4.825-1.447.071,17.794.132,35.726,0,53.553-.033,4.49.025,9.019,0,13.509-.007,1.278.006,2.582,0,3.86-.107,21.672,3.523,65.715,0,84.431-1.126,5.982-9.054,13.844-14.956,14.956-18.301,3.448-100.997,2.401-122.545.965-33.037-2.202-21.694-32.25-24.605-55.965-.061-.494,1.807-2.602.965-4.342-1.142-2.361-8.527-.839-8.202-6.272h-335.793c-9.686-2.103-17.642-5.852-20.746-15.921l.965-224.827c3.761-6.535,8.815-9.337,15.921-11.097h387.898c30.546,1.458,10.413,63.716,16.886,72.852.906,1.279,5.46-.097,6.754.482Z"/>
        <path class="st9" d="M948.9,371.686c9.24-3.01,7.251,4.004,4.342,9.167-1.348,2.394-24.437,33.287-26.053,34.737-4.533,4.069-11.921,6.69-8.684-1.93,5.724-4.578,26.792-40.801,30.395-41.974Z"/>
        <path class="st19" d="M989.909,489.406c1.11,2.955,17.943,11.447,10.132,13.509-3.857,1.018-20.119-6.603-13.991-12.544.143-.138,3.515-.742,3.86-.965Z"/>
        <path class="st9" d="M798.372,336.948c9.748-2.601,9.755,14.92-.965,10.614-4.132-1.66-2.579-9.669.965-10.614Z"/>
        <path class="st9" d="M813.811,337.913c9.316-3.617,11.004,9.669,3.86,10.614-5.964.789-8.686-8.74-3.86-10.614Z"/>
        <path class="st9" d="M456.79,338.878c8.861-2.108,9.261,8.823,2.895,9.649-5.957.773-9.329-8.118-2.895-9.649Z"/>
        <path class="st9" d="M478.018,338.878c8.815-2.646,9.307,8.817,2.895,9.649-6.47.84-8.379-8.003-2.895-9.649Z"/>
        <path class="st9" d="M434.597,338.878c8.815-2.646,9.307,8.817,2.895,9.649-6.47.84-8.379-8.003-2.895-9.649Z"/>
        <path class="st9" d="M858.197,408.353l13.991,6.272c-6.665.476-15.09,3.348-13.991-6.272Z"/>
        <g>
          <path class="st9" d="M437.491,355.282h376.319c1.856.435,6.771,4.543,7.237,6.272.565,2.096.624,41.342,0,43.421-.169.564-5.88,4.908-6.754,9.649-.569,3.084.875,17.853-.482,18.816-9.556,1.698-8.803-2.903-11.579-9.649-2.965,7.422-6.475-8.961-3.377,8.202-.649,1.905-6.076,1.927-6.754.965-1.668-2.366,1.168-49.631-.965-57.895-.595-2.305-3.361-4.147-5.307-5.307l-97.94,1.447.482,5.307,98.422-4.825c2.624,1.166,2.297,54.097,1.447,57.413-.247.964-2.286-.033-2.895.965-.675,1.106,2.085,1.357-.482,3.377-2.889,2.273-12.692,3.061-14.474,11.579-18.186-3.487-85.177,6.49-97.457-.965-1.878-1.14-3.094-3.587-4.342-5.307-1.558-17.523,4.497-46.393.965-62.72-.657-3.036-2.615-4.878-5.307-6.272-11.461,4.283-93.126-1.427-96.01,2.412-.204.272-.2,3.86.482,4.342,1.182.836,25.1.032,28.948,0,12.86-.107,26.733-.208,39.562-.965,6.998-.413,27.933-9.674,30.395,1.447,3.288,14.85-3.996,52.508,0,64.65.497,1.51,8.335,5.932,10.132,6.272,13.14,2.488,88.47-3.918,92.632-.965v16.404c-4.417,3.133-76.207-2.181-82.983.965-1.302.605-2.065,3.585-1.447,4.342,2.672,3.273,74.746-1.432,84.431-3.377l4.825,72.369c-27.126-2.507-69.121,6.742-94.562,1.93-3.24-.613-11.206-5.856-12.062-9.167-3.526-13.649,4.442-45.065.965-60.79-.407-1.841-2.228-5.638-4.342-6.272l-96.492.965c-1.042.771-1.99,2.048-1.447,3.377,1.875,4.595,85.227-.711,96.01-3.377l3.377,2.412v62.72c1.892,7.28,8.647,9.41,14.956,12.062l93.597-.965.482,24.605-323.731.482c-16.127-5.56-14.872-12.963-17.851-26.535-.109-.495-3.654-3.336-3.86-4.825-1.178-8.536-.431-67.551.965-76.229.671-4.175,2.067-8.398,6.272-10.132l107.589-2.412-111.448-.482-3.377-3.377.965-80.088,6.272-6.272Z"/>
          <path class="st2" d="M526.264,463.353c7.202.001,24.4-2.654,26.535,5.307,3.989,14.872-3.793,48.037,0,62.72.325,1.259,3.163,4.43,4.342,5.307,9.6,7.137,82.224.599,99.387.965,2.434.052,4.159-.13,6.272,1.447l-99.869,2.412c-4.106-2.872-10.741-4.28-12.062-10.132-3.214-14.243,2.294-41.055,0-56.93-.314-2.171-1.066-8.297-3.377-9.167-11.194.65-97.043,7.962-98.904,3.377-.541-1.332.404-2.605,1.447-3.377,25.359.232,50.907-1.934,76.229-1.93Z"/>
          <path class="st2" d="M540.738,369.756c5.335.203,9.589-.267,12.062,5.307,4.81,16.516-4.287,50.708,0,64.65.09.293,3.828,4.031,4.342,4.342,13.974,8.459,85.485-4.042,105.659,2.412l-101.799,1.447c-4.063-2.522-8.934-3.74-10.132-9.167-3.487-15.796,3.494-45.975,0-61.755-.251-1.134-2.164-4.874-3.377-5.307-11.471,1.082-94.061,8.224-96.975,4.342-.205-.273-.2-3.86.482-4.342,29.749,2.348,60.158-3.053,89.738-1.93Z"/>
          <path class="st2" d="M456.79,500.02c.627-.443,5.326.315,6.754,0l1.447,2.412c-.11,1.065-7.042,2.918-1.447,4.342,7.566,1.926,7.676-5.781,10.614-4.825,2.372.773.803,5.013,1.93,5.79,2.739,1.887,42.249-2.218,47.281,0,1.679.74,1.943,5.205,1.447,6.272-1.536,3.305-64.008.408-72.852,2.412-5.486-6.985,6.212-3.331,7.237-6.272-1.086-1.924-4.537-8.629-2.412-10.132Z"/>
          <path class="st2" d="M696.09,405.458c.39-.278,7.41-.553,8.202,1.447l-3.377,5.307c6.731,3.445,11.598-4.888,12.544-4.825,2.203.148,2.478,5.539,2.895,5.79,2.855,1.718,44.136-1.544,46.316,0,.67.475.709,5.953.482,6.272-2.111,2.971-64.225.973-72.852,2.412l-.965-4.825,11.097-.482c-3.167-.88-6.726-9.394-4.342-11.097Z"/>
          <path class="st2" d="M458.72,406.423c1.024-.415,7.955-.321,8.202,1.447l-4.342,4.342c10.272,3.114,9.855-6.843,15.921-2.412.342.249-.578,2.784.482,3.377,3.876,2.17,39.163-2.302,44.386,0,2.174.958,1.321,4.412,1.447,6.272l-71.887,2.412-.965-3.86,9.167-.482c.398-.47-6.097-9.604-2.412-11.097Z"/>
          <path class="st2" d="M576.44,406.423c5.328-2.143,11.777,2.041,3.377,5.307,7.843,6.263,12.05-6.168,16.886-2.412,1.101.855-.808,3.56,2.895,4.825,5.063,1.729,39.374-4.208,41.974.482.394.711-.272,3.601,0,4.825-8.648-.877-67.958,4.363-70.922,2.412-6.206-4.085,7.812-3.881,8.202-4.342-1.27-2.196-5.613-9.81-2.412-11.097Z"/>
          <path class="st2" d="M693.196,499.055h8.684c2.337,3.075-7.384,4.514-1.93,6.754,5.051,2.075,10.476-4.785,11.579-4.825,4.299-.153,2.738,4.798,4.825,5.79,2.992,1.423,35.159-3.322,40.527-.965,1.555.683,1.959,4.25,1.447,5.307-1.525,3.152-61.698,1.93-69.957,3.377-3.182-11.85,12.939,4.632,4.825-15.439Z"/>
          <path class="st2" d="M576.44,499.055c5.666-.741,11.304,2.293,3.377,5.307l1.447,1.447c9.103,2.855,9.717-4.891,12.544-4.825,4.097.096,2.211,5.178,3.86,5.79,7.051,2.615,33.283-1.967,42.457,0l1.447,4.342c-1.528,3.204-67.57,4.547-70.922,3.377-7.103-2.478,6.952-4.415,7.237-5.307.168-.526-5.603-7.964-1.447-10.132Z"/>
          <path class="st2" d="M750.126,378.44c.741.281-1.872,6.01,1.93,5.79,3.536-.205-1.927-5.249.965-5.79,5.017-.938,7.317,8.582,4.825,9.649l-60.79-.965c-5.481,10.177-13.776-.902-5.79-2.895.245-.061,1.639,1.955,1.93,1.93,7.386-.648,14.379-.481,21.228-.965.888-.063.08-2.851.965-2.895.522-.026,5.44,3.855,9.649,1.93.742-.339-2.22-7.016,4.342-4.342-5.141,6.246,5.475,6.907,3.377-.482,6.201-1.24,1.484,4.097,2.895,4.825.623.321,13.225.438,13.026-2.412l-3.86-1.93c1.576.154,5.05-1.545,5.307-1.447Z"/>
          <path class="st2" d="M634.335,378.44c2.826.504,3.463,6.096,5.307,8.202-.881,2.631-48.047,3.417-54.518,3.377-2.283-.014-7.35-3.078-7.719-2.895-.498.247-4.948,10.132-8.202,3.377-3.866-8.026,23.201-4.048,28.465-5.307,1.645-.877-4.692-5.095-.965-5.79,5.151-.96,3.52,4.615,3.86,4.825,1.031.634,23.134.697,24.123,0,.37-.261.549-8.534,4.342-4.342,1.481,1.636-6.292,4.932,2.412,4.342,1.32-.953-1.722-6.614,2.895-5.79Z"/>
          <path class="st2" d="M752.056,471.072c2.98-.911,6.19,9.145,3.86,9.649-18.215.432-36.849,1.944-55.001,1.93-2.8-.002-5.466-2.879-5.79-2.895-.804-.039-10.025,13.1-6.754-1.93l61.755-.965c2.397-.891-1.047-4.879,1.93-5.79Z"/>
          <path class="st2" d="M625.651,472.037c5.459-1.401,2.943,2.708.965,4.825,9.226,1.729.473-6.014,9.649-4.825.001,3.512,5.436,7.787,0,9.649-10.226,3.504-43.638-2.683-56.93.965l-2.412-3.377,37.149-1.447c.906-5.719-6.312.887-3.86-4.825,6.276-1.836,5.21,4.723,10.614,4.825,6.617.124,2.162-5.106,4.825-5.79Z"/>
          <polygon class="st2" points="451.965 490.371 504.554 492.783 451.965 497.125 451.965 490.371"/>
          <path class="st2" d="M572.58,396.774c11.248,4.583,41.353-3.578,50.176,0,1.056.428,1.892,2.29,1.447,3.377-.995,2.437-50.213,3.546-52.588,2.412-1.727-.825-1.55-2.817-1.447-4.342l2.412-1.447Z"/>
          <path class="st2" d="M689.336,489.406c4.538,3.606,52.598-3.876,52.588,2.412-.006,4.047-48.172,2.761-52.588,3.377-3.032-2.481-3.086-3.274,0-5.79Z"/>
          <path class="st2" d="M456.79,396.774c12.636-1.571,32.848,1.761,46.316,0,1.045.784,1.978,2.005,1.447,3.377-.931,2.41-49.269,3.478-51.623,2.412-3.88-1.757.266-5.343,3.86-5.79Z"/>
          <path class="st2" d="M516.615,378.44c5.101-.29.296,6.014,5.307,7.237l-1.447,2.412c-6.382-.639-50.901,2.642-52.588.482-.315-.403-.074-2.748.482-3.377,2.05-2.316,40.41.857,45.351-.965,2.714-1.001-1.153-5.56,2.895-5.79Z"/>
          <path class="st2" d="M614.072,489.406c4.016.084,12.846-.809,8.684,4.825-6.621-.077-51.265,2.998-52.588-.482-.23-.605-.176-2.975.482-3.377,1.854-1.131,38.294-1.072,43.421-.965Z"/>
          <path class="st2" d="M690.301,396.774l53.553,2.412-52.588,3.377c-2.143-1.799-3.817-3.561-.965-5.79Z"/>
          <path class="st2" d="M509.861,538.617c5.917-.075,30.197-1.155,33.772,0,.292.094,1.912,1.448.965,1.93-36.161.9-72.367,1.659-108.554.482,24.394-1.753,49.323-2.102,73.816-2.412Z"/>
          <path class="st2" d="M452.93,385.194c6.873-1.78,10.187,7.804-.965,5.79-2.809-1.284-.832-5.324.965-5.79Z"/>
          <path class="st2" d="M692.231,403.528c2.794.713,1.821,11.696-1.93,11.579-3.247-.101-.164-12.113,1.93-11.579Z"/>
          <path class="st2" d="M451.965,498.09c2.862-2.218,5.339,17.917-3.377,9.167l3.377-9.167Z"/>
          <path class="st2" d="M569.686,478.792c8.13-3.783,9.323,9.795,0,5.79-1.512-.65-.833-5.402,0-5.79Z"/>
          <path class="st2" d="M571.616,404.493c4.299.837,1.778,7.189,2.412,10.132-10.556,2.532-1.22-3.462-2.412-10.132Z"/>
          <path class="st2" d="M453.895,404.493l.965,11.579c-6.814-.715-2.407-7.404-.965-11.579Z"/>
          <path class="st2" d="M689.336,497.125l.965,10.614c-5.329,2.136-1.708-10.615-.965-10.614Z"/>
          <path class="st2" d="M571.616,497.125c2.374.137,2.899,14.511-1.93,11.579-.57-.346,1.482-10.161,1.93-11.579Z"/>
          <path class="st2" d="M462.579,385.194c2.449-1.007,4.877,1.991,4.342,3.377-1.387,3.591-9.626-1.205-4.342-3.377Z"/>
          <path class="st19" d="M479.948,379.405c5.663-1.901,4.971,5.241,0,3.86-1.729-.48-1.853-3.238,0-3.86Z"/>
          <path class="st2" d="M457.755,380.37c5.66-2.038,4.597,4.276,2.895,4.825-1.553.5-3.945-3.34-2.895-4.825Z"/>
          <path class="st2" d="M700.915,473.002c.287-.146,6.59-.804,6.272,1.447-1.986,3.712-9.093-.011-6.272-1.447Z"/>
          <path class="st19" d="M697.055,379.405c3.477-.502,4.44,2.907,1.93,3.86-4.466,1.695-4.927-3.427-1.93-3.86Z"/>
          <path class="st1" d="M717.319,472.037c5.721-1.96,4.308,5.05,0,3.86-1.721-.476-1.862-3.222,0-3.86Z"/>
          <path class="st19" d="M604.423,379.405c3.477-.502,4.44,2.907,1.93,3.86-4.466,1.695-4.927-3.427-1.93-3.86Z"/>
          <path class="st19" d="M466.439,379.405c1.555-.099,5.431,2.459,1.93,3.86-4.008,1.604-6.012-3.601-1.93-3.86Z"/>
          <path class="st2" d="M473.194,379.405c1.637-.397,3.636,2.095,4.342,3.377-3.245,2.795-8.301-2.418-4.342-3.377Z"/>
          <path class="st2" d="M575.475,473.002c1.224-.736,5.177-.437,4.342,2.412-.915,3.124-7.695-.396-4.342-2.412Z"/>
          <path class="st19" d="M718.284,379.405c1.296-.457,5.261.526,4.342,2.412-1.374,2.821-9.316-.658-4.342-2.412Z"/>
          <path class="st2" d="M694.161,473.002c.784-.479,5.282.066,5.307,1.447.065,3.568-9.618,1.185-5.307-1.447Z"/>
          <path class="st19" d="M618.897,472.037c3.059-.948,4.578,3.039,1.93,3.86-3.059.948-4.578-3.039-1.93-3.86Z"/>
          <path class="st19" d="M687.406,472.037c4.176-3.059,3.693,5.248.965,4.825-1.348-.209-2.176-3.937-.965-4.825Z"/>
          <path class="st19" d="M582.23,473.002c1.203-.723,5.52-.262,4.342,2.412-1.221,2.771-7.619-.442-4.342-2.412Z"/>
          <path class="st2" d="M743.372,472.037c6.613-2.021,5.75,4.046,2.895,3.86-.241-.016-3.511-2.958-2.895-3.86Z"/>
          <path class="st19" d="M588.984,380.37c.603-.309,5.321-.694,5.307,1.447-.021,3.283-8.717.3-5.307-1.447Z"/>
          <path class="st19" d="M617.932,379.405c1.491-.937,4.49-.485,4.342,2.412-.134,2.626-7.579-.378-4.342-2.412Z"/>
          <path class="st1" d="M703.81,379.405c5.782-1.422,3.147,4.528,0,3.86-1.716-.364-1.803-3.416,0-3.86Z"/>
          <path class="st1" d="M494.422,379.405c1.026-.367,4.344.242,4.342,1.447-.006,3.354-9.95.558-4.342-1.447Z"/>
          <path class="st19" d="M602.493,473.002c1.312-.825,5.887.132,4.342,2.412-1.411,2.084-7.385-.5-4.342-2.412Z"/>
          <path class="st19" d="M711.529,472.037c4.456-.266,1.274,6.136-1.93,3.86-1.819-1.293.762-3.79,1.93-3.86Z"/>
          <path class="st19" d="M595.739,473.002c5.704-2.027,5.38,4.254,0,2.895-1.508-.381-1.578-2.334,0-2.895Z"/>
          <path class="st1" d="M711.529,379.405c3.822-1.487,3.404,3.688.965,3.86-3.761.265-2.806-3.144-.965-3.86Z"/>
          <path class="st2" d="M451.965,379.405c3.558-1.156,3.471,3.306,1.93,3.86-2.846,1.023-4.693-2.962-1.93-3.86Z"/>
          <path class="st2" d="M583.195,380.37c.831-.279,3.459-.164,4.342.482-1.957,5.346-7.987.741-4.342-.482Z"/>
          <path class="st19" d="M689.336,379.405c4.067-1.345,3.203,3.725.965,3.86-2.553.153-3.208-3.118-.965-3.86Z"/>
          <path class="st1" d="M485.738,473.002c.458-.292,4.368-.679,4.342,1.447-.037,3.048-7.941.846-4.342-1.447Z"/>
          <path class="st19" d="M451,473.002c4.067-1.345,3.203,3.725.965,3.86-2.553.153-3.208-3.118-.965-3.86Z"/>
          <path class="st19" d="M570.651,472.037c2.957.008,1.927,5.675-.965,4.825-1.896-.558-.629-4.829.965-4.825Z"/>
          <path class="st2" d="M576.44,380.37c.458-.292,4.368-.679,4.342,1.447-.037,3.048-7.941.846-4.342-1.447Z"/>
          <path class="st1" d="M725.038,472.037c4.067-1.345,3.203,3.725.965,3.86-2.553.153-3.208-3.118-.965-3.86Z"/>
          <path class="st1" d="M487.667,379.405c5.649-2.107,2.847,5.064-.965,2.895-1.304-.742.225-2.619.965-2.895Z"/>
          <path class="st1" d="M612.142,379.405c6.394-.006-.414,5.348-2.412,2.412-.604-.888,2.242-2.412,2.412-2.412Z"/>
          <path class="st19" d="M570.651,379.405c2.3-.577,3.267,3.335.965,3.86-3.695.842-2.669-3.432-.965-3.86Z"/>
          <path class="st6" d="M502.141,379.405c4.726-.774,3.371,3.477-.965,3.86-.047-.861-.441-3.629.965-3.86Z"/>
          <path class="st2" d="M588.984,473.002c1.982-1.181,3.582.877,4.342,2.412-1.772,1.999-6.579-1.08-4.342-2.412Z"/>
          <path class="st6" d="M502.624,475.897c-.096.008-1.312-.024-1.93,0-3.537-4.921,7.85-3.386,1.93,0Z"/>
          <path class="st6" d="M739.512,379.405c1.369-.878,4.608.379,3.377,2.412-1.284,2.121-6.041-.705-3.377-2.412Z"/>
          <path class="st1" d="M731.793,472.037c3.477-2.251,3.418,4.32.965,3.86-1.072-.201-2.248-3.029-.965-3.86Z"/>
          <path class="st6" d="M738.547,472.037c3.27-.487,3.036,3.08,1.93,3.86-.294.207-5.484-3.331-1.93-3.86Z"/>
          <path class="st1" d="M508.896,379.405c4.078-.704,4.078,3.599,0,2.895-1.498-.258-1.498-2.636,0-2.895Z"/>
          <g>
            <path class="st2" d="M500.694,475.897c.617-.024,1.834.008,1.93,0,.12-.009.772,1.956,1.447,1.93,9.261-.355.699-5.314,4.825-5.79.676-.078,7.195,12.121,4.342,1.447,5.235-6.484,9.132,6.979,6.272,8.202-19.18.772-39.871-.46-58.86.965-.306.023-1.658-1.979-1.93-1.93-.561.101-6.219,9.474-9.167,3.377-3.047-6.303,6.274-4.717,7.237-5.307,1.773-1.088-1.508-5.11.965-5.79.465-.128,9.237-.251,9.649,0,1.606.978-1.965,5.154.965,5.79,1.76.382,7.294-2.104,1.93-3.86l.965-1.93h3.86c2.465,12.497,2.43.201,2.895,0,6.933-2.995,2.481,4.654,2.895,4.825,10.303,2.537,10.068-5.877,16.886-4.342-.485,4.25-5.446-.861-3.377,4.342,5.241,1.617,5.883-1.915,6.272-1.93Z"/>
            <path class="st9" d="M461.615,474.932c5.009-.653,1.196,5.352-.965,4.825-2.653-.647-.52-4.631.965-4.825Z"/>
          </g>
        </g>
        <g>
          <polygon class="st9" points="784.863 445.985 935.391 445.985 936.838 582.521 783.898 583.968 784.863 445.985"/>
          <path class="st2" d="M831.179,559.845c14.9,2.22,39.357-2.969,53.071,0,8.817,1.909,8.817,12.565,0,14.474-13.714,2.969-38.171-2.22-53.071,0-.626-2.126,1.789-1.769,2.895-1.93,13.243-1.925,39.105,2.943,50.176,0,5.837-1.551,5.837-9.063,0-10.614-11.673-3.103-37.819,2.418-51.141,0-1.383-.251-3.379.518-1.93-1.93Z"/>
          <path class="st2" d="M831.179,534.757c14.612,2.283,39.763-3.051,53.071,0,8.643,1.982,8.643,12.492,0,14.474-13.307,3.051-38.459-2.283-53.071,0-.626-2.126,1.789-1.769,2.895-1.93,13.243-1.926,39.105,2.943,50.176,0,5.837-1.551,5.837-9.063,0-10.614-11.071-2.943-36.933,1.926-50.176,0-1.105-.161-3.521.196-2.895-1.93Z"/>
          <path class="st19" d="M831.179,485.546c14.694,2.358,40.742-3.149,54.036,0,4.303,1.02,6.01,5.258,5.307,9.167-1.17,2.408-2.727,3.762-5.307,4.342-13.69,3.078-39.06-2.303-54.036,0,14.698-5.214,40.733,2.421,54.036-1.93,4.144-1.355,4.308-8.29,0-9.649-11.946-3.768-41.521,4.355-54.036-1.93Z"/>
          <path class="st19" d="M831.179,510.634c8.685,1.178,55.013-2.529,58.378,2.412.922,1.354,1.44,6.34.965,7.719-2.935,8.523-50.565,1.243-59.343,3.377,8.206-3.478,55.147,2.766,57.413-4.342.301-.945-.204-2.701,0-3.86-.209-.685-3.643-3.191-4.342-3.377-11.071-2.943-36.933,1.926-50.176,0-1.105-.161-3.521.196-2.895-1.93Z"/>
          <path class="st2" d="M868.811,459.493c5.041.051,19.872-1.223,21.711,4.342.995,3.012-.447,7.686-3.377,9.167-8.037,4.061-46.306-.711-57.413.482,15.554-5.541,39.826,2.458,54.518-1.447,6.2-1.648,5.585-9.142-.965-10.614-13.211-2.97-37.654,2.222-52.106,0,12.243-.631,25.403-2.053,37.632-1.93Z"/>
          <path class="st2" d="M797.407,486.511c5.567,3.56.334,10.872.482,14.956.253,6.939,5.147,16.971-.482,22.676v-37.632Z"/>
          <path class="st2" d="M834.074,541.512l20.746,1.447c-5.587-.286-17.164,2.775-20.746-1.447Z"/>
          <path class="st2" d="M798.372,533.792l8.202,2.412h-6.754c.242,1.433.309,15.444-2.412,13.991l.965-16.404Z"/>
          <path class="st2" d="M834.074,491.336l19.781,1.447c-5.153-.083-16.717,2.623-19.781-1.447Z"/>
          <path class="st19" d="M835.039,516.424c2.69-.796,15.769-.53,18.816,1.447l-18.816,1.447c-1.547-.804-1.587-2.425,0-2.895Z"/>
          <path class="st1" d="M836.004,565.635c4.159-.88,14.512-.369,18.816,1.447l-20.746,1.447c-1.65-1.218,1.495-2.803,1.93-2.895Z"/>
          <path class="st1" d="M834.074,466.248l19.781.482c-4.276,2.002-17.189,3.05-19.781-.482Z"/>
          <path class="st19" d="M798.372,558.88c2.478,1.286,1.111,15.926-1.93,14.474l1.93-14.474Z"/>
          <path class="st2" d="M804.162,489.406c3.644-.95,2.966,8.463,0,7.719-2.084-.522-2.103-7.171,0-7.719Z"/>
          <path class="st19" d="M797.407,461.423c4.755,1.195,1.694,13.957-.965,12.544l.965-12.544Z"/>
          <path class="st19" d="M804.162,539.582c2.655-.859,3.208,5.68,1.93,6.754-3.122,2.626-4.515-5.918-1.93-6.754Z"/>
          <path class="st19" d="M804.162,464.318c2.91-.773,3.379,6.113.965,6.754-2.91.773-3.379-6.113-.965-6.754Z"/>
          <path class="st19" d="M803.197,564.67c2.998-2.038,3.08,5.973,1.93,6.754-2.998,2.038-3.08-5.973-1.93-6.754Z"/>
          <path class="st19" d="M805.127,514.494c1.873.002,2.515,7.177-.965,6.754l.965-6.754Z"/>
          <path class="st20" d="M802.232,509.669l5.307,1.447c-1.425,1.757-7.178-.486-5.307-1.447Z"/>
          <path class="st15" d="M801.267,473.967l5.307.482c-1.727,1.186-5.356,2.791-5.307-.482Z"/>
          <path class="st15" d="M805.127,573.354c3.063,1.369-5.091,3.289-5.307,2.412l5.307-2.412Z"/>
          <polygon class="st13" points="859.162 565.635 859.645 567.082 858.197 567.565 857.715 567.082 859.162 565.635"/>
          <g>
            <path class="st19" d="M815.741,557.915c18.27-3.175,17.801,22.323-.965,18.334-9.205-1.957-7.821-16.806.965-18.334Z"/>
            <path class="st9" d="M815.741,559.845c11.911-3.122,13.923,12.297,5.79,14.474-12.181,3.26-12.852-12.623-5.79-14.474Z"/>
          </g>
          <g>
            <path class="st19" d="M814.776,483.616c18.184-4.439,19.965,19.188,2.895,18.334-11.603-.581-11.414-16.254-2.895-18.334Z"/>
            <path class="st9" d="M816.706,484.581c10.661-1.994,13.373,13.599,3.86,15.439-11.304,2.185-11.649-13.982-3.86-15.439Z"/>
          </g>
          <g>
            <path class="st19" d="M816.706,457.564c15.133-2.111,16.763,16.866,2.895,18.334-14.382,1.522-13.729-16.822-2.895-18.334Z"/>
            <path class="st9" d="M815.741,459.493c11.882-3.435,14.018,12.554,4.825,14.474-11.531,2.408-11.186-12.635-4.825-14.474Z"/>
          </g>
          <g>
            <path class="st19" d="M817.671,532.827c16.591-1.451,15.676,22.969-2.895,18.334-9.455-2.36-6.848-17.481,2.895-18.334Z"/>
            <path class="st9" d="M816.706,534.757c11.636-2.46,14.052,14.703,2.895,15.439-10.351.683-10.376-13.857-2.895-15.439Z"/>
          </g>
          <g>
            <path class="st19" d="M815.741,508.704c12.922-2.819,18.96,12.063,9.649,16.404-16.641,7.757-22.245-13.656-9.649-16.404Z"/>
            <path class="st9" d="M815.741,510.634c12.422-3.909,14.771,12.629,5.79,14.474-11.425,2.347-12.554-12.345-5.79-14.474Z"/>
          </g>
          <g>
            <path class="st19" d="M908.373,556.95c14.863-1.488,17.427,16.62,3.86,18.334-15.299,1.932-15.787-17.139-3.86-18.334Z"/>
            <path class="st9" d="M908.373,558.88c14.698-1.769,13.107,17.539-.965,14.474-7.565-1.648-6.788-13.541.965-14.474Z"/>
          </g>
          <g>
            <path class="st2" d="M906.443,532.827c15.547-3.319,20.401,15.064,6.754,17.369-16.485,2.784-16.223-15.347-6.754-17.369Z"/>
            <path class="st9" d="M906.443,534.757c10.818-3.275,18.59,10.979,6.754,13.509-13.376,2.859-13.483-11.472-6.754-13.509Z"/>
          </g>
          <g>
            <path class="st19" d="M906.443,457.564c12.821-2.414,19.345,12.015,9.649,16.404-16.53,7.482-22.81-13.926-9.649-16.404Z"/>
            <path class="st9" d="M906.443,459.493c9.449-2.195,16.731,8.262,8.684,12.544-12.59,6.699-18.961-10.157-8.684-12.544Z"/>
          </g>
          <g>
            <path class="st19" d="M906.443,482.652c18.318-3.664,18.647,19.734.965,17.369-9.451-1.264-10.407-15.48-.965-17.369Z"/>
            <path class="st9" d="M906.443,484.581c7.836-1.906,16.96,5.334,9.649,11.579-10.579,9.037-21.451-8.708-9.649-11.579Z"/>
          </g>
          <g>
            <path class="st19" d="M905.478,508.704c3.266-.821,12.095-.026,13.991,3.377,8.803,15.8-24.529,19.658-19.298.965.376-.885,4.371-4.107,5.307-4.342Z"/>
            <path class="st9" d="M908.373,509.669c10.58-1.19,14.75,13.364,2.895,14.474-11.718,1.097-12.759-13.364-2.895-14.474Z"/>
          </g>
        </g>
      </g>
    </g>
  </g>
  <g>
    <path class="st8" d="M538.463,379.11l21.352,76.193c4.388,15.659.841,31.587-8.177,43.133l-8.897-31.748-.105-.374c-1.058-3.775-3.563-6.71-6.665-8.32l-.867-3.093c-1.508-5.382-5.461-9.383-10.235-11.028l-5.933-21.172c11.331-9.584,16.603-25.723,12.173-41.532l7.353-2.061Z"/>
    <path class="st8" d="M512.532,286.576l25.931,92.534-7.353,2.061c-4.43-15.809-17.319-26.849-31.983-29.158l-6.121-21.844c11.331-9.584,16.603-25.723,12.173-41.532l7.353-2.061Z"/>
    <path class="st8" d="M486.601,194.042l25.931,92.534-7.353,2.061c-4.433-15.818-17.319-26.849-31.985-29.168l-6.119-21.835c11.328-9.594,16.603-25.723,12.173-41.532l7.353-2.061Z"/>
    <path class="st8" d="M482.019,177.691l4.582,16.35-7.353,2.061c-5.97-21.302-27.28-33.952-47.601-28.258-7.736,2.168-14.217,6.695-18.941,12.634l-340.903,95.532c-7.123-2.619-15.021-3.116-22.748-.951-20.321,5.695-31.955,27.577-25.985,48.879l-7.362,2.063-4.582-16.35c-6.967-24.862,6.059-50.369,29.211-58.046L333.861,116.244c25.826-15.107,82.607-2.562,91.046,27.551,24.386-6.834,49.951,8.343,57.112,33.896ZM380.716,156.582l-1.901-6.783c-2.812-10.035-40.284,4.507-48.899,9.541l-168.109,58.587,218.91-61.345Z"/>
    <path class="st4" d="M446.404,574.774l125.077-35.05c1.94,6.923-1.74,14.001-8.215,15.815l-101.635,28.481c-6.475,1.814-13.287-2.323-15.227-9.246Z"/>
    <path class="st9" d="M479.248,196.102c4.43,15.809-.845,31.938-12.173,41.532l6.119,21.835c14.667,2.319,27.553,13.35,31.985,29.168,4.43,15.809-.842,31.948-12.173,41.532l6.121,21.844c14.664,2.31,27.553,13.35,31.983,29.158s-.842,31.948-12.173,41.532l5.933,21.172c4.774,1.645,8.727,5.646,10.235,11.028l.867,3.093c3.101,1.61,5.607,4.545,6.665,8.32l.105.374-.14.039c-1.055-3.765-3.563-6.71-6.671-8.308-2.597-1.358-5.625-1.769-8.577-.942l-85.994,24.098c-6.465,1.812-10.149,8.91-8.212,15.824l3.218,11.483c-2.079-1.523-4.549-2.534-7.249-2.856l-90.954-10.97c-8.372-.999-15.76,5.001-16.501,13.431l-4.523,51.249-4.327-51.257c-.779-9.254-8.613-16.279-17.491-15.706l-51.992,4.261c-8.878.573-11.707,7.523-10.925,16.786l4.057,48.028-1.254-4.475c-4.684-16.715-20.324-12.332-20.324-12.332l-93.805,26.287c-5.428,1.521-8.406,4.522-9.976,7.804-.843,1.738-1.284,3.544-1.49,5.254.172-1.832.618-3.801,1.523-5.677l-1.299-4.634c-1.508-5.382-.21-10.854,3.004-14.738l-5.933-21.172c-14.652-2.303-27.543-13.352-31.973-29.161-4.43-15.809.845-31.938,12.164-41.529l-6.121-21.844c-14.652-2.303-27.543-13.352-31.973-29.161-4.433-15.818.845-31.938,12.161-41.539l-6.119-21.835c-14.655-2.312-27.543-13.352-31.973-29.161-5.97-21.302,5.664-43.184,25.985-48.879,7.727-2.165,15.625-1.668,22.748.951l340.903-95.532c4.724-5.939,11.205-10.466,18.941-12.634,20.321-5.695,41.632,6.955,47.601,28.258ZM471.85,198.578c-4.773-17.033-21.819-27.159-38.076-22.604-16.257,4.556-25.558,22.066-20.785,39.098s21.819,27.159,38.076,22.604,25.561-22.057,20.785-39.098ZM497.781,291.113c-4.773-17.033-21.817-27.15-38.074-22.594-4.064,1.139-7.691,3.082-10.777,5.63-9.253,7.651-13.591,20.687-10.011,33.459,3.582,12.781,14.062,21.665,25.941,23.384,3.962.583,8.071.358,12.135-.781,16.257-4.556,25.561-22.057,20.785-39.098ZM523.715,383.656c-2.537-9.053-8.536-16.149-16.041-20.133-6.63-3.523-14.411-4.607-22.035-2.471-16.257,4.556-25.561,22.057-20.785,39.098,4.773,17.033,21.817,27.15,38.074,22.594,7.624-2.136,13.706-7.116,17.542-13.562,4.345-7.294,5.78-16.483,3.246-25.527ZM89.249,305.795c-4.773-17.033-21.819-27.159-38.076-22.604s-25.558,22.066-20.785,39.098,21.819,27.159,38.076,22.604c16.257-4.556,25.561-22.057,20.785-39.098ZM141.114,490.874c-4.776-17.042-21.819-27.159-38.076-22.604s-25.561,22.057-20.785,39.098c4.773,17.033,21.817,27.15,38.074,22.594s25.561-22.057,20.788-39.089ZM114.524,397.355c-4.883-17.425-22.324-27.774-38.955-23.113-16.612,4.655-26.135,22.56-21.252,39.985s22.324,27.774,38.936,23.118c16.631-4.66,26.154-22.565,21.271-39.99Z"/>
    <polygon class="st4" points="444.884 101.558 447.489 110.854 445.256 111.48 444.646 109.303 443.617 104.805 443.238 112.045 441.761 112.459 437.663 106.463 439.133 110.848 439.743 113.025 437.51 113.65 434.905 104.354 437.83 103.534 441.706 109.421 441.95 102.38 444.884 101.558"/>
    <path class="st4" d="M436.364,508.883l-3.218-11.483c-1.937-6.914,1.747-14.013,8.212-15.824l85.994-24.098c2.952-.827,5.98-.416,8.577.942,3.108,1.598,5.616,4.543,6.671,8.308l9.004,32.131,10.895,38.877-109.455,30.673-10.735-38.307-4.757,54.045c-.744,8.421-8.136,14.443-16.513,13.424l-90.942-10.963c-4.758-.581-8.816-3.304-11.286-7.085l-.003-.009-1.67-19.766-.003-.009,4.523-51.249c.741-8.43,8.129-14.431,16.501-13.431l90.954,10.97c2.7.322,5.17,1.332,7.249,2.856ZM552.338,531.575l-17.558-62.655c-.647-2.308-2.918-3.687-5.085-3.079l-85.994,24.098c-2.158.605-3.382,2.963-2.735,5.271l17.558,62.655,93.814-26.29ZM435.348,522.197c.373-4.206-2.716-8.036-6.906-8.535l-90.948-10.982c-4.184-.51-7.884,2.502-8.255,6.717l-5.379,61.031c-.371,4.215,2.727,8.043,6.909,8.544l90.945,10.972c4.193.508,7.884-2.502,8.255-6.717l5.379-61.031Z"/>
    <path class="st4" d="M433.774,175.975c16.257-4.556,33.303,5.571,38.076,22.604s-4.528,34.543-20.785,39.098-33.301-5.562-38.076-22.604,4.528-34.543,20.785-39.098ZM457.826,202.76l-.178-.635c-.67-2.392-1.613-4.496-2.82-6.324-1.222-1.844-2.679-3.34-4.357-4.472-1.687-1.129-3.579-1.839-5.678-2.137-2.104-.317-4.383-.142-6.831.544s-4.458,1.713-6.072,3.072c-1.638,1.346-2.876,2.932-3.722,4.771-.854,1.842-1.313,3.875-1.398,6.085-.091,2.192.207,4.477.877,6.869l.178.635c.662,2.364,1.595,4.47,2.818,6.315,1.217,1.825,2.665,3.324,4.357,4.472,1.678,1.132,3.569,1.841,5.68,2.147,2.108.296,4.382.102,6.811-.579s4.472-1.697,6.101-3.04c1.617-1.35,2.855-2.936,3.71-4.778.84-1.858,1.307-3.893,1.398-6.085.077-2.208-.212-4.495-.874-6.859Z"/>
    <path class="st4" d="M459.708,268.519c16.257-4.556,33.301,5.562,38.074,22.594s-4.528,34.543-20.785,39.098c-4.064,1.139-8.173,1.363-12.135.781l-2.299-8.203,8.418-2.359-3.721-13.277c.752.525,1.563.902,2.411,1.158,1.392.436,2.901.427,4.517-.026,1.728-.484,3.137-1.282,4.244-2.368,1.132-1.103,1.937-2.437,2.465-4.006.518-1.566.747-3.303.717-5.209-.049-1.901-.373-3.886-.955-5.96l-.154-.551c-.607-2.168-1.372-4.069-2.318-5.719-.965-1.644-2.061-2.969-3.324-3.986-1.249-1.041-2.636-1.71-4.144-2.023-1.502-.325-3.11-.237-4.838.247-1.635.458-2.922,1.222-3.895,2.281-.682.766-1.229,1.654-1.638,2.676l-1.019-2.556-7.83,2.194-2.566-9.156c3.085-2.547,6.712-4.491,10.777-5.63Z"/>
    <path class="st4" d="M507.674,363.524c7.505,3.983,13.504,11.079,16.041,20.133s1.099,18.233-3.246,25.527l-4.2-2.652-15.903-16.403,4.869-21.891,2.438-4.714Z"/>
    <path class="st4" d="M507.674,363.524l-2.438,4.714-10.063,2.82-2.406,14.429-9.563-11.075-10.091,2.828,15.583,16.16-5.101,22.288,10.184-2.854,2.527-14.715,9.796,11.262,10.165-2.849,4.2,2.652c-3.837,6.446-9.918,11.425-17.542,13.562-16.257,4.556-33.301-5.562-38.074-22.594-4.776-17.042,4.528-34.543,20.785-39.098,7.624-2.136,15.405-1.052,22.035,2.471Z"/>
    <polygon class="st4" points="433.943 104.624 434.427 106.352 431.652 107.13 433.773 114.698 431.549 115.321 429.429 107.753 426.71 108.515 426.225 106.786 433.943 104.624"/>
    <path class="st9" d="M534.781,468.919l17.558,62.655-93.814,26.29-17.558-62.655c-.647-2.308.577-4.666,2.735-5.271l85.994-24.098c2.168-.607,4.438.772,5.085,3.079Z"/>
    <polygon class="st9" points="500.367 390.129 516.27 406.531 506.104 409.38 496.308 398.119 493.781 412.834 483.597 415.687 488.697 393.399 473.114 377.239 483.205 374.412 492.768 385.487 495.174 371.058 505.236 368.238 500.367 390.129"/>
    <path class="st9" d="M457.648,202.125l.178.635c.662,2.364.951,4.651.874,6.859-.091,2.192-.559,4.228-1.398,6.085-.854,1.842-2.093,3.428-3.71,4.778-1.629,1.343-3.663,2.357-6.101,3.04s-4.703.874-6.811.579c-2.111-.305-4.003-1.015-5.68-2.147-1.692-1.148-3.14-2.647-4.357-4.472-1.222-1.844-2.155-3.951-2.818-6.315l-.178-.635c-.67-2.392-.968-4.676-.877-6.869.086-2.211.544-4.244,1.398-6.085.845-1.839,2.083-3.425,3.722-4.771,1.614-1.359,3.633-2.389,6.072-3.072s4.727-.861,6.831-.544c2.099.299,3.991,1.008,5.678,2.137,1.678,1.132,3.135,2.628,4.357,4.472,1.208,1.828,2.15,3.932,2.82,6.324ZM448.147,205.473l-.178-.635c-.333-1.187-.728-2.275-1.199-3.272-.467-1.018-1.027-1.869-1.645-2.562-.642-.707-1.364-1.2-2.184-1.464s-1.745-.257-2.782.034c-1.009.283-1.803.757-2.366,1.409-.544.646-.896,1.44-1.058,2.372-.186.919-.204,1.932-.083,3.046.125,1.094.353,2.229.685,3.416l.178.635c.343,1.224.747,2.34,1.213,3.358.476,1.015,1.018,1.871,1.654,2.559.612.675,1.324,1.13,2.139,1.376.82.264,1.749.235,2.777-.053,1.018-.285,1.799-.736,2.343-1.382.568-.633.94-1.392,1.131-2.292.167-.913.204-1.932.074-3.044-.121-1.115-.356-2.278-.699-3.502Z"/>
    <path class="st9" d="M480.503,290.191l.154.551c.581,2.074.906,4.059.955,5.96.03,1.906-.198,3.643-.717,5.209-.528,1.569-1.333,2.903-2.465,4.006-1.106,1.086-2.515,1.884-4.244,2.368-1.616.453-3.125.463-4.517.026-.848-.256-1.659-.634-2.411-1.158l3.721,13.277-8.418,2.359-.056.016-11.065-39.484.056-.016,7.83-2.194,1.019,2.556c.409-1.022.956-1.91,1.638-2.676.973-1.059,2.26-1.823,3.895-2.281,1.728-.484,3.336-.572,4.838-.247,1.509.313,2.895.982,4.144,2.023,1.262,1.017,2.359,2.342,3.324,3.986.946,1.65,1.711,3.551,2.318,5.719ZM472.193,293.114l-.154-.551c-.312-1.112-.676-2.088-1.075-2.974-.409-.883-.889-1.625-1.414-2.204-.502-.605-1.078-1.008-1.718-1.242-.653-.21-1.357-.204-2.142.016-.916.257-1.631.618-2.166,1.081-.529.45-.892,1.026-1.088,1.726-.049.185-.088.367-.116.557l3.152,11.249c.453.538.999.939,1.613,1.19.86.374,1.883.389,3.097.049.813-.228,1.421-.61,1.844-1.152.432-.544.695-1.223.826-2.015.116-.808.11-1.693-.021-2.664s-.336-1.992-.638-3.066Z"/>
    <path class="st4" d="M447.969,204.837l.178.635c.343,1.224.578,2.387.699,3.502.13,1.112.093,2.13-.074,3.044-.191.9-.563,1.659-1.131,2.292-.544.646-1.325,1.097-2.343,1.382-1.028.288-1.957.317-2.777.053-.814-.245-1.527-.701-2.139-1.376-.636-.688-1.178-1.544-1.654-2.559-.467-1.018-.87-2.134-1.213-3.358l-.178-.635c-.333-1.187-.56-2.322-.685-3.416-.121-1.115-.102-2.128.083-3.046.162-.932.514-1.726,1.058-2.372.563-.652,1.357-1.126,2.366-1.409,1.037-.291,1.962-.298,2.782-.034s1.542.757,2.184,1.464c.618.694,1.178,1.544,1.645,2.562.471.997.866,2.085,1.199,3.272Z"/>
    <path class="st4" d="M472.038,292.563l.154.551c.301,1.074.507,2.095.638,3.066s.137,1.856.021,2.664c-.131.792-.394,1.471-.826,2.015-.423.542-1.031.924-1.844,1.152-1.215.34-2.237.325-3.097-.049-.614-.251-1.16-.652-1.613-1.19l-3.152-11.249c.028-.189.067-.372.116-.557.197-.7.56-1.275,1.088-1.726.535-.462,1.25-.824,2.166-1.081.785-.22,1.489-.226,2.142-.016.64.234,1.216.637,1.718,1.242.525.578,1.005,1.321,1.414,2.204.399.886.764,1.862,1.075,2.974Z"/>
    <path class="st4" d="M462.562,322.789l2.299,8.203c-11.879-1.72-22.359-10.603-25.941-23.384-3.579-12.772.759-25.808,10.011-33.459l2.566,9.156-.056.016,11.065,39.484.056-.016Z"/>
    <path class="st9" d="M428.442,513.663c4.191.498,7.279,4.329,6.906,8.535l-5.379,61.031c-.371,4.215-4.062,7.225-8.255,6.717l-90.945-10.972c-4.181-.501-7.279-4.329-6.909-8.544l5.379-61.031c.371-4.215,4.071-7.227,8.255-6.717l90.948,10.982ZM425.085,551.807c.371-4.215-2.718-8.045-6.911-8.553-4.181-.501-7.884,2.502-8.246,6.714-.38,4.218,2.716,8.036,6.899,8.547,4.193.508,7.884-2.502,8.258-6.708Z"/>
    <path class="st4" d="M418.173,543.254c4.193.508,7.282,4.338,6.911,8.553-.373,4.206-4.064,7.215-8.258,6.708-4.184-.51-7.279-4.329-6.899-8.547.361-4.213,4.064-7.215,8.246-6.714Z"/>
    <path class="st4" d="M318.809,579.513l.003.009,2.498,29.591c.789,9.251-5.768,17.246-14.66,17.843l-48.241,3.19c-5.045.336-9.75-1.782-13.016-5.381-1.697,1.604-4.008,2.957-7.101,3.824l-31.271,8.763c1.56,5.569,3.385,9.562,5.473,11.979l5.858-1.642c2.149-.602,4.441.781,5.085,3.079l-54.732,15.338c-.644-2.298.577-4.666,2.744-5.273l5.858-1.642c.528-3.151.011-7.51-1.549-13.079l-31.271,8.763s-15.64,4.383-20.322-12.323l-6.284-22.424-.139-.495.172.073-7.763-27.702s-.859-3.065-.607-6.914c.015-.236.041-.465.065-.703.206-1.71.647-3.517,1.49-5.254,1.569-3.281,4.548-6.283,9.976-7.804l93.805-26.287s15.64-4.383,20.324,12.332l1.254,4.475-4.057-48.028c-.782-9.263,2.047-16.213,10.925-16.786l51.992-4.261c8.878-.573,16.712,6.452,17.491,15.706l4.327,51.257.003.009,1.67,19.766ZM304.768,509.02c-.39-4.627-4.308-8.144-8.749-7.847l-48.241,3.19c-4.441.297-7.726,4.291-7.333,8.927l7.597,89.893,1.21,4.317s1.199,4.279.355,9.07c1.344,3.251,4.556,5.434,8.088,5.2l48.245-3.211c4.441-.297,7.728-4.282,7.336-8.918l-8.507-100.622ZM240.102,604.986l-12.727-45.417c-.759-2.71-1.783-4.025-2.539-4.71-.788-.726-1.776-1.195-2.958-1.458-1.213-.265-2.454-.27-3.454-.171-.481.044-.854.118-1.086.153-.087.014-.152.033-.18.04l-93.74,26.269c-2.541.712-3.75,1.756-4.371,2.525-.657.819-1.076,1.843-1.281,3.09-.206,1.277-.162,2.585-.033,3.657.052.509.134.91.171,1.151.029.103.045.159.046.199l14.026,50.051c.762,2.719,1.792,4.022,2.537,4.7.812.74,1.791,1.211,2.97,1.465,1.222.262,2.463.267,3.463.168.481-.044.856-.109,1.083-.162.089-.005.145-.021.183-.031l93.74-26.269c2.541-.712,3.75-1.756,4.371-2.525.343-.429.619-.919.83-1.462-.116-.592-.203-1.193-.244-1.806l-.806-9.458Z"/>
    <path class="st9" d="M296.019,501.174c4.441-.297,8.359,3.22,8.749,7.847l8.507,100.622c.392,4.636-2.895,8.621-7.336,8.918l-48.245,3.211c-3.532.234-6.744-1.95-8.088-5.2.844-4.791-.355-9.07-.355-9.07l-1.21-4.317-7.597-89.893c-.392-4.636,2.892-8.63,7.333-8.927l48.241-3.19ZM288.449,602.854c-.399-4.624-4.317-8.142-8.749-7.847-4.441.297-7.728,4.282-7.345,8.921.399,4.624,4.317,8.142,8.758,7.844,4.441-.297,7.728-4.282,7.336-8.918Z"/>
    <path class="st4" d="M279.7,595.008c4.432-.295,8.35,3.223,8.749,7.847.392,4.636-2.895,8.621-7.336,8.918-4.441.297-8.359-3.22-8.758-7.844-.383-4.639,2.904-8.623,7.345-8.921Z"/>
    <path class="st9" d="M227.375,559.569l12.727,45.417.806,9.458c.041.613.128,1.214.244,1.806-.211.543-.486,1.033-.83,1.462-.621.769-1.83,1.813-4.371,2.525l-93.74,26.269c-.037.01-.093.026-.183.031-.227.053-.602.118-1.083.162-1,.099-2.241.094-3.463-.168-1.18-.254-2.158-.725-2.97-1.465-.744-.678-1.775-1.982-2.537-4.7l-14.026-50.051c-.001-.04-.017-.096-.046-.199-.037-.241-.119-.642-.171-1.151-.129-1.072-.173-2.38.033-3.657.205-1.246.623-2.271,1.281-3.09.621-.769,1.83-1.813,4.371-2.525l93.74-26.269c.028-.008.093-.026.18-.04.232-.035.604-.109,1.086-.153,1-.099,2.241-.094,3.454.171,1.182.263,2.17.732,2.958,1.458.756.685,1.78,2,2.539,4.71Z"/>
    <path class="st4" d="M114.524,397.355l-5.643,1.581c-.12-.43-.402-.824-.821-1.06l-14.723-8.632c-.831-.483-1.858-.195-2.308.647-.114.203-.181.434-.201.651l-4.473-.067.129-8.42c.013-.961-.731-1.78-1.676-1.808-.938-.039-1.712.722-1.725,1.683l-.596,38.832-4.473-.067c-.058-.568-.358-1.099-.875-1.397l-13.248-7.755,7.289-13.51c.452-.832.148-1.916-.67-2.392-.821-.485-1.858-.195-2.308.647l-8.093,15.025c-.235.419-.271.902-.151,1.332l-5.643,1.581c-4.883-17.425,4.64-35.33,21.252-39.985,16.631-4.66,34.072,5.688,38.955,23.113Z"/>
    <path class="st4" d="M108.881,398.936l5.643-1.581c4.883,17.425-4.64,35.33-21.271,39.99-16.612,4.655-34.053-5.693-38.936-23.118l5.643-1.581c.12.43.402.824.821,1.06l14.723,8.632c.821.485,1.858.195,2.308-.647.166-.308.229-.659.205-.995l4.473.067-.134,8.764c-.013.961.731,1.78,1.666,1.81.947.037,1.722-.724,1.735-1.685l.6-39.176,4.473.067c-.07.685.256,1.379.871,1.741l13.238,7.758-7.279,13.507c-.452.832-.148,1.916.67,2.392.821.485,1.849.197,2.308-.647l8.093-15.025c.235-.419.271-.902.151-1.332Z"/>
    <path class="st9" d="M108.06,397.876c.419.235.701.63.821,1.06s.085.913-.151,1.332l-8.093,15.025c-.459.844-1.487,1.132-2.308.647-.819-.476-1.122-1.56-.67-2.392l7.279-13.507-13.238-7.758c-.615-.362-.941-1.056-.871-1.741.02-.217.086-.447.201-.651.449-.841,1.477-1.129,2.308-.647l14.723,8.632Z"/>
    <path class="st4" d="M51.173,283.192c16.257-4.556,33.303,5.571,38.076,22.604s-4.528,34.543-20.785,39.098c-16.257,4.556-33.301-5.562-38.076-22.604s4.528-34.543,20.785-39.098ZM76.365,309.406c-.223-.794-.499-1.563-.819-2.31l-9.686,7.329,8.045,10.332c2.931-4.248,4.002-9.848,2.46-15.351ZM56.347,308.778l12.416-9.848c-3.992-2.63-8.968-3.594-13.817-2.235-9.147,2.563-14.38,12.404-11.694,21.99.605,2.158,1.569,4.125,2.779,5.852l-5.518,8.429c3.776,4.162,8.697,7.086,14.034,8.331l3.951-9.38c2.026.218,4.098.061,6.172-.52,2.401-.673,4.532-1.844,6.317-3.383l-8.27-10.631-6.371-8.604Z"/>
    <path class="st4" d="M103.037,468.27c16.257-4.556,33.301,5.562,38.076,22.604,4.773,17.033-4.531,34.533-20.788,39.089s-33.301-5.562-38.074-22.594c-4.776-17.042,4.528-34.543,20.785-39.098ZM130.795,507.127l-3.566-12.725c-.932-3.326-3.909-4.961-6.884-5.074l-1.597-5.699c-1.642-5.858-7.496-9.347-13.084-7.781s-8.786,7.591-7.144,13.449l1.597,5.699c-2.491,1.645-4.186,4.589-3.254,7.915l3.566,12.725c1.21,4.317,5.891,5.776,9.535,4.755l15.173-4.252c3.625-1.016,6.867-4.695,5.657-9.012Z"/>
    <path class="st9" d="M75.546,307.096c.32.747.596,1.516.819,2.31,1.542,5.503.471,11.104-2.46,15.351l-8.045-10.332,9.686-7.329Z"/>
    <path class="st9" d="M127.229,494.402l3.566,12.725c1.21,4.317-2.032,7.996-5.657,9.012l-15.173,4.252c-3.644,1.021-8.325-.438-9.535-4.755l-3.566-12.725c-.932-3.326.762-6.27,3.254-7.915l-1.597-5.699c-1.642-5.858,1.557-11.884,7.144-13.449s11.442,1.923,13.084,7.781l1.597,5.699c2.974.114,5.952,1.748,6.884,5.074ZM115.178,490.342l-1.485-5.298c-.822-2.934-3.748-4.673-6.542-3.89s-4.399,3.792-3.577,6.726l1.485,5.298,10.119-2.836Z"/>
    <path class="st9" d="M68.763,298.93l-12.416,9.848,6.371,8.604,8.27,10.631c-1.786,1.538-3.916,2.71-6.317,3.383-2.074.581-4.146.739-6.172.52l-3.951,9.38c-5.337-1.245-10.258-4.169-14.034-8.331l5.518-8.429c-1.209-1.727-2.174-3.694-2.779-5.852-2.686-9.586,2.547-19.426,11.694-21.99,4.849-1.359,9.825-.395,13.817,2.235ZM60.674,323.104l-1.09-1.66-2.68,1.87,1.223-4.051c.118-.406-.02-.861-.352-1.111-.328-.271-.776-.286-1.113-.051l-2.68,1.87,1.22-4.06c.118-.406-.017-.852-.352-1.111-.332-.25-.773-.277-1.117-.03l-4.973,3.469,1.102,1.666,2.678-1.879-1.22,4.06c-.13.399.014.842.342,1.113.335.259.785.284,1.11.042l2.69-1.872-1.23,4.063c-.127.409.026.849.349,1.101.325.262.785.284,1.113.051l4.98-3.481Z"/>
    <path class="st9" d="M84.81,380.248c.945.027,1.688.847,1.676,1.808l-.129,8.42-.6,39.176c-.013.961-.787,1.722-1.735,1.685-.935-.03-1.679-.85-1.666-1.81l.134-8.764.596-38.832c.013-.961.787-1.722,1.725-1.683Z"/>
    <path class="st4" d="M113.693,485.044l1.485,5.298-10.119,2.836-1.485-5.298c-.822-2.934.783-5.943,3.577-6.726s5.72.957,6.542,3.89Z"/>
    <path class="st4" d="M59.584,321.444l1.09,1.66-4.98,3.481c-.328.233-.787.211-1.113-.051-.323-.252-.476-.693-.349-1.101l1.23-4.063-2.69,1.872c-.325.242-.775.217-1.11-.042-.328-.271-.472-.714-.342-1.113l1.22-4.06-2.678,1.879-1.102-1.666,4.973-3.469c.344-.247.785-.22,1.117.03.335.259.47.705.352,1.111l-1.22,4.06,2.68-1.87c.337-.236.785-.22,1.113.051.332.25.47.705.352,1.111l-1.223,4.051,2.68-1.87Z"/>
    <path class="st9" d="M77.141,419.298c.517.299.817.829.875,1.397.024.336-.039.686-.205.995-.449.841-1.487,1.132-2.308.647l-14.723-8.632c-.419-.235-.701-.63-.821-1.06s-.085-.913.151-1.332l8.093-15.025c.449-.841,1.487-1.132,2.308-.647.819.476,1.122,1.56.67,2.392l-7.289,13.51,13.248,7.755Z"/>
    <path class="st8" d="M106.905,538.167l5.933,21.172c-3.215,3.884-4.512,9.356-3.004,14.738l1.299,4.634c-.905,1.876-1.351,3.845-1.523,5.677-.024.238-.05.468-.065.703-.347,4.047.575,7.336.575,7.336l7.624,27.207c-13.451-5.28-24.494-16.927-28.822-32.372l-21.352-76.193,7.362-2.063c4.43,15.809,17.321,26.858,31.973,29.161Z"/>
    <path class="st8" d="M80.974,445.633l6.121,21.844c-11.319,9.591-16.594,25.721-12.164,41.529l-7.362,2.063-25.931-92.534,7.362-2.063c4.43,15.809,17.321,26.858,31.973,29.161Z"/>
    <path class="st8" d="M55.043,353.099l6.119,21.835c-11.317,9.6-16.594,25.721-12.161,41.539l-7.362,2.063-25.931-92.534,7.362-2.063c4.43,15.809,17.319,26.849,31.973,29.161Z"/>
    <path class="st4" d="M109.544,585.091c-.251,3.849.607,6.914.607,6.914l7.763,27.702-.172-.073-7.624-27.207s-.922-3.289-.575-7.336Z"/>
  </g>
  <g>
    <path class="st12" d="M207.6,285.981l41.236-11.556,33.206,118.496c3.081,10.993,3.295,21.509.645,31.546-2.651,10.04-7.847,18.702-15.59,25.988-7.742,7.287-17.191,12.494-28.344,15.619-18.694,5.238-34.554,4.566-47.581-2.018-13.027-6.584-21.978-18.572-26.854-35.97l41.472-11.622c2.216,7.907,5.177,13.261,8.884,16.059,3.707,2.8,8.741,3.308,15.104,1.525,5.732-1.606,9.548-4.998,11.443-10.18,1.895-5.178,1.757-11.641-.415-19.393l-33.206-118.496Z"/>
    <path class="st12" d="M386.254,378.386c-1.509-5.387-4.579-9.053-9.209-11-4.63-1.945-12.154-3.194-22.575-3.746-10.422-.549-19.075-1.48-25.963-2.796-22.389-4.211-35.964-14.819-40.728-31.816-2.372-8.464-2.015-16.618,1.07-24.462,3.085-7.843,8.605-14.821,16.558-20.937,7.954-6.114,17.523-10.739,28.71-13.874,10.908-3.057,21.238-3.838,30.986-2.345,9.749,1.494,18.034,5.188,24.857,11.084,6.823,5.896,11.539,13.497,14.146,22.801l-36.479,10.223c-1.744-6.226-4.991-10.522-9.738-12.889-4.749-2.365-10.352-2.645-16.814-.834-6.532,1.831-11.284,4.729-14.257,8.692-2.974,3.965-3.832,8.187-2.578,12.661,1.098,3.919,4.178,6.884,9.238,8.898,5.061,2.015,13.312,3.249,24.755,3.701,11.442.454,21.083,1.694,28.92,3.721,19.064,4.92,30.939,15.738,35.624,32.455,3.744,13.362,1.682,25.258-6.188,35.685-7.869,10.43-20.523,18.087-37.963,22.974-12.299,3.446-24.057,4.348-35.271,2.698-11.215-1.647-20.425-5.631-27.629-11.949-7.204-6.316-12.216-14.514-15.039-24.586l36.687-10.28c2.294,8.184,6.085,13.629,11.378,16.332,5.291,2.705,12.662,2.732,22.112.084,6.045-1.693,10.453-4.344,13.228-7.95,2.773-3.606,3.494-7.787,2.161-12.544Z"/>
  </g>
  <circle class="st3" cx="65.092" cy="21.382" r="8.369"/>
</svg>