<svg xmlns="http://www.w3.org/2000/svg" viewBox="0 0 504.5 504.9"><g class="jsopx-icon-wrapper"><path d="M.25,400.87V103.74c0-26.61,20.02-48.3,45.13-49.48L374.31,1.56c29.83-7.81,82.69,20.43,82.69,52.66,26.1,0,47.25,22.17,47.25,49.52v297.13c0,16.76-7.95,31.58-20.11,40.53-1.22-7.89,3.53-39.17-4.3-44.49.59-6.59-1.7-13.64-7.09-17.1v-22.66c30.99-12.86,30.98-62.8,0-75.66v-23.38c30.99-12.86,30.98-62.8,0-75.67v-23.37c50.51-24.34,10.91-104.14-38.06-71.84H69.82C20.8,54.92-18.71,134.76,31.75,159.07v23.37c-30.98,12.88-30.97,62.82,0,75.67v23.38c-30.98,12.87-30.97,62.81,0,75.66v22.66c-6.01,3.73-7.7,11.77-7.08,18.75-8.5,10.82-3.33,31.2-4.67,42.57C8.04,432.15.25,417.47.25,400.87ZM409.59,54.62v-7.26c0-10.74-41.23-6.73-51.18-4.13l-183.12,11.39h234.3Z" fill="#4e7bbe"></path><path d="M358.47,487.89c0,7.4,5.61,13.41,12.54,13.41h108.77c6.93,0,12.56-6,12.56-13.41h-133.87Z" fill="#426db5"></path><path d="M456.84,154.66c41.19-.17,41.19-65.87,0-66.04-41.18.17-41.17,65.87,0,66.04ZM441.15,121.2c-.87-24.1,33.79-23.31,32.11.68.88,24.07-33.79,23.29-32.11-.68Z" fill="#426db5"></path><path d="M456.84,253.7c41.19-.17,41.19-65.87,0-66.04-41.18.17-41.17,65.87,0,66.04ZM444.52,200.06h8.44l.3,2.81c8.21-9.36,19.77,1.86,18.19,12.09,1.62,9.98-9.07,22.23-17.86,13.15v14.21h-9.07v-42.26Z" fill="#426db5"></path><path d="M456.84,352.74c41.19-.17,41.19-65.87,0-66.04-41.18.17-41.17,65.87,0,66.04ZM439.92,299.28h10.8l6.41,13.65,6.41-13.65h10.76l-10.92,20.37,11.22,20.7h-10.88l-6.6-13.9-6.6,13.9h-10.9l11.26-20.7-10.96-20.37Z" fill="#426db5"></path><path d="M452.72,128.56c1.59,3.58,7.38,3.57,8.98,0,1.48-3.18,1.38-7.46.92-10.93-.02-5.43-7.36-8.3-9.9-3-1.71,4.1-1.7,9.84,0,13.93Z" fill="#426db5"></path><path d="M457.93,223.82c6.07-.74,4.85-10.52,3.44-14.69-1.24-3.26-6.56-2.93-7.77.11,0,0,0,12.04,0,12.04.83,1.74,2.23,2.55,4.33,2.54Z" fill="#426db5"></path><path d="M339.22,448.76c-9.57-4.01-14.92,11.16-5.58,14.77,9.58,4.03,14.94-11.16,5.58-14.77Z" fill="#426db5"></path><path d="M366.84,442.41l2.26-5.98c-3.76,2.58-1.86,42.68-2.26,46.99h117.14v-41.62c-1.41-7.89,3.66-39.17-4.3-44.49-1.25-6.84-95.39-1.92-100.3-3.32-13.89.52-12.88,15.37-12.54,25.71.81,1.02,1.49,2.14,2.04,3.31-.55-1.17-1.23-2.29-2.04-3.3h0c2.69-3.57-91.27-38.98-93.61-41.04-8.03-3.32-17.04.58-20.12,8.74-5.18,13.65-22.1,55.45-22.58,69.7-1.22,12.1,89.15,40.93,96.43,46.35,8.03,3.34,17.04-.58,20.12-8.74,0,0,19.76-52.31,19.76-52.31ZM375.21,407.42c0-2.48,1.87-4.47,4.18-4.47h92.04c2.32,0,4.19,1.99,4.19,4.47v67.05h-100.41v-67.05ZM362.12,432.64l-22.31,59.07c-1.53,4.08-6.04,6.04-10.06,4.37l-87.2-36.18c-4.01-1.67-6.01-6.33-4.48-10.4l22.31-59.07c1.55-4.08,6.05-6.04,10.06-4.37l87.2,36.19c4.02,1.66,6.03,6.32,4.48,10.39Z" fill="#426db5"></path><path d="M230.8,446.49l2.09-5.53c-2.04,4.9-4.36,11.01-2.36,16.16,2.63-13.15,11.06-58.24,13.8-72.16,1.8-9.41-4.02-18.56-12.99-20.45-76.37-13.91-62.26-25.3-77.62,52.18,2.24-19.25-12.56-23-16.74-22.68-8.29,1.98-109.38-5.12-112.47,4.96-4.67,5.3-4.67,12.93-4.67,12.93.06,13.26-.04,40.5,0,53.65.49,27.28,35.78,15.42,50.21,17.89,0,5.96-.69,10.43-2.09,13.41-3.58.09-10.59-1.18-10.46,4.47h58.58c.12-5.65-6.89-4.38-10.46-4.47-1.4-2.98-2.09-7.45-2.09-13.41,6.08-.59,36.7,1.63,41.57-1.83,2.24,4.48,6.33,7.9,11.42,8.96l48.76,10.25c22.92,4.46,21.26-29.79,25.26-43.69-1.06-3.38-1.06-7.11.27-10.63ZM145.35,460.5c-.24,1.39-2.05,10.26-2.09,11.47-1.63,1.88-2.55,2.31-6.27,2.51,0,0-100.33,0-100.33,0-1.48-.1-3.16-.47-4.69-1.29-3-1.92-3.49-3.04-3.75-7.65,1.24-5.76-3.29-58.46,3.34-61.3,3.47-2.36,106.7-2.15,110.06,0,2.98,1.94,3.49,3.05,3.74,7.65,0,0,0,48.61,0,48.61ZM216.67,485.47c-.91,4.7-5.28,7.75-9.77,6.81l-48.76-10.24c-3.57-.75-6.15-3.81-6.59-7.4,1.07-3.79,17.6-97.49,19.63-105.04.89-4.7,5.26-7.76,9.75-6.82l48.76,10.25c4.49.94,7.4,5.52,6.5,10.23l-19.53,102.22Z" fill="#426db5"></path><path d="M187.42,461.61c-10.63-2.34-13.75,15.07-3.26,17.04,10.63,2.34,13.73-15.07,3.26-17.04Z" fill="#426db5"></path><path d="M47.35,154.66c41.18-.17,41.17-65.87,0-66.04-41.19.17-41.19,65.87,0,66.04ZM65.06,121.64c0,5.89-2.62,11.14-6.71,14.55l-5.11-12.49,11.65-4.58c.11.83.17,1.67.17,2.52ZM30.75,128.22c-7-18.34,16.66-34.29,29.68-19.08l-15.06,6.32c2.09,5.71,6.82,17.5,9.18,23.16-4.05,1.96-9.32,2.13-13.48.4l-6.53,8.21c-4.95-2.72-9.02-6.99-11.61-12.17l7.83-6.83Z" fill="#426db5"></path><path d="M47.35,352.74c41.18-.17,41.17-65.87,0-66.04-41.19.17-41.19,65.87,0,66.04ZM31.59,319.37c0-3.56,2.5-6,5.42-6.94-.93-7.84,1.54-17.47,10.83-17.46,9.28-.01,11.75,9.63,10.82,17.46,8.01,1.57,4.85,15.01,5.42,20.56,0,4.63-4.23,7.37-8.12,7.37-21.36-.35-25.8,4.05-24.37-20.99Z" fill="#426db5"></path><path d="M46.24,253.3c42.13-.18,42.13-67.36,0-67.54-42.33.74-42.32,66.81,0,67.54ZM57.23,208.15c-1.61-1.57.83-4.27,2.46-2.56,0,0,12.22,12.67,12.22,12.67.68.71.68,1.85,0,2.55l-12.22,12.67c-1.63,1.69-4.08-.98-2.46-2.56,0,0,10.98-11.38,10.98-11.38l-10.98-11.38ZM37.59,242.51l13.97-47.03c.28-.95,1.25-1.49,2.17-1.2,4.3-.98-13.48,48.47-12.8,49.29-.65,2.26-4.04,1.16-3.34-1.06ZM20.58,218.25l12.22-12.67c1.62-1.7,4.08.98,2.46,2.56,0,0-10.99,11.38-10.99,11.38l10.99,11.38c1.61,1.58-.84,4.27-2.46,2.56,0,0-12.22-12.67-12.22-12.67-.68-.71-.68-1.85,0-2.55Z" fill="#426db5"></path><path d="M53.25,306.32c-.65-8.18-12.87-8.78-10.83,5.67h10.83v-5.67Z" fill="#426db5"></path><path d="M39.02,123.57c-2.55,3.77-4.62,6.88,1.97,4.13-5.7,7.84-.17,4.82,4.69,3.17l-.63-1.95-3.18,1.11c2.56-3.77,4.6-6.88-1.97-4.13,5.68-7.85.17-4.8-4.69-3.17l.63,1.96,3.18-1.12Z" fill="#426db5"></path><path fill="#426db5" d="M471.5 27.81L473.89 27.81 473.89 19.71 476.85 19.71 476.85 17.86 468.59 17.86 468.59 19.71 471.5 19.71 471.5 27.81z"></path><path d="M480.27,25.48l-.23-4.76,2.4,7.09h1.58l2.39-7.08c-.08,1.55-.29,5.58-.23,7.08h2.39v-9.95h-3.14l-2.2,6.92-2.21-6.92h-3.13v9.95h2.38v-2.32Z" fill="#426db5"></path><path d="M138.47,247.35h15.67l21.19,42.75h31v-1.25l-25.06-48.8c24.06-9.19,28.28-46.09,8.9-61.28-15.11-14.47-60.37-8.32-80.64-9.53v120.86h28.94v-42.75ZM138.47,191.65c13.83.19,35.62-3.74,34.88,16.73.8,20.41-21.16,16.31-34.88,16.56v-33.29Z" fill="#426db5"></path><path d="M258.9,291.57c22.76.72,43.47-14.12,43.85-37.62h-25.42c1.8,18.43-24.84,23.4-33.11,10.12-3.78-5.14-4.63-21.51-4.26-31.97.15-10.51,1.7-18.16,4.66-22.95,4.56-9.22,21.81-8.88,27.97-2.93,3.06,2.84,4.69,7.51,4.88,14.01h25.5c-1.31-43.84-67.1-52.65-83.59-13.82-13.51,33.54-4.89,86.46,39.52,85.18Z" fill="#426db5"></path><path fill="#426db5" d="M385.66 270.3L341.15 270.3 341.15 183.33 315.59 183.33 315.59 290.1 385.66 290.1 385.66 270.3z"></path><path fill="#426db5" d="M356.68 196.42L360.08 189.86 363.54 196.42 370.71 196.42 364.62 185.04 370.43 174.23 363.3 174.23 360.1 180.34 357.01 174.23 349.79 174.23 355.58 185.04 349.47 196.42 356.68 196.42z"></path><path d="M380.21,190.84h9.8l1.73,5.58h7.68l-10.96-29.86h-6.72l-10.88,29.86h7.64l1.71-5.58ZM385.1,174.93l3.2,10.36h-6.38l3.18-10.36Z" fill="#426db5"></path></g></svg>