<?xml version="1.0" encoding="UTF-8"?><svg id="a" xmlns="http://www.w3.org/2000/svg" viewBox="0 0 504.5 504.9"><path d="M504.25,103.74v297.13c0,16.76-7.95,31.58-20.11,40.53v-34.38c0-4.04-1.67-7.65-4.3-10.11v-3.31c0-5.76-2.81-10.83-7.09-13.79v-22.66c13.91-6.36,23.63-20.91,23.63-37.83s-9.72-31.46-23.63-37.83v-23.38c13.91-6.36,23.63-20.91,23.63-37.83s-9.72-31.46-23.63-37.84v-23.37c13.91-6.37,23.63-20.91,23.63-37.83,0-22.8-17.63-41.28-39.38-41.28-8.28,0-15.97,2.69-22.31,7.27H69.82c-6.34-4.58-14.04-7.27-22.31-7.27-21.75,0-39.38,18.48-39.38,41.28,0,16.92,9.72,31.46,23.62,37.83v23.37c-13.9,6.38-23.62,20.91-23.62,37.84s9.72,31.47,23.62,37.83v23.38c-13.9,6.37-23.62,20.91-23.62,37.83s9.72,31.47,23.62,37.83v22.66c-4.27,2.96-7.08,8.03-7.08,13.79v4.96c-4.67,5.3-4.67,12.92-4.67,12.92v29.65C8.04,432.15.25,417.47.25,400.87V103.74c0-26.61,20.02-48.3,45.13-49.48L374.31,1.56c29.83-7.81,82.69,20.43,82.69,52.66,26.1,0,47.25,22.17,47.25,49.52ZM409.59,54.62v-7.26c0-10.74-41.23-6.73-51.18-4.13l-183.12,11.39h234.3Z" style="fill:#fff;"/><path d="M57.23,233.47c.68.71,1.78.71,2.46,0l12.22-12.67c.68-.71.68-1.85,0-2.55l-12.22-12.67c-.68-.71-1.78-.71-2.46,0-.68.71-.68,1.86,0,2.56l10.98,11.38-10.98,11.38c-.68.71-.68,1.86,0,2.56Z" style="fill:none;"/><path d="M34.54,147.22l6.53-8.21c1.95.77,4.05,1.2,6.27,1.2,2.56,0,5.01-.57,7.21-1.6l-5.25-12.85-3.93-10.32,15.06-6.32c-3.24-3.72-7.91-6.06-13.09-6.06-9.79,0-17.72,8.31-17.72,18.57,0,2.31.4,4.52,1.13,6.57l-7.83,6.83c2.6,5.19,6.66,9.45,11.61,12.17ZM41.11,120.67c.4-.15.84,0,1.1.35.26.35.27.83.03,1.2l-2.34,3.68,3.18-1.11c.4-.13.84,0,1.1.36.26.35.27.83.03,1.2l-2.34,3.68,3.18-1.11.63,1.95-5.91,2.07c-.39.13-.84-.01-1.09-.36-.26-.35-.28-.83-.04-1.2l2.35-3.68-3.19,1.11c-.39.15-.83,0-1.09-.35-.26-.36-.27-.84-.03-1.2l2.34-3.7-3.18,1.12-.63-1.96,5.9-2.06Z" style="fill:none;"/><path d="M39.72,340.35h16.24c3.89,0,8.12-2.74,8.12-7.37v-13.62c0-3.56-2.5-6-5.42-6.94v-6.1c0-6.27-4.84-11.36-10.82-11.36s-10.83,5.08-10.83,11.36v6.1c-2.92.94-5.42,3.38-5.42,6.94v13.62c0,4.63,4.23,7.37,8.13,7.37ZM42.42,306.32c0-3.14,2.43-5.68,5.42-5.68s5.41,2.54,5.41,5.68v5.67h-10.83v-5.67Z" style="fill:none;"/><path d="M58.35,136.19c4.09-3.4,6.71-8.66,6.71-14.55,0-.85-.06-1.69-.17-2.52l-11.65,4.58,5.11,12.49Z" style="fill:none;"/><path d="M35.26,233.47c.68-.71.68-1.86,0-2.56l-10.99-11.38,10.99-11.38c.68-.71.68-1.86,0-2.56-.68-.71-1.79-.71-2.46,0l-12.22,12.67c-.68.71-.68,1.85,0,2.55l12.22,12.67c.67.71,1.78.71,2.46,0Z" style="fill:none;"/><polygon points="385.58 174.4 382.4 184.76 388.77 184.76 385.58 174.4" style="fill:none;"/><path d="M445.27,134.59c1.36,1.59,3.04,2.82,5.04,3.71,2.02.88,4.32,1.32,6.92,1.32s4.91-.44,6.9-1.32c1.98-.88,3.65-2.12,5.01-3.71,1.36-1.61,2.39-3.49,3.08-5.64.69-2.17,1.04-4.52,1.04-7.06v-.68c0-2.55-.35-4.91-1.04-7.06-.69-2.17-1.72-4.05-3.08-5.64s-3.04-2.82-5.04-3.71c-1.99-.9-4.3-1.36-6.92-1.36s-4.91.46-6.89,1.36c-1.99.88-3.66,2.12-5.02,3.71-1.36,1.59-2.37,3.47-3.08,5.64-.69,2.15-1.04,4.5-1.04,7.06v.68c0,2.53.35,4.88,1.04,7.06.71,2.15,1.72,4.03,3.08,5.64ZM451.52,121.2c0-1.27.09-2.45.27-3.57.19-1.14.49-2.14.93-3,.43-.88,1-1.57,1.71-2.06.74-.49,1.66-.74,2.74-.74s2.03.25,2.77.74,1.32,1.18,1.76,2.06c.43.86.74,1.86.92,3,.19,1.12.28,2.31.28,3.57v.68c0,1.31-.09,2.53-.28,3.67-.18,1.14-.49,2.14-.92,3-.44.84-1.02,1.49-1.76,1.96-.72.48-1.62.72-2.71.72s-2.03-.24-2.77-.72c-.74-.47-1.32-1.12-1.75-1.96-.44-.86-.74-1.86-.93-3-.18-1.14-.27-2.36-.27-3.67v-.68Z" style="fill:none;"/><path d="M169.66,220.05c2.77-2.91,4.16-6.98,4.16-12.19s-1.4-9.31-4.21-12.27c-2.8-2.97-6.93-4.45-12.37-4.45h-18.3v33.29h18.3c5.5,0,9.63-1.46,12.41-4.37Z" style="fill:none;"/><path d="M453.6,228.11c.6.73,1.3,1.33,2.07,1.83,1.25.82,2.76,1.22,4.49,1.22,1.85,0,3.47-.39,4.87-1.16,1.42-.78,2.6-1.88,3.55-3.29s1.67-3.07,2.16-4.97c.48-1.89.72-3.95.72-6.17v-.59c0-2.32-.24-4.42-.72-6.32-.49-1.9-1.22-3.53-2.18-4.88-.95-1.38-2.14-2.43-3.55-3.16-1.4-.74-3.02-1.1-4.87-1.1-1.75,0-3.24.39-4.5,1.18-.88.57-1.68,1.3-2.36,2.2l-.3-2.81h-8.44v42.26h9.07v-14.21ZM453.6,209.24c.08-.18.17-.35.27-.52.39-.64.91-1.11,1.56-1.41.66-.31,1.48-.47,2.45-.47.84,0,1.55.19,2.13.58.57.4,1.03.96,1.37,1.7.36.73.63,1.59.78,2.59.16.99.25,2.06.25,3.25v.59c0,1.14-.08,2.22-.22,3.21-.13,1-.38,1.88-.72,2.65-.35.75-.81,1.34-1.38,1.77-.57.41-1.29.63-2.15.63-1.3,0-2.32-.3-3.07-.91-.54-.43-.96-.97-1.27-1.64v-12.04Z" style="fill:none;"/><path d="M141.61,404.24c-1.13-.6-2.36-.95-3.38-1.13-.49-.09-.88-.12-1.12-.15-.09-.01-.16-.01-.19-.01H36.59c-2.72,0-4.21.69-5.04,1.29-.88.63-1.58,1.53-2.13,2.71-.56,1.21-.88,2.52-1.05,3.62-.09.53-.12.94-.15,1.19,0,.11,0,.18-.01.21v53.57c0,2.91.66,4.49,1.21,5.38.59.95,1.43,1.69,2.54,2.27,1.13.6,2.36.95,3.38,1.13.49.09.88.13,1.12.15.09.01.16.01.19.01h100.33c2.72,0,4.21-.69,5.04-1.29.46-.32.87-.74,1.23-1.22.06-.62.13-1.23.26-1.86l1.84-9.61v-48.61c0-2.9-.65-4.49-1.21-5.38-.58-.94-1.43-1.68-2.53-2.27Z" style="fill:none;"/><polygon points="450.53 340.35 457.12 326.46 463.72 340.35 474.6 340.35 463.37 319.66 474.29 299.28 463.53 299.28 457.12 312.94 450.72 299.28 439.92 299.28 450.88 319.66 439.63 340.35 450.53 340.35" style="fill:none;"/><path d="M38.75,244.77c.93.29,1.9-.25,2.18-1.2l13.97-47.03c.28-.95-.24-1.97-1.16-2.26-.92-.29-1.89.25-2.17,1.2l-13.97,47.03c-.28.95.24,1.97,1.15,2.26Z" style="fill:none;"/><path d="M368.88,423.02c-.55-1.18-1.23-2.29-2.04-3.31h0c.81,1.03,1.49,2.14,2.04,3.31Z" style="fill:none;"/><polygon points="366.84 442.41 366.84 442.42 369.1 436.43 366.84 442.41" style="fill:none;"/><path d="M475.61,407.42c0-2.48-1.87-4.47-4.19-4.47h-92.04c-2.31,0-4.18,1.99-4.18,4.47v67.05h100.41v-67.05Z" style="fill:none;"/><path d="M357.64,422.25l-87.2-36.19c-4.01-1.67-8.51.29-10.06,4.37l-22.31,59.07c-1.53,4.08.47,8.74,4.48,10.4l87.2,36.18c4.02,1.67,8.52-.29,10.06-4.37l22.31-59.07c1.55-4.08-.46-8.74-4.48-10.39ZM343.7,459.16c-1.53,4.08-6.04,6.04-10.06,4.37-4.01-1.67-6.01-6.33-4.47-10.4,1.53-4.08,6.04-6.03,10.05-4.37,4.02,1.67,6.03,6.33,4.48,10.4Z" style="fill:none;"/><path d="M234.37,437.03l-3.84,20.08c-1.06-3.38-1.06-7.11.27-10.62l2.09-5.54-2.09,5.53c-1.33,3.52-1.33,7.25-.27,10.63l3.84-20.09h0Z" style="fill:none;"/><path d="M229.71,373.03l-48.76-10.25c-4.49-.94-8.86,2.12-9.76,6.82l-17.46,91.32v4.61s0,4.58-2.17,9.11c.44,3.6,3.01,6.65,6.59,7.4l48.76,10.24c4.49.94,8.86-2.11,9.77-6.81l19.53-102.22c.91-4.7-2-9.28-6.5-10.23ZM193.91,471.83c-.9,4.7-5.26,7.75-9.76,6.81s-7.4-5.52-6.51-10.23c.91-4.7,5.28-7.75,9.77-6.81,4.48.94,7.39,5.52,6.5,10.23Z" style="fill:none;"/><path d="M358.47,487.89c0,7.4,5.61,13.41,12.54,13.41h108.77c6.93,0,12.56-6,12.56-13.41h-133.87Z" style="fill:#fff;"/><path d="M456.84,154.66c17.4,0,31.51-14.78,31.51-33.02s-14.1-33.02-31.51-33.02-31.49,14.78-31.49,33.02,14.1,33.02,31.49,33.02ZM441.15,121.2c0-2.55.35-4.91,1.04-7.06.71-2.17,1.72-4.05,3.08-5.64,1.36-1.59,3.02-2.82,5.02-3.71,1.98-.9,4.28-1.36,6.89-1.36s4.93.46,6.92,1.36c2,.88,3.68,2.12,5.04,3.71s2.39,3.47,3.08,5.64c.69,2.15,1.04,4.5,1.04,7.06v.68c0,2.53-.35,4.88-1.04,7.06-.69,2.15-1.72,4.03-3.08,5.64-1.36,1.59-3.02,2.82-5.01,3.71-1.99.88-4.29,1.32-6.9,1.32s-4.91-.44-6.92-1.32c-2-.88-3.68-2.12-5.04-3.71-1.36-1.61-2.37-3.49-3.08-5.64-.69-2.17-1.04-4.52-1.04-7.06v-.68Z" style="fill:#fff;"/><path d="M456.84,253.7c17.4,0,31.51-14.78,31.51-33.02s-14.1-33.02-31.51-33.02-31.49,14.78-31.49,33.02,14.1,33.02,31.49,33.02ZM444.52,200.06h8.44l.3,2.81c.68-.9,1.48-1.62,2.36-2.2,1.27-.78,2.76-1.18,4.5-1.18,1.85,0,3.47.36,4.87,1.1,1.41.73,2.6,1.78,3.55,3.16.96,1.36,1.69,2.98,2.18,4.88.48,1.89.72,4,.72,6.32v.59c0,2.22-.24,4.28-.72,6.17-.49,1.9-1.21,3.56-2.16,4.97s-2.13,2.51-3.55,3.29c-1.4.77-3.02,1.16-4.87,1.16-1.74,0-3.24-.4-4.49-1.22-.77-.49-1.47-1.1-2.07-1.83v14.21h-9.07v-42.26Z" style="fill:#fff;"/><path d="M456.84,352.74c17.4,0,31.51-14.78,31.51-33.02s-14.1-33.02-31.51-33.02-31.49,14.78-31.49,33.02,14.1,33.02,31.49,33.02ZM439.92,299.28h10.8l6.41,13.65,6.41-13.65h10.76l-10.92,20.37,11.22,20.7h-10.88l-6.6-13.9-6.6,13.9h-10.9l11.26-20.7-10.96-20.37Z" style="fill:#fff;"/><path d="M452.72,128.56c.43.84,1.01,1.49,1.75,1.96.74.48,1.67.72,2.77.72s1.99-.24,2.71-.72c.74-.47,1.32-1.12,1.76-1.96.43-.86.74-1.86.92-3,.19-1.14.28-2.36.28-3.67v-.68c0-1.27-.09-2.45-.28-3.57-.18-1.14-.49-2.14-.92-3-.44-.88-1.02-1.57-1.76-2.06s-1.66-.74-2.77-.74-2,.25-2.74.74c-.72.49-1.29,1.18-1.71,2.06-.44.86-.74,1.86-.93,3-.18,1.12-.27,2.31-.27,3.57v.68c0,1.31.09,2.53.27,3.67.19,1.14.49,2.14.93,3Z" style="fill:#fff;"/><path d="M457.93,223.82c.86,0,1.58-.21,2.15-.63.57-.43,1.03-1.02,1.38-1.77.34-.77.58-1.66.72-2.65.15-1,.22-2.07.22-3.21v-.59c0-1.19-.09-2.26-.25-3.25-.16-1-.43-1.86-.78-2.59-.34-.74-.8-1.3-1.37-1.7-.58-.39-1.29-.58-2.13-.58-.97,0-1.79.16-2.45.47-.65.3-1.16.77-1.56,1.41-.1.17-.19.34-.27.52v12.04c.3.66.73,1.21,1.27,1.64.75.6,1.77.91,3.07.91Z" style="fill:#fff;"/><path d="M339.22,448.76c-4.01-1.66-8.51.29-10.05,4.37-1.55,4.08.46,8.74,4.47,10.4,4.02,1.67,8.52-.29,10.06-4.37,1.55-4.08-.46-8.74-4.48-10.4Z" style="fill:#fff;"/><path d="M366.84,442.41l2.26-5.98-2.26,5.99v41h117.14v-76c0-4.03-1.67-7.65-4.3-10.1-2.21-2.07-5.1-3.32-8.25-3.32h-92.04c-6.92,0-12.54,6.01-12.54,13.42v12.29c.81,1.02,1.49,2.14,2.04,3.31-.55-1.17-1.23-2.29-2.04-3.3h0c-1.65-2.09-3.82-3.78-6.41-4.86l-87.2-36.18c-8.03-3.33-17.04.58-20.12,8.74l-18.74,49.6-3.84,20.09c1.4,4.45,4.67,8.28,9.23,10.17l87.2,36.18c8.03,3.34,17.04-.58,20.12-8.74l19.76-52.3h0ZM375.21,407.42c0-2.48,1.87-4.47,4.18-4.47h92.04c2.32,0,4.19,1.99,4.19,4.47v67.05h-100.41v-67.05ZM362.12,432.64l-22.31,59.07c-1.53,4.08-6.04,6.04-10.06,4.37l-87.2-36.18c-4.01-1.67-6.01-6.33-4.48-10.4l22.31-59.07c1.55-4.08,6.05-6.04,10.06-4.37l87.2,36.19c4.02,1.66,6.03,6.32,4.48,10.39Z" style="fill:#fff;"/><path d="M230.8,446.49l2.09-5.53-2.09,5.54c-1.33,3.51-1.33,7.24-.27,10.62l3.84-20.08h0s9.96-52.08,9.96-52.08c1.8-9.41-4.02-18.56-12.99-20.45l-52.77-10.24c-8.97-1.89-13.71,4.21-15.51,13.62l-9.33,48.8v-4.79c0-17.89-16.74-17.89-16.74-17.89H36.59c-5.81,0-9.6,2.15-12.07,4.96-4.67,5.3-4.67,12.92-4.67,12.92v53.65c0,17.89,16.74,17.89,16.74,17.89h33.47c0,5.96-.69,10.43-2.09,13.41h-6.27c-2.32,0-4.19,2-4.19,4.47h58.58c0-2.46-1.88-4.47-4.19-4.47h-6.27c-1.4-2.98-2.09-7.45-2.09-13.41h33.47c3.32,0,5.98-.71,8.11-1.83,2.24,4.48,6.33,7.9,11.42,8.96l48.76,10.25c8.98,1.88,17.72-4.22,19.51-13.63l5.75-30.06c-1.06-3.38-1.06-7.11.27-10.63ZM145.35,460.5l-1.84,9.61c-.12.63-.2,1.24-.26,1.86-.36.48-.77.9-1.23,1.22-.83.59-2.32,1.29-5.04,1.29H36.65s-.1,0-.19-.01c-.24-.01-.63-.06-1.12-.15-1.02-.18-2.25-.53-3.38-1.13-1.11-.58-1.95-1.32-2.54-2.27-.55-.88-1.21-2.46-1.21-5.38v-53.57s.01-.1.01-.21c.02-.25.06-.66.15-1.19.17-1.1.49-2.41,1.05-3.62.55-1.18,1.24-2.08,2.13-2.71.83-.59,2.32-1.29,5.04-1.29h100.33s.1,0,.19.01c.24.02.63.06,1.12.15,1.02.18,2.25.53,3.38,1.13,1.1.59,1.95,1.33,2.53,2.27.56.88,1.21,2.48,1.21,5.38v48.61ZM216.67,485.47c-.91,4.7-5.28,7.75-9.77,6.81l-48.76-10.24c-3.57-.75-6.15-3.81-6.59-7.4,2.17-4.52,2.17-9.11,2.17-9.11v-4.61l17.46-91.32c.9-4.7,5.26-7.76,9.76-6.82l48.76,10.25c4.49.94,7.4,5.52,6.5,10.23l-19.53,102.22Z" style="fill:#fff;"/><path d="M187.42,461.61c-4.49-.94-8.86,2.11-9.77,6.81-.9,4.7,2.02,9.28,6.51,10.23s8.86-2.11,9.76-6.81c.9-4.7-2.02-9.28-6.5-10.23Z" style="fill:#fff;"/><path d="M47.35,154.66c17.39,0,31.49-14.78,31.49-33.02s-14.1-33.02-31.49-33.02-31.51,14.78-31.51,33.02,14.1,33.02,31.51,33.02ZM65.06,121.64c0,5.89-2.62,11.14-6.71,14.55l-5.11-12.49,11.65-4.58c.11.83.17,1.67.17,2.52ZM30.75,128.22c-.73-2.05-1.13-4.27-1.13-6.57,0-10.26,7.93-18.57,17.72-18.57,5.19,0,9.86,2.34,13.09,6.06l-15.06,6.32,3.93,10.32,5.25,12.85c-2.21,1.03-4.65,1.6-7.21,1.6-2.22,0-4.32-.43-6.27-1.2l-6.53,8.21c-4.95-2.72-9.02-6.99-11.61-12.17l7.83-6.83Z" style="fill:#fff;"/><path d="M47.35,352.74c17.39,0,31.49-14.78,31.49-33.02s-14.1-33.02-31.49-33.02-31.51,14.78-31.51,33.02,14.1,33.02,31.51,33.02ZM31.59,319.37c0-3.56,2.5-6,5.42-6.94v-6.1c0-6.27,4.85-11.36,10.83-11.36s10.82,5.08,10.82,11.36v6.1c2.92.94,5.42,3.38,5.42,6.94v13.62c0,4.63-4.23,7.37-8.12,7.37h-16.24c-3.9,0-8.13-2.74-8.13-7.37v-13.62Z" style="fill:#fff;"/><path d="M46.24,253.3c17.8,0,32.22-15.12,32.22-33.77s-14.43-33.77-32.22-33.77-32.21,15.12-32.21,33.77,14.43,33.77,32.21,33.77ZM57.23,208.15c-.68-.71-.68-1.86,0-2.56.68-.71,1.78-.71,2.46,0l12.22,12.67c.68.71.68,1.85,0,2.55l-12.22,12.67c-.68.71-1.78.71-2.46,0-.68-.71-.68-1.86,0-2.56l10.98-11.38-10.98-11.38ZM37.59,242.51l13.97-47.03c.28-.95,1.25-1.49,2.17-1.2.93.29,1.44,1.31,1.16,2.26l-13.97,47.03c-.28.95-1.25,1.49-2.18,1.2-.92-.29-1.43-1.31-1.15-2.26ZM20.58,218.25l12.22-12.67c.67-.71,1.78-.71,2.46,0,.68.71.68,1.86,0,2.56l-10.99,11.38,10.99,11.38c.68.71.68,1.86,0,2.56-.68.71-1.79.71-2.46,0l-12.22-12.67c-.68-.71-.68-1.85,0-2.55Z" style="fill:#fff;"/><path d="M53.25,306.32c0-3.14-2.42-5.68-5.41-5.68s-5.42,2.54-5.42,5.68v5.67h10.83v-5.67Z" style="fill:#fff;"/><path d="M39.02,123.57l-2.34,3.7c-.24.36-.22.84.03,1.2.26.35.69.49,1.09.35l3.19-1.11-2.35,3.68c-.24.37-.21.85.04,1.2.25.35.69.49,1.09.36l5.91-2.07-.63-1.95-3.18,1.11,2.34-3.68c.24-.37.22-.85-.03-1.2-.26-.36-.69-.49-1.1-.36l-3.18,1.11,2.34-3.68c.24-.37.22-.85-.03-1.2-.26-.35-.69-.49-1.1-.35l-5.9,2.06.63,1.96,3.18-1.12Z" style="fill:#fff;"/><polygon points="471.5 27.81 473.89 27.81 473.89 19.71 476.85 19.71 476.85 17.86 468.59 17.86 468.59 19.71 471.5 19.71 471.5 27.81" style="fill:#fff;"/><polygon points="480.27 25.48 480.04 20.72 482.44 27.81 484.01 27.81 486.4 20.73 486.17 25.48 486.17 27.81 488.56 27.81 488.56 17.86 485.42 17.86 483.22 24.78 481.02 17.86 477.89 17.86 477.89 27.81 480.27 27.81 480.27 25.48" style="fill:#fff;"/><path d="M138.95,246.83h15.67l21.19,42.75h31v-1.25l-25.06-48.8c7.2-3.43,12.49-7.91,15.87-13.43,3.38-5.53,5.07-12.49,5.07-20.9,0-11.61-4.01-20.59-12.04-26.95-8.03-6.36-19.16-9.54-33.39-9.54h-47.24v120.86h28.94v-42.75ZM138.95,191.13h18.3c5.44,0,9.56,1.48,12.37,4.45,2.8,2.97,4.21,7.06,4.21,12.27s-1.39,9.28-4.16,12.19c-2.78,2.91-6.91,4.37-12.41,4.37h-18.3v-33.29Z" style="fill:#fff;"/><path d="M259.37,291.04c8.45,0,15.96-1.56,22.54-4.69,6.58-3.13,11.69-7.54,15.33-13.24,3.64-5.69,5.63-12.26,5.97-19.69h-25.42c-.19,6.06-1.85,10.49-4.95,13.27-3.11,2.79-7.6,4.18-13.48,4.18-6.95,0-11.84-2.44-14.68-7.33s-4.26-13.03-4.26-24.42v-7.55c.15-10.51,1.7-18.16,4.66-22.95,2.96-4.79,7.62-7.19,13.99-7.19s10.93,1.42,13.99,4.25c3.06,2.84,4.69,7.51,4.88,14.01h25.5c-1.07-11.98-5.51-21.38-13.33-28.2-7.82-6.82-18.16-10.23-31.03-10.23-8.94,0-16.8,2.14-23.6,6.42-6.8,4.28-12.01,10.34-15.62,18.19-3.62,7.85-5.43,17-5.43,27.46v5.28c0,16.67,4.01,29.58,12.02,38.72,8.01,9.14,18.99,13.71,32.93,13.71Z" style="fill:#fff;"/><polygon points="386.14 269.78 341.63 269.78 341.63 182.8 316.06 182.8 316.06 289.58 386.14 289.58 386.14 269.78" style="fill:#fff;"/><polygon points="357.15 195.89 360.56 189.33 364.02 195.89 371.19 195.89 365.1 184.51 370.9 173.7 363.77 173.7 360.58 179.82 357.48 173.7 350.27 173.7 356.05 184.51 349.94 195.89 357.15 195.89" style="fill:#fff;"/><path d="M380.69,190.32h9.8l1.73,5.58h7.68l-10.96-29.86h-6.72l-10.88,29.86h7.64l1.71-5.58ZM385.58,174.4l3.2,10.36h-6.38l3.18-10.36Z" style="fill:#fff;"/></svg>