<?xml version="1.0" encoding="UTF-8"?><svg id="a" xmlns="http://www.w3.org/2000/svg" viewBox="0 0 504.5 504.9"><polygon points="471.5 27.81 473.89 27.81 473.89 19.71 476.85 19.71 476.85 17.86 468.59 17.86 468.59 19.71 471.5 19.71 471.5 27.81" style="fill:#fff;"/><path d="M480.27,25.48l-.23-4.76,2.4,7.09h1.58l2.39-7.08c-.08,1.55-.29,5.58-.23,7.08h2.39v-9.95h-3.14l-2.2,6.92-2.21-6.92h-3.13v9.95h2.38v-2.32Z" style="fill:#fff;"/><path d="M233.53,420.54l-3.84,20.08c-2.01-5.14.32-11.26,2.36-16.16-2.05,4.9-4.37,11.01-2.36,16.16l3.84-20.09h0Z" style="fill:#fff;"/><path d="M140.76,387.75c-3.37-2.21-106.5-2.3-110.06,0-6.64,2.58-2.07,55.81-3.34,61.3-.19,6.25,3.46,8.44,8.45,8.94,2.19-1.09,108.74,2.77,106.6-2.51.03-.96,1.87-10.28,2.09-11.47,0,0,0-48.61,0-48.61-.26-4.6-.75-5.71-3.74-7.65Z" style="fill:#fff;"/><path d="M368.03,406.52c-.55-1.18-1.23-2.29-2.04-3.31h0c.81,1.03,1.49,2.14,2.04,3.31Z" style="fill:#fff;"/><path d="M228.86,356.53l-48.76-10.25c-4.49-.94-8.86,2.12-9.76,6.82-2.07,7.74-18.54,101.12-19.63,105.04.44,3.6,3.01,6.65,6.59,7.4l48.76,10.24c4.49.94,8.86-2.11,9.77-6.81l19.53-102.22c.91-4.7-2-9.28-6.5-10.23ZM193.07,455.34c-2.04,11.18-18.56,7.48-16.26-3.42,2.05-11.17,18.55-7.49,16.26,3.42Z" style="fill:#fff;"/><path d="M154.4,205.14c6.7-6.4,6.65-22.94-.05-29.36-6.25-8.15-27.53-4.64-36.81-5.34v39.94c9.29-.69,30.61,2.76,36.86-5.24Z" style="fill:#fff;"/><polygon points="366 425.92 366 425.93 368.26 419.94 366 425.92" style="fill:#fff;"/><polygon points="419.11 147.28 415.18 160.11 423.07 160.11 419.11 147.28" style="fill:#fff;"/><path d="M457,54.22c0-32.23-52.86-60.47-82.69-52.66,0,0-328.93,52.7-328.93,52.7C18.6,55.33-1.73,80.24.25,108.05c-.17,40.46.12,316.19,0,349.26,0,26.04,21.31,47.34,47.34,47.34h409.33c26.03,0,47.33-21.3,47.33-47.34-.29-31.51.21-310.26,0-349.26,2-28.55-19.43-54.03-47.25-53.83ZM423.27,136.92l13.57,36.97h-9.51l-2.14-6.91h-12.13l-2.12,6.91h-9.46l13.47-36.97h8.32ZM418.62,264.32v24.26h-85.85v-130.81h31.32v106.55h54.53ZM375.4,146.42h8.93l3.83,7.57,3.96-7.57h8.83l-7.19,13.38,7.54,14.09h-8.88l-4.29-8.12-4.21,8.12h-8.93l7.57-14.09-7.16-13.38ZM358.41,43.23c9.95-2.6,51.18-6.61,51.18,4.13v7.26h-234.3l183.12-11.39ZM245.33,256.68c5.13,11.07,26.59,11.4,34.49,3.86,3.81-3.41,5.83-8.83,6.07-16.26h31.14c-.48,28.78-25.83,46.98-53.72,46.09-39.93.47-57.28-32.42-55.06-70.71.02-22.85,7.17-44.05,25.79-55.93,32.54-19.66,82.09-2.11,83.26,39.22h-31.23c-.24-7.97-2.23-13.69-5.98-17.16-7.55-7.29-28.68-7.71-34.27,3.59-8.13,13.08-7.74,54.62-.49,67.29ZM82.82,143.54c37.49,1.66,111.78-12.49,111.21,43.78-.07,19.82-7.38,32.66-25.13,41.19l30.08,58.56v1.5h-37.2l-25.43-51.3h-18.8v51.3h-34.73v-145.03ZM472.05,484.8h-96.03c-6.12,0-11.07-6-11.07-13.41h118.19c0,7.4-4.96,13.41-11.08,13.41ZM483.14,425.31v41.62h-117.14v-41s-19.76,52.3-19.76,52.3c-3.08,8.15-12.08,12.07-20.12,8.74-7.58-5.53-97.35-34.11-96.43-46.35-4.02,13.97-2.31,48.12-25.26,43.69,0,0-48.76-10.25-48.76-10.25-5.1-1.06-9.18-4.48-11.42-8.96-4.71,3.45-35.68,1.24-41.57,1.83,0,5.96.69,10.43,2.09,13.41,3.58.09,10.58-1.18,10.46,4.47h-58.58c-.13-5.65,6.89-4.38,10.46-4.47,1.4-2.98,2.09-7.45,2.09-13.41-14.48-2.46-49.69,9.4-50.21-17.89-.02-13.11.01-40.42,0-53.65,0,0,0-7.63,4.67-12.92,2.68-10.08,104.65-2.96,112.47-4.96,1.83-.21,19.45,1.98,16.74,22.68,0,0,9.33-48.8,9.33-48.8,1.8-9.41,6.54-15.51,15.51-13.62,78.91,15.28,70.73,3.94,55.81,82.76,0,0,18.74-49.6,18.74-49.6,3.08-8.15,12.08-12.06,20.12-8.74,5.05,3.52,93.02,35.61,93.61,41.03-.36-10.22-1.27-25.3,12.54-25.7,0,0,92.04,0,92.04,0,7.17.04,12.56,6.22,12.56,13.42,0,0,0,34.38,0,34.38Z" style="fill:#fff;"/><path d="M356.8,405.76l-87.2-36.19c-4.01-1.67-8.51.29-10.06,4.37l-22.31,59.07c-1.53,4.08.47,8.74,4.48,10.4l87.2,36.18c4.02,1.67,8.52-.29,10.06-4.37l22.31-59.07c1.55-4.08-.46-8.74-4.48-10.39ZM342.86,442.67c-3.63,9.77-18.32,3.29-14.53-6.04,3.63-9.77,18.32-3.27,14.53,6.04Z" style="fill:#fff;"/><path d="M470.58,386.46h-92.04c-2.31,0-4.18,1.99-4.18,4.47v67.05h100.41v-67.05c0-2.48-1.87-4.47-4.19-4.47Z" style="fill:#fff;"/></svg>