<svg xmlns="http://www.w3.org/2000/svg" viewBox="0 0 528 528"><g class="jsopx-icon-wrapper"><path d="M468.82,65.55c0-32.23-52.86-60.47-82.69-52.66L57.2,65.59c-25.11,1.18-45.13,22.87-45.13,49.48v297.13c0,16.49,7.68,31.09,19.52,40.08v-29.62s0-3.28,1.33-7.03c.08-.23.17-.46.26-.69.68-1.64,1.62-3.31,2.94-4.8.12-.13.24-.27.37-.4v-4.81c0-5.76,2.81-10.83,7.08-13.79v-22.66c-13.9-6.36-23.62-20.91-23.62-37.83s9.72-31.46,23.62-37.83v-23.38c-13.9-6.36-23.62-20.91-23.62-37.83s9.72-31.46,23.62-37.84v-23.37c-13.9-6.37-23.62-20.91-23.62-37.83,0-22.8,17.63-41.28,39.38-41.28,8.27,0,15.97,2.69,22.31,7.27h364.87c6.34-4.58,14.03-7.27,22.31-7.27,21.75,0,39.38,18.48,39.38,41.28,0,16.92-9.72,31.46-23.63,37.83v23.37c13.91,6.38,23.63,20.91,23.63,37.84s-9.72,31.47-23.63,37.83v23.38c13.91,6.37,23.63,20.91,23.63,37.83s-9.72,31.47-23.63,37.83v22.66c4.28,2.96,7.09,8.03,7.09,13.79v3.13c.17.14.33.29.49.44,2.65,2.45,4.31,6.07,4.31,10.1v33.75c11.88-8.98,19.61-23.62,19.61-40.15V115.07c0-27.35-21.15-49.52-47.25-49.52ZM421.41,65.95h-234.3l183.12-11.39c9.95-2.6,51.18-6.61,51.18,4.13v7.26Z" fill="#6d449b"></path><path fill="#6d449b" d="M492.09 36.81L491.86 32.05 494.26 39.14 495.84 39.14 498.23 32.06 498 36.81 498 39.14 500.38 39.14 500.38 29.18 497.25 29.18 495.05 36.11 492.84 29.18 489.71 29.18 489.71 39.14 492.09 39.14 492.09 36.81z"></path><path d="M468.67,165.99c17.4,0,31.5-14.79,31.5-33.02s-14.1-33.02-31.5-33.02-31.5,14.79-31.5,33.02,14.1,33.02,31.5,33.02ZM452.98,132.53c0-2.55.34-4.9,1.04-7.05.7-2.18,1.72-4.06,3.08-5.65,1.35-1.59,3.02-2.82,5.02-3.7,1.98-.9,4.27-1.36,6.88-1.36s4.93.46,6.92,1.36c1.01.44,1.93.97,2.77,1.58.52.38.99.81,1.44,1.25.29.28.57.56.83.87,1.36,1.59,2.39,3.47,3.08,5.65.7,2.15,1.05,4.5,1.05,7.05v.69c0,2.53-.35,4.88-1.05,7.05-.69,2.15-1.72,4.03-3.08,5.65-1.35,1.59-3.02,2.82-5,3.7-2,.89-4.29,1.33-6.9,1.33s-4.91-.44-6.92-1.33c-1.01-.44-1.93-.97-2.77-1.58-.63-.47-1.21-1-1.75-1.57-.18-.18-.36-.36-.53-.55-1.36-1.62-2.38-3.5-3.08-5.65-.7-2.17-1.04-4.52-1.04-7.05v-.69Z" fill="#7351a1"></path><path d="M468.67,364.07c8.16,0,15.58-3.24,21.18-8.58,6.34-6.04,10.32-14.75,10.32-24.44s-3.98-18.4-10.32-24.43c-5.6-5.33-13.02-8.58-21.18-8.58-17.4,0-31.5,14.78-31.5,33.01s14.1,33.02,31.5,33.02ZM451.74,310.61h10.8s0,0,0,0l6.41,13.65,6.4-13.66h10.77,0s0,0,0,0l-10.92,20.38,11.22,20.69h-10.88s0,0,0,0l-6.59-13.89-6.6,13.89h-10.9,0s0,0,0,0l11.26-20.69-10.97-20.38Z" fill="#7351a1"></path><path fill="#6d449b" d="M483.33 39.14L485.71 39.14 485.71 31.04 488.68 31.04 488.68 29.18 480.42 29.18 480.42 31.04 483.33 31.04 483.33 39.14z"></path><path fill="#fff" d="M462.71 330.99L451.46 351.68 451.45 351.68 462.35 351.68 468.95 337.79 468.95 337.79 468.95 337.78 475.54 351.68 475.54 351.68 486.42 351.68 475.2 330.99 486.12 310.61 486.12 310.61 475.35 310.61 468.95 324.27 468.95 324.27 462.54 310.61 462.54 310.61 451.74 310.61 462.71 330.99z"></path><path d="M475.92,116.13c-1.99-.9-4.3-1.36-6.92-1.36s-4.9.46-6.88,1.36c-2,.88-3.67,2.11-5.02,3.7-1.36,1.59-2.38,3.47-3.08,5.65-.7,2.15-1.04,4.5-1.04,7.05v.69c0,2.53.34,4.88,1.04,7.05.7,2.15,1.72,4.03,3.08,5.65.16.19.35.37.52.55.54.57,1.11,1.1,1.75,1.57.84.62,1.76,1.14,2.77,1.58,2.01.89,4.32,1.33,6.92,1.33s4.9-.44,6.9-1.33c1.98-.88,3.65-2.11,5-3.7,1.36-1.62,2.39-3.5,3.08-5.65.7-2.17,1.05-4.52,1.05-7.05v-.69c0-2.55-.35-4.9-1.05-7.05-.69-2.18-1.72-4.06-3.08-5.65-.26-.31-.55-.59-.83-.87-.45-.45-.93-.87-1.44-1.25-.84-.62-1.76-1.14-2.76-1.58ZM474.73,133.22c0,1.31-.09,2.53-.28,3.67-.18,1.14-.5,2.14-.92,3-.44.84-1.02,1.49-1.76,1.96-.72.48-1.62.72-2.71.72s-2.03-.24-2.77-.72c-.74-.47-1.32-1.12-1.74-1.96-.44-.86-.74-1.86-.93-3-.18-1.14-.27-2.36-.27-3.67v-.69c0-1.26.09-2.45.27-3.57.19-1.14.49-2.14.93-3,.42-.89.99-1.57,1.71-2.06.74-.49,1.66-.74,2.74-.74s2.03.25,2.77.74c.74.49,1.32,1.17,1.76,2.06.42.86.74,1.86.92,3,.19,1.12.28,2.31.28,3.57v.69Z" fill="#fff"></path><path d="M456.35,211.39v42.26h9.07v-14.2h0s0,0,0,0h0c.6.73,1.3,1.33,2.07,1.82,0,0,.01,0,.02,0,1.26.81,2.75,1.21,4.47,1.21,1.85,0,3.47-.39,4.87-1.16,1.43-.78,2.6-1.88,3.55-3.29.96-1.41,1.67-3.07,2.17-4.98.48-1.89.71-3.95.71-6.17v-.59c0-2.32-.23-4.43-.71-6.32-.5-1.9-1.22-3.53-2.19-4.88-.65-.94-1.42-1.72-2.29-2.36-.08-.06-.16-.13-.25-.19-.32-.22-.66-.42-1.01-.61-1.4-.74-3.02-1.1-4.87-1.1-1.75,0-3.24.39-4.5,1.18-.89.57-1.68,1.3-2.37,2.19h0s0,0,0,0l-.3-2.81h-8.44ZM465.42,220.57c.08-.18.17-.35.27-.52.39-.64.91-1.11,1.55-1.41.67-.31,1.48-.47,2.46-.47.84,0,1.54.19,2.13.58.57.4,1.03.96,1.36,1.7.36.73.63,1.59.79,2.59.15.99.24,2.06.24,3.25v.59c0,1.14-.08,2.22-.22,3.22-.14.99-.38,1.88-.72,2.65-.35.75-.8,1.35-1.38,1.77-.57.42-1.28.63-2.15.63-1.3,0-2.31-.3-3.07-.91-.53-.42-.96-.97-1.26-1.63v-12.04Z" fill="#fff"></path><path d="M473.53,125.96c-.44-.89-1.02-1.57-1.76-2.06-.74-.49-1.66-.74-2.77-.74s-2,.25-2.74.74c-.72.49-1.29,1.17-1.71,2.06-.44.86-.74,1.86-.93,3-.18,1.12-.27,2.31-.27,3.57v.69c0,1.31.09,2.53.27,3.67.19,1.14.49,2.14.93,3,.42.84,1,1.49,1.74,1.96.74.48,1.67.72,2.77.72s1.99-.24,2.71-.72c.74-.47,1.32-1.12,1.76-1.96.42-.86.74-1.86.92-3,.19-1.14.28-2.36.28-3.67v-.69c0-1.26-.09-2.45-.28-3.57-.18-1.14-.5-2.14-.92-3Z" fill="#7351a1"></path><path d="M469.75,235.15c.87,0,1.58-.21,2.15-.63.58-.42,1.03-1.02,1.38-1.77.34-.77.58-1.66.72-2.65.14-1,.22-2.08.22-3.22v-.59c0-1.19-.09-2.26-.24-3.25-.16-1-.43-1.86-.79-2.59-.33-.74-.79-1.3-1.36-1.7-.59-.39-1.29-.58-2.13-.58-.98,0-1.79.16-2.46.47-.64.3-1.16.77-1.55,1.41-.1.17-.19.34-.27.52v12.04c.3.66.73,1.21,1.26,1.63.76.61,1.77.91,3.07.91Z" fill="#7351a1"></path><path d="M456.41,262.44c3.77,1.67,7.91,2.59,12.26,2.59,17.4,0,31.5-14.78,31.5-33.02s-14.1-33.02-31.5-33.02c-4.35,0-8.49.93-12.26,2.6-11.31,5.01-19.24,16.75-19.24,30.42s7.93,25.41,19.24,30.43ZM456.35,211.39h8.44s.3,2.81.3,2.81c.69-.89,1.48-1.62,2.37-2.19,1.26-.79,2.75-1.18,4.5-1.18,1.85,0,3.47.36,4.87,1.1.35.18.69.39,1.02.61.08.06.16.13.24.19.87.64,1.64,1.42,2.29,2.36.97,1.35,1.69,2.98,2.19,4.88.48,1.89.71,4,.71,6.32v.59c0,2.22-.23,4.28-.71,6.17-.5,1.91-1.21,3.57-2.17,4.98-.95,1.41-2.12,2.51-3.55,3.29-1.4.77-3.02,1.16-4.87,1.16-1.72,0-3.22-.4-4.47-1.21,0,0-.01,0-.02,0,0,0,0,0,0,0-.39-.24-.75-.52-1.1-.82-.18-.15-.35-.31-.5-.48-.17-.16-.32-.33-.47-.51v14.2h-9.07v-42.26Z" fill="#7351a1"></path><path d="M486.34,414.97s0,0,0,0c-.64-.43-1.4-.69-2.22-.69h-92.22c-2.31,0-4.19,1.99-4.19,4.47v66.9h100.36v-67.05c0-1.5-.69-2.81-1.74-3.63Z" fill="#fff"></path><path d="M371.51,434.33s-.04-.03-.07-.04c-.02-.02-.04-.03-.06-.04-.39-.25-.81-.48-1.26-.66l-87.37-36.19c-4.02-1.67-8.54.29-10.08,4.37l-22.35,59.07c-1.33,3.52,0,7.47,2.97,9.56,0,0,.02.01.03.02.05.03.1.07.15.1.01.01.02.02.03.02.02.01.04.02.06.04.33.19.66.37,1.02.51l87.37,36.18c4.02,1.67,8.53-.29,10.07-4.37l22.36-59.07c1.32-3.48.04-7.39-2.87-9.49ZM356.14,470.49c-1.53,4.08-6.04,6.04-10.07,4.37-.52-.22-1.01-.49-1.47-.8-3.18-2.03-4.63-6.12-3.25-9.75,1.53-4.08,6.05-6.03,10.06-4.37.53.22,1.02.49,1.48.8,3.19,2.03,4.63,6.12,3.25,9.75Z" fill="#fff"></path><path d="M248.1,390.48c-.49-1.9-1.6-3.56-3.11-4.72-.15-.12-.29-.24-.45-.35-.06-.04-.12-.08-.18-.11-.03-.02-.07-.04-.1-.06-.71-.4-1.49-.71-2.32-.88l-48.85-10.24c-4.5-.94-8.88,2.11-9.78,6.82l-17.49,91.32v4.62s0,4.58-2.17,9.1c.31,2.63,1.79,4.95,3.94,6.32.05.03.1.04.14.07.7.39,1.45.69,2.28.87l48.86,10.23c4.5.94,8.88-2.1,9.78-6.81l19.58-102.22c.26-1.36.2-2.7-.12-3.95ZM206.08,483.16c-.9,4.7-5.28,7.75-9.78,6.81-1.13-.24-2.15-.7-3.04-1.33-2.82-1.87-4.4-5.41-3.71-9.04.91-4.7,5.29-7.75,9.79-6.8,1.12.24,2.15.7,3.04,1.33,2.81,1.87,4.4,5.41,3.71,9.04Z" fill="#fff"></path><path d="M154.89,416.46c-.19-.17-.37-.34-.58-.5-.2-.13-.41-.27-.64-.39-1.13-.61-2.36-.95-3.39-1.13-.49-.09-.89-.13-1.12-.15-.09-.01-.16-.01-.19-.01H48.45c-2.73,0-4.22.7-5.05,1.29-.89.63-1.58,1.53-2.13,2.71-.56,1.21-.88,2.52-1.05,3.62-.09.52-.12.94-.15,1.18,0,.12,0,.18-.01.22v53.57c0,2.91.66,4.49,1.21,5.37.44.7,1.01,1.28,1.72,1.77,0,0,0,0,0,0,.06.04.12.08.19.12.13.08.26.16.4.23,1.14.6,2.37.95,3.39,1.13.49.09.88.13,1.12.14.09,0,.15,0,.19,0h100.53c2.72,0,4.21-.69,5.05-1.28.46-.33.87-.74,1.23-1.22.05-.62.13-1.24.26-1.86l1.83-9.61v-48.61c0-2.9-.65-4.49-1.21-5.38-.29-.46-.67-.86-1.08-1.23Z" fill="#fff"></path><path d="M383.28,512.48h108.99c6.94,0,12.57-6.01,12.57-13.41h-134.13c0,7.4,5.62,13.41,12.56,13.41Z" fill="#5f308d"></path><path d="M492.15,408.5c-.16-.15-.32-.3-.49-.44-2.13-1.8-4.84-2.88-7.77-2.88h-92.22c-6.93,0-12.57,6.02-12.57,13.42v12.29c-1.65-2.09-3.83-3.78-6.42-4.85l-87.37-36.18c-8.05-3.33-17.07.58-20.15,8.74l-18.78,49.6,9.98-52.07c1.81-9.41-4.03-18.56-13.01-20.45l-52.88-10.24c-8.99-1.89-13.74,4.22-15.54,13.62l-9.35,48.8v-4.79c0-17.89-16.77-17.89-16.77-17.89H48.21c-5.54,0-9.24,1.95-11.72,4.56-.13.13-.25.27-.37.4-1.32,1.49-2.26,3.16-2.94,4.8-.09.23-.18.46-.26.69-1.33,3.75-1.33,7.03-1.33,7.03v29.65c-.05-.04-.1-.08-.15-.12v24.53c0,17.88,16.77,17.88,16.77,17.88h33.54c0,5.96-.7,10.43-2.11,13.41h-6.28c-2.32,0-4.2,2-4.2,4.47h58.7c0-2.47-1.9-4.47-4.2-4.47h-6.28c-1.41-2.98-2.11-7.45-2.11-13.41h33.54c3.31,0,5.99-.7,8.12-1.82,2.25,4.48,6.33,7.89,11.44,8.96l48.86,10.25c9,1.88,17.75-4.23,19.54-13.64l5.77-30.06c1.4,4.45,4.67,8.28,9.24,10.17l87.37,36.18c8.05,3.34,17.07-.58,20.16-8.74l19.79-52.3v41h117.36v-76c0-4.03-1.66-7.65-4.31-10.1ZM157.18,471.68l-1.83,9.61c-.13.62-.21,1.24-.26,1.86-.36.48-.77.89-1.23,1.22-.84.59-2.33,1.28-5.05,1.28H48.28s-.1,0-.19,0c-.24-.01-.63-.05-1.12-.14-1.02-.18-2.25-.53-3.39-1.13-.14-.07-.27-.15-.4-.23-.07-.04-.13-.08-.19-.12,0,0,0,0,0,0-.82-.52-1.47-1.16-1.96-1.93-.55-.88-1.21-2.46-1.21-5.37v-53.57s.01-.1.01-.22c.03-.24.06-.66.15-1.18.17-1.1.49-2.41,1.05-3.62.55-1.18,1.24-2.08,2.13-2.71.84-.59,2.33-1.29,5.05-1.29h100.53s.1,0,.19.01c.23.02.63.06,1.12.15,1.02.18,2.25.52,3.39,1.13.22.12.43.24.63.38.07.04.13.08.19.12.02.01.03.03.05.04.21.15.39.33.58.5.42.37.79.77,1.08,1.23.56.89,1.21,2.48,1.21,5.38v48.61ZM228.64,496.65c-.9,4.71-5.28,7.75-9.78,6.81l-48.86-10.23c-.83-.18-1.57-.48-2.28-.87-.05-.03-.1-.04-.14-.07-.02-.01-.04-.02-.06-.03-.11-.07-.22-.13-.32-.21-2.08-1.37-3.49-3.66-3.8-6.23,2.18-4.52,2.18-9.1,2.18-9.1v-4.62l17.49-91.32c.9-4.71,5.28-7.76,9.78-6.82l48.85,10.24c.93.2,1.79.55,2.56,1.03.03.03.07.04.1.06.05.03.09.06.14.09.01.01.02.02.04.03.16.1.29.23.44.35,1.51,1.17,2.62,2.83,3.11,4.72.32,1.25.38,2.6.12,3.95l-19.58,102.22ZM374.38,443.82l-22.36,59.07c-1.54,4.08-6.05,6.04-10.07,4.37l-87.37-36.18c-.36-.14-.69-.32-1.02-.51-.01-.01-.03-.01-.04-.02,0,0-.02-.01-.02-.02,0,0-.02-.01-.03-.02-.05-.03-.1-.07-.15-.1,0,0-.02-.01-.03-.02-.03-.02-.06-.04-.09-.06-3.08-2.05-4.46-6.08-3.11-9.65l22.35-59.07c1.55-4.08,6.06-6.04,10.08-4.37l87.37,36.19c.46.19.9.42,1.31.69.06.04.12.08.18.13.02.01.04.03.06.04.03.01.05.03.07.04,2.91,2.1,4.19,6.01,2.87,9.49ZM488.08,485.65h-100.6v-67.05c0-2.48,1.88-4.47,4.19-4.47h92.22c.82,0,1.59.25,2.23.69.05.02.1.06.15.09.03.02.05.04.07.06,0,0,0,0,0,0,1.05.82,1.74,2.13,1.74,3.63v67.05Z" fill="#5f308d"></path><path d="M355.91,470.34c1.35-3.54.01-7.52-3.01-9.6-.46-.31-.95-.59-1.48-.8-4.01-1.66-8.53.29-10.06,4.37-1.38,3.63.07,7.72,3.25,9.75.39.25.8.47,1.23.65,4.03,1.67,8.54-.29,10.07-4.37Z" fill="#5f308d"></path><path d="M205.85,483.01c.67-3.52-.8-6.98-3.48-8.89-.89-.64-1.91-1.1-3.04-1.33-4.5-.95-8.88,2.1-9.79,6.8-.69,3.63.89,7.18,3.71,9.04.84.56,1.78.97,2.81,1.18,4.5.94,8.88-2.11,9.78-6.81Z" fill="#5f308d"></path><path d="M90.29,230.86c0-18.65-14.43-33.77-32.23-33.77s-32.21,15.12-32.21,33.77,14.43,33.77,32.21,33.77,32.23-15.12,32.23-33.77ZM69.05,219.48c-.51-.53-.64-1.31-.38-1.97.08-.22.21-.43.38-.6.6-.61,1.51-.69,2.2-.23.08.06.17.13.24.21.01,0,.02.02.03.03l12.21,12.67c.35.36.52.82.52,1.28s-.17.92-.52,1.28l-12.21,12.66c-.6.62-1.52.7-2.2.23-.09-.06-.17-.13-.25-.21,0,0-.02-.01-.03-.02-.68-.7-.68-1.86,0-2.56l10.98-11.38-10.98-11.38ZM47.09,242.24c.43.44.58,1.05.48,1.62-.07.35-.23.68-.48.94-.6.62-1.52.7-2.2.23-.09-.06-.17-.13-.25-.21,0,0-.02-.01-.03-.02l-12.22-12.66c-.34-.36-.51-.82-.51-1.28s.17-.92.51-1.28l12.22-12.67c.6-.61,1.51-.69,2.2-.23.08.06.17.13.24.21.01,0,.02.02.03.03.68.71.68,1.86,0,2.57l-10.99,11.38,10.99,11.38ZM50.57,256.1c-.12-.04-.23-.09-.33-.14-.01,0-.02-.02-.03-.03-.12-.08-.24-.16-.34-.26-.02-.02-.03-.05-.05-.07-.03-.03-.05-.07-.08-.11-.09-.12-.17-.25-.23-.38-.01-.03-.03-.07-.04-.1-.06-.16-.09-.32-.11-.49,0-.02,0-.04,0-.07,0-.2,0-.4.07-.61l2.57-8.67,11.39-38.36c.28-.95,1.26-1.49,2.18-1.2.12.04.23.09.33.14.18.1.34.23.47.39,0,0,0,0,0,0,.13.15.23.32.31.51,0,0,0,0,0,.01.07.18.11.37.12.57,0,.02,0,.03,0,.05,0,.18-.02.36-.06.54,0,.02,0,.04,0,.06l-2.47,8.32-11.49,38.7c-.28.96-1.26,1.49-2.19,1.2Z" fill="#7351a1"></path><path d="M69.05,216.91c-.17.17-.3.38-.38.6-.26.66-.13,1.44.38,1.97l10.98,11.38-10.98,11.38c-.68.7-.68,1.86,0,2.56,0,0,.01.01.02.02.08.08.16.15.25.21.68.47,1.59.39,2.2-.23l12.21-12.66c.35-.36.52-.82.52-1.28s-.17-.92-.52-1.28l-12.21-12.67s-.02-.02-.03-.03c-.08-.08-.16-.15-.25-.2-.68-.46-1.6-.38-2.19.23Z" fill="#fff"></path><path d="M90.67,132.97c0-18.23-14.1-33.02-31.5-33.02s-31.5,14.79-31.5,33.02,14.1,33.02,31.5,33.02,31.5-14.79,31.5-33.02ZM76.71,130.46h0c.11.83.17,1.67.17,2.52,0,5.89-2.62,11.14-6.71,14.55h0s0,0,0,0l-5.11-12.49,11.65-4.58h0s0,0,0,0ZM52.89,150.34l-6.53,8.21c-.62-.34-1.23-.71-1.82-1.09-3.1-2.03-5.78-4.7-7.89-7.82-.7-1.04-1.34-2.13-1.91-3.26l7.82-6.84c-.72-2.04-1.13-4.26-1.13-6.57,0-10.26,7.93-18.57,17.72-18.57,3.9,0,7.49,1.32,10.41,3.54.77.59,1.48,1.25,2.14,1.95.18.19.37.37.55.57l-15.06,6.32,3.93,10.31,5.25,12.85c-2.2,1.03-4.64,1.6-7.21,1.6-2.22,0-4.32-.43-6.27-1.2Z" fill="#7351a1"></path><path d="M90.67,331.05c0-18.23-14.1-33.01-31.5-33.01s-31.5,14.78-31.5,33.01,14.1,33.02,31.5,33.02,31.5-14.78,31.5-33.02ZM48.84,351.24c-.78-.25-1.54-.6-2.22-1.06-1.87-1.26-3.21-3.26-3.21-5.87v-13.61c0-3.57,2.5-6.01,5.43-6.95v-6.1c0-6.27,4.84-11.36,10.83-11.36,2.25,0,4.33.72,6.05,1.94,1.54,1.09,2.78,2.59,3.61,4.35.73,1.53,1.15,3.25,1.15,5.07v6.1h0c.21.07.42.16.62.25.23.09.45.19.67.3.27.14.54.27.79.43.78.5,1.47,1.14,2.01,1.89.82,1.11,1.33,2.48,1.33,4.08v13.61c0,4.63-4.24,7.37-8.12,7.37h-16.24c-.91,0-1.83-.16-2.71-.44Z" fill="#7351a1"></path><path d="M70.17,147.52h0c4.09-3.4,6.71-8.65,6.71-14.54,0-.85-.06-1.69-.17-2.52h0s0,0,0,0l-11.65,4.58,5.11,12.48Z" fill="#fff"></path><path d="M75.91,344.31v-13.61c0-1.6-.51-2.97-1.33-4.08-.55-.75-1.24-1.38-2.02-1.89-.25-.16-.52-.3-.79-.44-.22-.11-.44-.21-.67-.3-.21-.08-.41-.18-.62-.24h0v-6.1c0-1.83-.42-3.54-1.15-5.07-.84-1.75-2.08-3.26-3.61-4.35-1.72-1.22-3.8-1.94-6.05-1.94-5.99,0-10.83,5.09-10.83,11.36v6.1c-2.93.94-5.43,3.38-5.43,6.95v13.61c0,2.6,1.34,4.61,3.21,5.87.68.46,1.44.81,2.22,1.06.89.29,1.81.44,2.71.44h16.24c3.88,0,8.12-2.74,8.12-7.37ZM65.08,323.31h-10.84v-5.66c0-3.14,2.44-5.68,5.43-5.68s5.41,2.54,5.41,5.68v5.66Z" fill="#fff"></path><path d="M61.12,137.09l-3.93-10.31,15.06-6.32c-.17-.2-.37-.38-.55-.57-.67-.7-1.37-1.37-2.14-1.95-2.92-2.23-6.52-3.54-10.41-3.54-9.79,0-17.72,8.31-17.72,18.57,0,2.31.41,4.53,1.13,6.57l-7.82,6.84c.57,1.13,1.2,2.22,1.9,3.26,2.11,3.12,4.79,5.78,7.89,7.82.59.39,1.2.75,1.82,1.09l6.53-8.21c1.95.77,4.05,1.2,6.27,1.2,2.57,0,5.01-.57,7.21-1.6l-5.25-12.85ZM51.59,144.27c-.39.14-.84,0-1.09-.36-.25-.34-.28-.83-.04-1.2l2.35-3.68-3.19,1.11c-.39.14-.83,0-1.09-.35-.25-.36-.27-.84-.03-1.2l2.34-3.69-3.18,1.12-.63-1.96,5.9-2.06c.41-.15.84,0,1.1.34.26.35.27.83.04,1.2l-2.35,3.69,3.19-1.11c.4-.14.84,0,1.09.36.26.34.27.82.04,1.19l-2.34,3.69,3.18-1.11.62,1.95-5.91,2.07Z" fill="#fff"></path><path d="M66.72,207.88s0-.04,0-.06c.05-.18.07-.36.06-.54,0-.02,0-.03,0-.05-.01-.2-.05-.39-.12-.57,0,0,0,0,0-.01-.07-.19-.18-.36-.31-.51,0,0,0,0,0,0-.13-.15-.29-.28-.47-.38-.1-.06-.21-.11-.33-.14-.92-.29-1.9.25-2.18,1.2l-11.39,38.36-2.57,8.67c-.06.2-.08.4-.07.6,0,.02,0,.04,0,.07.01.17.05.34.11.49.01.04.03.07.04.1.06.14.14.27.23.38.03.04.05.07.08.11.11.13.24.24.39.33.01,0,.02.02.03.03.1.06.21.11.33.14.93.29,1.91-.24,2.19-1.2l11.49-38.7,2.47-8.32Z" fill="#fff"></path><path d="M59.67,311.97c-2.99,0-5.43,2.54-5.43,5.68v5.66h10.84v-5.66c0-3.14-2.42-5.68-5.41-5.68Z" fill="#7351a1"></path><path d="M53.7,141.36l2.34-3.69c.23-.37.22-.85-.04-1.19-.25-.36-.69-.5-1.09-.36l-3.19,1.11,2.35-3.69c.23-.37.22-.85-.04-1.2-.26-.34-.69-.49-1.1-.34l-5.9,2.06.63,1.96,3.18-1.12-2.34,3.69c-.24.36-.22.84.03,1.2.26.35.7.49,1.09.35l3.19-1.11-2.35,3.68c-.24.37-.21.86.04,1.2.25.35.7.5,1.09.36l5.91-2.07-.62-1.95-3.18,1.11Z" fill="#7351a1"></path><path d="M47.09,216.91s-.02-.02-.03-.03c-.08-.08-.16-.15-.25-.2-.68-.46-1.6-.38-2.19.23l-12.22,12.67c-.34.36-.51.82-.51,1.28s.17.92.51,1.28l12.22,12.66s.01.01.02.02c.08.08.16.15.25.21.68.47,1.59.39,2.2-.23.25-.26.41-.59.48-.94.1-.57-.05-1.18-.48-1.62l-10.99-11.38,10.99-11.38c.68-.71.68-1.86,0-2.57Z" fill="#fff"></path><path d="M148.81,405.18s16.77,0,16.77,17.89v4.79l9.35-48.8c1.8-9.4,6.55-15.51,15.54-13.62l52.88,10.24c8.98,1.89,14.82,11.04,13.01,20.45l-9.98,52.07,18.78-49.6c3.08-8.16,12.1-12.07,20.15-8.74l87.37,36.18c2.59,1.07,4.77,2.76,6.42,4.85v-12.29c0-7.4,5.64-13.42,12.57-13.42h92.22c2.93,0,5.64,1.08,7.77,2.88v-3.13c0-5.76-2.81-10.83-7.09-13.79v-22.66c13.91-6.36,23.63-20.91,23.63-37.83s-9.72-31.46-23.63-37.83v-23.38c13.91-6.36,23.63-20.91,23.63-37.83s-9.72-31.46-23.63-37.84v-23.37c13.91-6.37,23.63-20.91,23.63-37.83,0-22.8-17.63-41.28-39.38-41.28-8.28,0-15.97,2.69-22.31,7.27H81.64c-6.34-4.58-14.04-7.27-22.31-7.27-21.75,0-39.38,18.48-39.38,41.28,0,16.92,9.72,31.46,23.62,37.83v23.37c-13.9,6.38-23.62,20.91-23.62,37.84s9.72,31.47,23.62,37.83v23.38c-13.9,6.37-23.62,20.91-23.62,37.83s9.72,31.47,23.62,37.83v22.66c-4.27,2.96-7.08,8.03-7.08,13.79v4.81c2.48-2.61,6.18-4.56,11.72-4.56h100.6ZM468.67,99.95c17.4,0,31.5,14.79,31.5,33.02s-14.1,33.02-31.5,33.02-31.5-14.79-31.5-33.02,14.1-33.02,31.5-33.02ZM456.41,201.59c3.77-1.67,7.91-2.6,12.26-2.6,17.4,0,31.5,14.79,31.5,33.02s-14.1,33.02-31.5,33.02c-4.35,0-8.49-.92-12.26-2.59-11.31-5.02-19.24-16.75-19.24-30.43s7.93-25.41,19.24-30.42ZM468.67,298.04c8.16,0,15.58,3.25,21.18,8.58,6.34,6.03,10.32,14.75,10.32,24.43s-3.98,18.4-10.32,24.44c-5.6,5.34-13.02,8.58-21.18,8.58-17.4,0-31.5-14.78-31.5-33.02s14.1-33.01,31.5-33.01ZM264,119.6c63.82,0,115.56,51.73,115.56,115.55s-51.74,115.56-115.56,115.56-115.56-51.74-115.56-115.56,51.74-115.55,115.56-115.55ZM27.67,132.97c0-18.23,14.1-33.02,31.5-33.02s31.5,14.79,31.5,33.02-14.1,33.02-31.5,33.02-31.5-14.79-31.5-33.02ZM25.85,230.86c0-18.65,14.43-33.77,32.21-33.77s32.23,15.12,32.23,33.77-14.43,33.77-32.23,33.77-32.21-15.12-32.21-33.77ZM27.67,331.05c0-18.23,14.1-33.01,31.5-33.01s31.5,14.78,31.5,33.01-14.1,33.02-31.5,33.02-31.5-14.78-31.5-33.02Z" fill="#fff"></path><path d="M264,350.71c63.82,0,115.56-51.74,115.56-115.56s-51.74-115.55-115.56-115.55-115.56,51.73-115.56,115.55,51.74,115.56,115.56,115.56ZM221.27,290.15c1.54,2.19,3.69,3.28,6.45,3.28,2.48,0,4.39-.57,5.72-1.7,1.33-1.13,2.21-3.11,2.64-5.92h4.49c-.42,3.61-1.74,6.39-3.97,8.36-2.23,1.96-5.19,2.94-8.88,2.94-4,0-7.21-1.45-9.63-4.34-2.41-2.89-3.62-6.76-3.62-11.6v-3.28c0-3.17.56-5.96,1.69-8.37s2.72-4.25,4.78-5.54c2.06-1.29,4.45-1.93,7.17-1.93,3.6,0,6.49,1.01,8.66,3.04s3.44,4.82,3.79,8.4h-4.49c-.39-2.73-1.23-4.7-2.53-5.92-1.3-1.22-3.11-1.83-5.44-1.83-2.86,0-5.09,1.06-6.72,3.19-1.62,2.13-2.43,5.15-2.43,9.08v3.31c0,3.71.77,6.65,2.3,8.84ZM284.41,275.17c-.65-.11-1.36-.16-2.12-.16-2.83,0-4.74,1.21-5.75,3.63v18h-4.31v-25.36h4.19l.07,2.93c1.41-2.27,3.41-3.4,6.01-3.4.84,0,1.47.11,1.91.33v4.03ZM299.02,190.4h46.97v6.59h-19.52v54.55h-7.97v-54.55h-19.48v-6.59ZM305,274.07c1.82,2.17,2.72,5.28,2.72,9.33v1.8h-17.06c.06,2.5.79,4.52,2.18,6.06,1.39,1.54,3.16,2.31,5.3,2.31,1.52,0,2.81-.31,3.86-.94s1.98-1.45,2.77-2.48l2.63,2.06c-2.11,3.27-5.28,4.9-9.5,4.9-3.41,0-6.19-1.13-8.33-3.39s-3.21-5.28-3.21-9.06v-.8c0-2.52.48-4.76,1.43-6.74.96-1.98,2.29-3.52,4-4.64,1.71-1.12,3.57-1.68,5.58-1.68,3.27,0,5.82,1.09,7.64,3.26ZM254.21,190.4h38.17v6.59h-30.16v19.69h26.32v6.59h-26.32v21.67h30.57v6.59h-38.58v-61.14ZM244.38,283.73c0-2.48.48-4.72,1.46-6.7.97-1.98,2.32-3.52,4.05-4.59,1.73-1.08,3.71-1.62,5.92-1.62,3.43,0,6.2,1.2,8.32,3.59s3.18,5.57,3.18,9.54v.3c0,2.47-.47,4.68-1.41,6.64-.94,1.96-2.28,3.49-4.03,4.58-1.75,1.09-3.75,1.64-6.02,1.64-3.41,0-6.18-1.2-8.3-3.59-2.12-2.39-3.18-5.55-3.18-9.49v-.3ZM194.17,190.4h8.05l30.66,47.33v-47.33h7.97v61.14h-8.05l-30.57-47.12v47.12h-8.05v-61.14ZM179.86,250.7c-.82.87-2.02,1.3-3.61,1.3s-2.77-.43-3.57-1.3c-.79-.87-1.19-1.95-1.19-3.23s.4-2.46,1.19-3.36c.79-.9,1.98-1.34,3.57-1.34s2.79.45,3.61,1.34c.82.9,1.23,2.02,1.23,3.36s-.41,2.37-1.23,3.23Z" fill="#662d91"></path><path d="M303.42,281.64v-.33c-.12-2.2-.71-3.91-1.77-5.12-1.05-1.21-2.48-1.82-4.28-1.82s-3.2.64-4.38,1.91-1.91,3.06-2.19,5.36h12.62Z" fill="#662d91"></path><path d="M255.86,293.57c2.19,0,3.93-.86,5.21-2.59,1.29-1.73,1.93-4.14,1.93-7.25,0-2.78-.66-5.04-1.97-6.76s-3.05-2.59-5.23-2.59-3.84.85-5.15,2.55-1.96,4.14-1.96,7.31c0,2.81.65,5.07,1.94,6.77,1.3,1.7,3.03,2.55,5.2,2.55Z" fill="#662d91"></path><path d="M176.25,242.77c-1.58,0-2.77.45-3.57,1.34-.79.9-1.19,2.02-1.19,3.36s.4,2.37,1.19,3.23c.79.87,1.98,1.3,3.57,1.3s2.79-.43,3.61-1.3c.82-.87,1.23-1.95,1.23-3.23s-.41-2.46-1.23-3.36c-.82-.9-2.02-1.34-3.61-1.34Z" fill="#fff"></path><path fill="#fff" d="M202.22 204.43L232.79 251.54 240.84 251.54 240.84 190.4 232.87 190.4 232.87 237.73 202.22 190.4 194.17 190.4 194.17 251.54 202.22 251.54 202.22 204.43z"></path><path fill="#fff" d="M292.79 244.95L262.22 244.95 262.22 223.28 288.54 223.28 288.54 216.69 262.22 216.69 262.22 197 292.38 197 292.38 190.4 254.21 190.4 254.21 251.54 292.79 251.54 292.79 244.95z"></path><path fill="#fff" d="M318.5 251.54L326.46 251.54 326.46 197 345.98 197 345.98 190.4 299.02 190.4 299.02 197 318.5 197 318.5 251.54z"></path><path d="M221.4,268.92c1.62-2.13,3.86-3.19,6.72-3.19,2.33,0,4.14.61,5.44,1.83,1.3,1.22,2.14,3.2,2.53,5.92h4.49c-.36-3.58-1.62-6.38-3.79-8.4s-5.06-3.04-8.66-3.04c-2.72,0-5.11.64-7.17,1.93-2.06,1.29-3.66,3.14-4.78,5.54s-1.69,5.2-1.69,8.37v3.28c0,4.84,1.21,8.71,3.62,11.6,2.41,2.89,5.62,4.34,9.63,4.34,3.69,0,6.65-.98,8.88-2.94,2.23-1.96,3.55-4.75,3.97-8.36h-4.49c-.43,2.81-1.32,4.79-2.64,5.92-1.33,1.13-3.23,1.7-5.72,1.7-2.76,0-4.91-1.09-6.45-3.28-1.54-2.19-2.3-5.14-2.3-8.84v-3.31c0-3.92.81-6.95,2.43-9.08Z" fill="#fff"></path><path d="M255.86,297.11c2.27,0,4.27-.55,6.02-1.64,1.75-1.09,3.09-2.62,4.03-4.58.94-1.96,1.41-4.18,1.41-6.64v-.3c0-3.97-1.06-7.15-3.18-9.54s-4.89-3.59-8.32-3.59c-2.22,0-4.19.54-5.92,1.62-1.73,1.08-3.08,2.61-4.05,4.59-.97,1.98-1.46,4.22-1.46,6.7v.3c0,3.94,1.06,7.1,3.18,9.49,2.12,2.39,4.88,3.59,8.3,3.59ZM250.66,276.93c1.3-1.7,3.02-2.55,5.15-2.55s3.91.86,5.23,2.59,1.97,3.98,1.97,6.76c0,3.11-.64,5.53-1.93,7.25-1.29,1.73-3.03,2.59-5.21,2.59s-3.91-.85-5.2-2.55c-1.3-1.7-1.94-3.96-1.94-6.77,0-3.17.65-5.61,1.96-7.31Z" fill="#fff"></path><path d="M276.49,274.21l-.07-2.93h-4.19v25.36h4.31v-18c1.01-2.42,2.92-3.63,5.75-3.63.76,0,1.47.05,2.12.16v-4.03c-.43-.22-1.07-.33-1.91-.33-2.59,0-4.59,1.13-6.01,3.4Z" fill="#fff"></path><path d="M287.79,277.13c-.95,1.98-1.43,4.22-1.43,6.74v.8c0,3.78,1.07,6.8,3.21,9.06s4.92,3.39,8.33,3.39c4.22,0,7.39-1.63,9.5-4.9l-2.63-2.06c-.79,1.03-1.71,1.86-2.77,2.48s-2.34.94-3.86.94c-2.14,0-3.91-.77-5.3-2.31-1.39-1.54-2.11-3.56-2.18-6.06h17.06v-1.8c0-4.05-.91-7.16-2.72-9.33-1.82-2.17-4.36-3.26-7.64-3.26-2,0-3.86.56-5.58,1.68-1.72,1.12-3.05,2.66-4,4.64ZM297.37,274.38c1.8,0,3.23.61,4.28,1.82,1.06,1.21,1.65,2.92,1.77,5.12v.33h-12.62c.28-2.3,1.01-4.08,2.19-5.36s2.64-1.91,4.38-1.91Z" fill="#fff"></path></g></svg>