<svg xmlns="http://www.w3.org/2000/svg" viewBox="0 0 504.5 504.9"><g class="jsopx-icon-wrapper"><path fill="#fff" d="M450.89 319.66L439.92 299.28 450.72 299.28 457.13 312.94 463.53 299.28 474.3 299.28 463.38 319.66 474.6 340.35 463.72 340.35 457.13 326.45 450.53 340.35 439.63 340.35 450.89 319.66z"></path><path d="M454.86,222.91c.76.61,1.77.91,3.07.91.87,0,1.58-.21,2.15-.63.58-.42,1.03-1.02,1.38-1.77.34-.77.58-1.66.72-2.65.14-1,.22-2.08.22-3.22v-.59c0-1.19-.09-2.26-.24-3.25-.16-1-.43-1.86-.79-2.59-.33-.74-.79-1.3-1.36-1.7-.59-.39-1.29-.58-2.13-.58-.98,0-1.79.16-2.46.47-.64.3-1.16.77-1.55,1.41-.1.17-.19.34-.27.52v12.04c.3.66.73,1.21,1.26,1.63ZM444.53,242.32v-42.26h8.44l.3,2.81c.69-.89,1.48-1.62,2.37-2.19,1.26-.79,2.75-1.18,4.5-1.18,1.85,0,3.47.36,4.87,1.1,1.41.73,2.6,1.78,3.55,3.16.97,1.35,1.69,2.98,2.19,4.88.48,1.89.71,4,.71,6.32v.59c0,2.22-.23,4.28-.71,6.17-.5,1.91-1.21,3.57-2.17,4.98-.95,1.41-2.12,2.51-3.55,3.29-1.4.77-3.02,1.16-4.87,1.16-1.73,0-3.23-.4-4.49-1.22-.77-.49-1.47-1.09-2.07-1.82v14.21h-9.07Z" fill="#fff"></path><path d="M452.73,128.56c.42.84,1,1.49,1.74,1.96.74.48,1.67.72,2.77.72s1.99-.24,2.71-.72c.74-.47,1.32-1.12,1.76-1.96.42-.86.74-1.86.92-3,.19-1.14.28-2.36.28-3.67v-.69c0-1.26-.09-2.45-.28-3.57-.18-1.14-.5-2.14-.92-3-.44-.89-1.02-1.57-1.76-2.06s-1.66-.74-2.77-.74-2,.25-2.74.74c-.72.49-1.29,1.17-1.71,2.06-.44.86-.74,1.86-.93,3-.18,1.12-.27,2.31-.27,3.57v.69c0,1.31.09,2.53.27,3.67.19,1.14.49,2.14.93,3ZM442.2,128.94c-.7-2.17-1.04-4.52-1.04-7.05v-.69c0-2.55.34-4.9,1.04-7.05.7-2.18,1.72-4.06,3.08-5.65,1.35-1.59,3.02-2.82,5.02-3.7,1.98-.9,4.27-1.36,6.88-1.36s4.93.46,6.92,1.36c2.01.88,3.69,2.11,5.04,3.7,1.36,1.59,2.39,3.47,3.08,5.65.7,2.15,1.05,4.5,1.05,7.05v.69c0,2.53-.35,4.88-1.05,7.05-.69,2.15-1.72,4.03-3.08,5.65-1.35,1.59-3.02,2.82-5,3.7-2,.89-4.29,1.33-6.9,1.33s-4.91-.44-6.92-1.33c-2.01-.88-3.69-2.11-5.04-3.7-1.36-1.62-2.38-3.5-3.08-5.65Z" fill="#fff"></path><path d="M58.35,136.19l-5.11-12.49,11.65-4.58c.11.83.17,1.67.17,2.52,0,5.89-2.62,11.14-6.71,14.55Z" fill="#fff"></path><path d="M47.34,140.21c-2.22,0-4.32-.43-6.27-1.2l-6.53,8.21c-4.95-2.72-9.02-6.99-11.61-12.17l7.82-6.84c-.72-2.04-1.13-4.26-1.13-6.57,0-10.26,7.93-18.57,17.72-18.57,5.19,0,9.86,2.34,13.09,6.06l-15.06,6.32,3.93,10.31,5.25,12.85c-2.2,1.03-4.64,1.6-7.21,1.6ZM38.68,132.58c.25.35.7.5,1.09.36l5.91-2.07-.62-1.95-3.18,1.11,2.34-3.69c.23-.37.22-.85-.04-1.19-.25-.36-.69-.5-1.09-.36l-3.19,1.11,2.35-3.69c.23-.37.22-.85-.04-1.2-.26-.34-.69-.49-1.1-.34l-5.9,2.06.63,1.96,3.18-1.12-2.34,3.69c-.24.36-.22.84.03,1.2.26.35.7.49,1.09.35l3.19-1.11-2.35,3.68c-.24.37-.21.86.04,1.2Z" fill="#fff"></path><path d="M32.8,233.47l-12.22-12.66c-.34-.36-.51-.82-.51-1.28s.17-.92.51-1.28l12.22-12.67c.68-.7,1.78-.7,2.47,0,.68.71.68,1.86,0,2.57l-10.99,11.38,10.99,11.38c.43.44.58,1.05.48,1.62-.07.35-.23.68-.48.94-.69.71-1.79.71-2.47,0Z" fill="#fff"></path><path d="M57.23,205.58c.68-.7,1.78-.7,2.47,0l12.21,12.67c.35.36.52.82.52,1.28s-.17.92-.52,1.28l-12.21,12.66c-.69.71-1.79.71-2.47,0-.68-.7-.68-1.86,0-2.56l10.98-11.38-10.98-11.38c-.51-.53-.64-1.31-.38-1.97.08-.22.21-.43.38-.6Z" fill="#fff"></path><path d="M40.94,243.57c-.28.96-1.26,1.49-2.19,1.2-.92-.29-1.43-1.31-1.15-2.26l2.57-8.67,11.39-38.36c.28-.95,1.26-1.49,2.18-1.2.93.29,1.44,1.31,1.16,2.27l-2.47,8.32-11.49,38.7Z" fill="#fff"></path><path d="M47.85,300.64c-2.99,0-5.43,2.54-5.43,5.68v5.66h10.84v-5.66c0-3.14-2.42-5.68-5.41-5.68ZM37.02,306.32c0-6.27,4.84-11.36,10.83-11.36s10.81,5.09,10.81,11.36v6.1c2.93.94,5.43,3.38,5.43,6.95v13.61c0,4.63-4.24,7.37-8.12,7.37h-16.24c-3.9,0-8.14-2.74-8.14-7.37v-13.61c0-3.57,2.5-6.01,5.43-6.95v-6.1Z" fill="#fff"></path><path d="M138.23,403.11c1.02.18,2.25.52,3.38,1.13,1.1.59,1.95,1.33,2.53,2.27.56.89,1.21,2.48,1.21,5.38v48.61l-1.83,9.61c-.13.62-.21,1.24-.26,1.86-.36.48-.77.89-1.23,1.22-.83.59-2.32,1.28-5.04,1.28H36.66s-.1,0-.19-.01c-.24-.01-.63-.05-1.12-.14-1.02-.18-2.25-.53-3.39-1.13-1.1-.59-1.94-1.33-2.54-2.28-.55-.88-1.21-2.46-1.21-5.37v-53.57s0-.1,0-.22c.03-.24.06-.66.15-1.18.17-1.1.49-2.41,1.05-3.62.55-1.18,1.24-2.08,2.13-2.71.83-.59,2.32-1.29,5.04-1.29h100.33s.1,0,.19.01c.23.02.63.06,1.12.15Z" fill="#fff"></path><path d="M471.43,402.95c2.32,0,4.19,1.99,4.19,4.47v67.05h-100.41v-67.05c0-2.48,1.87-4.47,4.18-4.47h92.04Z" fill="#fff"></path><path d="M333.65,463.53c4.02,1.67,8.52-.29,10.05-4.37,1.55-4.07-.45-8.73-4.48-10.4-4-1.66-8.51.29-10.04,4.37-1.55,4.07.46,8.73,4.47,10.4ZM270.45,386.06l87.2,36.19c4.02,1.66,6.02,6.32,4.48,10.39l-22.31,59.07c-1.54,4.08-6.04,6.04-10.06,4.37l-87.2-36.18c-4.01-1.67-6.02-6.33-4.48-10.4l22.31-59.07c1.54-4.08,6.05-6.04,10.06-4.37Z" fill="#fff"></path><path d="M184.16,478.64c4.49.94,8.86-2.11,9.76-6.81.89-4.7-2.02-9.28-6.5-10.22-4.49-.95-8.86,2.1-9.77,6.8-.89,4.71,2.02,9.29,6.51,10.23ZM206.91,492.28l-48.77-10.23c-3.57-.76-6.15-3.81-6.58-7.41,2.17-4.52,2.17-9.1,2.17-9.1v-4.62l17.46-91.32c.9-4.71,5.27-7.76,9.76-6.82l48.76,10.24c4.49.95,7.4,5.53,6.5,10.23l-19.54,102.22c-.9,4.71-5.27,7.75-9.76,6.81Z" fill="#fff"></path><path d="M488.35,319.72c0-9.68-3.98-18.4-10.32-24.43-5.59-5.33-13.02-8.58-21.18-8.58-17.4,0-31.5,14.78-31.5,33.01s14.1,33.02,31.5,33.02c8.16,0,15.59-3.25,21.18-8.58,6.34-6.04,10.32-14.75,10.32-24.44ZM488.35,220.68c0-18.23-14.1-33.02-31.5-33.02-4.35,0-8.49.93-12.26,2.6-11.31,5.01-19.24,16.75-19.24,30.42s7.93,25.41,19.24,30.43c3.77,1.67,7.91,2.59,12.26,2.59,17.4,0,31.5-14.78,31.5-33.02ZM46.24,185.76c-17.78,0-32.21,15.12-32.21,33.77s14.43,33.77,32.21,33.77,32.23-15.12,32.23-33.77-14.43-33.77-32.23-33.77ZM456.85,88.62c-17.4,0-31.5,14.79-31.5,33.02s14.1,33.02,31.5,33.02,31.5-14.79,31.5-33.02-14.1-33.02-31.5-33.02ZM47.51,79.96c8.27,0,15.97,2.69,22.31,7.27h364.87c6.34-4.58,14.03-7.27,22.31-7.27,21.75,0,39.38,18.48,39.38,41.28,0,16.92-9.72,31.46-23.63,37.83v23.37c13.91,6.38,23.63,20.91,23.63,37.84s-9.72,31.47-23.63,37.83v23.38c13.91,6.37,23.63,20.91,23.63,37.83s-9.72,31.47-23.63,37.83v22.66c4.28,2.96,7.09,8.03,7.09,13.79v3.31c2.63,2.46,4.3,6.07,4.3,10.11v.4h-.16c0-4.03-1.66-7.65-4.3-10.1-2.2-2.07-5.09-3.32-8.25-3.32h-92.04c-6.92,0-12.55,6.02-12.55,13.42v12.29c-1.64-2.09-3.82-3.78-6.4-4.85l-87.21-36.18c-8.03-3.33-17.03.58-20.11,8.74l-18.74,49.6,9.96-52.07c1.8-9.41-4.02-18.56-12.99-20.45l-52.78-10.24c-8.97-1.89-13.71,4.22-15.51,13.62l-9.33,48.8v-4.79c0-17.89-16.74-17.89-16.74-17.89H36.59c-5.81,0-9.6,2.15-12.07,4.96-1.31,1.49-2.26,3.17-2.94,4.8.68-1.76,1.67-3.59,3.09-5.2v-4.96c0-5.76,2.81-10.83,7.08-13.79v-22.66c-13.9-6.36-23.62-20.91-23.62-37.83s9.72-31.46,23.62-37.83v-23.38c-13.9-6.36-23.62-20.91-23.62-37.83s9.72-31.46,23.62-37.84v-23.37c-13.9-6.37-23.62-20.91-23.62-37.83,0-22.8,17.63-41.28,39.38-41.28ZM15.85,319.72c0,18.24,14.1,33.02,31.5,33.02s31.5-14.78,31.5-33.02-14.1-33.01-31.5-33.01-31.5,14.78-31.5,33.01ZM15.85,121.64c0,18.23,14.1,33.02,31.5,33.02s31.5-14.79,31.5-33.02-14.1-33.02-31.5-33.02-31.5,14.79-31.5,33.02Z" fill="#fff"></path><path d="M504.25,319.32v81.55c0,16.76-7.95,31.58-20.11,40.53v-34.38c0-4.04-1.67-7.65-4.3-10.11v-3.31c0-5.76-2.81-10.83-7.09-13.79v-22.66c13.91-6.36,23.63-20.91,23.63-37.83h7.87Z" fill="#4e7bbe"></path><path d="M504.25,220.28v99.04h-7.87c0-16.92-9.72-31.46-23.63-37.83v-23.38c13.91-6.36,23.63-20.91,23.63-37.83h7.87Z" fill="#4e7bbe"></path><path d="M504.25,121.24v99.04h-7.87c0-16.93-9.72-31.46-23.63-37.84v-23.37c13.91-6.37,23.63-20.91,23.63-37.83h7.87Z" fill="#4e7bbe"></path><path d="M358.48,487.89h133.87c0,7.4-5.62,13.41-12.55,13.41h-108.78c-6.93,0-12.54-6.01-12.54-13.41Z" fill="#426db5"></path><path fill="#426db5" d="M482.44 27.81L480.04 20.72 480.27 25.48 480.27 27.81 477.89 27.81 477.89 17.85 481.02 17.85 483.23 24.78 485.43 17.85 488.56 17.85 488.56 27.81 486.18 27.81 486.18 25.48 486.41 20.73 484.02 27.81 482.44 27.81z"></path><path d="M474.6,340.35l-11.22-20.69,10.92-20.38,3.73-3.99c6.34,6.03,10.32,14.75,10.32,24.43s-3.98,18.4-10.32,24.44l-3.43-3.81Z" fill="#426db5"></path><path fill="#426db5" d="M471.51 19.71L468.6 19.71 468.6 17.85 476.86 17.85 476.86 19.71 473.89 19.71 473.89 27.81 471.51 27.81 471.51 19.71z"></path><path d="M455.42,207.31c.67-.31,1.48-.47,2.46-.47.84,0,1.54.19,2.13.58.57.4,1.03.96,1.36,1.7.36.73.63,1.59.79,2.59.15.99.24,2.06.24,3.25v.59c0,1.14-.08,2.22-.22,3.22-.14.99-.38,1.88-.72,2.65-.35.75-.8,1.35-1.38,1.77-.57.42-1.28.63-2.15.63-1.3,0-2.31-.3-3.07-.91-.53-.42-.96-.97-1.26-1.63v-12.04c.08-.18.17-.35.27-.52.39-.64.91-1.11,1.55-1.41Z" fill="#426db5"></path><path d="M454.47,130.52c-.74-.47-1.32-1.12-1.74-1.96-.44-.86-.74-1.86-.93-3-.18-1.14-.27-2.36-.27-3.67v-.69c0-1.26.09-2.45.27-3.57.19-1.14.49-2.14.93-3,.42-.89.99-1.57,1.71-2.06.74-.49,1.66-.74,2.74-.74s2.03.25,2.77.74,1.32,1.17,1.76,2.06c.42.86.74,1.86.92,3,.19,1.12.28,2.31.28,3.57v.69c0,1.31-.09,2.53-.28,3.67-.18,1.14-.5,2.14-.92,3-.44.84-1.02,1.49-1.76,1.96-.72.48-1.62.72-2.71.72s-2.03-.24-2.77-.72Z" fill="#426db5"></path><path d="M441.16,121.89c0,2.53.34,4.88,1.04,7.05.7,2.15,1.72,4.03,3.08,5.65,1.35,1.59,3.03,2.82,5.04,3.7,2.01.89,4.32,1.33,6.92,1.33s4.9-.44,6.9-1.33c1.98-.88,3.65-2.11,5-3.7,1.36-1.62,2.39-3.5,3.08-5.65.7-2.17,1.05-4.52,1.05-7.05v-.69c0-2.55-.35-4.9-1.05-7.05-.69-2.18-1.72-4.06-3.08-5.65-1.35-1.59-3.03-2.82-5.04-3.7-1.99-.9-4.3-1.36-6.92-1.36s-4.9.46-6.88,1.36c-2,.88-3.67,2.11-5.02,3.7-1.36,1.59-2.38,3.47-3.08,5.65-.7,2.15-1.04,4.5-1.04,7.05v.69ZM456.85,88.62c17.4,0,31.5,14.79,31.5,33.02s-14.1,33.02-31.5,33.02-31.5-14.79-31.5-33.02,14.1-33.02,31.5-33.02Z" fill="#426db5"></path><path d="M452.97,200.06h-8.38v-9.8c3.77-1.67,7.91-2.6,12.26-2.6,17.4,0,31.5,14.79,31.5,33.02s-14.1,33.02-31.5,33.02c-4.35,0-8.49-.92-12.26-2.59v-8.79h9.01v-14.21c.6.73,1.3,1.33,2.07,1.82,1.26.82,2.76,1.22,4.49,1.22,1.85,0,3.47-.39,4.87-1.16,1.43-.78,2.6-1.88,3.55-3.29.96-1.41,1.67-3.07,2.17-4.98.48-1.89.71-3.95.71-6.17v-.59c0-2.32-.23-4.43-.71-6.32-.5-1.9-1.22-3.53-2.19-4.88-.95-1.38-2.14-2.43-3.55-3.16-1.4-.74-3.02-1.1-4.87-1.1-1.75,0-3.24.39-4.5,1.18-.89.57-1.68,1.3-2.37,2.19l-.3-2.81Z" fill="#426db5"></path><path d="M425.35,220.68c0-13.67,7.93-25.41,19.24-30.42v9.8h-.06v42.26h.06v8.79c-11.31-5.02-19.24-16.75-19.24-30.43Z" fill="#426db5"></path><path d="M478.03,344.16c-5.59,5.33-13.02,8.58-21.18,8.58-17.4,0-31.5-14.78-31.5-33.02s14.1-33.01,31.5-33.01c8.16,0,15.59,3.25,21.18,8.58l-3.73,3.99h-10.77l-6.4,13.66-6.41-13.66h-10.8l10.97,20.38-11.26,20.69h10.9l6.6-13.9,6.59,13.9h10.88l3.43,3.81Z" fill="#426db5"></path><path d="M329.18,453.13c1.53-4.08,6.04-6.03,10.04-4.37,4.03,1.67,6.03,6.33,4.48,10.4-1.53,4.08-6.03,6.04-10.05,4.37-4.01-1.67-6.02-6.33-4.47-10.4Z" fill="#426db5"></path><path d="M471.43,402.95h-92.04c-2.31,0-4.18,1.99-4.18,4.47v67.05h100.41v-67.05c0-2.48-1.87-4.47-4.19-4.47ZM366.84,419.72c.2.25.39.5.58.77-.18-.26-.37-.52-.58-.77ZM238.08,449.5c-1.54,4.07.47,8.73,4.48,10.4l87.2,36.18c4.02,1.67,8.52-.29,10.06-4.37l22.31-59.07c1.54-4.07-.46-8.73-4.48-10.39l-87.2-36.19c-4.01-1.67-8.52.29-10.06,4.37l-22.31,59.07ZM230.54,457.11l3.84-20.08h0s18.74-49.61,18.74-49.61c3.08-8.16,12.08-12.07,20.11-8.74l87.21,36.18c2.58,1.07,4.76,2.76,6.4,4.85v-12.29c0-7.4,5.63-13.42,12.55-13.42h92.04c3.16,0,6.05,1.25,8.25,3.32,2.64,2.45,4.3,6.07,4.3,10.1v76h-117.14v-41l-19.75,52.3c-3.08,8.16-12.09,12.08-20.12,8.74l-87.2-36.18c-4.56-1.89-7.83-5.72-9.23-10.17Z" fill="#426db5"></path><path d="M193.92,471.83c-.9,4.7-5.27,7.75-9.76,6.81s-7.4-5.52-6.51-10.23c.91-4.7,5.28-7.75,9.77-6.8,4.48.94,7.39,5.52,6.5,10.22Z" fill="#426db5"></path><path d="M42.42,306.32c0-3.14,2.44-5.68,5.43-5.68s5.41,2.54,5.41,5.68v5.66h-10.84v-5.66Z" fill="#426db5"></path><path d="M39.77,132.94c-.39.14-.84-.01-1.09-.36-.25-.34-.28-.83-.04-1.2l2.35-3.68-3.19,1.11c-.39.14-.83,0-1.09-.35-.25-.36-.27-.84-.03-1.2l2.34-3.69-3.18,1.12-.63-1.96,5.9-2.06c.41-.15.84,0,1.1.34.26.35.27.83.04,1.2l-2.35,3.69,3.19-1.11c.4-.14.84,0,1.09.36.26.34.27.82.04,1.19l-2.34,3.69,3.18-1.11.62,1.95-5.91,2.07Z" fill="#426db5"></path><path d="M78.85,319.72c0,18.24-14.1,33.02-31.5,33.02s-31.5-14.78-31.5-33.02,14.1-33.01,31.5-33.01,31.5,14.78,31.5,33.01ZM31.59,332.98c0,4.63,4.24,7.37,8.14,7.37h16.24c3.88,0,8.12-2.74,8.12-7.37v-13.61c0-3.57-2.5-6.01-5.43-6.95v-6.1c0-6.27-4.83-11.36-10.81-11.36s-10.83,5.09-10.83,11.36v6.1c-2.93.94-5.43,3.38-5.43,6.95v13.61Z" fill="#426db5"></path><path d="M31.75,357.15v22.66c-4.27,2.96-7.08,8.03-7.08,13.79v4.96c-1.42,1.61-2.41,3.44-3.09,5.2-.09.23-.18.46-.26.69-1.47,3.92-1.47,7.44-1.47,7.44v29.12C7.97,432.03.25,417.4.25,400.87v-81.55h7.88c0,16.92,9.72,31.47,23.62,37.83Z" fill="#4e7bbe"></path><path d="M31.75,258.11v23.38c-13.9,6.37-23.62,20.91-23.62,37.83H.25v-99.04h7.88c0,16.92,9.72,31.47,23.62,37.83Z" fill="#4e7bbe"></path><path d="M31.75,159.07v23.37c-13.9,6.38-23.62,20.91-23.62,37.84H.25v-99.04h7.88c0,16.92,9.72,31.46,23.62,37.83Z" fill="#4e7bbe"></path><path d="M153.73,465.54s0,4.58-2.17,9.1c.43,3.6,3.01,6.65,6.58,7.41l48.77,10.23c4.49.94,8.86-2.1,9.76-6.81l19.54-102.22c.9-4.7-2.01-9.28-6.5-10.23l-48.76-10.24c-4.49-.94-8.86,2.11-9.76,6.82l-17.46,91.32v4.62ZM36.66,474.47h100.33c2.72,0,4.21-.69,5.04-1.28.46-.33.87-.74,1.23-1.22.05-.62.13-1.24.26-1.86l1.83-9.61v-48.61c0-2.9-.65-4.49-1.21-5.38-.58-.94-1.43-1.68-2.53-2.27-1.13-.61-2.36-.95-3.38-1.13-.49-.09-.89-.13-1.12-.15-.09-.01-.16-.01-.19-.01H36.59c-2.72,0-4.21.7-5.04,1.29-.89.63-1.58,1.53-2.13,2.71-.56,1.21-.88,2.52-1.05,3.62-.09.52-.12.94-.15,1.18,0,.12,0,.18,0,.22v53.57c0,2.91.66,4.49,1.21,5.37.6.95,1.44,1.69,2.54,2.28,1.14.6,2.37.95,3.39,1.13.49.09.88.13,1.12.14.09.01.15.01.19.01ZM116.08,501.3h-58.58c0-2.47,1.87-4.47,4.19-4.47h6.27c1.4-2.98,2.1-7.45,2.1-13.41h-33.47s-16.74,0-16.74-17.88v-24.53l.15.12v-29.65s0-3.28,1.32-7.03c.08-.23.17-.46.26-.69.68-1.63,1.63-3.31,2.94-4.8,2.47-2.81,6.26-4.96,12.07-4.96h100.4s16.74,0,16.74,17.89v4.79l9.33-48.8c1.8-9.4,6.54-15.51,15.51-13.62l52.78,10.24c8.97,1.89,14.79,11.04,12.99,20.45l-9.96,52.07h0s-3.84,20.09-3.84,20.09l-5.75,30.06c-1.79,9.41-10.52,15.52-19.51,13.64l-48.76-10.25c-5.1-1.07-9.18-4.48-11.42-8.96-2.13,1.12-4.8,1.82-8.11,1.82h-33.47c0,5.96.7,10.43,2.1,13.41h6.27c2.3,0,4.19,2,4.19,4.47Z" fill="#426db5"></path><path d="M47.35,154.66c-17.4,0-31.5-14.79-31.5-33.02s14.1-33.02,31.5-33.02,31.5,14.79,31.5,33.02-14.1,33.02-31.5,33.02ZM53.24,123.7l5.11,12.49c4.09-3.41,6.71-8.66,6.71-14.55,0-.85-.06-1.69-.17-2.52l-11.65,4.58ZM41.07,139.01c1.95.77,4.05,1.2,6.27,1.2,2.57,0,5.01-.57,7.21-1.6l-5.25-12.85-3.93-10.31,15.06-6.32c-3.23-3.72-7.9-6.06-13.09-6.06-9.79,0-17.72,8.31-17.72,18.57,0,2.31.41,4.53,1.13,6.57l-7.82,6.84c2.59,5.18,6.66,9.45,11.61,12.17l6.53-8.21Z" fill="#426db5"></path><path d="M51.56,195.48l-11.39,38.36-4.42-1.31c.1-.57-.05-1.18-.48-1.62l-10.99-11.38,10.99-11.38c.68-.71.68-1.86,0-2.57-.69-.7-1.79-.7-2.47,0l-12.22,12.67c-.34.36-.51.82-.51,1.28h-6.04c0-18.65,14.43-33.77,32.21-33.77s32.23,15.12,32.23,33.77h-6.04c0-.46-.17-.92-.52-1.28l-12.21-12.67c-.69-.7-1.79-.7-2.47,0-.17.17-.3.38-.38.6l-4.42-1.31,2.47-8.32c.28-.96-.23-1.98-1.16-2.27-.92-.29-1.9.25-2.18,1.2Z" fill="#426db5"></path><path d="M40.17,233.84l-2.57,8.67c-.28.95.23,1.97,1.15,2.26.93.29,1.91-.24,2.19-1.2l11.49-38.7,4.42,1.31c-.26.66-.13,1.44.38,1.97l10.98,11.38-10.98,11.38c-.68.7-.68,1.86,0,2.56.68.71,1.78.71,2.47,0l12.21-12.66c.35-.36.52-.82.52-1.28h6.04c0,18.65-14.43,33.77-32.23,33.77s-32.21-15.12-32.21-33.77h6.04c0,.46.17.92.51,1.28l12.22,12.66c.68.71,1.78.71,2.47,0,.25-.26.41-.59.48-.94l4.42,1.31Z" fill="#426db5"></path><path d="M21.32,404.45c-1.32,3.75-1.32,7.03-1.32,7.03v29.65l-.15-.12v-29.12s0-3.52,1.47-7.44Z" fill="#426db5"></path><path d="M47.51,79.96c-21.75,0-39.38,18.48-39.38,41.28H.25v-17.5c0-26.61,20.02-48.3,45.13-49.48L374.31,1.56c29.83-7.81,82.69,20.43,82.69,52.66,26.1,0,47.25,22.17,47.25,49.52v17.5h-7.87c0-22.8-17.63-41.28-39.38-41.28-8.28,0-15.97,2.69-22.31,7.27H69.82c-6.34-4.58-14.04-7.27-22.31-7.27ZM409.59,54.62v-7.26c0-10.74-41.23-6.73-51.18-4.13l-183.12,11.39h234.3Z" fill="#4e7bbe"></path><path d="M197.29,226.28c8.29-13.37,6.79-38.35-6.97-47.84-15.1-14.45-60.37-8.33-80.64-9.54v120.86h28.94v-42.75h15.67l21.19,42.75h31v-1.25l-25.06-48.8c7.2-3.43,12.49-7.91,15.87-13.43ZM169.34,220.23c-5.16,6.66-23.03,3.79-30.71,4.37v-33.29c7.8.61,25.42-2.35,30.67,4.45,5.58,5.35,5.62,19.13.04,24.47Z" fill="#426db5"></path><path d="M244.78,208.8c4.56-9.22,21.81-8.88,27.97-2.93,3.06,2.84,4.69,7.51,4.88,14.01h25.5c-4.95-55.26-91.55-52.16-89.01,13.64-.75,16.93,2.94,34.39,12.02,44,21.72,25.89,77.2,13.96,76.77-23.91h-25.42c1.8,18.43-24.84,23.4-33.11,10.12-5.91-10.35-6.23-44.25.4-54.93Z" fill="#426db5"></path><path fill="#426db5" d="M341.31 182.98L315.74 182.98 315.74 289.76 385.82 289.76 385.82 269.96 341.31 269.96 341.31 182.98z"></path><path fill="#426db5" d="M356.84 196.07L360.24 189.51 363.7 196.07 370.87 196.07 364.78 184.69 370.59 173.88 363.46 173.88 360.26 180 357.16 173.88 349.95 173.88 355.74 184.69 349.63 196.07 356.84 196.07z"></path><path d="M395.23,171.06c-3.76-6.87-15.5-4.43-21.91-4.85v29.86h7.15v-10.13c9.99,1.34,20.23-4.04,14.76-14.88ZM388.32,179.34c-1.36,1.6-5.9.91-7.85,1.05v-8.61h4.77c3.85-.26,5.47,5.1,3.09,7.57Z" fill="#426db5"></path></g></svg>