<svg xmlns="http://www.w3.org/2000/svg" viewBox="0 0 528 528"><g fill="#000000" class="jsopx-icon-wrapper"><g id="1737744620726-8660682_l"><path d="M245.43,431.89l-3.84,20.08c-1.06-3.38-1.06-7.11.27-10.62l2.09-5.54-2.09,5.53c-1.33,3.52-1.33,7.25-.27,10.63l3.84-20.09h0Z"></path><path d="M377.9 437.27L377.9 437.28 380.16 431.28 377.9 437.27z"></path><path d="M379.94,417.87c-.55-1.18-1.23-2.29-2.04-3.31h0c.81,1.03,1.49,2.14,2.04,3.31Z"></path><path d="M240.77,367.88l-48.76-10.25c-4.49-.94-8.86,2.12-9.76,6.82l-17.46,91.32v4.61s0,4.58-2.17,9.11c.44,3.6,3.01,6.65,6.59,7.4l48.76,10.24c4.49.94,8.86-2.11,9.77-6.81l19.53-102.22c.91-4.7-2-9.28-6.5-10.23ZM204.97,466.69c-.9,4.7-5.26,7.75-9.76,6.81s-7.4-5.52-6.51-10.23c.91-4.7,5.28-7.75,9.77-6.81,4.48.94,7.39,5.52,6.5,10.23Z"></path><path d="M152.67,399.09c-1.13-.6-2.36-.95-3.38-1.13-.49-.09-.88-.12-1.12-.15-.09-.01-.16-.01-.19-.01H47.65c-2.72,0-4.21.69-5.04,1.29-.88.63-1.58,1.53-2.13,2.71-.56,1.21-.88,2.52-1.05,3.62-.09.53-.12.94-.15,1.19,0,.11,0,.18-.01.21v53.57c0,2.91.66,4.49,1.21,5.38.59.95,1.43,1.69,2.54,2.27,1.13.6,2.36.95,3.38,1.13.49.09.88.13,1.12.15.09.01.16.01.19.01h100.33c2.72,0,4.21-.69,5.04-1.29.46-.32.87-.74,1.23-1.22.06-.62.13-1.23.26-1.86l1.84-9.61v-48.61c0-2.9-.65-4.49-1.21-5.38-.58-.94-1.43-1.68-2.53-2.27Z"></path><path d="M468.9,65.57c0-32.23-52.86-60.47-82.69-52.66L57.28,65.61c-25.11,1.18-45.13,22.87-45.13,49.48v353.57c0,26.04,21.31,47.34,47.34,47.34h409.33c26.03,0,47.33-21.3,47.33-47.34V115.09c0-27.35-21.15-49.52-47.25-49.52ZM370.31,54.58c9.95-2.6,51.18-6.61,51.18,4.13v7.26h-234.3l183.12-11.39ZM264,107.67c63.82,0,115.56,51.74,115.56,115.56s-51.74,115.56-115.56,115.56-115.56-51.74-115.56-115.56,51.74-115.56,115.56-115.56ZM483.96,496.15h-96.03c-6.12,0-11.07-6-11.07-13.41h118.19c0,7.4-4.96,13.41-11.08,13.41ZM495.04,436.66v41.62h-117.14v-41l-19.76,52.3c-3.08,8.15-12.08,12.07-20.12,8.74l-87.2-36.18c-4.56-1.89-7.83-5.72-9.23-10.17l-5.75,30.06c-1.79,9.41-10.53,15.51-19.51,13.63l-48.76-10.25c-5.1-1.06-9.18-4.48-11.42-8.96-2.13,1.12-4.79,1.83-8.11,1.83h-33.47c0,5.96.69,10.43,2.09,13.41h6.27c2.31,0,4.19,2,4.19,4.47h-58.58c0-2.46,1.87-4.47,4.19-4.47h6.27c1.4-2.98,2.09-7.45,2.09-13.41h-33.47s-16.74,0-16.74-17.89v-53.65s0-7.63,4.67-12.92c2.48-2.81,6.26-4.96,12.07-4.96h100.4s16.74,0,16.74,17.89v4.79l9.33-48.8c1.8-9.41,6.54-15.51,15.51-13.62l52.77,10.24c8.97,1.89,14.8,11.04,12.99,20.45l-9.96,52.07,18.74-49.6c3.08-8.15,12.08-12.06,20.12-8.74l87.2,36.18c2.59,1.08,4.76,2.77,6.41,4.85v-12.29c0-7.4,5.62-13.42,12.54-13.42h92.04c3.16,0,6.05,1.24,8.25,3.32,2.63,2.45,4.3,6.07,4.3,10.1v34.38Z"></path><path d="M482.49,397.81h-92.04c-2.31,0-4.18,1.99-4.18,4.47v67.05h100.41v-67.05c0-2.48-1.87-4.47-4.19-4.47Z"></path><path d="M368.7,417.1l-87.2-36.19c-4.01-1.67-8.51.29-10.06,4.37l-22.31,59.07c-1.53,4.08.47,8.74,4.48,10.4l87.2,36.18c4.02,1.67,8.52-.29,10.06-4.37l22.31-59.07c1.55-4.08-.46-8.74-4.48-10.39ZM354.76,454.02c-1.53,4.08-6.04,6.04-10.06,4.37-4.01-1.67-6.01-6.33-4.47-10.4,1.53-4.08,6.04-6.03,10.05-4.37,4.02,1.67,6.03,6.33,4.48,10.4Z"></path><path d="M176.25,230.84c-1.58,0-2.77.45-3.57,1.34-.79.9-1.19,2.02-1.19,3.36s.4,2.37,1.19,3.23,1.98,1.3,3.57,1.3,2.79-.43,3.61-1.3c.82-.87,1.23-1.95,1.23-3.23s-.41-2.46-1.23-3.36c-.82-.9-2.02-1.34-3.61-1.34Z"></path><path d="M202.22 192.5L232.79 239.62 240.84 239.62 240.84 178.48 232.87 178.48 232.87 225.8 202.22 178.48 194.17 178.48 194.17 239.62 202.22 239.62 202.22 192.5z"></path><path d="M292.79 233.02L262.22 233.02 262.22 211.36 288.54 211.36 288.54 204.76 262.22 204.76 262.22 185.07 292.38 185.07 292.38 178.48 254.21 178.48 254.21 239.62 292.79 239.62 292.79 233.02z"></path><path d="M318.5 239.62L326.46 239.62 326.46 185.07 345.98 185.07 345.98 178.48 299.02 178.48 299.02 185.07 318.5 185.07 318.5 239.62z"></path><path d="M221.4,256.99c1.62-2.13,3.86-3.19,6.72-3.19,2.33,0,4.14.61,5.44,1.83,1.3,1.22,2.14,3.2,2.53,5.92h4.49c-.36-3.58-1.62-6.38-3.79-8.4s-5.06-3.04-8.66-3.04c-2.72,0-5.11.64-7.17,1.93-2.06,1.29-3.66,3.14-4.78,5.54s-1.69,5.2-1.69,8.37v3.28c0,4.84,1.21,8.71,3.62,11.6,2.41,2.89,5.62,4.34,9.63,4.34,3.69,0,6.65-.98,8.88-2.94,2.23-1.96,3.55-4.75,3.97-8.36h-4.49c-.43,2.81-1.32,4.79-2.64,5.92-1.33,1.13-3.23,1.7-5.72,1.7-2.76,0-4.91-1.09-6.45-3.28-1.54-2.19-2.3-5.14-2.3-8.84v-3.31c0-3.92.81-6.95,2.43-9.08Z"></path><path d="M255.86,285.18c2.27,0,4.27-.55,6.02-1.64,1.75-1.09,3.09-2.62,4.03-4.58.94-1.96,1.41-4.18,1.41-6.64v-.3c0-3.97-1.06-7.15-3.18-9.54s-4.89-3.59-8.32-3.59c-2.22,0-4.19.54-5.92,1.62-1.73,1.08-3.08,2.61-4.05,4.59-.97,1.98-1.46,4.22-1.46,6.7v.3c0,3.94,1.06,7.1,3.18,9.49,2.12,2.39,4.88,3.59,8.3,3.59ZM250.66,265c1.3-1.7,3.02-2.55,5.15-2.55s3.91.86,5.23,2.59,1.97,3.98,1.97,6.76c0,3.11-.64,5.53-1.93,7.25-1.29,1.73-3.03,2.59-5.21,2.59s-3.91-.85-5.2-2.55c-1.3-1.7-1.94-3.96-1.94-6.77,0-3.17.65-5.61,1.96-7.31Z"></path><path d="M276.49,262.29l-.07-2.93h-4.19v25.36h4.31v-18c1.01-2.42,2.92-3.63,5.75-3.63.76,0,1.47.05,2.12.16v-4.03c-.43-.22-1.07-.33-1.91-.33-2.59,0-4.59,1.13-6.01,3.4Z"></path><path d="M287.79,265.2c-.95,1.98-1.43,4.22-1.43,6.74v.8c0,3.78,1.07,6.8,3.21,9.06s4.92,3.39,8.33,3.39c4.22,0,7.39-1.63,9.5-4.9l-2.63-2.06c-.79,1.03-1.71,1.86-2.77,2.48s-2.34.94-3.86.94c-2.14,0-3.91-.77-5.3-2.31-1.39-1.54-2.11-3.56-2.18-6.06h17.06v-1.8c0-4.05-.91-7.16-2.72-9.33-1.82-2.17-4.36-3.26-7.64-3.26-2,0-3.86.56-5.58,1.68-1.72,1.12-3.05,2.66-4,4.64ZM297.37,262.45c1.8,0,3.23.61,4.28,1.82,1.06,1.21,1.65,2.92,1.77,5.12v.33h-12.62c.28-2.3,1.01-4.08,2.19-5.36s2.64-1.91,4.38-1.91Z"></path></g></g></svg>