<svg width="94" height="118" viewBox="0 0 94 118" fill="none" xmlns="http://www.w3.org/2000/svg">
<g id="Vector">
<path d="M9.6481 11.1151C4.06108 12.0896 0 16.7575 0 22.205V104.494C0 107.835 1.49839 110.788 3.8448 112.833C6.71703 115.999 10.9483 118 15.6667 118H78.3333C86.9858 118 94 111.271 94 102.971V27.8269C94 22.2641 90.8495 17.4069 86.1667 14.8083V11.2749C86.1667 4.24247 79.5274 -1.07294 72.3148 0.185062L9.6481 11.1151ZM15.6667 20.3124H78.3333C82.6596 20.3124 86.1667 23.6768 86.1667 27.8269V102.971C86.1667 107.121 82.6596 110.486 78.3333 110.486H15.6667C11.3404 110.486 7.83333 107.121 7.83333 102.971V27.8269C7.83333 23.6768 11.3404 20.3124 15.6667 20.3124Z" fill="black"/>
<path d="M42.1604 54.6822C42.3817 54.3637 42.3677 53.9455 42.1255 53.6413C41.8833 53.3372 41.4664 53.2142 41.0879 53.3352L35.484 55.1271L36.0747 56.827L39.0962 55.8609L36.8702 59.0639C36.6489 59.3824 36.6629 59.8005 36.9051 60.1047C37.1473 60.4089 37.5642 60.5319 37.9427 60.4108L40.9641 59.4447L38.7382 62.6477C38.5169 62.9662 38.5309 63.3843 38.7731 63.6885C39.0153 63.9927 39.4321 64.1157 39.8106 63.9947L45.4145 62.2028L44.8238 60.5028L41.8024 61.4689L44.0283 58.266C44.2496 57.9475 44.2356 57.5293 43.9934 57.2251C43.7512 56.921 43.3344 56.798 42.9558 56.919L39.9344 57.8851L42.1604 54.6822Z" fill="black"/>
<path d="M47 82.8556C63.5062 82.8556 76.8872 70.0194 76.8872 54.1852C76.8872 38.3509 63.5062 25.5147 47 25.5147C30.4938 25.5147 17.1128 38.3509 17.1128 54.1852C17.1128 70.0194 30.4938 82.8556 47 82.8556ZM23.8299 65.8283L31.2578 59.8903C30.5584 58.1167 30.1755 56.1938 30.1755 54.1852C30.1755 45.2784 37.7023 38.0581 46.9871 38.0581C51.9107 38.0581 56.34 40.0885 59.4146 43.3241L45.1191 48.8095L48.855 57.769L53.8359 68.9178C51.744 69.814 49.4262 70.3123 46.9871 70.3123C44.8932 70.3123 42.8887 69.9451 41.0398 69.2741L34.8463 76.4037C30.1498 74.0347 26.2962 70.3355 23.8299 65.8283ZM63.7986 54.1852C63.7986 59.3041 61.3125 63.866 57.4353 66.8203L52.5909 55.9771L63.6457 52.0003C63.7465 52.7148 63.7986 53.4442 63.7986 54.1852Z" fill="black"/>
<path d="M25.1808 87.7203H27.5044V96.4424C27.5002 97.2419 27.3234 97.9303 26.974 98.5078C26.6246 99.0812 26.1363 99.5233 25.5092 99.8343C24.8862 100.141 24.1601 100.295 23.3308 100.295C22.5731 100.295 21.8912 100.165 21.2851 99.9069C20.6831 99.6445 20.2054 99.2568 19.8518 98.744C19.4982 98.2312 19.3214 97.5932 19.3214 96.83H21.6513C21.6555 97.1652 21.7313 97.4539 21.8786 97.6962C22.0301 97.9384 22.2385 98.1242 22.5037 98.2534C22.7689 98.3826 23.0741 98.4472 23.4192 98.4472C23.7938 98.4472 24.1117 98.3725 24.3726 98.2231C24.6336 98.0697 24.8315 97.8435 24.9662 97.5447C25.1051 97.2459 25.1766 96.8785 25.1808 96.4424V87.7203Z" fill="black"/>
<path d="M37.0733 91.1304C37.0143 90.6014 36.766 90.1896 36.3282 89.8948C35.8947 89.6 35.3306 89.4526 34.6361 89.4526C34.1478 89.4526 33.7289 89.5233 33.3796 89.6646C33.0302 89.8059 32.7629 89.9978 32.5777 90.24C32.3925 90.4823 32.2978 90.7589 32.2936 91.0698C32.2936 91.3283 32.3546 91.5524 32.4767 91.7422C32.6029 91.9319 32.7734 92.0935 32.9881 92.2267C33.2028 92.3559 33.4406 92.465 33.7016 92.5538C33.9626 92.6426 34.2256 92.7173 34.4908 92.7779L35.7031 93.0686C36.1914 93.1777 36.6607 93.325 37.1111 93.5108C37.5658 93.6965 37.972 93.9307 38.3298 94.2134C38.6918 94.4961 38.978 94.8373 39.1885 95.237C39.3989 95.6368 39.5042 96.1052 39.5042 96.6422C39.5042 97.3691 39.3105 98.0091 38.9233 98.5623C38.536 99.1115 37.9762 99.5415 37.2437 99.8524C36.5155 100.159 35.6337 100.313 34.5982 100.313C33.5921 100.313 32.7187 100.163 31.9779 99.8645C31.2412 99.5657 30.6645 99.1296 30.2478 98.5562C29.8353 97.9828 29.6122 97.2843 29.5785 96.4605H31.8832C31.9168 96.8926 32.0557 97.252 32.2999 97.5387C32.544 97.8254 32.8618 98.0394 33.2533 98.1807C33.649 98.322 34.0909 98.3927 34.5792 98.3927C35.0886 98.3927 35.5348 98.32 35.9178 98.1746C36.3051 98.0252 36.6081 97.8193 36.827 97.5568C37.0459 97.2903 37.1575 96.9794 37.1617 96.6241C37.1575 96.301 37.0585 96.0345 36.8649 95.8245C36.6713 95.6105 36.3998 95.4329 36.0504 95.2915C35.7052 95.1462 35.3011 95.0169 34.8381 94.9039L33.3669 94.5405C32.302 94.278 31.4601 93.8803 30.8413 93.3473C30.2268 92.8102 29.9195 92.0975 29.9195 91.2091C29.9195 90.4783 30.1257 89.8382 30.5383 89.2891C30.955 88.7399 31.5211 88.3139 32.2367 88.0111C32.9523 87.7042 33.7626 87.5507 34.6676 87.5507C35.5853 87.5507 36.3892 87.7042 37.0796 88.0111C37.7741 88.3139 38.3192 88.7359 38.7149 89.277C39.1106 89.814 39.3147 90.4318 39.3274 91.1304H37.0733Z" fill="black"/>
<path d="M45.7219 100.307C44.7748 100.307 43.954 100.107 43.2594 99.7071C42.5649 99.3073 42.0261 98.748 41.643 98.0293C41.2642 97.3105 41.0748 96.4706 41.0748 95.5096C41.0748 94.5485 41.2642 93.7066 41.643 92.9838C42.0261 92.261 42.5649 91.6998 43.2594 91.3C43.954 90.9002 44.7748 90.7004 45.7219 90.7004C46.669 90.7004 47.4898 90.9002 48.1843 91.3C48.8789 91.6998 49.4156 92.261 49.7944 92.9838C50.1775 93.7066 50.369 94.5485 50.369 95.5096C50.369 96.4706 50.1775 97.3105 49.7944 98.0293C49.4156 98.748 48.8789 99.3073 48.1843 99.7071C47.4898 100.107 46.669 100.307 45.7219 100.307ZM45.7345 98.5502C46.248 98.5502 46.6774 98.4149 47.0226 98.1444C47.3677 97.8698 47.6245 97.5023 47.7929 97.042C47.9655 96.5817 48.0517 96.0688 48.0517 95.5035C48.0517 94.9342 47.9655 94.4193 47.7929 93.959C47.6245 93.4946 47.3677 93.1252 47.0226 92.8506C46.6774 92.576 46.248 92.4387 45.7345 92.4387C45.2083 92.4387 44.7706 92.576 44.4212 92.8506C44.076 93.1252 43.8172 93.4946 43.6446 93.959C43.4762 94.4193 43.392 94.9342 43.392 95.5035C43.392 96.0688 43.4762 96.5817 43.6446 97.042C43.8172 97.5023 44.076 97.8698 44.4212 98.1444C44.7706 98.4149 45.2083 98.5502 45.7345 98.5502Z" fill="black"/>
<path d="M52.309 103.614V90.8215H54.5568V92.36H54.6894C54.8072 92.1338 54.9735 91.8936 55.1882 91.6392C55.4028 91.3808 55.6933 91.1607 56.0595 90.979C56.4257 90.7932 56.8929 90.7004 57.4612 90.7004C58.2105 90.7004 58.8861 90.8841 59.488 91.2515C60.0941 91.615 60.574 92.154 60.9276 92.8688C61.2854 93.5794 61.4643 94.4516 61.4643 95.4854C61.4643 96.507 61.2896 97.3751 60.9402 98.0898C60.5908 98.8046 60.1152 99.3497 59.5133 99.7252C58.9113 100.101 58.2294 100.289 57.4675 100.289C56.9119 100.289 56.451 100.2 56.0847 100.022C55.7185 99.8443 55.4239 99.6303 55.2008 99.38C54.9819 99.1256 54.8114 98.8853 54.6894 98.6592H54.5946V103.614H52.309ZM54.5504 95.4732C54.5504 96.0749 54.6388 96.6019 54.8156 97.0541C54.9966 97.5064 55.2555 97.8597 55.5923 98.1141C55.9332 98.3644 56.3457 98.4896 56.8298 98.4896C57.3349 98.4896 57.758 98.3604 58.0989 98.102C58.4399 97.8395 58.6966 97.4821 58.8692 97.0299C59.046 96.5736 59.1344 96.0547 59.1344 95.4732C59.1344 94.8958 59.0481 94.383 58.8755 93.9348C58.703 93.4866 58.4462 93.1353 58.1052 92.8809C57.7643 92.6265 57.3391 92.4993 56.8298 92.4993C56.3415 92.4993 55.9269 92.6224 55.5859 92.8688C55.245 93.1151 54.9861 93.4603 54.8093 93.9045C54.6367 94.3487 54.5504 94.8716 54.5504 95.4732Z" fill="black"/>
<path d="M64.9764 87.7203L67.8241 92.2631H67.9251L70.7853 87.7203H73.4562L69.472 93.9227L73.5193 100.125H70.8043L67.9251 95.6126H67.8241L64.9449 100.125H62.2425L66.3277 93.9227L62.293 87.7203H64.9764Z" fill="black"/>
<path d="M74.7451 87.5781V89H74.502V87.5781H74.7451ZM75.1914 87.5781V87.7734H74.0596V87.5781H75.1914Z" fill="black"/>
<path d="M75.4785 87.5781H75.6973L76.1084 88.6748L76.5186 87.5781H76.7373L76.1943 89H76.0205L75.4785 87.5781ZM75.3789 87.5781H75.5869L75.623 88.5273V89H75.3789V87.5781ZM76.6289 87.5781H76.8379V89H76.5928V88.5273L76.6289 87.5781Z" fill="black"/>
</g>
</svg>
