<?xml version="1.0" encoding="UTF-8"?><svg id="a" xmlns="http://www.w3.org/2000/svg" viewBox="0 0 504.58 504.9"><polygon points="471.58 27.83 473.97 27.83 473.97 19.73 476.93 19.73 476.93 17.87 468.67 17.87 468.67 19.73 471.58 19.73 471.58 27.83" style="fill:#fff;"/><polygon points="480.35 25.5 480.12 20.74 482.52 27.83 484.09 27.83 486.48 20.75 486.25 25.5 486.25 27.83 488.64 27.83 488.64 17.87 485.5 17.87 483.3 24.8 481.1 17.87 477.97 17.87 477.97 27.83 480.35 27.83 480.35 25.5" style="fill:#fff;"/><path d="M228.94,356.55l-48.76-10.25c-4.49-.94-8.86,2.12-9.76,6.82l-17.46,91.32v4.61s0,4.58-2.17,9.11c.44,3.6,3.01,6.65,6.59,7.4l48.76,10.24c4.49.94,8.86-2.11,9.77-6.81l19.53-102.22c.91-4.7-2-9.28-6.5-10.23ZM193.15,455.36c-.9,4.7-5.26,7.75-9.76,6.81s-7.4-5.52-6.51-10.23c.91-4.7,5.28-7.75,9.77-6.81,4.48.94,7.39,5.52,6.5,10.23Z" style="fill:#fff;"/><path d="M368.11,406.54c-.55-1.18-1.23-2.29-2.04-3.31h0c.81,1.03,1.49,2.14,2.04,3.31Z" style="fill:#fff;"/><path d="M233.61,420.56l-3.84,20.08c-1.06-3.38-1.06-7.11.27-10.62l2.09-5.54-2.09,5.53c-1.33,3.52-1.33,7.25-.27,10.63l3.84-20.09h0Z" style="fill:#fff;"/><path d="M140.84,387.76c-1.13-.6-2.36-.95-3.38-1.13-.49-.09-.88-.12-1.12-.15-.09-.01-.16-.01-.19-.01H35.82c-2.72,0-4.21.69-5.04,1.29-.88.63-1.58,1.53-2.13,2.71-.56,1.21-.88,2.52-1.05,3.62-.09.53-.12.94-.15,1.19,0,.11,0,.18-.01.21v53.57c0,2.91.66,4.49,1.21,5.38.59.95,1.43,1.69,2.54,2.27,1.13.6,2.36.95,3.38,1.13.49.09.88.13,1.12.15.09.01.16.01.19.01h100.33c2.72,0,4.21-.69,5.04-1.29.46-.32.87-.74,1.23-1.22.06-.62.13-1.23.26-1.86l1.84-9.61v-48.61c0-2.9-.65-4.49-1.21-5.38-.58-.94-1.43-1.68-2.53-2.27Z" style="fill:#fff;"/><path d="M470.66,386.48h-92.04c-2.31,0-4.18,1.99-4.18,4.47v67.05h100.41v-67.05c0-2.48-1.87-4.47-4.19-4.47Z" style="fill:#fff;"/><path d="M457.08,54.24c0-32.23-52.86-60.47-82.69-52.66L45.46,54.28C20.35,55.46.33,77.15.33,103.76v353.57c0,26.04,21.31,47.34,47.34,47.34h409.33c26.03,0,47.33-21.3,47.33-47.34V103.76c0-27.35-21.15-49.52-47.25-49.52ZM358.49,43.25c9.95-2.6,51.18-6.61,51.18,4.13v7.26h-234.3l183.12-11.39ZM312.83,187.89c4.75,3.63,13.11,7.38,25.07,11.25,11.96,3.87,21.78,8.04,29.47,12.5,18.69,10.85,28.04,25.8,28.04,44.86,0,15.23-5.7,27.2-17.11,35.89-11.41,8.69-27.05,13.04-46.94,13.04-14.02,0-26.72-2.53-38.08-7.6-11.37-5.06-19.92-12-25.67-20.82-5.74-8.81-8.61-18.96-8.61-30.45h41.83c0,9.33,2.4,16.21,7.19,20.64,4.79,4.43,12.58,6.64,23.35,6.64,6.89,0,12.34-1.5,16.34-4.49,4-2.99,6-7.2,6-12.62,0-6.14-2.16-10.93-6.48-14.36-4.32-3.43-11.9-6.98-22.75-10.65-10.85-3.67-19.73-7.22-26.62-10.65-22.42-11.08-33.63-26.32-33.63-45.7,0-9.65,2.79-18.16,8.38-25.54,5.58-7.38,13.49-13.12,23.71-17.23,10.22-4.11,21.71-6.16,34.46-6.16s23.59,2.23,33.45,6.7c9.86,4.47,17.53,10.83,22.99,19.08,5.47,8.25,8.2,17.69,8.2,28.29h-41.59c0-7.1-2.16-12.6-6.48-16.51-4.32-3.91-10.16-5.86-17.53-5.86s-13.33,1.66-17.65,4.96c-4.32,3.31-6.48,7.52-6.48,12.62,0,4.47,2.38,8.51,7.13,12.14ZM152.37,243.95c0,8.95,1.53,15.44,4.6,19.47,3.07,4.03,8.2,6.04,15.4,6.04,6.49,0,11.49-2.44,15-7.32,3.51-4.88,5.27-11.7,5.27-20.48V107.53h46.68v134.14c0,12.44-2.87,23.54-8.6,33.3-5.73,9.76-13.74,17.32-24.01,22.69s-21.72,8.06-34.34,8.06c-21.16,0-37.61-5.37-49.35-16.11s-17.61-25.96-17.61-45.65h46.95ZM472.13,484.82h-96.03c-6.12,0-11.07-6-11.07-13.41h118.19c0,7.4-4.96,13.41-11.08,13.41ZM483.22,425.33v41.62h-117.14v-41l-19.76,52.3c-3.08,8.15-12.08,12.07-20.12,8.74l-87.2-36.18c-4.56-1.89-7.83-5.72-9.23-10.17l-5.75,30.06c-1.79,9.41-10.53,15.51-19.51,13.63l-48.76-10.25c-5.1-1.06-9.18-4.48-11.42-8.96-2.13,1.12-4.79,1.83-8.11,1.83h-33.47c0,5.96.69,10.43,2.09,13.41h6.27c2.31,0,4.19,2,4.19,4.47h-58.58c0-2.46,1.87-4.47,4.19-4.47h6.27c1.4-2.98,2.09-7.45,2.09-13.41h-33.47s-16.74,0-16.74-17.89v-53.65s0-7.63,4.67-12.92c2.48-2.81,6.26-4.96,12.07-4.96h100.4s16.74,0,16.74,17.89v4.79l9.33-48.8c1.8-9.41,6.54-15.51,15.51-13.62l52.77,10.24c8.97,1.89,14.8,11.04,12.99,20.45l-9.96,52.07,18.74-49.6c3.08-8.15,12.08-12.06,20.12-8.74l87.2,36.18c2.59,1.08,4.76,2.77,6.41,4.85v-12.29c0-7.4,5.62-13.42,12.54-13.42h92.04c3.16,0,6.05,1.24,8.25,3.32,2.63,2.45,4.3,6.07,4.3,10.1v34.38Z" style="fill:#fff;"/><path d="M356.88,405.77l-87.2-36.19c-4.01-1.67-8.51.29-10.06,4.37l-22.31,59.07c-1.53,4.08.47,8.74,4.48,10.4l87.2,36.18c4.02,1.67,8.52-.29,10.06-4.37l22.31-59.07c1.55-4.08-.46-8.74-4.48-10.39ZM342.94,442.69c-1.53,4.08-6.04,6.04-10.06,4.37-4.01-1.67-6.01-6.33-4.47-10.4,1.53-4.08,6.04-6.03,10.05-4.37,4.02,1.67,6.03,6.33,4.48,10.4Z" style="fill:#fff;"/><polygon points="366.07 425.93 366.07 425.95 368.34 419.95 366.07 425.93" style="fill:#fff;"/></svg>