<?xml version="1.0" encoding="UTF-8"?><svg id="a" xmlns="http://www.w3.org/2000/svg" viewBox="0 0 528 528"><path d="M468.82,65.55c0-32.23-52.86-60.47-82.69-52.66L57.2,65.59c-25.11,1.18-45.13,22.87-45.13,49.48v297.13c0,16.49,7.68,31.09,19.52,40.08v-29.62s0-3.28,1.33-7.03c.08-.23.17-.46.26-.69.68-1.64,1.62-3.31,2.94-4.8.12-.13.24-.27.37-.4v-4.81c0-5.76,2.81-10.83,7.08-13.79v-22.66c-13.9-6.36-23.62-20.91-23.62-37.83s9.72-31.46,23.62-37.83v-23.38c-13.9-6.36-23.62-20.91-23.62-37.83s9.72-31.46,23.62-37.84v-23.37c-13.9-6.37-23.62-20.91-23.62-37.83,0-22.8,17.63-41.28,39.38-41.28,8.27,0,15.97,2.69,22.31,7.27h364.87c6.34-4.58,14.03-7.27,22.31-7.27,21.75,0,39.38,18.48,39.38,41.28,0,16.92-9.72,31.46-23.63,37.83v23.37c13.91,6.38,23.63,20.91,23.63,37.84s-9.72,31.47-23.63,37.83v23.38c13.91,6.37,23.63,20.91,23.63,37.83s-9.72,31.47-23.63,37.83v22.66c4.28,2.96,7.09,8.03,7.09,13.79v3.13c.17.14.33.29.49.44,2.65,2.45,4.31,6.07,4.31,10.1v33.75c11.88-8.98,19.61-23.62,19.61-40.15V115.07c0-27.35-21.15-49.52-47.25-49.52ZM421.41,65.95h-234.3l183.12-11.39c9.95-2.6,51.18-6.61,51.18,4.13v7.26Z" style="fill:#6d449b;"/><polygon points="492.09 36.81 491.86 32.05 494.26 39.14 495.84 39.14 498.23 32.06 498 36.81 498 39.14 500.38 39.14 500.38 29.18 497.25 29.18 495.05 36.11 492.84 29.18 489.71 29.18 489.71 39.14 492.09 39.14 492.09 36.81" style="fill:#6d449b;"/><path d="M468.67,165.99c17.4,0,31.5-14.79,31.5-33.02s-14.1-33.02-31.5-33.02-31.5,14.79-31.5,33.02,14.1,33.02,31.5,33.02ZM452.98,132.53c0-2.55.34-4.9,1.04-7.05.7-2.18,1.72-4.06,3.08-5.65,1.35-1.59,3.02-2.82,5.02-3.7,1.98-.9,4.27-1.36,6.88-1.36s4.93.46,6.92,1.36c1.01.44,1.93.97,2.77,1.58.52.38.99.81,1.44,1.25.29.28.57.56.83.87,1.36,1.59,2.39,3.47,3.08,5.65.7,2.15,1.05,4.5,1.05,7.05v.69c0,2.53-.35,4.88-1.05,7.05-.69,2.15-1.72,4.03-3.08,5.65-1.35,1.59-3.02,2.82-5,3.7-2,.89-4.29,1.33-6.9,1.33s-4.91-.44-6.92-1.33c-1.01-.44-1.93-.97-2.77-1.58-.63-.47-1.21-1-1.75-1.57-.18-.18-.36-.36-.53-.55-1.36-1.62-2.38-3.5-3.08-5.65-.7-2.17-1.04-4.52-1.04-7.05v-.69Z" style="fill:#844e9f;"/><path d="M468.67,364.07c8.16,0,15.58-3.24,21.18-8.58,6.34-6.04,10.32-14.75,10.32-24.44s-3.98-18.4-10.32-24.43c-5.6-5.33-13.02-8.58-21.18-8.58-17.4,0-31.5,14.78-31.5,33.01s14.1,33.02,31.5,33.02ZM451.74,310.61h10.8s0,0,0,0l6.41,13.65,6.4-13.66h10.77,0s0,0,0,0l-10.92,20.38,11.22,20.69h-10.88s0,0,0,0l-6.59-13.89-6.6,13.89h-10.9,0s0,0,0,0l11.26-20.69-10.97-20.38Z" style="fill:#844e9f;"/><polygon points="483.33 39.14 485.71 39.14 485.71 31.04 488.68 31.04 488.68 29.18 480.42 29.18 480.42 31.04 483.33 31.04 483.33 39.14" style="fill:#6d449b;"/><path d="M464.55,139.89c.42.84,1,1.49,1.74,1.96.74.48,1.67.72,2.77.72s1.99-.24,2.71-.72c.74-.47,1.32-1.12,1.76-1.96.42-.86.74-1.86.92-3,.19-1.14.28-2.36.28-3.67v-.69c0-1.26-.09-2.45-.28-3.57-.18-1.14-.5-2.14-.92-3-.44-.89-1.02-1.57-1.76-2.06-.74-.49-1.66-.74-2.77-.74s-2,.25-2.74.74c-.72.49-1.29,1.17-1.71,2.06-.44.86-.74,1.86-.93,3-.18,1.12-.27,2.31-.27,3.57v.69c0,1.31.09,2.53.27,3.67.19,1.14.49,2.14.93,3Z" style="fill:#844e9f;"/><path d="M469.75,235.15c.87,0,1.58-.21,2.15-.63.58-.42,1.03-1.02,1.38-1.77.34-.77.58-1.66.72-2.65.14-1,.22-2.08.22-3.22v-.59c0-1.19-.09-2.26-.24-3.25-.16-1-.43-1.86-.79-2.59-.33-.74-.79-1.3-1.36-1.7-.59-.39-1.29-.58-2.13-.58-.98,0-1.79.16-2.46.47-.64.3-1.16.77-1.55,1.41-.1.17-.19.34-.27.52v12.04c.3.66.73,1.21,1.26,1.63.76.61,1.77.91,3.07.91Z" style="fill:#844e9f;"/><path d="M456.41,262.44c3.77,1.67,7.91,2.59,12.26,2.59,17.4,0,31.5-14.78,31.5-33.02s-14.1-33.02-31.5-33.02c-4.35,0-8.49.93-12.26,2.6-11.31,5.01-19.24,16.75-19.24,30.42s7.93,25.41,19.24,30.43ZM456.35,211.39h8.44s.3,2.81.3,2.81c.69-.89,1.48-1.62,2.37-2.19,1.26-.79,2.75-1.18,4.5-1.18,1.85,0,3.47.36,4.87,1.1.35.18.69.39,1.02.61.08.06.16.13.24.19.87.64,1.64,1.42,2.29,2.36.97,1.35,1.69,2.98,2.19,4.88.48,1.89.71,4,.71,6.32v.59c0,2.22-.23,4.28-.71,6.17-.5,1.91-1.21,3.57-2.17,4.98-.95,1.41-2.12,2.51-3.55,3.29-1.4.77-3.02,1.16-4.87,1.16-1.72,0-3.22-.4-4.47-1.21,0,0-.01,0-.02,0,0,0,0,0,0,0-.39-.24-.75-.52-1.1-.82-.18-.15-.35-.31-.5-.48-.17-.16-.32-.33-.47-.51v14.2h-9.07v-42.26Z" style="fill:#844e9f;"/><path d="M383.28,512.48h108.99c6.94,0,12.57-6.01,12.57-13.41h-134.13c0,7.4,5.62,13.41,12.56,13.41Z" style="fill:#5f308d;"/><path d="M492.15,408.5c-.16-.15-.32-.3-.49-.44-2.13-1.8-4.84-2.88-7.77-2.88h-92.22c-6.93,0-12.57,6.02-12.57,13.42v12.29c-1.65-2.09-3.83-3.78-6.42-4.85l-87.37-36.18c-8.05-3.33-17.07.58-20.15,8.74l-18.78,49.6,9.98-52.07c1.81-9.41-4.03-18.56-13.01-20.45l-52.88-10.24c-8.99-1.89-13.74,4.22-15.54,13.62l-9.35,48.8v-4.79c0-17.89-16.77-17.89-16.77-17.89H48.21c-5.54,0-9.24,1.95-11.72,4.56-.13.13-.25.27-.37.4-1.32,1.49-2.26,3.16-2.94,4.8-.09.23-.18.46-.26.69-1.33,3.75-1.33,7.03-1.33,7.03v29.65c-.05-.04-.1-.08-.15-.12v24.53c0,17.88,16.77,17.88,16.77,17.88h33.54c0,5.96-.7,10.43-2.11,13.41h-6.28c-2.32,0-4.2,2-4.2,4.47h58.7c0-2.47-1.9-4.47-4.2-4.47h-6.28c-1.41-2.98-2.11-7.45-2.11-13.41h33.54c3.31,0,5.99-.7,8.12-1.82,2.25,4.48,6.33,7.89,11.44,8.96l48.86,10.25c9,1.88,17.75-4.23,19.54-13.64l5.77-30.06c1.4,4.45,4.67,8.28,9.24,10.17l87.37,36.18c8.05,3.34,17.07-.58,20.16-8.74l19.79-52.3v41h117.36v-76c0-4.03-1.66-7.65-4.31-10.1ZM157.18,471.68l-1.83,9.61c-.13.62-.21,1.24-.26,1.86-.36.48-.77.89-1.23,1.22-.84.59-2.33,1.28-5.05,1.28H48.28s-.1,0-.19,0c-.24-.01-.63-.05-1.12-.14-1.02-.18-2.25-.53-3.39-1.13-.14-.07-.27-.15-.4-.23-.07-.04-.13-.08-.19-.12,0,0,0,0,0,0-.82-.52-1.47-1.16-1.96-1.93-.55-.88-1.21-2.46-1.21-5.37v-53.57s.01-.1.01-.22c.03-.24.06-.66.15-1.18.17-1.1.49-2.41,1.05-3.62.55-1.18,1.24-2.08,2.13-2.71.84-.59,2.33-1.29,5.05-1.29h100.53s.1,0,.19.01c.23.02.63.06,1.12.15,1.02.18,2.25.52,3.39,1.13.22.12.43.24.63.38.07.04.13.08.19.12.02.01.03.03.05.04.21.15.39.33.58.5.42.37.79.77,1.08,1.23.56.89,1.21,2.48,1.21,5.38v48.61ZM228.64,496.65c-.9,4.71-5.28,7.75-9.78,6.81l-48.86-10.23c-.83-.18-1.57-.48-2.28-.87-.05-.03-.1-.04-.14-.07-.02-.01-.04-.02-.06-.03-.11-.07-.22-.13-.32-.21-2.08-1.37-3.49-3.66-3.8-6.23,2.18-4.52,2.18-9.1,2.18-9.1v-4.62l17.49-91.32c.9-4.71,5.28-7.76,9.78-6.82l48.85,10.24c.93.2,1.79.55,2.56,1.03.03.03.07.04.1.06.05.03.09.06.14.09.01.01.02.02.04.03.16.1.29.23.44.35,1.51,1.17,2.62,2.83,3.11,4.72.32,1.25.38,2.6.12,3.95l-19.58,102.22ZM374.38,443.82l-22.36,59.07c-1.54,4.08-6.05,6.04-10.07,4.37l-87.37-36.18c-.36-.14-.69-.32-1.02-.51-.01-.01-.03-.01-.04-.02,0,0-.02-.01-.02-.02,0,0-.02-.01-.03-.02-.05-.03-.1-.07-.15-.1,0,0-.02-.01-.03-.02-.03-.02-.06-.04-.09-.06-3.08-2.05-4.46-6.08-3.11-9.65l22.35-59.07c1.55-4.08,6.06-6.04,10.08-4.37l87.37,36.19c.46.19.9.42,1.31.69.06.04.12.08.18.13.02.01.04.03.06.04.03.01.05.03.07.04,2.91,2.1,4.19,6.01,2.87,9.49ZM488.08,485.65h-100.6v-67.05c0-2.48,1.88-4.47,4.19-4.47h92.22c.82,0,1.59.25,2.23.69.05.02.1.06.15.09.03.02.05.04.07.06,0,0,0,0,0,0,1.05.82,1.74,2.13,1.74,3.63v67.05Z" style="fill:#5f308d;"/><path d="M352.9,460.75c-.46-.31-.95-.59-1.48-.8-4.01-1.66-8.53.29-10.06,4.37-1.38,3.63.07,7.72,3.25,9.75.39.25.8.47,1.23.65,4.03,1.67,8.54-.29,10.07-4.37,1.35-3.54.01-7.52-3.01-9.6Z" style="fill:#5f308d;"/><path d="M202.37,474.13c-.89-.64-1.91-1.1-3.04-1.33-4.5-.95-8.88,2.1-9.79,6.8-.69,3.63.89,7.18,3.71,9.04.84.56,1.78.97,2.81,1.18,4.5.94,8.88-2.11,9.78-6.81.67-3.52-.8-6.98-3.48-8.89Z" style="fill:#5f308d;"/><path d="M90.29,230.86c0-18.65-14.43-33.77-32.23-33.77s-32.21,15.12-32.21,33.77,14.43,33.77,32.21,33.77,32.23-15.12,32.23-33.77ZM69.05,219.48c-.51-.53-.64-1.31-.38-1.97.08-.22.21-.43.38-.6.6-.61,1.51-.69,2.2-.23.08.06.17.13.24.21.01,0,.02.02.03.03l12.21,12.67c.35.36.52.82.52,1.28s-.17.92-.52,1.28l-12.21,12.66c-.6.62-1.52.7-2.2.23-.09-.06-.17-.13-.25-.21,0,0-.02-.01-.03-.02-.68-.7-.68-1.86,0-2.56l10.98-11.38-10.98-11.38ZM47.09,242.24c.43.44.58,1.05.48,1.62-.07.35-.23.68-.48.94-.6.62-1.52.7-2.2.23-.09-.06-.17-.13-.25-.21,0,0-.02-.01-.03-.02l-12.22-12.66c-.34-.36-.51-.82-.51-1.28s.17-.92.51-1.28l12.22-12.67c.6-.61,1.51-.69,2.2-.23.08.06.17.13.24.21.01,0,.02.02.03.03.68.71.68,1.86,0,2.57l-10.99,11.38,10.99,11.38ZM50.57,256.1c-.12-.04-.23-.09-.33-.14-.01,0-.02-.02-.03-.03-.12-.08-.24-.16-.34-.26-.02-.02-.03-.05-.05-.07-.03-.03-.05-.07-.08-.11-.09-.12-.17-.25-.23-.38-.01-.03-.03-.07-.04-.1-.06-.16-.09-.32-.11-.49,0-.02,0-.04,0-.07,0-.2,0-.4.07-.61l2.57-8.67,11.39-38.36c.28-.95,1.26-1.49,2.18-1.2.12.04.23.09.33.14.18.1.34.23.47.39,0,0,0,0,0,0,.13.15.23.32.31.51,0,0,0,0,0,.01.07.18.11.37.12.57,0,.02,0,.03,0,.05,0,.18-.02.36-.06.54,0,.02,0,.04,0,.06l-2.47,8.32-11.49,38.7c-.28.96-1.26,1.49-2.19,1.2Z" style="fill:#844e9f;"/><path d="M90.67,132.97c0-18.23-14.1-33.02-31.5-33.02s-31.5,14.79-31.5,33.02,14.1,33.02,31.5,33.02,31.5-14.79,31.5-33.02ZM76.71,130.46h0c.11.83.17,1.67.17,2.52,0,5.89-2.62,11.14-6.71,14.55h0s0,0,0,0l-5.11-12.49,11.65-4.58h0s0,0,0,0ZM52.89,150.34l-6.53,8.21c-.62-.34-1.23-.71-1.82-1.09-3.1-2.03-5.78-4.7-7.89-7.82-.7-1.04-1.34-2.13-1.91-3.26l7.82-6.84c-.72-2.04-1.13-4.26-1.13-6.57,0-10.26,7.93-18.57,17.72-18.57,3.9,0,7.49,1.32,10.41,3.54.77.59,1.48,1.25,2.14,1.95.18.19.37.37.55.57l-15.06,6.32,3.93,10.31,5.25,12.85c-2.2,1.03-4.64,1.6-7.21,1.6-2.22,0-4.32-.43-6.27-1.2Z" style="fill:#844e9f;"/><path d="M90.67,331.05c0-18.23-14.1-33.01-31.5-33.01s-31.5,14.78-31.5,33.01,14.1,33.02,31.5,33.02,31.5-14.78,31.5-33.02ZM48.84,351.24c-.78-.25-1.54-.6-2.22-1.06-1.87-1.26-3.21-3.26-3.21-5.87v-13.61c0-3.57,2.5-6.01,5.43-6.95v-6.1c0-6.27,4.84-11.36,10.83-11.36,2.25,0,4.33.72,6.05,1.94,1.54,1.09,2.78,2.59,3.61,4.35.73,1.53,1.15,3.25,1.15,5.07v6.1h0c.21.07.42.16.62.25.23.09.45.19.67.3.27.14.54.27.79.43.78.5,1.47,1.14,2.01,1.89.82,1.11,1.33,2.48,1.33,4.08v13.61c0,4.63-4.24,7.37-8.12,7.37h-16.24c-.91,0-1.83-.16-2.71-.44Z" style="fill:#844e9f;"/><path d="M59.67,311.97c-2.99,0-5.43,2.54-5.43,5.68v5.66h10.84v-5.66c0-3.14-2.42-5.68-5.41-5.68Z" style="fill:#844e9f;"/><path d="M53.7,141.36l2.34-3.69c.23-.37.22-.85-.04-1.19-.25-.36-.69-.5-1.09-.36l-3.19,1.11,2.35-3.69c.23-.37.22-.85-.04-1.2-.26-.34-.69-.49-1.1-.34l-5.9,2.06.63,1.96,3.18-1.12-2.34,3.69c-.24.36-.22.84.03,1.2.26.35.7.49,1.09.35l3.19-1.11-2.35,3.68c-.24.37-.21.86.04,1.2.25.35.7.5,1.09.36l5.91-2.07-.62-1.95-3.18,1.11Z" style="fill:#844e9f;"/><path d="M333.47,143.01l44.94,77.83c-3.92-31.72-20.69-59.45-44.94-77.83Z" style="fill:#662d91;"/><path d="M263.73,119.6c-15.99,0-31.21,3.25-45.06,9.12h90.12c-13.85-5.87-29.07-9.12-45.06-9.12Z" style="fill:#662d91;"/><path d="M149.62,216.84l41.18-71.31c-21.53,17.54-36.61,42.67-41.18,71.31Z" style="fill:#662d91;"/><path d="M263.73,350.71c12.88,0,25.26-2.11,36.82-5.99h-73.65c11.57,3.89,23.95,5.99,36.82,5.99Z" style="fill:#662d91;"/><path d="M377.4,256.07l-38.69,67.01c19.79-16.9,33.81-40.35,38.69-67.01Z" style="fill:#662d91;"/><path d="M189.25,323.5l-39.31-68.08c4.8,27.15,19.09,51.01,39.31,68.08Z" style="fill:#662d91;"/><path d="M149.95,255.42l39.31,68.08,6.96,12.06c3.27,5.67,9.32,9.16,15.87,9.16h103.55c6.55,0,12.59-3.49,15.87-9.16l7.2-12.48,38.69-67.01,5.89-10.19c3.27-5.67,3.27-12.65-1-18.32h0l-3.87-6.71-44.94-77.83-2.97-5.14c-2.27-5.67-8.32-9.16-14.87-9.16h-103.55c-6.55,0-12.59,3.49-16.87,9.16l-4.42,7.65-41.18,71.31-6.19,10.72c-2.27,5.67-2.27,12.65,1,18.32l5.51,9.55ZM184.9,275.83l42.48-76.32,7.1-12.77,2.37-4.25c1.21-2.18,4.33-2.23,5.62-.1l10.72,17.8,9.58,16.6,9.96-17.9,9.69-17.4c1.23-2.2,4.39-2.23,5.65-.04l9.96,17.24,44.51,77.09c1.25,2.16-.31,4.87-2.81,4.87h0s-17.91,0-17.91,0c-1.16,0-2.23-.62-2.81-1.62l-33.45-57.94-9.96,17.9,18.35,31.79c1.25,2.16-.31,4.87-2.81,4.87h-17.91c-1.16,0-2.23-.62-2.81-1.62l-7.29-12.64-7.01,12.59c-.57,1.03-1.66,1.67-2.84,1.67h-17.75c-2.48,0-4.04-2.66-2.84-4.82l17.61-31.64-10.09-17.48-31.88,57.27c-.57,1.03-1.66,1.67-2.84,1.67h-17.75c-2.48,0-4.04-2.66-2.84-4.82Z" style="fill:#834e9f;"/><path d="M187.74,280.65h17.75c1.18,0,2.27-.64,2.84-1.67l31.88-57.27,10.09,17.48-17.61,31.64c-1.2,2.16.36,4.82,2.84,4.82h17.75c1.18,0,2.27-.64,2.84-1.67l7.01-12.59,7.29,12.64c.58,1,1.65,1.62,2.81,1.62h17.91c2.5,0,4.06-2.71,2.81-4.87l-18.35-31.79,9.96-17.9,33.45,57.94c.58,1,1.65,1.62,2.81,1.62h17.91c2.5,0,4.06-2.71,2.81-4.87l-44.51-77.09-9.96-17.24c-1.26-2.19-4.42-2.16-5.65.04l-9.69,17.4-9.96,17.9-9.58-16.6-10.72-17.8c-1.29-2.13-4.41-2.08-5.62.1l-2.37,4.25-7.1,12.77-42.48,76.32c-1.2,2.16.36,4.82,2.84,4.82Z" style="fill:#fff;"/></svg>