<?xml version="1.0" encoding="UTF-8"?><svg id="a" xmlns="http://www.w3.org/2000/svg" viewBox="0 0 528 528"><path d="M240.77,367.88l-48.76-10.25c-4.49-.94-8.86,2.12-9.76,6.82l-17.46,91.32v4.61s0,4.58-2.17,9.11c.44,3.6,3.01,6.65,6.59,7.4l48.76,10.24c4.49.94,8.86-2.11,9.77-6.81l19.53-102.22c.91-4.7-2-9.28-6.5-10.23ZM204.97,466.69c-.9,4.7-5.26,7.75-9.76,6.81s-7.4-5.52-6.51-10.23c.91-4.7,5.28-7.75,9.77-6.81,4.48.94,7.39,5.52,6.5,10.23Z" style="fill:#fff;"/><path d="M245.43,431.89l-3.84,20.08c-1.06-3.38-1.06-7.11.27-10.62l2.09-5.54-2.09,5.53c-1.33,3.52-1.33,7.25-.27,10.63l3.84-20.09h0Z" style="fill:#fff;"/><path d="M152.67,399.09c-1.13-.6-2.36-.95-3.38-1.13-.49-.09-.88-.12-1.12-.15-.09-.01-.16-.01-.19-.01H47.65c-2.72,0-4.21.69-5.04,1.29-.88.63-1.58,1.53-2.13,2.71-.56,1.21-.88,2.52-1.05,3.62-.09.53-.12.94-.15,1.19,0,.11,0,.18-.01.21v53.57c0,2.91.66,4.49,1.21,5.38.59.95,1.43,1.69,2.54,2.27,1.13.6,2.36.95,3.38,1.13.49.09.88.13,1.12.15.09.01.16.01.19.01h100.33c2.72,0,4.21-.69,5.04-1.29.46-.32.87-.74,1.23-1.22.06-.62.13-1.23.26-1.86l1.84-9.61v-48.61c0-2.9-.65-4.49-1.21-5.38-.58-.94-1.43-1.68-2.53-2.27Z" style="fill:#fff;"/><path d="M368.7,417.1l-87.2-36.19c-4.01-1.67-8.51.29-10.06,4.37l-22.31,59.07c-1.53,4.08.47,8.74,4.48,10.4l87.2,36.18c4.02,1.67,8.52-.29,10.06-4.37l22.31-59.07c1.55-4.08-.46-8.74-4.48-10.39ZM354.76,454.02c-1.53,4.08-6.04,6.04-10.06,4.37-4.01-1.67-6.01-6.33-4.47-10.4,1.53-4.08,6.04-6.03,10.05-4.37,4.02,1.67,6.03,6.33,4.48,10.4Z" style="fill:#fff;"/><path d="M482.49,397.81h-92.04c-2.31,0-4.18,1.99-4.18,4.47v67.05h100.41v-67.05c0-2.48-1.87-4.47-4.19-4.47Z" style="fill:#fff;"/><polygon points="377.9 437.27 377.9 437.28 380.16 431.28 377.9 437.27" style="fill:#fff;"/><path d="M379.94,417.87c-.55-1.18-1.23-2.29-2.04-3.31h0c.81,1.03,1.49,2.14,2.04,3.31Z" style="fill:#fff;"/><polygon points="483.41 39.16 485.79 39.16 485.79 31.06 488.76 31.06 488.76 29.2 480.5 29.2 480.5 31.06 483.41 31.06 483.41 39.16" style="fill:#fff;"/><polygon points="492.17 36.83 491.94 32.07 494.34 39.16 495.92 39.16 498.31 32.08 498.08 36.83 498.08 39.16 500.46 39.16 500.46 29.2 497.33 29.2 495.13 36.13 492.92 29.2 489.79 29.2 489.79 39.16 492.17 39.16 492.17 36.83" style="fill:#fff;"/><path d="M468.9,65.57c0-32.23-52.86-60.47-82.69-52.66L57.28,65.61c-25.11,1.18-45.13,22.87-45.13,49.48v353.57c0,26.04,21.31,47.34,47.34,47.34h409.33c26.03,0,47.33-21.3,47.33-47.34V115.09c0-27.35-21.15-49.52-47.25-49.52ZM370.31,54.58c9.95-2.6,51.18-6.61,51.18,4.13v7.26h-234.3l183.12-11.39ZM148.03,243.14c.01-27.59,13.03-53.55,35.14-70.05,14.65-10.79,32.35-16.63,50.55-16.68h27.19c21.48-.02,41.96-9.06,56.44-24.92.15-.17.35-.28.57-.33.46-.1.92.11,1.16.51.11.2.17.42.15.65-1.15,12.22-5.22,23.99-11.86,34.31-.1.18-.15.38-.14.58.03.42.31.78.71.92.19.07.4.08.6.04,25.45-5.75,46.67-23.24,57.16-47.13.13-.21.31-.39.53-.51.44-.25.98-.25,1.42,0,.21.12.39.3.52.51,10.66,20.41,14.25,43.77,10.23,66.44h0c-10.36,64.93-66.14,112.85-131.88,113.3-6.45.25-12.9-.14-19.28-1.16-27.45-4.66-47.92-27.87-49.13-55.69.12-31.68,25.9-57.26,57.58-57.14,31.19.12,56.57,25.14,57.13,56.33.24,9.5-3.88,17.84-12.34,18.09-9.05,0-13.28-6.46-13.28-15.15v-24.17c.01-8.14-6.55-14.76-14.69-14.82h-20.26c-19.48-.13-35.37,15.56-35.5,35.03-.13,19.48,15.56,35.37,35.03,35.5,10.12.07,19.77-4.21,26.52-11.75l.71-1.06.72,1.17c4.95,6.72,12.93,10.53,21.27,10.13,15.22-1.11,26.78-14.15,26.05-29.39.07-6.29-.63-12.57-2.1-18.69-8.37-38.63-46.47-63.16-85.11-54.79-33.05,7.16-56.58,36.47-56.41,70.29.47,38.98,31.68,70.6,70.64,71.58,0,0,5.31.48,11.28.34,29.08-.18,57.5-8.66,81.93-24.44.35-.24.7.24.46.59-24.07,25.93-58.33,39.94-93.67,38.31-46.67.85-85.2-36.3-86.05-82.97-.02-1.25-.02-2.5.02-3.76ZM255.14,222.98v19.74c0,11.68-9.47,21.15-21.15,21.15s-21.15-9.47-21.15-21.15,9.47-21.15,21.15-21.15l19.7-.04c.78.04,1.41.67,1.45,1.45ZM483.96,496.15h-96.03c-6.12,0-11.07-6-11.07-13.41h118.19c0,7.4-4.96,13.41-11.08,13.41ZM495.04,436.66v41.62h-117.14v-41l-19.76,52.3c-3.08,8.15-12.08,12.07-20.12,8.74l-87.2-36.18c-4.56-1.89-7.83-5.72-9.23-10.17l-5.75,30.06c-1.79,9.41-10.53,15.51-19.51,13.63l-48.76-10.25c-5.1-1.06-9.18-4.48-11.42-8.96-2.13,1.12-4.79,1.83-8.11,1.83h-33.47c0,5.96.69,10.43,2.09,13.41h6.27c2.31,0,4.19,2,4.19,4.47h-58.58c0-2.46,1.87-4.47,4.19-4.47h6.27c1.4-2.98,2.09-7.45,2.09-13.41h-33.47s-16.74,0-16.74-17.89v-53.65s0-7.63,4.67-12.92c2.48-2.81,6.26-4.96,12.07-4.96h100.4s16.74,0,16.74,17.89v4.79l9.33-48.8c1.8-9.41,6.54-15.51,15.51-13.62l52.77,10.24c8.97,1.89,14.8,11.04,12.99,20.45l-9.96,52.07,18.74-49.6c3.08-8.15,12.08-12.06,20.12-8.74l87.2,36.18c2.59,1.08,4.76,2.77,6.41,4.85v-12.29c0-7.4,5.62-13.42,12.54-13.42h92.04c3.16,0,6.05,1.24,8.25,3.32,2.63,2.45,4.3,6.07,4.3,10.1v34.38Z" style="fill:#fff;"/></svg>