<?xml version="1.0" encoding="UTF-8"?><svg id="a" xmlns="http://www.w3.org/2000/svg" viewBox="0 0 528 528"><g id="p"><path d="M468.82,65.55c0-32.23-52.86-60.47-82.69-52.66L57.2,65.59c-25.11,1.18-45.13,22.87-45.13,49.48v297.13c0,16.53,7.72,31.16,19.6,40.14v24.53c0,17.88,16.77,17.88,16.77,17.88h33.53c0,5.96-.7,10.43-2.1,13.41h-6.28c-2.32,0-4.2,2-4.2,4.47h58.69c0-2.47-1.89-4.47-4.2-4.47h-6.28c-1.4-2.98-2.1-7.45-2.1-13.41h33.53c3.32,0,5.99-.7,8.13-1.82,2.24,4.48,6.33,7.89,11.44,8.96l48.85,10.25c9.01,1.88,17.75-4.23,19.55-13.64l5.76-30.06c1.4,4.45,4.68,8.28,9.25,10.17l87.37,36.18c8.05,3.34,17.07-.58,20.16-8.74l19.79-52.3v41h117.36v-42.59c11.74-9,19.38-23.54,19.38-39.96V115.07c0-27.35-21.15-49.52-47.25-49.52ZM370.23,54.56c9.95-2.6,51.18-6.61,51.18,4.13v7.26h-234.3l183.12-11.39ZM157.41,471.83l-1.83,9.61c-.13.62-.21,1.24-.26,1.86-.36.48-.77.89-1.23,1.22-.83.59-2.32,1.28-5.05,1.28H48.52s-.1,0-.19-.01c-.24-.01-.63-.05-1.12-.14-1.02-.18-2.25-.53-3.4-1.13-1.1-.59-1.94-1.33-2.54-2.28-.55-.88-1.21-2.46-1.21-5.37v-53.57s.01-.1.01-.22c.03-.24.06-.66.15-1.18.17-1.1.49-2.41,1.05-3.62.55-1.18,1.24-2.08,2.13-2.71.83-.59,2.32-1.29,5.05-1.29h100.52s.1,0,.19.01c.23.02.63.06,1.12.15,1.02.18,2.25.52,3.39,1.13,1.1.59,1.95,1.33,2.53,2.27.56.89,1.21,2.48,1.21,5.38v48.61ZM228.87,496.8c-.9,4.71-5.28,7.75-9.78,6.81l-48.86-10.23c-3.58-.76-6.16-3.81-6.59-7.41,2.17-4.52,2.17-9.1,2.17-9.1v-4.62l17.49-91.32c.9-4.71,5.28-7.76,9.78-6.82l48.85,10.24c4.5.95,7.41,5.53,6.51,10.23l-19.58,102.22ZM374.61,443.97l-22.35,59.07c-1.54,4.08-6.05,6.04-10.08,4.37l-87.37-36.18c-4.02-1.67-6.03-6.33-4.49-10.4l22.35-59.07c1.54-4.08,6.06-6.04,10.08-4.37l87.37,36.19c4.03,1.66,6.03,6.32,4.49,10.39ZM488.31,485.8h-100.6v-67.05c0-2.48,1.87-4.47,4.19-4.47h92.22c2.32,0,4.2,1.99,4.2,4.47v67.05ZM508.2,231.61c0,16.92-9.72,31.47-23.63,37.83v23.38c13.91,6.37,23.63,20.91,23.63,37.83s-9.72,31.47-23.63,37.83v22.66c4.28,2.96,7.09,8.03,7.09,13.79v3.1c-2.1-1.7-4.71-2.7-7.55-2.7h-92.22c-6.93,0-12.57,6.02-12.57,13.42v12.29c-1.64-2.09-3.83-3.78-6.41-4.85l-87.38-36.18c-8.05-3.33-17.06.58-20.15,8.74l-18.78,49.6,9.98-52.07c1.8-9.41-4.03-18.56-13.01-20.45l-52.88-10.24c-8.99-1.89-13.74,4.22-15.54,13.62l-9.35,48.8v-4.79c0-17.89-16.77-17.89-16.77-17.89H48.45c-5.82,0-9.62,2.15-12.09,4.96-1.32,1.49-2.26,3.16-2.95,4.8-.09.23-.18.46-.26.69-1.32,3.75-1.32,7.03-1.32,7.03v29.65s0,0,0,0v-29.65s0-3.28,1.32-7.03c.08-.23.17-.46.26-.69.69-1.76,1.67-3.59,3.09-5.2v-4.96c0-5.76,2.81-10.83,7.08-13.79v-22.66c-13.9-6.36-23.62-20.91-23.62-37.83s9.72-31.46,23.62-37.83v-23.38c-13.9-6.36-23.62-20.91-23.62-37.83s9.72-31.46,23.62-37.84v-23.37c-13.9-6.37-23.62-20.91-23.62-37.83,0-22.8,17.63-41.28,39.38-41.28,8.27,0,15.97,2.69,22.31,7.27h364.87c6.34-4.58,14.03-7.27,22.31-7.27,21.75,0,39.38,18.48,39.38,41.28,0,16.92-9.72,31.46-23.63,37.83v23.37c13.91,6.38,23.63,20.91,23.63,37.84Z"/><polygon points="492.09 36.81 491.86 32.05 494.26 39.14 495.84 39.14 498.23 32.06 498 36.81 498 39.14 500.38 39.14 500.38 29.18 497.25 29.18 495.05 36.11 492.84 29.18 489.71 29.18 489.71 39.14 492.09 39.14 492.09 36.81"/><path d="M500.17,132.97c0-18.23-14.1-33.02-31.5-33.02s-31.5,14.79-31.5,33.02,14.1,33.02,31.5,33.02,31.5-14.79,31.5-33.02ZM485.09,133.22c0,2.53-.35,4.88-1.05,7.05-.69,2.15-1.72,4.03-3.08,5.65-1.35,1.59-3.02,2.82-5,3.7-2,.89-4.29,1.33-6.9,1.33s-4.91-.44-6.92-1.33c-2.01-.88-3.69-2.11-5.04-3.7-1.36-1.62-2.38-3.5-3.08-5.65-.7-2.17-1.04-4.52-1.04-7.05v-.69c0-2.55.34-4.9,1.04-7.05.7-2.18,1.72-4.06,3.08-5.65,1.35-1.59,3.02-2.82,5.02-3.7,1.98-.9,4.27-1.36,6.88-1.36s4.93.46,6.92,1.36c2.01.88,3.69,2.11,5.04,3.7,1.36,1.59,2.39,3.47,3.08,5.65.7,2.15,1.05,4.5,1.05,7.05v.69Z"/><path d="M437.17,331.05c0,18.24,14.1,33.02,31.5,33.02,8.16,0,15.58-3.24,21.18-8.58,6.34-6.04,10.32-14.75,10.32-24.44s-3.98-18.4-10.32-24.43c-5.6-5.33-13.02-8.58-21.18-8.58-17.4,0-31.5,14.78-31.5,33.01ZM475.35,310.61h10.77l-10.92,20.38,11.22,20.69h-10.88l-6.59-13.9-6.6,13.9h-10.9l11.26-20.69-10.97-20.38h10.8l6.41,13.66,6.4-13.66Z"/><polygon points="483.33 39.14 485.71 39.14 485.71 31.04 488.68 31.04 488.68 29.18 480.42 29.18 480.42 31.04 483.33 31.04 483.33 39.14"/><path d="M473.53,125.96c-.44-.89-1.02-1.57-1.76-2.06-.74-.49-1.66-.74-2.77-.74s-2,.25-2.74.74c-.72.49-1.29,1.17-1.71,2.06-.44.86-.74,1.86-.93,3-.18,1.12-.27,2.31-.27,3.57v.69c0,1.31.09,2.53.27,3.67.19,1.14.49,2.14.93,3,.42.84,1,1.49,1.74,1.96.74.48,1.67.72,2.77.72s1.99-.24,2.71-.72c.74-.47,1.32-1.12,1.76-1.96.42-.86.74-1.86.92-3,.19-1.14.28-2.36.28-3.67v-.69c0-1.26-.09-2.45-.28-3.57-.18-1.14-.5-2.14-.92-3Z"/><path d="M465.69,220.05c-.1.17-.19.34-.27.52v12.04c.3.66.73,1.21,1.26,1.63.76.61,1.77.91,3.07.91.87,0,1.58-.21,2.15-.63.58-.42,1.03-1.02,1.38-1.77.34-.77.58-1.66.72-2.65.14-1,.22-2.08.22-3.22v-.59c0-1.19-.09-2.26-.24-3.25-.16-1-.43-1.86-.79-2.59-.33-.74-.79-1.3-1.36-1.7-.59-.39-1.29-.58-2.13-.58-.98,0-1.79.16-2.46.47-.64.3-1.16.77-1.55,1.41Z"/><path d="M456.41,201.59c-11.31,5.01-19.24,16.75-19.24,30.42s7.93,25.41,19.24,30.43c3.77,1.67,7.91,2.59,12.26,2.59,17.4,0,31.5-14.78,31.5-33.02s-14.1-33.02-31.5-33.02c-4.35,0-8.49.93-12.26,2.6ZM476.83,211.93c1.41.73,2.6,1.78,3.55,3.16.97,1.35,1.69,2.98,2.19,4.88.48,1.89.71,4,.71,6.32v.59c0,2.22-.23,4.28-.71,6.17-.5,1.91-1.21,3.57-2.17,4.98-.95,1.41-2.12,2.51-3.55,3.29-1.4.77-3.02,1.16-4.87,1.16-1.73,0-3.23-.4-4.49-1.22-.77-.49-1.47-1.09-2.07-1.82v14.21h-9.07v-42.26h8.44l.3,2.81c.69-.89,1.48-1.62,2.37-2.19,1.26-.79,2.75-1.18,4.5-1.18,1.85,0,3.47.36,4.87,1.1Z"/><path d="M383.52,512.63h108.99c6.94,0,12.57-6.01,12.57-13.41h-134.13c0,7.4,5.62,13.41,12.56,13.41Z"/><path d="M351.65,460.09c-4.01-1.66-8.53.29-10.06,4.37-1.55,4.07.46,8.73,4.48,10.4,4.03,1.67,8.54-.29,10.07-4.37,1.55-4.07-.45-8.73-4.49-10.4Z"/><path d="M199.56,472.94c-4.5-.95-8.88,2.1-9.79,6.8-.89,4.71,2.02,9.29,6.52,10.23,4.5.94,8.88-2.11,9.78-6.81.89-4.7-2.02-9.28-6.51-10.22Z"/><path d="M90.29,230.86c0-18.65-14.43-33.77-32.23-33.77s-32.21,15.12-32.21,33.77,14.43,33.77,32.21,33.77,32.23-15.12,32.23-33.77ZM69.05,219.48c-.51-.53-.64-1.31-.38-1.97.08-.22.21-.43.38-.6.68-.7,1.78-.7,2.47,0l12.21,12.67c.35.36.52.82.52,1.28s-.17.92-.52,1.28l-12.21,12.66c-.69.71-1.79.71-2.47,0-.68-.7-.68-1.86,0-2.56l10.98-11.38-10.98-11.38ZM47.09,242.24c.43.44.58,1.05.48,1.62-.07.35-.23.68-.48.94-.69.71-1.79.71-2.47,0l-12.22-12.66c-.34-.36-.51-.82-.51-1.28s.17-.92.51-1.28l12.22-12.67c.68-.7,1.78-.7,2.47,0,.68.71.68,1.86,0,2.57l-10.99,11.38,10.99,11.38ZM50.57,256.1c-.92-.29-1.43-1.31-1.15-2.26l2.57-8.67,11.39-38.36c.28-.95,1.26-1.49,2.18-1.2.93.29,1.44,1.31,1.16,2.27l-2.47,8.32-11.49,38.7c-.28.96-1.26,1.49-2.19,1.2Z"/><path d="M59.17,99.95c-17.4,0-31.5,14.79-31.5,33.02s14.1,33.02,31.5,33.02,31.5-14.79,31.5-33.02-14.1-33.02-31.5-33.02ZM59.16,151.54c-2.22,0-4.32-.43-6.27-1.2l-6.53,8.21c-4.95-2.72-9.02-6.99-11.61-12.17l7.82-6.84c-.72-2.04-1.13-4.26-1.13-6.57,0-10.26,7.93-18.57,17.72-18.57,5.19,0,9.86,2.34,13.09,6.06l-15.06,6.32,3.93,10.31,5.25,12.85c-2.2,1.03-4.64,1.6-7.21,1.6ZM70.17,147.52l-5.11-12.49,11.65-4.58c.11.83.17,1.67.17,2.52,0,5.89-2.62,11.14-6.71,14.55Z"/><path d="M59.17,298.04c-17.4,0-31.5,14.78-31.5,33.01s14.1,33.02,31.5,33.02,31.5-14.78,31.5-33.02-14.1-33.01-31.5-33.01ZM75.91,344.31c0,4.63-4.24,7.37-8.12,7.37h-16.24c-3.9,0-8.14-2.74-8.14-7.37v-13.61c0-3.57,2.5-6.01,5.43-6.95v-6.1c0-6.27,4.84-11.36,10.83-11.36s10.81,5.09,10.81,11.36v6.1c2.93.94,5.43,3.38,5.43,6.95v13.61Z"/><path d="M59.67,311.97c-2.99,0-5.43,2.54-5.43,5.68v5.66h10.84v-5.66c0-3.14-2.42-5.68-5.41-5.68Z"/><path d="M53.7,141.36l2.34-3.69c.23-.37.22-.85-.04-1.19-.25-.36-.69-.5-1.09-.36l-3.19,1.11,2.35-3.69c.23-.37.22-.85-.04-1.2-.26-.34-.69-.49-1.1-.34l-5.9,2.06.63,1.96,3.18-1.12-2.34,3.69c-.24.36-.22.84.03,1.2.26.35.7.49,1.09.35l3.19-1.11-2.35,3.68c-.24.37-.21.86.04,1.2.25.35.7.5,1.09.36l5.91-2.07-.62-1.95-3.18,1.11Z"/><path d="M264.12,191.42l-26.91-46.6h-89.59l116.5,201.79,116.5-201.79h-89.6l-26.9,46.6ZM334.03,153.18l-69.9,121.07-69.9-121.07h43l26.9,46.6,26.9-46.6h43Z"/></g></svg>