<svg xmlns="http://www.w3.org/2000/svg" viewBox="0 0 504.5 504.9"><g fill="#ffffff" class="jsopx-icon-wrapper"><path d="M469.14,108.51c-1.36-1.59-3.04-2.82-5.04-3.71-1.99-.9-4.3-1.36-6.92-1.36s-4.91.46-6.89,1.36c-1.99.88-3.66,2.12-5.02,3.71-1.36,1.59-2.37,3.47-3.08,5.64-.69,2.15-1.04,4.5-1.04,7.06v.68c0,2.53.35,4.88,1.04,7.06.71,2.15,1.72,4.03,3.08,5.64,1.36,1.59,3.04,2.82,5.04,3.71,2.02.88,4.32,1.32,6.92,1.32s4.91-.44,6.9-1.32c1.98-.88,3.65-2.12,5.01-3.71,1.36-1.61,2.39-3.49,3.08-5.64.69-2.17,1.04-4.52,1.04-7.06v-.68c0-2.55-.35-4.91-1.04-7.06-.69-2.17-1.72-4.05-3.08-5.64ZM462.91,121.89c0,1.31-.09,2.53-.28,3.67-.18,1.14-.49,2.14-.92,3-.44.84-1.02,1.49-1.76,1.96-.72.48-1.62.72-2.71.72s-2.03-.24-2.77-.72c-.74-.47-1.32-1.12-1.75-1.96-.44-.86-.74-1.86-.93-3-.18-1.14-.27-2.36-.27-3.67v-.68c0-1.27.09-2.45.27-3.57.19-1.14.49-2.14.93-3,.43-.88,1-1.57,1.71-2.06.74-.49,1.66-.74,2.74-.74s2.03.25,2.77.74,1.32,1.18,1.76,2.06c.43.86.74,1.86.92,3,.19,1.12.28,2.31.28,3.57v.68Z" fill="#ffffff"></path><path d="M34.54,147.22l6.53-8.21c1.95.77,4.05,1.2,6.27,1.2,2.57,0,5.01-.57,7.21-1.6l-5.25-12.85-3.93-10.31,15.06-6.32c-3.23-3.72-7.9-6.06-13.09-6.06-9.79,0-17.72,8.31-17.72,18.57,0,2.31.41,4.53,1.13,6.57l-7.82,6.84c2.59,5.18,6.66,9.45,11.61,12.17ZM41.11,120.67c.4-.15.84,0,1.1.35.26.35.27.83.03,1.2l-2.34,3.68,3.18-1.11c.4-.13.84,0,1.1.36.26.35.27.83.03,1.2l-2.34,3.68,3.18-1.11.63,1.95-5.91,2.07c-.39.13-.84-.01-1.09-.36-.26-.35-.28-.83-.04-1.2l2.35-3.68-3.19,1.11c-.39.15-.83,0-1.09-.35-.26-.36-.27-.84-.03-1.2l2.34-3.7-3.18,1.12-.63-1.96,5.9-2.06Z" fill="#ffffff"></path><path d="M228.87,356.53l-48.76-10.25c-4.49-.94-8.86,2.12-9.76,6.82l-17.46,91.32v4.61s0,4.58-2.17,9.11c.44,3.6,3.01,6.65,6.59,7.4l48.76,10.24c4.49.94,8.86-2.11,9.77-6.81l19.53-102.22c.91-4.7-2-9.28-6.5-10.23ZM193.07,455.34c-.9,4.7-5.26,7.75-9.76,6.81s-7.4-5.52-6.51-10.23c.91-4.7,5.28-7.75,9.77-6.81,4.48.94,7.39,5.52,6.5,10.23Z" fill="#ffffff"></path><path d="M233.53,420.54l-3.84,20.08c-1.06-3.38-1.06-7.11.27-10.62l2.09-5.54-2.09,5.53c-1.33,3.52-1.33,7.25-.27,10.63l3.84-20.09h0Z" fill="#ffffff"></path><path d="M368.04,406.53c-.55-1.18-1.23-2.29-2.04-3.31h0c.81,1.03,1.49,2.14,2.04,3.31Z" fill="#ffffff"></path><path d="M38.75,244.78c.93.29,1.9-.25,2.18-1.2l13.97-47.03c.28-.95-.24-1.97-1.16-2.26-.92-.29-1.89.25-2.17,1.2l-13.97,47.03c-.28.95.24,1.97,1.15,2.26Z" fill="#ffffff"></path><path d="M39.73,340.36h16.24c3.89,0,8.12-2.74,8.12-7.37v-13.62c0-3.56-2.5-6-5.42-6.94v-6.1c0-6.27-4.84-11.36-10.82-11.36s-10.83,5.08-10.83,11.36v6.1c-2.92.94-5.42,3.38-5.42,6.94v13.62c0,4.63,4.23,7.37,8.13,7.37ZM42.42,306.32c0-3.14,2.43-5.68,5.42-5.68s5.41,2.54,5.41,5.68v5.67h-10.83v-5.67Z" fill="#ffffff"></path><path d="M57.23,233.48c.68.71,1.78.71,2.46,0l12.22-12.67c.68-.71.68-1.85,0-2.55l-12.22-12.67c-.68-.71-1.78-.71-2.46,0-.68.71-.68,1.86,0,2.56l10.98,11.38-10.98,11.38c-.68.71-.68,1.86,0,2.56Z" fill="#ffffff"></path><path d="M140.77,387.75c-1.13-.6-2.36-.95-3.38-1.13-.49-.09-.88-.12-1.12-.15-.09-.01-.16-.01-.19-.01H35.75c-2.72,0-4.21.69-5.04,1.29-.88.63-1.58,1.53-2.13,2.71-.56,1.21-.88,2.52-1.05,3.62-.09.53-.12.94-.15,1.19,0,.11,0,.18-.01.21v53.57c0,2.91.66,4.49,1.21,5.38.59.95,1.43,1.69,2.54,2.27,1.13.6,2.36.95,3.38,1.13.49.09.88.13,1.12.15.09.01.16.01.19.01h100.33c2.72,0,4.21-.69,5.04-1.29.46-.32.87-.74,1.23-1.22.06-.62.13-1.23.26-1.86l1.84-9.61v-48.61c0-2.9-.65-4.49-1.21-5.38-.58-.94-1.43-1.68-2.53-2.27Z" fill="#ffffff"></path><path fill="#ffffff" d="M366 425.92L366 425.93 368.26 419.94 366 425.92z"></path><path d="M457,54.22c0-32.23-52.86-60.47-82.69-52.66L45.38,54.26C20.27,55.44.25,77.13.25,103.74v353.57c0,26.04,21.31,47.34,47.34,47.34h409.33c26.03,0,47.33-21.3,47.33-47.34V103.74c0-27.35-21.15-49.52-47.25-49.52ZM358.41,43.23c9.95-2.6,51.18-6.61,51.18,4.13v7.26h-234.3l183.12-11.39ZM370.56,183.8v106.77h-25.5v-106.77h25.5ZM328.95,220.03c0,10.41-3.7,18.74-11.11,24.97s-17.57,9.35-30.48,9.35h-16.32v36.23h-25.57v-106.77h42.32c8.11,0,15.28,1.5,21.52,4.51,6.24,3.01,11.07,7.29,14.5,12.83,3.42,5.55,5.13,11.84,5.13,18.88ZM167.91,169.72h27.21l44.36,120.86h-31.08l-7.01-22.58h-39.66l-6.93,22.58h-30.92l44.03-120.86ZM47.35,88.62c17.4,0,31.5,14.79,31.5,33.02s-14.1,33.02-31.5,33.02-31.5-14.79-31.5-33.02,14.1-33.02,31.5-33.02ZM14.03,219.53c0-18.65,14.43-33.77,32.21-33.77s32.22,15.12,32.22,33.77-14.43,33.77-32.22,33.77-32.21-15.12-32.21-33.77ZM47.35,286.71c17.39,0,31.49,14.78,31.49,33.02s-14.1,33.02-31.49,33.02-31.51-14.78-31.51-33.02,14.1-33.02,31.51-33.02ZM472.06,484.81h-96.03c-6.12,0-11.07-6-11.07-13.41h118.19c0,7.4-4.96,13.41-11.08,13.41ZM483.14,425.31v41.62h-117.14v-41l-19.76,52.3c-3.08,8.15-12.08,12.07-20.12,8.74l-87.2-36.18c-4.56-1.89-7.83-5.72-9.23-10.17l-5.75,30.06c-1.79,9.41-10.53,15.51-19.51,13.63l-48.76-10.25c-5.1-1.06-9.18-4.48-11.42-8.96-2.13,1.12-4.79,1.83-8.11,1.83h-33.47c0,5.96.69,10.43,2.09,13.41h6.27c2.31,0,4.19,2,4.19,4.47h-58.58c0-2.46,1.87-4.47,4.19-4.47h6.27c1.4-2.98,2.09-7.45,2.09-13.41h-33.47s-16.74,0-16.74-17.89v-53.65s0-7.63,4.67-12.92c2.48-2.81,6.26-4.96,12.07-4.96h100.4s16.74,0,16.74,17.89v4.79l9.33-48.8c1.8-9.41,6.54-15.51,15.51-13.62l52.77,10.24c8.97,1.89,14.8,11.04,12.99,20.45l-9.96,52.07,18.74-49.6c3.08-8.15,12.08-12.06,20.12-8.74l87.2,36.18c2.59,1.08,4.76,2.77,6.41,4.85v-12.29c0-7.4,5.62-13.42,12.54-13.42h92.04c3.16,0,6.05,1.24,8.25,3.32,2.63,2.45,4.3,6.07,4.3,10.1v34.38ZM456.85,352.74c-17.39,0-31.49-14.78-31.49-33.02s14.1-33.02,31.49-33.02,31.51,14.78,31.51,33.02-14.1,33.02-31.51,33.02ZM456.85,253.7c-17.39,0-31.49-14.78-31.49-33.02s14.1-33.02,31.49-33.02,31.51,14.78,31.51,33.02-14.1,33.02-31.51,33.02ZM456.85,154.66c-17.39,0-31.49-14.78-31.49-33.02s14.1-33.02,31.49-33.02,31.51,14.78,31.51,33.02-14.1,33.02-31.51,33.02Z" fill="#ffffff"></path><path fill="#ffffff" d="M474.3 299.29L463.53 299.29 457.13 312.94 450.72 299.29 439.92 299.29 450.89 319.66 439.63 340.36 450.53 340.36 457.13 326.46 463.72 340.36 474.6 340.36 463.38 319.66 474.3 299.29z"></path><path d="M288.08,203.68h-17.04v30.8h16.75c4.95,0,8.73-1.25,11.33-3.74,2.6-2.49,3.9-6.01,3.9-10.56,0-4.99-1.34-8.97-4.01-11.95-2.67-2.98-6.31-4.5-10.93-4.55Z" fill="#ffffff"></path><path d="M468.56,203.76c-.95-1.38-2.14-2.43-3.55-3.16-1.4-.74-3.02-1.1-4.87-1.1-1.75,0-3.24.39-4.5,1.18-.88.57-1.68,1.3-2.36,2.2l-.3-2.81h-8.44v42.26h9.07v-14.21c.6.73,1.3,1.33,2.07,1.83,1.25.82,2.76,1.22,4.49,1.22,1.85,0,3.47-.39,4.87-1.16,1.42-.78,2.6-1.88,3.55-3.29s1.67-3.07,2.16-4.97c.48-1.89.72-3.95.72-6.17v-.59c0-2.32-.24-4.42-.72-6.32-.49-1.9-1.22-3.53-2.18-4.88ZM462.4,215.56c0,1.14-.08,2.22-.22,3.21-.13,1-.38,1.88-.72,2.65-.35.75-.81,1.34-1.38,1.77-.57.41-1.29.63-2.15.63-1.3,0-2.32-.3-3.07-.91-.54-.43-.96-.97-1.27-1.64v-12.04c.08-.18.17-.35.27-.52.39-.64.91-1.11,1.56-1.41.66-.31,1.48-.47,2.45-.47.84,0,1.55.19,2.13.58.57.4,1.03.96,1.37,1.7.36.73.63,1.59.78,2.59.16.99.25,2.06.25,3.25v.59Z" fill="#ffffff"></path><path d="M58.35,136.19c4.09-3.41,6.71-8.66,6.71-14.55,0-.85-.06-1.69-.17-2.52l-11.65,4.58,5.11,12.49Z" fill="#ffffff"></path><path fill="#ffffff" d="M181.51 203.59L168.65 245.51 194.46 245.51 181.51 203.59z"></path><path d="M356.8,405.76l-87.2-36.19c-4.01-1.67-8.51.29-10.06,4.37l-22.31,59.07c-1.53,4.08.47,8.74,4.48,10.4l87.2,36.18c4.02,1.67,8.52-.29,10.06-4.37l22.31-59.07c1.55-4.08-.46-8.74-4.48-10.39ZM342.86,442.67c-1.53,4.08-6.04,6.04-10.06,4.37-4.01-1.67-6.01-6.33-4.47-10.4,1.53-4.08,6.04-6.03,10.05-4.37,4.02,1.67,6.03,6.33,4.48,10.4Z" fill="#ffffff"></path><path d="M35.27,233.48c.68-.71.68-1.86,0-2.56l-10.99-11.38,10.99-11.38c.68-.71.68-1.86,0-2.56-.68-.71-1.79-.71-2.46,0l-12.22,12.67c-.68.71-.68,1.85,0,2.55l12.22,12.67c.67.71,1.78.71,2.46,0Z" fill="#ffffff"></path><path d="M470.59,386.46h-92.04c-2.31,0-4.18,1.99-4.18,4.47v67.05h100.41v-67.05c0-2.48-1.87-4.47-4.19-4.47Z" fill="#ffffff"></path><path fill="#ffffff" d="M471.51 27.81L473.89 27.81 473.89 19.71 476.86 19.71 476.86 17.86 468.6 17.86 468.6 19.71 471.51 19.71 471.51 27.81z"></path><path fill="#ffffff" d="M480.27 25.49L480.04 20.72 482.44 27.81 484.02 27.81 486.41 20.73 486.18 25.49 486.18 27.81 488.56 27.81 488.56 17.86 485.43 17.86 483.23 24.78 481.02 17.86 477.89 17.86 477.89 27.81 480.27 27.81 480.27 25.49z"></path></g></svg>