<?xml version="1.0" encoding="UTF-8"?><svg id="a" xmlns="http://www.w3.org/2000/svg" viewBox="0 0 528 528"><g id="b"><g id="c"><path d="M191.31,232.14c-2.01,2.07-3.96,4.19-5.85,6.37-14.99,17.38-20.69,33.51-16.33,41.06,3.66,4.56,9.03,7.41,14.86,7.86,10.51,1.57,21.22,1.19,31.6-1.11,2.03-.41,4.04-.86,6.04-1.36-2.41-10.7-4.11-21.54-5.1-32.46-8.85-6.22-17.27-13.02-25.22-20.36Z"/><path d="M244.81,258.44c6.35,3.65,12.82,7.06,19.42,10.22,6.27-3.09,12.66-6.52,19.11-10.24,6.48-3.74,12.71-7.64,18.61-11.63.46-7.26.69-14.52.68-21.8,0-7.32-.26-14.62-.78-21.92-6.06-4.03-12.24-7.86-18.55-11.48-6.28-3.62-12.68-7.02-19.2-10.18-6.43,3.09-12.91,6.49-19.33,10.2-6.39,3.69-12.57,7.59-18.47,11.61-.53,7.14-.81,14.29-.81,21.43v.38c0,7.28.28,14.55.83,21.81,6.02,4.1,12.18,7.97,18.49,11.6ZM253.26,206.32c3.37-1.95,7.05-2.87,10.68-2.87,7.39,0,14.57,3.83,18.53,10.69,5.9,10.23,2.4,23.3-7.83,29.21-10.22,5.9-23.3,2.4-29.2-7.83-5.91-10.23-2.4-23.3,7.82-29.2Z"/><path d="M239.71,267.3c-4.08-2.35-8.11-4.79-12.08-7.33.98,7.77,2.27,15.22,3.85,22.18,7.09-2.29,14.07-4.95,20.89-7.96-4.28-2.19-8.5-4.49-12.66-6.89Z"/><path d="M191.33,217.85c7.95-7.3,16.36-14.07,25.18-20.28.97-10.78,2.66-21.49,5.05-32.06-1.62-.39-3.21-.75-4.77-1.07-24.46-5.02-43.1-1.89-47.72,6.13-.91,1.58-1.36,3.57-1.36,5.87,0,8.66,6.35,21.89,18.5,35.84,1.66,1.9,3.37,3.75,5.12,5.57Z"/><path d="M198.65,225c5.15,4.77,10.83,9.51,16.95,14.14-.23-4.7-.34-9.4-.34-14.1s.11-9.42.32-14.12c-6.1,4.62-11.78,9.34-16.93,14.08Z"/><path d="M231.42,168.26c-1.56,6.87-2.84,14.19-3.8,21.83,7.95-5.1,16.12-9.82,24.51-14.15-6.77-2.9-13.68-5.47-20.71-7.68Z"/><path d="M288.41,182.73c4.11,2.36,8.18,4.81,12.19,7.34-.86-7.28-2.08-14.52-3.67-21.68-6.74,2.07-13.72,4.62-20.82,7.61,4.15,2.15,8.25,4.4,12.3,6.73Z"/><path d="M337.31,217.56c.99-1.04,1.94-2.07,2.86-3.1,16.59-18.65,23.23-36.36,18.6-44.37-4.35-7.53-21.69-10.54-44.69-6.06-2.38.46-4.81,1-7.29,1.61,2.33,10.45,3.95,21.04,4.86,31.71,9,6.15,17.58,12.9,25.66,20.21Z"/><path d="M276.19,274.04c7.2,3.03,14.28,5.63,21.09,7.73,1.56-7.27,2.73-14.61,3.53-22-4.01,2.56-8.13,5.06-12.35,7.51-4.12,2.37-8.21,4.63-12.27,6.76Z"/><path d="M294.38,158.47c-.45-1.56-.94-3.12-1.45-4.66-7.86-23.7-19.88-38.29-29.14-38.28-8.69,0-19.96,13.52-27.58,35.68-.8,2.36-1.55,4.74-2.24,7.13,10.31,3.24,20.38,7.16,30.16,11.76,9.81-4.54,19.92-8.43,30.25-11.63Z"/><path d="M368.7,417.1l-87.2-36.19c-4.01-1.67-8.51.29-10.06,4.37l-22.31,59.07c-1.53,4.08.47,8.74,4.48,10.4l87.2,36.18c4.02,1.67,8.52-.29,10.06-4.37l22.31-59.07c1.55-4.08-.46-8.74-4.48-10.39ZM354.76,454.02c-1.53,4.08-6.04,6.04-10.06,4.37-4.01-1.67-6.01-6.33-4.47-10.4,1.53-4.08,6.04-6.03,10.05-4.37,4.02,1.67,6.03,6.33,4.48,10.4Z"/><path d="M379.94,417.87c-.55-1.18-1.23-2.29-2.04-3.31h0c.81,1.03,1.49,2.14,2.04,3.31Z"/><polygon points="377.9 437.27 377.9 437.28 380.16 431.28 377.9 437.27"/><path d="M234.02,292.08c.75,2.61,1.57,5.2,2.46,7.76,7.57,21.67,18.7,34.67,27.42,34.66,2.88-.44,5.62-1.48,8.04-3,2.42-1.52,4.54-3.53,6.19-5.94,6.61-8.32,11.63-17.79,14.82-27.94.66-1.95,1.28-3.93,1.85-5.91-10.41-3.24-20.6-7.15-30.5-11.72-9.81,4.71-19.92,8.75-30.28,12.09Z"/><path d="M468.9,65.57c0-32.23-52.86-60.47-82.69-52.66L57.28,65.61c-25.11,1.18-45.13,22.87-45.13,49.48v353.57c0,26.04,21.31,47.34,47.34,47.34h409.33c26.03,0,47.33-21.3,47.33-47.34V115.09c0-27.35-21.15-49.52-47.25-49.52ZM370.31,54.58c9.95-2.6,51.18-6.61,51.18,4.13v7.26h-234.3l183.12-11.39ZM160.2,165.46c7.51-13.03,30.32-16.86,58.65-11.04,1.76.36,3.51.76,5.26,1.19.75-2.6,1.56-5.17,2.43-7.72,8.89-25.86,22.83-42.58,37.24-42.59,15.04-.01,29.75,17.84,38.86,45.29.57,1.7,1.1,3.42,1.6,5.15,2.61-.65,5.24-1.24,7.89-1.76,26.84-5.22,48.29-1.49,55.5,10.99,7.51,13.03-.6,34.69-19.82,56.29-1.02,1.14-2.08,2.28-3.16,3.43,1.55,1.61,3.04,3.22,4.44,4.82,18.38,21,26.01,42.57,18.61,55.43-7.17,12.45-28.11,16.37-54.49,11.38-2.87-.54-5.72-1.17-8.56-1.88-.64,2.24-1.31,4.4-2.02,6.49-9.01,26.41-23.89,43.79-38.73,43.8-14.36.01-28.22-16.17-37.07-41.52-.96-2.76-1.84-5.54-2.65-8.34-2.19.55-4.4,1.04-6.62,1.48-27.37,5.39-49.87,1.19-57.29-11.66-7.18-12.44-.08-32.53,17.45-52.86,1.96-2.27,4.06-4.56,6.28-6.85-1.88-1.94-3.72-3.94-5.5-5.98-17.97-20.62-25.49-41.04-18.3-53.54ZM483.96,496.15h-96.03c-6.12,0-11.07-6-11.07-13.41h118.19c0,7.4-4.96,13.41-11.08,13.41ZM495.04,436.66v41.62h-117.14v-41l-19.76,52.3c-3.08,8.15-12.08,12.07-20.12,8.74l-87.2-36.18c-4.56-1.89-7.83-5.72-9.23-10.17l-5.75,30.06c-1.79,9.41-10.53,15.51-19.51,13.63l-48.76-10.25c-5.1-1.06-9.18-4.48-11.42-8.96-2.13,1.12-4.79,1.83-8.11,1.83h-33.47c0,5.96.69,10.43,2.09,13.41h6.27c2.31,0,4.19,2,4.19,4.47h-58.58c0-2.46,1.87-4.47,4.19-4.47h6.27c1.4-2.98,2.09-7.45,2.09-13.41h-33.47s-16.74,0-16.74-17.89v-53.65s0-7.63,4.67-12.92c2.48-2.81,6.26-4.96,12.07-4.96h100.4s16.74,0,16.74,17.89v4.79l9.33-48.8c1.8-9.41,6.54-15.51,15.51-13.62l52.77,10.24c8.97,1.89,14.8,11.04,12.99,20.45l-9.96,52.07,18.74-49.6c3.08-8.15,12.08-12.06,20.12-8.74l87.2,36.18c2.59,1.08,4.76,2.77,6.41,4.85v-12.29c0-7.4,5.62-13.42,12.54-13.42h92.04c3.16,0,6.05,1.24,8.25,3.32,2.63,2.45,4.3,6.07,4.3,10.1v34.38Z"/><path d="M245.43,431.89l-3.84,20.08c-1.06-3.38-1.06-7.11.27-10.62l2.09-5.54-2.09,5.53c-1.33,3.52-1.33,7.25-.27,10.63l3.84-20.09h0Z"/><path d="M482.49,397.81h-92.04c-2.31,0-4.18,1.99-4.18,4.47v67.05h100.41v-67.05c0-2.48-1.87-4.47-4.19-4.47Z"/><path d="M337.37,231.88c-8.04,7.43-16.59,14.29-25.58,20.54-.82,10.8-2.37,21.52-4.64,32.11,2.72.67,5.38,1.25,7.96,1.74,22.56,4.27,39.37,1.12,43.72-6.44,2.12-5.44,1.89-11.52-.64-16.79-1.95-4.94-4.35-9.69-7.17-14.17-2.81-4.49-6.03-8.71-9.63-12.62-1.27-1.45-2.61-2.91-4.02-4.37Z"/><path d="M330.02,224.75c-5.58-5.04-11.42-9.78-17.49-14.22.21,4.82.32,9.64.33,14.46,0,4.74-.09,9.49-.28,14.23,6.06-4.52,11.88-9.35,17.44-14.47Z"/><path d="M152.67,399.09c-1.13-.6-2.36-.95-3.38-1.13-.49-.09-.88-.12-1.12-.15-.09-.01-.16-.01-.19-.01H47.65c-2.72,0-4.21.69-5.04,1.29-.88.63-1.58,1.53-2.13,2.71-.56,1.21-.88,2.52-1.05,3.62-.09.53-.12.94-.15,1.19,0,.11,0,.18-.01.21v53.57c0,2.91.66,4.49,1.21,5.38.59.95,1.43,1.69,2.54,2.27,1.13.6,2.36.95,3.38,1.13.49.09.88.13,1.12.15.09.01.16.01.19.01h100.33c2.72,0,4.21-.69,5.04-1.29.46-.32.87-.74,1.23-1.22.06-.62.13-1.23.26-1.86l1.84-9.61v-48.61c0-2.9-.65-4.49-1.21-5.38-.58-.94-1.43-1.68-2.53-2.27Z"/><path d="M240.77,367.88l-48.76-10.25c-4.49-.94-8.86,2.12-9.76,6.82l-17.46,91.32v4.61s0,4.58-2.17,9.11c.44,3.6,3.01,6.65,6.59,7.4l48.76,10.24c4.49.94,8.86-2.11,9.77-6.81l19.53-102.22c.91-4.7-2-9.28-6.5-10.23ZM204.97,466.69c-.9,4.7-5.26,7.75-9.76,6.81s-7.4-5.52-6.51-10.23c.91-4.7,5.28-7.75,9.77-6.81,4.48.94,7.39,5.52,6.5,10.23Z"/></g></g></svg>