<svg xmlns="http://www.w3.org/2000/svg" viewBox="0 0 528 528"><g fill="#ffffff" class="jsopx-icon-wrapper"><g id="1737692101886-5390106_af"><g id="1737692101886-5390106_ag"><path d="M191.33,232.6c7.95-7.3,16.36-14.07,25.18-20.28.97-10.78,2.66-21.49,5.05-32.05-1.62-.4-3.21-.76-4.77-1.08-24.46-5.02-43.1-1.89-47.72,6.13-.91,1.58-1.36,3.57-1.36,5.88,0,8.65,6.35,21.89,18.5,35.83,1.66,1.9,3.37,3.76,5.12,5.57Z" fill="none"></path><path d="M70.48,323.75v-6.1c0-6.27-4.83-11.36-10.81-11.36s-10.83,5.09-10.83,11.36v6.1c-2.93.94-5.43,3.38-5.43,6.95v13.61c0,4.63,4.24,7.37,8.14,7.37h16.24c3.88,0,8.12-2.74,8.12-7.37v-13.61c0-3.57-2.5-6.01-5.43-6.95ZM65.08,323.31h-10.84v-5.66c0-3.14,2.44-5.68,5.43-5.68s5.41,2.54,5.41,5.68v5.66Z" fill="none"></path><path d="M198.65,239.76c5.15,4.76,10.83,9.51,16.95,14.13-.23-4.69-.34-9.4-.34-14.1s.11-9.41.32-14.11c-6.1,4.61-11.78,9.34-16.93,14.08Z" fill="none"></path><path d="M65.06,135.03l5.11,12.49c4.09-3.41,6.71-8.66,6.71-14.55,0-.85-.06-1.69-.17-2.52l-11.65,4.58Z" fill="none"></path><path d="M239.71,282.06c-4.08-2.35-8.11-4.8-12.08-7.34.98,7.77,2.27,15.22,3.85,22.19,7.09-2.3,14.07-4.95,20.89-7.96-4.28-2.2-8.5-4.5-12.66-6.89Z" fill="none"></path><path d="M231.42,183.01c-1.56,6.88-2.84,14.19-3.8,21.83,7.95-5.1,16.12-9.81,24.51-14.14-6.77-2.91-13.68-5.48-20.71-7.69Z" fill="none"></path><path d="M294.38,173.22c-.45-1.56-.94-3.11-1.45-4.66-7.86-23.69-19.88-38.28-29.14-38.28-8.69.01-19.96,13.53-27.58,35.69-.8,2.35-1.55,4.73-2.24,7.12,10.31,3.24,20.38,7.17,30.16,11.76,9.81-4.54,19.92-8.42,30.25-11.63Z" fill="none"></path><path d="M191.31,246.9c-2.01,2.06-3.96,4.18-5.85,6.36-14.99,17.39-20.69,33.52-16.33,41.07,3.66,4.56,9.03,7.4,14.86,7.85,10.51,1.57,21.22,1.2,31.6-1.11,2.03-.4,4.04-.85,6.04-1.35-2.41-10.7-4.11-21.55-5.1-32.47-8.85-6.22-17.27-13.02-25.22-20.35Z" fill="none"></path><path d="M288.41,197.48c4.11,2.37,8.18,4.82,12.19,7.35-.86-7.29-2.08-14.53-3.67-21.69-6.74,2.08-13.72,4.63-20.82,7.61,4.15,2.16,8.25,4.4,12.3,6.73Z" fill="none"></path><path d="M57.19,126.78l15.06-6.32c-3.23-3.72-7.9-6.06-13.09-6.06-9.79,0-17.72,8.31-17.72,18.57,0,2.31.41,4.53,1.13,6.57l-7.82,6.84c2.59,5.18,6.66,9.45,11.61,12.17l6.53-8.21c1.95.77,4.05,1.2,6.27,1.2,2.57,0,5.01-.57,7.21-1.6l-5.25-12.85-3.93-10.31ZM51.59,144.27c-.39.14-.84,0-1.09-.36-.25-.34-.28-.83-.04-1.2l2.35-3.68-3.19,1.11c-.39.14-.83,0-1.09-.35-.25-.36-.27-.84-.03-1.2l2.34-3.69-3.18,1.12-.63-1.96,5.9-2.06c.41-.15.84,0,1.1.34.26.35.27.83.04,1.2l-2.35,3.69,3.19-1.11c.4-.14.84,0,1.09.36.26.34.27.82.04,1.19l-2.34,3.69,3.18-1.11.62,1.95-5.91,2.07Z" fill="none"></path><path d="M66.72,207.88c.28-.96-.23-1.98-1.16-2.27-.92-.29-1.9.25-2.18,1.2l-11.39,38.36-2.57,8.67c-.28.95.23,1.97,1.15,2.26.93.29,1.91-.24,2.19-1.2l11.49-38.7,2.47-8.32Z" fill="none"></path><path d="M421.41,58.69c0-10.74-41.23-6.73-51.18-4.13l-183.12,11.39h234.3v-7.26Z" fill="none"></path><path d="M370.12,433.58l-87.37-36.19c-4.02-1.67-8.54.29-10.08,4.37l-22.35,59.07c-1.54,4.07.47,8.73,4.49,10.4l87.37,36.18c4.03,1.67,8.54-.29,10.08-4.37l22.35-59.07c1.54-4.07-.46-8.73-4.49-10.39ZM356.14,470.49c-1.53,4.08-6.04,6.04-10.07,4.37-4.02-1.67-6.03-6.33-4.48-10.4,1.53-4.08,6.05-6.03,10.06-4.37,4.04,1.67,6.04,6.33,4.49,10.4Z" fill="none"></path><path d="M153.67,415.57c-1.13-.61-2.36-.95-3.39-1.13-.49-.09-.89-.13-1.12-.15-.09-.01-.16-.01-.19-.01H48.45c-2.73,0-4.22.7-5.05,1.29-.89.63-1.58,1.53-2.13,2.71-.56,1.21-.88,2.52-1.05,3.62-.09.52-.12.94-.15,1.18,0,.12,0,.18-.01.22v53.57c0,2.91.66,4.49,1.21,5.37.6.95,1.44,1.69,2.54,2.28,1.14.6,2.37.95,3.4,1.13.49.09.88.13,1.12.14.09.01.15.01.19.01h100.52c2.73,0,4.22-.69,5.05-1.28.46-.33.87-.74,1.23-1.22.05-.62.13-1.24.26-1.86l1.83-9.61v-48.61c0-2.9-.65-4.49-1.21-5.38-.58-.94-1.43-1.68-2.53-2.27Z" fill="none"></path><path d="M47.09,216.91c-.69-.7-1.79-.7-2.47,0l-12.22,12.67c-.34.36-.51.82-.51,1.28s.17.92.51,1.28l12.22,12.66c.68.71,1.78.71,2.47,0,.25-.26.41-.59.48-.94.1-.57-.05-1.18-.48-1.62l-10.99-11.38,10.99-11.38c.68-.71.68-1.86,0-2.57Z" fill="none"></path><path d="M484.12,414.28h-92.22c-2.31,0-4.19,1.99-4.19,4.47v67.05h100.6v-67.05c0-2.48-1.87-4.47-4.2-4.47Z" fill="none"></path><path d="M69.05,244.8c.68.71,1.78.71,2.47,0l12.21-12.66c.35-.36.52-.82.52-1.28s-.17-.92-.52-1.28l-12.21-12.67c-.69-.7-1.79-.7-2.47,0-.17.17-.3.38-.38.6-.26.66-.13,1.44.38,1.97l10.98,11.38-10.98,11.38c-.68.7-.68,1.86,0,2.56Z" fill="none"></path><path d="M241.94,384.35l-48.85-10.24c-4.5-.94-8.88,2.11-9.78,6.82l-17.49,91.32v4.62s0,4.58-2.17,9.1c.43,3.6,3.02,6.65,6.59,7.41l48.86,10.23c4.5.94,8.88-2.1,9.78-6.81l19.58-102.22c.9-4.7-2.01-9.28-6.51-10.23ZM206.08,483.16c-.9,4.7-5.28,7.75-9.78,6.81-4.5-.94-7.41-5.52-6.52-10.23.91-4.7,5.29-7.75,9.79-6.8,4.49.94,7.4,5.52,6.51,10.22Z" fill="none"></path><path d="M508.2,132.57c0-22.8-17.63-41.28-39.38-41.28-8.28,0-15.97,2.69-22.31,7.27H81.64c-6.34-4.58-14.04-7.27-22.31-7.27-21.75,0-39.38,18.48-39.38,41.28,0,16.92,9.72,31.46,23.62,37.83v23.37c-13.9,6.38-23.62,20.91-23.62,37.84s9.72,31.47,23.62,37.83v23.38c-13.9,6.37-23.62,20.91-23.62,37.83s9.72,31.47,23.62,37.83v22.66c-4.27,2.96-7.08,8.03-7.08,13.79v4.96c-1.42,1.61-2.4,3.44-3.09,5.2-.09.23-.18.46-.26.69-1.32,3.75-1.32,7.03-1.32,7.03v29.65s0,0,0,0v-29.65s0-3.28,1.32-7.03c.08-.23.17-.46.26-.69.68-1.64,1.62-3.31,2.95-4.8,2.47-2.81,6.27-4.96,12.09-4.96h100.59s16.77,0,16.77,17.89v4.79l9.35-48.8c1.8-9.4,6.55-15.51,15.54-13.62l52.88,10.24c8.99,1.89,14.82,11.04,13.01,20.45l-9.98,52.07,18.78-49.6c3.09-8.16,12.1-12.07,20.15-8.74l87.38,36.18c2.58,1.07,4.77,2.76,6.41,4.85v-12.29c0-7.4,5.64-13.42,12.57-13.42h92.22c2.83,0,5.45,1.01,7.55,2.7v-3.1c0-5.76-2.81-10.83-7.09-13.79v-22.66c13.91-6.36,23.63-20.91,23.63-37.83s-9.72-31.46-23.63-37.83v-23.38c13.91-6.36,23.63-20.91,23.63-37.83s-9.72-31.46-23.63-37.84v-23.37c13.91-6.37,23.63-20.91,23.63-37.83ZM25.85,230.86c0-18.65,14.43-33.77,32.21-33.77s32.23,15.12,32.23,33.77-14.43,33.77-32.23,33.77-32.21-15.12-32.21-33.77ZM59.17,364.07c-17.4,0-31.5-14.78-31.5-33.02s14.1-33.01,31.5-33.01,31.5,14.78,31.5,33.01-14.1,33.02-31.5,33.02ZM59.17,165.99c-17.4,0-31.5-14.79-31.5-33.02s14.1-33.02,31.5-33.02,31.5,14.79,31.5,33.02-14.1,33.02-31.5,33.02ZM367.7,299.69c-7.17,12.45-28.11,16.38-54.49,11.39-2.87-.55-5.72-1.18-8.56-1.88-.64,2.23-1.31,4.4-2.02,6.48-9.01,26.41-23.89,43.8-38.73,43.8-14.36.01-28.22-16.17-37.07-41.51-.96-2.76-1.84-5.54-2.65-8.35-2.19.55-4.4,1.05-6.62,1.49-27.37,5.38-49.87,1.18-57.29-11.67-7.18-12.44-.08-32.53,17.45-52.86,1.96-2.27,4.06-4.56,6.28-6.84-1.88-1.95-3.72-3.95-5.5-5.99-17.97-20.61-25.49-41.04-18.3-53.53,7.51-13.03,30.32-16.86,58.65-11.05,1.76.37,3.51.76,5.26,1.19.75-2.59,1.56-5.17,2.43-7.72,8.89-25.86,22.83-42.58,37.24-42.59,15.04-.01,29.75,17.85,38.86,45.29.57,1.71,1.1,3.42,1.6,5.15,2.61-.65,5.24-1.23,7.89-1.75,26.84-5.22,48.29-1.5,55.5,10.99,7.51,13.02-.6,34.68-19.82,56.28-1.02,1.14-2.08,2.29-3.16,3.43,1.55,1.61,3.04,3.22,4.44,4.83,18.38,20.99,26.01,42.56,18.61,55.42ZM489.85,306.62c6.34,6.03,10.32,14.75,10.32,24.43s-3.98,18.4-10.32,24.44c-5.6,5.34-13.02,8.58-21.18,8.58-17.4,0-31.5-14.78-31.5-33.02s14.1-33.01,31.5-33.01c8.16,0,15.58,3.25,21.18,8.58ZM500.17,232.01c0,18.24-14.1,33.02-31.5,33.02-4.35,0-8.49-.92-12.26-2.59-11.31-5.02-19.24-16.75-19.24-30.43s7.93-25.41,19.24-30.42c3.77-1.67,7.91-2.6,12.26-2.6,17.4,0,31.5,14.79,31.5,33.02ZM468.67,165.99c-17.4,0-31.5-14.79-31.5-33.02s14.1-33.02,31.5-33.02,31.5,14.79,31.5,33.02-14.1,33.02-31.5,33.02Z" fill="none"></path><path d="M337.37,246.64c-8.04,7.42-16.59,14.28-25.58,20.54-.82,10.79-2.37,21.52-4.64,32.1,2.72.68,5.38,1.26,7.96,1.74,22.56,4.27,39.37,1.12,43.72-6.43,2.12-5.45,1.89-11.53-.64-16.8-1.95-4.94-4.35-9.68-7.17-14.16-2.81-4.49-6.03-8.71-9.63-12.63-1.27-1.45-2.61-2.9-4.02-4.36Z" fill="none"></path><path fill="none" d="M451.74 310.61L462.71 330.99 451.45 351.68 462.35 351.68 468.95 337.78 475.54 351.68 486.42 351.68 475.2 330.99 486.12 310.61 475.35 310.61 468.95 324.27 462.54 310.61 451.74 310.61z"></path><path d="M480.96,119.83c-1.35-1.59-3.03-2.82-5.04-3.7-1.99-.9-4.3-1.36-6.92-1.36s-4.9.46-6.88,1.36c-2,.88-3.67,2.11-5.02,3.7-1.36,1.59-2.38,3.47-3.08,5.65-.7,2.15-1.04,4.5-1.04,7.05v.69c0,2.53.34,4.88,1.04,7.05.7,2.15,1.72,4.03,3.08,5.65,1.35,1.59,3.03,2.82,5.04,3.7,2.01.89,4.32,1.33,6.92,1.33s4.9-.44,6.9-1.33c1.98-.88,3.65-2.11,5-3.7,1.36-1.62,2.39-3.5,3.08-5.65.7-2.17,1.05-4.52,1.05-7.05v-.69c0-2.55-.35-4.9-1.05-7.05-.69-2.18-1.72-4.06-3.08-5.65ZM474.73,133.22c0,1.31-.09,2.53-.28,3.67-.18,1.14-.5,2.14-.92,3-.44.84-1.02,1.49-1.76,1.96-.72.48-1.62.72-2.71.72s-2.03-.24-2.77-.72c-.74-.47-1.32-1.12-1.74-1.96-.44-.86-.74-1.86-.93-3-.18-1.14-.27-2.36-.27-3.67v-.69c0-1.26.09-2.45.27-3.57.19-1.14.49-2.14.93-3,.42-.89.99-1.57,1.71-2.06.74-.49,1.66-.74,2.74-.74s2.03.25,2.77.74c.74.49,1.32,1.17,1.76,2.06.42.86.74,1.86.92,3,.19,1.12.28,2.31.28,3.57v.69Z" fill="none"></path><path d="M234.02,306.83c.75,2.61,1.57,5.2,2.46,7.76,7.57,21.68,18.7,34.67,27.42,34.66,2.88-.44,5.62-1.47,8.04-2.99,2.42-1.52,4.54-3.54,6.19-5.95,6.61-8.32,11.63-17.79,14.82-27.93.66-1.96,1.28-3.93,1.85-5.92-10.41-3.23-20.6-7.15-30.5-11.71-9.81,4.71-19.92,8.74-30.28,12.08Z" fill="none"></path><path d="M465.09,214.2l-.3-2.81h-8.44v42.26h9.07v-14.21c.6.73,1.3,1.33,2.07,1.82,1.26.82,2.76,1.22,4.49,1.22,1.85,0,3.47-.39,4.87-1.16,1.43-.78,2.6-1.88,3.55-3.29.96-1.41,1.67-3.07,2.17-4.98.48-1.89.71-3.95.71-6.17v-.59c0-2.32-.23-4.43-.71-6.32-.5-1.9-1.22-3.53-2.19-4.88-.95-1.38-2.14-2.43-3.55-3.16-1.4-.74-3.02-1.1-4.87-1.1-1.75,0-3.24.39-4.5,1.18-.89.57-1.68,1.3-2.37,2.19ZM471.83,218.75c.57.4,1.03.96,1.36,1.7.36.73.63,1.59.79,2.59.15.99.24,2.06.24,3.25v.59c0,1.14-.08,2.22-.22,3.22-.14.99-.38,1.88-.72,2.65-.35.75-.8,1.35-1.38,1.77-.57.42-1.28.63-2.15.63-1.3,0-2.31-.3-3.07-.91-.53-.42-.96-.97-1.26-1.63v-12.04c.08-.18.17-.35.27-.52.39-.64.91-1.11,1.55-1.41.67-.31,1.48-.47,2.46-.47.84,0,1.54.19,2.13.58Z" fill="none"></path><path d="M337.31,232.31c.99-1.04,1.94-2.07,2.86-3.1,16.59-18.65,23.23-36.35,18.6-44.37-4.35-7.52-21.69-10.53-44.69-6.06-2.38.47-4.81,1-7.29,1.61,2.33,10.45,3.95,21.05,4.86,31.71,9,6.15,17.58,12.9,25.66,20.21Z" fill="none"></path><path d="M330.02,239.51c-5.58-5.04-11.42-9.79-17.49-14.22.21,4.81.32,9.63.33,14.45,0,4.75-.09,9.49-.28,14.23,6.06-4.51,11.88-9.34,17.44-14.46Z" fill="none"></path><path d="M283.3,206.34c-6.28-3.62-12.68-7.01-19.2-10.18-6.43,3.09-12.91,6.5-19.33,10.21-6.39,3.69-12.57,7.58-18.47,11.61-.54,7.26-.82,14.52-.81,21.8,0,7.29.28,14.56.83,21.81,6.02,4.11,12.18,7.97,18.49,11.6,6.35,3.66,12.82,7.07,19.42,10.23,6.27-3.1,12.66-6.52,19.11-10.25,6.48-3.74,12.71-7.64,18.61-11.63.46-7.26.69-14.52.68-21.79,0-7.32-.26-14.63-.78-21.93-6.06-4.03-12.24-7.85-18.55-11.48ZM274.64,258.1c-10.22,5.9-23.3,2.4-29.2-7.83-5.91-10.22-2.4-23.3,7.82-29.2,3.37-1.94,7.05-2.87,10.67-2.87,7.39,0,14.58,3.84,18.54,10.69,5.9,10.23,2.4,23.31-7.83,29.21Z" fill="none"></path><path d="M276.19,288.8c7.2,3.03,14.28,5.62,21.09,7.73,1.56-7.27,2.73-14.62,3.53-22.01-4.01,2.57-8.13,5.07-12.35,7.51-4.12,2.37-8.21,4.63-12.27,6.77Z" fill="none"></path><path d="M468.82,65.55c0-32.23-52.86-60.47-82.69-52.66L57.2,65.59c-25.11,1.18-45.13,22.87-45.13,49.48v297.13c0,16.53,7.72,31.16,19.6,40.14v24.53c0,17.88,16.77,17.88,16.77,17.88h33.53c0,5.96-.7,10.43-2.1,13.41h-6.28c-2.32,0-4.2,2-4.2,4.47h58.69c0-2.47-1.89-4.47-4.2-4.47h-6.28c-1.4-2.98-2.1-7.45-2.1-13.41h33.53c3.32,0,5.99-.7,8.13-1.82,2.24,4.48,6.33,7.89,11.44,8.96l48.85,10.25c9.01,1.88,17.75-4.23,19.55-13.64l5.76-30.06c1.4,4.45,4.68,8.28,9.25,10.17l87.37,36.18c8.05,3.34,17.07-.58,20.16-8.74l19.79-52.3v41h117.36v-42.59c11.74-9,19.38-23.54,19.38-39.96V115.07c0-27.35-21.15-49.52-47.25-49.52ZM370.23,54.56c9.95-2.6,51.18-6.61,51.18,4.13v7.26h-234.3l183.12-11.39ZM157.41,471.83l-1.83,9.61c-.13.62-.21,1.24-.26,1.86-.36.48-.77.89-1.23,1.22-.83.59-2.32,1.28-5.05,1.28H48.52s-.1,0-.19-.01c-.24-.01-.63-.05-1.12-.14-1.02-.18-2.25-.53-3.4-1.13-1.1-.59-1.94-1.33-2.54-2.28-.55-.88-1.21-2.46-1.21-5.37v-53.57s.01-.1.01-.22c.03-.24.06-.66.15-1.18.17-1.1.49-2.41,1.05-3.62.55-1.18,1.24-2.08,2.13-2.71.83-.59,2.32-1.29,5.05-1.29h100.52s.1,0,.19.01c.23.02.63.06,1.12.15,1.02.18,2.25.52,3.39,1.13,1.1.59,1.95,1.33,2.53,2.27.56.89,1.21,2.48,1.21,5.38v48.61ZM228.87,496.8c-.9,4.71-5.28,7.75-9.78,6.81l-48.86-10.23c-3.58-.76-6.16-3.81-6.59-7.41,2.17-4.52,2.17-9.1,2.17-9.1v-4.62l17.49-91.32c.9-4.71,5.28-7.76,9.78-6.82l48.85,10.24c4.5.95,7.41,5.53,6.51,10.23l-19.58,102.22ZM374.61,443.97l-22.35,59.07c-1.54,4.08-6.05,6.04-10.08,4.37l-87.37-36.18c-4.02-1.67-6.03-6.33-4.49-10.4l22.35-59.07c1.54-4.08,6.06-6.04,10.08-4.37l87.37,36.19c4.03,1.66,6.03,6.32,4.49,10.39ZM488.31,485.8h-100.6v-67.05c0-2.48,1.87-4.47,4.19-4.47h92.22c2.32,0,4.2,1.99,4.2,4.47v67.05ZM508.2,231.61c0,16.92-9.72,31.47-23.63,37.83v23.38c13.91,6.37,23.63,20.91,23.63,37.83s-9.72,31.47-23.63,37.83v22.66c4.28,2.96,7.09,8.03,7.09,13.79v3.1c-2.1-1.7-4.71-2.7-7.55-2.7h-92.22c-6.93,0-12.57,6.02-12.57,13.42v12.29c-1.64-2.09-3.83-3.78-6.41-4.85l-87.38-36.18c-8.05-3.33-17.06.58-20.15,8.74l-18.78,49.6,9.98-52.07c1.8-9.41-4.03-18.56-13.01-20.45l-52.88-10.24c-8.99-1.89-13.74,4.22-15.54,13.62l-9.35,48.8v-4.79c0-17.89-16.77-17.89-16.77-17.89H48.45c-5.82,0-9.62,2.15-12.09,4.96-1.32,1.49-2.26,3.16-2.95,4.8-.09.23-.18.46-.26.69-1.32,3.75-1.32,7.03-1.32,7.03v29.65s0,0,0,0v-29.65s0-3.28,1.32-7.03c.08-.23.17-.46.26-.69.69-1.76,1.67-3.59,3.09-5.2v-4.96c0-5.76,2.81-10.83,7.08-13.79v-22.66c-13.9-6.36-23.62-20.91-23.62-37.83s9.72-31.46,23.62-37.83v-23.38c-13.9-6.36-23.62-20.91-23.62-37.83s9.72-31.46,23.62-37.84v-23.37c-13.9-6.37-23.62-20.91-23.62-37.83,0-22.8,17.63-41.28,39.38-41.28,8.27,0,15.97,2.69,22.31,7.27h364.87c6.34-4.58,14.03-7.27,22.31-7.27,21.75,0,39.38,18.48,39.38,41.28,0,16.92-9.72,31.46-23.63,37.83v23.37c13.91,6.38,23.63,20.91,23.63,37.84Z" fill="#ffffff"></path><path fill="#ffffff" d="M492.09 36.81L491.86 32.05 494.26 39.14 495.84 39.14 498.23 32.06 498 36.81 498 39.14 500.38 39.14 500.38 29.18 497.25 29.18 495.05 36.11 492.84 29.18 489.71 29.18 489.71 39.14 492.09 39.14 492.09 36.81z"></path><path d="M500.17,132.97c0-18.23-14.1-33.02-31.5-33.02s-31.5,14.79-31.5,33.02,14.1,33.02,31.5,33.02,31.5-14.79,31.5-33.02ZM485.09,133.22c0,2.53-.35,4.88-1.05,7.05-.69,2.15-1.72,4.03-3.08,5.65-1.35,1.59-3.02,2.82-5,3.7-2,.89-4.29,1.33-6.9,1.33s-4.91-.44-6.92-1.33c-2.01-.88-3.69-2.11-5.04-3.7-1.36-1.62-2.38-3.5-3.08-5.65-.7-2.17-1.04-4.52-1.04-7.05v-.69c0-2.55.34-4.9,1.04-7.05.7-2.18,1.72-4.06,3.08-5.65,1.35-1.59,3.02-2.82,5.02-3.7,1.98-.9,4.27-1.36,6.88-1.36s4.93.46,6.92,1.36c2.01.88,3.69,2.11,5.04,3.7,1.36,1.59,2.39,3.47,3.08,5.65.7,2.15,1.05,4.5,1.05,7.05v.69Z" fill="#ffffff"></path><path d="M437.17,331.05c0,18.24,14.1,33.02,31.5,33.02,8.16,0,15.58-3.24,21.18-8.58,6.34-6.04,10.32-14.75,10.32-24.44s-3.98-18.4-10.32-24.43c-5.6-5.33-13.02-8.58-21.18-8.58-17.4,0-31.5,14.78-31.5,33.01ZM475.35,310.61h10.77l-10.92,20.38,11.22,20.69h-10.88l-6.59-13.9-6.6,13.9h-10.9l11.26-20.69-10.97-20.38h10.8l6.41,13.66,6.4-13.66Z" fill="#ffffff"></path><path fill="#ffffff" d="M483.33 39.14L485.71 39.14 485.71 31.04 488.68 31.04 488.68 29.18 480.42 29.18 480.42 31.04 483.33 31.04 483.33 39.14z"></path><path d="M473.53,125.96c-.44-.89-1.02-1.57-1.76-2.06-.74-.49-1.66-.74-2.77-.74s-2,.25-2.74.74c-.72.49-1.29,1.17-1.71,2.06-.44.86-.74,1.86-.93,3-.18,1.12-.27,2.31-.27,3.57v.69c0,1.31.09,2.53.27,3.67.19,1.14.49,2.14.93,3,.42.84,1,1.49,1.74,1.96.74.48,1.67.72,2.77.72s1.99-.24,2.71-.72c.74-.47,1.32-1.12,1.76-1.96.42-.86.74-1.86.92-3,.19-1.14.28-2.36.28-3.67v-.69c0-1.26-.09-2.45-.28-3.57-.18-1.14-.5-2.14-.92-3Z" fill="#ffffff"></path><path d="M465.69,220.05c-.1.17-.19.34-.27.52v12.04c.3.66.73,1.21,1.26,1.63.76.61,1.77.91,3.07.91.87,0,1.58-.21,2.15-.63.58-.42,1.03-1.02,1.38-1.77.34-.77.58-1.66.72-2.65.14-1,.22-2.08.22-3.22v-.59c0-1.19-.09-2.26-.24-3.25-.16-1-.43-1.86-.79-2.59-.33-.74-.79-1.3-1.36-1.7-.59-.39-1.29-.58-2.13-.58-.98,0-1.79.16-2.46.47-.64.3-1.16.77-1.55,1.41Z" fill="#ffffff"></path><path d="M456.41,201.59c-11.31,5.01-19.24,16.75-19.24,30.42s7.93,25.41,19.24,30.43c3.77,1.67,7.91,2.59,12.26,2.59,17.4,0,31.5-14.78,31.5-33.02s-14.1-33.02-31.5-33.02c-4.35,0-8.49.93-12.26,2.6ZM476.83,211.93c1.41.73,2.6,1.78,3.55,3.16.97,1.35,1.69,2.98,2.19,4.88.48,1.89.71,4,.71,6.32v.59c0,2.22-.23,4.28-.71,6.17-.5,1.91-1.21,3.57-2.17,4.98-.95,1.41-2.12,2.51-3.55,3.29-1.4.77-3.02,1.16-4.87,1.16-1.73,0-3.23-.4-4.49-1.22-.77-.49-1.47-1.09-2.07-1.82v14.21h-9.07v-42.26h8.44l.3,2.81c.69-.89,1.48-1.62,2.37-2.19,1.26-.79,2.75-1.18,4.5-1.18,1.85,0,3.47.36,4.87,1.1Z" fill="#ffffff"></path><path d="M383.52,512.63h108.99c6.94,0,12.57-6.01,12.57-13.41h-134.13c0,7.4,5.62,13.41,12.56,13.41Z" fill="#ffffff"></path><path d="M351.65,460.09c-4.01-1.66-8.53.29-10.06,4.37-1.55,4.07.46,8.73,4.48,10.4,4.03,1.67,8.54-.29,10.07-4.37,1.55-4.07-.45-8.73-4.49-10.4Z" fill="#ffffff"></path><path d="M199.56,472.94c-4.5-.95-8.88,2.1-9.79,6.8-.89,4.71,2.02,9.29,6.52,10.23,4.5.94,8.88-2.11,9.78-6.81.89-4.7-2.02-9.28-6.51-10.22Z" fill="#ffffff"></path><path d="M90.29,230.86c0-18.65-14.43-33.77-32.23-33.77s-32.21,15.12-32.21,33.77,14.43,33.77,32.21,33.77,32.23-15.12,32.23-33.77ZM69.05,219.48c-.51-.53-.64-1.31-.38-1.97.08-.22.21-.43.38-.6.68-.7,1.78-.7,2.47,0l12.21,12.67c.35.36.52.82.52,1.28s-.17.92-.52,1.28l-12.21,12.66c-.69.71-1.79.71-2.47,0-.68-.7-.68-1.86,0-2.56l10.98-11.38-10.98-11.38ZM47.09,242.24c.43.44.58,1.05.48,1.62-.07.35-.23.68-.48.94-.69.71-1.79.71-2.47,0l-12.22-12.66c-.34-.36-.51-.82-.51-1.28s.17-.92.51-1.28l12.22-12.67c.68-.7,1.78-.7,2.47,0,.68.71.68,1.86,0,2.57l-10.99,11.38,10.99,11.38ZM50.57,256.1c-.92-.29-1.43-1.31-1.15-2.26l2.57-8.67,11.39-38.36c.28-.95,1.26-1.49,2.18-1.2.93.29,1.44,1.31,1.16,2.27l-2.47,8.32-11.49,38.7c-.28.96-1.26,1.49-2.19,1.2Z" fill="#ffffff"></path><path d="M59.17,99.95c-17.4,0-31.5,14.79-31.5,33.02s14.1,33.02,31.5,33.02,31.5-14.79,31.5-33.02-14.1-33.02-31.5-33.02ZM59.16,151.54c-2.22,0-4.32-.43-6.27-1.2l-6.53,8.21c-4.95-2.72-9.02-6.99-11.61-12.17l7.82-6.84c-.72-2.04-1.13-4.26-1.13-6.57,0-10.26,7.93-18.57,17.72-18.57,5.19,0,9.86,2.34,13.09,6.06l-15.06,6.32,3.93,10.31,5.25,12.85c-2.2,1.03-4.64,1.6-7.21,1.6ZM70.17,147.52l-5.11-12.49,11.65-4.58c.11.83.17,1.67.17,2.52,0,5.89-2.62,11.14-6.71,14.55Z" fill="#ffffff"></path><path d="M59.17,298.04c-17.4,0-31.5,14.78-31.5,33.01s14.1,33.02,31.5,33.02,31.5-14.78,31.5-33.02-14.1-33.01-31.5-33.01ZM75.91,344.31c0,4.63-4.24,7.37-8.12,7.37h-16.24c-3.9,0-8.14-2.74-8.14-7.37v-13.61c0-3.57,2.5-6.01,5.43-6.95v-6.1c0-6.27,4.84-11.36,10.83-11.36s10.81,5.09,10.81,11.36v6.1c2.93.94,5.43,3.38,5.43,6.95v13.61Z" fill="#ffffff"></path><path d="M59.67,311.97c-2.99,0-5.43,2.54-5.43,5.68v5.66h10.84v-5.66c0-3.14-2.42-5.68-5.41-5.68Z" fill="#ffffff"></path><path d="M53.7,141.36l2.34-3.69c.23-.37.22-.85-.04-1.19-.25-.36-.69-.5-1.09-.36l-3.19,1.11,2.35-3.69c.23-.37.22-.85-.04-1.2-.26-.34-.69-.49-1.1-.34l-5.9,2.06.63,1.96,3.18-1.12-2.34,3.69c-.24.36-.22.84.03,1.2.26.35.7.49,1.09.35l3.19-1.11-2.35,3.68c-.24.37-.21.86.04,1.2.25.35.7.5,1.09.36l5.91-2.07-.62-1.95-3.18,1.11Z" fill="#ffffff"></path><path d="M344.65,239.44c1.08-1.14,2.14-2.29,3.16-3.43,19.22-21.6,27.33-43.26,19.82-56.28-7.21-12.49-28.66-16.21-55.5-10.99-2.65.52-5.28,1.1-7.89,1.75-.5-1.73-1.03-3.44-1.6-5.15-9.11-27.44-23.82-45.3-38.86-45.29-14.41.01-28.35,16.73-37.24,42.59-.87,2.55-1.68,5.13-2.43,7.72-1.75-.43-3.5-.82-5.26-1.19-28.33-5.81-51.14-1.98-58.65,11.05-7.19,12.49.33,32.92,18.3,53.53,1.78,2.04,3.62,4.04,5.5,5.99-2.22,2.28-4.32,4.57-6.28,6.84-17.53,20.33-24.63,40.42-17.45,52.86,7.42,12.85,29.92,17.05,57.29,11.67,2.22-.44,4.43-.94,6.62-1.49.81,2.81,1.69,5.59,2.65,8.35,8.85,25.34,22.71,41.52,37.07,41.51,14.84,0,29.72-17.39,38.73-43.8.71-2.08,1.38-4.25,2.02-6.48,2.84.7,5.69,1.33,8.56,1.88,26.38,4.99,47.32,1.06,54.49-11.39,7.4-12.86-.23-34.43-18.61-55.42-1.4-1.61-2.89-3.22-4.44-4.83ZM167.71,191.2c0-2.31.45-4.3,1.36-5.88,4.62-8.02,23.26-11.15,47.72-6.13,1.56.32,3.15.68,4.77,1.08-2.39,10.56-4.08,21.27-5.05,32.05-8.82,6.21-17.23,12.98-25.18,20.28-1.75-1.81-3.46-3.67-5.12-5.57-12.15-13.94-18.5-27.18-18.5-35.83ZM215.6,253.89c-6.12-4.62-11.8-9.37-16.95-14.13,5.15-4.74,10.83-9.47,16.93-14.08-.21,4.7-.32,9.4-.32,14.11s.11,9.41.34,14.1ZM215.59,301.07c-10.38,2.31-21.09,2.68-31.6,1.11-5.83-.45-11.2-3.29-14.86-7.85-4.36-7.55,1.34-23.68,16.33-41.07,1.89-2.18,3.84-4.3,5.85-6.36,7.95,7.33,16.37,14.13,25.22,20.35.99,10.92,2.69,21.77,5.1,32.47-2,.5-4.01.95-6.04,1.35ZM300.6,204.83c-4.01-2.53-8.08-4.98-12.19-7.35-4.05-2.33-8.15-4.57-12.3-6.73,7.1-2.98,14.08-5.53,20.82-7.61,1.59,7.16,2.81,14.4,3.67,21.69ZM236.21,165.97c7.62-22.16,18.89-35.68,27.58-35.69,9.26,0,21.28,14.59,29.14,38.28.51,1.55,1,3.1,1.45,4.66-10.33,3.21-20.44,7.09-30.25,11.63-9.78-4.59-19.85-8.52-30.16-11.76.69-2.39,1.44-4.77,2.24-7.12ZM231.42,183.01c7.03,2.21,13.94,4.78,20.71,7.69-8.39,4.33-16.56,9.04-24.51,14.14.96-7.64,2.24-14.95,3.8-21.83ZM227.63,274.72c3.97,2.54,8,4.99,12.08,7.34,4.16,2.39,8.38,4.69,12.66,6.89-6.82,3.01-13.8,5.66-20.89,7.96-1.58-6.97-2.87-14.42-3.85-22.19ZM292.95,312.38c-3.19,10.14-8.21,19.61-14.82,27.93-1.65,2.41-3.77,4.43-6.19,5.95-2.42,1.52-5.16,2.55-8.04,2.99-8.72.01-19.85-12.98-27.42-34.66-.89-2.56-1.71-5.15-2.46-7.76,10.36-3.34,20.47-7.37,30.28-12.08,9.9,4.56,20.09,8.48,30.5,11.71-.57,1.99-1.19,3.96-1.85,5.92ZM297.28,296.53c-6.81-2.11-13.89-4.7-21.09-7.73,4.06-2.14,8.15-4.4,12.27-6.77,4.22-2.44,8.34-4.94,12.35-7.51-.8,7.39-1.97,14.74-3.53,22.01ZM301.95,261.54c-5.9,3.99-12.13,7.89-18.61,11.63-6.45,3.73-12.84,7.15-19.11,10.25-6.6-3.16-13.07-6.57-19.42-10.23-6.31-3.63-12.47-7.49-18.49-11.6-.55-7.25-.83-14.52-.83-21.81-.01-7.28.27-14.54.81-21.8,5.9-4.03,12.08-7.92,18.47-11.61,6.42-3.71,12.9-7.12,19.33-10.21,6.52,3.17,12.92,6.56,19.2,10.18,6.31,3.63,12.49,7.45,18.55,11.48.52,7.3.78,14.61.78,21.93.01,7.27-.22,14.53-.68,21.79ZM314.08,178.78c23-4.47,40.34-1.46,44.69,6.06,4.63,8.02-2.01,25.72-18.6,44.37-.92,1.03-1.87,2.06-2.86,3.1-8.08-7.31-16.66-14.06-25.66-20.21-.91-10.66-2.53-21.26-4.86-31.71,2.48-.61,4.91-1.14,7.29-1.61ZM312.53,225.29c6.07,4.43,11.91,9.18,17.49,14.22-5.56,5.12-11.38,9.95-17.44,14.46.19-4.74.28-9.48.28-14.23-.01-4.82-.12-9.64-.33-14.45ZM358.19,277.79c2.53,5.27,2.76,11.35.64,16.8-4.35,7.55-21.16,10.7-43.72,6.43-2.58-.48-5.24-1.06-7.96-1.74,2.27-10.58,3.82-21.31,4.64-32.1,8.99-6.26,17.54-13.12,25.58-20.54,1.41,1.46,2.75,2.91,4.02,4.36,3.6,3.92,6.82,8.14,9.63,12.63,2.82,4.48,5.22,9.22,7.17,14.16Z" fill="#ffffff"></path><path d="M263.93,218.2c-3.62,0-7.3.93-10.67,2.87-10.22,5.9-13.73,18.98-7.82,29.2,5.9,10.23,18.98,13.73,29.2,7.83,10.23-5.9,13.73-18.98,7.83-29.21-3.96-6.85-11.15-10.69-18.54-10.69Z" fill="#ffffff"></path></g></g></g></svg>