<svg width="320" height="320" viewBox="0 0 320 320" fill="none" xmlns="http://www.w3.org/2000/svg">
<path fill-rule="evenodd" clip-rule="evenodd" d="M290 40.695C290 21.1779 256.434 4.06225 237.5 8.79585L28.6495 40.7249C12.7077 41.4311 0 54.579 0 70.695V250.695C0 262.014 6.26828 271.868 15.5228 276.977C15.5077 276.752 15.5 276.525 15.5 276.296V246.296C15.5 242.805 17.2889 239.732 20 237.943V224.216C11.1705 220.358 5 211.547 5 201.296C5 191.044 11.1705 182.234 20 178.376V164.216C11.1705 160.358 5 151.547 5 141.296C5 131.044 11.1705 122.234 20 118.376V104.216C11.1705 100.358 5 91.5474 5 81.2958C5 67.4887 16.1929 56.2958 30 56.2958C35.2601 56.2958 40.1408 57.9203 44.1678 60.695H275.832C279.859 57.9203 284.74 56.2958 290 56.2958C303.807 56.2958 315 67.4887 315 81.2958C315 91.5474 308.83 100.358 300 104.216V118.376C308.83 122.234 315 131.044 315 141.296C315 151.547 308.83 160.358 300 164.216V178.376C308.83 182.234 315 191.044 315 201.296C315 211.547 308.83 220.358 300 224.216V237.943C302.711 239.732 304.5 242.805 304.5 246.296V276.296C304.5 276.525 304.492 276.752 304.477 276.977C305.552 276.384 306.587 275.726 307.576 275.01C307.651 274.956 307.726 274.901 307.801 274.845C315.201 269.382 320 260.599 320 250.695V70.695C320 54.1265 306.569 40.695 290 40.695ZM260 40.695H111.231L227.5 33.7958C233.811 32.2179 260 29.7901 260 36.2958V40.695Z" fill="white"/>
<path d="M143.246 233.583C146.096 234.154 147.944 236.927 147.373 239.777L134.965 301.705C134.394 304.555 131.62 306.402 128.77 305.831L97.8066 299.627C94.9564 299.056 93.1089 296.283 93.68 293.432L106.088 231.505C106.659 228.655 109.433 226.808 112.283 227.379L143.246 233.583ZM113.317 222.218C107.616 221.076 102.07 224.771 100.927 230.471L88.5194 292.398C87.3772 298.099 91.0723 303.646 96.7725 304.788L127.736 310.992C133.436 312.134 138.983 308.439 140.125 302.739L152.533 240.811C153.675 235.111 149.98 229.564 144.28 228.422L113.317 222.218Z" fill="white"/>
<path d="M114.322 297.569C117.172 298.14 119.946 296.292 120.517 293.442C121.088 290.592 119.24 287.818 116.39 287.247C113.54 286.676 110.767 288.524 110.196 291.374C109.625 294.224 111.472 296.997 114.322 297.569Z" fill="white"/>
<path d="M162.723 244.129C163.701 241.659 166.559 240.474 169.108 241.483L224.477 263.402C227.025 264.41 228.299 267.231 227.321 269.701L213.155 305.484C212.178 307.955 209.319 309.14 206.771 308.131L151.401 286.212C148.853 285.204 147.58 282.383 148.558 279.913L162.723 244.129ZM143.944 278.086C141.988 283.027 144.534 288.668 149.631 290.685L205 312.604C210.097 314.621 215.814 312.252 217.77 307.311L231.935 271.527C233.891 266.587 231.344 260.946 226.248 258.929L170.878 237.01C165.782 234.993 160.065 237.362 158.109 242.303L143.944 278.086Z" fill="white"/>
<path d="M215.624 285.766C216.602 283.296 215.329 280.475 212.78 279.467C210.232 278.458 207.374 279.643 206.396 282.113C205.418 284.583 206.691 287.404 209.239 288.413C211.787 289.421 214.646 288.236 215.624 285.766Z" fill="white"/>
<path fill-rule="evenodd" clip-rule="evenodd" d="M20.625 246.296C10 246.296 10 257.129 10 257.129V289.629C10 300.463 20.625 300.463 20.625 300.463H41.875C41.875 304.074 41.4323 306.782 40.5469 308.588H36.5625C35.0955 308.588 33.9062 309.8 33.9062 311.296H71.0938C71.0938 309.8 69.9045 308.588 68.4375 308.588H64.4531C63.5677 306.782 63.125 304.074 63.125 300.463H84.375C95 300.463 95 289.629 95 289.629V257.129C95 246.296 84.375 246.296 84.375 246.296H20.625ZM17.4293 252.496C17.9566 252.137 18.8984 251.713 20.625 251.713H84.3271C84.3482 251.713 84.3911 251.715 84.453 251.72C84.6023 251.731 84.8503 251.755 85.1618 251.808C85.81 251.918 86.593 252.128 87.3117 252.495C88.0096 252.851 88.5459 253.299 88.9196 253.871C89.2711 254.408 89.6875 255.369 89.6875 257.129V289.58C89.6867 289.602 89.6847 289.646 89.6803 289.709C89.6696 289.861 89.6457 290.114 89.5938 290.431C89.4857 291.092 89.2796 291.891 88.9202 292.623C88.5713 293.335 88.1313 293.882 87.5707 294.263C87.0434 294.621 86.1016 295.046 84.375 295.046H20.6729C20.6518 295.045 20.6089 295.043 20.547 295.039C20.3977 295.028 20.1497 295.003 19.8382 294.95C19.19 294.84 18.407 294.63 17.6883 294.264C16.9904 293.908 16.4541 293.459 16.0804 292.888C15.7289 292.35 15.3125 291.39 15.3125 289.629V257.178C15.3133 257.157 15.3153 257.113 15.3198 257.05C15.3304 256.897 15.3543 256.645 15.4062 256.327C15.5143 255.666 15.7204 254.868 16.0798 254.135C16.4287 253.423 16.8687 252.877 17.4293 252.496Z" fill="white"/>
<path d="M296.719 251.713C298.186 251.713 299.375 252.925 299.375 254.421V295.046H235.625V254.421C235.625 252.925 236.814 251.713 238.281 251.713H296.719ZM238.281 246.296C233.88 246.296 230.312 249.934 230.312 254.421V300.463H304.688V254.421C304.688 249.934 301.12 246.296 296.719 246.296H238.281Z" fill="white"/>
<path d="M225 303.171H310C310 307.658 306.432 311.296 302.031 311.296H232.969C228.568 311.296 225 307.658 225 303.171Z" fill="white"/>
<path d="M26.7614 81.6426C26.9095 81.4204 26.9001 81.1287 26.738 80.9165C26.576 80.7043 26.297 80.6185 26.0437 80.703L22.2937 81.953L22.689 83.1388L24.7109 82.4649L23.2213 84.6992C23.0732 84.9214 23.0826 85.2131 23.2447 85.4253C23.4067 85.6375 23.6857 85.7233 23.939 85.6388L25.9609 84.9649L24.4713 87.1992C24.3232 87.4214 24.3326 87.7131 24.4947 87.9253C24.6567 88.1375 24.9357 88.2233 25.189 88.1388L28.939 86.8888L28.5437 85.703L26.5218 86.3769L28.0114 84.1426C28.1595 83.9204 28.1501 83.6287 27.988 83.4165C27.826 83.2043 27.547 83.1185 27.2937 83.203L25.2718 83.8769L26.7614 81.6426Z" fill="white"/>
<path d="M30 101.296C41.0457 101.296 50 92.3416 50 81.2959C50 70.2502 41.0457 61.2959 30 61.2959C18.9543 61.2959 10 70.2502 10 81.2959C10 92.3416 18.9543 101.296 30 101.296ZM14.4949 89.4179L19.4656 85.2757C18.9975 84.0385 18.7414 82.6971 18.7414 81.2959C18.7414 75.0827 23.7782 70.0459 29.9914 70.0459C33.2862 70.0459 36.2501 71.4623 38.3076 73.7194L28.7414 77.5459L31.2414 83.7959L34.5744 91.5731C33.1746 92.1983 31.6236 92.5459 29.9914 92.5459C28.5902 92.5459 27.2488 92.2897 26.0115 91.8217L21.867 96.7952C18.7241 95.1426 16.1453 92.5621 14.4949 89.4179ZM41.2414 81.2959C41.2414 84.8668 39.5777 88.0491 36.9831 90.11L33.7414 82.5459L41.139 79.7718C41.2065 80.2702 41.2414 80.779 41.2414 81.2959Z" fill="white"/>
<path fill-rule="evenodd" clip-rule="evenodd" d="M29.3007 161.051C40.5974 161.051 49.7552 151.893 49.7552 140.596C49.7552 129.3 40.5974 120.142 29.3007 120.142C18.0039 120.142 8.84613 129.3 8.84613 140.596C8.84613 151.893 18.0039 161.051 29.3007 161.051ZM34.7915 126.674C34.9714 126.095 34.6432 125.482 34.0583 125.304C33.4735 125.126 32.8535 125.451 32.6735 126.029L23.8099 154.519C23.63 155.097 23.9582 155.711 24.543 155.888C25.1279 156.066 25.7479 155.742 25.9278 155.163L34.7915 126.674ZM22.3284 132.151C22.7611 132.579 22.7611 133.273 22.3284 133.701L15.3562 140.596L22.3284 147.492C22.7611 147.92 22.7611 148.614 22.3284 149.041C21.8957 149.469 21.1942 149.469 20.7615 149.041L13.0059 141.371C12.5732 140.943 12.5732 140.249 13.0059 139.821L20.7615 132.151C21.1942 131.723 21.8957 131.723 22.3284 132.151ZM36.2729 133.701C35.8402 133.273 35.8402 132.579 36.2729 132.151C36.7056 131.723 37.4071 131.723 37.8398 132.151L45.5955 139.821C46.0282 140.249 46.0282 140.943 45.5955 141.371L37.8398 149.041C37.4071 149.469 36.7056 149.469 36.2729 149.041C35.8402 148.614 35.8402 147.92 36.2729 147.492L43.2451 140.596L36.2729 133.701Z" fill="white"/>
<path d="M26.875 193.171C26.875 191.272 28.414 189.733 30.3125 189.733C32.211 189.733 33.75 191.272 33.75 193.171V196.608H26.875V193.171Z" fill="white"/>
<path fill-rule="evenodd" clip-rule="evenodd" d="M30 221.296C41.0457 221.296 50 212.342 50 201.296C50 190.25 41.0457 181.296 30 181.296C18.9543 181.296 10 190.25 10 201.296C10 212.342 18.9543 221.296 30 221.296ZM37.1875 196.871V193.171C37.1875 189.374 34.1095 186.296 30.3125 186.296C26.5155 186.296 23.4375 189.374 23.4375 193.171V196.871C21.5839 197.442 20 198.922 20 201.077V209.327C20 212.133 22.6863 213.796 25.1562 213.796H35.4688C37.9387 213.796 40.625 212.133 40.625 209.327V201.077C40.625 198.922 39.0411 197.442 37.1875 196.871Z" fill="white"/>
<path fill-rule="evenodd" clip-rule="evenodd" d="M290 221.296C301.046 221.296 310 212.342 310 201.296C310 190.25 301.046 181.296 290 181.296C278.954 181.296 270 190.25 270 201.296C270 212.342 278.954 221.296 290 221.296ZM290.177 197.185L286.109 188.913H279.256L286.212 201.252L279.068 213.796H285.99L290.177 205.371L294.364 213.796H301.268L294.142 201.252L301.08 188.913H294.244L290.177 197.185Z" fill="white"/>
<path d="M287.934 141.657C288.13 142.059 288.398 142.389 288.737 142.647C289.216 143.012 289.865 143.194 290.686 143.194C291.232 143.194 291.688 143.069 292.053 142.818C292.417 142.556 292.708 142.197 292.924 141.742C293.141 141.275 293.295 140.739 293.386 140.135C293.477 139.531 293.522 138.882 293.522 138.187V137.828C293.522 137.11 293.471 136.455 293.369 135.863C293.266 135.259 293.101 134.735 292.873 134.291C292.657 133.846 292.366 133.504 292.001 133.265C291.637 133.026 291.187 132.906 290.651 132.906C290.036 132.906 289.518 133.003 289.096 133.197C288.686 133.379 288.356 133.664 288.105 134.051C288.044 134.148 287.987 134.251 287.934 134.36V141.657Z" fill="white"/>
<path fill-rule="evenodd" clip-rule="evenodd" d="M290 161.296C301.046 161.296 310 152.342 310 141.296C310 130.25 301.046 121.296 290 121.296C278.954 121.296 270 130.25 270 141.296C270 152.342 278.954 161.296 290 161.296ZM287.934 145.793V154.405H282.175V128.805H287.541L287.729 130.507C288.165 129.967 288.667 129.525 289.233 129.181C290.03 128.702 290.982 128.463 292.087 128.463C293.26 128.463 294.292 128.685 295.18 129.129C296.08 129.574 296.832 130.212 297.436 131.043C298.051 131.864 298.513 132.849 298.82 134C299.128 135.151 299.282 136.427 299.282 137.828V138.187C299.282 139.531 299.128 140.779 298.82 141.93C298.513 143.08 298.057 144.083 297.453 144.937C296.849 145.792 296.097 146.458 295.197 146.937C294.309 147.404 293.278 147.638 292.104 147.638C290.999 147.638 290.048 147.393 289.25 146.903C288.762 146.603 288.324 146.233 287.934 145.793Z" fill="white"/>
<path d="M286.617 81.4443V81.0342C286.617 80.2659 286.676 79.5433 286.793 78.8662C286.91 78.1761 287.105 77.5706 287.379 77.0498C287.652 76.5159 288.017 76.0993 288.473 75.7998C288.941 75.5003 289.521 75.3506 290.211 75.3506C290.914 75.3506 291.5 75.5003 291.969 75.7998C292.438 76.0993 292.809 76.5159 293.082 77.0498C293.355 77.5706 293.551 78.1761 293.668 78.8662C293.785 79.5433 293.844 80.2659 293.844 81.0342V81.4443C293.844 82.2386 293.785 82.9808 293.668 83.6709C293.551 84.361 293.355 84.9665 293.082 85.4873C292.809 85.9951 292.438 86.3923 291.969 86.6787C291.513 86.9651 290.94 87.1084 290.25 87.1084C289.547 87.1084 288.961 86.9651 288.492 86.6787C288.023 86.3923 287.652 85.9951 287.379 85.4873C287.105 84.9665 286.91 84.361 286.793 83.6709C286.676 82.9808 286.617 82.2386 286.617 81.4443Z" fill="white"/>
<path fill-rule="evenodd" clip-rule="evenodd" d="M290 101.296C301.046 101.296 310 92.3416 310 81.2959C310 70.2502 301.046 61.2959 290 61.2959C278.954 61.2959 270 70.2502 270 81.2959C270 92.3416 278.954 101.296 290 101.296ZM280.035 81.0342V81.4443C280.035 82.9808 280.257 84.4066 280.699 85.7217C281.142 87.0237 281.793 88.1631 282.652 89.1396C283.512 90.1032 284.579 90.8519 285.855 91.3857C287.132 91.9196 288.596 92.1865 290.25 92.1865C291.904 92.1865 293.362 91.9196 294.625 91.3857C295.888 90.8519 296.949 90.1032 297.809 89.1396C298.668 88.1631 299.319 87.0237 299.762 85.7217C300.204 84.4066 300.426 82.9808 300.426 81.4443V81.0342C300.426 79.4847 300.204 78.0589 299.762 76.7568C299.319 75.4417 298.668 74.3024 297.809 73.3389C296.949 72.3753 295.882 71.6266 294.605 71.0928C293.342 70.5459 291.878 70.2725 290.211 70.2725C288.557 70.2725 287.099 70.5459 285.836 71.0928C284.573 71.6266 283.512 72.3753 282.652 73.3389C281.793 74.3024 281.142 75.4417 280.699 76.7568C280.257 78.0589 280.035 79.4847 280.035 81.0342Z" fill="white"/>
<path d="M114.344 171.13V83.3271H145.106V171.13C145.106 179.685 143.143 187.097 139.218 193.366C135.35 199.636 130.077 204.499 123.397 207.956C116.776 211.354 109.335 213.054 101.073 213.054C92.5183 213.054 84.9011 211.618 78.2214 208.747C71.6003 205.876 66.3855 201.452 62.5769 195.476C58.8269 189.499 56.9519 181.882 56.9519 172.624H87.8894C87.8894 176.96 88.3875 180.358 89.3835 182.819C90.3796 185.222 91.8445 186.921 93.7781 187.917C95.7703 188.854 98.2019 189.323 101.073 189.323C103.885 189.323 106.259 188.62 108.192 187.214C110.184 185.749 111.708 183.669 112.762 180.974C113.817 178.22 114.344 174.938 114.344 171.13Z" fill="white"/>
<path d="M230.624 177.282C230.624 175.29 230.331 173.503 229.745 171.921C229.159 170.28 228.075 168.757 226.493 167.351C224.911 165.944 222.626 164.538 219.637 163.132C216.708 161.667 212.841 160.144 208.036 158.562C202.411 156.687 196.991 154.577 191.776 152.233C186.561 149.831 181.903 147.048 177.802 143.884C173.7 140.661 170.448 136.911 168.046 132.634C165.643 128.298 164.442 123.259 164.442 117.517C164.442 112.009 165.673 107.058 168.134 102.663C170.594 98.21 174.022 94.4307 178.417 91.3252C182.87 88.1611 188.085 85.7588 194.061 84.1182C200.038 82.4189 206.571 81.5693 213.661 81.5693C223.036 81.5693 231.298 83.21 238.446 86.4912C245.653 89.7139 251.278 94.3135 255.321 100.29C259.423 106.208 261.473 113.21 261.473 121.296H230.8C230.8 118.073 230.126 115.231 228.778 112.771C227.489 110.31 225.526 108.376 222.889 106.97C220.253 105.563 216.942 104.86 212.958 104.86C209.091 104.86 205.839 105.446 203.202 106.618C200.565 107.79 198.573 109.372 197.225 111.364C195.878 113.298 195.204 115.437 195.204 117.78C195.204 119.714 195.731 121.472 196.786 123.054C197.899 124.577 199.452 126.013 201.444 127.36C203.495 128.708 205.956 129.997 208.827 131.228C211.757 132.458 215.038 133.659 218.671 134.831C225.468 136.999 231.503 139.431 236.776 142.126C242.108 144.763 246.591 147.78 250.223 151.179C253.915 154.519 256.698 158.327 258.573 162.604C260.507 166.882 261.473 171.716 261.473 177.106C261.473 182.849 260.36 187.946 258.134 192.399C255.907 196.853 252.714 200.632 248.553 203.737C244.393 206.784 239.413 209.099 233.612 210.681C227.811 212.263 221.337 213.054 214.188 213.054C207.626 213.054 201.151 212.233 194.764 210.593C188.436 208.894 182.694 206.315 177.538 202.858C172.382 199.343 168.251 194.86 165.145 189.411C162.098 183.903 160.575 177.37 160.575 169.812H191.512C191.512 173.562 192.01 176.726 193.007 179.304C194.003 181.882 195.468 183.962 197.401 185.544C199.335 187.067 201.708 188.181 204.52 188.884C207.333 189.528 210.555 189.851 214.188 189.851C218.114 189.851 221.278 189.294 223.68 188.181C226.083 187.009 227.841 185.485 228.954 183.61C230.067 181.677 230.624 179.567 230.624 177.282Z" fill="white"/>
<path fill-rule="evenodd" clip-rule="evenodd" d="M307.576 275.01C307.651 274.956 307.726 274.901 307.801 274.845ZM304.5 246.296V252.661C303.711 249.02 300.527 246.296 296.719 246.296H238.281C233.88 246.296 230.312 249.934 230.312 254.421V261.86C229.265 260.603 227.889 259.578 226.248 258.929L170.878 237.01C165.782 234.993 160.065 237.362 158.109 242.303L146.214 272.351L152.533 240.811C153.675 235.111 149.98 229.564 144.28 228.422L113.317 222.218C107.616 221.076 102.07 224.771 100.927 230.471L95 260.055V257.129C95 246.296 84.375 246.296 84.375 246.296H20.625C18.5311 246.296 16.8499 246.717 15.5 247.392V246.296C15.5 242.805 17.2889 239.732 20 237.943V224.216C11.1705 220.358 5 211.547 5 201.296C5 191.044 11.1705 182.234 20 178.376V164.216C11.1705 160.358 5 151.547 5 141.296C5 131.044 11.1705 122.234 20 118.376V104.216C11.1705 100.358 5 91.5474 5 81.2958C5 67.4887 16.1929 56.2958 30 56.2958C35.2601 56.2958 40.1408 57.9203 44.1678 60.695H275.832C279.859 57.9203 284.74 56.2958 290 56.2958C303.807 56.2958 315 67.4887 315 81.2958C315 91.5474 308.83 100.358 300 104.216V118.376C308.83 122.234 315 131.044 315 141.296C315 151.547 308.83 160.358 300 164.216V178.376C308.83 182.234 315 191.044 315 201.296C315 211.547 308.83 220.358 300 224.216V237.943C302.711 239.732 304.5 242.805 304.5 246.296ZM15.3125 276.86V289.629C15.3125 291.39 15.7289 292.35 16.0804 292.888C16.4541 293.459 16.9904 293.908 17.6883 294.264C18.407 294.63 19.19 294.84 19.8382 294.95C20.1497 295.003 20.3977 295.028 20.547 295.039L20.61 295.043L20.6729 295.046H84.375C86.1016 295.046 87.0434 294.621 87.5707 294.263C87.8637 294.064 88.1238 293.819 88.3551 293.53C88.3891 293.154 88.4436 292.777 88.5194 292.398L89.6875 286.569V257.129C89.6875 255.369 89.2711 254.408 88.9196 253.871C88.5459 253.299 88.0096 252.851 87.3117 252.495C86.593 252.128 85.81 251.918 85.1618 251.808C84.8503 251.755 84.6023 251.731 84.453 251.72C84.3911 251.715 84.3482 251.713 84.3271 251.713H20.625C18.8984 251.713 17.9566 252.137 17.4293 252.496C16.8687 252.877 16.4287 253.423 16.0798 254.135C15.8053 254.695 15.6203 255.292 15.5 255.838V276.296C15.5 276.525 15.5077 276.752 15.5228 276.977L15.3125 276.86ZM93.6204 295.149C93.9045 297.323 95.538 299.173 97.8066 299.627L128.77 305.831C131.62 306.402 134.394 304.555 134.965 301.705L147.373 239.777C147.944 236.927 146.096 234.154 143.246 233.583L112.283 227.379C109.433 226.808 106.659 228.655 106.088 231.505L95 286.844V289.629C95 289.629 95 292.407 93.6204 295.149ZM111.231 40.695H260V36.2958C260 29.7901 233.811 32.2179 227.5 33.7958L111.231 40.695ZM114.322 297.569C117.172 298.14 119.946 296.292 120.517 293.442C121.088 290.592 119.24 287.818 116.39 287.247C113.54 286.676 110.767 288.524 110.196 291.374C109.625 294.224 111.472 296.997 114.322 297.569ZM169.108 241.483C166.559 240.474 163.701 241.659 162.723 244.129L148.558 279.913C147.58 282.383 148.853 285.204 151.401 286.212L206.771 308.131C209.319 309.14 212.178 307.955 213.155 305.484L227.321 269.701C228.299 267.231 227.025 264.41 224.477 263.402L169.108 241.483ZM215.624 285.766C216.602 283.296 215.329 280.475 212.78 279.467C210.232 278.458 207.374 279.643 206.396 282.113C205.418 284.583 206.691 287.404 209.239 288.413C211.787 289.421 214.646 288.236 215.624 285.766ZM296.719 251.713C298.186 251.713 299.375 252.925 299.375 254.421V295.046H235.625V254.421C235.625 252.925 236.814 251.713 238.281 251.713H296.719ZM26.7614 81.6426C26.9095 81.4204 26.9001 81.1287 26.738 80.9165C26.576 80.7043 26.297 80.6185 26.0437 80.703L22.2937 81.953L22.689 83.1388L24.7109 82.4649L23.2213 84.6992C23.0732 84.9214 23.0826 85.2131 23.2447 85.4253C23.4067 85.6375 23.6857 85.7233 23.939 85.6388L25.9609 84.9649L24.4713 87.1992C24.3232 87.4214 24.3326 87.7131 24.4947 87.9253C24.6567 88.1375 24.9357 88.2233 25.189 88.1388L28.939 86.8888L28.5437 85.703L26.5218 86.3769L28.0114 84.1426C28.1595 83.9204 28.1501 83.6287 27.988 83.4165C27.826 83.2043 27.547 83.1185 27.2937 83.203L25.2718 83.8769L26.7614 81.6426ZM50 81.2959C50 92.3416 41.0457 101.296 30 101.296C18.9543 101.296 10 92.3416 10 81.2959C10 70.2502 18.9543 61.2959 30 61.2959C41.0457 61.2959 50 70.2502 50 81.2959ZM19.4656 85.2757L14.4949 89.4179C16.1453 92.5621 18.7241 95.1426 21.867 96.7952L26.0115 91.8217C27.2488 92.2897 28.5902 92.5459 29.9914 92.5459C31.6236 92.5459 33.1746 92.1983 34.5744 91.5731L31.2414 83.7959L28.7414 77.5459L38.3076 73.7194C36.2501 71.4623 33.2862 70.0459 29.9914 70.0459C23.7782 70.0459 18.7414 75.0827 18.7414 81.2959C18.7414 82.6971 18.9975 84.0385 19.4656 85.2757ZM36.9831 90.11C39.5777 88.0491 41.2414 84.8668 41.2414 81.2959C41.2414 80.779 41.2065 80.2702 41.139 79.7718L33.7414 82.5459L36.9831 90.11ZM29.3007 161.051C40.5974 161.051 49.7552 151.893 49.7552 140.596C49.7552 129.3 40.5974 120.142 29.3007 120.142C18.0039 120.142 8.84613 129.3 8.84613 140.596C8.84613 151.893 18.0039 161.051 29.3007 161.051ZM34.7915 126.674C34.9714 126.095 34.6432 125.482 34.0583 125.304C33.4735 125.126 32.8535 125.451 32.6735 126.029L23.8099 154.519C23.63 155.097 23.9582 155.711 24.543 155.888C25.1279 156.066 25.7479 155.742 25.9278 155.163L34.7915 126.674ZM22.3284 132.151C22.7611 132.579 22.7611 133.273 22.3284 133.701L15.3562 140.596L22.3284 147.492C22.7611 147.92 22.7611 148.614 22.3284 149.041C21.8957 149.469 21.1942 149.469 20.7615 149.041L13.0059 141.371C12.5732 140.943 12.5732 140.249 13.0059 139.821L20.7615 132.151C21.1942 131.723 21.8957 131.723 22.3284 132.151ZM36.2729 133.701C35.8402 133.273 35.8402 132.579 36.2729 132.151C36.7056 131.723 37.4071 131.723 37.8398 132.151L45.5955 139.821C46.0282 140.249 46.0282 140.943 45.5955 141.371L37.8398 149.041C37.4071 149.469 36.7056 149.469 36.2729 149.041C35.8402 148.614 35.8402 147.92 36.2729 147.492L43.2451 140.596L36.2729 133.701ZM30.3125 189.733C28.414 189.733 26.875 191.272 26.875 193.171V196.608H33.75V193.171C33.75 191.272 32.211 189.733 30.3125 189.733ZM30 221.296C41.0457 221.296 50 212.342 50 201.296C50 190.25 41.0457 181.296 30 181.296C18.9543 181.296 10 190.25 10 201.296C10 212.342 18.9543 221.296 30 221.296ZM37.1875 196.871V193.171C37.1875 189.374 34.1095 186.296 30.3125 186.296C26.5155 186.296 23.4375 189.374 23.4375 193.171V196.871C21.5839 197.442 20 198.922 20 201.077V209.327C20 212.133 22.6863 213.796 25.1562 213.796H35.4688C37.9387 213.796 40.625 212.133 40.625 209.327V201.077C40.625 198.922 39.0411 197.442 37.1875 196.871ZM310 201.296C310 212.342 301.046 221.296 290 221.296C278.954 221.296 270 212.342 270 201.296C270 190.25 278.954 181.296 290 181.296C301.046 181.296 310 190.25 310 201.296ZM286.109 188.913L290.177 197.185L294.244 188.913H301.08L294.142 201.252L301.268 213.796H294.364L290.177 205.371L285.99 213.796H279.068L286.212 201.252L279.256 188.913H286.109ZM287.934 141.657C288.13 142.059 288.398 142.389 288.737 142.647C289.216 143.012 289.865 143.194 290.686 143.194C291.232 143.194 291.688 143.069 292.053 142.818C292.417 142.556 292.708 142.197 292.924 141.742C293.141 141.275 293.295 140.739 293.386 140.135C293.477 139.531 293.522 138.882 293.522 138.187V137.828C293.522 137.11 293.471 136.455 293.369 135.863C293.266 135.259 293.101 134.735 292.873 134.291C292.657 133.846 292.366 133.504 292.001 133.265C291.637 133.026 291.187 132.906 290.651 132.906C290.036 132.906 289.518 133.003 289.096 133.197C288.686 133.379 288.356 133.664 288.105 134.051C288.044 134.148 287.987 134.251 287.934 134.36V141.657ZM310 141.296C310 152.342 301.046 161.296 290 161.296C278.954 161.296 270 152.342 270 141.296C270 130.25 278.954 121.296 290 121.296C301.046 121.296 310 130.25 310 141.296ZM287.934 154.405V145.793C288.324 146.233 288.762 146.603 289.25 146.903C290.048 147.393 290.999 147.638 292.104 147.638C293.278 147.638 294.309 147.404 295.197 146.937C296.097 146.458 296.849 145.792 297.453 144.937C298.057 144.083 298.513 143.08 298.82 141.93C299.128 140.779 299.282 139.531 299.282 138.187V137.828C299.282 136.427 299.128 135.151 298.82 134C298.513 132.849 298.051 131.864 297.436 131.043C296.832 130.212 296.08 129.574 295.18 129.129C294.292 128.685 293.26 128.463 292.087 128.463C290.982 128.463 290.03 128.702 289.233 129.181C288.667 129.525 288.165 129.967 287.729 130.507L287.541 128.805H282.175V154.405H287.934ZM286.617 81.4443V81.0342C286.617 80.2659 286.676 79.5433 286.793 78.8662C286.91 78.1761 287.105 77.5706 287.379 77.0498C287.652 76.5159 288.017 76.0993 288.473 75.7998C288.941 75.5003 289.521 75.3506 290.211 75.3506C290.914 75.3506 291.5 75.5003 291.969 75.7998C292.438 76.0993 292.809 76.5159 293.082 77.0498C293.355 77.5706 293.551 78.1761 293.668 78.8662C293.785 79.5433 293.844 80.2659 293.844 81.0342V81.4443C293.844 82.2386 293.785 82.9808 293.668 83.6709C293.551 84.361 293.355 84.9665 293.082 85.4873C292.809 85.9951 292.438 86.3923 291.969 86.6787C291.513 86.9651 290.94 87.1084 290.25 87.1084C289.547 87.1084 288.961 86.9651 288.492 86.6787C288.023 86.3923 287.652 85.9951 287.379 85.4873C287.105 84.9665 286.91 84.361 286.793 83.6709C286.676 82.9808 286.617 82.2386 286.617 81.4443ZM310 81.2959C310 92.3416 301.046 101.296 290 101.296C278.954 101.296 270 92.3416 270 81.2959C270 70.2502 278.954 61.2959 290 61.2959C301.046 61.2959 310 70.2502 310 81.2959ZM280.035 81.4443V81.0342C280.035 79.4847 280.257 78.0589 280.699 76.7568C281.142 75.4417 281.793 74.3024 282.652 73.3389C283.512 72.3753 284.573 71.6266 285.836 71.0928C287.099 70.5459 288.557 70.2725 290.211 70.2725C291.878 70.2725 293.342 70.5459 294.605 71.0928C295.882 71.6266 296.949 72.3753 297.809 73.3389C298.668 74.3024 299.319 75.4417 299.762 76.7568C300.204 78.0589 300.426 79.4847 300.426 81.0342V81.4443C300.426 82.9808 300.204 84.4066 299.762 85.7217C299.319 87.0237 298.668 88.1631 297.809 89.1396C296.949 90.1032 295.888 90.8519 294.625 91.3857C293.362 91.9196 291.904 92.1865 290.25 92.1865C288.596 92.1865 287.132 91.9196 285.855 91.3857C284.579 90.8519 283.512 90.1032 282.652 89.1396C281.793 88.1631 281.142 87.0237 280.699 85.7217C280.257 84.4066 280.035 82.9808 280.035 81.4443ZM114.344 171.13V83.3271H145.106V171.13C145.106 179.685 143.143 187.097 139.218 193.366C135.35 199.636 130.077 204.499 123.397 207.956C116.776 211.354 109.335 213.054 101.073 213.054C92.5183 213.054 84.9011 211.618 78.2214 208.747C71.6003 205.876 66.3855 201.452 62.5769 195.476C58.8269 189.499 56.9519 181.882 56.9519 172.624H87.8894C87.8894 176.96 88.3875 180.358 89.3835 182.819C90.3796 185.222 91.8445 186.921 93.7781 187.917C95.7703 188.854 98.2019 189.323 101.073 189.323C103.885 189.323 106.259 188.62 108.192 187.214C110.184 185.749 111.708 183.669 112.762 180.974C113.817 178.22 114.344 174.938 114.344 171.13ZM229.745 171.921C230.331 173.503 230.624 175.29 230.624 177.282C230.624 179.567 230.067 181.677 228.954 183.61C227.841 185.485 226.083 187.009 223.68 188.181C221.278 189.294 218.114 189.851 214.188 189.851C210.555 189.851 207.333 189.528 204.52 188.884C201.708 188.181 199.335 187.067 197.401 185.544C195.468 183.962 194.003 181.882 193.007 179.304C192.01 176.726 191.512 173.562 191.512 169.812H160.575C160.575 177.37 162.098 183.903 165.145 189.411C168.251 194.86 172.382 199.343 177.538 202.858C182.694 206.315 188.436 208.894 194.764 210.593C201.151 212.233 207.626 213.054 214.188 213.054C221.337 213.054 227.811 212.263 233.612 210.681C239.413 209.099 244.393 206.784 248.553 203.737C252.714 200.632 255.907 196.853 258.134 192.399C260.36 187.946 261.473 182.849 261.473 177.106C261.473 171.716 260.507 166.882 258.573 162.604C256.698 158.327 253.915 154.519 250.223 151.179C246.591 147.78 242.108 144.763 236.776 142.126C231.503 139.431 225.468 136.999 218.671 134.831C215.038 133.659 211.757 132.458 208.827 131.228C205.956 129.997 203.495 128.708 201.444 127.36C199.452 126.013 197.899 124.577 196.786 123.054C195.731 121.472 195.204 119.714 195.204 117.78C195.204 115.437 195.878 113.298 197.225 111.364C198.573 109.372 200.565 107.79 203.202 106.618C205.839 105.446 209.091 104.86 212.958 104.86C216.942 104.86 220.253 105.563 222.889 106.97C225.526 108.376 227.489 110.31 228.778 112.771C230.126 115.231 230.8 118.073 230.8 121.296H261.473C261.473 113.21 259.423 106.208 255.321 100.29C251.278 94.3135 245.653 89.7139 238.446 86.4912C231.298 83.21 223.036 81.5693 213.661 81.5693C206.571 81.5693 200.038 82.4189 194.061 84.1182C188.085 85.7588 182.87 88.1611 178.417 91.3252C174.022 94.4307 170.594 98.21 168.134 102.663C165.673 107.058 164.442 112.009 164.442 117.517C164.442 123.259 165.643 128.298 168.046 132.634C170.448 136.911 173.7 140.661 177.802 143.884C181.903 147.048 186.561 149.831 191.776 152.233C196.991 154.577 202.411 156.687 208.036 158.562C212.841 160.144 216.708 161.667 219.637 163.132C222.626 164.538 224.911 165.944 226.493 167.351C228.075 168.757 229.159 170.28 229.745 171.921Z" fill="url(#paint0_linear_3899_900)"/>
<defs>
<linearGradient id="paint0_linear_3899_900" x1="160" y1="-2" x2="160" y2="318" gradientUnits="userSpaceOnUse">
<stop stop-color="#3083FD"/>
<stop offset="1" stop-color="#0E6FFD"/>
</linearGradient>
</defs>
</svg>
