<svg width="126" height="143" viewBox="0 0 126 143" fill="none" xmlns="http://www.w3.org/2000/svg">
<g filter="url(#filter0_d_3803_915)">
<path d="M8 16C8 9.37259 13.3726 4 20 4H106C112.627 4 118 9.37258 118 16V119C118 125.627 112.627 131 106 131H20C13.3726 131 8 125.627 8 119V16Z" fill="#2271A5" fill-opacity="0.98"/>
<path d="M25.6481 18.1151C20.0611 19.0896 16 23.7575 16 29.205V111.494C16 114.835 17.4984 117.788 19.8448 119.833C22.717 122.999 26.9483 125 31.6667 125H94.3333C102.986 125 110 118.271 110 109.971V34.8269C110 29.2641 106.849 24.4069 102.167 21.8083V18.2749C102.167 11.2425 95.5274 5.92706 88.3148 7.18506L25.6481 18.1151ZM31.6667 27.3124H94.3333C98.6596 27.3124 102.167 30.6768 102.167 34.8269V109.971C102.167 114.121 98.6596 117.486 94.3333 117.486H31.6667C27.3404 117.486 23.8333 114.121 23.8333 109.971V34.8269C23.8333 30.6768 27.3404 27.3124 31.6667 27.3124Z" fill="white"/>
<path d="M58.1604 61.6822C58.3817 61.3637 58.3677 60.9455 58.1255 60.6413C57.8833 60.3372 57.4664 60.2142 57.0879 60.3352L51.484 62.1271L52.0747 63.827L55.0962 62.8609L52.8702 66.0639C52.6489 66.3824 52.6629 66.8005 52.9051 67.1047C53.1473 67.4089 53.5642 67.5319 53.9427 67.4108L56.9641 66.4447L54.7382 69.6477C54.5169 69.9662 54.5309 70.3843 54.7731 70.6885C55.0153 70.9927 55.4321 71.1157 55.8106 70.9947L61.4145 69.2028L60.8238 67.5028L57.8024 68.4689L60.0283 65.266C60.2496 64.9475 60.2356 64.5293 59.9934 64.2251C59.7512 63.921 59.3344 63.798 58.9558 63.919L55.9344 64.8851L58.1604 61.6822Z" fill="white"/>
<path d="M63 89.8556C79.5062 89.8556 92.8872 77.0194 92.8872 61.1852C92.8872 45.3509 79.5062 32.5147 63 32.5147C46.4938 32.5147 33.1128 45.3509 33.1128 61.1852C33.1128 77.0194 46.4938 89.8556 63 89.8556ZM39.8299 72.8283L47.2578 66.8903C46.5584 65.1167 46.1755 63.1938 46.1755 61.1852C46.1755 52.2784 53.7023 45.0581 62.9871 45.0581C67.9107 45.0581 72.34 47.0885 75.4146 50.3241L61.1191 55.8095L64.855 64.769L69.8359 75.9178C67.744 76.814 65.4262 77.3123 62.9871 77.3123C60.8932 77.3123 58.8887 76.9451 57.0398 76.2741L50.8463 83.4037C46.1498 81.0347 42.2962 77.3355 39.8299 72.8283ZM79.7986 61.1852C79.7986 66.3041 77.3125 70.866 73.4353 73.8203L68.5909 62.9771L79.6457 59.0003C79.7465 59.7148 79.7986 60.4442 79.7986 61.1852Z" fill="white"/>
<path d="M41.1808 94.7203H43.5044V103.442C43.5002 104.242 43.3234 104.93 42.974 105.508C42.6246 106.081 42.1363 106.523 41.5092 106.834C40.8862 107.141 40.1601 107.295 39.3308 107.295C38.5731 107.295 37.8912 107.165 37.2851 106.907C36.6831 106.644 36.2054 106.257 35.8518 105.744C35.4982 105.231 35.3214 104.593 35.3214 103.83H37.6513C37.6555 104.165 37.7313 104.454 37.8786 104.696C38.0301 104.938 38.2385 105.124 38.5037 105.253C38.7689 105.383 39.0741 105.447 39.4192 105.447C39.7938 105.447 40.1117 105.373 40.3726 105.223C40.6336 105.07 40.8315 104.844 40.9662 104.545C41.1051 104.246 41.1766 103.878 41.1808 103.442V94.7203Z" fill="white"/>
<path d="M53.0733 98.1304C53.0143 97.6014 52.766 97.1896 52.3282 96.8948C51.8947 96.6 51.3306 96.4526 50.6361 96.4526C50.1478 96.4526 49.7289 96.5233 49.3796 96.6646C49.0302 96.8059 48.7629 96.9978 48.5777 97.24C48.3925 97.4823 48.2978 97.7589 48.2936 98.0698C48.2936 98.3283 48.3546 98.5524 48.4767 98.7422C48.6029 98.9319 48.7734 99.0935 48.9881 99.2267C49.2028 99.3559 49.4406 99.465 49.7016 99.5538C49.9626 99.6426 50.2256 99.7173 50.4908 99.7779L51.7031 100.069C52.1914 100.178 52.6607 100.325 53.1111 100.511C53.5658 100.697 53.972 100.931 54.3298 101.213C54.6918 101.496 54.978 101.837 55.1885 102.237C55.3989 102.637 55.5042 103.105 55.5042 103.642C55.5042 104.369 55.3105 105.009 54.9233 105.562C54.536 106.111 53.9762 106.542 53.2437 106.852C52.5155 107.159 51.6337 107.313 50.5982 107.313C49.5921 107.313 48.7187 107.163 47.9779 106.865C47.2412 106.566 46.6645 106.13 46.2478 105.556C45.8353 104.983 45.6122 104.284 45.5785 103.461H47.8831C47.9168 103.893 48.0557 104.252 48.2999 104.539C48.544 104.825 48.8618 105.039 49.2533 105.181C49.649 105.322 50.0909 105.393 50.5792 105.393C51.0886 105.393 51.5348 105.32 51.9178 105.175C52.3051 105.025 52.6081 104.819 52.827 104.557C53.0459 104.29 53.1575 103.979 53.1617 103.624C53.1575 103.301 53.0585 103.035 52.8649 102.825C52.6713 102.611 52.3998 102.433 52.0504 102.292C51.7052 102.146 51.3011 102.017 50.8381 101.904L49.3669 101.54C48.302 101.278 47.4601 100.88 46.8413 100.347C46.2268 99.8102 45.9195 99.0975 45.9195 98.2091C45.9195 97.4783 46.1257 96.8382 46.5383 96.2891C46.955 95.7399 47.5211 95.3139 48.2367 95.0111C48.9523 94.7042 49.7626 94.5507 50.6676 94.5507C51.5853 94.5507 52.3892 94.7042 53.0796 95.0111C53.7741 95.3139 54.3192 95.7359 54.7149 96.277C55.1106 96.814 55.3147 97.4318 55.3274 98.1304H53.0733Z" fill="white"/>
<path d="M61.7219 107.307C60.7748 107.307 59.954 107.107 59.2594 106.707C58.5649 106.307 58.0261 105.748 57.643 105.029C57.2642 104.311 57.0748 103.471 57.0748 102.51C57.0748 101.549 57.2642 100.707 57.643 99.9838C58.0261 99.261 58.5649 98.6998 59.2594 98.3C59.954 97.9002 60.7748 97.7004 61.7219 97.7004C62.669 97.7004 63.4898 97.9002 64.1843 98.3C64.8789 98.6998 65.4156 99.261 65.7944 99.9838C66.1775 100.707 66.369 101.549 66.369 102.51C66.369 103.471 66.1775 104.311 65.7944 105.029C65.4156 105.748 64.8789 106.307 64.1843 106.707C63.4898 107.107 62.669 107.307 61.7219 107.307ZM61.7345 105.55C62.248 105.55 62.6774 105.415 63.0226 105.144C63.3677 104.87 63.6245 104.502 63.7929 104.042C63.9655 103.582 64.0517 103.069 64.0517 102.504C64.0517 101.934 63.9655 101.419 63.7929 100.959C63.6245 100.495 63.3677 100.125 63.0226 99.8506C62.6774 99.576 62.248 99.4387 61.7345 99.4387C61.2083 99.4387 60.7706 99.576 60.4212 99.8506C60.076 100.125 59.8172 100.495 59.6446 100.959C59.4762 101.419 59.392 101.934 59.392 102.504C59.392 103.069 59.4762 103.582 59.6446 104.042C59.8172 104.502 60.076 104.87 60.4212 105.144C60.7706 105.415 61.2083 105.55 61.7345 105.55Z" fill="white"/>
<path d="M68.309 110.614V97.8215H70.5568V99.36H70.6894C70.8072 99.1338 70.9735 98.8936 71.1882 98.6392C71.4028 98.3808 71.6933 98.1607 72.0595 97.979C72.4257 97.7932 72.8929 97.7004 73.4612 97.7004C74.2105 97.7004 74.8861 97.8841 75.488 98.2515C76.0941 98.615 76.574 99.154 76.9276 99.8688C77.2854 100.579 77.4643 101.452 77.4643 102.485C77.4643 103.507 77.2896 104.375 76.9402 105.09C76.5908 105.805 76.1152 106.35 75.5133 106.725C74.9113 107.101 74.2294 107.289 73.4675 107.289C72.9119 107.289 72.451 107.2 72.0847 107.022C71.7185 106.844 71.4239 106.63 71.2008 106.38C70.9819 106.126 70.8114 105.885 70.6894 105.659H70.5946V110.614H68.309ZM70.5504 102.473C70.5504 103.075 70.6388 103.602 70.8156 104.054C70.9966 104.506 71.2555 104.86 71.5923 105.114C71.9332 105.364 72.3457 105.49 72.8298 105.49C73.3349 105.49 73.758 105.36 74.0989 105.102C74.4399 104.839 74.6966 104.482 74.8692 104.03C75.046 103.574 75.1344 103.055 75.1344 102.473C75.1344 101.896 75.0481 101.383 74.8755 100.935C74.703 100.487 74.4462 100.135 74.1052 99.8809C73.7643 99.6265 73.3391 99.4993 72.8298 99.4993C72.3415 99.4993 71.9269 99.6224 71.5859 99.8688C71.245 100.115 70.9861 100.46 70.8093 100.904C70.6367 101.349 70.5504 101.872 70.5504 102.473Z" fill="white"/>
<path d="M80.9764 94.7203L83.8241 99.2631H83.9251L86.7853 94.7203H89.4562L85.472 100.923L89.5193 107.125H86.8043L83.9251 102.613H83.8241L80.9449 107.125H78.2425L82.3277 100.923L78.293 94.7203H80.9764Z" fill="white"/>
<path d="M90.7451 94.5781V96H90.502V94.5781H90.7451ZM91.1914 94.5781V94.7734H90.0596V94.5781H91.1914Z" fill="white"/>
<path d="M91.4785 94.5781H91.6973L92.1084 95.6748L92.5186 94.5781H92.7373L92.1943 96H92.0205L91.4785 94.5781ZM91.3789 94.5781H91.5869L91.623 95.5273V96H91.3789V94.5781ZM92.6289 94.5781H92.8379V96H92.5928V95.5273L92.6289 94.5781Z" fill="white"/>
</g>
<defs>
<filter id="filter0_d_3803_915" x="0" y="0" width="126" height="143" filterUnits="userSpaceOnUse" color-interpolation-filters="sRGB">
<feFlood flood-opacity="0" result="BackgroundImageFix"/>
<feColorMatrix in="SourceAlpha" type="matrix" values="0 0 0 0 0 0 0 0 0 0 0 0 0 0 0 0 0 0 127 0" result="hardAlpha"/>
<feOffset dy="4"/>
<feGaussianBlur stdDeviation="4"/>
<feColorMatrix type="matrix" values="0 0 0 0 0 0 0 0 0 0 0 0 0 0 0 0 0 0 0.15 0"/>
<feBlend mode="normal" in2="BackgroundImageFix" result="effect1_dropShadow_3803_915"/>
<feBlend mode="normal" in="SourceGraphic" in2="effect1_dropShadow_3803_915" result="shape"/>
</filter>
</defs>
</svg>
