<svg xmlns="http://www.w3.org/2000/svg" style="" viewBox="0 0 528 528"><g class="jsopx-icon-wrapper"><defs><linearGradient id="1737727776663-3202757_ag" x1="221.24" y1="343.92" x2="336.82" y2="143.74" gradientUnits="userSpaceOnUse"><stop offset="0" stop-color="#6d449b"></stop><stop offset=".5" stop-color="#6d449b"></stop><stop offset=".51" stop-color="#5f318f"></stop><stop offset="1" stop-color="#5e2f8e"></stop></linearGradient><linearGradient id="1737727776663-3202757_ah" x1="206.21" y1="335.25" x2="321.79" y2="135.06" xlink:href="#1737727776663-3202757_ag"></linearGradient><linearGradient id="1737727776663-3202757_ai" x1="250.76" y1="360.97" x2="366.34" y2="160.78" xlink:href="#1737727776663-3202757_ag"></linearGradient></defs><path d="M468.82,65.55c0-32.23-52.86-60.47-82.69-52.66L57.2,65.59c-25.11,1.18-45.13,22.87-45.13,49.48v297.13c0,16.49,7.68,31.09,19.52,40.08v-29.62s0-3.28,1.33-7.03c.08-.23.17-.46.26-.69.68-1.64,1.62-3.31,2.94-4.8.12-.13.24-.27.37-.4v-4.81c0-5.76,2.81-10.83,7.08-13.79v-22.66c-13.9-6.36-23.62-20.91-23.62-37.83s9.72-31.46,23.62-37.83v-23.38c-13.9-6.36-23.62-20.91-23.62-37.83s9.72-31.46,23.62-37.84v-23.37c-13.9-6.37-23.62-20.91-23.62-37.83,0-22.8,17.63-41.28,39.38-41.28,8.27,0,15.97,2.69,22.31,7.27h364.87c6.34-4.58,14.03-7.27,22.31-7.27,21.75,0,39.38,18.48,39.38,41.28,0,16.92-9.72,31.46-23.63,37.83v23.37c13.91,6.38,23.63,20.91,23.63,37.84s-9.72,31.47-23.63,37.83v23.38c13.91,6.37,23.63,20.91,23.63,37.83s-9.72,31.47-23.63,37.83v22.66c4.28,2.96,7.09,8.03,7.09,13.79v3.13c.17.14.33.29.49.44,2.65,2.45,4.31,6.07,4.31,10.1v33.75c11.88-8.98,19.61-23.62,19.61-40.15V115.07c0-27.35-21.15-49.52-47.25-49.52ZM421.41,65.95h-234.3l183.12-11.39c9.95-2.6,51.18-6.61,51.18,4.13v7.26Z" fill="#6d449b"></path><path fill="#6d449b" d="M492.09 36.81L491.86 32.05 494.26 39.14 495.84 39.14 498.23 32.06 498 36.81 498 39.14 500.38 39.14 500.38 29.18 497.25 29.18 495.05 36.11 492.84 29.18 489.71 29.18 489.71 39.14 492.09 39.14 492.09 36.81z"></path><path d="M468.67,165.99c17.4,0,31.5-14.79,31.5-33.02s-14.1-33.02-31.5-33.02-31.5,14.79-31.5,33.02,14.1,33.02,31.5,33.02ZM452.98,132.53c0-2.55.34-4.9,1.04-7.05.7-2.18,1.72-4.06,3.08-5.65,1.35-1.59,3.02-2.82,5.02-3.7,1.98-.9,4.27-1.36,6.88-1.36s4.93.46,6.92,1.36c1.01.44,1.93.97,2.77,1.58.84.62,1.6,1.32,2.28,2.12,1.36,1.59,2.39,3.47,3.08,5.65.7,2.15,1.05,4.5,1.05,7.05v.69c0,2.53-.35,4.88-1.05,7.05-.69,2.15-1.72,4.03-3.08,5.65-1.35,1.59-3.02,2.82-5,3.7-2,.89-4.29,1.33-6.9,1.33s-4.91-.44-6.92-1.33c-1.01-.44-1.93-.97-2.77-1.58-.84-.62-1.6-1.32-2.28-2.12-1.36-1.62-2.38-3.5-3.08-5.65-.7-2.17-1.04-4.52-1.04-7.05v-.69Z" fill="#7351a1"></path><path d="M468.67,364.07c8.16,0,15.58-3.24,21.18-8.58,6.34-6.04,10.32-14.75,10.32-24.44s-3.98-18.4-10.32-24.43c-5.6-5.33-13.02-8.58-21.18-8.58-17.4,0-31.5,14.78-31.5,33.01s14.1,33.02,31.5,33.02ZM451.74,310.61h10.8s0,0,0,0l6.41,13.65,6.4-13.66h10.77,0s0,0,0,0l-10.92,20.38,11.22,20.69h-10.88s0,0,0,0l-6.59-13.89-6.6,13.9h-10.9,0s0,0,0,0l11.26-20.69-10.97-20.38Z" fill="#7351a1"></path><path fill="#6d449b" d="M483.33 39.14L485.71 39.14 485.71 31.04 488.68 31.04 488.68 29.18 480.42 29.18 480.42 31.04 483.33 31.04 483.33 39.14z"></path><path d="M464.55,139.89c.42.84,1,1.49,1.74,1.96.74.48,1.67.72,2.77.72s1.99-.24,2.71-.72c.74-.47,1.32-1.12,1.76-1.96.42-.86.74-1.86.92-3,.19-1.14.28-2.36.28-3.67v-.69c0-1.26-.09-2.45-.28-3.57-.18-1.14-.5-2.14-.92-3-.44-.89-1.02-1.57-1.76-2.06-.74-.49-1.66-.74-2.77-.74s-2,.25-2.74.74c-.72.49-1.29,1.17-1.71,2.06-.44.86-.74,1.86-.93,3-.18,1.12-.27,2.31-.27,3.57v.69c0,1.31.09,2.53.27,3.67.19,1.14.49,2.14.93,3Z" fill="#7351a1"></path><path d="M469.75,235.15c.87,0,1.58-.21,2.15-.63.58-.42,1.03-1.02,1.38-1.77.34-.77.58-1.66.72-2.65.14-1,.22-2.08.22-3.22v-.59c0-1.19-.09-2.26-.24-3.25-.16-1-.43-1.86-.79-2.59-.33-.74-.79-1.3-1.36-1.7-.59-.39-1.29-.58-2.13-.58-.98,0-1.79.16-2.46.47-.64.3-1.16.77-1.55,1.41-.1.17-.19.34-.27.52v12.04c.3.66.73,1.21,1.26,1.63.76.61,1.77.91,3.07.91Z" fill="#7351a1"></path><path d="M456.41,262.44c3.77,1.67,7.91,2.59,12.26,2.59,17.4,0,31.5-14.78,31.5-33.02s-14.1-33.02-31.5-33.02c-4.35,0-8.49.93-12.26,2.6-11.31,5.01-19.24,16.75-19.24,30.42s7.93,25.41,19.24,30.43ZM456.35,211.39h8.44s.3,2.81.3,2.81c0,0,0,0,0,0,.69-.89,1.48-1.62,2.37-2.19,1.26-.79,2.75-1.18,4.5-1.18,1.85,0,3.47.36,4.87,1.1.35.18.69.39,1.02.61.97.67,1.82,1.52,2.53,2.55.97,1.35,1.69,2.98,2.19,4.88.48,1.89.71,4,.71,6.32v.59c0,2.22-.23,4.28-.71,6.17-.5,1.91-1.21,3.57-2.17,4.98-.95,1.41-2.12,2.51-3.55,3.29-1.4.77-3.02,1.16-4.87,1.16-1.73,0-3.23-.4-4.49-1.22,0,0,0,0,0,0-.77-.49-1.47-1.09-2.07-1.81,0,0,0,0,0,0v14.21h-9.07v-42.26Z" fill="#7351a1"></path><path d="M383.28,512.48h108.99c6.94,0,12.57-6.01,12.57-13.41h-134.13c0,7.4,5.62,13.41,12.56,13.41Z" fill="#5f308d"></path><path d="M492.15,408.5c-.16-.15-.32-.3-.49-.44-2.13-1.8-4.84-2.88-7.77-2.88h-92.22c-6.93,0-12.57,6.02-12.57,13.42v12.29c-1.65-2.09-3.83-3.78-6.42-4.85l-87.37-36.18c-8.05-3.33-17.07.58-20.15,8.74l-18.78,49.6,9.98-52.07c1.81-9.41-4.03-18.56-13.01-20.45l-52.88-10.24c-8.99-1.89-13.74,4.22-15.54,13.62l-9.35,48.8v-4.79c0-17.89-16.77-17.89-16.77-17.89H48.21c-5.54,0-9.24,1.95-11.72,4.56-.13.13-.25.27-.37.4-1.32,1.49-2.26,3.16-2.94,4.8-.09.23-.18.46-.26.69-1.33,3.75-1.33,7.03-1.33,7.03v29.65c-.05-.04-.1-.08-.15-.12v24.53c0,17.88,16.77,17.88,16.77,17.88h33.54c0,5.96-.7,10.43-2.11,13.41h-6.28c-2.32,0-4.2,2-4.2,4.47h58.7c0-2.47-1.9-4.47-4.2-4.47h-6.28c-1.41-2.98-2.11-7.45-2.11-13.41h33.54c3.31,0,5.99-.7,8.12-1.82,2.25,4.48,6.33,7.89,11.44,8.96l48.86,10.25c9,1.88,17.75-4.23,19.54-13.64l5.77-30.06c1.4,4.45,4.67,8.28,9.24,10.17l87.37,36.18c8.05,3.34,17.07-.58,20.16-8.74l19.79-52.3v41h117.36v-76c0-4.03-1.66-7.65-4.31-10.1ZM157.18,471.68l-1.83,9.61c-.13.62-.21,1.24-.26,1.86-.36.48-.77.89-1.23,1.22-.84.59-2.33,1.28-5.05,1.28H48.28s-.1,0-.19,0c-.24-.01-.63-.05-1.12-.14-1.02-.18-2.25-.53-3.39-1.13-.14-.07-.27-.15-.4-.23-.07-.04-.13-.08-.19-.12,0,0,0,0,0,0-.82-.52-1.47-1.16-1.96-1.93-.55-.88-1.21-2.46-1.21-5.37v-53.57s.01-.1.01-.22c.03-.24.06-.66.15-1.18.17-1.1.49-2.41,1.05-3.62.55-1.18,1.24-2.08,2.13-2.71.84-.59,2.33-1.29,5.05-1.29h100.53s.1,0,.19.01c.23.02.63.06,1.12.15,1.02.18,2.25.52,3.39,1.13.22.12.43.24.63.38.07.04.13.08.19.12.02.01.03.03.05.04.69.49,1.24,1.06,1.66,1.73.56.89,1.21,2.48,1.21,5.38v48.61ZM228.64,496.65c-.9,4.71-5.28,7.75-9.78,6.81l-48.86-10.23c-.88-.19-1.68-.51-2.42-.94-.02-.01-.04-.02-.06-.03-.11-.07-.22-.13-.32-.21-2.08-1.37-3.49-3.66-3.8-6.23,2.18-4.52,2.18-9.1,2.18-9.1v-4.62l17.49-91.32c.9-4.71,5.28-7.76,9.78-6.82l48.85,10.24c.93.2,1.79.55,2.56,1.03.03.02.07.04.1.06.05.03.1.05.14.09.01,0,.02.02.04.03,2.81,1.87,4.37,5.41,3.68,9.02l-19.58,102.22ZM374.38,443.82l-22.36,59.07c-1.54,4.08-6.05,6.04-10.07,4.37l-87.37-36.18c-.36-.14-.69-.32-1.02-.51-.01,0-.03-.01-.04-.02-.02-.01-.03-.02-.05-.04-.05-.03-.1-.07-.15-.1-.04-.03-.08-.05-.12-.08-3.08-2.05-4.46-6.08-3.11-9.65l22.35-59.07c1.55-4.08,6.06-6.04,10.08-4.37l87.37,36.19c.46.19.9.42,1.31.69.08.06.16.11.24.17.02.01.04.03.07.04,2.91,2.1,4.19,6.01,2.87,9.49ZM488.08,485.65h-100.6v-67.05c0-2.48,1.88-4.47,4.19-4.47h92.22c.82,0,1.59.25,2.23.69.05.02.1.06.15.09.03.02.05.04.07.06,1.05.82,1.74,2.12,1.74,3.63v67.05Z" fill="#5f308d"></path><path d="M352.9,460.75c-.46-.31-.95-.59-1.48-.8-4.01-1.66-8.53.29-10.06,4.37-1.38,3.63.07,7.72,3.25,9.75.39.25.8.47,1.23.65,4.03,1.67,8.54-.29,10.07-4.37,1.35-3.54.01-7.52-3.01-9.6Z" fill="#5f308d"></path><path d="M202.37,474.13c-.89-.64-1.91-1.1-3.04-1.33-4.5-.95-8.88,2.1-9.79,6.8-.69,3.63.89,7.18,3.71,9.04.84.56,1.78.97,2.81,1.18,4.5.94,8.88-2.11,9.78-6.81.67-3.52-.8-6.98-3.48-8.89Z" fill="#5f308d"></path><path d="M90.29,230.86c0-18.65-14.43-33.77-32.23-33.77s-32.21,15.12-32.21,33.77,14.43,33.77,32.21,33.77,32.23-15.12,32.23-33.77ZM69.05,219.48c-.51-.53-.64-1.31-.38-1.97.08-.22.21-.43.38-.6.6-.61,1.51-.69,2.2-.23.1.07.19.14.28.23l12.21,12.67c.35.36.52.82.52,1.28s-.17.92-.52,1.28l-12.21,12.66c-.6.62-1.52.7-2.2.23-.1-.07-.19-.14-.28-.23-.68-.7-.68-1.86,0-2.56l10.98-11.38-10.98-11.38ZM47.09,242.24c.43.44.58,1.05.48,1.62-.07.35-.23.68-.48.94-.6.62-1.52.7-2.2.23-.1-.07-.19-.14-.28-.23l-12.22-12.66c-.34-.36-.51-.82-.51-1.28s.17-.92.51-1.28l12.22-12.67c.6-.61,1.51-.69,2.2-.23.1.07.19.14.28.23.68.71.68,1.86,0,2.57l-10.99,11.38,10.99,11.38ZM50.57,256.1c-.12-.04-.23-.09-.33-.14-.71-.4-1.07-1.29-.83-2.12l2.57-8.67,11.39-38.36c.28-.95,1.26-1.49,2.18-1.2.12.04.23.09.33.14.72.4,1.08,1.29.83,2.13l-2.47,8.32-11.49,38.7c-.28.96-1.26,1.49-2.19,1.2Z" fill="#7351a1"></path><path d="M90.67,132.97c0-18.23-14.1-33.02-31.5-33.02s-31.5,14.79-31.5,33.02,14.1,33.02,31.5,33.02,31.5-14.79,31.5-33.02ZM76.71,130.46h0c.11.83.17,1.67.17,2.52,0,5.89-2.62,11.14-6.71,14.55h0s0,0,0,0l-5.11-12.49,11.65-4.58s0,0,0,0ZM52.89,150.34l-6.53,8.21c-.62-.34-1.23-.71-1.82-1.09-4.13-2.71-7.53-6.55-9.8-11.08l7.82-6.84c-.72-2.04-1.13-4.26-1.13-6.57,0-10.26,7.93-18.57,17.72-18.57,3.89,0,7.49,1.32,10.41,3.54.97.74,1.87,1.59,2.68,2.52l-15.06,6.32,3.93,10.31,5.25,12.85c-2.2,1.03-4.64,1.6-7.21,1.6-2.22,0-4.32-.43-6.27-1.2Z" fill="#7351a1"></path><path d="M90.67,331.05c0-18.23-14.1-33.01-31.5-33.01s-31.5,14.78-31.5,33.01,14.1,33.02,31.5,33.02,31.5-14.78,31.5-33.02ZM46.62,350.18c-1.87-1.26-3.21-3.26-3.21-5.87v-13.61c0-3.57,2.5-6.01,5.43-6.95v-6.1c0-6.27,4.84-11.36,10.83-11.36,2.24,0,4.32.72,6.05,1.94,2.88,2.04,4.76,5.5,4.76,9.42v6.1c.73.24,1.44.56,2.08.98,1.94,1.25,3.35,3.29,3.35,5.97v13.61c0,4.63-4.24,7.37-8.12,7.37h-16.24c-1.71,0-3.48-.53-4.93-1.5Z" fill="#7351a1"></path><path d="M59.67,311.97c-2.99,0-5.43,2.54-5.43,5.68v5.66h10.84v-5.66c0-3.14-2.42-5.68-5.41-5.68Z" fill="#7351a1"></path><path d="M53.7,141.36l2.34-3.69c.23-.37.22-.85-.04-1.19-.25-.36-.69-.5-1.09-.36l-3.19,1.11,2.35-3.69c.23-.37.22-.85-.04-1.2-.26-.34-.69-.49-1.1-.34l-5.9,2.06.63,1.96,3.18-1.12-2.34,3.69c-.24.36-.22.84.03,1.2.26.35.7.49,1.09.35l3.19-1.11-2.35,3.68c-.24.37-.21.86.04,1.2.25.35.7.5,1.09.36l5.91-2.07-.62-1.95-3.18,1.11Z" fill="#7351a1"></path><path d="M255.86,293.57c2.19,0,3.93-.86,5.21-2.59,1.29-1.73,1.93-4.14,1.93-7.25,0-2.78-.66-5.04-1.97-6.76s-3.05-2.59-5.23-2.59-3.84.85-5.15,2.55-1.96,4.14-1.96,7.31c0,2.81.65,5.07,1.94,6.77,1.3,1.7,3.03,2.55,5.2,2.55Z" fill="url(#1737727776663-3202757_ag)"></path><path d="M264,350.71c63.82,0,115.56-51.74,115.56-115.56s-51.74-115.56-115.56-115.56-115.56,51.74-115.56,115.56,51.74,115.56,115.56,115.56ZM221.27,290.15c1.54,2.19,3.69,3.28,6.45,3.28,2.48,0,4.39-.57,5.72-1.7,1.33-1.13,2.21-3.11,2.64-5.92h4.49c-.42,3.61-1.74,6.39-3.97,8.36-2.23,1.96-5.19,2.94-8.88,2.94-4,0-7.21-1.45-9.63-4.34-2.41-2.89-3.62-6.76-3.62-11.6v-3.28c0-3.17.56-5.96,1.69-8.37s2.72-4.25,4.78-5.54c2.06-1.29,4.45-1.93,7.17-1.93,3.6,0,6.49,1.01,8.66,3.04s3.44,4.82,3.79,8.4h-4.49c-.39-2.73-1.23-4.7-2.53-5.92-1.3-1.22-3.11-1.83-5.44-1.83-2.86,0-5.09,1.06-6.72,3.19-1.62,2.13-2.43,5.15-2.43,9.08v3.31c0,3.71.77,6.65,2.3,8.84ZM284.41,275.17c-.65-.11-1.36-.16-2.12-.16-2.83,0-4.74,1.21-5.75,3.63v18h-4.31v-25.36h4.19l.07,2.93c1.41-2.27,3.41-3.4,6.01-3.4.84,0,1.47.11,1.91.33v4.03ZM299.02,190.4h46.97v6.59h-19.52v54.55h-7.97v-54.55h-19.48v-6.59ZM305,274.07c1.82,2.17,2.72,5.28,2.72,9.33v1.8h-17.06c.06,2.5.79,4.52,2.18,6.06,1.39,1.54,3.16,2.31,5.3,2.31,1.52,0,2.81-.31,3.86-.94s1.98-1.45,2.77-2.48l2.63,2.06c-2.11,3.27-5.28,4.9-9.5,4.9-3.41,0-6.19-1.13-8.33-3.39s-3.21-5.28-3.21-9.06v-.8c0-2.52.48-4.76,1.43-6.74.96-1.98,2.29-3.52,4-4.64,1.71-1.12,3.57-1.68,5.58-1.68,3.27,0,5.82,1.09,7.64,3.26ZM254.21,190.4h38.17v6.59h-30.16v19.69h26.32v6.59h-26.32v21.67h30.57v6.59h-38.58v-61.14ZM244.38,283.73c0-2.48.48-4.72,1.46-6.7.97-1.98,2.32-3.52,4.05-4.59,1.73-1.08,3.71-1.62,5.92-1.62,3.43,0,6.2,1.2,8.32,3.59s3.18,5.57,3.18,9.54v.3c0,2.47-.47,4.68-1.41,6.64-.94,1.96-2.28,3.49-4.03,4.58-1.75,1.09-3.75,1.64-6.02,1.64-3.41,0-6.18-1.2-8.3-3.59-2.12-2.39-3.18-5.55-3.18-9.49v-.3ZM194.17,190.4h8.05l30.66,47.33v-47.33h7.97v61.14h-8.05l-30.57-47.12v47.12h-8.05v-61.14ZM179.86,250.7c-.82.87-2.02,1.3-3.61,1.3s-2.77-.43-3.57-1.3c-.79-.87-1.19-1.95-1.19-3.23s.4-2.46,1.19-3.36c.79-.9,1.98-1.34,3.57-1.34s2.79.45,3.61,1.34c.82.9,1.23,2.02,1.23,3.36s-.41,2.37-1.23,3.23Z" fill="url(#1737727776663-3202757_ah)"></path><path d="M303.42,281.64v-.33c-.12-2.2-.71-3.91-1.77-5.12-1.05-1.21-2.48-1.82-4.28-1.82s-3.2.64-4.38,1.91-1.91,3.06-2.19,5.36h12.62Z" fill="url(#1737727776663-3202757_ai)"></path><path d="M176.25,242.77c-1.58,0-2.77.45-3.57,1.34-.79.9-1.19,2.02-1.19,3.36s.4,2.37,1.19,3.23c.79.87,1.98,1.3,3.57,1.3s2.79-.43,3.61-1.3c.82-.87,1.23-1.95,1.23-3.23s-.41-2.46-1.23-3.36c-.82-.9-2.02-1.34-3.61-1.34Z" fill="#fff"></path><path fill="#fff" d="M202.22 204.43L232.79 251.54 240.84 251.54 240.84 190.4 232.87 190.4 232.87 237.73 202.22 190.4 194.17 190.4 194.17 251.54 202.22 251.54 202.22 204.43z"></path><path fill="#fff" d="M292.79 244.95L262.22 244.95 262.22 223.28 288.54 223.28 288.54 216.69 262.22 216.69 262.22 197 292.38 197 292.38 190.4 254.21 190.4 254.21 251.54 292.79 251.54 292.79 244.95z"></path><path fill="#fff" d="M318.5 251.54L326.46 251.54 326.46 197 345.98 197 345.98 190.4 299.02 190.4 299.02 197 318.5 197 318.5 251.54z"></path><path d="M221.4,268.92c1.62-2.13,3.86-3.19,6.72-3.19,2.33,0,4.14.61,5.44,1.83,1.3,1.22,2.14,3.2,2.53,5.92h4.49c-.36-3.58-1.62-6.38-3.79-8.4s-5.06-3.04-8.66-3.04c-2.72,0-5.11.64-7.17,1.93-2.06,1.29-3.66,3.14-4.78,5.54s-1.69,5.2-1.69,8.37v3.28c0,4.84,1.21,8.71,3.62,11.6,2.41,2.89,5.62,4.34,9.63,4.34,3.69,0,6.65-.98,8.88-2.94,2.23-1.96,3.55-4.75,3.97-8.36h-4.49c-.43,2.81-1.32,4.79-2.64,5.92-1.33,1.13-3.23,1.7-5.72,1.7-2.76,0-4.91-1.09-6.45-3.28-1.54-2.19-2.3-5.14-2.3-8.84v-3.31c0-3.92.81-6.95,2.43-9.08Z" fill="#fff"></path><path d="M255.86,297.11c2.27,0,4.27-.55,6.02-1.64,1.75-1.09,3.09-2.62,4.03-4.58.94-1.96,1.41-4.18,1.41-6.64v-.3c0-3.97-1.06-7.15-3.18-9.54s-4.89-3.59-8.32-3.59c-2.22,0-4.19.54-5.92,1.62-1.73,1.08-3.08,2.61-4.05,4.59-.97,1.98-1.46,4.22-1.46,6.7v.3c0,3.94,1.06,7.1,3.18,9.49,2.12,2.39,4.88,3.59,8.3,3.59ZM250.66,276.93c1.3-1.7,3.02-2.55,5.15-2.55s3.91.86,5.23,2.59,1.97,3.98,1.97,6.76c0,3.11-.64,5.53-1.93,7.25-1.29,1.73-3.03,2.59-5.21,2.59s-3.91-.85-5.2-2.55c-1.3-1.7-1.94-3.96-1.94-6.77,0-3.17.65-5.61,1.96-7.31Z" fill="#fff"></path><path d="M276.49,274.21l-.07-2.93h-4.19v25.36h4.31v-18c1.01-2.42,2.92-3.63,5.75-3.63.76,0,1.47.05,2.12.16v-4.03c-.43-.22-1.07-.33-1.91-.33-2.59,0-4.59,1.13-6.01,3.4Z" fill="#fff"></path><path d="M287.79,277.13c-.95,1.98-1.43,4.22-1.43,6.74v.8c0,3.78,1.07,6.8,3.21,9.06s4.92,3.39,8.33,3.39c4.22,0,7.39-1.63,9.5-4.9l-2.63-2.06c-.79,1.03-1.71,1.86-2.77,2.48s-2.34.94-3.86.94c-2.14,0-3.91-.77-5.3-2.31-1.39-1.54-2.11-3.56-2.18-6.06h17.06v-1.8c0-4.05-.91-7.16-2.72-9.33-1.82-2.17-4.36-3.26-7.64-3.26-2,0-3.86.56-5.58,1.68-1.72,1.12-3.05,2.66-4,4.64ZM297.37,274.38c1.8,0,3.23.61,4.28,1.82,1.06,1.21,1.65,2.92,1.77,5.12v.33h-12.62c.28-2.3,1.01-4.08,2.19-5.36s2.64-1.91,4.38-1.91Z" fill="#fff"></path></g></svg>