<svg xmlns="http://www.w3.org/2000/svg" viewBox="0 0 528 528"><g class="jsopx-icon-wrapper"><g id="1737683834796-4326111_ak"><path d="M468.82,65.55c0-32.23-52.86-60.47-82.69-52.66L57.2,65.59c-25.11,1.18-45.13,22.87-45.13,49.48v297.13c0,16.49,7.68,31.09,19.52,40.08v-29.62s0-3.28,1.33-7.03c.08-.23.17-.46.26-.69.68-1.64,1.62-3.31,2.94-4.8.12-.13.24-.27.37-.4v-4.81c0-5.76,2.81-10.83,7.08-13.79v-22.66c-13.9-6.36-23.62-20.91-23.62-37.83s9.72-31.46,23.62-37.83v-23.38c-13.9-6.36-23.62-20.91-23.62-37.83s9.72-31.46,23.62-37.84v-23.37c-13.9-6.37-23.62-20.91-23.62-37.83,0-22.8,17.63-41.28,39.38-41.28,8.27,0,15.97,2.69,22.31,7.27h364.87c6.34-4.58,14.03-7.27,22.31-7.27,21.75,0,39.38,18.48,39.38,41.28,0,16.92-9.72,31.46-23.63,37.83v23.37c13.91,6.38,23.63,20.91,23.63,37.84s-9.72,31.47-23.63,37.83v23.38c13.91,6.37,23.63,20.91,23.63,37.83s-9.72,31.47-23.63,37.83v22.66c4.28,2.96,7.09,8.03,7.09,13.79v3.13c.17.14.33.29.49.44,2.65,2.45,4.31,6.07,4.31,10.1v33.75c11.88-8.98,19.61-23.62,19.61-40.15V115.07c0-27.35-21.15-49.52-47.25-49.52ZM421.41,65.95h-234.3l183.12-11.39c9.95-2.6,51.18-6.61,51.18,4.13v7.26Z" fill="#dd3845"></path><path d="M302.65,263.78h0l16.16,36.79,26.26.55-76.94-161.61-.18.39-73.64,160.86,27.55-.54,14.87-36.43h65.92ZM267.95,242.49h-21.49l21.49-50.38.36-.84,24.98,51.22h-25.34Z" fill="#fff"></path><path fill="#de3845" d="M492.09 36.81L491.86 32.05 494.26 39.14 495.84 39.14 498.23 32.06 498 36.81 498 39.14 500.38 39.14 500.38 29.18 497.25 29.18 495.05 36.11 492.84 29.18 489.71 29.18 489.71 39.14 492.09 39.14 492.09 36.81z"></path><path d="M468.67,165.99c17.4,0,31.5-14.79,31.5-33.02s-14.1-33.02-31.5-33.02-31.5,14.79-31.5,33.02,14.1,33.02,31.5,33.02ZM452.98,132.53c0-2.55.34-4.9,1.04-7.05.7-2.18,1.72-4.06,3.08-5.65,1.35-1.59,3.02-2.82,5.02-3.7,1.98-.9,4.27-1.36,6.88-1.36s4.93.46,6.92,1.36c1.01.44,1.93.97,2.77,1.58.84.62,1.6,1.32,2.28,2.12,1.36,1.59,2.39,3.47,3.08,5.65.7,2.15,1.05,4.5,1.05,7.05v.69c0,2.53-.35,4.88-1.05,7.05-.69,2.15-1.72,4.03-3.08,5.65-1.35,1.59-3.02,2.82-5,3.7-2,.89-4.29,1.33-6.9,1.33s-4.91-.44-6.92-1.33c-1.01-.44-1.93-.97-2.77-1.58-.84-.62-1.6-1.32-2.28-2.12-1.36-1.62-2.38-3.5-3.08-5.65-.7-2.17-1.04-4.52-1.04-7.05v-.69Z" fill="#dd3845"></path><path d="M468.67,364.07c8.16,0,15.58-3.24,21.18-8.58,6.34-6.04,10.32-14.75,10.32-24.44s-3.98-18.4-10.32-24.43c-5.6-5.33-13.02-8.58-21.18-8.58-17.4,0-31.5,14.78-31.5,33.01s14.1,33.02,31.5,33.02ZM451.74,310.61h10.8s0,0,0,0l6.41,13.65,6.4-13.66h10.77,0s0,0,0,0l-10.92,20.38,11.22,20.69h-10.88s0,0,0,0l-6.59-13.89-6.6,13.9h-10.9,0s0,0,0,0l11.26-20.69-10.97-20.38Z" fill="#dd3845"></path><path fill="#de3845" d="M483.33 39.14L485.71 39.14 485.71 31.04 488.68 31.04 488.68 29.18 480.42 29.18 480.42 31.04 483.33 31.04 483.33 39.14z"></path><path fill="#fff" d="M462.71 330.99L451.46 351.68 451.45 351.68 462.35 351.68 468.95 337.79 468.95 337.78 475.54 351.68 475.54 351.68 486.42 351.68 475.2 330.99 486.12 310.61 486.12 310.61 475.35 310.61 468.95 324.27 468.95 324.27 462.54 310.61 462.54 310.61 451.74 310.61 462.71 330.99z"></path><path d="M469,114.77c-2.61,0-4.9.46-6.88,1.36-2,.88-3.67,2.11-5.02,3.7-1.36,1.59-2.38,3.47-3.08,5.65-.7,2.15-1.04,4.5-1.04,7.05v.69c0,2.53.34,4.88,1.04,7.05.7,2.15,1.72,4.03,3.08,5.65.67.79,1.43,1.5,2.27,2.12.84.62,1.76,1.14,2.77,1.58,2.01.89,4.32,1.33,6.92,1.33s4.9-.44,6.9-1.33c1.98-.88,3.65-2.11,5-3.7,1.36-1.62,2.39-3.5,3.08-5.65.7-2.17,1.05-4.52,1.05-7.05v-.69c0-2.55-.35-4.9-1.05-7.05-.69-2.18-1.72-4.06-3.08-5.65-.68-.8-1.43-1.5-2.28-2.12-.84-.62-1.76-1.14-2.76-1.58-1.99-.9-4.3-1.36-6.92-1.36ZM463.35,132.53c0-1.26.09-2.45.27-3.57.19-1.14.49-2.14.93-3,.42-.89.99-1.57,1.71-2.06.74-.49,1.66-.74,2.74-.74s2.03.25,2.77.74c.74.49,1.32,1.17,1.76,2.06.42.86.74,1.86.92,3,.19,1.12.28,2.31.28,3.57v.69c0,1.31-.09,2.53-.28,3.67-.18,1.14-.5,2.14-.92,3-.44.84-1.02,1.49-1.76,1.96-.72.48-1.62.72-2.71.72s-2.03-.24-2.77-.72c-.74-.47-1.32-1.12-1.74-1.96-.44-.86-.74-1.86-.93-3-.18-1.14-.27-2.36-.27-3.67v-.69Z" fill="#fff"></path><path d="M456.35,211.39v42.26h9.07v-14.21s0,0,0,0h0c.6.73,1.3,1.33,2.07,1.82,1.26.82,2.76,1.22,4.49,1.22,1.85,0,3.47-.39,4.87-1.16,1.43-.78,2.6-1.88,3.55-3.29.96-1.41,1.67-3.07,2.17-4.98.48-1.89.71-3.95.71-6.17v-.59c0-2.32-.23-4.43-.71-6.32-.5-1.9-1.22-3.53-2.19-4.88-.71-1.03-1.56-1.88-2.53-2.55-.32-.22-.66-.42-1.01-.61-1.4-.74-3.02-1.1-4.87-1.1-1.75,0-3.24.39-4.5,1.18-.89.57-1.68,1.3-2.37,2.19h0s0,0,0,0l-.3-2.81h-8.44ZM465.42,220.57c.08-.18.17-.35.27-.52.39-.64.91-1.11,1.55-1.41.67-.31,1.48-.47,2.46-.47.84,0,1.54.19,2.13.58.57.4,1.03.96,1.36,1.7.36.73.63,1.59.79,2.59.15.99.24,2.06.24,3.25v.59c0,1.14-.08,2.22-.22,3.22-.14.99-.38,1.88-.72,2.65-.35.75-.8,1.35-1.38,1.77-.57.42-1.28.63-2.15.63-1.3,0-2.31-.3-3.07-.91-.53-.42-.96-.97-1.26-1.63v-12.04Z" fill="#fff"></path><path d="M464.55,139.89c.42.84,1,1.49,1.74,1.96.74.48,1.67.72,2.77.72s1.99-.24,2.71-.72c.74-.47,1.32-1.12,1.76-1.96.42-.86.74-1.86.92-3,.19-1.14.28-2.36.28-3.67v-.69c0-1.26-.09-2.45-.28-3.57-.18-1.14-.5-2.14-.92-3-.44-.89-1.02-1.57-1.76-2.06-.74-.49-1.66-.74-2.77-.74s-2,.25-2.74.74c-.72.49-1.29,1.17-1.71,2.06-.44.86-.74,1.86-.93,3-.18,1.12-.27,2.31-.27,3.57v.69c0,1.31.09,2.53.27,3.67.19,1.14.49,2.14.93,3Z" fill="#dd3845"></path><path d="M469.75,235.15c.87,0,1.58-.21,2.15-.63.58-.42,1.03-1.02,1.38-1.77.34-.77.58-1.66.72-2.65.14-1,.22-2.08.22-3.22v-.59c0-1.19-.09-2.26-.24-3.25-.16-1-.43-1.86-.79-2.59-.33-.74-.79-1.3-1.36-1.7-.59-.39-1.29-.58-2.13-.58-.98,0-1.79.16-2.46.47-.64.3-1.16.77-1.55,1.41-.1.17-.19.34-.27.52v12.04c.3.66.73,1.21,1.26,1.63.76.61,1.77.91,3.07.91Z" fill="#dd3845"></path><path d="M456.41,262.44c3.77,1.67,7.91,2.59,12.26,2.59,17.4,0,31.5-14.78,31.5-33.02s-14.1-33.02-31.5-33.02c-4.35,0-8.49.93-12.26,2.6-11.31,5.01-19.24,16.75-19.24,30.42s7.93,25.41,19.24,30.43ZM456.35,211.39h8.44s.3,2.81.3,2.81c0,0,0,0,0,0,.69-.89,1.48-1.62,2.37-2.19,1.26-.79,2.75-1.18,4.5-1.18,1.85,0,3.47.36,4.87,1.1.35.18.69.39,1.02.61.97.67,1.82,1.52,2.53,2.55.97,1.35,1.69,2.98,2.19,4.88.48,1.89.71,4,.71,6.32v.59c0,2.22-.23,4.28-.71,6.17-.5,1.91-1.21,3.57-2.17,4.98-.95,1.41-2.12,2.51-3.55,3.29-1.4.77-3.02,1.16-4.87,1.16-1.73,0-3.23-.4-4.49-1.22,0,0,0,0,0,0-.77-.49-1.47-1.09-2.07-1.81,0,0,0,0,0,0v14.21h-9.07v-42.26Z" fill="#dd3845"></path><path d="M391.9,414.28c-2.31,0-4.19,1.99-4.19,4.47v66.9h100.36v-67.05c0-1.5-.69-2.81-1.74-3.63-.65-.43-1.4-.69-2.22-.69h-92.22Z" fill="#fff"></path><path d="M254.58,471.08l87.37,36.18c4.02,1.67,8.53-.29,10.07-4.37l22.36-59.07c1.32-3.48.04-7.39-2.87-9.49-.02-.01-.04-.03-.07-.04-.41-.27-.85-.51-1.32-.7l-87.37-36.19c-4.02-1.67-8.54.29-10.08,4.37l-22.35,59.07c-1.34,3.53,0,7.49,2.99,9.58.05.03.1.07.15.1.03.02.06.04.09.06.33.19.66.37,1.02.51ZM341.36,464.31c1.53-4.08,6.05-6.03,10.06-4.37.53.22,1.02.49,1.48.8,3.19,2.03,4.63,6.12,3.25,9.75-1.53,4.08-6.04,6.04-10.07,4.37-.52-.22-1.01-.49-1.47-.8-3.18-2.03-4.63-6.12-3.25-9.75Z" fill="#fff"></path><path d="M193.08,374.11c-4.5-.94-8.88,2.11-9.78,6.82l-17.49,91.32v4.62s0,4.58-2.17,9.1c.31,2.63,1.79,4.95,3.94,6.32.73.43,1.54.76,2.42.94l48.86,10.23c4.5.94,8.88-2.1,9.78-6.81l19.58-102.22c.69-3.61-.88-7.15-3.68-9.02-.06-.04-.12-.08-.18-.11-.03-.02-.07-.04-.1-.06-.71-.4-1.49-.71-2.32-.88l-48.85-10.24ZM206.08,483.16c-.9,4.7-5.28,7.75-9.78,6.81-1.13-.24-2.15-.7-3.04-1.33-2.82-1.87-4.4-5.41-3.71-9.04.91-4.7,5.29-7.75,9.79-6.8,1.12.24,2.15.7,3.04,1.33,2.81,1.87,4.4,5.41,3.71,9.04Z" fill="#fff"></path><path d="M150.28,414.44c-.49-.09-.89-.13-1.12-.15-.09-.01-.16-.01-.19-.01H48.45c-2.73,0-4.22.7-5.05,1.29-.89.63-1.58,1.53-2.13,2.71-.56,1.21-.88,2.52-1.05,3.62-.09.52-.12.94-.15,1.18,0,.12,0,.18-.01.22v53.57c0,2.91.66,4.49,1.21,5.37.44.7,1.01,1.28,1.72,1.77,0,0,0,0,0,0,.06.04.12.08.19.12.13.08.26.16.4.23,1.14.6,2.37.95,3.39,1.13.49.09.88.13,1.12.14.09,0,.15,0,.19,0h100.53c2.72,0,4.21-.69,5.05-1.28.46-.33.87-.74,1.23-1.22.05-.62.13-1.24.26-1.86l1.83-9.61v-48.61c0-2.9-.65-4.49-1.21-5.38-.42-.67-.98-1.24-1.66-1.73-.2-.13-.41-.27-.64-.39-1.13-.61-2.36-.95-3.39-1.13Z" fill="#fff"></path><path d="M383.28,512.48h108.99c6.94,0,12.57-6.01,12.57-13.41h-134.13c0,7.4,5.62,13.41,12.56,13.41Z" fill="#be303e"></path><path d="M492.15,408.5c-.16-.15-.32-.3-.49-.44-2.13-1.8-4.84-2.88-7.77-2.88h-92.22c-6.93,0-12.57,6.02-12.57,13.42v12.29c-1.65-2.09-3.83-3.78-6.42-4.85l-87.37-36.18c-8.05-3.33-17.07.58-20.15,8.74l-18.78,49.6,9.98-52.07c1.81-9.41-4.03-18.56-13.01-20.45l-52.88-10.24c-8.99-1.89-13.74,4.22-15.54,13.62l-9.35,48.8v-4.79c0-17.89-16.77-17.89-16.77-17.89H48.21c-5.54,0-9.24,1.95-11.72,4.56-.13.13-.25.27-.37.4-1.32,1.49-2.26,3.16-2.94,4.8-.09.23-.18.46-.26.69-1.33,3.75-1.33,7.03-1.33,7.03v29.65c-.05-.04-.1-.08-.15-.12v24.53c0,17.88,16.77,17.88,16.77,17.88h33.54c0,5.96-.7,10.43-2.11,13.41h-6.28c-2.32,0-4.2,2-4.2,4.47h58.7c0-2.47-1.9-4.47-4.2-4.47h-6.28c-1.41-2.98-2.11-7.45-2.11-13.41h33.54c3.31,0,5.99-.7,8.12-1.82,2.25,4.48,6.33,7.89,11.44,8.96l48.86,10.25c9,1.88,17.75-4.23,19.54-13.64l5.77-30.06c1.4,4.45,4.67,8.28,9.24,10.17l87.37,36.18c8.05,3.34,17.07-.58,20.16-8.74l19.79-52.3v41h117.36v-76c0-4.03-1.66-7.65-4.31-10.1ZM41.03,482.09c-.55-.88-1.21-2.46-1.21-5.37v-53.57s.01-.1.01-.22c.03-.24.06-.66.15-1.18.17-1.1.49-2.41,1.05-3.62.55-1.18,1.24-2.08,2.13-2.71.84-.59,2.33-1.29,5.05-1.29h100.53s.1,0,.19.01c.23.02.63.06,1.12.15,1.02.18,2.25.52,3.39,1.13.22.12.43.24.63.38.07.04.13.08.19.12.02.01.03.03.05.04.69.49,1.24,1.06,1.66,1.73.56.89,1.21,2.48,1.21,5.38v48.61l-1.83,9.61c-.13.62-.21,1.24-.26,1.86-.36.48-.77.89-1.23,1.22-.84.59-2.33,1.28-5.05,1.28H48.28s-.1,0-.19,0c-.24-.01-.63-.05-1.12-.14-1.02-.18-2.25-.53-3.39-1.13-.14-.07-.27-.15-.4-.23-.07-.04-.13-.08-.19-.12,0,0,0,0,0,0-.82-.52-1.47-1.16-1.96-1.93ZM167.2,492.05c-2.08-1.37-3.49-3.66-3.8-6.23,2.18-4.52,2.18-9.1,2.18-9.1v-4.62l17.49-91.32c.9-4.71,5.28-7.76,9.78-6.82l48.85,10.24c.93.2,1.79.55,2.56,1.03.03.02.07.04.1.06.05.03.1.05.14.09.01,0,.02.02.04.03,2.81,1.87,4.37,5.41,3.68,9.02l-19.58,102.22c-.9,4.71-5.28,7.75-9.78,6.81l-48.86-10.23c-.88-.19-1.68-.51-2.42-.94-.02-.01-.04-.02-.06-.03-.11-.07-.22-.13-.32-.21ZM253.32,470.41s-.08-.05-.12-.08c-3.08-2.05-4.46-6.08-3.11-9.65l22.35-59.07c1.55-4.08,6.06-6.04,10.08-4.37l87.37,36.19c.46.19.9.42,1.31.69.08.06.16.11.24.17.02.01.04.03.07.04,2.91,2.1,4.19,6.01,2.87,9.49l-22.36,59.07c-1.54,4.08-6.05,6.04-10.07,4.37l-87.37-36.18c-.36-.14-.69-.32-1.02-.51-.01,0-.03-.01-.04-.02-.02-.01-.03-.02-.05-.04-.05-.03-.1-.07-.15-.1ZM387.48,418.6c0-2.48,1.88-4.47,4.19-4.47h92.22c.82,0,1.59.25,2.23.69.05.02.1.06.15.09.03.02.05.04.07.06,1.05.82,1.74,2.12,1.74,3.63v67.05h-100.6v-67.05Z" fill="#be303e"></path><path d="M344.61,474.06c.39.25.8.47,1.23.65,4.03,1.67,8.54-.29,10.07-4.37,1.35-3.54.01-7.52-3.01-9.6-.46-.31-.95-.59-1.48-.8-4.01-1.66-8.53.29-10.06,4.37-1.38,3.63.07,7.72,3.25,9.75Z" fill="#be303e"></path><path d="M205.85,483.01c.67-3.52-.8-6.98-3.48-8.89-.89-.64-1.91-1.1-3.04-1.33-4.5-.95-8.88,2.1-9.79,6.8-.69,3.63.89,7.18,3.71,9.04.84.56,1.78.97,2.81,1.18,4.5.94,8.88-2.11,9.78-6.81Z" fill="#be303e"></path><path d="M90.29,230.86c0-18.65-14.43-33.77-32.23-33.77s-32.21,15.12-32.21,33.77,14.43,33.77,32.21,33.77,32.23-15.12,32.23-33.77ZM69.05,219.48c-.51-.53-.64-1.31-.38-1.97.08-.22.21-.43.38-.6.6-.61,1.51-.69,2.2-.23.1.07.19.14.28.23l12.21,12.67c.35.36.52.82.52,1.28s-.17.92-.52,1.28l-12.21,12.66c-.6.62-1.52.7-2.2.23-.1-.07-.19-.14-.28-.23-.68-.7-.68-1.86,0-2.56l10.98-11.38-10.98-11.38ZM47.09,242.24c.43.44.58,1.05.48,1.62-.07.35-.23.68-.48.94-.6.62-1.52.7-2.2.23-.1-.07-.19-.14-.28-.23l-12.22-12.66c-.34-.36-.51-.82-.51-1.28s.17-.92.51-1.28l12.22-12.67c.6-.61,1.51-.69,2.2-.23.1.07.19.14.28.23.68.71.68,1.86,0,2.57l-10.99,11.38,10.99,11.38ZM50.57,256.1c-.12-.04-.23-.09-.33-.14-.71-.4-1.07-1.29-.83-2.12l2.57-8.67,11.39-38.36c.28-.95,1.26-1.49,2.18-1.2.12.04.23.09.33.14.72.4,1.08,1.29.83,2.13l-2.47,8.32-11.49,38.7c-.28.96-1.26,1.49-2.19,1.2Z" fill="#dd3845"></path><path d="M69.05,216.91c-.17.17-.3.38-.38.6-.26.66-.13,1.44.38,1.97l10.98,11.38-10.98,11.38c-.68.7-.68,1.86,0,2.56.08.09.18.16.27.23.68.47,1.59.39,2.2-.23l12.21-12.66c.35-.36.52-.82.52-1.28s-.17-.92-.52-1.28l-12.21-12.67c-.09-.09-.18-.16-.28-.23-.68-.46-1.6-.38-2.19.23Z" fill="#fff"></path><path d="M90.67,132.97c0-18.23-14.1-33.02-31.5-33.02s-31.5,14.79-31.5,33.02,14.1,33.02,31.5,33.02,31.5-14.79,31.5-33.02ZM76.71,130.45c.11.83.17,1.67.17,2.52,0,5.89-2.62,11.14-6.71,14.55h0s0,0,0,0l-5.11-12.49,11.65-4.58s0,0,0,0h0ZM52.89,150.34l-6.53,8.21c-.62-.34-1.23-.71-1.82-1.09-4.13-2.71-7.53-6.55-9.8-11.08l7.82-6.84c-.72-2.04-1.13-4.26-1.13-6.57,0-10.26,7.93-18.57,17.72-18.57,3.89,0,7.49,1.32,10.41,3.54.97.74,1.87,1.59,2.68,2.52l-15.06,6.32,3.93,10.31,5.25,12.85c-2.2,1.03-4.64,1.6-7.21,1.6-2.22,0-4.32-.43-6.27-1.2Z" fill="#dd3845"></path><path d="M90.67,331.05c0-18.23-14.1-33.01-31.5-33.01s-31.5,14.78-31.5,33.01,14.1,33.02,31.5,33.02,31.5-14.78,31.5-33.02ZM43.41,344.31v-13.61c0-3.57,2.5-6.01,5.43-6.95v-6.1c0-6.27,4.84-11.36,10.83-11.36,2.24,0,4.32.72,6.05,1.94,2.88,2.04,4.76,5.5,4.76,9.42v6.1c.73.24,1.44.56,2.08.98,1.94,1.25,3.35,3.29,3.35,5.97v13.61c0,4.63-4.24,7.37-8.12,7.37h-16.24c-1.71,0-3.48-.53-4.93-1.5-1.87-1.26-3.21-3.26-3.21-5.87Z" fill="#dd3845"></path><path d="M70.17,147.52h0c4.09-3.4,6.71-8.65,6.71-14.54,0-.85-.06-1.69-.17-2.52h0s-11.65,4.58-11.65,4.58l5.11,12.48Z" fill="#fff"></path><path d="M67.79,351.68c3.88,0,8.12-2.74,8.12-7.37v-13.61c0-2.68-1.41-4.72-3.35-5.97-.65-.42-1.35-.75-2.08-.98h0v-6.1c0-3.92-1.89-7.38-4.76-9.42-1.72-1.22-3.8-1.94-6.05-1.94-5.99,0-10.83,5.09-10.83,11.36v6.1c-2.93.94-5.43,3.38-5.43,6.95v13.61c0,2.6,1.34,4.61,3.21,5.87,1.45.98,3.23,1.5,4.93,1.5h16.24ZM54.24,317.65c0-3.14,2.44-5.68,5.43-5.68s5.41,2.54,5.41,5.68v5.66h-10.84v-5.66Z" fill="#fff"></path><path d="M61.12,137.09l-3.93-10.31,15.06-6.32c-.81-.93-1.71-1.78-2.68-2.52-2.92-2.23-6.52-3.54-10.41-3.54-9.79,0-17.72,8.31-17.72,18.57,0,2.31.41,4.53,1.13,6.57l-7.82,6.84c2.27,4.53,5.66,8.37,9.79,11.08.59.39,1.2.75,1.82,1.09l6.53-8.21c1.95.77,4.05,1.2,6.27,1.2,2.57,0,5.01-.57,7.21-1.6l-5.25-12.85ZM52.93,132c.41-.15.84,0,1.1.34.26.35.27.83.04,1.2l-2.35,3.69,3.19-1.11c.4-.14.84,0,1.09.36.26.34.27.82.04,1.19l-2.34,3.69,3.18-1.11.62,1.95-5.91,2.07c-.39.14-.84,0-1.09-.36-.25-.34-.28-.83-.04-1.2l2.35-3.68-3.19,1.11c-.39.14-.83,0-1.09-.35-.25-.36-.27-.84-.03-1.2l2.34-3.69-3.18,1.12-.63-1.96,5.9-2.06Z" fill="#fff"></path><path d="M66.72,207.88c.25-.84-.11-1.73-.83-2.13-.1-.06-.21-.11-.33-.14-.92-.29-1.9.25-2.18,1.2l-11.39,38.36-2.57,8.67c-.24.83.11,1.71.82,2.12.1.06.21.11.33.14.93.29,1.91-.24,2.19-1.2l11.49-38.7,2.47-8.32Z" fill="#fff"></path><path d="M65.08,317.65c0-3.14-2.42-5.68-5.41-5.68s-5.43,2.54-5.43,5.68v5.66h10.84v-5.66Z" fill="#dd3845"></path><path d="M50.84,134.9l-2.34,3.69c-.24.36-.22.84.03,1.2.26.35.7.49,1.09.35l3.19-1.11-2.35,3.68c-.24.37-.21.86.04,1.2.25.35.7.5,1.09.36l5.91-2.07-.62-1.95-3.18,1.11,2.34-3.69c.23-.37.22-.85-.04-1.19-.25-.36-.69-.5-1.09-.36l-3.19,1.11,2.35-3.69c.23-.37.22-.85-.04-1.2-.26-.34-.69-.49-1.1-.34l-5.9,2.06.63,1.96,3.18-1.12Z" fill="#dd3845"></path><path d="M47.09,216.91c-.09-.09-.18-.16-.28-.23-.68-.46-1.6-.38-2.19.23l-12.22,12.67c-.34.36-.51.82-.51,1.28s.17.92.51,1.28l12.22,12.66c.08.09.18.16.27.23.68.47,1.59.39,2.2-.23.25-.26.41-.59.48-.94.1-.57-.05-1.18-.48-1.62l-10.99-11.38,10.99-11.38c.68-.71.68-1.86,0-2.57Z" fill="#fff"></path><path fill="#b63031" d="M268.13 139.5L268.13 139.51 345.07 301.12 318.81 300.57 318.81 300.57 302.65 263.78 302.65 263.78 267.95 263.78 267.95 352.26 267.99 352.28 367.35 300.45 386.51 156.43 267.99 118.28 267.95 118.29 267.95 139.89 268.13 139.5z"></path><path d="M148.81,405.18s16.77,0,16.77,17.89v4.79l9.35-48.8c1.8-9.4,6.55-15.51,15.54-13.62l52.88,10.24c8.98,1.89,14.82,11.04,13.01,20.45l-9.98,52.07,18.78-49.6c3.08-8.16,12.1-12.07,20.15-8.74l87.37,36.18c2.59,1.07,4.77,2.76,6.42,4.85v-12.29c0-7.4,5.64-13.42,12.57-13.42h92.22c2.93,0,5.64,1.08,7.77,2.88v-3.13c0-5.76-2.81-10.83-7.09-13.79v-22.66c13.91-6.36,23.63-20.91,23.63-37.83s-9.72-31.46-23.63-37.83v-23.38c13.91-6.36,23.63-20.91,23.63-37.83s-9.72-31.46-23.63-37.84v-23.37c13.91-6.37,23.63-20.91,23.63-37.83,0-22.8-17.63-41.28-39.38-41.28-8.28,0-15.97,2.69-22.31,7.27H81.64c-6.34-4.58-14.04-7.27-22.31-7.27-21.75,0-39.38,18.48-39.38,41.28,0,16.92,9.72,31.46,23.62,37.83v23.37c-13.9,6.38-23.62,20.91-23.62,37.84s9.72,31.47,23.62,37.83v23.38c-13.9,6.37-23.62,20.91-23.62,37.83s9.72,31.47,23.62,37.83v22.66c-4.27,2.96-7.08,8.03-7.08,13.79v4.81c2.48-2.61,6.18-4.56,11.72-4.56h100.6ZM468.67,99.95c17.4,0,31.5,14.79,31.5,33.02s-14.1,33.02-31.5,33.02-31.5-14.79-31.5-33.02,14.1-33.02,31.5-33.02ZM456.41,201.59c3.77-1.67,7.91-2.6,12.26-2.6,17.4,0,31.5,14.79,31.5,33.02s-14.1,33.02-31.5,33.02c-4.35,0-8.49-.92-12.26-2.59-11.31-5.02-19.24-16.75-19.24-30.43s7.93-25.41,19.24-30.42ZM468.67,298.04c8.16,0,15.58,3.25,21.18,8.58,6.34,6.03,10.32,14.75,10.32,24.43s-3.98,18.4-10.32,24.44c-5.6,5.34-13.02,8.58-21.18,8.58-17.4,0-31.5-14.78-31.5-33.02s14.1-33.01,31.5-33.01ZM267.95,118.29h.04s118.52,38.14,118.52,38.14l-19.16,144.02-99.36,51.83-.04-.02-97.72-51.14-17.72-144.01,115.44-38.82ZM27.67,132.97c0-18.23,14.1-33.02,31.5-33.02s31.5,14.79,31.5,33.02-14.1,33.02-31.5,33.02-31.5-14.79-31.5-33.02ZM25.85,230.86c0-18.65,14.43-33.77,32.21-33.77s32.23,15.12,32.23,33.77-14.43,33.77-32.23,33.77-32.21-15.12-32.21-33.77ZM27.67,331.05c0-18.23,14.1-33.01,31.5-33.01s31.5,14.78,31.5,33.01-14.1,33.02-31.5,33.02-31.5-14.78-31.5-33.02Z" fill="#fff"></path><path fill="#e23337" d="M267.95 352.26L267.95 263.78 236.73 263.78 221.86 300.21 194.31 300.75 194.31 300.75 267.95 139.89 267.95 118.29 152.51 157.11 170.23 301.12 267.95 352.26z"></path><path fill="#b63031" d="M267.95 192.11L267.95 242.49 293.29 242.49 268.31 191.27 267.95 192.11z"></path><path fill="#e23337" d="M246.46 242.49L267.95 242.49 267.95 192.11 246.46 242.49z"></path></g></g></svg>