<?xml version="1.0" encoding="UTF-8"?>
<svg id="Layer_1" xmlns="http://www.w3.org/2000/svg" version="1.1" xmlns:xlink="http://www.w3.org/1999/xlink" viewBox="0 0 160 160">
  <!-- Generator: Adobe Illustrator 29.8.2, SVG Export Plug-In . SVG Version: 2.1.1 Build 3)  -->
  <defs>
    <style>
      .st0 {
        fill: url(#linear-gradient2);
      }

      .st1 {
        fill: #135da3;
      }

      .st2 {
        fill: #c5ced5;
      }

      .st3 {
        fill: url(#linear-gradient1);
      }

      .st4 {
        fill: #0997c8;
      }

      .st5 {
        fill: #0a80b9;
      }

      .st6 {
        fill: #afbdca;
      }

      .st7 {
        fill: #fdfeff;
      }

      .st8 {
        fill: #ec7d3b;
      }

      .st9 {
        fill: #133475;
      }

      .st10 {
        fill: #d9e5ea;
      }

      .st11 {
        fill: url(#linear-gradient);
      }
    </style>
    <linearGradient id="linear-gradient" x1="126.5356" y1="40.3298" x2="61.3007" y2="122.8013" gradientUnits="userSpaceOnUse">
      <stop offset="0" stop-color="#9edbee"/>
      <stop offset=".4272" stop-color="#1ab4da"/>
      <stop offset=".479" stop-color="#0eacd5"/>
      <stop offset="1" stop-color="#1c589f"/>
    </linearGradient>
    <linearGradient id="linear-gradient1" x1="93.6945" y1="51.563" x2="31.3171" y2="116.2102" gradientUnits="userSpaceOnUse">
      <stop offset="0" stop-color="#205ea1"/>
      <stop offset=".4971" stop-color="#0d8fc2"/>
      <stop offset="1" stop-color="#19589f"/>
    </linearGradient>
    <linearGradient id="linear-gradient2" x1="102.221" y1="52.6195" x2="58.2405" y2="103.1454" gradientUnits="userSpaceOnUse">
      <stop offset="0" stop-color="#0ba8d5"/>
      <stop offset="1" stop-color="#12549e"/>
    </linearGradient>
  </defs>
  <g id="Generative_Object">
    <path class="st10" d="M57.5414,145.4284c19.1049-.2971,38.8034-.2568,57.899.2596,8.0814.2185,16.2748.3759,24.276,1.428-8.6286,1.0395-17.3962,1.2109-26.0935,1.428-22.1635.5532-45.0827.558-67.2459,0-6.5236-.1642-14.9919.0071-21.2902-.7789-1.0388-.1296-2.0085-.2255-2.7262-.9087,11.5417-.935,23.4944-1.2463,35.1808-1.428Z"/>
    <path class="st1" d="M80,12.7541l.2596,24.6655c-2.8754-.0337-6.1322.7363-8.9575,1.2982l-.5193-5.9716-33.8826,19.992,34.0124-20.9008-.3895-9.2171c-4.3932,2.7736-9.3111,4.6214-13.8906,7.0102-.5344-3.6859-2.2987-2.0916-4.6735-1.0385l28.0408-15.8378Z"/>
    <path class="st4" d="M50.6611,33.0058c-8.6601,4.5454-18.6567,11.0223-27.3917,14.7993-.6513.2816-1.251.3093-1.9473.2596-.1527-1.8181,1.4014-2.9256,2.7262-3.8946,3.0322-2.2177,20.6377-12.2893,23.7568-13.2415,1.9344-.5905,2.2651-.0522,2.856,2.0771Z"/>
    <path class="st5" d="M56.6327,29.6305c-1.9778,1.0317-3.9321,2.3048-5.9716,3.3753-.5909-2.1293-.9216-2.6676-2.856-2.0771,1.2325-1.0403,2.6943-1.6893,4.1542-2.3367,2.3748-1.0531,4.1391-2.6473,4.6735,1.0385Z"/>
    <path class="st1" d="M89.0873,124.9171c-2.9394,1.6118-5.7147,3.6187-8.8276,4.9331-3.0921-1.9737-10.8164-3.7862-8.8276-8.568,1.0316.4618,8.2797,1.0562,9.7364,1.0385,2.3505-.0284,4.9434-.6649,7.2698-1.0385l.6491,3.6349Z"/>
    <path class="st9" d="M91.424,123.3593c-.0436,1.0302-1.5757,1.1405-2.3367,1.5578l-.6491-3.6349c-2.3264.3737-4.9194,1.0101-7.2698,1.0385-1.4567.0176-8.7048-.5767-9.7364-1.0385-.1713-.0767-.171-.995-.7789-.7789.0337-.5878-.1431-3.1702.1298-3.3753,6.2081,1.2062,12.2345,1.4434,18.4342,0l.1298,6.8804.5193.2596c.4335-.4205,1.0198-.6703,1.5578-.9087Z"/>
    <g>
      <path class="st11" d="M78.4422,144.1303l1.5578.1298.2596-14.4098c3.113-1.3144,5.8882-3.3213,8.8276-4.9331.7611-.4173,2.2931-.5276,2.3367-1.5578,7.4855-3.3172,24.5253-12.4842,31.0266-17.136.9029-.6461,1.8428-1.2455,2.4665-2.2069l.2596-49.0713-1.6876-2.2069-33.4931-19.4728-.5193,5.4524c-.3792.2699-7.9528-1.2833-9.2171-1.2982l-.2596-24.6655c15.8178,8.7222,32.0307,17.2948,47.6433,26.4829,1.9017,1.1192,10.1078,5.567,10.7749,6.8804,1.2048,21.2846.1791,43.1482.5193,64.6495-.7235,1.6753-2.0923,2.5265-3.5051,3.5051-15.9693,11.0615-37.1825,18.998-53.4852,30.1179l-2.0771.7789-1.428-1.0385Z"/>
      <path class="st5" d="M102.5884,30.9287c-2.2956-1.0612-1.4151,1.3473-2.856,2.3367-.3855-.339-1.5236-.8253-1.5578-.9087-.1512-.3691.8473-3.3909,1.1684-3.5051,1.0026.5821,2.6579.9591,3.2455,2.0771Z"/>
      <path class="st7" d="M102.5884,30.9287c.9312,1.7719.3982,2.3581-.6491,3.8946-.9905-.1871-1.5251-.9584-2.2069-1.5578,1.4409-.9894.5604-3.3979,2.856-2.3367Z"/>
      <g>
        <path class="st7" d="M93.1117,25.2167c4.5544,1.1036,4.3426,2.5217,2.856,6.4909-3.2006-1.62-5.7302-2.8792-2.856-6.4909Z"/>
        <path class="st4" d="M93.6309,26.7745c1.4677-.5639,2.9819,2.3355,1.2982,2.856-1.6879.5218-2.8285-2.268-1.2982-2.856Z"/>
      </g>
    </g>
    <g>
      <path class="st3" d="M36.9003,52.7381c-1.2576.6915-1.6443,1.9729-2.0771,3.2455l.2596,47.7732,1.6876,1.9473,33.4931,18.4342c.686-.0884.3526-2.9928.3895-3.6349.6079-.216.6076.7022.7789.7789-1.9888,4.7818,5.7356,6.5943,8.8276,8.568l-.2596,14.4098-1.5578-.1298c-16.649-10.765-38.035-19.0466-54.1342-30.1179-1.0557-.726-2.051-1.308-2.7262-2.4665l-.2596-63.4812c.6962.0497,1.296.022,1.9473-.2596,8.735-3.777,18.7316-10.2539,27.3917-14.7993,2.0395-1.0705,3.9939-2.3436,5.9716-3.3753,4.5795-2.3888,9.4974-4.2366,13.8906-7.0102l.3895,9.2171-34.0124,20.9008Z"/>
      <path class="st2" d="M70.1338,132.187c.0253.8303-.1228,3.2434-1.1684,3.3753-.3904.0492-5.4492-3.0512-5.5822-3.5051-.1016-.3467.1901-1.1977.2596-1.6876.9076,1.1807.1043-.497.9087-.5193.2092-.0058,3.0843,2.178,3.6349,2.0771.8344-.153.4427-1.1851,1.8175-1.2982.246.1637.1197,1.2275.1298,1.5578Z"/>
      <path class="st7" d="M62.0851,127.2539c-2.7361-.4673-3.1882-2.8433-4.6735.7789-.8611-1.1632.4581-4.0825,1.1684-5.4524,3.668.942,4.2568,1.0194,3.5051,4.6735Z"/>
      <path class="st6" d="M62.0851,127.2539c-.2194,1.0665-.3472,2.1501-.9087,3.1156-.2909.1221-3.4333-1.889-3.7647-2.3367,1.4853-3.6222,1.9374-1.2463,4.6735-.7789Z"/>
      <g>
        <path class="st7" d="M70.1338,132.187c-.0101-.3303.1161-1.3941-.1298-1.5578-1.3747.1131-.983,1.1452-1.8175,1.2982-.5506.1009-3.4257-2.0829-3.6349-2.0771-.8044.0222-.0012,1.7-.9087.5193.0572-.4029,1.1521-3.8715,1.2982-4.0244.8416-.8809,5.1097,1.7774,5.4524,2.5964.106.2534.5755,3.1916-.2596,3.2455Z"/>
        <path class="st8" d="M66.6287,127.5135c1.5574-.3129,2.1914,3.0271.7789,3.3753-1.808.4457-2.034-3.1231-.7789-3.3753Z"/>
      </g>
    </g>
    <g>
      <path class="st7" d="M80.2596,37.4196c1.2643.0148,8.8379,1.5681,9.2171,1.2982l.5193-5.4524,33.4931,19.4728,1.6876,2.2069-.2596,49.0713c-.6237.9614-1.5636,1.5609-2.4665,2.2069-6.5013,4.6518-23.541,13.8188-31.0266,17.136-.538.2384-1.1244.4882-1.5578.9087l-.5193-.2596-.1298-6.8804c-6.1997,1.4434-12.2261,1.2062-18.4342,0-.2729.2051-.0961,2.7874-.1298,3.3753-.0368.6421.2965,3.5465-.3895,3.6349l-33.4931-18.4342-1.6876-1.9473-.2596-47.7732c.4328-1.2726.8195-2.554,2.0771-3.2455l33.8826-19.992.5193,5.9716c2.8253-.5618,6.0821-1.3319,8.9575-1.2982Z"/>
      <g>
        <path class="st0" d="M77.7931,40.7949c48.3906-2.7913,53.1909,70.518,5.4524,73.9965-50.1273,3.6525-53.3008-71.2365-5.4524-73.9965Z"/>
        <path class="st7" d="M104.9251,74.5476c.567,2.2424-1.7356,2.7624-2.9858,3.8946-4.3263,1.6481-32.093,19.5927-34.0124,19.2131-.1975-.0391-1.3459-1.4093-1.428-1.6876l.5193-41.4121c1.3982-.3118,3.1099.8765,4.5436,1.5578,4.6867,2.2273,31.0264,16.0252,33.3633,18.4342Z"/>
        <path class="st10" d="M67.0182,54.5556l-.5193,41.4121c.0821.2783,1.2305,1.6486,1.428,1.6876,1.9194.3796,29.6861-17.5651,34.0124-19.2131,1.2502-1.1322,3.5528-1.6521,2.9858-3.8946,1.3516,1.3932,1.8613,2.5162.7789,4.4138l-36.2193,22.5884c-1.4151.6533-2.6601.9702-3.7647-.2596-.5588-.6222-.401-1.0787-.7789-1.6876l.2596-43.619c.5842-1.0533.7733-1.1952,1.8175-1.428Z"/>
        <path class="st1" d="M65.72,101.2902c1.1046,1.2298,2.3497.913,3.7647.2596l36.2193-22.5884c.8337,1.3609.8601,3.415-.3895,4.4138-11.6156,5.5462-24.1251,16.8014-35.5702,21.8095-1.3655.5975-2.4309,1.3223-3.8946.2596-1.0218-.7419-1.5921-3.6073-.1298-4.1542Z"/>
      </g>
    </g>
  </g>
</svg>