<?xml version="1.0" encoding="UTF-8"?><svg id="a" xmlns="http://www.w3.org/2000/svg" viewBox="0 0 528 528"><path d="M212.58,277.02c-4.33,3.24-10.22,4.85-17.67,4.85-11.65,0-20.07-2.39-25.26-7.18-5.19-4.79-7.78-12.23-7.78-22.32h-45.24c0,12.42,3.1,23.4,9.32,32.93,6.21,9.53,15.47,17.04,27.76,22.51,12.29,5.48,26.03,8.22,41.19,8.22,21.51,0,38.43-4.7,50.77-14.1,12.34-9.4,18.51-22.34,18.51-38.82,0-20.62-10.11-36.79-30.33-48.52-8.31-4.83-18.94-9.34-31.87-13.52-12.94-4.18-21.98-8.24-27.12-12.16-5.14-3.92-7.71-8.3-7.71-13.13,0-5.52,2.33-10.07,7-13.65,4.67-3.58,11.03-5.37,19.09-5.37s14.29,2.11,18.96,6.34c4.67,4.23,7,10.18,7,17.86h44.98c0-11.47-2.96-21.67-8.87-30.6-5.91-8.93-14.2-15.81-24.87-20.64-10.67-4.83-22.73-7.25-36.18-7.25s-26.22,2.22-37.27,6.66c-11.05,4.44-19.6,10.65-25.64,18.63-6.04,7.98-9.06,17.19-9.06,27.63,0,20.96,12.12,37.44,36.37,49.43,7.45,3.71,17.05,7.55,28.79,11.52,11.74,3.97,19.94,7.81,24.61,11.52,4.67,3.71,7,8.89,7,15.53,0,5.87-2.17,10.42-6.49,13.65Z" style="fill:none;"/><path d="M387.92,496.15h96.03c6.12,0,11.08-6,11.08-13.41h-118.19c0,7.4,4.95,13.41,11.07,13.41Z" style="fill:none;"/><path d="M198.48,456.46c-4.49-.94-8.86,2.11-9.77,6.81-.9,4.7,2.02,9.28,6.51,10.23s8.86-2.11,9.76-6.81c.9-4.7-2.02-9.28-6.5-10.23Z" style="fill:none;"/><path d="M421.49,58.71c0-10.74-41.23-6.73-51.18-4.13l-183.12,11.39h234.3v-7.26Z" style="fill:none;"/><path d="M401.35,227.56c4.57-7.48,6.86-16.9,6.86-28.27,0-15.71-5.43-27.86-16.29-36.46-10.86-8.6-25.92-12.9-45.18-12.9h-63.92v163.52h39.16v-57.84h21.2l28.67,57.84h41.94v-1.69l-33.91-66.02c9.74-4.64,16.9-10.7,21.47-18.17ZM363.53,219.37c-3.76,3.94-9.35,5.91-16.79,5.91h-24.76v-45.03h24.76c7.36,0,12.94,2.01,16.73,6.02,3.79,4.02,5.69,9.55,5.69,16.61s-1.88,12.55-5.63,16.49Z" style="fill:none;"/><path d="M241.86,441.34l2.09-5.53-2.09,5.54c-1.33,3.51-1.33,7.24-.27,10.62l3.84-20.08h0s9.96-52.08,9.96-52.08c1.8-9.41-4.02-18.56-12.99-20.45l-52.77-10.24c-8.97-1.89-13.71,4.21-15.51,13.62l-9.33,48.8v-4.79c0-17.89-16.74-17.89-16.74-17.89H47.65c-5.81,0-9.6,2.15-12.07,4.96-4.67,5.3-4.67,12.92-4.67,12.92v53.65c0,17.89,16.74,17.89,16.74,17.89h33.47c0,5.96-.69,10.43-2.09,13.41h-6.27c-2.32,0-4.19,2-4.19,4.47h58.58c0-2.46-1.88-4.47-4.19-4.47h-6.27c-1.4-2.98-2.09-7.45-2.09-13.41h33.47c3.32,0,5.98-.71,8.11-1.83,2.24,4.48,6.33,7.9,11.42,8.96l48.76,10.25c8.98,1.88,17.72-4.22,19.51-13.63l5.75-30.06c-1.06-3.38-1.06-7.11.27-10.63ZM156.41,455.35l-1.84,9.61c-.12.63-.2,1.24-.26,1.86-.36.48-.77.9-1.23,1.22-.83.59-2.32,1.29-5.04,1.29H47.71s-.1,0-.19-.01c-.24-.01-.63-.06-1.12-.15-1.02-.18-2.25-.53-3.38-1.13-1.11-.58-1.95-1.32-2.54-2.27-.55-.88-1.21-2.46-1.21-5.38v-53.57s.01-.1.01-.21c.02-.25.06-.66.15-1.19.17-1.1.49-2.41,1.05-3.62.55-1.18,1.24-2.08,2.13-2.71.83-.59,2.32-1.29,5.04-1.29h100.33s.1,0,.19.01c.24.02.63.06,1.12.15,1.02.18,2.25.53,3.38,1.13,1.1.59,1.95,1.33,2.53,2.27.56.88,1.21,2.48,1.21,5.38v48.61ZM227.73,480.33c-.91,4.7-5.28,7.75-9.77,6.81l-48.76-10.24c-3.57-.75-6.15-3.81-6.59-7.4,2.17-4.52,2.17-9.11,2.17-9.11v-4.61l17.46-91.32c.9-4.7,5.26-7.76,9.76-6.82l48.76,10.25c4.49.94,7.4,5.52,6.5,10.23l-19.53,102.22Z" style="fill:none;"/><path d="M482.49,388.86h-92.04c-6.92,0-12.54,6.01-12.54,13.42v12.29c.81,1.02,1.49,2.14,2.04,3.31-.55-1.17-1.23-2.29-2.04-3.3h0c-1.65-2.09-3.82-3.78-6.41-4.86l-87.2-36.18c-8.03-3.33-17.04.58-20.12,8.74l-18.74,49.6-3.84,20.09c1.4,4.45,4.67,8.28,9.23,10.17l87.2,36.18c8.03,3.34,17.04-.58,20.12-8.74l19.76-52.3h0s2.26-5.99,2.26-5.99l-2.26,5.99v41h117.14v-76c0-4.03-1.67-7.65-4.3-10.1-2.21-2.07-5.1-3.32-8.25-3.32ZM373.18,427.5l-22.31,59.07c-1.53,4.08-6.04,6.04-10.06,4.37l-87.2-36.18c-4.01-1.67-6.01-6.33-4.48-10.4l22.31-59.07c1.55-4.08,6.05-6.04,10.06-4.37l87.2,36.19c4.02,1.66,6.03,6.32,4.48,10.39ZM486.67,469.33h-100.41v-67.05c0-2.48,1.87-4.47,4.18-4.47h92.04c2.32,0,4.19,1.99,4.19,4.47v67.05Z" style="fill:none;"/><path d="M350.28,443.61c-4.01-1.66-8.51.29-10.05,4.37-1.55,4.08.46,8.74,4.47,10.4,4.02,1.67,8.52-.29,10.06-4.37,1.55-4.08-.46-8.74-4.48-10.4Z" style="fill:none;"/><path d="M152.67,399.09c-1.13-.6-2.36-.95-3.38-1.13-.49-.09-.88-.12-1.12-.15-.09-.01-.16-.01-.19-.01H47.65c-2.72,0-4.21.69-5.04,1.29-.88.63-1.58,1.53-2.13,2.71-.56,1.21-.88,2.52-1.05,3.62-.09.53-.12.94-.15,1.19,0,.11,0,.18-.01.21v53.57c0,2.91.66,4.49,1.21,5.38.59.95,1.43,1.69,2.54,2.27,1.13.6,2.36.95,3.38,1.13.49.09.88.13,1.12.15.09.01.16.01.19.01h100.33c2.72,0,4.21-.69,5.04-1.29.46-.32.87-.74,1.23-1.22.06-.62.13-1.23.26-1.86l1.84-9.61v-48.61c0-2.9-.65-4.49-1.21-5.38-.58-.94-1.43-1.68-2.53-2.27Z" style="fill:#fff;"/><path d="M346.74,180.25h-24.76v45.03h24.76c7.44,0,13.03-1.97,16.79-5.91,3.75-3.94,5.63-9.44,5.63-16.49s-1.9-12.59-5.69-16.61c-3.79-4.01-9.37-6.02-16.73-6.02Z" style="fill:#fff;"/><path d="M368.7,417.1l-87.2-36.19c-4.01-1.67-8.51.29-10.06,4.37l-22.31,59.07c-1.53,4.08.47,8.74,4.48,10.4l87.2,36.18c4.02,1.67,8.52-.29,10.06-4.37l22.31-59.07c1.55-4.08-.46-8.74-4.48-10.39ZM354.76,454.02c-1.53,4.08-6.04,6.04-10.06,4.37-4.01-1.67-6.01-6.33-4.47-10.4,1.53-4.08,6.04-6.03,10.05-4.37,4.02,1.67,6.03,6.33,4.48,10.4Z" style="fill:#fff;"/><path d="M468.9,65.57c0-32.23-52.86-60.47-82.69-52.66L57.28,65.61c-25.11,1.18-45.13,22.87-45.13,49.48v353.57c0,26.04,21.31,47.34,47.34,47.34h409.33c26.03,0,47.33-21.3,47.33-47.34V115.09c0-27.35-21.15-49.52-47.25-49.52ZM370.31,54.58c9.95-2.6,51.18-6.61,51.18,4.13v7.26h-234.3l183.12-11.39ZM413.79,311.76v1.69h-41.94l-28.67-57.84h-21.2v57.84h-39.16v-163.52h63.92c19.26,0,34.32,4.3,45.18,12.9,10.86,8.6,16.29,20.76,16.29,36.46,0,11.37-2.29,20.79-6.86,28.27-4.57,7.48-11.73,13.54-21.47,18.17l33.91,66.02ZM212.07,247.84c-4.67-3.71-12.87-7.55-24.61-11.52-11.74-3.97-21.33-7.81-28.79-11.52-24.25-11.99-36.37-28.47-36.37-49.43,0-10.44,3.02-19.65,9.06-27.63,6.04-7.98,14.59-14.19,25.64-18.63,11.05-4.44,23.48-6.66,37.27-6.66s25.51,2.42,36.18,7.25c10.67,4.83,18.96,11.71,24.87,20.64,5.91,8.93,8.87,19.13,8.87,30.6h-44.98c0-7.68-2.34-13.63-7-17.86-4.67-4.23-10.99-6.34-18.96-6.34s-14.42,1.79-19.09,5.37c-4.67,3.58-7,8.13-7,13.65,0,4.83,2.57,9.21,7.71,13.13,5.14,3.93,14.18,7.98,27.12,12.16,12.94,4.19,23.56,8.69,31.87,13.52,20.22,11.73,30.33,27.91,30.33,48.52,0,16.48-6.17,29.42-18.51,38.82-12.34,9.4-29.26,14.1-50.77,14.1-15.17,0-28.9-2.74-41.19-8.22-12.3-5.48-21.55-12.98-27.76-22.51-6.21-9.53-9.32-20.51-9.32-32.93h45.24c0,10.09,2.59,17.53,7.78,22.32,5.18,4.79,13.6,7.18,25.26,7.18,7.45,0,13.34-1.62,17.67-4.85,4.33-3.23,6.49-7.78,6.49-13.65,0-6.64-2.34-11.82-7-15.53ZM483.96,496.15h-96.03c-6.12,0-11.07-6-11.07-13.41h118.19c0,7.4-4.96,13.41-11.08,13.41ZM495.04,436.66v41.62h-117.14v-41l-19.76,52.3c-3.08,8.15-12.08,12.07-20.12,8.74l-87.2-36.18c-4.56-1.89-7.83-5.72-9.23-10.17l-5.75,30.06c-1.79,9.41-10.53,15.51-19.51,13.63l-48.76-10.25c-5.1-1.06-9.18-4.48-11.42-8.96-2.13,1.12-4.79,1.83-8.11,1.83h-33.47c0,5.96.69,10.43,2.09,13.41h6.27c2.31,0,4.19,2,4.19,4.47h-58.58c0-2.46,1.87-4.47,4.19-4.47h6.27c1.4-2.98,2.09-7.45,2.09-13.41h-33.47s-16.74,0-16.74-17.89v-53.65s0-7.63,4.67-12.92c2.48-2.81,6.26-4.96,12.07-4.96h100.4s16.74,0,16.74,17.89v4.79l9.33-48.8c1.8-9.41,6.54-15.51,15.51-13.62l52.77,10.24c8.97,1.89,14.8,11.04,12.99,20.45l-9.96,52.07,18.74-49.6c3.08-8.15,12.08-12.06,20.12-8.74l87.2,36.18c2.59,1.08,4.76,2.77,6.41,4.85v-12.29c0-7.4,5.62-13.42,12.54-13.42h92.04c3.16,0,6.05,1.24,8.25,3.32,2.63,2.45,4.3,6.07,4.3,10.1v34.38Z" style="fill:#fff;"/><path d="M240.77,367.88l-48.76-10.25c-4.49-.94-8.86,2.12-9.76,6.82l-17.46,91.32v4.61s0,4.58-2.17,9.11c.44,3.6,3.01,6.65,6.59,7.4l48.76,10.24c4.49.94,8.86-2.11,9.77-6.81l19.53-102.22c.91-4.7-2-9.28-6.5-10.23ZM204.97,466.69c-.9,4.7-5.26,7.75-9.76,6.81s-7.4-5.52-6.51-10.23c.91-4.7,5.28-7.75,9.77-6.81,4.48.94,7.39,5.52,6.5,10.23Z" style="fill:#fff;"/><polygon points="377.9 437.27 377.9 437.28 380.16 431.28 377.9 437.27" style="fill:#fff;"/><path d="M379.94,417.87c-.55-1.18-1.23-2.29-2.04-3.31h0c.81,1.03,1.49,2.14,2.04,3.31Z" style="fill:#fff;"/><path d="M245.43,431.89l-3.84,20.08c-1.06-3.38-1.06-7.11.27-10.62l2.09-5.54-2.09,5.53c-1.33,3.52-1.33,7.25-.27,10.63l3.84-20.09h0Z" style="fill:#fff;"/><path d="M482.49,397.81h-92.04c-2.31,0-4.18,1.99-4.18,4.47v67.05h100.41v-67.05c0-2.48-1.87-4.47-4.19-4.47Z" style="fill:#fff;"/><polygon points="483.41 39.16 485.79 39.16 485.79 31.06 488.76 31.06 488.76 29.2 480.5 29.2 480.5 31.06 483.41 31.06 483.41 39.16" style="fill:#fff;"/><polygon points="492.17 36.83 491.94 32.07 494.34 39.16 495.92 39.16 498.31 32.08 498.08 36.83 498.08 39.16 500.46 39.16 500.46 29.2 497.33 29.2 495.13 36.13 492.92 29.2 489.79 29.2 489.79 39.16 492.17 39.16 492.17 36.83" style="fill:#fff;"/></svg>