<svg xmlns="http://www.w3.org/2000/svg" viewBox="0 0 528 528"><g fill="#000000" class="jsopx-icon-wrapper"><path d="M516.15,115.09v297.13c0,16.76-7.95,31.58-20.11,40.53v-34.38c0-4.04-1.67-7.65-4.3-10.11v-3.31c0-5.76-2.81-10.83-7.09-13.79v-22.66c13.91-6.36,23.63-20.91,23.63-37.83s-9.72-31.46-23.63-37.83v-23.38c13.91-6.36,23.63-20.91,23.63-37.83s-9.72-31.46-23.63-37.84v-23.37c13.91-6.37,23.63-20.91,23.63-37.83,0-22.8-17.63-41.28-39.38-41.28-8.28,0-15.97,2.69-22.31,7.27H81.72c-6.34-4.58-14.04-7.27-22.31-7.27-21.75,0-39.38,18.48-39.38,41.28,0,16.92,9.72,31.46,23.62,37.83v23.37c-13.9,6.38-23.62,20.91-23.62,37.84s9.72,31.47,23.62,37.83v23.38c-13.9,6.37-23.62,20.91-23.62,37.83s9.72,31.47,23.62,37.83v22.66c-4.27,2.96-7.08,8.03-7.08,13.79v4.96c-4.67,5.3-4.67,12.92-4.67,12.92v29.65c-11.96-8.98-19.75-23.66-19.75-40.26V115.09c0-26.61,20.02-48.3,45.13-49.48L386.21,12.91c29.83-7.81,82.69,20.43,82.69,52.66,26.1,0,47.25,22.17,47.25,49.52ZM421.49,65.97v-7.26c0-10.74-41.23-6.73-51.18-4.13l-183.12,11.39h234.3Z"></path><path d="M370.38,499.24c0,7.4,5.61,13.41,12.54,13.41h108.77c6.93,0,12.56-6,12.56-13.41h-133.87Z"></path><path d="M468.75,166.01c17.4,0,31.51-14.78,31.51-33.02s-14.1-33.02-31.51-33.02-31.49,14.78-31.49,33.02,14.1,33.02,31.49,33.02ZM453.06,132.55c0-2.55.35-4.91,1.04-7.06.71-2.17,1.72-4.05,3.08-5.64,1.36-1.59,3.02-2.82,5.02-3.71,1.98-.9,4.28-1.36,6.89-1.36s4.93.46,6.92,1.36c2,.88,3.68,2.12,5.04,3.71s2.39,3.47,3.08,5.64c.69,2.15,1.04,4.5,1.04,7.06v.68c0,2.53-.35,4.88-1.04,7.06-.69,2.15-1.72,4.03-3.08,5.64-1.36,1.59-3.02,2.82-5.01,3.71-1.99.88-4.29,1.32-6.9,1.32s-4.91-.44-6.92-1.32c-2-.88-3.68-2.12-5.04-3.71-1.36-1.61-2.37-3.49-3.08-5.64-.69-2.17-1.04-4.52-1.04-7.06v-.68Z"></path><path d="M468.75,265.05c17.4,0,31.51-14.78,31.51-33.02s-14.1-33.02-31.51-33.02-31.49,14.78-31.49,33.02,14.1,33.02,31.49,33.02ZM456.43,211.41h8.44l.3,2.81c.68-.9,1.48-1.62,2.36-2.2,1.27-.78,2.76-1.18,4.5-1.18,1.85,0,3.47.36,4.87,1.1,1.41.73,2.6,1.78,3.55,3.16.96,1.36,1.69,2.98,2.18,4.88.48,1.89.72,4,.72,6.32v.59c0,2.22-.24,4.28-.72,6.17-.49,1.9-1.21,3.56-2.16,4.97s-2.13,2.51-3.55,3.29c-1.4.77-3.02,1.16-4.87,1.16-1.74,0-3.24-.4-4.49-1.22-.77-.49-1.47-1.1-2.07-1.83v14.21h-9.07v-42.26Z"></path><path d="M468.75,364.09c17.4,0,31.51-14.78,31.51-33.02s-14.1-33.02-31.51-33.02-31.49,14.78-31.49,33.02,14.1,33.02,31.49,33.02ZM451.82,310.63h10.8l6.41,13.65,6.41-13.65h10.76l-10.92,20.37,11.22,20.7h-10.88l-6.6-13.9-6.6,13.9h-10.9l11.26-20.7-10.96-20.37Z"></path><path d="M464.63,139.91c.43.84,1.01,1.49,1.75,1.96.74.48,1.67.72,2.77.72s1.99-.24,2.71-.72c.74-.47,1.32-1.12,1.76-1.96.43-.86.74-1.86.92-3,.19-1.14.28-2.36.28-3.67v-.68c0-1.27-.09-2.45-.28-3.57-.18-1.14-.49-2.14-.92-3-.44-.88-1.02-1.57-1.76-2.06s-1.66-.74-2.77-.74-2,.25-2.74.74c-.72.49-1.29,1.18-1.71,2.06-.44.86-.74,1.86-.93,3-.18,1.12-.27,2.31-.27,3.57v.68c0,1.31.09,2.53.27,3.67.19,1.14.49,2.14.93,3Z"></path><path d="M469.83,235.17c.86,0,1.58-.21,2.15-.63.57-.43,1.03-1.02,1.38-1.77.34-.77.58-1.66.72-2.65.15-1,.22-2.07.22-3.21v-.59c0-1.19-.09-2.26-.25-3.25-.16-1-.43-1.86-.78-2.59-.34-.74-.8-1.3-1.37-1.7-.58-.39-1.29-.58-2.13-.58-.97,0-1.79.16-2.45.47-.65.3-1.16.77-1.56,1.41-.1.17-.19.34-.27.52v12.04c.3.66.73,1.21,1.27,1.64.75.6,1.77.91,3.07.91Z"></path><path d="M351.12,460.11c-4.01-1.66-8.51.29-10.05,4.37-1.55,4.08.46,8.74,4.47,10.4,4.02,1.67,8.52-.29,10.06-4.37,1.55-4.08-.46-8.74-4.48-10.4Z"></path><path d="M378.74,453.76l2.26-5.98-2.26,5.99v41h117.14v-76c0-4.03-1.67-7.65-4.3-10.1-2.21-2.07-5.1-3.32-8.25-3.32h-92.04c-6.92,0-12.54,6.01-12.54,13.42v12.29c.81,1.02,1.49,2.14,2.04,3.31-.55-1.17-1.23-2.29-2.04-3.3h0c-1.65-2.09-3.82-3.78-6.41-4.86l-87.2-36.18c-8.03-3.33-17.04.58-20.12,8.74l-18.74,49.6-3.84,20.09c1.4,4.45,4.67,8.28,9.23,10.17l87.2,36.18c8.03,3.34,17.04-.58,20.12-8.74l19.76-52.3h0ZM387.11,418.77c0-2.48,1.87-4.47,4.18-4.47h92.04c2.32,0,4.19,1.99,4.19,4.47v67.05h-100.41v-67.05ZM374.03,443.99l-22.31,59.07c-1.53,4.08-6.04,6.04-10.06,4.37l-87.2-36.18c-4.01-1.67-6.01-6.33-4.48-10.4l22.31-59.07c1.55-4.08,6.05-6.04,10.06-4.37l87.2,36.19c4.02,1.66,6.03,6.32,4.48,10.39Z"></path><path d="M242.71,457.84l2.09-5.53-2.09,5.54c-1.33,3.51-1.33,7.24-.27,10.62l3.84-20.08h0s9.96-52.08,9.96-52.08c1.8-9.41-4.02-18.56-12.99-20.45l-52.77-10.24c-8.97-1.89-13.71,4.21-15.51,13.62l-9.33,48.8v-4.79c0-17.89-16.74-17.89-16.74-17.89H48.49c-5.81,0-9.6,2.15-12.07,4.96-4.67,5.3-4.67,12.92-4.67,12.92v53.65c0,17.89,16.74,17.89,16.74,17.89h33.47c0,5.96-.69,10.43-2.09,13.41h-6.27c-2.32,0-4.19,2-4.19,4.47h58.58c0-2.46-1.88-4.47-4.19-4.47h-6.27c-1.4-2.98-2.09-7.45-2.09-13.41h33.47c3.32,0,5.98-.71,8.11-1.83,2.24,4.48,6.33,7.9,11.42,8.96l48.76,10.25c8.98,1.88,17.72-4.22,19.51-13.63l5.75-30.06c-1.06-3.38-1.06-7.11.27-10.63ZM157.25,471.85l-1.84,9.61c-.12.63-.2,1.24-.26,1.86-.36.48-.77.9-1.23,1.22-.83.59-2.32,1.29-5.04,1.29H48.56s-.1,0-.19-.01c-.24-.01-.63-.06-1.12-.15-1.02-.18-2.25-.53-3.38-1.13-1.11-.58-1.95-1.32-2.54-2.27-.55-.88-1.21-2.46-1.21-5.38v-53.57s.01-.1.01-.21c.02-.25.06-.66.15-1.19.17-1.1.49-2.41,1.05-3.62.55-1.18,1.24-2.08,2.13-2.71.83-.59,2.32-1.29,5.04-1.29h100.33s.1,0,.19.01c.24.02.63.06,1.12.15,1.02.18,2.25.53,3.38,1.13,1.1.59,1.95,1.33,2.53,2.27.56.88,1.21,2.48,1.21,5.38v48.61ZM228.57,496.82c-.91,4.7-5.28,7.75-9.77,6.81l-48.76-10.24c-3.57-.75-6.15-3.81-6.59-7.4,2.17-4.52,2.17-9.11,2.17-9.11v-4.61l17.46-91.32c.9-4.7,5.26-7.76,9.76-6.82l48.76,10.25c4.49.94,7.4,5.52,6.5,10.23l-19.53,102.22Z"></path><path d="M199.32,472.96c-4.49-.94-8.86,2.11-9.77,6.81-.9,4.7,2.02,9.28,6.51,10.23s8.86-2.11,9.76-6.81c.9-4.7-2.02-9.28-6.5-10.23Z"></path><path d="M59.25,166.01c17.39,0,31.49-14.78,31.49-33.02s-14.1-33.02-31.49-33.02-31.51,14.78-31.51,33.02,14.1,33.02,31.51,33.02ZM76.96,132.99c0,5.89-2.62,11.14-6.71,14.55l-5.11-12.49,11.65-4.58c.11.83.17,1.67.17,2.52ZM42.65,139.56c-.73-2.05-1.13-4.27-1.13-6.57,0-10.26,7.93-18.57,17.72-18.57,5.19,0,9.86,2.34,13.09,6.06l-15.06,6.32,3.93,10.32,5.25,12.85c-2.21,1.03-4.65,1.6-7.21,1.6-2.22,0-4.32-.43-6.27-1.2l-6.53,8.21c-4.95-2.72-9.02-6.99-11.61-12.17l7.83-6.83Z"></path><path d="M59.25,364.09c17.39,0,31.49-14.78,31.49-33.02s-14.1-33.02-31.49-33.02-31.51,14.78-31.51,33.02,14.1,33.02,31.51,33.02ZM43.49,330.72c0-3.56,2.5-6,5.42-6.94v-6.1c0-6.27,4.85-11.36,10.83-11.36s10.82,5.08,10.82,11.36v6.1c2.92.94,5.42,3.38,5.42,6.94v13.62c0,4.63-4.23,7.37-8.12,7.37h-16.24c-3.9,0-8.13-2.74-8.13-7.37v-13.62Z"></path><path d="M58.14,264.65c17.8,0,32.22-15.12,32.22-33.77s-14.43-33.77-32.22-33.77-32.21,15.12-32.21,33.77,14.43,33.77,32.21,33.77ZM69.13,219.5c-.68-.71-.68-1.86,0-2.56.68-.71,1.78-.71,2.46,0l12.22,12.67c.68.71.68,1.85,0,2.55l-12.22,12.67c-.68.71-1.78.71-2.46,0-.68-.71-.68-1.86,0-2.56l10.98-11.38-10.98-11.38ZM49.5,253.86l13.97-47.03c.28-.95,1.25-1.49,2.17-1.2.93.29,1.44,1.31,1.16,2.26l-13.97,47.03c-.28.95-1.25,1.49-2.18,1.2-.92-.29-1.43-1.31-1.15-2.26ZM32.48,229.6l12.22-12.67c.67-.71,1.78-.71,2.46,0,.68.71.68,1.86,0,2.56l-10.99,11.38,10.99,11.38c.68.71.68,1.86,0,2.56-.68.71-1.79.71-2.46,0l-12.22-12.67c-.68-.71-.68-1.85,0-2.55Z"></path><path d="M65.16,317.67c0-3.14-2.42-5.68-5.41-5.68s-5.42,2.54-5.42,5.68v5.67h10.83v-5.67Z"></path><path d="M50.92,134.92l-2.34,3.7c-.24.36-.22.84.03,1.2.26.35.69.49,1.09.35l3.19-1.11-2.35,3.68c-.24.37-.21.85.04,1.2.25.35.69.49,1.09.36l5.91-2.07-.63-1.95-3.18,1.11,2.34-3.68c.24-.37.22-.85-.03-1.2-.26-.36-.69-.49-1.1-.36l-3.18,1.11,2.34-3.68c.24-.37.22-.85-.03-1.2-.26-.35-.69-.49-1.1-.35l-5.9,2.06.63,1.96,3.18-1.12Z"></path><path d="M483.41 39.16L485.79 39.16 485.79 31.06 488.76 31.06 488.76 29.2 480.5 29.2 480.5 31.06 483.41 31.06 483.41 39.16z"></path><path d="M492.17 36.83L491.94 32.07 494.34 39.16 495.92 39.16 498.31 32.08 498.08 36.83 498.08 39.16 500.46 39.16 500.46 29.2 497.33 29.2 495.13 36.13 492.92 29.2 489.79 29.2 489.79 39.16 492.17 39.16 492.17 36.83z"></path><path d="M233.99,231.56c-11.68,0-21.15,9.47-21.15,21.15s9.47,21.15,21.15,21.15,21.15-9.47,21.15-21.15v-19.74c-.04-.78-.67-1.41-1.45-1.45l-19.7.04Z"></path><path d="M234.06,339.87c35.34,1.63,69.6-12.38,93.67-38.31.23-.35-.12-.83-.46-.59-24.43,15.78-52.85,24.25-81.93,24.44-5.97.14-11.28-.34-11.28-.34-38.97-.98-70.18-32.61-70.64-71.58-.16-33.81,23.37-63.13,56.41-70.29,38.63-8.37,76.73,16.16,85.11,54.79,1.47,6.12,2.17,12.39,2.1,18.69.73,15.24-10.83,28.28-26.05,29.39-8.34.39-16.32-3.41-21.27-10.13l-.72-1.17-.71,1.06c-6.74,7.54-16.4,11.82-26.52,11.75-19.48-.13-35.16-16.02-35.03-35.5.13-19.48,16.02-35.16,35.5-35.03h20.26c8.14.06,14.7,6.68,14.69,14.82v24.17c0,8.69,4.23,15.15,13.28,15.15,8.47-.24,12.59-8.58,12.34-18.09-.56-31.19-25.94-56.21-57.13-56.33-31.68-.12-57.46,25.46-57.58,57.14,1.2,27.82,21.67,51.03,49.13,55.69,6.37,1.02,12.83,1.41,19.28,1.16,65.74-.45,121.52-48.37,131.88-113.29h0c4.02-22.68.43-46.04-10.23-66.45-.13-.21-.31-.39-.52-.51-.44-.25-.98-.25-1.42,0-.22.12-.4.3-.53.51-10.49,23.89-31.71,41.38-57.16,47.13-.2.05-.41.03-.6-.04-.4-.14-.67-.5-.71-.92-.01-.2.03-.4.14-.58,6.64-10.32,10.71-22.09,11.86-34.31.02-.23-.03-.45-.15-.65-.24-.4-.7-.61-1.16-.51-.22.05-.42.16-.57.33-14.48,15.86-34.97,24.9-56.44,24.92h-27.19c-18.19.05-35.9,5.9-50.55,16.68-22.1,16.5-35.13,42.47-35.14,70.05-.03,1.25-.04,2.5-.02,3.76.85,46.67,39.37,83.82,86.05,82.97Z"></path></g></svg>