<?xml version="1.0" standalone="no"?>
<!DOCTYPE svg PUBLIC "-//W3C//DTD SVG 20010904//EN"
 "http://www.w3.org/TR/2001/REC-SVG-20010904/DTD/svg10.dtd">
<svg version="1.0" xmlns="http://www.w3.org/2000/svg"
 width="700.000000pt" height="700.000000pt" viewBox="0 0 700.000000 700.000000"
 preserveAspectRatio="xMidYMid meet">
<metadata>
Created by potrace 1.14, written by Peter Selinger 2001-2017
</metadata>
<g transform="translate(0.000000,700.000000) scale(0.100000,-0.100000)"
fill="#000000" stroke="none">
<path d="M5225 6959 c-88 -22 -167 -42 -175 -44 -8 -2 -440 -110 -960 -240
-520 -130 -952 -238 -960 -240 -8 -2 -573 -143 -1255 -313 -682 -171 -1265
-313 -1295 -317 -138 -16 -282 -86 -385 -189 -94 -94 -150 -195 -179 -323 -14
-65 -16 -270 -16 -2115 1 -2177 -1 -2078 48 -2206 44 -114 158 -252 256 -310
l36 -21 0 352 c0 203 4 367 10 388 6 20 27 55 49 78 l39 42 -1 148 -1 147 -55
31 c-117 65 -219 200 -255 338 -25 97 -16 232 22 326 51 128 125 215 238 280
l51 29 0 151 0 150 -63 40 c-120 76 -213 203 -249 339 -13 51 -15 205 -2 255
37 145 142 283 266 350 l48 27 0 155 0 154 -46 24 c-106 54 -202 168 -248 291
-34 91 -40 230 -14 325 92 341 466 504 786 342 l60 -30 2525 -1 2525 0 55 28
c193 97 399 87 567 -26 114 -78 198 -200 229 -332 19 -79 11 -222 -15 -296
-43 -122 -131 -229 -243 -296 l-55 -33 0 -154 0 -153 46 -23 c69 -33 182 -150
220 -228 105 -215 71 -451 -91 -624 -31 -33 -83 -76 -116 -95 l-59 -35 0 -153
-1 -153 37 -19 c157 -80 273 -257 288 -441 16 -205 -100 -425 -272 -515 l-52
-28 0 -148 0 -148 37 -40 c20 -22 42 -57 48 -79 8 -26 12 -152 12 -390 l0
-352 48 32 c139 94 237 237 276 404 14 63 15 271 13 2140 l-2 2070 -28 77
c-65 176 -191 316 -351 388 -98 44 -188 60 -345 60 -78 0 -142 3 -142 8 -1 4
-2 144 -4 312 -2 328 -7 364 -60 485 -76 170 -228 302 -415 360 -31 9 -100 18
-160 20 -96 4 -118 1 -265 -36z m358 -431 c20 -13 45 -36 57 -51 44 -56 48
-89 49 -386 l0 -281 -1622 1 -1622 1 1355 339 c745 187 1364 342 1375 345 11
2 70 18 130 34 137 37 222 36 278 -2z"/>
<path d="M525 5338 c-199 -66 -318 -245 -302 -457 12 -156 126 -309 272 -365
256 -97 538 57 592 324 8 38 3 152 -7 191 -37 137 -147 256 -280 305 -69 25
-202 26 -275 2z m219 -187 c35 -14 86 -50 86 -60 0 -4 -44 -25 -97 -46 -54
-21 -100 -39 -101 -41 -2 -1 24 -68 57 -149 34 -80 61 -150 61 -155 0 -5 -19
-13 -42 -17 -49 -8 -61 -8 -109 1 -32 6 -37 3 -77 -49 l-43 -55 -44 31 c-46
33 -72 60 -101 104 l-18 28 45 38 c24 21 47 39 50 39 3 0 5 39 5 88 -1 66 3
95 17 121 29 52 91 107 139 123 49 17 129 16 172 -1z m153 -254 c-5 -58 -21
-96 -60 -141 l-25 -29 -30 66 c-49 107 -51 99 26 129 96 37 95 37 89 -25z"/>
<path d="M536 4924 c-47 -17 -50 -19 -41 -33 4 -8 13 -8 28 0 21 12 21 12 4
-14 -24 -37 -22 -50 8 -45 29 6 30 5 9 -26 -20 -31 -6 -39 42 -23 45 16 61 43
21 35 l-26 -5 20 28 c22 31 12 45 -23 33 -22 -7 -22 -6 -4 21 24 36 10 46 -38
29z"/>
<path d="M6225 5341 c-80 -22 -143 -61 -200 -122 -46 -49 -99 -147 -110 -204
-7 -36 -7 -150 0 -187 18 -94 98 -208 187 -268 211 -140 496 -74 619 145 17
30 31 56 31 59 0 3 6 27 14 52 18 61 18 145 -1 216 -61 235 -305 374 -540 309z
m225 -199 c34 -13 74 -52 97 -93 14 -26 18 -56 18 -129 0 -89 -2 -98 -30 -140
-41 -60 -99 -91 -175 -94 -68 -3 -138 23 -177 65 -68 74 -75 236 -15 323 57
83 171 111 282 68z"/>
<path d="M6307 5038 c-36 -28 -51 -146 -24 -198 26 -51 94 -59 123 -14 33 49
28 165 -7 203 -22 23 -66 28 -92 9z"/>
<path d="M4419 4896 c-2 -2 -35 -6 -74 -10 -418 -37 -737 -270 -801 -586 -3
-14 -7 -60 -8 -104 -10 -281 136 -495 459 -671 86 -47 217 -101 410 -170 158
-57 168 -60 252 -102 134 -66 189 -132 199 -241 11 -111 -34 -198 -127 -244
-65 -32 -106 -39 -219 -39 -81 1 -105 3 -175 17 -40 9 -115 47 -153 79 -42 35
-89 133 -97 203 -4 31 -8 66 -9 77 -3 19 -12 20 -306 23 -224 2 -306 -1 -311
-9 -16 -26 15 -206 51 -301 11 -31 43 -90 69 -130 146 -221 390 -357 746 -414
59 -10 321 -11 385 -3 36 5 83 12 105 15 129 17 315 95 418 175 167 129 247
307 242 539 -5 211 -71 361 -224 503 -59 54 -159 125 -226 160 -123 63 -222
105 -375 157 -52 17 -104 35 -115 40 -11 4 -36 14 -55 20 -19 7 -72 31 -118
53 -186 90 -249 201 -188 332 52 113 161 164 343 161 87 -1 117 -6 156 -24
109 -49 168 -127 184 -242 l8 -55 308 -3 308 -2 -6 67 c-16 184 -77 322 -198
450 -130 138 -334 236 -557 268 -51 7 -295 16 -301 11z"/>
<path d="M2540 4862 c-7 -3 -10 -315 -10 -910 0 -964 -1 -987 -48 -1079 -48
-93 -123 -135 -235 -132 -40 1 -88 8 -107 16 -89 36 -136 128 -139 271 l-1 42
-310 0 -310 0 -1 -22 c-2 -29 -2 -22 5 -98 28 -293 192 -515 454 -614 141 -53
241 -70 417 -70 177 0 280 20 412 80 206 93 354 250 427 453 27 76 33 101 44
196 6 46 9 1843 3 1865 -1 5 -585 7 -601 2z"/>
<path d="M524 4056 c-156 -44 -277 -169 -317 -327 -13 -50 -15 -145 -3 -198
30 -136 120 -248 252 -312 66 -33 74 -34 185 -34 113 0 117 1 190 37 127 63
208 163 244 303 18 70 19 115 4 187 -28 134 -122 254 -247 315 -64 30 -85 35
-165 39 -61 3 -109 -1 -143 -10z m231 -126 c0 -14 -18 -79 -38 -145 -46 -143
-109 -347 -134 -429 -18 -59 -35 -78 -55 -58 -11 11 9 79 143 505 41 128 54
158 67 155 11 -2 17 -13 17 -28z m-264 -149 c-5 -9 -33 -39 -63 -67 -103 -98
-102 -81 -8 -173 70 -68 81 -83 70 -96 -7 -8 -15 -15 -18 -15 -10 0 -192 184
-192 195 0 6 43 53 95 104 79 78 97 92 110 81 10 -8 12 -17 6 -29z m460 -95
c27 -27 49 -55 49 -62 0 -21 -180 -193 -196 -187 -28 10 -13 36 61 108 41 39
75 76 75 80 0 5 -34 41 -75 80 -72 70 -89 98 -62 108 12 4 48 -26 148 -127z"/>
<path d="M6241 4034 c-79 -21 -150 -61 -206 -118 -134 -137 -165 -331 -78
-504 115 -231 412 -310 628 -166 87 57 149 142 179 245 17 57 16 222 -2 255
-6 10 -20 39 -32 63 -67 139 -213 231 -376 236 -34 1 -84 -4 -113 -11z m42
-153 c4 -1 7 -7 7 -15 0 -11 8 -10 38 6 46 24 108 20 150 -11 91 -64 88 -298
-4 -365 -33 -23 -115 -30 -140 -11 -11 8 -22 15 -26 15 -4 0 -9 -39 -10 -87
l-3 -88 -61 -1 -62 -1 0 276 c0 152 3 278 8 281 6 4 61 4 103 1z"/>
<path d="M6312 3778 c-16 -16 -17 -179 0 -196 7 -7 27 -12 45 -12 42 0 63 38
63 112 0 73 -17 102 -60 106 -19 2 -41 -3 -48 -10z"/>
<path d="M595 2732 c-51 -10 -142 -46 -181 -73 -67 -46 -112 -98 -150 -175
-84 -168 -43 -382 98 -509 179 -162 449 -150 612 26 162 175 158 436 -11 604
-62 61 -153 110 -223 120 -62 8 -121 11 -145 7z m152 -135 c40 -27 64 -78 66
-143 2 -44 7 -55 40 -86 l37 -35 0 -111 c0 -186 -11 -196 -216 -198 -234 -2
-243 8 -235 272 1 39 21 72 56 91 11 6 16 29 18 74 3 50 10 73 28 99 48 66
138 82 206 37z"/>
<path d="M616 2528 c-23 -21 -31 -57 -27 -115 1 -9 23 -13 76 -13 l74 0 -2 56
c-3 45 -8 61 -26 75 -31 25 -64 24 -95 -3z"/>
<path d="M6280 2728 c-30 -4 -62 -11 -70 -15 -8 -3 -20 -7 -26 -8 -21 -5 -99
-54 -130 -82 -92 -83 -145 -202 -145 -324 -1 -341 370 -551 662 -374 242 148
280 483 78 682 -101 99 -231 142 -369 121z m23 -250 l44 -93 45 90 44 90 72 3
c40 2 72 0 72 -3 0 -4 -31 -63 -70 -132 -38 -69 -70 -130 -70 -135 0 -9 54
-112 70 -133 4 -5 24 -40 43 -76 l36 -65 -67 1 c-37 1 -72 2 -78 3 -6 1 -28
38 -47 81 -20 44 -40 82 -45 85 -5 3 -28 -35 -51 -83 l-43 -87 -74 0 c-41 0
-74 1 -74 3 0 1 21 40 46 85 26 46 60 106 75 135 l30 52 -64 113 c-35 62 -69
123 -76 136 -12 22 -11 22 63 22 l74 0 45 -92z"/>
<path d="M2440 1826 c-71 -37 -103 -93 -129 -227 -13 -63 -25 -123 -27 -134
-2 -11 -6 -32 -9 -48 -3 -15 -12 -59 -20 -97 -8 -38 -17 -82 -20 -97 -22 -121
-44 -214 -44 -193 -9 198 -26 235 -131 283 -44 20 -59 21 -750 21 -690 0 -706
-1 -751 -21 -52 -23 -90 -68 -109 -128 -17 -53 -18 -740 -1 -801 14 -50 64
-102 122 -125 37 -14 81 -17 278 -18 129 -1 237 -4 241 -6 9 -5 -5 -118 -18
-140 -7 -14 -23 -19 -62 -19 -39 -1 -55 -6 -66 -21 -8 -10 -14 -22 -14 -26 0
-10 743 -10 758 0 23 14 -27 46 -74 47 -24 1 -48 2 -53 3 -11 1 -20 34 -27
106 l-6 55 233 1 c129 0 241 2 249 4 67 16 80 17 80 7 0 -17 60 -81 91 -98 25
-12 104 -32 196 -49 16 -2 129 -25 253 -50 124 -25 246 -48 271 -51 61 -8 122
10 165 48 54 47 70 86 98 233 2 11 16 82 31 157 l28 137 31 -23 c17 -13 146
-69 286 -124 140 -55 422 -167 625 -248 400 -159 441 -170 520 -140 81 31 102
67 223 372 60 154 112 286 115 294 3 8 6 -94 6 -227 l1 -243 765 0 c605 0 765
3 766 13 0 6 1 224 1 482 1 418 -1 474 -16 503 -23 45 -63 79 -105 89 -20 5
-317 8 -661 8 -683 -1 -661 0 -708 -60 -21 -27 -33 -30 -60 -16 -28 14 -56 26
-332 135 -146 57 -409 162 -585 232 -363 144 -401 153 -480 113 -53 -27 -91
-67 -112 -119 -8 -19 -18 -44 -23 -55 -5 -11 -32 -80 -61 -153 -28 -73 -53
-132 -54 -130 -2 2 6 41 16 88 11 47 20 108 20 136 1 109 -80 200 -195 220
-17 3 -164 32 -328 64 -163 33 -318 60 -345 60 -31 0 -64 -8 -93 -24z m250
-110 c14 -2 108 -21 210 -41 102 -20 196 -39 210 -41 14 -3 33 -7 42 -10 10
-3 30 -7 45 -10 39 -7 75 -35 89 -70 10 -24 6 -57 -22 -199 -19 -93 -37 -183
-40 -200 -3 -16 -9 -48 -14 -70 -5 -22 -11 -53 -14 -70 -3 -16 -8 -40 -10 -52
-3 -12 -23 -115 -46 -228 -23 -113 -43 -216 -46 -228 -2 -12 -6 -34 -9 -50 -3
-15 -12 -60 -21 -100 -8 -39 -17 -87 -20 -106 -12 -74 -42 -115 -92 -128 -19
-4 -129 13 -262 42 -8 2 -109 22 -225 45 -115 23 -223 49 -238 57 -31 16 -58
68 -52 99 2 10 23 113 46 229 22 116 42 217 44 225 2 8 26 132 55 275 111 562
120 598 144 624 32 31 80 40 146 25 30 -7 66 -15 80 -18z m1175 -117 c72 -28
144 -57 160 -64 17 -7 129 -52 250 -100 604 -237 708 -280 731 -303 41 -42 34
-88 -52 -304 -42 -106 -80 -202 -85 -213 -4 -11 -45 -112 -89 -225 -45 -113
-89 -213 -99 -223 -34 -35 -89 -33 -187 6 -116 46 -573 227 -789 312 -258 101
-366 146 -386 158 -22 14 -44 63 -41 94 1 18 213 566 276 718 7 17 23 55 35
85 51 128 82 135 276 59z m-1840 -390 c16 -7 35 -25 41 -38 15 -29 17 -687 3
-743 -5 -21 -19 -47 -31 -58 -21 -19 -38 -19 -710 -20 -741 0 -741 0 -769 51
-9 17 -12 118 -12 385 0 335 2 364 19 393 10 18 30 34 44 37 14 3 29 7 33 8 4
0 310 1 680 1 566 -1 677 -3 702 -16z m4411 -1 c15 -15 17 -56 16 -420 0 -222
-1 -411 -1 -420 -1 -17 -39 -18 -656 -18 l-656 0 2 421 c1 393 2 421 19 437
17 16 68 17 639 17 566 0 622 -2 637 -17z"/>
<path d="M2584 490 c-63 -25 -84 -115 -39 -168 63 -75 191 -30 188 66 -2 84
-74 132 -149 102z"/>
<path d="M4591 770 c-33 -33 -41 -61 -29 -104 32 -121 215 -95 210 30 -4 94
-115 140 -181 74z"/>
<path d="M4924 178 c-9 -15 15 -72 42 -102 53 -56 29 -55 830 -54 690 0 744 1
781 18 46 20 82 66 90 113 l5 33 -872 0 c-479 0 -874 -4 -876 -8z"/>
</g>
</svg>
