<?xml version="1.0" encoding="UTF-8"?><svg id="a" xmlns="http://www.w3.org/2000/svg" viewBox="0 0 528 528"><path d="M176.25,231.29c-1.58,0-2.77.45-3.57,1.34-.79.9-1.19,2.02-1.19,3.36s.4,2.37,1.19,3.23,1.98,1.3,3.57,1.3,2.79-.43,3.61-1.3c.82-.87,1.23-1.95,1.23-3.23s-.41-2.46-1.23-3.36c-.82-.9-2.02-1.34-3.61-1.34Z"/><polygon points="202.22 192.95 232.79 240.07 240.84 240.07 240.84 178.93 232.87 178.93 232.87 226.25 202.22 178.93 194.17 178.93 194.17 240.07 202.22 240.07 202.22 192.95"/><polygon points="292.79 233.48 262.22 233.48 262.22 211.81 288.54 211.81 288.54 205.22 262.22 205.22 262.22 185.52 292.38 185.52 292.38 178.93 254.21 178.93 254.21 240.07 292.79 240.07 292.79 233.48"/><polygon points="318.5 240.07 326.46 240.07 326.46 185.52 345.98 185.52 345.98 178.93 299.02 178.93 299.02 185.52 318.5 185.52 318.5 240.07"/><path d="M221.4,257.44c1.62-2.13,3.86-3.19,6.72-3.19,2.33,0,4.14.61,5.44,1.83,1.3,1.22,2.14,3.2,2.53,5.92h4.49c-.36-3.58-1.62-6.38-3.79-8.4s-5.06-3.04-8.66-3.04c-2.72,0-5.11.64-7.17,1.93-2.06,1.29-3.66,3.14-4.78,5.54s-1.69,5.2-1.69,8.37v3.28c0,4.84,1.21,8.71,3.62,11.6,2.41,2.89,5.62,4.34,9.63,4.34,3.69,0,6.65-.98,8.88-2.94,2.23-1.96,3.55-4.75,3.97-8.36h-4.49c-.43,2.81-1.32,4.79-2.64,5.92-1.33,1.13-3.23,1.7-5.72,1.7-2.76,0-4.91-1.09-6.45-3.28-1.54-2.19-2.3-5.14-2.3-8.84v-3.31c0-3.93.81-6.95,2.43-9.08Z"/><path d="M255.86,285.64c2.27,0,4.27-.55,6.02-1.64,1.75-1.09,3.09-2.62,4.03-4.58.94-1.96,1.41-4.18,1.41-6.64v-.3c0-3.97-1.06-7.15-3.18-9.54-2.12-2.39-4.89-3.59-8.32-3.59-2.22,0-4.19.54-5.92,1.62-1.73,1.08-3.08,2.61-4.05,4.59-.97,1.98-1.46,4.22-1.46,6.7v.3c0,3.94,1.06,7.1,3.18,9.49,2.12,2.39,4.88,3.59,8.3,3.59ZM250.66,265.46c1.3-1.7,3.02-2.56,5.15-2.56s3.91.86,5.23,2.59c1.31,1.73,1.97,3.98,1.97,6.76,0,3.11-.64,5.53-1.93,7.25-1.29,1.73-3.03,2.59-5.21,2.59s-3.91-.85-5.2-2.55c-1.3-1.7-1.94-3.96-1.94-6.77,0-3.17.65-5.61,1.96-7.31Z"/><path d="M276.49,262.74l-.07-2.93h-4.19v25.36h4.31v-18c1.01-2.42,2.92-3.63,5.75-3.63.76,0,1.47.05,2.12.16v-4.03c-.43-.22-1.07-.33-1.91-.33-2.59,0-4.59,1.13-6.01,3.4Z"/><path d="M287.79,265.66c-.95,1.98-1.43,4.22-1.43,6.74v.8c0,3.78,1.07,6.8,3.21,9.06s4.92,3.39,8.33,3.39c4.22,0,7.39-1.63,9.5-4.9l-2.63-2.06c-.79,1.03-1.71,1.86-2.77,2.48s-2.34.94-3.86.94c-2.14,0-3.91-.77-5.3-2.31-1.39-1.54-2.11-3.56-2.18-6.06h17.06v-1.8c0-4.05-.91-7.16-2.72-9.33-1.82-2.17-4.36-3.26-7.64-3.26-2,0-3.86.56-5.58,1.68-1.72,1.12-3.05,2.66-4,4.64ZM297.37,262.9c1.8,0,3.23.61,4.28,1.82,1.06,1.21,1.65,2.92,1.77,5.12v.33h-12.62c.28-2.3,1.01-4.08,2.19-5.36,1.18-1.27,2.64-1.91,4.38-1.91Z"/><path d="M482.49,397.81h-92.04c-2.31,0-4.18,1.99-4.18,4.47v67.05h100.41v-67.05c0-2.48-1.87-4.47-4.19-4.47Z"/><path d="M152.67,399.09c-1.13-.6-2.36-.95-3.38-1.13-.49-.09-.88-.12-1.12-.15-.09-.01-.16-.01-.19-.01H47.65c-2.72,0-4.21.69-5.04,1.29-.88.63-1.58,1.53-2.13,2.71-.56,1.21-.88,2.52-1.05,3.62-.09.53-.12.94-.15,1.19,0,.11,0,.18-.01.21v53.57c0,2.91.66,4.49,1.21,5.38.59.95,1.43,1.69,2.54,2.27,1.13.6,2.36.95,3.38,1.13.49.09.88.13,1.12.15.09.01.16.01.19.01h100.33c2.72,0,4.21-.69,5.04-1.29.46-.32.87-.74,1.23-1.22.06-.62.13-1.23.26-1.86l1.84-9.61v-48.61c0-2.9-.65-4.49-1.21-5.38-.58-.94-1.43-1.68-2.53-2.27Z"/><path d="M379.94,417.87c-.55-1.18-1.23-2.29-2.04-3.31h0c.81,1.03,1.49,2.14,2.04,3.31Z"/><path d="M368.7,417.1l-87.2-36.19c-4.01-1.67-8.51.29-10.06,4.37l-22.31,59.07c-1.53,4.08.47,8.74,4.48,10.4l87.2,36.18c4.02,1.67,8.52-.29,10.06-4.37l22.31-59.07c1.55-4.08-.46-8.74-4.48-10.39ZM354.76,454.02c-1.53,4.08-6.04,6.04-10.06,4.37-4.01-1.67-6.01-6.33-4.47-10.4,1.53-4.08,6.04-6.03,10.05-4.37,4.02,1.67,6.03,6.33,4.48,10.4Z"/><polygon points="377.9 437.27 377.9 437.28 380.16 431.28 377.9 437.27"/><path d="M245.43,431.89l-3.84,20.08c-1.06-3.38-1.06-7.11.27-10.62l2.09-5.54-2.09,5.53c-1.33,3.52-1.33,7.25-.27,10.63l3.84-20.09h0Z"/><path d="M51.63,351.7h16.24c3.89,0,8.12-2.74,8.12-7.37v-13.62c0-3.56-2.5-6-5.42-6.94v-6.1c0-6.27-4.84-11.36-10.82-11.36s-10.83,5.08-10.83,11.36v6.1c-2.92.94-5.42,3.38-5.42,6.94v13.62c0,4.63,4.23,7.37,8.13,7.37ZM54.32,317.67c0-3.14,2.43-5.68,5.42-5.68s5.41,2.54,5.41,5.68v5.67h-10.83v-5.67Z"/><path d="M240.77,367.88l-48.76-10.25c-4.49-.94-8.86,2.12-9.76,6.82l-17.46,91.32v4.61s0,4.58-2.17,9.11c.44,3.6,3.01,6.65,6.59,7.4l48.76,10.24c4.49.94,8.86-2.11,9.77-6.81l19.53-102.22c.91-4.7-2-9.28-6.5-10.23ZM204.97,466.69c-.9,4.7-5.26,7.75-9.76,6.81s-7.4-5.52-6.51-10.23c.91-4.7,5.28-7.75,9.77-6.81,4.48.94,7.39,5.52,6.5,10.23Z"/><path d="M47.17,244.82c.68-.71.68-1.86,0-2.56l-10.99-11.38,10.99-11.38c.68-.71.68-1.86,0-2.56-.68-.71-1.79-.71-2.46,0l-12.22,12.67c-.68.71-.68,1.85,0,2.55l12.22,12.67c.67.71,1.78.71,2.46,0Z"/><path d="M50.65,256.12c.93.29,1.9-.25,2.18-1.2l13.97-47.03c.28-.95-.24-1.97-1.16-2.26-.92-.29-1.89.25-2.17,1.2l-13.97,47.03c-.28.95.24,1.97,1.15,2.26Z"/><path d="M481.04,119.85c-1.36-1.59-3.04-2.82-5.04-3.71-1.99-.9-4.3-1.36-6.92-1.36s-4.91.46-6.89,1.36c-1.99.88-3.66,2.12-5.02,3.71-1.36,1.59-2.37,3.47-3.08,5.64-.69,2.15-1.04,4.5-1.04,7.06v.68c0,2.53.35,4.88,1.04,7.06.71,2.15,1.72,4.03,3.08,5.64,1.36,1.59,3.04,2.82,5.04,3.71,2.02.88,4.32,1.32,6.92,1.32s4.91-.44,6.9-1.32c1.98-.88,3.65-2.12,5.01-3.71,1.36-1.61,2.39-3.49,3.08-5.64.69-2.17,1.04-4.52,1.04-7.06v-.68c0-2.55-.35-4.91-1.04-7.06-.69-2.17-1.72-4.05-3.08-5.64ZM474.81,133.24c0,1.31-.09,2.53-.28,3.67-.18,1.14-.49,2.14-.92,3-.44.84-1.02,1.49-1.76,1.96-.72.48-1.62.72-2.71.72s-2.03-.24-2.77-.72c-.74-.47-1.32-1.12-1.75-1.96-.44-.86-.74-1.86-.93-3-.18-1.14-.27-2.36-.27-3.67v-.68c0-1.27.09-2.45.27-3.57.19-1.14.49-2.14.93-3,.43-.88,1-1.57,1.71-2.06.74-.49,1.66-.74,2.74-.74s2.03.25,2.77.74,1.32,1.18,1.76,2.06c.43.86.74,1.86.92,3,.19,1.12.28,2.31.28,3.57v.68Z"/><path d="M468.9,65.57c0-32.23-52.86-60.47-82.69-52.66L57.28,65.61c-25.11,1.18-45.13,22.87-45.13,49.48v353.57c0,26.04,21.31,47.34,47.34,47.34h409.33c26.03,0,47.33-21.3,47.33-47.34V115.09c0-27.35-21.15-49.52-47.25-49.52ZM370.31,54.58c9.95-2.6,51.18-6.61,51.18,4.13v7.26h-234.3l183.12-11.39ZM264,108.12c63.82,0,115.56,51.74,115.56,115.56s-51.74,115.56-115.56,115.56-115.56-51.74-115.56-115.56,51.74-115.56,115.56-115.56ZM59.25,99.97c17.4,0,31.5,14.79,31.5,33.02s-14.1,33.02-31.5,33.02-31.5-14.79-31.5-33.02,14.1-33.02,31.5-33.02ZM25.93,230.88c0-18.65,14.43-33.77,32.21-33.77s32.22,15.12,32.22,33.77-14.43,33.77-32.22,33.77-32.21-15.12-32.21-33.77ZM59.25,298.06c17.39,0,31.49,14.78,31.49,33.02s-14.1,33.02-31.49,33.02-31.51-14.78-31.51-33.02,14.1-33.02,31.51-33.02ZM483.96,496.15h-96.03c-6.12,0-11.07-6-11.07-13.41h118.19c0,7.4-4.96,13.41-11.08,13.41ZM495.04,436.66v41.62h-117.14v-41l-19.76,52.3c-3.08,8.15-12.08,12.07-20.12,8.74l-87.2-36.18c-4.56-1.89-7.83-5.72-9.23-10.17l-5.75,30.06c-1.79,9.41-10.53,15.51-19.51,13.63l-48.76-10.25c-5.1-1.06-9.18-4.48-11.42-8.96-2.13,1.12-4.79,1.83-8.11,1.83h-33.47c0,5.96.69,10.43,2.09,13.41h6.27c2.31,0,4.19,2,4.19,4.47h-58.58c0-2.46,1.87-4.47,4.19-4.47h6.27c1.4-2.98,2.09-7.45,2.09-13.41h-33.47s-16.74,0-16.74-17.89v-53.65s0-7.63,4.67-12.92c2.48-2.81,6.26-4.96,12.07-4.96h100.4s16.74,0,16.74,17.89v4.79l9.33-48.8c1.8-9.41,6.54-15.51,15.51-13.62l52.77,10.24c8.97,1.89,14.8,11.04,12.99,20.45l-9.96,52.07,18.74-49.6c3.08-8.15,12.08-12.06,20.12-8.74l87.2,36.18c2.59,1.08,4.76,2.77,6.41,4.85v-12.29c0-7.4,5.62-13.42,12.54-13.42h92.04c3.16,0,6.05,1.24,8.25,3.32,2.63,2.45,4.3,6.07,4.3,10.1v34.38ZM468.75,364.09c-17.39,0-31.49-14.78-31.49-33.02s14.1-33.02,31.49-33.02,31.51,14.78,31.51,33.02-14.1,33.02-31.51,33.02ZM468.75,265.05c-17.39,0-31.49-14.78-31.49-33.02s14.1-33.02,31.49-33.02,31.51,14.78,31.51,33.02-14.1,33.02-31.51,33.02ZM468.75,166.01c-17.39,0-31.49-14.78-31.49-33.02s14.1-33.02,31.49-33.02,31.51,14.78,31.51,33.02-14.1,33.02-31.51,33.02Z"/><path d="M480.46,215.11c-.95-1.38-2.14-2.43-3.55-3.16-1.4-.74-3.02-1.1-4.87-1.1-1.75,0-3.24.39-4.5,1.18-.88.57-1.68,1.3-2.36,2.2l-.3-2.81h-8.44v42.26h9.07v-14.21c.6.73,1.3,1.33,2.07,1.83,1.25.82,2.76,1.22,4.49,1.22,1.85,0,3.47-.39,4.87-1.16,1.42-.78,2.6-1.88,3.55-3.29s1.67-3.07,2.16-4.97c.48-1.89.72-3.95.72-6.17v-.59c0-2.32-.24-4.42-.72-6.32-.49-1.9-1.22-3.53-2.18-4.88ZM474.3,226.9c0,1.14-.08,2.22-.22,3.21-.13,1-.38,1.88-.72,2.65-.35.75-.81,1.34-1.38,1.77-.57.41-1.29.63-2.15.63-1.3,0-2.32-.3-3.07-.91-.54-.43-.96-.97-1.27-1.64v-12.04c.08-.18.17-.35.27-.52.39-.64.91-1.11,1.56-1.41.66-.31,1.48-.47,2.45-.47.84,0,1.55.19,2.13.58.57.4,1.03.96,1.37,1.7.36.73.63,1.59.78,2.59.16.99.25,2.06.25,3.25v.59Z"/><path d="M69.13,244.82c.68.71,1.78.71,2.46,0l12.22-12.67c.68-.71.68-1.85,0-2.55l-12.22-12.67c-.68-.71-1.78-.71-2.46,0-.68.71-.68,1.86,0,2.56l10.98,11.38-10.98,11.38c-.68.71-.68,1.86,0,2.56Z"/><polygon points="486.2 310.63 475.43 310.63 469.03 324.29 462.62 310.63 451.82 310.63 462.79 331.01 451.53 351.7 462.43 351.7 469.03 337.8 475.62 351.7 486.5 351.7 475.28 331.01 486.2 310.63"/><path d="M70.25,147.54c4.09-3.41,6.71-8.66,6.71-14.55,0-.85-.06-1.69-.17-2.52l-11.65,4.58,5.11,12.49Z"/><path d="M46.44,158.57l6.53-8.21c1.95.77,4.05,1.2,6.27,1.2,2.57,0,5.01-.57,7.21-1.6l-5.25-12.85-3.93-10.31,15.06-6.32c-3.23-3.72-7.9-6.06-13.09-6.06-9.79,0-17.72,8.31-17.72,18.57,0,2.31.41,4.53,1.13,6.57l-7.82,6.84c2.59,5.18,6.66,9.45,11.61,12.17ZM53.01,132.02c.4-.15.84,0,1.1.35.26.35.27.83.03,1.2l-2.34,3.68,3.18-1.11c.4-.13.84,0,1.1.36.26.35.27.83.03,1.2l-2.34,3.68,3.18-1.11.63,1.95-5.91,2.07c-.39.13-.84-.01-1.09-.36-.26-.35-.28-.83-.04-1.2l2.35-3.68-3.19,1.11c-.39.15-.83,0-1.09-.35-.26-.36-.27-.84-.03-1.2l2.34-3.7-3.18,1.12-.63-1.96,5.9-2.06Z"/></svg>