<?xml version="1.0" encoding="UTF-8"?>
<svg id="Layer_1" xmlns="http://www.w3.org/2000/svg" version="1.1" xmlns:xlink="http://www.w3.org/1999/xlink" viewBox="0 0 1144 720">
  <!-- Generator: Adobe Illustrator 29.8.2, SVG Export Plug-In . SVG Version: 2.1.1 Build 3)  -->
  <defs>
    <style>
      .st0 {
        fill: url(#linear-gradient2);
      }

      .st1 {
        fill: #26ee21;
      }

      .st2 {
        fill: url(#linear-gradient3);
        mix-blend-mode: screen;
      }

      .st3 {
        fill: #426db5;
      }

      .st4 {
        fill: #fcfcfc;
      }

      .st5 {
        fill: #f6f8fa;
      }

      .st6 {
        fill: #e04458;
      }

      .st7 {
        fill: #4d7bbd;
      }

      .st8, .st9 {
        fill: #fff;
      }

      .st10 {
        mask: url(#mask);
      }

      .st11 {
        fill: url(#linear-gradient1);
      }

      .st12 {
        fill: #e4ebee;
      }

      .st13 {
        fill: #426db4;
      }

      .st14 {
        fill: #fafcfb;
      }

      .st15 {
        fill: url(#linear-gradient4);
      }

      .st16 {
        fill: #fcee21;
      }

      .st17 {
        fill: #fafcfc;
      }

      .st18 {
        fill: #e5ecf0;
      }

      .st19 {
        fill: #fefefe;
      }

      .st20 {
        opacity: .19;
      }

      .st21 {
        fill: url(#linear-gradient);
      }

      .st22 {
        fill: #343434;
      }

      .st23 {
        fill: #fcfdfd;
      }

      .st9 {
        filter: url(#outer-glow-1);
      }

      .st24 {
        fill: #fdfdfd;
      }

      .st25 {
        filter: url(#luminosity-noclip);
      }
    </style>
    <linearGradient id="linear-gradient" x1="0" y1="63.71" x2="1144" y2="63.71" gradientUnits="userSpaceOnUse">
      <stop offset="0" stop-color="#1a1a1b"/>
      <stop offset="1" stop-color="#1a1a1a"/>
    </linearGradient>
    <linearGradient id="linear-gradient1" x1="0" y1="405.261" x2="1144" y2="405.261" gradientUnits="userSpaceOnUse">
      <stop offset="0" stop-color="#426db4" stop-opacity=".3"/>
      <stop offset=".495" stop-color="#62b0db" stop-opacity=".14"/>
      <stop offset="1" stop-color="#7febff" stop-opacity="0"/>
    </linearGradient>
    <filter id="outer-glow-1" x="30" y="108" width="1153" height="651" filterUnits="userSpaceOnUse">
      <feOffset dx="0" dy="0"/>
      <feGaussianBlur result="blur" stdDeviation="13"/>
      <feFlood flood-color="#000" flood-opacity=".33"/>
      <feComposite in2="blur" operator="in"/>
      <feComposite in="SourceGraphic"/>
    </filter>
    <filter id="luminosity-noclip" x="244.231" y="147.033" width="899.742" height="572.967" color-interpolation-filters="sRGB" filterUnits="userSpaceOnUse">
      <feFlood flood-color="#fff" result="bg"/>
      <feBlend in="SourceGraphic" in2="bg"/>
    </filter>
    <linearGradient id="linear-gradient2" x1="244.231" y1="372.957" x2="692.135" y2="372.957" gradientUnits="userSpaceOnUse">
      <stop offset="0" stop-color="#000"/>
      <stop offset=".963" stop-color="#000"/>
      <stop offset=".977" stop-color="#010101"/>
      <stop offset=".982" stop-color="#080808"/>
      <stop offset=".985" stop-color="#141414"/>
      <stop offset=".988" stop-color="#252525"/>
      <stop offset=".991" stop-color="#3b3b3b"/>
      <stop offset=".993" stop-color="#565656"/>
      <stop offset=".995" stop-color="#777"/>
      <stop offset=".997" stop-color="#9c9c9c"/>
      <stop offset=".998" stop-color="#c7c7c7"/>
      <stop offset="1" stop-color="#f5f5f5"/>
      <stop offset="1" stop-color="#fff"/>
    </linearGradient>
    <linearGradient id="linear-gradient3" x1="467.623" y1="147.033" x2="467.623" y2="600.014" gradientUnits="userSpaceOnUse">
      <stop offset="0" stop-color="#000"/>
      <stop offset=".96" stop-color="#000"/>
      <stop offset=".975" stop-color="#010101"/>
      <stop offset=".98" stop-color="#080808"/>
      <stop offset=".984" stop-color="#141414"/>
      <stop offset=".987" stop-color="#252525"/>
      <stop offset=".99" stop-color="#3b3b3b"/>
      <stop offset=".992" stop-color="#565656"/>
      <stop offset=".994" stop-color="#777"/>
      <stop offset=".996" stop-color="#9c9c9c"/>
      <stop offset=".998" stop-color="#c7c7c7"/>
      <stop offset="1" stop-color="#f5f5f5"/>
      <stop offset="1" stop-color="#fff"/>
    </linearGradient>
    <mask id="mask" x="244.231" y="147.033" width="899.742" height="572.967" maskUnits="userSpaceOnUse">
      <g class="st25">
        <g>
          <rect class="st8" x="244.231" y="147.033" width="899.742" height="572.967"/>
          <rect class="st0" x="244.231" y="147.033" width="447.904" height="451.849"/>
          <rect class="st2" x="244.231" y="147.033" width="446.785" height="452.981"/>
        </g>
      </g>
    </mask>
    <linearGradient id="linear-gradient4" x1="135.923" y1="20.11" x2="1105.869" y2="20.11" gradientTransform="translate(-1.689 7.527) scale(1.012 .774)" gradientUnits="userSpaceOnUse">
      <stop offset="0" stop-color="#4d4d4d"/>
      <stop offset="1" stop-color="#606060"/>
    </linearGradient>
  </defs>
  <ellipse class="st6" cx="654.906" cy="374.346" rx="11.161" ry="9.484"/>
  <ellipse class="st16" cx="689.199" cy="374.346" rx="11.161" ry="9.484"/>
  <ellipse class="st1" cx="723.325" cy="374.346" rx="11.161" ry="9.484"/>
  <rect class="st21" y="36.899" width="1144" height="53.623"/>
  <path class="st22" d="M13,0h1118c7.175,0,13,5.825,13,13v31.692H0V13C0,5.825,5.825,0,13,0Z"/>
  <rect class="st11" y="90.522" width="1144" height="629.478"/>
  <path class="st9" d="M98.249,147.939h1045.724v572.061H69.988V176.2c0-15.598,12.663-28.261,28.261-28.261Z"/>
  <g id="Layer_2">
    <g class="st10">
      <g id="Expanded_Art" class="st20">
        <path class="st19" d="M244.231,581.85h92.259c1.877,19.889,36.194.069,39.979,1.771,1.016.457,1.863,9.314,1.318,10.184-.616.984-2.79.108-3.075.443-8.349,9.773-11.267,2.777-19.33,6.199-4.736,2.01-3.277,9.741-5.272,10.627-3.012,1.338-9.817-1.604-13.619,4.871-6.051,10.304,6.376,22.325-9.665,22.139-.357,4.259,1.56,8.031,2.636,11.955l-.879.886c-.64-1.774-4.001-11.208-4.833-11.512-.877-.321-17.37,2.54-17.134,5.756l13.18,56.677,1.318,1.328c4.903-2.452,14.394-.614,17.134-6.199.57-1.162.866-.824.879-.886,1.216,6.177,17.561-2.086,19.33.443-1.146,8.319,2.44,15.643,4.393,23.468h-118.618v-9.741c14.904,2.893,2.398-27.132,0-34.537v-3.542c7.423,6.37,6.328,33.446,8.787,37.637,1.237,2.109,19.223,2.052,20.209,0l-12.301-52.249c-2.322-2.427-12.544,3.668-16.694,3.985v-79.702ZM296.95,702.288c.373,9.864,14.38,1.098,21.088,1.328.759-7.668-9.855-58.483-14.498-59.776-4.572,2.257-15.25,2.392-18.891,5.313-.544.437-1.743,2.498-1.757,2.657-1.843-2.691-19.11,2.75-19.77,3.542-1.784,2.144,14.728,46.559,11.862,54.463,2.711.068,19.359-1.51,20.209-2.214.595-.493,1.694-4.715,1.757-5.313Z"/>
        <path class="st19" d="M404.146,581.85h271.504v-68.189l231.525-62.876c3.575,7.649,14.298,10.668,16.255,18.154l21.088,184.2-1.318,2.214c-117.256,23.578-234.654,49.114-354.098,59.334,4.225-13.295-1.944-19.167-14.937-18.597-26.412,1.159-76.48,10.562-103.681,15.94-4.257.842-9.955,5.337-10.544,5.313-7.551-.3-38.919-46.525-40.418-56.677-8.296,1.73,1.329,10.704.879,11.512l-26.799,12.841c1.574-20.768-6.344-39.442-18.452-55.791,24.964.741,44.467-15.198,68.974-6.642,15.2,5.307,49.674,35.038,55.355,36.309,6.953,1.554,12.367-4.052,10.105-11.07-1.818-5.641-26.145-25.736-32.071-29.667-31.85-21.127-55.817-16.181-89.623-2.657-1.254-.505-2.712-19.068-2.197-19.925.785-1.306,28.71-6.858,28.996-8.856-3.617-5.488-9.605,3.646-10.544-4.871ZM878.18,589.82l-214.392,48.707c-13.503,5.413-8.238,23.355,6.151,21.254l209.998-47.821c13.481-3.171,12.019-22.251-1.757-22.139Z"/>
        <path class="st17" d="M943.2,407.392c40.318-5.352,52.933,43.697,14.058,52.249-44.942,9.887-54.495-46.881-14.058-52.249ZM943.2,411.82c-30.108,4.712-24.387,50.34,11.423,44.279,29.652-5.019,24.579-49.914-11.423-44.279Z"/>
        <path class="st13" d="M336.489,581.85h7.029c2.674,4.098,8.813,2.159,12.301,0h48.326c.939,8.516,6.927-.618,10.544,4.871-.285,1.998-28.211,7.55-28.996,8.856-.515.857.942,19.42,2.197,19.925,33.806-13.524,57.773-18.47,89.623,2.657,5.926,3.931,30.253,24.026,32.071,29.667,2.262,7.018-3.151,12.624-10.105,11.07-5.682-1.27-40.155-31.002-55.355-36.309-24.507-8.556-44.01,7.383-68.974,6.642,12.108,16.349,20.026,35.023,18.452,55.791l26.799-12.841c.45-.809-9.174-9.783-.879-11.512,1.499,10.152,32.867,56.376,40.418,56.677.589.023,6.286-4.472,10.544-5.313,27.202-5.379,77.27-14.781,103.681-15.94,12.993-.57,19.162,5.302,14.937,18.597,119.444-10.22,236.842-35.756,354.098-59.334l1.318-2.214-21.088-184.2c-1.957-7.487-12.68-10.505-16.255-18.154l-231.525,62.876v-10.627l227.572-63.319c-1.01-9.777,1.098-16.752,6.151-24.796.872-1.388,7.031-6.551,7.029-7.085-.004-1.381-13.795-14.925-13.18-18.597l36.903-242.205h10.544l-35.146,242.205c2.485,1.54,9.398,13.433,10.983,13.726.807.149,12.932-4.153,15.816-4.428,10.263-.978,21.476.611,30.753,5.313l16.255-256.817h8.787l-13.18,263.459c4.9,4.532,9.032,10.811,9.665,17.712l128.284,132.836c-2.301,49.627-30.819,89.443-61.506,125.752l28.117,33.209h-13.18c-3.807-4.566-26.075-30.952-29.435-31.881-1.513-.418-15.795,1.528-16.255,2.214-.961,1.433,5.112,25.781,5.272,29.667h-10.544l-43.493-261.245c-7.625,5.785-17.776,9.778-27.238,10.627-3.067.275-19.235-1.668-19.77-.443l28.996,251.061h-10.544l-3.075-17.712-80.397,17.712h-48.326l126.087-26.567c3.024-2.03-2.172-22.897-1.757-27.453-96.815,20.908-194.134,39.436-292.153,54.02h-265.354l-5.711-27.453c-4.067,3.088-15.657,2.243-17.134,6.642-1.671,4.977,4.021,15.57,5.272,20.811h-7.908c-1.953-7.825-5.539-15.148-4.393-23.468-1.769-2.528-18.114,5.734-19.33-.443,2.078-10.438-6.698-35.226-9.665-46.05-1.076-3.924-2.993-7.696-2.636-11.955,16.042.186,3.614-11.836,9.665-22.139,3.802-6.475,10.607-3.533,13.619-4.871,1.995-.886.536-8.617,5.272-10.627,8.063-3.422,10.982,3.574,19.33-6.199.286-.334,2.459.541,3.075-.443.545-.87-.302-9.727-1.318-10.184-3.785-1.702-38.102,18.118-39.979-1.771ZM943.2,407.392c-40.437,5.368-30.884,62.136,14.058,52.249,38.875-8.552,26.26-57.601-14.058-52.249ZM994.162,441.929c-1.507,6.302-5.711,8.133-5.711,14.612-.001,17.785,13.161,69.084,17.573,89.443,6.356,29.333,15.166,58.418,21.966,87.672.808,3.206-5.221,5.376-5.272,7.085-.075,2.492,26.329,35.137,30.314,39.408,28.425-33.661,55.11-69.938,59.309-115.568l-118.179-122.652ZM360.653,607.532l-1.757,11.512c-16.057-1.915-17.992-1.101-15.816,15.94,2.283-1.91,12.517-3.032,14.058-4.428,2.18-1.973.486-7.491,6.151-10.627,2.398-1.327,9.592-1.632,10.105-3.1.14-.402-1.009-8.123-1.318-8.413-.419-.393-9.919-1.069-11.423-.886ZM356.259,640.298c-1.202-.044-9.686,1.247-10.105,3.1l11.862,46.493c3.997-2.383,12.247-1.928,15.816-4.428,10.016-7.017-4.237-44.679-17.573-45.164ZM1026.673,663.323c.176,7.901-.773,19.813,9.665,15.94v-2.657l-9.665-13.284Z"/>
        <path class="st13" d="M943.2,411.82c36.002-5.635,41.074,39.26,11.423,44.279-35.809,6.061-41.53-39.566-11.423-44.279Z"/>
        <path class="st19" d="M675.65,503.034v-3.542c1.453-.979,8.284-1.899,8.787-3.1.885-2.115-8.082-24.971-7.908-29.667.163-4.39,4.906-9.221,6.151-13.726,4.246-15.368-2.426-31.017-7.029-45.607V147.033h264.475l-36.903,242.205c-.615,3.673,13.175,17.216,13.18,18.597.002.534-6.157,5.696-7.029,7.085-5.053,8.044-7.16,15.02-6.151,24.796l-227.572,63.319Z"/>
        <path class="st19" d="M950.669,147.033h38.661l-16.255,256.817c-9.277-4.703-20.49-6.292-30.753-5.313-2.884.275-15.009,4.577-15.816,4.428-1.586-.294-8.498-12.186-10.983-13.726l35.146-242.205Z"/>
        <path class="st13" d="M675.65,466.725v-59.334c4.603,14.59,11.275,30.239,7.029,45.607-1.245,4.505-5.988,9.336-6.151,13.726h-.879Z"/>
        <path class="st19" d="M998.116,147.033h145.857v572.967h-54.477l-28.117-33.209c30.687-36.309,59.205-76.124,61.506-125.752l-128.284-132.836c-.633-6.9-4.765-13.18-9.665-17.712l13.18-263.459Z"/>
        <path class="st19" d="M994.162,441.929l118.179,122.652c-4.2,45.629-30.884,81.907-59.309,115.568-3.985-4.271-30.388-36.916-30.314-39.408.051-1.709,6.08-3.878,5.272-7.085-6.801-29.254-15.61-58.339-21.966-87.672-4.412-20.359-17.575-71.658-17.573-89.443,0-6.479,4.205-8.31,5.711-14.612Z"/>
        <path class="st19" d="M963.849,720l-28.996-251.061c.535-1.225,16.703.718,19.77.443,9.462-.849,19.613-4.842,27.238-10.627l43.493,261.245h-61.506Z"/>
        <path class="st13" d="M675.65,489.75v-23.025h.879c-.174,4.696,8.793,27.551,7.908,29.667-.503,1.201-7.334,2.121-8.787,3.1v-9.741Z"/>
        <path class="st19" d="M343.519,581.85h12.301c-3.489,2.159-9.627,4.098-12.301,0Z"/>
        <path class="st13" d="M878.18,589.82c13.776-.112,15.239,18.969,1.757,22.139l-209.998,47.821c-14.389,2.101-19.653-15.84-6.151-21.254l214.392-48.707Z"/>
        <path class="st14" d="M360.653,607.532c1.503-.184,11.003.492,11.423.886.309.29,1.458,8.011,1.318,8.413-.512,1.467-7.707,1.772-10.105,3.1-5.665,3.135-3.971,8.653-6.151,10.627-1.541,1.396-11.775,2.518-14.058,4.428-2.176-17.041-.241-17.855,15.816-15.94l1.757-11.512Z"/>
        <path class="st13" d="M338.247,696.975c-2.74,5.585-12.231,3.747-17.134,6.199l-1.318-1.328-13.18-56.677c-.237-3.216,16.257-6.077,17.134-5.756.832.304,4.193,9.739,4.833,11.512,5.197,14.413,6.824,30.992,9.665,46.05Z"/>
        <path class="st23" d="M356.259,640.298c13.336.485,27.59,38.147,17.573,45.164-3.569,2.5-11.818,2.045-15.816,4.428l-11.862-46.493c.419-1.853,8.903-3.143,10.105-3.1Z"/>
        <path class="st13" d="M284.649,649.154c3.641-2.922,14.319-3.057,18.891-5.313,4.643,1.293,15.257,52.108,14.498,59.776-6.708-.23-20.715,8.536-21.088-1.328,1.561-14.809-9.966-38.17-12.301-53.135Z"/>
        <path class="st18" d="M284.649,649.154c2.335,14.965,13.862,38.325,12.301,53.135-.063.599-1.162,4.821-1.757,5.313.102-9.551-1.372-19.419-3.515-28.781-1.036-4.526-8.951-25.116-8.787-27.01.014-.159,1.213-2.22,1.757-2.657Z"/>
        <path class="st13" d="M295.193,707.602c-.85.703-17.498,2.282-20.209,2.214,2.866-7.904-13.645-52.319-11.862-54.463.659-.793,17.927-6.233,19.77-3.542-.165,1.894,7.751,22.484,8.787,27.01,2.142,9.362,3.617,19.23,3.515,28.781Z"/>
        <path class="st12" d="M329.46,650.04c2.967,10.824,11.743,35.612,9.665,46.05-.012.061-.309-.276-.879.886-2.841-15.058-4.468-31.637-9.665-46.05l.879-.886Z"/>
        <path class="st13" d="M244.231,661.552c4.151-.317,14.373-6.412,16.694-3.985l12.301,52.249c-.986,2.052-18.972,2.109-20.209,0-2.459-4.191-1.364-31.267-8.787-37.637v-10.627Z"/>
        <path class="st5" d="M1026.673,663.323l9.665,13.284v2.657c-10.438,3.873-9.489-8.04-9.665-15.94Z"/>
        <path class="st24" d="M653.684,720c98.018-14.584,195.337-33.112,292.153-54.02-.415,4.556,4.781,25.423,1.757,27.453l-126.087,26.567h-167.823Z"/>
        <path class="st13" d="M244.231,675.721c2.398,7.406,14.904,37.431,0,34.537v-34.537Z"/>
        <path class="st23" d="M1035.899,720c-.16-3.886-6.233-28.234-5.272-29.667.46-.686,14.743-2.632,16.255-2.214,3.36.928,25.628,27.315,29.435,31.881h-40.418Z"/>
        <path class="st4" d="M370.757,720c-1.251-5.241-6.943-15.834-5.272-20.811,1.477-4.399,13.067-3.554,17.134-6.642l5.711,27.453h-17.573Z"/>
        <polygon class="st23" points="869.833 720 950.23 702.288 953.305 720 869.833 720"/>
      </g>
    </g>
  </g>
  <ellipse class="st6" cx="28.042" cy="23.084" rx="10.319" ry="10.071"/>
  <ellipse class="st16" cx="60.669" cy="23.084" rx="10.319" ry="10.071"/>
  <ellipse class="st1" cx="93.296" cy="23.084" rx="10.319" ry="10.071"/>
  <rect class="st15" x="135.923" y="13.013" width="982" height="20.143" rx="2" ry="2"/>
  <g>
    <path class="st7" d="M538.463,379.11l21.352,76.193c4.388,15.659.841,31.587-8.177,43.133l-8.897-31.748-.105-.374c-1.058-3.775-3.563-6.71-6.665-8.32l-.867-3.093c-1.508-5.382-5.461-9.383-10.235-11.028l-5.933-21.172c11.331-9.584,16.603-25.723,12.173-41.532l7.353-2.061Z"/>
    <path class="st7" d="M512.532,286.576l25.931,92.534-7.353,2.061c-4.43-15.809-17.319-26.849-31.983-29.158l-6.121-21.844c11.331-9.584,16.603-25.723,12.173-41.532l7.353-2.061Z"/>
    <path class="st7" d="M486.601,194.042l25.931,92.534-7.353,2.061c-4.433-15.818-17.319-26.849-31.985-29.168l-6.119-21.835c11.328-9.594,16.603-25.723,12.173-41.532l7.353-2.061Z"/>
    <path class="st7" d="M482.019,177.691l4.582,16.35-7.353,2.061c-5.97-21.302-27.28-33.952-47.601-28.258-7.736,2.168-14.217,6.695-18.941,12.634l-340.903,95.532c-7.123-2.619-15.021-3.116-22.748-.951-20.321,5.695-31.955,27.577-25.985,48.879l-7.362,2.063-4.582-16.35c-6.967-24.862,6.059-50.369,29.211-58.046L333.861,116.244c25.826-15.107,82.607-2.562,91.046,27.551,24.386-6.834,49.951,8.343,57.112,33.896ZM380.716,156.582l-1.901-6.783c-2.812-10.035-40.284,4.507-48.899,9.541l-168.109,58.587,218.91-61.345Z"/>
    <path class="st3" d="M446.404,574.774l125.077-35.05c1.94,6.923-1.74,14.001-8.215,15.815l-101.635,28.481c-6.475,1.814-13.287-2.323-15.227-9.246Z"/>
    <path class="st8" d="M479.248,196.102c4.43,15.809-.845,31.938-12.173,41.532l6.119,21.835c14.667,2.319,27.553,13.35,31.985,29.168,4.43,15.809-.842,31.948-12.173,41.532l6.121,21.844c14.664,2.31,27.553,13.35,31.983,29.158s-.842,31.948-12.173,41.532l5.933,21.172c4.774,1.645,8.727,5.646,10.235,11.028l.867,3.093c3.101,1.61,5.607,4.545,6.665,8.32l.105.374-.14.039c-1.055-3.765-3.563-6.71-6.671-8.308-2.597-1.358-5.625-1.769-8.577-.942l-85.994,24.098c-6.465,1.812-10.149,8.91-8.212,15.824l3.218,11.483c-2.079-1.523-4.549-2.534-7.249-2.856l-90.954-10.97c-8.372-.999-15.76,5.001-16.501,13.431l-4.523,51.249-4.327-51.257c-.779-9.254-8.613-16.279-17.491-15.706l-51.992,4.261c-8.878.573-11.707,7.523-10.925,16.786l4.057,48.028-1.254-4.475c-4.684-16.715-20.324-12.332-20.324-12.332l-93.805,26.287c-5.428,1.521-8.406,4.522-9.976,7.804-.843,1.738-1.284,3.544-1.49,5.254.172-1.832.618-3.801,1.523-5.677l-1.299-4.634c-1.508-5.382-.21-10.854,3.004-14.738l-5.933-21.172c-14.652-2.303-27.543-13.352-31.973-29.161-4.43-15.809.845-31.938,12.164-41.529l-6.121-21.844c-14.652-2.303-27.543-13.352-31.973-29.161-4.433-15.818.845-31.938,12.161-41.539l-6.119-21.835c-14.655-2.312-27.543-13.352-31.973-29.161-5.97-21.302,5.664-43.184,25.985-48.879,7.727-2.165,15.625-1.668,22.748.951l340.903-95.532c4.724-5.939,11.205-10.466,18.941-12.634,20.321-5.695,41.632,6.955,47.601,28.258ZM471.85,198.578c-4.773-17.033-21.819-27.159-38.076-22.604-16.257,4.556-25.558,22.066-20.785,39.098s21.819,27.159,38.076,22.604,25.561-22.057,20.785-39.098ZM497.781,291.113c-4.773-17.033-21.817-27.15-38.074-22.594-4.064,1.139-7.691,3.082-10.777,5.63-9.253,7.651-13.591,20.687-10.011,33.459,3.582,12.781,14.062,21.665,25.941,23.384,3.962.583,8.071.358,12.135-.781,16.257-4.556,25.561-22.057,20.785-39.098ZM523.715,383.656c-2.537-9.053-8.536-16.149-16.041-20.133-6.63-3.523-14.411-4.607-22.035-2.471-16.257,4.556-25.561,22.057-20.785,39.098,4.773,17.033,21.817,27.15,38.074,22.594,7.624-2.136,13.706-7.116,17.542-13.562,4.345-7.294,5.78-16.483,3.246-25.527ZM89.249,305.795c-4.773-17.033-21.819-27.159-38.076-22.604s-25.558,22.066-20.785,39.098,21.819,27.159,38.076,22.604c16.257-4.556,25.561-22.057,20.785-39.098ZM141.114,490.874c-4.776-17.042-21.819-27.159-38.076-22.604s-25.561,22.057-20.785,39.098c4.773,17.033,21.817,27.15,38.074,22.594s25.561-22.057,20.788-39.089ZM114.524,397.355c-4.883-17.425-22.324-27.774-38.955-23.113-16.612,4.655-26.135,22.56-21.252,39.985s22.324,27.774,38.936,23.118c16.631-4.66,26.154-22.565,21.271-39.99Z"/>
    <polygon class="st3" points="444.884 101.558 447.489 110.854 445.256 111.48 444.646 109.303 443.617 104.805 443.238 112.045 441.761 112.459 437.663 106.463 439.133 110.848 439.743 113.025 437.51 113.65 434.905 104.354 437.83 103.534 441.706 109.421 441.95 102.38 444.884 101.558"/>
    <path class="st3" d="M442.31,530.102l-4.757,54.045c-.744,8.421-8.136,14.443-16.513,13.424l-90.942-10.963c-4.758-.581-8.816-3.304-11.286-7.085l-.003-.009-1.67-19.766-.003-.009,4.523-51.249c.741-8.43,8.129-14.431,16.501-13.431l90.954,10.97c2.7.322,5.17,1.332,7.249,2.856l-3.218-11.483c-1.937-6.914,1.747-14.013,8.212-15.824l85.994-24.098c2.952-.827,5.98-.416,8.577.942,3.108,1.598,5.616,4.543,6.671,8.308l9.004,32.131,10.895,38.877-109.455,30.673-10.735-38.307ZM552.338,531.575l-17.558-62.655c-.647-2.308-2.918-3.687-5.085-3.079l-85.994,24.098c-2.158.605-3.382,2.963-2.735,5.271l17.558,62.655,93.814-26.29ZM435.348,522.197c.373-4.206-2.716-8.036-6.906-8.535l-90.948-10.982c-4.184-.51-7.884,2.502-8.255,6.717l-5.379,61.031c-.371,4.215,2.727,8.043,6.909,8.544l90.945,10.972c4.193.508,7.884-2.502,8.255-6.717l5.379-61.031Z"/>
    <path class="st3" d="M433.774,175.975c16.257-4.556,33.303,5.571,38.076,22.604s-4.528,34.543-20.785,39.098-33.301-5.562-38.076-22.604,4.528-34.543,20.785-39.098ZM457.826,202.76l-.178-.635c-.67-2.392-1.613-4.496-2.82-6.324-1.222-1.844-2.679-3.34-4.357-4.472-1.687-1.129-3.579-1.839-5.678-2.137-2.104-.317-4.383-.142-6.831.544s-4.458,1.713-6.072,3.072c-1.638,1.346-2.876,2.932-3.722,4.771-.854,1.842-1.313,3.875-1.398,6.085-.091,2.192.207,4.477.877,6.869l.178.635c.662,2.364,1.595,4.47,2.818,6.315,1.217,1.825,2.665,3.324,4.357,4.472,1.678,1.132,3.569,1.841,5.68,2.147,2.108.296,4.382.102,6.811-.579s4.472-1.697,6.101-3.04c1.617-1.35,2.855-2.936,3.71-4.778.84-1.858,1.307-3.893,1.398-6.085.077-2.208-.212-4.495-.874-6.859Z"/>
    <path class="st3" d="M459.708,268.519c16.257-4.556,33.301,5.562,38.074,22.594s-4.528,34.543-20.785,39.098c-4.064,1.139-8.173,1.363-12.135.781l-2.299-8.203,8.418-2.359-3.721-13.277c.752.525,1.563.902,2.411,1.158,1.392.436,2.901.427,4.517-.026,1.728-.484,3.137-1.282,4.244-2.368,1.132-1.103,1.937-2.437,2.465-4.006.518-1.566.747-3.303.717-5.209-.049-1.901-.373-3.886-.955-5.96l-.154-.551c-.607-2.168-1.372-4.069-2.318-5.719-.965-1.644-2.061-2.969-3.324-3.986-1.249-1.041-2.636-1.71-4.144-2.023-1.502-.325-3.11-.237-4.838.247-1.635.458-2.922,1.222-3.895,2.281-.682.766-1.229,1.654-1.638,2.676l-1.019-2.556-7.83,2.194-2.566-9.156c3.085-2.547,6.712-4.491,10.777-5.63Z"/>
    <path class="st3" d="M507.674,363.524c7.505,3.983,13.504,11.079,16.041,20.133s1.099,18.233-3.246,25.527l-4.2-2.652-15.903-16.403,4.869-21.891,2.438-4.714Z"/>
    <path class="st3" d="M507.674,363.524l-2.438,4.714-10.063,2.82-2.406,14.429-9.563-11.075-10.091,2.828,15.583,16.16-5.101,22.288,10.184-2.854,2.527-14.715,9.796,11.262,10.165-2.849,4.2,2.652c-3.837,6.446-9.918,11.425-17.542,13.562-16.257,4.556-33.301-5.562-38.074-22.594-4.776-17.042,4.528-34.543,20.785-39.098,7.624-2.136,15.405-1.052,22.035,2.471Z"/>
    <polygon class="st3" points="433.943 104.624 434.427 106.352 431.652 107.13 433.773 114.698 431.549 115.321 429.429 107.753 426.71 108.515 426.225 106.786 433.943 104.624"/>
    <path class="st8" d="M534.781,468.919l17.558,62.655-93.814,26.29-17.558-62.655c-.647-2.308.577-4.666,2.735-5.271l85.994-24.098c2.168-.607,4.438.772,5.085,3.079Z"/>
    <polygon class="st8" points="500.367 390.129 516.27 406.531 506.104 409.38 496.308 398.119 493.781 412.834 483.597 415.687 488.697 393.399 473.114 377.239 483.205 374.412 492.768 385.487 495.174 371.058 505.236 368.238 500.367 390.129"/>
    <path class="st8" d="M457.648,202.125l.178.635c.662,2.364.951,4.651.874,6.859-.091,2.192-.559,4.228-1.398,6.085-.854,1.842-2.093,3.428-3.71,4.778-1.629,1.343-3.663,2.357-6.101,3.04s-4.703.874-6.811.579c-2.111-.305-4.003-1.015-5.68-2.147-1.692-1.148-3.14-2.647-4.357-4.472-1.222-1.844-2.155-3.951-2.818-6.315l-.178-.635c-.67-2.392-.968-4.676-.877-6.869.086-2.211.544-4.244,1.398-6.085.845-1.839,2.083-3.425,3.722-4.771,1.614-1.359,3.633-2.389,6.072-3.072s4.727-.861,6.831-.544c2.099.299,3.991,1.008,5.678,2.137,1.678,1.132,3.135,2.628,4.357,4.472,1.208,1.828,2.15,3.932,2.82,6.324ZM448.147,205.473l-.178-.635c-.333-1.187-.728-2.275-1.199-3.272-.467-1.018-1.027-1.869-1.645-2.562-.642-.707-1.364-1.2-2.184-1.464s-1.745-.257-2.782.034c-1.009.283-1.803.757-2.366,1.409-.544.646-.896,1.44-1.058,2.372-.186.919-.204,1.932-.083,3.046.125,1.094.353,2.229.685,3.416l.178.635c.343,1.224.747,2.34,1.213,3.358.476,1.015,1.018,1.871,1.654,2.559.612.675,1.324,1.13,2.139,1.376.82.264,1.749.235,2.777-.053,1.018-.285,1.799-.736,2.343-1.382.568-.633.94-1.392,1.131-2.292.167-.913.204-1.932.074-3.044-.121-1.115-.356-2.278-.699-3.502Z"/>
    <path class="st8" d="M480.503,290.191l.154.551c.581,2.074.906,4.059.955,5.96.03,1.906-.198,3.643-.717,5.209-.528,1.569-1.333,2.903-2.465,4.006-1.106,1.086-2.515,1.884-4.244,2.368-1.616.453-3.125.463-4.517.026-.848-.256-1.659-.634-2.411-1.158l3.721,13.277-8.418,2.359-.056.016-11.065-39.484.056-.016,7.83-2.194,1.019,2.556c.409-1.022.956-1.91,1.638-2.676.973-1.059,2.26-1.823,3.895-2.281,1.728-.484,3.336-.572,4.838-.247,1.509.313,2.895.982,4.144,2.023,1.262,1.017,2.359,2.342,3.324,3.986.946,1.65,1.711,3.551,2.318,5.719ZM472.193,293.114l-.154-.551c-.312-1.112-.676-2.088-1.075-2.974-.409-.883-.889-1.625-1.414-2.204-.502-.605-1.078-1.008-1.718-1.242-.653-.21-1.357-.204-2.142.016-.916.257-1.631.618-2.166,1.081-.529.45-.892,1.026-1.088,1.726-.049.185-.088.367-.116.557l3.152,11.249c.453.538.999.939,1.613,1.19.86.374,1.883.389,3.097.049.813-.228,1.421-.61,1.844-1.152.432-.544.695-1.223.826-2.015.116-.808.11-1.693-.021-2.664s-.336-1.992-.638-3.066Z"/>
    <path class="st3" d="M447.969,204.837l.178.635c.343,1.224.578,2.387.699,3.502.13,1.112.093,2.13-.074,3.044-.191.9-.563,1.659-1.131,2.292-.544.646-1.325,1.097-2.343,1.382-1.028.288-1.957.317-2.777.053-.814-.245-1.527-.701-2.139-1.376-.636-.688-1.178-1.544-1.654-2.559-.467-1.018-.87-2.134-1.213-3.358l-.178-.635c-.333-1.187-.56-2.322-.685-3.416-.121-1.115-.102-2.128.083-3.046.162-.932.514-1.726,1.058-2.372.563-.652,1.357-1.126,2.366-1.409,1.037-.291,1.962-.298,2.782-.034s1.542.757,2.184,1.464c.618.694,1.178,1.544,1.645,2.562.471.997.866,2.085,1.199,3.272Z"/>
    <path class="st3" d="M472.038,292.563l.154.551c.301,1.074.507,2.095.638,3.066s.137,1.856.021,2.664c-.131.792-.394,1.471-.826,2.015-.423.542-1.031.924-1.844,1.152-1.215.34-2.237.325-3.097-.049-.614-.251-1.16-.652-1.613-1.19l-3.152-11.249c.028-.189.067-.372.116-.557.197-.7.56-1.275,1.088-1.726.535-.462,1.25-.824,2.166-1.081.785-.22,1.489-.226,2.142-.016.64.234,1.216.637,1.718,1.242.525.578,1.005,1.321,1.414,2.204.399.886.764,1.862,1.075,2.974Z"/>
    <path class="st3" d="M462.562,322.789l2.299,8.203c-11.879-1.72-22.359-10.603-25.941-23.384-3.579-12.772.759-25.808,10.011-33.459l2.566,9.156-.056.016,11.065,39.484.056-.016Z"/>
    <path class="st8" d="M428.442,513.663c4.191.498,7.279,4.329,6.906,8.535l-5.379,61.031c-.371,4.215-4.062,7.225-8.255,6.717l-90.945-10.972c-4.181-.501-7.279-4.329-6.909-8.544l5.379-61.031c.371-4.215,4.071-7.227,8.255-6.717l90.948,10.982ZM425.085,551.807c.371-4.215-2.718-8.045-6.911-8.553-4.181-.501-7.884,2.502-8.246,6.714-.38,4.218,2.716,8.036,6.899,8.547,4.193.508,7.884-2.502,8.258-6.708Z"/>
    <path class="st3" d="M418.173,543.254c4.193.508,7.282,4.338,6.911,8.553-.373,4.206-4.064,7.215-8.258,6.708-4.184-.51-7.279-4.329-6.899-8.547.361-4.213,4.064-7.215,8.246-6.714Z"/>
    <path class="st3" d="M318.809,579.513l.003.009,2.498,29.591c.789,9.251-5.768,17.246-14.66,17.843l-48.241,3.19c-5.045.336-9.75-1.782-13.016-5.381-1.697,1.604-4.008,2.957-7.101,3.824l-31.271,8.763c1.56,5.569,3.385,9.562,5.473,11.979l5.858-1.642c2.149-.602,4.441.781,5.085,3.079l-54.732,15.338c-.644-2.298.577-4.666,2.744-5.273l5.858-1.642c.528-3.151.011-7.51-1.549-13.079l-31.271,8.763s-15.64,4.383-20.322-12.323l-6.284-22.424-.139-.495.172.073-7.763-27.702s-.859-3.065-.607-6.914c.015-.236.041-.465.065-.703.206-1.71.647-3.517,1.49-5.254,1.569-3.281,4.548-6.283,9.976-7.804l93.805-26.287s15.64-4.383,20.324,12.332l1.254,4.475-4.057-48.028c-.782-9.263,2.047-16.213,10.925-16.786l51.992-4.261c8.878-.573,16.712,6.452,17.491,15.706l4.327,51.257.003.009,1.67,19.766ZM304.768,509.02c-.39-4.627-4.308-8.144-8.749-7.847l-48.241,3.19c-4.441.297-7.726,4.291-7.333,8.927l7.597,89.893,1.21,4.317s1.199,4.279.355,9.07c1.344,3.251,4.556,5.434,8.088,5.2l48.245-3.211c4.441-.297,7.728-4.282,7.336-8.918l-8.507-100.622ZM240.102,604.986l-12.727-45.417c-.759-2.71-1.783-4.025-2.539-4.71-.788-.726-1.776-1.195-2.958-1.458-1.213-.265-2.454-.27-3.454-.171-.481.044-.854.118-1.086.153-.087.014-.152.033-.18.04l-93.74,26.269c-2.541.712-3.75,1.756-4.371,2.525-.657.819-1.076,1.843-1.281,3.09-.206,1.277-.162,2.585-.033,3.657.052.509.134.91.171,1.151.029.103.045.159.046.199l14.026,50.051c.762,2.719,1.792,4.022,2.537,4.7.812.74,1.791,1.211,2.97,1.465,1.222.262,2.463.267,3.463.168.481-.044.856-.109,1.083-.162.089-.005.145-.021.183-.031l93.74-26.269c2.541-.712,3.75-1.756,4.371-2.525.343-.429.619-.919.83-1.462-.116-.592-.203-1.193-.244-1.806l-.806-9.458Z"/>
    <path class="st8" d="M296.019,501.174c4.441-.297,8.359,3.22,8.749,7.847l8.507,100.622c.392,4.636-2.895,8.621-7.336,8.918l-48.245,3.211c-3.532.234-6.744-1.95-8.088-5.2.844-4.791-.355-9.07-.355-9.07l-1.21-4.317-7.597-89.893c-.392-4.636,2.892-8.63,7.333-8.927l48.241-3.19ZM288.449,602.854c-.399-4.624-4.317-8.142-8.749-7.847-4.441.297-7.728,4.282-7.345,8.921.399,4.624,4.317,8.142,8.758,7.844,4.441-.297,7.728-4.282,7.336-8.918Z"/>
    <path class="st3" d="M279.7,595.008c4.432-.295,8.35,3.223,8.749,7.847.392,4.636-2.895,8.621-7.336,8.918-4.441.297-8.359-3.22-8.758-7.844-.383-4.639,2.904-8.623,7.345-8.921Z"/>
    <path class="st8" d="M227.375,559.569l12.727,45.417.806,9.458c.041.613.128,1.214.244,1.806-.211.543-.486,1.033-.83,1.462-.621.769-1.83,1.813-4.371,2.525l-93.74,26.269c-.037.01-.093.026-.183.031-.227.053-.602.118-1.083.162-1,.099-2.241.094-3.463-.168-1.18-.254-2.158-.725-2.97-1.465-.744-.678-1.775-1.982-2.537-4.7l-14.026-50.051c-.001-.04-.017-.096-.046-.199-.037-.241-.119-.642-.171-1.151-.129-1.072-.173-2.38.033-3.657.205-1.246.623-2.271,1.281-3.09.621-.769,1.83-1.813,4.371-2.525l93.74-26.269c.028-.008.093-.026.18-.04.232-.035.604-.109,1.086-.153,1-.099,2.241-.094,3.454.171,1.182.263,2.17.732,2.958,1.458.756.685,1.78,2,2.539,4.71Z"/>
    <path class="st3" d="M114.524,397.355l-5.643,1.581c-.12-.43-.402-.824-.821-1.06l-14.723-8.632c-.831-.483-1.858-.195-2.308.647-.114.203-.181.434-.201.651l-4.473-.067.129-8.42c.013-.961-.731-1.78-1.676-1.808-.938-.039-1.712.722-1.725,1.683l-.596,38.832-4.473-.067c-.058-.568-.358-1.099-.875-1.397l-13.248-7.755,7.289-13.51c.452-.832.148-1.916-.67-2.392-.821-.485-1.858-.195-2.308.647l-8.093,15.025c-.235.419-.271.902-.151,1.332l-5.643,1.581c-4.883-17.425,4.64-35.33,21.252-39.985,16.631-4.66,34.072,5.688,38.955,23.113Z"/>
    <path class="st3" d="M108.881,398.936l5.643-1.581c4.883,17.425-4.64,35.33-21.271,39.99-16.612,4.655-34.053-5.693-38.936-23.118l5.643-1.581c.12.43.402.824.821,1.06l14.723,8.632c.821.485,1.858.195,2.308-.647.166-.308.229-.659.205-.995l4.473.067-.134,8.764c-.013.961.731,1.78,1.666,1.81.947.037,1.722-.724,1.735-1.685l.6-39.176,4.473.067c-.07.685.256,1.379.871,1.741l13.238,7.758-7.279,13.507c-.452.832-.148,1.916.67,2.392.821.485,1.849.197,2.308-.647l8.093-15.025c.235-.419.271-.902.151-1.332Z"/>
    <path class="st8" d="M108.06,397.876c.419.235.701.63.821,1.06s.085.913-.151,1.332l-8.093,15.025c-.459.844-1.487,1.132-2.308.647-.819-.476-1.122-1.56-.67-2.392l7.279-13.507-13.238-7.758c-.615-.362-.941-1.056-.871-1.741.02-.217.086-.447.201-.651.449-.841,1.477-1.129,2.308-.647l14.723,8.632Z"/>
    <path class="st3" d="M51.173,283.192c16.257-4.556,33.303,5.571,38.076,22.604s-4.528,34.543-20.785,39.098c-16.257,4.556-33.301-5.562-38.076-22.604s4.528-34.543,20.785-39.098ZM76.365,309.406c-.223-.794-.499-1.563-.819-2.31l-9.686,7.329,8.045,10.332c2.931-4.248,4.002-9.848,2.46-15.351ZM56.347,308.778l12.416-9.848c-3.992-2.63-8.968-3.594-13.817-2.235-9.147,2.563-14.38,12.404-11.694,21.99.605,2.158,1.569,4.125,2.779,5.852l-5.518,8.429c3.776,4.162,8.697,7.086,14.034,8.331l3.951-9.38c2.026.218,4.098.061,6.172-.52,2.401-.673,4.532-1.844,6.317-3.383l-8.27-10.631-6.371-8.604Z"/>
    <path class="st3" d="M103.037,468.27c16.257-4.556,33.301,5.562,38.076,22.604,4.773,17.033-4.531,34.533-20.788,39.089s-33.301-5.562-38.074-22.594c-4.776-17.042,4.528-34.543,20.785-39.098ZM130.795,507.127l-3.566-12.725c-.932-3.326-3.909-4.961-6.884-5.074l-1.597-5.699c-1.642-5.858-7.496-9.347-13.084-7.781s-8.786,7.591-7.144,13.449l1.597,5.699c-2.491,1.645-4.186,4.589-3.254,7.915l3.566,12.725c1.21,4.317,5.891,5.776,9.535,4.755l15.173-4.252c3.625-1.016,6.867-4.695,5.657-9.012Z"/>
    <path class="st8" d="M75.546,307.096c.32.747.596,1.516.819,2.31,1.542,5.503.471,11.104-2.46,15.351l-8.045-10.332,9.686-7.329Z"/>
    <path class="st8" d="M127.229,494.402l3.566,12.725c1.21,4.317-2.032,7.996-5.657,9.012l-15.173,4.252c-3.644,1.021-8.325-.438-9.535-4.755l-3.566-12.725c-.932-3.326.762-6.27,3.254-7.915l-1.597-5.699c-1.642-5.858,1.557-11.884,7.144-13.449s11.442,1.923,13.084,7.781l1.597,5.699c2.974.114,5.952,1.748,6.884,5.074ZM115.178,490.342l-1.485-5.298c-.822-2.934-3.748-4.673-6.542-3.89s-4.399,3.792-3.577,6.726l1.485,5.298,10.119-2.836Z"/>
    <path class="st8" d="M68.763,298.93l-12.416,9.848,6.371,8.604,8.27,10.631c-1.786,1.538-3.916,2.71-6.317,3.383-2.074.581-4.146.739-6.172.52l-3.951,9.38c-5.337-1.245-10.258-4.169-14.034-8.331l5.518-8.429c-1.209-1.727-2.174-3.694-2.779-5.852-2.686-9.586,2.547-19.426,11.694-21.99,4.849-1.359,9.825-.395,13.817,2.235ZM60.674,323.104l-1.09-1.66-2.68,1.87,1.223-4.051c.118-.406-.02-.861-.352-1.111-.328-.271-.776-.286-1.113-.051l-2.68,1.87,1.22-4.06c.118-.406-.017-.852-.352-1.111-.332-.25-.773-.277-1.117-.03l-4.973,3.469,1.102,1.666,2.678-1.879-1.22,4.06c-.13.399.014.842.342,1.113.335.259.785.284,1.11.042l2.69-1.872-1.23,4.063c-.127.409.026.849.349,1.101.325.262.785.284,1.113.051l4.98-3.481Z"/>
    <path class="st8" d="M84.81,380.248c.945.027,1.688.847,1.676,1.808l-.129,8.42-.6,39.176c-.013.961-.787,1.722-1.735,1.685-.935-.03-1.679-.85-1.666-1.81l.134-8.764.596-38.832c.013-.961.787-1.722,1.725-1.683Z"/>
    <path class="st3" d="M113.693,485.044l1.485,5.298-10.119,2.836-1.485-5.298c-.822-2.934.783-5.943,3.577-6.726s5.72.957,6.542,3.89Z"/>
    <path class="st3" d="M59.584,321.444l1.09,1.66-4.98,3.481c-.328.233-.787.211-1.113-.051-.323-.252-.476-.693-.349-1.101l1.23-4.063-2.69,1.872c-.325.242-.775.217-1.11-.042-.328-.271-.472-.714-.342-1.113l1.22-4.06-2.678,1.879-1.102-1.666,4.973-3.469c.344-.247.785-.22,1.117.03.335.259.47.705.352,1.111l-1.22,4.06,2.68-1.87c.337-.236.785-.22,1.113.051.332.25.47.705.352,1.111l-1.223,4.051,2.68-1.87Z"/>
    <path class="st8" d="M77.141,419.298c.517.299.817.829.875,1.397.024.336-.039.686-.205.995-.449.841-1.487,1.132-2.308.647l-14.723-8.632c-.419-.235-.701-.63-.821-1.06s-.085-.913.151-1.332l8.093-15.025c.449-.841,1.487-1.132,2.308-.647.819.476,1.122,1.56.67,2.392l-7.289,13.51,13.248,7.755Z"/>
    <path class="st7" d="M106.905,538.167l5.933,21.172c-3.215,3.884-4.512,9.356-3.004,14.738l1.299,4.634c-.905,1.876-1.351,3.845-1.523,5.677-.024.238-.05.468-.065.703-.347,4.047.575,7.336.575,7.336l7.624,27.207c-13.451-5.28-24.494-16.927-28.822-32.372l-21.352-76.193,7.362-2.063c4.43,15.809,17.321,26.858,31.973,29.161Z"/>
    <path class="st7" d="M80.974,445.633l6.121,21.844c-11.319,9.591-16.594,25.721-12.164,41.529l-7.362,2.063-25.931-92.534,7.362-2.063c4.43,15.809,17.321,26.858,31.973,29.161Z"/>
    <path class="st7" d="M55.043,353.099l6.119,21.835c-11.317,9.6-16.594,25.721-12.161,41.539l-7.362,2.063-25.931-92.534,7.362-2.063c4.43,15.809,17.319,26.849,31.973,29.161Z"/>
    <path class="st3" d="M109.544,585.091c-.251,3.849.607,6.914.607,6.914l7.763,27.702-.172-.073-7.624-27.207s-.922-3.289-.575-7.336Z"/>
  </g>
  <g>
    <path class="st13" d="M207.6,285.981l41.236-11.556,33.206,118.496c3.081,10.993,3.295,21.509.645,31.546-2.651,10.04-7.847,18.702-15.59,25.988-7.742,7.287-17.191,12.494-28.344,15.619-18.694,5.238-34.554,4.566-47.581-2.018-13.027-6.584-21.978-18.572-26.854-35.97l41.472-11.622c2.216,7.907,5.177,13.261,8.884,16.059,3.707,2.8,8.741,3.308,15.104,1.525,5.732-1.606,9.548-4.998,11.443-10.18,1.895-5.178,1.757-11.641-.415-19.393l-33.206-118.496Z"/>
    <path class="st13" d="M386.254,378.386c-1.509-5.387-4.579-9.053-9.209-11-4.63-1.945-12.154-3.194-22.575-3.746-10.422-.549-19.075-1.48-25.963-2.796-22.389-4.211-35.964-14.819-40.728-31.816-2.372-8.464-2.015-16.618,1.07-24.462,3.085-7.843,8.605-14.821,16.558-20.937,7.954-6.114,17.523-10.739,28.71-13.874,10.908-3.057,21.238-3.838,30.986-2.345,9.749,1.494,18.034,5.188,24.857,11.084,6.823,5.896,11.539,13.497,14.146,22.801l-36.479,10.223c-1.744-6.226-4.991-10.522-9.738-12.889-4.749-2.365-10.352-2.645-16.814-.834-6.532,1.831-11.284,4.729-14.257,8.692-2.974,3.965-3.832,8.187-2.578,12.661,1.098,3.919,4.178,6.884,9.238,8.898,5.061,2.015,13.312,3.249,24.755,3.701,11.442.454,21.083,1.694,28.92,3.721,19.064,4.92,30.939,15.738,35.624,32.455,3.744,13.362,1.682,25.258-6.188,35.685-7.869,10.43-20.523,18.087-37.963,22.974-12.299,3.446-24.057,4.348-35.271,2.698-11.215-1.647-20.425-5.631-27.629-11.949-7.204-6.316-12.216-14.514-15.039-24.586l36.687-10.28c2.294,8.184,6.085,13.629,11.378,16.332,5.291,2.705,12.662,2.732,22.112.084,6.045-1.693,10.453-4.344,13.228-7.95,2.773-3.606,3.494-7.787,2.161-12.544Z"/>
  </g>
</svg>