<?xml version="1.0" standalone="no"?>
<!DOCTYPE svg PUBLIC "-//W3C//DTD SVG 20010904//EN"
 "http://www.w3.org/TR/2001/REC-SVG-20010904/DTD/svg10.dtd">
<svg version="1.0" xmlns="http://www.w3.org/2000/svg"
 width="700.000000pt" height="700.000000pt" viewBox="0 0 700.000000 700.000000"
 preserveAspectRatio="xMidYMid meet">
<metadata>
Created by potrace 1.14, written by Peter Selinger 2001-2017
</metadata>
<g transform="translate(0.000000,700.000000) scale(0.100000,-0.100000)"
fill="#000000" stroke="none">
<path d="M3230 6111 c-1247 -228 -1360 -250 -1424 -280 -81 -39 -177 -130
-218 -207 -61 -114 -58 -9 -58 -1856 l0 -1688 -82 0 c-99 0 -150 -20 -195 -75
-17 -21 -36 -57 -42 -81 -14 -57 -15 -745 -1 -796 14 -49 52 -93 104 -121 39
-21 56 -22 289 -25 l247 -3 0 -48 c0 -26 -5 -62 -11 -80 -10 -29 -14 -31 -63
-31 -76 0 -106 -37 -70 -88 l15 -22 358 0 c264 0 360 3 369 12 16 16 16 70 0
86 -7 7 -36 12 -65 12 -61 0 -68 9 -79 105 l-7 54 254 3 c240 3 256 4 296 25
59 32 88 76 107 166 5 20 12 27 31 27 29 0 29 5 10 -125 -21 -141 -19 -197 7
-251 24 -51 81 -98 137 -114 53 -15 652 -90 714 -90 92 1 180 61 206 142 8 26
61 396 61 430 0 4 32 8 70 8 l70 0 0 -110 0 -110 770 0 770 0 0 486 c0 541 1
529 -68 582 -33 25 -44 27 -149 30 l-113 4 0 1572 c0 1533 -1 1575 -20 1650
-38 148 -144 302 -261 377 l-49 32 0 118 c0 89 -5 132 -20 182 -24 77 -85 173
-143 223 -87 75 -221 125 -332 123 -33 0 -670 -112 -1415 -248z m1722 -679
c65 -32 125 -94 156 -160 l27 -57 3 -1567 2 -1568 -376 0 -377 0 -43 -25 c-28
-16 -49 -39 -63 -68 -19 -40 -21 -61 -21 -245 l0 -202 -45 0 c-36 0 -45 3 -45
18 0 9 16 136 35 282 39 295 40 315 23 374 -15 50 -82 119 -129 134 -19 6
-193 32 -388 57 -338 44 -356 45 -406 31 -57 -17 -112 -64 -138 -117 -9 -21
-34 -180 -64 -407 l-48 -372 -47 0 -48 0 0 168 c0 92 -5 187 -11 212 -14 62
-52 108 -113 136 l-51 24 -463 0 -462 0 2 1568 c3 1483 4 1569 21 1607 29 64
64 110 112 144 89 64 -12 60 1515 58 l1395 -2 47 -23z m-1263 -3142 c174 -22
333 -45 353 -50 49 -14 78 -52 78 -104 0 -80 -168 -1333 -181 -1355 -8 -11
-28 -28 -45 -36 -29 -14 -60 -11 -380 31 -228 29 -357 50 -372 60 -56 37 -57
23 34 729 46 358 88 667 94 688 11 37 56 77 89 77 7 0 155 -18 330 -40z m-878
-359 l29 -29 0 -357 c0 -378 -4 -410 -48 -434 -14 -8 -237 -11 -716 -11 l-694
0 -31 26 -31 26 0 369 c0 307 3 375 15 399 8 15 20 30 27 33 7 3 329 6 716 6
l704 1 29 -29z m2857 17 c9 -9 12 -118 12 -430 l0 -418 -650 0 -650 0 0 418
c0 312 3 421 12 430 17 17 1259 17 1276 0z"/>
<path d="M3283 5225 c-165 -42 -309 -129 -429 -258 -116 -124 -189 -273 -219
-442 -19 -111 -19 -189 0 -300 60 -341 314 -615 652 -701 304 -77 631 19 850
249 152 160 243 386 243 602 0 145 -50 322 -127 454 -82 139 -259 292 -411
355 -169 71 -384 87 -559 41z m359 -385 c84 -26 226 -118 207 -134 -2 -1 -92
-38 -199 -80 -107 -43 -198 -81 -202 -84 -7 -7 72 -209 180 -460 34 -79 62
-147 62 -152 0 -15 -118 -40 -192 -40 -41 0 -97 7 -124 15 -27 8 -52 11 -55 7
-4 -4 -45 -53 -92 -109 l-85 -102 -60 38 c-33 22 -85 64 -115 95 -53 53 -138
166 -136 183 0 4 47 46 105 93 92 75 104 88 99 110 -34 160 -28 254 25 365
102 214 356 325 582 255z m341 -492 c-3 -87 -29 -167 -79 -243 -33 -51 -91
-112 -98 -104 -9 10 -135 313 -132 317 11 10 283 110 296 108 12 -1 15 -17 13
-78z"/>
<path d="M3251 4379 c-46 -16 -86 -30 -88 -32 -2 -3 1 -16 6 -30 9 -24 13 -25
42 -17 18 5 34 8 36 7 1 -2 -9 -20 -23 -40 -32 -47 -29 -82 6 -81 14 0 38 4
54 9 l29 8 -32 -46 c-59 -86 -38 -101 86 -59 73 24 87 32 85 48 -6 32 -19 38
-57 27 l-36 -11 21 31 c40 61 45 76 29 93 -13 13 -20 13 -57 0 -23 -8 -42 -13
-42 -11 0 2 13 25 29 51 29 45 31 68 8 77 -7 2 -50 -9 -96 -24z"/>
<path d="M2785 3238 c-3 -7 -6 -83 -7 -168 l-3 -155 -29 -10 c-25 -8 -31 -6
-52 18 -17 20 -32 27 -59 27 -40 0 -40 0 -22 -43 18 -41 37 -57 84 -68 52 -11
106 5 137 42 26 30 26 33 26 200 l0 169 -35 0 c-20 0 -38 -6 -40 -12z"/>
<path d="M3004 3236 c-46 -20 -74 -62 -74 -109 0 -54 35 -84 136 -117 75 -24
79 -26 79 -55 0 -63 -115 -71 -143 -10 -9 20 -19 25 -47 25 -29 0 -35 -4 -35
-21 0 -31 29 -74 64 -95 59 -35 185 -18 225 29 19 24 25 84 11 117 -14 35 -55
59 -141 84 -68 19 -86 47 -53 80 25 26 89 21 112 -9 15 -19 29 -25 57 -25 33
0 36 2 30 23 -12 39 -33 64 -68 81 -42 19 -110 20 -153 2z"/>
<path d="M3930 3238 c0 -8 4 -18 9 -23 5 -6 31 -46 59 -91 l50 -81 -59 -94
c-32 -51 -59 -97 -59 -101 0 -15 88 -9 94 7 3 8 22 40 41 71 l37 57 40 -67
c44 -74 50 -79 101 -74 l36 3 -60 94 c-32 52 -59 99 -59 104 0 5 25 49 55 98
30 49 55 93 55 99 0 5 -18 10 -40 10 -38 0 -40 -2 -81 -70 -23 -38 -44 -70
-48 -70 -3 0 -24 30 -47 68 -38 64 -42 67 -82 70 -30 2 -42 -1 -42 -10z"/>
<path d="M4346 2998 c-27 -101 -51 -189 -53 -195 -3 -9 6 -13 26 -13 27 0 31
4 41 43 6 23 29 107 51 187 21 80 39 149 39 153 0 4 -12 7 -28 7 -27 0 -28 -2
-76 -182z"/>
<path d="M3350 3132 c-38 -19 -80 -88 -80 -132 0 -111 89 -187 188 -161 98 27
140 162 79 255 -34 52 -123 70 -187 38z m95 -54 c66 -30 47 -178 -24 -178 -53
0 -84 66 -61 135 10 30 25 44 57 54 1 1 14 -4 28 -11z"/>
<path d="M3620 2940 l0 -210 40 0 40 0 0 72 c0 67 1 70 18 56 41 -36 116 -26
152 19 96 123 -7 321 -135 260 -29 -14 -34 -14 -39 -1 -3 8 -19 14 -41 14
l-35 0 0 -210z m184 125 c45 -45 20 -157 -36 -163 -43 -5 -68 28 -68 90 0 34
6 58 17 70 20 22 66 24 87 3z"/>
<path d="M2433 3040 c-139 -66 -138 -75 2 -141 57 -27 107 -49 110 -49 4 0 5
14 3 31 -3 28 -9 34 -65 57 -35 14 -63 28 -63 32 0 4 28 18 63 32 56 23 62 29
65 57 2 17 0 31 -5 31 -4 -1 -54 -23 -110 -50z"/>
<path d="M4490 3061 c0 -26 6 -31 70 -57 38 -16 70 -31 70 -34 0 -3 -32 -18
-70 -34 -64 -26 -70 -31 -70 -57 0 -16 3 -29 8 -29 4 0 53 21 110 47 92 42
102 49 102 73 0 24 -10 31 -102 73 -57 26 -106 47 -110 47 -5 0 -8 -13 -8 -29z"/>
<path d="M3464 1066 c-72 -72 -27 -185 75 -186 36 0 49 6 77 34 28 28 34 42
34 76 0 34 -6 48 -34 76 -28 28 -42 34 -76 34 -34 0 -48 -6 -76 -34z"/>
<path d="M4150 918 c1 -32 41 -98 76 -124 l37 -29 741 -3 c408 -2 756 0 774 3
58 11 132 94 132 150 0 13 -96 15 -880 15 -697 0 -880 -3 -880 -12z"/>
</g>
</svg>
