<svg xmlns="http://www.w3.org/2000/svg" viewBox="0 0 504.5 504.9"><g class="jsopx-icon-wrapper"><path d="M457,54.22c0-32.23-52.86-60.47-82.69-52.66L45.38,54.26C20.27,55.44.25,77.13.25,103.74v297.13c0,16.53,7.72,31.16,19.6,40.14v-29.12s0-3.52,1.47-7.44c.08-.23.17-.46.26-.69.69-1.76,1.67-3.59,3.09-5.2v-4.96c0-5.76,2.81-10.83,7.08-13.79v-22.66c-13.9-6.36-23.62-20.91-23.62-37.83s9.72-31.46,23.62-37.83v-23.38c-13.9-6.36-23.62-20.91-23.62-37.83s9.72-31.46,23.62-37.84v-23.37c-13.9-6.37-23.62-20.91-23.62-37.83,0-22.8,17.63-41.28,39.38-41.28,8.27,0,15.97,2.69,22.31,7.27h364.87c6.34-4.58,14.03-7.27,22.31-7.27,21.75,0,39.38,18.48,39.38,41.28,0,16.92-9.72,31.46-23.63,37.83v23.37c13.91,6.38,23.63,20.91,23.63,37.84s-9.72,31.47-23.63,37.83v23.38c13.91,6.37,23.63,20.91,23.63,37.83s-9.72,31.47-23.63,37.83v22.66c4.28,2.96,7.09,8.03,7.09,13.79v3.31c2.63,2.46,4.3,6.07,4.3,10.11v34.38c12.16-8.95,20.11-23.77,20.11-40.53V103.74c0-27.35-21.15-49.52-47.25-49.52ZM409.59,54.62h-234.3l183.12-11.39c9.95-2.6,51.18-6.61,51.18,4.13v7.26Z" fill="#4e7bbe"></path><path d="M371.02,501.3h108.78c6.93,0,12.55-6.01,12.55-13.41h-133.87c0,7.4,5.61,13.41,12.54,13.41Z" fill="#426db5"></path><path d="M479.84,396.91v-3.31c0-5.76-2.81-10.83-7.09-13.79v-22.66c13.91-6.36,23.63-20.91,23.63-37.83s-9.72-31.46-23.63-37.83v-23.38c13.91-6.36,23.63-20.91,23.63-37.83s-9.72-31.46-23.63-37.84v-23.37c13.91-6.37,23.63-20.91,23.63-37.83,0-22.8-17.63-41.28-39.38-41.28-8.28,0-15.97,2.69-22.31,7.27H69.82c-6.34-4.58-14.04-7.27-22.31-7.27-21.75,0-39.38,18.48-39.38,41.28,0,16.92,9.72,31.46,23.62,37.83v23.37c-13.9,6.38-23.62,20.91-23.62,37.84s9.72,31.47,23.62,37.83v23.38c-13.9,6.37-23.62,20.91-23.62,37.83s9.72,31.47,23.62,37.83v22.66c-4.27,2.96-7.08,8.03-7.08,13.79v4.96c-1.42,1.61-2.4,3.44-3.09,5.2.68-1.64,1.62-3.31,2.94-4.8,2.47-2.81,6.26-4.96,12.07-4.96h100.4s16.74,0,16.74,17.89v4.79l9.33-48.8c1.8-9.4,6.54-15.51,15.51-13.62l52.78,10.24c8.97,1.89,14.79,11.04,12.99,20.45l-9.96,52.07,18.74-49.6c3.08-8.16,12.08-12.07,20.11-8.74l87.21,36.18c2.58,1.07,4.76,2.76,6.4,4.85v-12.29c0-7.4,5.63-13.42,12.55-13.42h92.04c3.16,0,6.05,1.25,8.25,3.32,2.64,2.45,4.3,6.07,4.3,10.1h.16v-.4c0-4.04-1.67-7.65-4.3-10.11ZM456.85,88.62c17.4,0,31.5,14.79,31.5,33.02s-14.1,33.02-31.5,33.02-31.5-14.79-31.5-33.02,14.1-33.02,31.5-33.02ZM456.85,187.66c17.4,0,31.5,14.79,31.5,33.02s-14.1,33.02-31.5,33.02-31.5-14.78-31.5-33.02,14.1-33.02,31.5-33.02ZM349.8,174.23h7.21l3.09,6.11,3.2-6.11h7.13l-5.8,10.81,6.09,11.38h-7.17l-3.47-6.57-3.4,6.57h-7.21l6.11-11.38-5.78-10.81ZM14.03,219.53c0-18.65,14.43-33.77,32.21-33.77s32.23,15.12,32.23,33.77-14.43,33.77-32.23,33.77-32.21-15.12-32.21-33.77ZM47.35,352.74c-17.4,0-31.5-14.78-31.5-33.02s14.1-33.01,31.5-33.01,31.5,14.78,31.5,33.01-14.1,33.02-31.5,33.02ZM47.35,154.66c-17.4,0-31.5-14.79-31.5-33.02s14.1-33.02,31.5-33.02,31.5,14.79,31.5,33.02-14.1,33.02-31.5,33.02ZM206.33,290.1h-31l-21.19-42.75h-15.66v42.75h-28.94v-120.86h47.24c14.24,0,25.37,3.18,33.39,9.54,8.03,6.35,12.04,15.34,12.04,26.94,0,8.41-1.69,15.37-5.07,20.9-3.38,5.53-8.67,10.01-15.87,13.43l25.06,48.8v1.25ZM244.22,264.07c2.84,4.88,7.74,7.33,14.68,7.33,5.88,0,10.37-1.39,13.48-4.18,3.1-2.79,4.76-7.21,4.95-13.27h25.42c-.34,7.43-2.33,13.99-5.97,19.69-3.64,5.69-8.76,10.1-15.33,13.23-6.59,3.13-14.1,4.7-22.55,4.7-13.94,0-24.91-4.58-32.92-13.72-8.02-9.14-12.02-22.05-12.02-38.72v-5.28c0-10.46,1.81-19.61,5.42-27.46,3.62-7.85,8.83-13.91,15.63-18.19,6.8-4.28,14.66-6.41,23.6-6.41,12.87,0,23.21,3.41,31.03,10.23s12.26,16.21,13.33,28.19h-25.49c-.2-6.5-1.83-11.17-4.88-14-3.06-2.84-7.73-4.26-13.99-4.26s-11.02,2.4-13.99,7.19c-2.96,4.79-4.51,12.44-4.66,22.95v7.56c0,11.39,1.42,19.53,4.26,24.42ZM385.66,290.1h-70.07v-106.77h25.57v86.97h44.5v19.8ZM391.74,196.42l-1.73-5.58h-9.79l-1.72,5.58h-7.63l10.87-29.86h6.73l10.95,29.86h-7.68ZM456.85,352.74c-17.4,0-31.5-14.78-31.5-33.02s14.1-33.01,31.5-33.01,31.5,14.78,31.5,33.01-14.1,33.02-31.5,33.02Z" fill="#fff"></path><path fill="#426db5" d="M480.27 25.48L480.04 20.72 482.44 27.81 484.02 27.81 486.41 20.73 486.18 25.48 486.18 27.81 488.56 27.81 488.56 17.85 485.43 17.85 483.23 24.78 481.02 17.85 477.89 17.85 477.89 27.81 480.27 27.81 480.27 25.48z"></path><path d="M471.43,394h-92.04c-6.92,0-12.55,6.02-12.55,13.42v12.29c-1.64-2.09-3.82-3.78-6.4-4.85l-87.21-36.18c-8.03-3.33-17.03.58-20.11,8.74l-18.74,49.6,9.96-52.07c1.8-9.41-4.02-18.56-12.99-20.45l-52.78-10.24c-8.97-1.89-13.71,4.22-15.51,13.62l-9.33,48.8v-4.79c0-17.89-16.74-17.89-16.74-17.89H36.59c-5.81,0-9.6,2.15-12.07,4.96-1.32,1.49-2.26,3.16-2.94,4.8-.09.23-.18.46-.26.69-1.47,3.92-1.47,7.44-1.47,7.44v53.65c0,17.88,16.74,17.88,16.74,17.88h33.47c0,5.96-.7,10.43-2.1,13.41h-6.27c-2.32,0-4.19,2-4.19,4.47h58.58c0-2.47-1.89-4.47-4.19-4.47h-6.27c-1.4-2.98-2.1-7.45-2.1-13.41h33.47c3.31,0,5.98-.7,8.11-1.82,2.24,4.48,6.32,7.89,11.42,8.96l48.76,10.25c8.99,1.88,17.72-4.23,19.51-13.64l5.75-30.06c1.4,4.45,4.67,8.28,9.23,10.17l87.2,36.18c8.03,3.34,17.04-.58,20.12-8.74l19.75-52.3v41h117.14v-76c0-4.03-1.66-7.65-4.3-10.1-2.2-2.07-5.09-3.32-8.25-3.32ZM145.35,460.5l-1.83,9.61c-.13.62-.21,1.24-.26,1.86-.36.48-.77.89-1.23,1.22-.83.59-2.32,1.28-5.04,1.28H36.66s-.1,0-.19-.01c-.24-.01-.63-.05-1.12-.14-1.02-.18-2.25-.53-3.39-1.13-1.1-.59-1.94-1.33-2.54-2.28-.55-.88-1.21-2.46-1.21-5.37v-53.57s.01-.1.01-.22c.03-.24.06-.66.15-1.18.17-1.1.49-2.41,1.05-3.62.55-1.18,1.24-2.08,2.13-2.71.83-.59,2.32-1.29,5.04-1.29h100.33s.1,0,.19.01c.23.02.63.06,1.12.15,1.02.18,2.25.52,3.38,1.13,1.1.59,1.95,1.33,2.53,2.27.56.89,1.21,2.48,1.21,5.38v48.61ZM216.67,485.47c-.9,4.71-5.27,7.75-9.76,6.81l-48.77-10.23c-3.57-.76-6.15-3.81-6.58-7.41,2.17-4.52,2.17-9.1,2.17-9.1v-4.62l17.46-91.32c.9-4.71,5.27-7.76,9.76-6.82l48.76,10.24c4.49.95,7.4,5.53,6.5,10.23l-19.54,102.22ZM362.13,432.64l-22.31,59.07c-1.54,4.08-6.04,6.04-10.06,4.37l-87.2-36.18c-4.01-1.67-6.02-6.33-4.48-10.4l22.31-59.07c1.54-4.08,6.05-6.04,10.06-4.37l87.2,36.19c4.02,1.66,6.02,6.32,4.48,10.39ZM475.62,474.47h-100.41v-67.05c0-2.48,1.87-4.47,4.18-4.47h92.04c2.32,0,4.19,1.99,4.19,4.47v67.05Z" fill="#426db5"></path><path d="M471.43,402.95h-92.04c-2.31,0-4.18,1.99-4.18,4.47v67.05h100.41v-67.05c0-2.48-1.87-4.47-4.19-4.47Z" fill="#fff"></path><path d="M357.65,422.25l-87.2-36.19c-4.01-1.67-8.52.29-10.06,4.37l-22.31,59.07c-1.54,4.07.47,8.73,4.48,10.4l87.2,36.18c4.02,1.67,8.52-.29,10.06-4.37l22.31-59.07c1.54-4.07-.46-8.73-4.48-10.39ZM343.7,459.16c-1.53,4.08-6.03,6.04-10.05,4.37-4.01-1.67-6.02-6.33-4.47-10.4,1.53-4.08,6.04-6.03,10.04-4.37,4.03,1.67,6.03,6.33,4.48,10.4Z" fill="#fff"></path><path d="M456.85,154.66c17.4,0,31.5-14.79,31.5-33.02s-14.1-33.02-31.5-33.02-31.5,14.79-31.5,33.02,14.1,33.02,31.5,33.02ZM441.16,121.2c0-2.55.34-4.9,1.04-7.05.7-2.18,1.72-4.06,3.08-5.65,1.35-1.59,3.02-2.82,5.02-3.7,1.98-.9,4.27-1.36,6.88-1.36s4.93.46,6.92,1.36c2.01.88,3.69,2.11,5.04,3.7,1.36,1.59,2.39,3.47,3.08,5.65.7,2.15,1.05,4.5,1.05,7.05v.69c0,2.53-.35,4.88-1.05,7.05-.69,2.15-1.72,4.03-3.08,5.65-1.35,1.59-3.02,2.82-5,3.7-2,.89-4.29,1.33-6.9,1.33s-4.91-.44-6.92-1.33c-2.01-.88-3.69-2.11-5.04-3.7-1.36-1.62-2.38-3.5-3.08-5.65-.7-2.17-1.04-4.52-1.04-7.05v-.69Z" fill="#426db5"></path><path d="M456.85,253.7c17.4,0,31.5-14.78,31.5-33.02s-14.1-33.02-31.5-33.02-31.5,14.79-31.5,33.02,14.1,33.02,31.5,33.02ZM444.53,200.06h8.44l.3,2.81c.69-.89,1.48-1.62,2.37-2.19,1.26-.79,2.75-1.18,4.5-1.18,1.85,0,3.47.36,4.87,1.1,1.41.73,2.6,1.78,3.55,3.16.97,1.35,1.69,2.98,2.19,4.88.48,1.89.71,4,.71,6.32v.59c0,2.22-.23,4.28-.71,6.17-.5,1.91-1.21,3.57-2.17,4.98-.95,1.41-2.12,2.51-3.55,3.29-1.4.77-3.02,1.16-4.87,1.16-1.73,0-3.23-.4-4.49-1.22-.77-.49-1.47-1.09-2.07-1.82v14.21h-9.07v-42.26Z" fill="#426db5"></path><path d="M488.35,319.72c0-18.23-14.1-33.01-31.5-33.01s-31.5,14.78-31.5,33.01,14.1,33.02,31.5,33.02,31.5-14.78,31.5-33.02ZM463.72,340.35l-6.59-13.9-6.6,13.9h-10.9l11.26-20.69-10.97-20.38h10.8l6.41,13.66,6.4-13.66h10.77l-10.92,20.38,11.22,20.69h-10.88Z" fill="#426db5"></path><path fill="#426db5" d="M471.51 27.81L473.89 27.81 473.89 19.71 476.86 19.71 476.86 17.85 468.6 17.85 468.6 19.71 471.51 19.71 471.51 27.81z"></path><path fill="#fff" d="M474.3 299.28L463.53 299.28 457.13 312.94 450.72 299.28 439.92 299.28 450.89 319.66 439.63 340.35 450.53 340.35 457.13 326.45 463.72 340.35 474.6 340.35 463.38 319.66 474.3 299.28z"></path><path d="M445.28,134.59c1.35,1.59,3.03,2.82,5.04,3.7,2.01.89,4.32,1.33,6.92,1.33s4.9-.44,6.9-1.33c1.98-.88,3.65-2.11,5-3.7,1.36-1.62,2.39-3.5,3.08-5.65.7-2.17,1.05-4.52,1.05-7.05v-.69c0-2.55-.35-4.9-1.05-7.05-.69-2.18-1.72-4.06-3.08-5.65-1.35-1.59-3.03-2.82-5.04-3.7-1.99-.9-4.3-1.36-6.92-1.36s-4.9.46-6.88,1.36c-2,.88-3.67,2.11-5.02,3.7-1.36,1.59-2.38,3.47-3.08,5.65-.7,2.15-1.04,4.5-1.04,7.05v.69c0,2.53.34,4.88,1.04,7.05.7,2.15,1.72,4.03,3.08,5.65ZM451.53,121.2c0-1.26.09-2.45.27-3.57.19-1.14.49-2.14.93-3,.42-.89.99-1.57,1.71-2.06.74-.49,1.66-.74,2.74-.74s2.03.25,2.77.74c.74.49,1.32,1.17,1.76,2.06.42.86.74,1.86.92,3,.19,1.12.28,2.31.28,3.57v.69c0,1.31-.09,2.53-.28,3.67-.18,1.14-.5,2.14-.92,3-.44.84-1.02,1.49-1.76,1.96-.72.48-1.62.72-2.71.72s-2.03-.24-2.77-.72c-.74-.47-1.32-1.12-1.74-1.96-.44-.86-.74-1.86-.93-3-.18-1.14-.27-2.36-.27-3.67v-.69Z" fill="#fff"></path><path d="M453.6,228.11c.6.73,1.3,1.33,2.07,1.82,1.26.82,2.76,1.22,4.49,1.22,1.85,0,3.47-.39,4.87-1.16,1.43-.78,2.6-1.88,3.55-3.29.96-1.41,1.67-3.07,2.17-4.98.48-1.89.71-3.95.71-6.17v-.59c0-2.32-.23-4.43-.71-6.32-.5-1.9-1.22-3.53-2.19-4.88-.95-1.38-2.14-2.43-3.55-3.16-1.4-.74-3.02-1.1-4.87-1.1-1.75,0-3.24.39-4.5,1.18-.89.57-1.68,1.3-2.37,2.19l-.3-2.81h-8.44v42.26h9.07v-14.21ZM453.6,209.24c.08-.18.17-.35.27-.52.39-.64.91-1.11,1.55-1.41.67-.31,1.48-.47,2.46-.47.84,0,1.54.19,2.13.58.57.4,1.03.96,1.36,1.7.36.73.63,1.59.79,2.59.15.99.24,2.06.24,3.25v.59c0,1.14-.08,2.22-.22,3.22-.14.99-.38,1.88-.72,2.65-.35.75-.8,1.35-1.38,1.77-.57.42-1.28.63-2.15.63-1.3,0-2.31-.3-3.07-.91-.53-.42-.96-.97-1.26-1.63v-12.04Z" fill="#fff"></path><path d="M452.73,128.56c.42.84,1,1.49,1.74,1.96.74.48,1.67.72,2.77.72s1.99-.24,2.71-.72c.74-.47,1.32-1.12,1.76-1.96.42-.86.74-1.86.92-3,.19-1.14.28-2.36.28-3.67v-.69c0-1.26-.09-2.45-.28-3.57-.18-1.14-.5-2.14-.92-3-.44-.89-1.02-1.57-1.76-2.06-.74-.49-1.66-.74-2.77-.74s-2,.25-2.74.74c-.72.49-1.29,1.17-1.71,2.06-.44.86-.74,1.86-.93,3-.18,1.12-.27,2.31-.27,3.57v.69c0,1.31.09,2.53.27,3.67.19,1.14.49,2.14.93,3Z" fill="#426db5"></path><path d="M457.93,223.82c.87,0,1.58-.21,2.15-.63.58-.42,1.03-1.02,1.38-1.77.34-.77.58-1.66.72-2.65.14-1,.22-2.08.22-3.22v-.59c0-1.19-.09-2.26-.24-3.25-.16-1-.43-1.86-.79-2.59-.33-.74-.79-1.3-1.36-1.7-.59-.39-1.29-.58-2.13-.58-.98,0-1.79.16-2.46.47-.64.3-1.16.77-1.55,1.41-.1.17-.19.34-.27.52v12.04c.3.66.73,1.21,1.26,1.63.76.61,1.77.91,3.07.91Z" fill="#426db5"></path><path d="M358.41,43.23l-183.12,11.39h234.3v-7.26c0-10.74-41.23-6.73-51.18-4.13Z" fill="#fff"></path><path d="M381.74,166.56l-10.87,29.86h7.63l1.72-5.58h9.79l1.73,5.58h7.68l-10.95-29.86h-6.73ZM381.93,185.28l3.17-10.36,3.2,10.36h-6.37Z" fill="#426db5"></path><path fill="#fff" d="M381.93 185.28L388.3 185.28 385.1 174.92 381.93 185.28z"></path><path fill="#426db5" d="M341.16 183.33L315.59 183.33 315.59 290.1 385.66 290.1 385.66 270.3 341.16 270.3 341.16 183.33z"></path><path fill="#426db5" d="M356.68 196.42L360.08 189.85 363.55 196.42 370.72 196.42 364.63 185.04 370.43 174.23 363.3 174.23 360.1 180.34 357.01 174.23 349.8 174.23 355.58 185.04 349.47 196.42 356.68 196.42z"></path><path d="M339.22,448.76c-4-1.66-8.51.29-10.04,4.37-1.55,4.07.46,8.73,4.47,10.4,4.02,1.67,8.52-.29,10.05-4.37,1.55-4.07-.45-8.73-4.48-10.4Z" fill="#426db5"></path><path d="M244.62,209.14c2.97-4.79,7.63-7.19,13.99-7.19s10.93,1.42,13.99,4.26c3.05,2.83,4.68,7.5,4.88,14h25.49c-1.07-11.98-5.51-21.37-13.33-28.19s-18.16-10.23-31.03-10.23c-8.94,0-16.8,2.13-23.6,6.41-6.8,4.28-12.01,10.34-15.63,18.19-3.61,7.85-5.42,17-5.42,27.46v5.28c0,16.67,4,29.58,12.02,38.72,8.01,9.14,18.98,13.72,32.92,13.72,8.45,0,15.96-1.57,22.55-4.7,6.57-3.13,11.69-7.54,15.33-13.23,3.64-5.7,5.63-12.26,5.97-19.69h-25.42c-.19,6.06-1.85,10.48-4.95,13.27-3.11,2.79-7.6,4.18-13.48,4.18-6.94,0-11.84-2.45-14.68-7.33-2.84-4.89-4.26-13.03-4.26-24.42v-7.56c.15-10.51,1.7-18.16,4.66-22.95Z" fill="#426db5"></path><path d="M229.71,373.02l-48.76-10.24c-4.49-.94-8.86,2.11-9.76,6.82l-17.46,91.32v4.62s0,4.58-2.17,9.1c.43,3.6,3.01,6.65,6.58,7.41l48.77,10.23c4.49.94,8.86-2.1,9.76-6.81l19.54-102.22c.9-4.7-2.01-9.28-6.5-10.23ZM193.92,471.83c-.9,4.7-5.27,7.75-9.76,6.81s-7.4-5.52-6.51-10.23c.91-4.7,5.28-7.75,9.77-6.8,4.48.94,7.39,5.52,6.5,10.22Z" fill="#fff"></path><path d="M141.61,404.24c-1.13-.61-2.36-.95-3.38-1.13-.49-.09-.89-.13-1.12-.15-.09-.01-.16-.01-.19-.01H36.59c-2.72,0-4.21.7-5.04,1.29-.89.63-1.58,1.53-2.13,2.71-.56,1.21-.88,2.52-1.05,3.62-.09.52-.12.94-.15,1.18,0,.12,0,.18-.01.22v53.57c0,2.91.66,4.49,1.21,5.37.6.95,1.44,1.69,2.54,2.28,1.14.6,2.37.95,3.39,1.13.49.09.88.13,1.12.14.09.01.15.01.19.01h100.33c2.72,0,4.21-.69,5.04-1.28.46-.33.87-.74,1.23-1.22.05-.62.13-1.24.26-1.86l1.83-9.61v-48.61c0-2.9-.65-4.49-1.21-5.38-.58-.94-1.43-1.68-2.53-2.27Z" fill="#fff"></path><path d="M197.14,226.62c3.38-5.53,5.07-12.49,5.07-20.9,0-11.6-4.01-20.59-12.04-26.94-8.02-6.36-19.15-9.54-33.39-9.54h-47.24v120.86h28.94v-42.75h15.66l21.19,42.75h31v-1.25l-25.06-48.8c7.2-3.42,12.49-7.9,15.87-13.43ZM169.19,220.57c-2.78,2.91-6.92,4.37-12.41,4.37h-18.3v-33.29h18.3c5.44,0,9.56,1.49,12.37,4.46,2.8,2.96,4.2,7.05,4.2,12.27s-1.39,9.28-4.16,12.19Z" fill="#426db5"></path><path d="M187.42,461.61c-4.49-.95-8.86,2.1-9.77,6.8-.89,4.71,2.02,9.29,6.51,10.23s8.86-2.11,9.76-6.81c.89-4.7-2.02-9.28-6.5-10.22Z" fill="#426db5"></path><path d="M156.78,191.65h-18.3v33.29h18.3c5.49,0,9.63-1.46,12.41-4.37,2.77-2.91,4.16-6.98,4.16-12.19s-1.4-9.31-4.2-12.27c-2.81-2.97-6.93-4.46-12.37-4.46Z" fill="#fff"></path><path d="M57.23,233.47c.68.71,1.78.71,2.47,0l12.21-12.66c.69-.71.69-1.85,0-2.56l-12.21-12.67c-.69-.7-1.79-.7-2.47,0-.68.71-.68,1.86,0,2.57l10.98,11.38-10.98,11.38c-.68.7-.68,1.86,0,2.56Z" fill="#fff"></path><path d="M47.35,88.62c-17.4,0-31.5,14.79-31.5,33.02s14.1,33.02,31.5,33.02,31.5-14.79,31.5-33.02-14.1-33.02-31.5-33.02ZM47.34,140.21c-2.22,0-4.32-.43-6.27-1.2l-6.53,8.21c-4.95-2.72-9.02-6.99-11.61-12.17l7.82-6.84c-.72-2.04-1.13-4.26-1.13-6.57,0-10.26,7.93-18.57,17.72-18.57,5.19,0,9.86,2.34,13.09,6.06l-15.06,6.32,3.93,10.31,5.25,12.85c-2.2,1.03-4.64,1.6-7.21,1.6ZM58.35,136.19l-5.11-12.49,11.65-4.58c.11.83.17,1.67.17,2.52,0,5.89-2.62,11.14-6.71,14.55Z" fill="#426db5"></path><path d="M47.35,286.71c-17.4,0-31.5,14.78-31.5,33.01s14.1,33.02,31.5,33.02,31.5-14.78,31.5-33.02-14.1-33.01-31.5-33.01ZM64.09,332.98c0,4.63-4.24,7.37-8.12,7.37h-16.24c-3.9,0-8.14-2.74-8.14-7.37v-13.61c0-3.57,2.5-6.01,5.43-6.95v-6.1c0-6.27,4.84-11.36,10.83-11.36s10.81,5.09,10.81,11.36v6.1c2.93.94,5.43,3.38,5.43,6.95v13.61Z" fill="#426db5"></path><path d="M78.47,219.53c0-18.65-14.43-33.77-32.23-33.77s-32.21,15.12-32.21,33.77,14.43,33.77,32.21,33.77,32.23-15.12,32.23-33.77ZM57.23,208.15c-.68-.71-.68-1.86,0-2.57.68-.7,1.78-.7,2.47,0l12.21,12.67c.69.71.69,1.85,0,2.56l-12.21,12.66c-.69.71-1.79.71-2.47,0-.68-.7-.68-1.86,0-2.56l10.98-11.38-10.98-11.38ZM35.27,230.91c.68.7.68,1.86,0,2.56-.69.71-1.79.71-2.47,0l-12.22-12.66c-.68-.71-.68-1.85,0-2.56l12.22-12.67c.68-.7,1.78-.7,2.47,0,.68.71.68,1.86,0,2.57l-10.99,11.38,10.99,11.38ZM38.75,244.77c-.92-.29-1.43-1.31-1.15-2.26l13.96-47.03c.28-.95,1.26-1.49,2.18-1.2.93.29,1.44,1.31,1.16,2.27l-13.96,47.02c-.28.96-1.26,1.49-2.19,1.2Z" fill="#426db5"></path><path d="M53.24,123.7l5.11,12.49c4.09-3.41,6.71-8.66,6.71-14.55,0-.85-.06-1.69-.17-2.52l-11.65,4.58Z" fill="#fff"></path><path d="M58.66,312.42v-6.1c0-6.27-4.83-11.36-10.81-11.36s-10.83,5.09-10.83,11.36v6.1c-2.93.94-5.43,3.38-5.43,6.95v13.61c0,4.63,4.24,7.37,8.14,7.37h16.24c3.88,0,8.12-2.74,8.12-7.37v-13.61c0-3.57-2.5-6.01-5.43-6.95ZM53.26,311.98h-10.84v-5.66c0-3.14,2.44-5.68,5.43-5.68s5.41,2.54,5.41,5.68v5.66Z" fill="#fff"></path><path d="M45.37,115.45l15.06-6.32c-3.23-3.72-7.9-6.06-13.09-6.06-9.79,0-17.72,8.31-17.72,18.57,0,2.31.41,4.53,1.13,6.57l-7.82,6.84c2.59,5.18,6.66,9.45,11.61,12.17l6.53-8.21c1.95.77,4.05,1.2,6.27,1.2,2.57,0,5.01-.57,7.21-1.6l-5.25-12.85-3.93-10.31ZM39.77,132.94c-.39.14-.84-.01-1.09-.36-.25-.34-.28-.83-.04-1.2l2.35-3.68-3.19,1.11c-.39.14-.83,0-1.09-.35-.25-.36-.27-.84-.03-1.2l2.34-3.69-3.18,1.12-.63-1.96,5.9-2.06c.41-.15.84,0,1.1.34.26.35.27.83.04,1.2l-2.35,3.69,3.19-1.11c.4-.14.84,0,1.09.36.26.34.27.82.04,1.19l-2.34,3.69,3.18-1.11.62,1.95-5.91,2.07Z" fill="#fff"></path><path d="M53.74,194.28c-.92-.29-1.9.25-2.18,1.2l-13.96,47.03c-.28.95.23,1.97,1.15,2.26.93.29,1.91-.24,2.19-1.2l13.96-47.02c.28-.96-.23-1.98-1.16-2.27Z" fill="#fff"></path><path d="M47.85,300.64c-2.99,0-5.43,2.54-5.43,5.68v5.66h10.84v-5.66c0-3.14-2.42-5.68-5.41-5.68Z" fill="#426db5"></path><path d="M41.88,130.03l2.34-3.69c.23-.37.22-.85-.04-1.19-.25-.36-.69-.5-1.09-.36l-3.19,1.11,2.35-3.69c.23-.37.22-.85-.04-1.2-.26-.34-.69-.49-1.1-.34l-5.9,2.06.63,1.96,3.18-1.12-2.34,3.69c-.24.36-.22.84.03,1.2.26.35.7.49,1.09.35l3.19-1.11-2.35,3.68c-.24.37-.21.86.04,1.2.25.35.7.5,1.09.36l5.91-2.07-.62-1.95-3.18,1.11Z" fill="#426db5"></path><path d="M35.27,205.58c-.69-.7-1.79-.7-2.47,0l-12.22,12.67c-.68.71-.68,1.85,0,2.56l12.22,12.66c.68.71,1.78.71,2.47,0,.68-.7.68-1.86,0-2.56l-10.99-11.38,10.99-11.38c.68-.71.68-1.86,0-2.57Z" fill="#fff"></path></g></svg>