<?xml version="1.0" encoding="UTF-8"?>
<svg id="Layer_1" xmlns="http://www.w3.org/2000/svg" version="1.1" xmlns:xlink="http://www.w3.org/1999/xlink" viewBox="0 0 160 160">
  <!-- Generator: Adobe Illustrator 29.8.2, SVG Export Plug-In . SVG Version: 2.1.1 Build 3)  -->
  <defs>
    <style>
      .st0 {
        fill: #a30518;
      }

      .st1 {
        fill: url(#linear-gradient2);
      }

      .st2 {
        fill: #4dc3e2;
      }

      .st3 {
        fill: #4b6d99;
      }

      .st4 {
        fill: #2f5485;
      }

      .st5 {
        fill: #51b5d7;
      }

      .st6 {
        fill: #228bb5;
      }

      .st7 {
        fill: #3a3e40;
      }

      .st8 {
        fill: url(#linear-gradient10);
      }

      .st9 {
        fill: #a20505;
      }

      .st10 {
        fill: #33373d;
      }

      .st11 {
        fill: #30aadf;
      }

      .st12 {
        fill: #d62d2d;
      }

      .st13 {
        fill: #737778;
      }

      .st14 {
        fill: #7695b4;
      }

      .st15 {
        fill: url(#linear-gradient21);
      }

      .st16 {
        fill: #464b54;
      }

      .st17 {
        fill: #436c96;
      }

      .st18 {
        fill: #31496f;
      }

      .st19 {
        fill: #7ed2ea;
      }

      .st20 {
        fill: #8ae7e5;
      }

      .st21 {
        fill: url(#linear-gradient26);
      }

      .st22 {
        fill: url(#linear-gradient1);
      }

      .st23 {
        fill: url(#linear-gradient9);
      }

      .st24 {
        fill: #fa4949;
      }

      .st25 {
        fill: url(#linear-gradient18);
      }

      .st26 {
        fill: #666769;
      }

      .st27 {
        fill: #78d5e2;
      }

      .st28 {
        fill: #d40f22;
      }

      .st29 {
        fill: #b7cdd6;
      }

      .st30 {
        fill: url(#linear-gradient23);
      }

      .st31 {
        fill: #989c9b;
      }

      .st32 {
        fill: #bbbdc0;
      }

      .st33 {
        fill: #41acc5;
      }

      .st34 {
        fill: url(#linear-gradient8);
      }

      .st35 {
        fill: #1d2022;
      }

      .st36 {
        fill: url(#linear-gradient11);
      }

      .st37 {
        fill: #6191c1;
      }

      .st38 {
        fill: url(#linear-gradient16);
      }

      .st39 {
        fill: #042f68;
      }

      .st40 {
        fill: url(#linear-gradient24);
      }

      .st41 {
        fill: #5d99b5;
      }

      .st42 {
        fill: #ba081a;
      }

      .st43 {
        fill: #2e9bbe;
      }

      .st44 {
        fill: url(#linear-gradient22);
      }

      .st45 {
        fill: #a2e6ea;
      }

      .st46 {
        fill: #11c9e7;
      }

      .st47 {
        fill: url(#linear-gradient19);
      }

      .st48 {
        fill: url(#linear-gradient12);
      }

      .st49 {
        fill: #1a98c5;
      }

      .st50 {
        fill: #4f5150;
      }

      .st51 {
        fill: #0c1f4b;
      }

      .st52 {
        fill: #4079a1;
      }

      .st53 {
        fill: #243960;
      }

      .st54 {
        fill: url(#linear-gradient7);
      }

      .st55 {
        fill: #3787a6;
      }

      .st56 {
        fill: #5ba8ba;
      }

      .st57 {
        fill: url(#linear-gradient20);
      }

      .st58 {
        fill: url(#linear-gradient4);
      }

      .st59 {
        fill: #21618a;
      }

      .st60 {
        fill: #60aecf;
      }

      .st61 {
        fill: #8a8c8a;
      }

      .st62 {
        fill: #c3dcdd;
      }

      .st63 {
        fill: #135e8d;
      }

      .st64 {
        fill: url(#linear-gradient14);
      }

      .st65 {
        fill: url(#linear-gradient5);
      }

      .st66 {
        fill: #b2d2d8;
      }

      .st67 {
        fill: #dfe1e2;
      }

      .st68 {
        fill: url(#linear-gradient3);
      }

      .st69 {
        fill: #be1c1c;
      }

      .st70 {
        fill: #0e0e10;
      }

      .st71 {
        fill: #eb1528;
      }

      .st72 {
        fill: #adafb1;
      }

      .st73 {
        fill: url(#linear-gradient25);
      }

      .st74 {
        fill: #c5f6f4;
      }

      .st75 {
        fill: #c60a1d;
      }

      .st76 {
        fill: #094475;
      }

      .st77 {
        fill: #f81a2b;
      }

      .st78 {
        fill: url(#linear-gradient15);
      }

      .st79 {
        fill: #50c0d7;
      }

      .st80 {
        fill: url(#linear-gradient17);
      }

      .st81 {
        fill: #bbeaf3;
      }

      .st82 {
        fill: #a6ddee;
      }

      .st83 {
        fill: #76b0bd;
      }

      .st84 {
        fill: #1188b7;
      }

      .st85 {
        fill: #c0e4ef;
      }

      .st86 {
        fill: #5c7fa8;
      }

      .st87 {
        fill: url(#linear-gradient6);
      }

      .st88 {
        fill: #9eb7ce;
      }

      .st89 {
        fill: #f34343;
      }

      .st90 {
        fill: #5984aa;
      }

      .st91 {
        fill: url(#linear-gradient13);
      }

      .st92 {
        fill: #2280b7;
      }

      .st93 {
        fill: url(#linear-gradient);
      }

      .st94 {
        fill: #88c5d0;
      }

      .st95 {
        fill: #136b96;
      }

      .st96 {
        fill: #095593;
      }

      .st97 {
        fill: #a3cbe1;
      }

      .st98 {
        fill: #101315;
      }
    </style>
    <linearGradient id="linear-gradient" x1="156.178" y1="116.166" x2="78.6" y2="129.615" gradientUnits="userSpaceOnUse">
      <stop offset=".313" stop-color="#101012"/>
      <stop offset="1" stop-color="#44464a"/>
    </linearGradient>
    <linearGradient id="linear-gradient1" x1="72.479" y1="-2.218" x2="54.797" y2="64.47" gradientUnits="userSpaceOnUse">
      <stop offset="0" stop-color="#191a1c"/>
      <stop offset=".522" stop-color="#343638"/>
      <stop offset="1" stop-color="#1d1e21"/>
    </linearGradient>
    <linearGradient id="linear-gradient2" x1="65.32" y1="10.431" x2="20.283" y2="55.374" gradientUnits="userSpaceOnUse">
      <stop offset=".272" stop-color="#686a6d"/>
      <stop offset="1" stop-color="#414447"/>
    </linearGradient>
    <linearGradient id="linear-gradient3" x1="36.316" y1="140.493" x2="123.084" y2="151.667" gradientUnits="userSpaceOnUse">
      <stop offset="0" stop-color="#4e5056"/>
      <stop offset=".534" stop-color="#8a8b8f"/>
      <stop offset="1" stop-color="#a1a2a6"/>
    </linearGradient>
    <linearGradient id="linear-gradient4" x1="150.156" y1="112.928" x2="92.209" y2="116.513" gradientUnits="userSpaceOnUse">
      <stop offset="0" stop-color="#1e1e21"/>
      <stop offset="1" stop-color="#5e5f62"/>
    </linearGradient>
    <linearGradient id="linear-gradient5" x1="115.121" y1="16.39" x2="8.522" y2="33.451" gradientUnits="userSpaceOnUse">
      <stop offset="0" stop-color="#060406"/>
      <stop offset="1" stop-color="#444445"/>
    </linearGradient>
    <linearGradient id="linear-gradient6" x1="30.477" y1="134.304" x2="109.329" y2="140.9" gradientUnits="userSpaceOnUse">
      <stop offset=".07" stop-color="#717273"/>
      <stop offset=".377" stop-color="#39393a"/>
      <stop offset="1" stop-color="#0f0e0f"/>
    </linearGradient>
    <linearGradient id="linear-gradient7" x1="59.277" y1="116.115" x2="17.581" y2="124.577" gradientUnits="userSpaceOnUse">
      <stop offset="0" stop-color="#d0d0d0"/>
      <stop offset="1" stop-color="#a7a7a8"/>
    </linearGradient>
    <linearGradient id="linear-gradient8" x1="109.765" y1="19.021" x2="129.055" y2="22.931" gradientUnits="userSpaceOnUse">
      <stop offset="0" stop-color="#777"/>
      <stop offset="1" stop-color="#626263"/>
    </linearGradient>
    <linearGradient id="linear-gradient9" x1="153.698" y1="116.518" x2="86.748" y2="122.297" gradientUnits="userSpaceOnUse">
      <stop offset="0" stop-color="#1666ac"/>
      <stop offset="1" stop-color="#069ebb"/>
    </linearGradient>
    <linearGradient id="linear-gradient10" x1="84.23" y1="20.622" x2="127.566" y2="29.981" gradientUnits="userSpaceOnUse">
      <stop offset="0" stop-color="#b2b2b2"/>
      <stop offset="1" stop-color="gray"/>
    </linearGradient>
    <linearGradient id="linear-gradient11" x1="137.092" y1="75.187" x2="141.517" y2="86.905" gradientUnits="userSpaceOnUse">
      <stop offset="0" stop-color="#bbe8f3"/>
      <stop offset="1" stop-color="#86d5ec"/>
    </linearGradient>
    <linearGradient id="linear-gradient12" x1="8.045" y1="88.347" x2="38.889" y2="93.139" gradientUnits="userSpaceOnUse">
      <stop offset="0" stop-color="#ccedf6"/>
      <stop offset="1" stop-color="#92d9ed"/>
    </linearGradient>
    <linearGradient id="linear-gradient13" x1="119.6" y1="56.241" x2="152.334" y2="60.446" gradientUnits="userSpaceOnUse">
      <stop offset="0" stop-color="#c9ecf6"/>
      <stop offset="1" stop-color="#97daee"/>
    </linearGradient>
    <linearGradient id="linear-gradient14" x1="7.376" y1="66.998" x2="36.524" y2="71.02" gradientUnits="userSpaceOnUse">
      <stop offset="0" stop-color="#d3f0f7"/>
      <stop offset="1" stop-color="#96dbef"/>
    </linearGradient>
    <linearGradient id="linear-gradient15" x1="42.371" y1="146.804" x2="117.648" y2="149.045" gradientUnits="userSpaceOnUse">
      <stop offset="0" stop-color="#82858d"/>
      <stop offset="1" stop-color="#363b42"/>
    </linearGradient>
    <linearGradient id="linear-gradient16" x1="57.652" y1="122.278" x2="21.45" y2="124.332" gradientUnits="userSpaceOnUse">
      <stop offset="0" stop-color="#212326"/>
      <stop offset="1" stop-color="#434950"/>
    </linearGradient>
    <linearGradient id="linear-gradient17" x1="33.102" y1="59.791" x2="8.314" y2="73.009" gradientUnits="userSpaceOnUse">
      <stop offset="0" stop-color="#91d7ed"/>
      <stop offset="1" stop-color="#83f4e2"/>
    </linearGradient>
    <linearGradient id="linear-gradient18" x1="11.065" y1="87.593" x2="38.431" y2="90.242" gradientUnits="userSpaceOnUse">
      <stop offset="0" stop-color="#91dfe7"/>
      <stop offset="1" stop-color="#84cceb"/>
    </linearGradient>
    <linearGradient id="linear-gradient19" x1="128.242" y1="78.102" x2="153.975" y2="81.037" gradientUnits="userSpaceOnUse">
      <stop offset="0" stop-color="#54add4"/>
      <stop offset="1" stop-color="#3c6e95"/>
    </linearGradient>
    <linearGradient id="linear-gradient20" x1="136.74" y1="54.538" x2="155.077" y2="58.343" gradientUnits="userSpaceOnUse">
      <stop offset="0" stop-color="#65abd4"/>
      <stop offset="1" stop-color="#4f81ae"/>
    </linearGradient>
    <linearGradient id="linear-gradient21" x1="122.702" y1="79.611" x2="148.805" y2="84.168" gradientUnits="userSpaceOnUse">
      <stop offset="0" stop-color="#27a3d3"/>
      <stop offset="1" stop-color="#09548b"/>
    </linearGradient>
    <linearGradient id="linear-gradient22" x1="125.57" y1="68.364" x2="147.08" y2="68.919" gradientUnits="userSpaceOnUse">
      <stop offset="0" stop-color="#288bc5"/>
      <stop offset="1" stop-color="#074686"/>
    </linearGradient>
    <linearGradient id="linear-gradient23" x1="129.613" y1="41.789" x2="140.965" y2="42.126" gradientUnits="userSpaceOnUse">
      <stop offset="0" stop-color="#7dbadd"/>
      <stop offset="1" stop-color="#5e9bc8"/>
    </linearGradient>
    <linearGradient id="linear-gradient24" x1="120.333" y1="27.484" x2="10.673" y2="32.569" gradientUnits="userSpaceOnUse">
      <stop offset="0" stop-color="#93959c"/>
      <stop offset="1" stop-color="#c5c5c9"/>
    </linearGradient>
    <linearGradient id="linear-gradient25" x1="148.685" y1="108.619" x2="93.645" y2="120.853" gradientUnits="userSpaceOnUse">
      <stop offset="0" stop-color="#27292d"/>
      <stop offset="1" stop-color="#6a717d"/>
    </linearGradient>
    <linearGradient id="linear-gradient26" x1="129.121" y1="64.107" x2="150.977" y2="65.715" gradientUnits="userSpaceOnUse">
      <stop offset="0" stop-color="#28a0d2"/>
      <stop offset="1" stop-color="#10639d"/>
    </linearGradient>
  </defs>
  <path class="st89" d="M137.84,79.065c5.697,6.123-4.772,11.118-10.072,11.661-6.312,1.137-14.569-2.218-16.829-5.892-3.079-5.385,4.244-8.352,8.787-9.453,5.64-1.477,14.063-.122,17.963,3.541l.15.143Z"/>
  <path class="st12" d="M137.697,71.597c-4.603,4.477-14.828,4.773-21.156,2.405-7.386-2.13-15.297-10.434-7.038-16.311,7.796-5.262,20.826-2.278,27.009,3.352,3.102,2.628,4.571,7.301,1.33,10.407l-.146.147Z"/>
  <path class="st69" d="M133.576,52.846c-2.723,2.415-11.315,2.955-16.131,2.66-2.333-.054-18.812-1.726-13.143-5.101,7.267-3.1,18.568-2.38,25.328-.556,1.291.447,4.866,1.181,4.012,2.911l-.067.086Z"/>
  <path class="st24" d="M138.081,94.561c3.595,5.372-.758,12.245-4.453,16.654-9.04,11.257-26.282,17.478-41.473,16.914-5.587-.289-14.554-.423-18.424-3.405-2.423-2.738,13.743-8.321,16.075-10.417,10.267-6.036,15.824-16.051,25.833-21.239,6.671-3.653,17.089-5.153,22.328,1.335l.114.159Z"/>
  <path class="st42" d="M128.287,45.082c4.365,2.431-5.142,3.643-6.828,3.834-5.138.682-12.434.29-17.006-.586-13.066-2.686-.614-5.293,5.555-5.349,5.302-.255,14.078.249,18.115,2.022l.164.078Z"/>
  <path class="st9" d="M126.543,40.842c-6.155,5.992-21.352,2.95-30.596,1.772-5.469-.769-22.381-3.548-21.804-8.173,3.29-5.172,22.475-5.312,28.833-4.655,5.984.366,25.527,4.6,23.631,10.948l-.064.107Z"/>
  <path class="st77" d="M110.272,25.408c10.774,4.857-9.476,4.907-12.983,5.769-5.117.617-10.239,1.68-15.016,3.557-5.306,2.047-10.223,5.006-14.622,8.599-6.159,5.038-10.828,10.792-17.27,14.833-6.942,4.348-17.184,8.31-24.623,3.546-7.625-5.57.271-14.933,4.851-20.118,18.213-20.792,53.241-27.11,79.479-16.269l.183.083Z"/>
  <path class="st0" d="M71.268,120.848c8.743,2.112,19.887,5.561,29.8,5.562,2.54.413,16.453-.789,15.363,2.083-.371.661-1.108,1.214-1.858,1.714-3.549,2.338-12.173,6.035-20.413,7.81-10.057,2.155-20.463,1.911-30.86-.568-31.522-8.548-18.339-23.8,7.686-16.667l.282.067Z"/>
  <path class="st9" d="M72.095,37.296c-.071.065-.622.634-.557.54.009-.046.513-.551.554-.557l.003.017Z"/>
  <path class="st9" d="M70.577,38.816c.048-.065.903-.92.85-.836.01.039-.704.761-.827.832l-.023.004Z"/>
  <path class="st42" d="M68.18,116.873c-1.224,10.121-43.137-1.708-39.204-9.479,6.84-7.182,39.022-1.409,39.232,9.329l-.028.15Z"/>
  <path class="st75" d="M54.509,100.028c5.155,3.192-5.043,5.266-7.449,5.699-5.287,1.013-12.42.328-16.761-.799-11.643-3.163-.43-6.63,5.585-7.216,5.347-.781,14.348.147,18.456,2.225l.169.091Z"/>
  <path class="st71" d="M25.102,67.458c6.916-4.856,19.508-5.482,25.117,1.612,5.305,7.953-6.659,14.099-15.532,13.72-8.677.206-20.297-7.645-9.792-15.189l.207-.144Z"/>
  <path class="st28" d="M50.115,86.417c8.181,5.984-3.459,12.404-9.538,12.373-6.828.926-18.569-3.572-19.704-8.299-.948-4.695,4.894-6.421,8.766-7.392,6.142-1.496,15.41-.133,20.277,3.182l.199.137Z"/>
  <g id="Generative_Object">
    <path class="st93" d="M152.233,99.478c2.259,1.964,3.722,4.462,4.971,7.158-1.305,14.783-26.028,31.002-39.368,33.602-.064.012-.135-.011-.199,0-10.968,1.948-30.968-1.603-41.853-4.971-.425-.131-1.623-.453-1.69-.994,1.58-.681,4.708-2.841,6.561-2.982,1.12-.085,3.514.641,4.772.795,4.944.605,9.901,1.522,14.912,1.392,15.014.487,30.732-4.34,42.052-14.316,4.951-4.363,11.852-12.242,9.444-19.286.079-.248-.121-.475.398-.398Z"/>
    <path class="st98" d="M114.058,14.976c-.257.033-.538-.033-.795,0-14.43,1.827-23.674,2.101-36.982,8.947-18.645,9.592-31.227,31.193-52.093,34.596-1.86.303-4.081.499-5.965.398-4.554-.244-11.234-2.652-12.526-7.555,8.193,8.296,20.856,4.968,29.924,0,12.479-6.837,21.098-19.215,33.204-26.643,11.319-6.945,24.131-9.638,37.181-11.333,5.537-.719,11.802-.193,17-2.386,1.838,3.127-7.127,3.743-8.947,3.977Z"/>
    <path class="st5" d="M140.701,26.906c-.821.149-1.27,1.178-1.889,1.591-7.834,5.229-31.379,1.882-40.859.398-2.783-.436-14.575-2.267-16.204-3.778-.258-.239-.284-.459-.497-.696-.05-1.231,7.216-3.841,8.55-3.479-1.767,3.197,7.715,4.276,9.643,4.573,6.78,1.045,23.626,2.365,29.625-.199,6.733-2.878-4.039-5.646-6.362-6.164l-12.626-1.789c3.358-.223,7.19-.018,10.438-.398.109-.013,1.073-.237.895-.596,4.769,1.01,18.562,4.865,19.286,10.538Z"/>
    <path class="st92" d="M41.684,112.999c6.316,1.355,23.74,6.434,22.468,15.111-.401-1.161-2.207,1.079-3.281,1.591-7.601,3.62-21.077.366-28.83-2.187-6.773-2.231-14.542-5.569-18.988-11.333.236-1.822,2.616-2.692,4.175-2.982l10.339.994c-2.44.188-9.47.345-7.158,4.474,2.122,3.79,21.799,8.364,26.345,8.649,3.133.196,16.208-.239,9.345-5.766-4.776-3.846-14.684-6.141-20.579-7.754,1.907-.239,3.902-.713,5.766-1.193-.066.492.101.334.398.398Z"/>
    <path class="st56" d="M157.8,61.502l-4.871,4.573c-.543-.473-2.349-5.194-3.38-3.977-.943,1.114,4.645,5.132,0,5.965-.452-.09-2.121-5.442-3.579-5.368-.913.232,2.518,5.292,2.287,5.865-7.442,3.167-17.267,3.172-24.655-.099-.888-.393-1.771-1.056-2.585-1.591-.077-.344.021-.271.199-.398,1.231-.875,1.95-3.889,2.585-5.368,5.901,1.632,15.483,1.417,21.573.596,3.643-.491,8.379-1.153,10.24-4.573.969,1.306,1.994,2.697,2.187,4.374Z"/>
    <path class="st17" d="M42.877,71.443c-.627,6.72-10.486,11.217-16.304,11.93-.193.024-.402-.02-.596,0-2.822.289-5.554.009-8.351.199l-5.667-1.591c-3.831-1.731-8.427-4.167-9.245-8.748,1.881.467.624-2.354,1.789-.199.727,1.344,1.686,2.268,2.883,3.181.17,0,1.865-2.391,1.491-2.982.453.116.928.112,1.392.199l-2.187,3.281c7.547,5.035,18.711,5.229,26.643.795l-2.187-4.672c.175-.054.674-.282.994-.398,1.092.535,1.904,4.488,2.684,4.374,3.057-.447-.504-3.915-.895-5.368.611-.295,1.064-.33,1.193-.398l2.684,3.579c.164-.233,1.295-1.201,1.292-1.292-.008-.243-1.843-3.062-1.988-3.479-.067-.192-.249-.627-.099-.795.635-.986,2.054,3.737,2.585,3.977l1.889-1.591Z"/>
    <path class="st6" d="M113.263,14.976c.049.329.54.19.795.199,1.917.065,5.394.777,7.357,1.193.178.359-.785.584-.895.596-3.248.38-7.081.175-10.438.398-4.728.314-11.063.588-15.608,1.591-1.007.222-4.2,1.134-4.672,1.988-1.333-.361-8.6,2.248-8.55,3.479.213.237.239.457.497.696,1.629,1.511,13.422,3.342,16.204,3.778l.298,1.591,14.216,1.988c-1.179-.02-2.43-.347-3.579-.199-8.071-1.344-16.431-1.872-24.356-3.977-2.537-.674-7.402-1.676-8.251-4.374,13.308-6.846,22.552-7.12,36.982-8.947Z"/>
    <path class="st43" d="M157.8,61.502c.832,7.203-7.825,10.955-13.719,11.93-.393.065-.8.034-1.193.199-.393-.024-.799.022-1.193,0-3.003-.167-5.456.24-8.748-.199-5.697-.76-12.592-3.207-16.105-7.953,1.705,1.892,3.962,3.185,6.064,4.573l.696-1.591c7.388,3.272,17.212,3.267,24.655.099.231-.574-3.2-5.633-2.287-5.865,1.458-.074,3.127,5.279,3.579,5.368,4.645-.833-.943-4.851,0-5.965,1.031-1.218,2.838,3.504,3.38,3.977l4.871-4.573Z"/>
    <path class="st59" d="M64.152,128.109c-.171,1.167-1.575,2.939-2.585,3.579-2.845,1.803-8.546,1.8-11.83,1.591-2.235-.143-6.11-1.348-8.053-1.193.021-.173-.05-.181-.199-.199-6.611-.785-23.412-6.456-27.239-12.029-.727-1.059-1.361-2.382-1.193-3.678,4.446,5.764,12.215,9.103,18.988,11.333,7.753,2.553,21.229,5.808,28.83,2.187,1.073-.511,2.88-2.752,3.281-1.591Z"/>
    <path class="st94" d="M142.888,73.631c.178.011.809.161,1.193.199,3.579.356,6.947,1.666,9.743,3.977.419,1.013,1.57,1.773,2.187,2.585.936,2.134,1.331,3.815-1.292,4.573-.148-.341-1.499-1.96-1.491-2.088.006-.095,1.229-1.096.895-1.69l-4.275,3.778c-.81-.6-2.194.536-3.281.795-4.218,1.007-8.664,1.54-13.023,1.392l.199-2.187c4.31.393,11.145-.533,14.813-2.982,6.393-4.269-3.722-6.201-7.058-6.561l.199-1.789c.394.022.8-.024,1.193,0Z"/>
    <path class="st43" d="M25.977,83.373c-.079.587.286.332.596.398,3.145.661,5.267.681,8.55,1.789l-1.392.596c-5.707-1.641-18.144-1.468-23.561.994-6.069,2.758,2.194,6.443,5.07,7.158l-.398,2.187c-1.153-.195-3.059-.645-4.175-.994-.326-.102-.672-.277-.994-.398-.467-.175-1.405-.357-1.789-.596-.105-.065-.295-.132-.398-.199-.086-.056-.774-1.232-1.292-1.591-.745-.515-1.43-.356-1.988-.994-.206.768.029,1.639-1.292,2.187-1.835-7.351,9.4-9.979,14.713-10.339,2.797-.19,5.529.09,8.351-.199Z"/>
    <path class="st96" d="M41.684,112.601c-.112.029-.285-.029-.398,0-1.864.48-3.859.954-5.766,1.193-2.881.361-5.161.183-7.953.398l-10.339-.994c.41-.369-.335-.56-.497-.596-1.998-.448-8.817-1.31-8.251-4.374,9.672,3.622,21.927,4.656,32.111,2.585,1.044-.212,7.49-1.808,7.257-3.082l-2.386-1.889c7.021,3.352.051,5.75-3.778,6.76Z"/>
    <path class="st43" d="M140.701,26.906c.384,3.006-3.093,4.46-5.567,5.17-.107.031-.286-.029-.398,0-7.347,1.908-14.827.524-22.269.398l-14.216-1.988-.298-1.591c9.48,1.484,33.026,4.831,40.859-.398.618-.413,1.068-1.442,1.889-1.591Z"/>
    <path class="st96" d="M36.913,99.876l.895,1.591c.437-.314.787-.58,1.292-.795-.789.964-2.767,1.941-3.977,2.386-.175.064-.415.14-.596.199-5.26,1.705-10.415,1.464-15.707.398-.121-.024-.278.026-.398,0-3.376-.735-6.835-1.909-9.743-3.778l1.193-1.591c5.34,4.511,20.869,4.593,27.041,1.591Z"/>
    <path class="st5" d="M138.713,38.836c-.186.033-.213.169-.398.199-7.49,1.215-14.625-.417-21.473.199-2.01-.377-13.738-1.317-13.52-3.977,8.6,2.174,17.824,3.296,26.742,2.982,1.768-.062,13.708-1.063,14.017-2.485.076-.348-.545-.57-.596-.895,3.331,2.829-2.849,3.635-4.772,3.977Z"/>
    <path class="st5" d="M150.046,43.409c.027.182.042.77,0,.895-.69,2.033-9.728,3.306-11.731,3.479-.13.011-.267-.01-.398,0-4.721.362-9.175-.45-13.719.596.087-.302.795-.281.994-.398.221-.129.336-.148,0-.199-3.402-.579-7.338-.794-10.637-1.789-1.304-.394-4.437-1.405-4.871-2.784,10.097,3.079,21.35,4.15,31.912,2.784,2.912-.377,5.944-1.027,8.45-2.585Z"/>
    <path class="st26" d="M145.87,93.315c.022.003-.074.114.398.199,7.135,1.276,11.614,5.442,10.936,13.123-1.249-2.696-2.712-5.193-4.971-7.158-2.571-2.236-4.736-3.045-8.152-3.38.031-.839-.08-2.319.596-2.784.384.036.821-.055,1.193,0Z"/>
    <path class="st92" d="M7.486,94.309c-1.053,1.032-2.013,2.366-1.193,3.778-1.355-.698-3.018-2.724-3.38-4.175,1.321-.548,1.086-1.419,1.292-2.187.558.639,1.243.479,1.988.994.518.358,1.206,1.535,1.292,1.591Z"/>
    <path class="st17" d="M7.884,94.508c-.543.736-1.233,2.766.298,2.784.747.008.967-1.849,1.491-2.187.322.121.668.296.994.398l-1.392,2.088c-.026.383.377.51.596.696l-1.193,1.591c-.764-.491-1.914-.976-2.386-1.789-.82-1.412.14-2.746,1.193-3.778.102.066.293.134.398.199Z"/>
    <path class="st43" d="M5.697,71.841c-.299.632-1.19.409-1.193,1.193-1.165-2.155.092.665-1.789.199-.431-2.414-.092-3.614,1.193-5.567-.174.602.378,3.042.895,3.181.113.03,1.746-.804.895.994Z"/>
    <path class="st90" d="M156.011,80.391c-.618-.812-1.768-1.572-2.187-2.585,1.436,1.187,1.405.802,2.187,2.585Z"/>
    <path class="st67" d="M144.081,73.432v.398c-.384-.038-1.015-.188-1.193-.199.393-.165.8-.134,1.193-.199Z"/>
    <path class="st67" d="M114.058,14.976v.199c-.255-.009-.746.13-.795-.199.257-.033.539.033.795,0Z"/>
    <path class="st67" d="M138.713,39.233c-.183-.02-.404.083-.398-.199.185-.03.211-.166.398-.199v.398Z"/>
    <path class="st67" d="M138.315,47.783v.199c-.132-.045-.409.107-.398-.199.13-.01.268.011.398,0Z"/>
    <path class="st67" d="M117.836,140.636c-.279-.07-.217-.18-.199-.398.064-.011.135.012.199,0v.398Z"/>
    <path class="st67" d="M41.684,132.086c-.014.001.074.153-.199.199v-.398c.149.018.22.026.199.199Z"/>
    <g>
      <path class="st22" d="M123.005,11c-5.198,2.193-11.463,1.667-17,2.386-13.05,1.695-25.862,4.389-37.181,11.333-12.106,7.428-20.725,19.806-33.204,26.643-9.068,4.968-21.731,8.296-29.924,0-2.565-9.733,10.819-23.496,17.795-29.228C46.331,3.37,78.962-2.2,107.397,4.637c2.696.648,14.397,4.303,15.608,6.362Z"/>
      <path class="st1" d="M86.123,4.24c2.579-.083,5.173.062,7.754,0l-.199.398C60.244,6.949,33.183,27.705,12.357,52.356c-3.9-4.474.321-10.256,3.281-14.017C32.496,16.913,59.107,5.112,86.123,4.24Z"/>
    </g>
    <path class="st67" d="M76.281,23.924c.85,2.698,5.715,3.701,8.251,4.374,7.925,2.104,16.285,2.632,24.356,3.977-.9.116-5.482,1.937-5.567,2.982-.218,2.659,11.511,3.6,13.52,3.977-1.724.155-7.892,1.644-7.158,3.977.434,1.379,3.567,2.39,4.871,2.784,3.3.996,7.235,1.211,10.637,1.789v.199c-.2.117-.907.095-.994.398-1.983.457-2.958.787-4.772,1.789-6.39,3.531-7.46,9.899-2.585,15.31,3.513,4.746,10.408,7.193,16.105,7.953l-6.86,2.386c-1.576,1.009-3.232,1.692-4.474,3.181-6.549,7.854,6.005,14.435,12.725,14.713v.199c-17.051,3.245-28.566,24.197-43.643,32.21l-10.041,5.17c-1.854.141-4.981,2.302-6.561,2.982-.19.082-.656.394-.696.398-.418.038-7.006-1.714-8.152-1.988-1.167-.279-2.258-1.055-3.678-.994,1.01-.64,2.414-2.412,2.585-3.579,1.272-8.677-16.152-13.756-22.468-15.111v-.398c3.829-1.01,10.798-3.408,3.778-6.76-2.149-1.026-8.079-2.761-10.339-2.386v-.398c1.21-.445,3.188-1.422,3.977-2.386,3.503-1.491,6.174-4.995,4.971-8.748-.291-.909-.33-.566-.596-.994-.763-1.226-.726-1.1-1.789-1.988-2.041-1.706-4.057-2.535-6.561-3.38-3.283-1.108-5.404-1.128-8.55-1.789v-.398c5.818-.713,15.677-5.21,16.304-11.93.589-6.308-6.623-10.956-12.029-12.129-1.95-.423-4.757.012-6.661-.795,20.866-3.403,33.448-25.004,52.093-34.596Z"/>
    <g>
      <path class="st68" d="M61.567,131.688c1.42-.061,2.511.715,3.678.994,1.146.274,7.734,2.026,8.152,1.988.04-.004.506-.316.696-.398.067.541,1.265.863,1.69.994,10.885,3.367,30.885,6.918,41.853,4.971-.019.218-.08.327.199.398,1.7.429,13.212-.594,8.848,3.778-7.06,7.072-33.95,12.991-43.941,13.321-11.238.372-42.234-3.932-47.818-15.21-2.479-5.007,1.786-9.438,6.561-10.24.272-.046.185-.198.199-.199,1.942-.155,5.817,1.05,8.053,1.193,3.285.21,8.986.213,11.83-1.591Z"/>
      <path class="st32" d="M51.725,136.659c19.819-.752,36.749,7.372,56.268,8.351,3.394.17,6.856-.213,10.24.099-10.411,1.221-20.918.272-31.117-1.889-4.862-1.03-9.64-2.808-14.514-3.778-11.076-2.203-22.618-2.683-33.801-.994l5.766-1.193c2.388-.014,4.782-.506,7.158-.596Z"/>
    </g>
    <path class="st58" d="M144.081,96.098c3.416.335,5.581,1.144,8.152,3.38-.519-.078-.319.149-.398.398-.47,1.486-.364,3.28-.994,5.07-5.444,15.453-35.271,28.136-50.502,28.532-5.011.13-9.968-.786-14.912-1.392.435-1.215,2.834-1.324,4.076-1.789,19.521-7.321,33.423-36.271,54.578-34.198Z"/>
    <path class="st13" d="M144.677,93.315c-.676.464-.566,1.945-.596,2.784-21.155-2.072-35.057,26.877-54.578,34.198-1.242.466-3.641.575-4.076,1.789-1.258-.154-3.652-.88-4.772-.795l10.041-5.17c15.077-8.013,26.592-28.965,43.643-32.21.217-.041.576.136.596-.199.565.002,1.087-.19,1.392-.199,3.058-.091,5.096-.502,8.351-.199Z"/>
    <path class="st26" d="M100.339,133.478c15.232-.396,45.058-13.079,50.502-28.532.631-1.79.525-3.584.994-5.07,2.407,7.044-4.493,14.923-9.444,19.286-11.32,9.975-27.038,14.803-42.052,14.316Z"/>
    <path class="st94" d="M110.081,17.362l12.626,1.789c2.323.518,13.096,3.286,6.362,6.164-5.999,2.564-22.845,1.243-29.625.199-1.928-.297-11.41-1.376-9.643-4.573.472-.855,3.666-1.766,4.672-1.988,4.545-1.003,10.88-1.277,15.608-1.591Z"/>
    <path class="st66" d="M35.521,113.794c5.895,1.613,15.803,3.908,20.579,7.754,6.864,5.527-6.212,5.962-9.345,5.766-4.545-.285-24.222-4.859-26.345-8.649-2.312-4.128,4.718-4.286,7.158-4.474,2.792-.215,5.072-.036,7.953-.398Z"/>
    <path class="st67" d="M41.684,112.601v.398c-.297-.064-.464.094-.398-.398.113-.029.286.029.398,0Z"/>
    <g>
      <path class="st56" d="M24.188,58.52c1.903.807,4.711.372,6.661.795,5.406,1.173,12.618,5.82,12.029,12.129l-1.889,1.591c-.531-.239-1.95-4.962-2.585-3.977-.149.168.032.603.099.795-.815.122-1.308.838-1.988,1.193-.129.067-.582.102-1.193.398-.501.242-1.283.81-1.789.994-.32.116-.82.343-.994.398-6.111,1.9-16.01,1.766-22.269.596-.464-.087-.939-.083-1.392-.199-1.123-.288-2.323-.527-3.181-1.392.851-1.798-.782-.964-.895-.994-.516-.139-1.069-2.58-.895-3.181,2.916-4.433,9.521-7.343,14.614-8.152l-.298-.596c1.884.101,4.105-.094,5.965-.398Z"/>
      <path class="st66" d="M21.901,60.707c1.366-.095,3.63-.13,4.971,0,1.839.178,10.072,2.371,8.45,5.269-.966,1.727-12.921,3.933-15.21,4.076-2.375.149-12.292.377-11.631-3.678.501-3.077,10.761-5.481,13.421-5.667Z"/>
    </g>
    <path class="st6" d="M32.538,72.835l2.187,4.672c-7.932,4.434-19.096,4.239-26.643-.795l2.187-3.281c6.258,1.17,16.158,1.303,22.269-.596Z"/>
    <path class="st43" d="M8.878,73.233c.374.591-1.322,2.982-1.491,2.982-1.197-.913-2.156-1.838-2.883-3.181.003-.784.894-.561,1.193-1.193.859.864,2.058,1.104,3.181,1.392Z"/>
    <path class="st43" d="M33.533,72.438c.507-.184,1.289-.752,1.789-.994.391,1.454,3.951,4.922.895,5.368-.78.114-1.593-3.839-2.684-4.374Z"/>
    <path class="st43" d="M38.503,69.853c.145.417,1.98,3.237,1.988,3.479.003.091-1.129,1.059-1.292,1.292l-2.684-3.579c.68-.355,1.173-1.071,1.988-1.193Z"/>
    <path class="st79" d="M119.426,60.11c.066.035.804-.285,1.193.497-.309.562-2.619,3.693-2.585,3.977.074.614,2.441,1.931,2.982,2.287.814.535,1.697,1.197,2.585,1.591l-.696,1.591c-2.102-1.388-4.359-2.681-6.064-4.573-4.875-5.411-3.806-11.778,2.585-15.31-4.595,3.266-7.861,8.86-2.684,13.321l2.684-3.38Z"/>
    <path class="st27" d="M122.806,60.707c-.812,1.978-2.332,3.471-1.591,5.766-.178.126-.276.054-.199.398-.541-.356-2.909-1.673-2.982-2.287-.034-.283,2.276-3.415,2.585-3.977-.389-.782-1.127-.462-1.193-.497-1.645-.884-3.431-1.936-2.684-3.977,1.347,2.338,3.569,3.713,6.064,4.573Z"/>
    <path class="st79" d="M123.8,61.104c-.635,1.479-1.354,4.493-2.585,5.368-.741-2.295.778-3.788,1.591-5.766.279.096.756.332.994.398Z"/>
    <g>
      <path class="st45" d="M137.917,47.783c-.011.305.265.154.398.199,6.558,2.231,12.747,3.014,17.298,9.146-1.861,3.42-6.596,4.082-10.24,4.573-6.09.821-15.672,1.036-21.573-.596-.239-.066-.715-.301-.994-.398-2.495-.86-4.717-2.235-6.064-4.573-.746,2.04,1.039,3.093,2.684,3.977l-2.684,3.38c-5.177-4.462-1.911-10.056,2.684-13.321,1.814-1.003,2.789-1.333,4.772-1.789,4.544-1.046,8.998-.234,13.719-.596Z"/>
      <path class="st81" d="M130.063,48.777c4.234-.23,13.355,1.009,16.9,3.38,1.777,1.188,2.045,1.802.199,3.181-4.391,3.281-23.604,5.445-26.544-.298-2.34-4.572,6.593-6.108,9.444-6.263Z"/>
    </g>
    <path class="st67" d="M26.574,83.373v.398c-.31-.065-.675.189-.596-.398.194-.02.403.024.596,0Z"/>
    <g>
      <path class="st45" d="M138.315,39.035c-.007.282.214.179.398.199,1.947.212,11.032,2.116,11.333,4.175-2.506,1.558-5.539,2.208-8.45,2.585-10.562,1.366-21.815.296-31.912-2.784-.734-2.333,5.434-3.822,7.158-3.977,6.849-.615,13.983,1.017,21.473-.199Z"/>
      <path class="st81" d="M119.128,40.029c.521-.06,2.205.397,2.784.398,4.321.003,17.032-.992,20.28.398,1.136.486,1.401,1.343.398,2.187-3.051,2.566-21.183,2.126-24.456-.199-1.617-1.149-.793-2.578.994-2.784Z"/>
    </g>
    <g>
      <path class="st37" d="M35.123,103.455c2.26-.375,8.19,1.36,10.339,2.386l2.386,1.889c.232,1.274-6.213,2.869-7.257,3.082-10.184,2.071-22.439,1.037-32.111-2.585.418-2.265,7.999-3.901,9.941-4.175.328-.046.457.068.398-.398,5.292,1.066,10.447,1.308,15.707-.398.001.28.398.232.596.199Z"/>
      <path class="st67" d="M18.819,103.654c.059.466-.069.351-.398.398v-.398c.119.026.277-.024.398,0Z"/>
      <path class="st97" d="M32.041,104.449c1.402-.026,11.985.359,8.152,3.38-3.495,2.754-19.973,1.734-24.456.596-1.017-.258-3.028-.587-2.684-1.889.203-.766,3.111-1.404,3.877-1.491,3.909-.444,10.969-.521,15.111-.596Z"/>
      <path class="st67" d="M35.123,103.057v.398c-.199.033-.595.081-.596-.199.181-.059.422-.135.596-.199Z"/>
    </g>
    <path class="st45" d="M141.695,73.631l-.199,1.789c-3.61-.39-15.162-.322-16.9,3.678-1.568,3.608,6.726,5.645,9.146,5.865l-.199,2.187c-2.178-.074-4.669-.373-6.76-.994-1.046-.311-1.845-.807-2.784-1.193-.888-.365-1.581-1.441-1.69.398-.664.501-.907-3.271-.895-3.678.014-.469,1.247-3.31.199-2.684,1.242-1.489,2.898-2.173,4.474-3.181l6.86-2.386c3.292.439,5.745.032,8.748.199Z"/>
    <g>
      <path class="st45" d="M135.134,32.473c2.404.311,6.488.804,8.351,2.386.052.325.672.547.596.895-.31,1.422-12.249,2.423-14.017,2.485-8.918.314-18.142-.808-26.742-2.982.086-1.045,4.667-2.866,5.567-2.982,1.149-.148,2.4.179,3.579.199,7.442.126,14.922,1.51,22.269-.398-.058.462.065.355.398.398Z"/>
      <path class="st67" d="M135.134,32.076v.398c-.333-.043-.456.064-.398-.398.111-.029.291.031.398,0Z"/>
      <path class="st81" d="M110.976,33.07c6.512.267,12.953,1.014,19.485.795.622-.021,8.723-1.594,5.766.994-2.962,2.592-18.088,1.558-22.07.596-1.025-.248-4.412-.964-3.181-2.386Z"/>
    </g>
    <path class="st45" d="M141.496,75.42c3.336.36,13.451,2.292,7.058,6.561-3.667,2.449-10.503,3.376-14.813,2.982-2.42-.221-10.714-2.257-9.146-5.865,1.739-4,13.29-4.068,16.9-3.678Z"/>
    <path class="st5" d="M149.847,84.964c.173.128,1.681,2.381,1.591,2.684-.073.245-3.202,1.878-3.678,2.088-3.87,1.702-8.027,2.328-12.228,1.988-3.34-.271-7.083-1.078-9.743-3.181l.994-2.386c2.091.621,4.582.92,6.76.994,4.359.148,8.805-.385,13.023-1.392,1.086-.259,2.471-1.396,3.281-.795Z"/>
    <path class="st66" d="M33.731,86.157c3.614,1.039,6.145,2.709,2.088,5.766-4.712,3.55-15.067,3.756-20.579,2.386-2.876-.715-11.139-4.4-5.07-7.158,5.417-2.462,17.854-2.635,23.561-.994Z"/>
    <path class="st92" d="M36.913,99.876c-6.171,3.002-21.7,2.92-27.041-1.591-.219-.185-.622-.313-.596-.696l1.392-2.088c1.116.349,3.022.799,4.175.994,6.695,1.13,16.377,1.081,22.666-1.591-.79,1.406.703,2.426,1.392,3.678-.018.179-1.711,1.157-1.988,1.292Z"/>
    <path class="st5" d="M41.684,88.94l1.789,1.988c.267.429.305.085.596.994-.311,1.777.614,3.38-1.491,4.374-3.252-2.554.631-2.347-.398-4.772-1.2,1.603-2.854,2.608-4.672,3.38-6.29,2.671-15.972,2.721-22.666,1.591l.398-2.187c5.512,1.371,15.866,1.164,20.579-2.386,4.058-3.057,1.527-4.727-2.088-5.766l1.392-.596c2.504.846,4.521,1.674,6.561,3.38Z"/>
    <path class="st92" d="M9.673,95.104c-.525.338-.744,2.195-1.491,2.187-1.532-.017-.841-2.048-.298-2.784.384.239,1.322.422,1.789.596Z"/>
    <path class="st5" d="M123.999,84.964c-2.627,1.803.173,2.851,1.69,3.977l.099-.398c2.659,2.103,6.402,2.911,9.743,3.181-.006.979-.238,1.424.795,1.789-.305.009-.826.201-1.392.199-.197,0-.4.008-.596,0-6.72-.279-19.274-6.86-12.725-14.713,1.048-.626-.185,2.215-.199,2.684-.012.407.231,4.18.895,3.678.109-1.839.802-.763,1.69-.398Z"/>
    <g>
      <path class="st90" d="M146.268,93.116c-.171.03-.405-.092-.398.199-.372-.055-.809.036-1.193,0-3.255-.303-5.292.108-8.351.199-1.034-.365-.801-.811-.795-1.789,4.201.34,8.358-.286,12.228-1.988.477-.21,3.605-1.842,3.678-2.088.09-.304-1.418-2.556-1.591-2.684l4.275-3.778c.334.594-.889,1.595-.895,1.69-.008.128,1.343,1.747,1.491,2.088,2.623-.758,2.228-2.439,1.292-4.573,4.409,5.796-4.461,11.788-9.743,12.725Z"/>
      <path class="st67" d="M146.268,93.116v.398c-.472-.084-.376-.196-.398-.199-.008-.291.227-.169.398-.199Z"/>
      <path class="st5" d="M151.935,83.771c.455-.006,1.461,1.394,1.889,1.69.123.36-1.194,1.489-1.292,1.491-.338.008-2.771-3.154-.596-3.181Z"/>
    </g>
    <path class="st17" d="M43.474,90.929l-1.789-1.988c1.063.889,1.026.762,1.789,1.988Z"/>
    <path class="st67" d="M125.192,47.982v-.199c.336.051.221.07,0,.199Z"/>
    <path class="st67" d="M134.935,93.712c-.02.335-.38.158-.596.199v-.199c.197.008.399,0,.596,0Z"/>
    <path class="st27" d="M126.783,86.157l-.994,2.386-.099.398c-1.517-1.126-4.317-2.174-1.69-3.977.938.386,1.738.882,2.784,1.193Z"/>
    <g>
      <path class="st17" d="M44.07,91.923c1.203,3.753-1.467,7.258-4.971,8.748-.505.215-.856.482-1.292.795l-.895-1.591c.277-.135,1.971-1.113,1.988-1.292-.688-1.252-2.182-2.272-1.392-3.678,1.819-.772,3.472-1.777,4.672-3.38,1.029,2.425-2.854,2.218.398,4.772,2.105-.994,1.18-2.597,1.491-4.374Z"/>
      <path class="st92" d="M39,94.508c.565-.095,1.879,1.799,1.889,2.088.021.593-1.183,1.505-1.292,1.491-.212-.027-2.188-3.381-.596-3.579Z"/>
    </g>
  </g>
  <g id="Generative_Object1" data-name="Generative_Object">
    <path class="st65" d="M122.451,10.83c.087.598-.531.385-.895.398-4.867.164-9.747-.206-14.613,0-13.756.581-27.87,3.451-39.862,10.338-12.105,6.951-19.855,18.448-32.009,25.05C14.935,57.555-1.962,52.482,17.676,30.413,33.866,12.218,60.767,2.181,84.875,1.883c7.407-.091,32.916,3.347,37.576,8.947Z"/>
    <path class="st87" d="M64.198,126.141c.271,2.21-.291,4.612-2.386,5.766-.05.028-.145-.026-.199,0-1.179.57-3.147.508-3.877,1.392,4.518-.043,8.345,2.428,12.525,3.579,10.739,2.957,23.444,4.836,34.594,5.169,2.059.062,9.168.304,10.736-.199.06-.019.394-.298.199-.398l-2.088-.398c1.117.065,2.262-.057,3.38,0,.131.007.267-.007.398,0,2.431.125,5.204-.068,7.555.596-20.054,11.481-42.815,14.787-65.509,9.941-8.675-1.853-19.007-5.216-25.349-11.531-.545-4.93,3.756-5.928,7.157-8.052-4.519-.926-9.097-2.056-13.42-3.678-3.986-1.496-14.672-6.199-14.812-11.134,12.138,6.437,28.094,12.009,42.049,11.332,3.079-.149,6.502-.543,9.046-2.386Z"/>
    <path class="st54" d="M41.136,112.622c-.025.196.075.166.199.199,6.329,1.692,21.894,5.418,22.864,13.32-2.544,1.842-5.967,2.237-9.046,2.386-13.955.676-29.911-4.895-42.049-11.332-.063-2.24,1.89-3.19,3.38-4.374,4.962.982,9.886,1.016,14.911.795,3.274-.144,6.531-.276,9.742-.994Z"/>
    <path class="st26" d="M84.875,1.883c-24.108.298-51.009,10.335-67.199,28.53-19.638,22.069-2.741,27.142,17.396,16.203,12.154-6.603,19.904-18.099,32.009-25.05,11.993-6.887,26.106-9.757,39.862-10.338.028.225-.203,1.141-.298,1.193-.413.224-7.967.751-9.344.994-11.764,2.077-22.886,6.592-32.605,13.519-15.389,10.969-25.392,28.865-47.119,29.027-5.02.037-5.945-1.086-10.04-2.485-.635-.217-.641-.085-.596.497-6.482-9.194,7.563-24.288,14.215-30.021,10.75-9.264,22.235-14.467,35.786-18.291.198-.056,0-.542.199-.596.177-.049.521.325.994.199,1.455-.387,3.894-1.362,4.97-1.591,1.232-.262,3.052-.222,4.175-.398,5.816-.91,11.655-1.66,17.595-1.392Z"/>
    <path class="st33" d="M145.911,92.939c5.186,1.353,10.549,4.398,11.332,10.239,1.926,14.362-18.276,28.776-29.723,33.898-3.064,1.371-7.29,2.316-10.04,3.777-.092.049-.413-.114-.398.199-1.118-.057-2.263.065-3.38,0-1.065-.062-2.121-.129-3.181-.199,4.234-1.971,8.774-3.218,13.022-5.169,10.223-4.695,27.013-15.661,30.319-26.939,4.271-14.569-10.64-13.446-19.782-9.444-13.575,5.943-19.344,17.77-30.816,26.045-6.765,4.879-14.53,8.345-22.367,11.134-1.193-.273-2.375-.705-3.579-.994,7.634-3.452,15.11-7.287,21.969-12.128,11.246-7.937,18.445-19.031,30.418-25.846l9.046-3.976c2.44-.012,4.699-.032,7.157-.596Z"/>
    <path class="st98" d="M114.896,15.005c-7.33,1.102-13.855,1.314-21.273,2.982-1.742.392-3.449.682-5.169,1.193-3.94,1.169-7.084,2.599-10.736,4.374-.82.399-1.579.763-2.386,1.193-11.739,6.258-17.281,13.305-26.939,21.472-7.221,6.105-15.777,10.587-25.15,12.326-1.202-.072-2.32.266-3.579.199-4.65-.247-9.784-.602-12.724-4.772-.044-.582-.038-.714.596-.497,4.095,1.4,5.02,2.523,10.04,2.485,21.727-.162,31.73-18.058,47.119-29.027,9.719-6.927,20.841-11.442,32.605-13.519,1.378-.243,8.931-.77,9.344-.994.095-.051.326-.968.298-1.193,4.866-.206,9.746.164,14.613,0,.363-.012.981.201.895-.398.114.137.762.515.795.696.479,2.621-6.619,3.219-8.35,3.479Z"/>
    <path class="st98" d="M125.035,141.649c2.144.606,3.363,1.387,1.292,3.181-9.186,7.956-35.931,13.094-47.914,12.923-9.594-.137-42.883-5.453-44.236-17.694,6.342,6.315,16.674,9.679,25.349,11.531,22.694,4.847,45.455,1.54,65.509-9.941Z"/>
    <path class="st13" d="M93.623,17.987c1.611.786,4.01.303,5.865.398,6.984.357,36.222,3.783,39.862,9.444.448.697.634,1.578.199,2.286-1.303,1.17-3.259,1.779-4.97,2.187-8.876,2.114-16.449-.269-24.454.398.021-.171-.048-.184-.199-.199-9.171-.897-20.761-2.838-29.524-5.567-1.591-.496-3.695-1.237-5.07-2.187.807-.43,1.566-.794,2.386-1.193,15.121,4.002,31.886,6.788,47.616,6.362,2.172-.059,9.864-.346,11.531-.994.132-.051.579-.283.497-.497-.079-.809-11.344-3.359-12.823-3.678-11.565-2.494-23.775-3.986-35.588-4.772l-.497-.795c1.72-.51,3.427-.801,5.169-1.193Z"/>
    <path class="st18" d="M142.73,69.877c4.071-.099,9.108-1.071,12.426-3.579,1.155-.873,2.157-2.437,2.883-3.579.083,6.283-7.807,10.02-13.122,10.935-3.57.615-7.566.473-11.134,0-.407-.054-.685-.147-.994-.199-7.808-1.313-21.728-7.885-18.092-17.893l2.187,4.672c6.128,7.243,16.661,9.866,25.846,9.642Z"/>
    <path class="st34" d="M114.896,15.005l11.034,2.386c4.323,1.441,16.25,5.223,14.812,11.432-.148.637-.83.966-1.193,1.292.435-.708.249-1.589-.199-2.286-3.64-5.661-32.878-9.086-39.862-9.444-1.855-.095-4.254.388-5.865-.398,7.418-1.668,13.943-1.88,21.273-2.982Z"/>
    <path class="st32" d="M134.578,32.301c1.693.816,9.474,1.016,9.742,3.38-6.882,1.495-14.227,1.603-21.273,1.591-6.272-.011-12.583-.03-18.688-1.591-.028-1.58,4.42-2.87,5.766-2.982,8.005-.667,15.578,1.716,24.454-.398Z"/>
    <path class="st53" d="M27.02,83.396c-1.888-.136-5.328.11-7.356.199-.991.043-1.83-.284-2.783-.199-5.302-.851-14.364-4.687-14.513-10.935l3.082,3.38c.425.38,1.11.564,1.491.795,6.1,3.694,13.838,3.946,20.677,2.585,6.105-1.215,12.974-4.317,14.513-10.935,2.18,8.624-8.209,13.668-15.11,15.11Z"/>
    <path class="st18" d="M6.344,95.524c5.24,3.661,14.183,5.047,20.478,4.97.503,4.408-.697,2.849-4.076,3.38l.398-.596-3.678.398c-.197.008-.401-.014-.596,0-5.087-.8-16.975-5.433-16.502-11.73.736-.119.582.038.895.398,1.186,1.363,1.455,2.045,3.082,3.181Z"/>
    <path class="st3" d="M137.163,47.212c-.171,1.08,1.939.801,2.684.994,6.089,1.576,18.093,7.097,18.191,14.513-.726,1.141-1.728,2.706-2.883,3.579-3.318,2.508-8.355,3.48-12.426,3.579l-1.392-.398c1.733-.01,7.158-.799,8.648-1.591,1.377-.731,2.701-2.943,4.076-3.877.003-.402-1.072.425-1.193.497,3.462-3.546,1.911-6.304-1.292-9.145-4.261-3.78-12.448-6.333-17.794-6.561-.971-1.326.432-.485.795-1.392.197-.007.4.009.596,0,.689-.031,1.327-.15,1.988-.199Z"/>
    <path class="st61" d="M144.32,35.681c.284,2.506-6.758,3.034-8.549,3.38-.349.094-.337.276,0,.398.681.246,2.216.149,2.982.199-.058.002-1.177.224-.994.596-3.775-.403-7.206-.496-11.134-.398-.88-.937-3.061-.178-4.175-.199.846-.772.585-1.259.596-2.386,7.046.013,14.391-.096,21.273-1.591Z"/>
    <path class="st51" d="M157.442,82.601c.533,5.85-6.693,9.228-11.531,10.338-2.458.564-4.718.584-7.157.596-.976.005-2.003.083-2.982,0l7.456-.398.497-.298-.398-2.684c1.777-.173,4.054-.66,5.766-1.193.863-.268,1.956-.79,2.783-1.193,1.47-.716,3.637-1.932,4.573-3.28.343-.495.413-1.674.994-1.889Z"/>
    <path class="st29" d="M23.243,58.545c2.017.121,4.169.261,6.163.596l-9.145,1.392c-4.11.5-12.864,3.529-14.712,7.555-.973.677-.808-.676-1.789-.398,2.003-3.318,6.259-5.557,9.642-7.157l6.263-1.789c1.259.067,2.376-.271,3.579-.199Z"/>
    <path class="st53" d="M11.115,109.242c1.086.97,3.567,1.033,4.871,1.392.321.088.017.664.596.795,3.037.69,9.191.821,12.426.795-.177,2.019,1.075.654,2.386,1.392-5.025.221-9.949.187-14.911-.795-1.935-.383-8.463-1.855-8.35-4.374,1.301.128,1.537,1.929,2.982.795Z"/>
    <path class="st88" d="M5.548,68.088c-1.321,2.877-.01,5.288,2.386,6.958-.537.406-1.063.829-.994,1.591-.381-.231-1.066-.415-1.491-.795l-3.082-3.38c-.041-1.711.528-3.341,1.392-4.772.982-.278.816,1.074,1.789.398Z"/>
    <path class="st88" d="M7.338,87.77c-2.218,1.686-2.006,3.894-.199,5.766-.308.756-1.178,1.182-.795,1.988-1.627-1.136-1.896-1.818-3.082-3.181-.313-.359-.159-.516-.895-.398.181-2.409,2.279-4.06,4.175-5.169l.795.994Z"/>
    <path class="st29" d="M19.664,83.595c-1.899,1.885-4.908,1.481-7.456,2.187-.918.254-4.206,1.483-4.871,1.988l-.795-.994c2.273-1.33,7.989-3.17,10.338-3.38.954-.085,1.792.242,2.783.199Z"/>
    <path class="st53" d="M137.163,47.212c-.661.049-1.299.168-1.988.199l-.895-.398c3.217.315,15.306-1.547,3.976-.994.799-.58,2.253-.47,3.28-.596,2.849-.35,6.246-.455,8.549-2.386.133.31.286.494.199.895-.695,2.453-10.837,3.11-13.122,3.28Z"/>
    <path class="st3" d="M146.308,41.248c1.046.322,3.246.548,3.777,1.789-2.303,1.93-5.7,2.036-8.549,2.386l-.199-.398c1.682-.198,8.378-1.114,4.374-3.181l.596-.596Z"/>
    <path class="st86" d="M146.308,41.248l-.596.596c-.517-.267-1.039-.431-1.591-.596-1.791-.535-4.465-.791-6.362-.994-.183-.372.936-.595.994-.596,1.768-.05,5.745,1.034,7.555,1.591Z"/>
    <path class="st86" d="M10.121,106.459c.424,1.273-.13,1.78.994,2.783-1.445,1.134-1.681-.667-2.982-.795.051-1.146,1.267-1.575,1.988-1.988Z"/>
    <path class="st67" d="M117.48,140.854v.199c-.131-.007-.267.007-.398,0-.016-.313.305-.15.398-.199Z"/>
    <path class="st67" d="M135.771,39.459c-.337-.122-.349-.303,0-.398v.398Z"/>
    <path class="st67" d="M75.332,24.747c1.375.95,3.478,1.691,5.07,2.187,8.763,2.728,20.352,4.67,29.524,5.567l.199.199c-1.346.112-5.794,1.402-5.766,2.982.022,1.216,2.852,2.101,3.877,2.386,2.911.81,6.62.969,9.642,1.193v.398c-1.792.292-9.582,1.226-7.555,3.976,2.047,2.777,13.755,3.596,17.297,3.777v.398c-.718.099-2.14.079-2.684.199-.228.051.208.421-.497.596l-.596.199c-3.254.914-2.935.338-5.766,2.783-1.306,1.128-2.756,2.259-3.38,3.976-3.636,10.008,10.284,16.58,18.092,17.893-1.168.964-3.205.893-4.672,1.392-3.023,1.029-7.993,3.712-8.648,7.157-1.346,7.078,9.543,10.602,14.911,11.332v.199c-2.551,1.222-5.57,1.96-8.251,3.38-8.589,4.548-13.799,12.001-20.875,18.291-9.398,8.353-19.959,14.4-31.512,19.285-3.938-.949-7.894-1.906-11.929-2.386v-.199c2.095-1.153,2.657-3.556,2.386-5.766-.969-7.902-16.535-11.628-22.864-13.32l.199-.398c.281-.068.482-.167.596-.199,1.715-.474,4.677-.985,5.567-2.783.789-1.593-.125-2.487-1.491-3.38-1.704-1.113-9.209-2.958-11.233-2.982,4.035-1.398,9.649-4.12,9.543-9.145-.132-6.284-12.419-10.17-17.496-10.537,6.901-1.442,17.29-6.486,15.11-15.11-.561-2.219-1.105-2.655-2.585-4.175-2.692-2.767-6.304-4.324-10.139-4.97-1.994-.336-4.146-.476-6.163-.596,9.373-1.739,17.929-6.221,25.15-12.326,9.659-8.167,15.2-15.214,26.939-21.472Z"/>
    <path class="st7" d="M61.813,132.106c4.035.479,7.991,1.436,11.929,2.386,1.202.29,2.386.708,3.579.994,1.204.289,2.386.721,3.579.994,10.401,2.379,18.93,3.669,29.623,4.374,1.06.07,2.116.137,3.181.199l2.088.398c.195.099-.139.379-.199.398-1.568.503-8.677.26-10.736.199-11.149-.333-23.854-2.212-34.594-5.169-4.18-1.151-8.007-3.622-12.525-3.579.73-.883,2.698-.821,3.877-1.392-.021.173.05.181.199.199Z"/>
    <path class="st67" d="M134.379,93.536v-.199c.065.009.134-.008.199,0,.031.221-.126.164-.199.199Z"/>
    <path class="st67" d="M110.124,32.699l-.199-.199c.151.015.22.028.199.199Z"/>
    <path class="st67" d="M61.813,132.106c-.149-.018-.22-.026-.199-.199.054-.026.149.028.199,0v.199Z"/>
    <path class="st67" d="M124.439,48.604c-.073.018-.377.137-.596.199l.596-.199Z"/>
    <path class="st67" d="M41.534,112.423l-.199.398c-.124-.033-.223-.003-.199-.199.022-.005-.027-.096.398-.199Z"/>
    <path class="st18" d="M42.13,110.833c1.272,1.135-.094.344,0,1.392-.115.032-.316.13-.596.199-.424.103-.376.194-.398.199-3.211.718-6.467.85-9.742.994-1.311-.738-2.562.627-2.386-1.392,4.337-.035,8.899-.431,13.122-1.392Z"/>
    <path class="st23" d="M110.522,140.854c-10.693-.704-19.222-1.995-29.623-4.374,7.837-2.788,15.602-6.255,22.367-11.134,11.472-8.274,17.242-20.102,30.816-26.045,9.142-4.002,24.053-5.125,19.782,9.444-3.306,11.278-20.096,22.245-30.319,26.939-4.248,1.951-8.788,3.198-13.022,5.169Z"/>
    <path class="st19" d="M135.771,93.536c.98.083,2.006.005,2.982,0l-9.046,3.976c-11.974,6.815-19.173,17.909-30.418,25.846-6.859,4.841-14.335,8.675-21.969,12.128-1.193-.287-2.376-.704-3.579-.994,11.553-4.885,22.114-10.932,31.512-19.285,7.077-6.29,12.286-13.743,20.875-18.291,2.681-1.42,5.7-2.158,8.251-3.38.073-.035.23.022.199-.199.415.052.777.164,1.193.199Z"/>
    <path class="st8" d="M77.718,23.554c3.652-1.775,6.796-3.205,10.736-4.374l.497.795c11.813.785,24.023,2.277,35.588,4.772,1.479.319,12.744,2.869,12.823,3.678.082.214-.365.446-.497.497-1.667.648-9.359.935-11.531.994-15.73.426-32.495-2.36-47.616-6.362Z"/>
    <path class="st53" d="M151.875,87.77c-.827.403-1.921.924-2.783,1.193.089-.677-.79-.271-1.093-.199-2.463.584-4.114.859-6.66.994-3.202.17-8.621-.035-11.631-.994-.862-.275-3.084-1.151-1.292-1.789,7.662,2.387,19.113,2.387,25.548-2.982-.221,1.46-2.285,2.274-2.088,3.777Z"/>
    <path class="st88" d="M133.783,73.655c-.49.601.443.321.398.497-.29,1.12-2.595.829-3.479,1.093-4.173,1.247-12.578,4.732-6.66,9.742-.584.045-1.105.67-.994,1.193-1.787-1.31-2.56-2.193-3.579-4.175.655-3.445,5.626-6.129,8.648-7.157,1.467-.499,3.504-.427,4.672-1.392.309.052.587.145.994.199Z"/>
    <path class="st14" d="M124.041,84.987c1.213,1.027,2.877,1.522,4.374,1.988-1.791.638.43,1.515,1.292,1.789,3.009.959,8.429,1.164,11.631.994l.199.398c-6.103.332-13.426-.264-18.49-3.976-.111-.523.41-1.147.994-1.193Z"/>
    <g>
      <path class="st36" d="M144.917,73.655c-.042.257-.836.287-.099.596.783.329,2.811.452,3.777.795,3.094,1.099,8.517,3.936,8.847,7.555-.582.215-.651,1.394-.994,1.889-.936,1.348-3.103,2.564-4.573,3.28-.197-1.504,1.867-2.317,2.088-3.777-6.435,5.37-17.886,5.369-25.548,2.982-1.497-.466-3.16-.961-4.374-1.988-5.918-5.01,2.487-8.495,6.66-9.742.884-.264,3.189.026,3.479-1.093.046-.176-.888.104-.398-.497,3.568.473,7.564.615,11.134,0Z"/>
      <path class="st19" d="M143.326,78.028l.795,6.859-3.579.099c-.009-.062-.296-.422-.398-1.193-.223-1.684-.483-3.37-.596-5.07.203-.438,2.287-.22,2.982-.298.61-.068.215-.371.795-.398Z"/>
      <path class="st63" d="M140.145,85.583c0-.24.427-.383.398-.596l3.579-.099-.795-6.859c2.366-.107,5.569.36,7.953.696l-7.257.099,1.093,6.66c-.147.378-4.374.178-4.97.099Z"/>
      <path class="st33" d="M133.385,78.227l.199,5.269c-.156.457-3.219.337-3.777.298l3.181-.298-.199-4.374-3.976-.199,4.573-.696Z"/>
      <path class="st46" d="M138.952,78.028c.235,1.994.334,3.793.398,5.766.018.56.103,1.047.199,1.591-.12-.057-.304.405-.596-.099l-.596-7.157c.096-.182.414-.077.596-.099Z"/>
      <path class="st76" d="M129.21,84.391c.025-.025.049-.444.398-.596.066.006.133-.005.199,0,.558.039,3.621.159,3.777-.298l-.199-5.269.398.099.199,5.567c-.232.719-4.006.446-4.772.497Z"/>
      <path class="st63" d="M142.531,78.426c-.695.078-2.779-.14-2.982.298.114,1.7.374,3.386.596,5.07h-.795c-.063-1.972-.163-3.772-.398-5.766.67-.082,2.77.308,3.579.398Z"/>
      <path class="st46" d="M129.608,83.794c-.349.153-.372.571-.398.596-.799.794-2.1.449-2.187-.696l.497-.497c1.016-.376,1.764.568,2.088.596Z"/>
      <path class="st41" d="M140.145,83.794c.102.771.389,1.131.398,1.193.029.213-.398.357-.398.596-.394-.052-.337-.075-.596-.199-.096-.543-.181-1.03-.199-1.591h.795Z"/>
    </g>
    <path class="st88" d="M118.077,51.586l1.193.795c-5.014,5.478,3.2,11.05,7.754,12.923-1.352.107-.502,1.364.099,1.193.189-.054-.236-.804.994-.596.81.137.032.811.398,1.193.152.159,3.716,1.271,4.175,1.392,2.03.534,6.534,1.007,8.648.994l1.392.398c-9.185.223-19.718-2.399-25.846-9.642l-2.187-4.672c.624-1.717,2.074-2.848,3.38-3.976Z"/>
    <path class="st51" d="M44.516,93.934c.105,5.025-5.508,7.748-9.543,9.145-.447-.005-.721.168-1.193.199-.606.039-1.379.344-2.187.398-4.51.302-8.113-.154-12.128,0l3.678-.398-.398.596c3.379-.531,4.578,1.028,4.076-3.38,1.472-.018,4.27-.119,5.666-.398.217-.043,1.532-.174,1.193-.596-.936-.157-2.131.377-2.982.398-1.845.044-6.652-.118-8.35-.398-.541-.089-.512-.777-.596-.795-.641-.142-1.795-.028-2.585-.199-.166-.036-1.141-.2-.696-.596,6.833,1.195,14.173,1.186,20.478-1.988-2.246,2.715-.716,2.891,1.789,1.392,1.326-.793,2.775-1.761,3.082-3.38h.696Z"/>
    <path class="st82" d="M42.13,110.236c-2.3.821-5.244.816-7.654,1.193.674-.676.358-1.994.696-2.485.516-.751,1.161.207,1.591-.298.558-.656-.32-1.172.398-1.392l4.772-.099c-1.525-.023-3.263-.314-4.772-.099-1.182.168-.552.295-.596.596h-.596c-1.437,0-2.274.188-3.777,0l-.596-3.976c.808-.054,1.581-.359,2.187-.398.079.45-.527.526.099.795,1.011.434,4.738.462,6.163.795,3.652.854,8.212,3.182,2.088,5.368Z"/>
    <path class="st14" d="M34.973,103.079c2.024.024,9.529,1.869,11.233,2.982,1.367.893,2.28,1.787,1.491,3.38-.314-1.051-2.012.517-2.883.795-.716.229-1.592.228-2.286.398l-.398-.398c6.124-2.186,1.564-4.514-2.088-5.368-1.425-.333-5.153-.361-6.163-.795-.627-.269-.021-.345-.099-.795.472-.03.746-.204,1.193-.199Z"/>
    <path class="st63" d="M47.697,109.441c-.89,1.799-3.851,2.31-5.567,2.783-.094-1.047,1.272-.257,0-1.392.432-.098.376-.194.398-.199.694-.17,1.57-.169,2.286-.398.871-.278,2.569-1.846,2.883-.795Z"/>
    <g>
      <path class="st19" d="M19.465,103.675c4.014-.154,7.618.302,12.128,0l.596,3.976c-1.755-.22-1.518-1.852-3.181.795-.225.184-.766.349-.497.795.395-.166.399-.639.497-.795,1.007-.824,1.08-.301,1.292-.398.227-.103-.031-.634.199-.795.073-.051,1.243.754,1.591.795.582.07,4.172.356,3.877-.398h.596c-.034.23-.11.922.199.994-.43.505-1.074-.453-1.591.298-.338.491-.022,1.809-.696,2.485,2.41-.376,5.354-.372,7.654-1.193l.398.398c-.022.005.034.101-.398.199-4.223.96-8.785,1.357-13.122,1.392-3.235.026-9.389-.105-12.426-.795-.579-.132-.275-.707-.596-.795-1.304-.359-3.785-.422-4.871-1.392-1.124-1.003-.57-1.511-.994-2.783,1.434-.822,7.206-2.671,8.748-2.783.196-.014.4.008.596,0Z"/>
      <path class="st84" d="M18.173,106.658c-.488,4.491,2.556.278,4.175.398.724.053,1.649,1.876,1.988,1.988.151.05,3.02.05,3.181,0,.303-.094.837-1.417,1.093-.895-.126,1.61-3.261,1.58-4.473,1.292-.599-.142-1.809-1.753-2.187-1.789-1.536-.147-6.212,4.688-3.777-.994Z"/>
      <path class="st84" d="M32.189,107.652c1.504.188,2.341,0,3.777,0,.296.754-3.295.468-3.877.398-.347-.042-1.518-.846-1.591-.795-.23.161.028.692-.199.795-.212.097-.286-.427-1.292.398,1.663-2.647,1.426-1.015,3.181-.795Z"/>
      <path class="st63" d="M37.16,107.055v.199c-.717.22.161.735-.398,1.392-.309-.072-.233-.764-.199-.994.045-.302-.586-.429.596-.596Z"/>
      <path class="st84" d="M29.008,108.447c-.098.156-.102.63-.497.795-.269-.446.272-.611.497-.795Z"/>
    </g>
    <path class="st31" d="M123.047,37.272c-.011,1.126.249,1.613-.596,2.386-1.178-.022-2.414-.326-3.579-.398-.327-.02-.667.024-.994,0-3.023-.224-6.731-.383-9.642-1.193-1.025-.285-3.855-1.17-3.877-2.386,6.105,1.56,12.416,1.579,18.688,1.591Z"/>
    <path class="st3" d="M42.13,68.287c-1.539,6.618-8.409,9.719-14.513,10.935l-.398-.398c3.107-.527,6.841-1.869,9.245-3.976.39-.342,3.086-3.237,1.69-3.579,1.293-2.01,1.603-4.151.199-6.163l1.193-.994c1.48,1.52,2.024,1.957,2.585,4.175Z"/>
    <path class="st14" d="M13.501,77.233c.044.887,2.358.649,2.883.795.073.02-.006.623.795.795,3.025.65,7.043.509,10.04,0l.398.398c-6.838,1.361-14.577,1.11-20.677-2.585-.069-.762.457-1.184.994-1.591,1.733,1.209,3.534,1.724,5.567,2.187Z"/>
    <path class="st14" d="M18.471,97.91c-.445.396.53.56.696.596.789.171,1.943.056,2.585.199.084.019.056.706.596.795,1.698.28,6.505.442,8.35.398.852-.021,2.046-.554,2.982-.398.339.422-.976.553-1.193.596-1.397.279-4.194.38-5.666.398-6.295.077-15.237-1.31-20.478-4.97-.383-.806.487-1.232.795-1.988,2.345,2.429,8.065,3.802,11.332,4.374Z"/>
    <path class="st53" d="M141.338,69.48c-2.114.013-6.619-.46-8.648-.994-.459-.121-4.023-1.233-4.175-1.392-.365-.382.413-1.056-.398-1.193-1.23-.207-.805.542-.994.596-.601.172-1.452-1.086-.099-1.193,8.32,3.422,18.096,3.842,25.846-.795.121-.072,1.196-.899,1.193-.497-1.375.934-2.699,3.146-4.076,3.877-1.491.791-6.916,1.58-8.648,1.591Z"/>
    <path class="st29" d="M129.21,47.411c1.932.059,3.43.068,5.368,0-.363.907-1.766.065-.795,1.392-3.939-.168-11.696.5-14.513,3.579l-1.193-.795c2.831-2.445,2.512-1.869,5.766-2.783.22-.062.524-.181.596-.199.705-.176.269-.546.497-.596.544-.12,1.966-.1,2.684-.199.422-.058.887.204.795-.398.263.01.532-.008.795,0Z"/>
    <path class="st18" d="M141.338,45.025l.199.398c-1.027.126-2.481.016-3.28.596,11.33-.553-.76,1.31-3.976.994l.895.398c-.197.009-.399-.007-.596,0-1.938.068-3.436.059-5.368,0-.053-1.116,1.498-.278,1.591-.497l-.398-.895c1.961-.005,3.913.042,5.865-.199l-3.28-.298c0-.14,2.528-.283,2.783-.298,1.769-.106,3.815.008,5.567-.199Z"/>
    <path class="st94" d="M137.759,40.254c1.897.203,4.571.459,6.362.994-.273.343.125.932,0,1.193-1.606.069-4.295-.548-5.766-.398-.128.013-.345-.03-.398,0-.669.386-.182,1.455-.596,1.988-1.527-.552-4.078-.23-5.467-.596-.778-.205-2.265-1.822-2.783-1.591-.195.087.322.487,0,.596-.312.106-.647-.575-.795-.596-1.971-.28-4.57.763-6.561.994-.093-.638.229-1.058.298-1.789.059-.629-.246-.349-.199-.994,1.528-.121,3.235-.16,4.772-.199,3.928-.099,7.359-.006,11.134.398Z"/>
    <path class="st29" d="M122.451,39.658c1.114.021,3.295-.738,4.175.199-1.537.039-3.244.078-4.772.199-1.49.118-8.583.957-9.444,1.591-1.174.863-.101,1.555.696,1.988l.199.298-.596.099c-.571-.172-2.479-1.011-2.386-.398-2.028-2.75,5.763-3.684,7.555-3.976.454-.074,1.095.243.994-.398,1.165.072,2.4.376,3.579.398Z"/>
    <path class="st18" d="M123.047,86.18c5.064,3.712,12.387,4.308,18.49,3.976.588-.032,1.206.057,1.789,0l.398,2.684-.497.298-7.456.398c-.416-.035-.778-.147-1.193-.199-.065-.008-.134.009-.199,0-5.368-.731-16.257-4.254-14.911-11.332,1.019,1.982,1.791,2.865,3.579,4.175Z"/>
    <path class="st4" d="M149.092,88.963c-1.712.532-3.988,1.02-5.766,1.193-.583.057-1.201-.032-1.789,0l-.199-.398c2.547-.135,4.197-.41,6.66-.994.304-.072,1.182-.478,1.093.199Z"/>
    <path class="st88" d="M39.545,64.112l-1.193.994c-3.497-5.012-12.449-5.259-18.092-4.573l9.145-1.392c3.835.646,7.447,2.203,10.139,4.97Z"/>
    <path class="st19" d="M145.712,41.844c4.005,2.067-2.691,2.983-4.374,3.181-1.752.206-3.798.092-5.567.199l.298-.795c-1.445-.162-4.065.021-5.368-.398-.288-.093.659-.454-.099-.596,2.244.236,4.494.674,6.76.795.623.003.548-1.584.596-2.187.053-.03.269.013.398,0-.034.462,1.613.577,1.889.596.526.036,3.727.114,3.877-.199.125-.261-.273-.85,0-1.193.552.165,1.074.33,1.591.596Z"/>
    <path class="st3" d="M112.709,44.031c5.691,1.717,11.754,2.004,17.694,1.988l.398.895c-.093.219-1.644-.619-1.591.497-.263-.008-.532.01-.795,0-.345-.014-.611.009-.795,0-3.542-.182-15.25-1.001-17.297-3.777-.093-.614,1.815.225,2.386.398Z"/>
    <path class="st67" d="M128.415,47.411c.092.602-.373.34-.795.398v-.398c.184.009.45-.014.795,0Z"/>
    <path class="st67" d="M118.872,39.26c.101.641-.54.324-.994.398v-.398c.327.024.667-.02.994,0Z"/>
    <path class="st83" d="M37.16,107.254v-.199c1.509-.214,3.246.076,4.772.099l-4.772.099Z"/>
    <g>
      <path class="st48" d="M27.02,83.396c5.077.367,17.364,4.253,17.496,10.537h-.696c-.307,1.619-1.756,2.586-3.082,3.38-2.503.056,1.101-2.793.497-3.181-.722.207-1.832,1.24-2.286,1.789-6.305,3.174-13.645,3.183-20.478,1.988-3.267-.571-8.987-1.945-11.332-4.374-1.807-1.871-2.02-4.08.199-5.766.664-.505,3.953-1.734,4.871-1.988,2.547-.706,5.556-.302,7.456-2.187,2.029-.089,5.468-.335,7.356-.199Z"/>
      <path class="st18" d="M40.738,97.313c-2.506,1.499-4.035,1.324-1.789-1.392.454-.549,1.565-1.582,2.286-1.789.604.388-3,3.237-.497,3.181Z"/>
      <path class="st84" d="M26.225,91.747c-.439.498-.841,1.195-.596,1.789-.216-.032-.453.549-1.193-.099-.518-.454-2.851-5.027-3.479-5.07-1.131.481-4.076,5.551-4.573,5.766-.452.195-3.678-1.245-4.573-.994.313-.968,2.955.48,3.28-.298l.398-4.772-3.777.199c-.135-.281,4.408-1.044,4.573-.795-.114.778-.815,5.287-.298,5.467l4.97-5.567c1.799,1.185,2.896,6.186,5.269,4.374Z"/>
      <path class="st63" d="M31.394,93.337c.496.036.888.256,1.392.199.007.029.573-.081.596.099.067.515-6.967.018-7.754-.099-.245-.595.158-1.291.596-1.789.179-.203,3.637-2.932,3.877-2.982.371-.078,6.998.47,7.555.596.027.006.608.297.398.398-1.951.083-5.598-.833-7.356-.398-.805.199-3.474,2.99-4.473,3.479.02.367,4.563.454,5.169.497Z"/>
      <path class="st33" d="M32.786,93.536c-.503.057-.895-.163-1.392-.199-.175-.809-1.186-.695-.099-1.789,2.045-.09,1.23.89,1.491,1.988Z"/>
    </g>
    <path class="st53" d="M27.219,78.824c-2.998.509-7.015.65-10.04,0-.801-.172-.723-.775-.795-.795-.525-.147-2.839.091-2.883-.795,6.819,1.551,20.423.607,24.653-5.964,1.397.342-1.3,3.237-1.69,3.579-2.403,2.107-6.138,3.449-9.245,3.976Z"/>
    <g>
      <path class="st91" d="M133.783,48.803c5.346.228,13.533,2.781,17.794,6.561,3.203,2.842,4.754,5.599,1.292,9.145-7.75,4.637-17.526,4.217-25.846.795-4.554-1.873-12.768-7.445-7.754-12.923,2.817-3.078,10.574-3.746,14.513-3.579Z"/>
      <path class="st29" d="M133.982,58.942c-.299-.096-.381.168-.596.199-.431.062-6.922-.256-7.257-.398-.141-.06-.065-.393-.298-.497l5.07-4.871c.832-.078,2.553,4.778,3.082,5.567Z"/>
      <path class="st33" d="M131.994,52.978c-.013-.013-.057.367-.298.199-.13-.091-.116-.805-.398-.795-1.403.05.84,1.015.895,1.093.865,1.236,2.217,4.808,2.585,6.263-.16-.179-.688-.635-.795-.795-.529-.789-2.249-5.644-3.082-5.567l-5.07,4.871c.233.104.157.437.298.497.334.142,6.825.46,7.257.398-.109.217-.154.911-.199.994l-.398.398c-.74.21-3.721-.171-4.374-.795,1.228.065,2.446.191,3.678.199-1.89-.596-4.76-.701-6.859-.398-2.757-.675-.423-2.095.895-3.38.533-.52,4.831-4.352,5.169-4.374.477-.031.75.803.696,1.193Z"/>
      <path class="st86" d="M137.958,59.34c.095-.22-.055-.362.398-.994.289-.404.764-.698.795-1.193.497-.352,2.856-2.336,3.082-2.386,1.571-.344,6.778,1.38,8.648,1.491-.059.4-7.071-.963-8.052-.696-.696.19-3.791,3.375-4.871,3.777Z"/>
      <path class="st76" d="M138.356,58.346c-.453.633-.302.774-.398.994-.022.052-.866.419-.497.795l8.35.596-9.444-.199c-.229.035-.186-.192-.199-.199l2.187-1.988Z"/>
      <path class="st84" d="M131.994,52.978c1.177,1.196,2.55,4.901,3.579,6.561.182.293.253.54.199.895.134.233.257-.175.398-.099.012.007-.031.234.199.199-1.053.748-1.176-.329-1.591-.795-.368-1.454-1.719-5.026-2.585-6.263-.055-.078-2.298-1.044-.895-1.093.282-.01.268.704.398.795.241.169.286-.212.298-.199Z"/>
      <path class="st33" d="M143.028,56.954c.724.381-.24,1.619,1.093,1.093.323-2.422,1.34.853.895,1.491-1.918-.626-3.024-.275-1.988-2.585Z"/>
      <path class="st33" d="M138.356,58.346l-2.187,1.988c-.141-.076-.263.333-.398.099.054-.355-.017-.601-.199-.895,1.173-.808,2.418-1.565,3.579-2.386-.031.495-.506.789-.795,1.193Z"/>
      <path class="st95" d="M128.415,59.738c-.919-.049-2.312.014-3.181-.199,2.099-.303,4.969-.199,6.859.398-1.232-.008-2.45-.133-3.678-.199Z"/>
      <path class="st95" d="M132.789,60.533l.398-.398c-.169.313.218.222-.398.398Z"/>
    </g>
    <path class="st82" d="M130.602,43.435c.759.142-.189.504.099.596,1.303.419,3.923.236,5.368.398l-.298.795c-.256.015-2.784.158-2.783.298l3.28.298c-1.952.241-3.904.193-5.865.199-5.941.016-12.003-.271-17.694-1.988l.596-.099-.199-.298c.776.422,6.944,1.604,7.157,1.292l-.199-1.093c1.732-.022,6.03-2.154,7.853-1.789.556.111,1.513,1.695,2.386,1.789.142.015.012-.428.298-.398Z"/>
    <path class="st82" d="M121.854,40.055c-.048.645.258.365.199.994-1.449.58-1.835,1.594-2.783,2.684.117.175.592.102.795.099l.199,1.093c-.214.312-6.381-.87-7.157-1.292-.797-.433-1.869-1.125-.696-1.988.861-.633,7.953-1.473,9.444-1.591Z"/>
    <path class="st33" d="M137.362,44.031v.199c-2.265-.121-4.516-.559-6.76-.795-.286-.03-.156.413-.298.398-.873-.094-1.83-1.678-2.386-1.789-1.823-.365-6.122,1.767-7.853,1.789-.203.003-.679.076-.795-.099.948-1.09,1.334-2.104,2.783-2.684-.069.732-.391,1.151-.298,1.789,1.991-.231,4.59-1.274,6.561-.994.149.021.483.702.795.596.322-.109-.195-.51,0-.596.518-.232,2.005,1.385,2.783,1.591,1.39.367,3.94.044,5.467.596Z"/>
    <path class="st14" d="M144.121,42.441c-.15.313-3.351.235-3.877.199-.276-.019-1.923-.134-1.889-.596,1.47-.151,4.159.467,5.766.398Z"/>
    <path class="st52" d="M137.362,44.23v-.199c.414-.533-.072-1.602.596-1.988-.048.603.026,2.19-.596,2.187Z"/>
    <g>
      <path class="st64" d="M38.353,65.106c1.404,2.012,1.095,4.154-.199,6.163-4.23,6.572-17.834,7.516-24.653,5.964-2.033-.463-3.833-.978-5.567-2.187-2.396-1.671-3.707-4.081-2.386-6.958,1.848-4.026,10.603-7.055,14.712-7.555,5.643-.686,14.595-.439,18.092,4.573Z"/>
      <path class="st63" d="M22.249,70.672c.162-.402,2.094-2.763.795-2.187.441-.526,2.295-3.291,2.485-3.38,1.268-.594,8.937-.142,10.835-.298-2.203.971-8.05-.127-9.841.696-.964.443-2.693,4.823-4.274,5.169Z"/>
      <path class="st53" d="M21.652,71.666c-.256-.998.507-.581.596-.596,1.278-.227,8.149-1.419,8.847-1.193.32.104.32.492,0,.596-2.02.656-6.43.306-8.748.795-.078.017-.48.334-.696.398Z"/>
      <g>
        <path class="st33" d="M23.044,68.485c1.299-.576-.633,1.785-.795,2.187-.033.081.017.272,0,.398-.089.016-.852-.402-.596.596-.044.013-.289.649-.696.596-.138-.018-.843-.966-.994-.994-1.618-.299-6.663,1.031-8.549.398-.166-.056-.477-.46-.497-.696-.051-.605,4.185-5.475,4.672-6.461.525-.052,4.329,5.573,4.97,5.964.956.584,1.983-1.389,2.485-1.988Z"/>
        <path class="st62" d="M15.588,65.901l3.678,4.672-6.66.497c-.166-.163-.312-.226-.298-.497.015-.285,3.073-3.883,3.28-4.672Z"/>
      </g>
    </g>
  </g>
  <g id="Generative_Object2" data-name="Generative_Object">
    <path class="st67" d="M75.056,24.879c.661-.008,4.817,1.652,5.977,1.992,6.256,1.838,11.664,3.071,18.13,4.184,3.496.602,7.034,1.185,10.559,1.594v.199c-1.344.227-6.98,1.506-4.881,3.586,1.667,1.652,10.313,2.739,12.851,2.989v.398c-1.447.472-9.869,1.526-6.176,4.582,1.497,1.239,5.785,2.199,7.77,2.59,2.558.503,5.204.614,7.77.996-2.593.193-7.262,2.363-9.364,3.985-7.852,6.057-2.404,14.037,4.383,17.931,3.025,1.735,7.484,3.348,10.958,3.785v.199c-1.533.704-4.078.667-5.579,1.793-1.891.508-3.781,1.655-5.18,2.989-1.199,1.143-2.638,3.26-2.59,4.981.161,5.731,9.659,9.925,14.544,10.161v.398c-3.045.804-5.23,1.891-7.969,3.387-13.741,7.503-22.389,21.84-36.161,29.287-3.51,1.898-7.309,3.284-10.858,5.18-1.682.899-3.372,1.761-4.981,2.789-3.967-.93-8.253-1.3-12.054-2.192-.183-.043-.837-.256-.697-.598,3.42-1.792,3.401-4.028,1.793-7.172-2.701-5.282-16.065-11.394-21.517-11.755l-.199-.398c1.742-.363,7.513-2.111,6.575-4.582-.17-.447-.665-.699-.996-.996-1.623-1.455-10.137-4.037-12.153-3.586l-.398-.398c3.946-.848,9.888-4.298,9.762-8.966-.034-1.255-.546-2.031-1.195-2.989-3.215-4.738-11.775-6.762-17.134-7.571v-.398c.998-.449,4.144-.195,5.18-1.395,5.007-1.41,11.244-5.053,11.356-10.958.063-3.297-1.482-5.377-3.985-7.372-1.556-1.24-4.063-2.607-5.977-3.188-2.226-.675-3.808-.776-6.077-.996-.425-.041-1.08.08-.897-.598,8.418-1.749,16.304-7.17,22.812-12.552,4.568-3.778,21.842-21.257,26.598-21.318Z"/>
    <path class="st67" d="M130.044,48.787c.628.049,1.132-.259.996.598-.066-.005-.134.008-.199,0-.283-.033-.968.071-1.096,0-.207-.115-.043-.535-.1-.598.131-.004.269-.01.398,0Z"/>
    <path class="st78" d="M86.412,142.826c9.966,1.436,19.656,2.533,29.785,2.391,3.247-.046,7.007-.781,10.061-.199-2.51,2.659-11.874,6.057-15.54,7.372-.987.354-2.166.671-3.188.996-1.564-.261.124-.859.598-1.096-1.29-.6-2.44.942-2.889,1.096-4.532,1.555-12.877,2.574-17.732,2.789-16.223.72-35.586-3.048-48.513-13.149.003-.064.006-.136,0-.199,4.739-4.515,13.569-4.012,19.824-3.785,9.494.344,18.356,2.455,27.594,3.785Z"/>
    <path class="st38" d="M30.228,114.136l11.456,2.192c4.893,1.754,11.232,2.815,14.843,6.774-11.955,1.399-20.994,2.95-32.674-1.992-1.221-.517-3.119-1.512-4.284-2.192-.604-.353-3.543-3.524-3.885-1.494-.299,1.775,5.818,4.612,7.172,5.28,7.173,3.539,16.775,6.32,24.805,6.774,4.061.23,17.445.655,12.253-6.575.203.002.644-.451.897-.398.554.115,1.663,2.318,2.49,2.391,1.608,3.144,1.627,5.381-1.793,7.172-.254.133-.186.193-.199.199-4.951,2.253-14.604,1.023-19.923,0-2.667-.513-6.042-1.415-8.667-2.192-4.342-1.285-25.902-8.281-18.329-15.142.238-.215,2.227-1.352,2.49-1.395,1.677-.274,3.956.536,5.678.598,2.568.092,5.107.075,7.67,0Z"/>
    <path class="st35" d="M146.78,93.416c3.269.664,7.415,3.262,9.165,6.176-2.339,17.596-20.838,32.43-37.257,36.46l-.498-2.989c-4.939,1.69-10.151,2.235-15.341,2.59l-.1-4.184c9.005-.561,18.425-3.141,26.299-7.571l2.092,3.586c1.004.138,9.343-6.448,10.559-7.571,6.14-5.668,17.483-19.806,3.785-23.908l-.299,1.395c-6.035-1.161-13.362,1.631-18.529,4.582l-.398-4.383c2.739-1.496,4.925-2.583,7.969-3.387.178-.047.221-.156.398-.199,1.374-.335,3.179-.68,4.582-.797,2.204-.184,5.432-.235,7.571.199Z"/>
    <path class="st35" d="M117.492,140.634c-.422.099-1.095.145-1.395.398-3.565-.024-6.84.251-10.559,0-9.031-.61-16.044-2.413-24.705-4.383-2.215-.504-4.383-1.279-6.575-1.793,1.609-1.028,3.299-1.891,4.981-2.789,12.691,4.678,26.045,7.274,39.448,3.985,16.419-4.03,34.918-18.864,37.257-36.46,3.795,6.322.618,12.61-3.188,18.031-7.982,11.369-21.821,19.867-35.264,23.011Z"/>
    <path class="st80" d="M38.596,63.531c-.056.503.501.519.398,1.096-.07.395-4.963,4.046-5.678,4.483-8.65,5.277-21.571,7.963-30.782,2.789.221-4.333,4.765-7.957,8.368-9.762l-.199,1.594c-.786.502-6.846,5.669-5.479,6.575,5.219-7.698,13.768-9.75,22.613-9.563,1.511.032,4.045.905,4.782-.398,1.914.581,4.421,1.948,5.977,3.188Z"/>
    <path class="st25" d="M43.178,91.224c-7.409,3.105-15.595,3.407-23.51,2.59-5.55-.573-10.674-1.874-15.739-4.184,1.875-2.713,5.171-4.128,8.766-4.981l-.398.299.996.697c-2.064.578-5.651,1.762-6.674,3.785,3.67-2.029,7.584-3.422,11.755-3.985,1.551-.209,4.997.12,6.176-.199.245-.066-.203-.344-.1-.398.893-.472.856-.827,1.395-1.195h.199c5.359.809,13.919,2.833,17.134,7.571Z"/>
    <path class="st47" d="M144.588,74.09c.152.587.376.196.398.199,1.149.186,2.704.43,3.785.797.095,1.344,3.067,1.602,3.686,1.992.266.168,3.468,3.172,3.686,3.487,1.743,2.521.093,2.749-2.49,3.686-8.384,3.04-19.789.661-27.693-2.989-1.07-.494-3.515-1.453-3.686-2.59,1.399-1.334,3.289-2.48,5.18-2.989l.199.797c-.53.215-3.434,1.66-3.387,2.092.101.92,3.585-1.134,4.084-1.295,2.786-.898,5.85-1.548,8.766-1.793,1.233-.104,5.425.337,5.977.199,1.746-.435-1.819-.974-2.092-.996v-.797c1.194-.013,2.312.284,3.586.199Z"/>
    <path class="st2" d="M42.581,70.902c-.418-.121.1-1.009-.697-.797-.253.067-2.474,3.229-3.387,3.985-4.233,3.503-11.801,5.835-17.234,5.977-5.189.135-10.266-1.268-14.843-3.586l-3.686-2.59c-.148-.743-.24-1.202-.199-1.992,9.21,5.174,22.132,2.488,30.782-2.789.716-.437,5.608-4.088,5.678-4.483.103-.577-.455-.593-.398-1.096,2.502,1.994,4.048,4.075,3.985,7.372Z"/>
    <path class="st57" d="M157.937,64.328c-.272.006-.192-.205-.199-.398-.009-.265.093-1.051-.1-1.195-8.641,1.87-17.179-.518-25.203-3.586l9.364-10.161c6.156,1.871,16.935,7.714,16.138,15.341Z"/>
    <path class="st10" d="M140.205,28.864c.15-.855-.442-.521-.897-.398-7.969,2.143-12.414,2.839-20.82,2.59l.598-10.36c1.785.242,3.569.378,5.28.996.116-1.152-.207-2.611.498-3.487-.06-.668-9.422-2.026-9.762-2.69,6.014.467,19.819,3.994,24.008,8.368,1.579,1.649,2.127,2.878,1.096,4.981Z"/>
    <path class="st15" d="M157.538,84.45c-5.082,4.313-11.173,6.781-17.931,6.774-5.623-.006-12.58-1.951-17.034-5.379-.838-.645-1.816-2.504-2.889-2.192-.048-1.721,1.391-3.837,2.59-4.981.171,1.137,2.616,2.096,3.686,2.59,7.904,3.649,19.309,6.029,27.693,2.989,2.584-.937,4.234-1.165,2.49-3.686-.218-.315-3.42-3.319-3.686-3.487-.619-.391-3.591-.648-3.686-1.992,3.973,1.348,9.608,4.531,8.766,9.364Z"/>
    <path class="st16" d="M107.531,153.385c-19.596,6.234-53.443,7.364-69.931-7.172.306-.675,1.362-2.59,1.395-3.188,12.927,10.101,32.29,13.87,48.513,13.149,4.855-.216,13.2-1.234,17.732-2.789.449-.154,1.599-1.696,2.889-1.096-.474.237-2.162.835-.598,1.096Z"/>
    <path class="st44" d="M157.738,63.929c.007.193-.073.405.199.398-.564,5.398-8.119,9.331-12.95,9.762-.13.012-.268-.009-.398,0-1.274.085-2.392-.212-3.586-.199-2.592.028-5.189.095-7.77-.199-.066-.007-.134.008-.199,0-3.474-.438-7.933-2.05-10.958-3.785.722-1.474,2.114-2.436,3.188-3.586,10.378,5.574,23.13,4.939,32.475-2.391Z"/>
    <path class="st94" d="M137.416,47.791l4.383,1.195-9.364,10.161c-.142-.054-.457.055-.598,0-.199-.077-.841-.774-.897-.797-4.71-1.933-8.889-3.81-13.249-6.375,2.102-1.622,6.771-3.792,9.364-3.985.293-.022,2.376.136,2.49.199.207.114.043.535.1.598-2.145.067-6.973,1.005-8.069,2.789l9.264-2.192c.065.008.133-.005.199,0,1.255.1,2.679-.236,3.885.199.159-.352-1.593-1.17-1.693-1.195,1.382-.315,2.776-.445,4.184-.598Z"/>
    <path class="st30" d="M137.615,39.025c-.166.39.945.581,1.096.598,3.243.368,7.289.854,10.061,2.789-5.574,2.476-12.619,2.337-18.728,2.391.087-.599-.532-.386-.897-.398-1.482-.05-15.199-.302-15.241-1.494,4.458-1.527,9.42-2.104,14.245-1.893.127-.066-.157-.58-.199-.598-1.231-.524-6.041.48-7.87-.199-.463-.172-.687.332-.398-.598,5.801.396,12.368.5,17.931-.598Z"/>
    <path class="st72" d="M61.309,132.266c-.438,3.678-4.476,3.642-7.471,3.785-3.654.175-16.631-1.677-15.64,5.08.078.534.75,1.198.797,1.693.006.064.003.135,0,.199-.032.598-1.089,2.513-1.395,3.188-5.255-4.633-5.15-9.593,1.494-12.751.23-.109,3.788-.656,2.291-1.195,5.32,1.023,14.972,2.253,19.923,0Z"/>
    <path class="st2" d="M19.669,93.814l.398,6.774c-4.777-.624-9.745-2.02-13.847-4.582-1.118-.698-2.386-2.33-3.188-2.789-.635-.364-.494-.129-.498.398-.401-2.366.228-2.296,1.395-3.985,5.065,2.309,10.19,3.611,15.739,4.184Z"/>
    <path class="st35" d="M140.205,28.864c-.998,2.036-2.969,2.74-4.981,3.387-4.324,1.391-9.039,1.437-13.548,1.395-4.149-.039-7.689-.533-11.755-.996-.066-.007-.134.008-.199,0-3.525-.409-7.063-.992-10.559-1.594-1.01-.329-.483-1.266-.598-2.192,6.374,1.206,13.437,1.999,19.923,2.192,8.406.249,12.851-.447,20.82-2.59.454-.122,1.047-.457.897.398Z"/>
    <path class="st35" d="M121.676,33.646l-.199.797c-2.478-.002-11.488-.125-13.249.996-.925.589,1.978,1.53,2.192,1.594,8.841,2.624,21.963,1.408,30.981,0,.632-.099,2.051-.531,1.395.398-1.613.873-3.404,1.243-5.18,1.594-5.563,1.098-12.13.994-17.931.598-.551-.038-1.077-.152-1.594-.199-.13-.012-.269.013-.398,0-2.538-.25-11.184-1.336-12.851-2.989-2.099-2.081,3.537-3.359,4.881-3.586.145-.024.221-.02.199-.199,4.066.463,7.606.957,11.755.996Z"/>
    <path class="st49" d="M21.263,80.067l.1,3.188c3.434.043,6.573-.468,9.862-1.395-1.036,1.199-4.182.946-5.18,1.395-.351.158-.153.367-.199.398-.539.369-.502.724-1.395,1.195-2.473-.269-4.896-.279-7.372,0l.299-.598c-.526-.014-.962-.183-1.494-.199-.007-.283.215-.179.398-.199.342-.038.553.083.797-.299-.006-.125-.65-.255-.797-.299-5.108-1.512-12.262-2.887-13.548-9.364l3.686,2.59c4.577,2.318,9.653,3.722,14.843,3.586Z"/>
    <path class="st55" d="M20.067,100.588c.19.025.211.178.398.199v3.387c-.448-.142-.94-.296-1.395-.398-.18-.041-.417.041-.598,0-5.114-1.152-14.9-4.033-15.939-10.161.004-.528-.137-.762.498-.398.802.46,2.07,2.091,3.188,2.789,4.101,2.562,9.069,3.958,13.847,4.582Z"/>
    <path class="st13" d="M104.941,143.623c6.069.315,12.766.379,18.828,0,.781-.049,3.314.042,3.088-.996.652,1.101.237,1.507-.598,2.391-3.054-.581-6.814.154-10.061.199-10.13.142-19.82-.955-29.785-2.391.329-.604-.901-.487-.398-1.594,6.012,1.356,12.762,2.071,18.927,2.391Z"/>
    <path class="st61" d="M116.098,141.032c.471.003.929,0,1.395,0,2.087,0,8.238-.307,9.364,1.594.226,1.038-2.307.947-3.088.996-6.062.379-12.758.315-18.828,0,.041-1.162-.297-1.794.598-2.59,3.719.251,6.994-.024,10.559,0Z"/>
    <path class="st39" d="M157.538,84.45c-.861,4.944-6.505,7.582-10.759,8.966-2.139-.434-5.367-.383-7.571-.199l.398-1.992c6.758.007,12.849-2.461,17.931-6.774Z"/>
    <path class="st17" d="M137.416,47.791c-1.408.153-2.801.283-4.184.598-1.164-.293-2.006.136-3.188.398-.13-.01-.268-.004-.398,0-.056-.063.108-.483-.1-.598-.114-.063-2.197-.221-2.49-.199-2.566-.382-5.213-.493-7.77-.996l8.866.598-.897-.299c1.258-.387,1.779.82,1.594-1.096,5.041.133,15.792.014,20.222-2.192.359-.179.778-.501.498-.996.327.408.823.35.598,1.295-.59,2.472-10.609,3.254-12.751,3.487Z"/>
    <path class="st52" d="M149.569,43.01c.28.495-.139.817-.498.996-4.43,2.206-15.181,2.325-20.222,2.192-3.7-.098-7.311-.396-10.958-.996l.398-.797c3.882.523,7.845.433,11.755.398,6.109-.053,13.154.085,18.728-2.391.364.254.445.158.797.598Z"/>
    <path class="st16" d="M142.795,37.431c.656-.93-.763-.497-1.395-.398.037-.324.571-.328.199-.697-1.433-1.425-17.283-1.89-20.123-1.893l.199-.797c4.509.043,9.224-.004,13.548-1.395l4.881,1.195c1.987.956,6.789,1.765,2.69,3.985Z"/>
    <path class="st49" d="M13.493,110.55c2.88.589,5.831.982,8.766,1.195.065.533-.157,1.1.199,1.594-1.599-.075-4.083.018-5.579-.199-1.821-.265-6.957-1.435-7.77-3.188-.118-.254-.366-.499-.1-.797,1.338.628,3.041,1.1,4.483,1.395Z"/>
    <path class="st20" d="M20.466,104.174c.416.132.912.219,1.195.598-2.372.179-9.082,1.38-10.36,3.387-.02.031-.321-.079-.398.1-.075.785,2.747,1.342,3.387,1.494l-.797.797c-1.441-.295-3.145-.767-4.483-1.395-.266.298-.018.543.1.797-.252.092-.758-.354-.797-.498-.884-3.243,8.139-4.83,10.161-5.28.307-.068.678.192.598-.398.455.103.946.256,1.395.398Z"/>
    <path class="st72" d="M11.5,58.151c-6.753-3.094-7.524-9.761-4.981-16.138.827.957-.325,2.685-.398,3.885-.235,3.852.674,6.681,3.188,9.563.698.8,2.71,1.544,2.192,2.69Z"/>
    <path class="st56" d="M41.585,112.741l.199.398c-2.987-.198-8.047.894-11.556.996-2.563.075-5.103.092-7.67,0-1.722-.062-4.001-.871-5.678-.598v-.398c1.496.218,3.98.125,5.579.199,5.685.265,13.598.553,19.126-.598Z"/>
    <path class="st20" d="M20.466,59.546c.827.02,1.661-.014,2.49,0l-1.295.598c-3.608.301-7.892,1.63-10.958,3.586l.199-1.594c2.018-1.011,3.62-1.322,5.678-1.992.483-.157,1.048-.126.897-.797,1.022.087,1.953.174,2.989.199Z"/>
    <path class="st20" d="M15.883,84.052c.533.016.969.186,1.494.199l-.299.598c-1.289.145-2.54.448-3.785.797l-.996-.697.398-.299c1.081-.256,2.031-.632,3.188-.598Z"/>
    <path class="st16" d="M110.719,152.389c-.717.47-2.362,1.134-3.188.996,1.022-.325,2.201-.642,3.188-.996Z"/>
    <path class="st67" d="M117.492,140.634v.398c-.466,0-.924.003-1.395,0,.3-.254.973-.3,1.395-.398Z"/>
    <path class="st67" d="M16.282,83.852v-.598c.147.043.791.174.797.299-.244.382-.455.261-.797.299Z"/>
    <path class="st67" d="M19.071,103.776c.08.591-.291.33-.598.398v-.398c.18.041.417-.041.598,0Z"/>
    <path class="st67" d="M144.987,74.09v.199c-.022-.004-.246.388-.398-.199.131-.009.268.012.398,0Z"/>
    <path class="st35" d="M114.504,15.515c.197.012.402-.015.598,0,.341.663,9.702,2.022,9.762,2.69-.705.875-.382,2.335-.498,3.487-1.711-.619-3.495-.754-5.28-.996-9.636-1.308-18.401-.915-27.494,2.789l-1.395-2.192,10.759-4.981c4.543-.642,8.964-1.083,13.548-.797Z"/>
    <path class="st70" d="M100.956,16.312l-10.759,4.981-9.165,5.579c-1.16-.341-5.316-2.001-5.977-1.992,7.789-4.678,16.925-7.298,25.9-8.567Z"/>
    <path class="st94" d="M25.646,58.749c-.184.678.471.556.897.598,2.269.22,3.85.321,6.077.996-.737,1.303-3.27.43-4.782.398-.319-.348-2.505-.772-2.889-.797-1.147-.075-2.171.106-3.287.199l1.295-.598c-.829-.014-1.663.02-2.49,0,1.675-.455,3.489-.446,5.18-.797Z"/>
    <g>
      <path class="st40" d="M115.102,15.117c-.337.043-.672-.169-.598.398-4.584-.286-9.005.155-13.548.797-8.975,1.269-18.112,3.889-25.9,8.567-4.755.061-22.029,17.54-26.598,21.318-6.508,5.382-14.395,10.803-22.812,12.552-1.691.351-3.505.342-5.18.797-1.036-.025-1.966-.112-2.989-.199-2.395-.203-3.692-.149-5.977-1.195.518-1.146-1.494-1.89-2.192-2.69-2.514-2.882-3.423-5.711-3.188-9.563.073-1.2,1.226-2.928.398-3.885,4.028-10.1,18.316-21.931,27.594-27.295C56.663,1.682,88.134-2.012,113.01,6.151c1.915.628,9.042,3.277,9.464,5.28.753,3.583-5.263,3.416-7.372,3.686Z"/>
      <path class="st67" d="M115.102,15.117c.018.124-.033.334,0,.398-.196-.015-.401.012-.598,0-.074-.567.261-.355.598-.398Z"/>
      <path class="st67" d="M59.814,7.745c1.254.059,1.45.909.398,1.594-1.463.952-6.693,2.278-8.766,3.188-14.791,6.493-27.375,15.878-37.257,28.69-1.482.172-.176-2.98.1-3.686,3.9-9.985,19.668-20.283,29.188-24.406,2.494-1.08,14.325-5.474,16.337-5.379Z"/>
      <path class="st13" d="M69.278,21.692l.996,1.594c-11.613,7.12-19.658,18.402-32.276,25.701l-1.594-2.789c11.938-6.998,20.377-17.554,32.874-24.506Z"/>
      <path class="st16" d="M10.903,43.807c-.324,3.728,1.342,6.232,4.981,7.372,6.811,2.133,14.694-1.565,20.521-4.981l1.594,2.789c-6.73,3.893-17.598,8.847-25.203,4.782-5.179-2.769-4.79-9.32-1.096-12.851-.605.867-.709,1.872-.797,2.889Z"/>
      <path class="st16" d="M70.274,23.286l-.996-1.594c14.188-7.892,30.527-11.179,46.82-10.061-4.609,1.029-9.524.722-14.245,1.295-10.32,1.253-22.713,4.925-31.579,10.36Z"/>
      <path class="st72" d="M15.883,51.178c-3.639-1.14-5.304-3.643-4.981-7.372.96,1.378.887,2.816,1.992,4.284.888,1.179,2.079,1.513,2.889,2.291.491.473.125.189.1.797Z"/>
    </g>
    <path class="st31" d="M74.259,134.856c2.192.514,4.36,1.289,6.575,1.793.231.494-.401,3.064-.299,3.188.18.218,4.783,1.238,5.479,1.395-.502,1.107.727.99.398,1.594-9.238-1.331-18.1-3.442-27.594-3.785-6.255-.226-15.085-.73-19.824,3.785-.047-.495-.719-1.16-.797-1.693-.991-6.758,11.986-4.905,15.64-5.08,2.995-.144,7.033-.107,7.471-3.785.013-.006-.054-.066.199-.199-.14.342.514.555.697.598,3.801.892,8.087,1.262,12.054,2.192Z"/>
    <path class="st70" d="M56.527,123.101c1.17-.137,2.204-.209,3.387-.199,5.192,7.229-8.192,6.804-12.253,6.575-8.029-.454-17.631-3.235-24.805-6.774-.099-.601.462-1.468.996-1.594,11.68,4.942,20.719,3.392,32.674,1.992Z"/>
    <path class="st10" d="M41.784,113.14c5.452.361,18.816,6.472,21.517,11.755-.828-.073-1.936-2.275-2.49-2.391-.252-.052-.694.4-.897.398-1.183-.009-2.217.062-3.387.199-3.611-3.959-9.95-5.02-14.843-6.774l-11.456-2.192c3.508-.102,8.568-1.194,11.556-.996Z"/>
    <path class="st35" d="M23.853,121.109c-.534.126-1.095.993-.996,1.594-1.354-.668-7.472-3.505-7.172-5.28.342-2.03,3.281,1.142,3.885,1.494,1.164.68,3.062,1.675,4.284,2.192Z"/>
    <path class="st73" d="M145.186,97.4c10.334,1.988-1.382,14.837-4.881,18.13-2.975,2.8-7.706,6.37-11.257,8.368-7.874,4.43-17.294,7.01-26.299,7.571-2.239.14-10.414.57-12.054-.398-.27-.16-.582-.539-.498-.897,13.867-6.605,23.505-20.792,36.46-28.192,5.167-2.951,12.493-5.743,18.529-4.582Z"/>
    <path class="st35" d="M126.259,97.6l.398,4.383c-12.955,7.399-22.593,21.587-36.46,28.192-.084.358.228.737.498.897,1.639.968,9.815.538,12.054.398l.1,4.184c5.19-.355,10.402-.9,15.341-2.59l.498,2.989c-13.403,3.29-26.757.693-39.448-3.985,3.55-1.896,7.348-3.282,10.858-5.18,13.772-7.448,22.42-21.784,36.161-29.287Z"/>
    <path class="st70" d="M129.048,123.898c3.551-1.998,8.282-5.568,11.257-8.368,3.499-3.293,15.215-16.142,4.881-18.13l.299-1.395c13.698,4.102,2.355,18.24-3.785,23.908-1.216,1.122-9.556,7.709-10.559,7.571l-2.092-3.586Z"/>
    <path class="st59" d="M139.607,91.224l-.398,1.992c-1.403.117-3.209.462-4.582.797.006-.274-.207-.19-.398-.199-4.885-.236-14.383-4.43-14.544-10.161,1.073-.312,2.051,1.547,2.889,2.192,4.455,3.429,11.411,5.373,17.034,5.379Z"/>
    <path class="st67" d="M109.722,32.849v-.199c.066.008.134-.007.199,0,.022.18-.055.175-.199.199Z"/>
    <path class="st67" d="M133.033,73.891v-.199c.065.008.134-.007.199,0,.03.22-.122.164-.199.199Z"/>
    <path class="st67" d="M134.627,94.013c-.177.043-.22.152-.398.199v-.398c.192.009.405-.075.398.199Z"/>
    <path class="st67" d="M26.044,83.653h-.199c.046-.032-.151-.241.199-.398v.398Z"/>
    <path class="st72" d="M105.538,141.032c-.895.796-.557,1.428-.598,2.59-6.165-.32-12.915-1.034-18.927-2.391-.696-.157-5.299-1.177-5.479-1.395-.102-.123.53-2.694.299-3.188,8.661,1.97,15.674,3.774,24.705,4.383Z"/>
    <path class="st74" d="M27.837,60.741c-8.845-.187-17.394,1.865-22.613,9.563-1.367-.906,4.692-6.073,5.479-6.575,3.066-1.956,7.35-3.285,10.958-3.586,1.117-.093,2.141-.274,3.287-.199.384.025,2.57.449,2.889.797Z"/>
    <path class="st2" d="M43.178,91.224c.65.957,1.162,1.734,1.195,2.989-3.187,3.394-7.429,5.07-11.954,5.977-3.886.779-8.006,1.041-11.954.598-.188-.021-.209-.174-.398-.199l-.398-6.774c7.914.817,16.101.515,23.51-2.59Z"/>
    <path class="st74" d="M24.45,84.849c-.103.054.344.332.1.398-1.179.32-4.625-.01-6.176.199-4.171.562-8.084,1.956-11.755,3.985,1.024-2.024,4.611-3.207,6.674-3.785,1.245-.349,2.497-.652,3.785-.797,2.475-.279,4.898-.269,7.372,0Z"/>
    <path class="st56" d="M141.002,74.688c.273.023,3.838.561,2.092.996-.552.138-4.744-.303-5.977-.199-2.916.245-5.98.895-8.766,1.793-.499.161-3.984,2.215-4.084,1.295-.047-.432,2.857-1.877,3.387-2.092,3.491-1.416,9.589-2.104,13.349-1.793Z"/>
    <path class="st60" d="M141.002,73.891v.797c-3.76-.311-9.858.377-13.349,1.793l-.199-.797c1.5-1.126,4.045-1.089,5.579-1.793.077-.036.23.021.199-.199,2.581.294,5.178.228,7.77.199Z"/>
    <path class="st56" d="M42.581,70.902c-.113,5.904-6.349,9.547-11.356,10.958-3.289.926-6.428,1.438-9.862,1.395l-.1-3.188c5.432-.142,13-2.474,17.234-5.977.913-.756,3.134-3.917,3.387-3.985.797-.212.279.675.697.797Z"/>
    <path class="st21" d="M132.435,59.148c8.024,3.068,16.562,5.456,25.203,3.586.193.145.09.931.1,1.195-9.345,7.33-22.097,7.965-32.475,2.391,2.208-2.364,4.47-4.714,6.575-7.172.14.055.456-.054.598,0Z"/>
    <path class="st50" d="M119.086,20.695l-.598,10.36c-6.486-.192-13.549-.985-19.923-2.192-1.406-.266-11.042-2.322-11.157-3.088.788-1.094,2.852-1.749,4.184-2.291,9.094-3.704,17.858-4.097,27.494-2.789Z"/>
    <path class="st2" d="M131.837,59.148c-2.105,2.458-4.366,4.808-6.575,7.172-1.074,1.15-2.466,2.112-3.188,3.586-6.787-3.894-12.235-11.874-4.383-17.931,4.36,2.566,8.539,4.443,13.249,6.375.055.023.698.72.897.797Z"/>
    <path class="st29" d="M129.646,48.787c.056.063-.108.483.1.598.128.071.813-.033,1.096,0l-9.264,2.192c1.096-1.784,5.924-2.722,8.069-2.789Z"/>
    <path class="st29" d="M133.232,48.389c.1.025,1.853.844,1.693,1.195-1.206-.435-2.63-.099-3.885-.199.136-.857-.369-.549-.996-.598,1.182-.262,2.024-.692,3.188-.398Z"/>
    <path class="st20" d="M119.684,39.623c-.289.93-.064.426.398.598l-6.973,2.69c1.532,1.097,3.392,1.253,5.18,1.494l-.398.797c-1.779-.293-4.028-1.191-5.678-1.395-.774-.096-.731-.419-.697.598-3.693-3.056,4.729-4.111,6.176-4.582.244-.08.477.124.398-.398.517.047,1.043.162,1.594.199Z"/>
    <path class="st85" d="M130.044,44.803c-3.91.034-7.873.125-11.755-.398-1.788-.241-3.648-.397-5.18-1.494l6.973-2.69c1.828.68,6.638-.325,7.87.199.042.018.327.532.199.598-4.826-.211-9.788.365-14.245,1.893.042,1.192,13.76,1.444,15.241,1.494.365.012.983-.201.897.398Z"/>
    <path class="st10" d="M91.592,23.485c-1.332.542-3.396,1.197-4.184,2.291.115.766,9.751,2.822,11.157,3.088.115.926-.412,1.863.598,2.192-6.466-1.113-11.874-2.346-18.13-4.184l9.165-5.579,1.395,2.192Z"/>
    <path class="st10" d="M121.477,34.443c2.839.003,18.69.468,20.123,1.893.371.369-.162.373-.199.697-9.017,1.408-22.14,2.624-30.981,0-.214-.064-3.117-1.005-2.192-1.594,1.761-1.122,10.771-.998,13.249-.996Z"/>
    <path class="st67" d="M118.09,39.423c.079.522-.154.319-.398.398v-.398c.13.013.269-.012.398,0Z"/>
    <path class="st41" d="M34.611,103.178l.398.398c-.072.016-1.022.988-1.096.996-3,.331-6.437.016-9.464.199-.92.056-1.872-.069-2.789,0-.283-.379-.78-.466-1.195-.598v-3.387c3.948.444,8.068.181,11.954-.598l.797,3.287c.288.306,1.071-.229,1.395-.299Z"/>
    <path class="st49" d="M117.891,45.201c3.647.6,7.257.898,10.958.996.185,1.915-.335.709-1.594,1.096l.897.299-8.866-.598c-1.986-.391-6.273-1.351-7.77-2.59-.034-1.016-.077-.693.697-.598,1.65.204,3.899,1.102,5.678,1.395Z"/>
    <path class="st90" d="M41.585,112.741c-5.529,1.151-13.441.863-19.126.598-.356-.493-.134-1.061-.199-1.594,5.141.374,10.523.305,15.64-.398,3.346-.46,7.491-1.236,10.261-3.188.938,2.471-4.833,4.22-6.575,4.582Z"/>
    <path class="st2" d="M22.06,110.55c-.167.456.165.912.199,1.195-2.935-.214-5.886-.607-8.766-1.195l.797-.797c2.525.602,5.184.706,7.77.797Z"/>
    <path class="st29" d="M47.163,107.163c-7.602,3.252-16.857,3.677-25.103,3.387-2.586-.091-5.245-.195-7.77-.797-.64-.153-3.462-.709-3.387-1.494.077-.178.379-.069.398-.1l13.149-3.387c3.027-.184,6.464.131,9.464-.199.074-.008,1.024-.98,1.096-.996,2.016-.451,10.531,2.131,12.153,3.586Z"/>
    <path class="st85" d="M21.661,104.772c.918-.069,1.869.056,2.789,0l-13.149,3.387c1.278-2.007,7.988-3.208,10.36-3.387Z"/>
    <path class="st11" d="M47.163,107.163c.331.297.826.549.996.996-2.769,1.952-6.915,2.728-10.261,3.188-5.117.703-10.498.773-15.64.398-.035-.283-.366-.74-.199-1.195,8.246.29,17.502-.135,25.103-3.387Z"/>
    <path class="st37" d="M44.374,94.213c.125,4.668-5.816,8.117-9.762,8.966-.323.07-1.107.605-1.395.299l-.797-3.287c4.525-.907,8.767-2.583,11.954-5.977Z"/>
  </g>
</svg>