<?xml version="1.0" encoding="UTF-8"?>
<svg id="Layer_1" xmlns="http://www.w3.org/2000/svg" version="1.1" xmlns:xlink="http://www.w3.org/1999/xlink" viewBox="0 0 160 160">
  <!-- Generator: Adobe Illustrator 29.8.2, SVG Export Plug-In . SVG Version: 2.1.1 Build 3)  -->
  <defs>
    <style>
      .st0 {
        fill: #a30518;
      }

      .st1 {
        fill: url(#linear-gradient2);
      }

      .st2 {
        fill: #4b6d99;
      }

      .st3 {
        fill: #2f5485;
      }

      .st4 {
        fill: #51b5d7;
      }

      .st5 {
        fill: #228bb5;
      }

      .st6 {
        fill: #3a3e40;
      }

      .st7 {
        fill: url(#linear-gradient10);
      }

      .st8 {
        fill: #a20505;
      }

      .st9 {
        fill: #666766;
      }

      .st10 {
        fill: #d62d2d;
      }

      .st11 {
        fill: #737778;
      }

      .st12 {
        fill: #bbe7f1;
      }

      .st13 {
        fill: #7695b4;
      }

      .st14 {
        fill: url(#linear-gradient21);
      }

      .st15 {
        fill: #436c96;
      }

      .st16 {
        fill: #31496f;
      }

      .st17 {
        fill: #7ed2ea;
      }

      .st18 {
        fill: url(#linear-gradient1);
      }

      .st19 {
        fill: url(#linear-gradient9);
      }

      .st20 {
        fill: #fa4949;
      }

      .st21 {
        fill: url(#linear-gradient18);
      }

      .st22 {
        fill: #666769;
      }

      .st23 {
        fill: #78d5e2;
      }

      .st24 {
        fill: #d40f22;
      }

      .st25 {
        fill: #b7cdd6;
      }

      .st26 {
        fill: url(#linear-gradient23);
      }

      .st27 {
        fill: #989c9b;
      }

      .st28 {
        fill: #bbbdc0;
      }

      .st29 {
        fill: #41acc5;
      }

      .st30 {
        fill: url(#linear-gradient8);
      }

      .st31 {
        fill: #1d2022;
      }

      .st32 {
        fill: url(#linear-gradient11);
      }

      .st33 {
        fill: #6191c1;
      }

      .st34 {
        fill: url(#linear-gradient16);
      }

      .st35 {
        fill: #747675;
      }

      .st36 {
        fill: url(#linear-gradient24);
      }

      .st37 {
        fill: #5d99b5;
      }

      .st38 {
        fill: #ba081a;
      }

      .st39 {
        fill: #2e9bbe;
      }

      .st40 {
        fill: url(#linear-gradient22);
      }

      .st41 {
        fill: #a2e6ea;
      }

      .st42 {
        fill: #11c9e7;
      }

      .st43 {
        fill: url(#linear-gradient19);
      }

      .st44 {
        fill: url(#linear-gradient12);
      }

      .st45 {
        fill: #0c1f4b;
      }

      .st46 {
        fill: #4079a1;
      }

      .st47 {
        fill: #243960;
      }

      .st48 {
        fill: url(#linear-gradient7);
      }

      .st49 {
        fill: #3787a6;
      }

      .st50 {
        fill: #5ba8ba;
      }

      .st51 {
        fill: url(#linear-gradient20);
      }

      .st52 {
        fill: url(#linear-gradient4);
      }

      .st53 {
        fill: #97d0e8;
      }

      .st54 {
        fill: #21618a;
      }

      .st55 {
        fill: #8a8c8a;
      }

      .st56 {
        fill: #c3dcdd;
      }

      .st57 {
        fill: #135e8d;
      }

      .st58 {
        fill: url(#linear-gradient14);
      }

      .st59 {
        fill: url(#linear-gradient5);
      }

      .st60 {
        fill: #b2d2d8;
      }

      .st61 {
        fill: #dfe1e2;
      }

      .st62 {
        fill: #87d8e0;
      }

      .st63 {
        fill: url(#linear-gradient3);
      }

      .st64 {
        fill: #2ea2cc;
      }

      .st65 {
        fill: #be1c1c;
      }

      .st66 {
        fill: #eb1528;
      }

      .st67 {
        fill: url(#linear-gradient25);
      }

      .st68 {
        fill: #c60a1d;
      }

      .st69 {
        fill: #094475;
      }

      .st70 {
        fill: #f81a2b;
      }

      .st71 {
        fill: url(#linear-gradient15);
      }

      .st72 {
        fill: #50c0d7;
      }

      .st73 {
        fill: #0e3865;
      }

      .st74 {
        fill: url(#linear-gradient17);
      }

      .st75 {
        fill: #bbeaf3;
      }

      .st76 {
        fill: #a6ddee;
      }

      .st77 {
        fill: #76b0bd;
      }

      .st78 {
        fill: #1188b7;
      }

      .st79 {
        fill: #393939;
      }

      .st80 {
        fill: #5c7fa8;
      }

      .st81 {
        fill: url(#linear-gradient6);
      }

      .st82 {
        fill: #9eb7ce;
      }

      .st83 {
        fill: #545555;
      }

      .st84 {
        fill: #f34343;
      }

      .st85 {
        fill: #5984aa;
      }

      .st86 {
        fill: url(#linear-gradient13);
      }

      .st87 {
        fill: #2280b7;
      }

      .st88 {
        fill: url(#linear-gradient);
      }

      .st89 {
        fill: #0c0b0c;
      }

      .st90 {
        fill: #88c5d0;
      }

      .st91 {
        fill: #5fbecc;
      }

      .st92 {
        fill: #136b96;
      }

      .st93 {
        fill: #095593;
      }

      .st94 {
        fill: #a3cbe1;
      }

      .st95 {
        fill: #101315;
      }
    </style>
    <linearGradient id="linear-gradient" x1="156.178" y1="116.166" x2="78.6" y2="129.615" gradientUnits="userSpaceOnUse">
      <stop offset=".313" stop-color="#101012"/>
      <stop offset="1" stop-color="#44464a"/>
    </linearGradient>
    <linearGradient id="linear-gradient1" x1="72.479" y1="-2.218" x2="54.797" y2="64.47" gradientUnits="userSpaceOnUse">
      <stop offset="0" stop-color="#191a1c"/>
      <stop offset=".522" stop-color="#343638"/>
      <stop offset="1" stop-color="#1d1e21"/>
    </linearGradient>
    <linearGradient id="linear-gradient2" x1="65.32" y1="10.431" x2="20.283" y2="55.374" gradientUnits="userSpaceOnUse">
      <stop offset=".272" stop-color="#686a6d"/>
      <stop offset="1" stop-color="#414447"/>
    </linearGradient>
    <linearGradient id="linear-gradient3" x1="36.316" y1="140.493" x2="123.084" y2="151.667" gradientUnits="userSpaceOnUse">
      <stop offset="0" stop-color="#4e5056"/>
      <stop offset=".534" stop-color="#8a8b8f"/>
      <stop offset="1" stop-color="#a1a2a6"/>
    </linearGradient>
    <linearGradient id="linear-gradient4" x1="150.156" y1="112.928" x2="92.209" y2="116.513" gradientUnits="userSpaceOnUse">
      <stop offset="0" stop-color="#1e1e21"/>
      <stop offset="1" stop-color="#5e5f62"/>
    </linearGradient>
    <linearGradient id="linear-gradient5" x1="115.121" y1="16.39" x2="8.522" y2="33.451" gradientUnits="userSpaceOnUse">
      <stop offset="0" stop-color="#060406"/>
      <stop offset="1" stop-color="#444445"/>
    </linearGradient>
    <linearGradient id="linear-gradient6" x1="30.477" y1="134.304" x2="109.329" y2="140.9" gradientUnits="userSpaceOnUse">
      <stop offset=".07" stop-color="#717273"/>
      <stop offset=".377" stop-color="#39393a"/>
      <stop offset="1" stop-color="#0f0e0f"/>
    </linearGradient>
    <linearGradient id="linear-gradient7" x1="59.277" y1="116.115" x2="17.581" y2="124.577" gradientUnits="userSpaceOnUse">
      <stop offset="0" stop-color="#d0d0d0"/>
      <stop offset="1" stop-color="#a7a7a8"/>
    </linearGradient>
    <linearGradient id="linear-gradient8" x1="109.765" y1="19.021" x2="129.055" y2="22.931" gradientUnits="userSpaceOnUse">
      <stop offset="0" stop-color="#777"/>
      <stop offset="1" stop-color="#626263"/>
    </linearGradient>
    <linearGradient id="linear-gradient9" x1="153.698" y1="116.518" x2="86.748" y2="122.297" gradientUnits="userSpaceOnUse">
      <stop offset="0" stop-color="#1666ac"/>
      <stop offset="1" stop-color="#069ebb"/>
    </linearGradient>
    <linearGradient id="linear-gradient10" x1="84.23" y1="20.622" x2="127.566" y2="29.981" gradientUnits="userSpaceOnUse">
      <stop offset="0" stop-color="#b2b2b2"/>
      <stop offset="1" stop-color="gray"/>
    </linearGradient>
    <linearGradient id="linear-gradient11" x1="137.092" y1="75.187" x2="141.517" y2="86.905" gradientUnits="userSpaceOnUse">
      <stop offset="0" stop-color="#bbe8f3"/>
      <stop offset="1" stop-color="#86d5ec"/>
    </linearGradient>
    <linearGradient id="linear-gradient12" x1="8.045" y1="88.347" x2="38.889" y2="93.139" gradientUnits="userSpaceOnUse">
      <stop offset="0" stop-color="#ccedf6"/>
      <stop offset="1" stop-color="#92d9ed"/>
    </linearGradient>
    <linearGradient id="linear-gradient13" x1="119.6" y1="56.241" x2="152.334" y2="60.446" gradientUnits="userSpaceOnUse">
      <stop offset="0" stop-color="#c9ecf6"/>
      <stop offset="1" stop-color="#97daee"/>
    </linearGradient>
    <linearGradient id="linear-gradient14" x1="7.376" y1="66.998" x2="36.524" y2="71.02" gradientUnits="userSpaceOnUse">
      <stop offset="0" stop-color="#d3f0f7"/>
      <stop offset="1" stop-color="#96dbef"/>
    </linearGradient>
    <linearGradient id="linear-gradient15" x1="132.388" y1="58.045" x2="149.167" y2="72.066" gradientUnits="userSpaceOnUse">
      <stop offset="0" stop-color="#2993ba"/>
      <stop offset="1" stop-color="#25689b"/>
    </linearGradient>
    <linearGradient id="linear-gradient16" x1="93.915" y1="150.867" x2="72.257" y2="151.491" gradientUnits="userSpaceOnUse">
      <stop offset="0" stop-color="#4ac1ce"/>
      <stop offset="1" stop-color="#8fdcdd"/>
    </linearGradient>
    <linearGradient id="linear-gradient17" x1="52.699" y1="147.578" x2="69.149" y2="150.447" gradientUnits="userSpaceOnUse">
      <stop offset="0" stop-color="#12597f"/>
      <stop offset="1" stop-color="#1b88a9"/>
    </linearGradient>
    <linearGradient id="linear-gradient18" x1="102.507" y1="105.71" x2="142.821" y2="119.291" gradientUnits="userSpaceOnUse">
      <stop offset="0" stop-color="#757675"/>
      <stop offset="1" stop-color="#555"/>
    </linearGradient>
    <linearGradient id="linear-gradient19" x1="15.142" y1="69.736" x2="36.974" y2="72.935" gradientUnits="userSpaceOnUse">
      <stop offset="0" stop-color="#4cc0d2"/>
      <stop offset="1" stop-color="#379dcd"/>
    </linearGradient>
    <linearGradient id="linear-gradient20" x1="14.808" y1="93.224" x2="38.656" y2="93.787" gradientUnits="userSpaceOnUse">
      <stop offset="0" stop-color="#47bad0"/>
      <stop offset="1" stop-color="#3792c8"/>
    </linearGradient>
    <linearGradient id="linear-gradient21" x1="39.227" y1="106.29" x2="27.774" y2="109.618" gradientUnits="userSpaceOnUse">
      <stop offset="0" stop-color="#949594"/>
      <stop offset="1" stop-color="#7e7f7e"/>
    </linearGradient>
    <linearGradient id="linear-gradient22" x1="56.003" y1="116.909" x2="43.163" y2="121.732" gradientUnits="userSpaceOnUse">
      <stop offset="0" stop-color="#777877"/>
      <stop offset="1" stop-color="#616161"/>
    </linearGradient>
    <linearGradient id="linear-gradient23" x1="47.234" y1="117.959" x2="27.012" y2="119.444" gradientUnits="userSpaceOnUse">
      <stop offset="0" stop-color="#8c8d8c"/>
      <stop offset="1" stop-color="#50504f"/>
    </linearGradient>
    <linearGradient id="linear-gradient24" x1="151.959" y1="82.708" x2="131.364" y2="84.512" gradientUnits="userSpaceOnUse">
      <stop offset="0" stop-color="#313030"/>
      <stop offset="1" stop-color="#515251"/>
    </linearGradient>
    <linearGradient id="linear-gradient25" x1="82.243" y1="133.377" x2="107.187" y2="153.111" gradientUnits="userSpaceOnUse">
      <stop offset="0" stop-color="#53b8c8"/>
      <stop offset="1" stop-color="#397aae"/>
    </linearGradient>
  </defs>
  <path class="st84" d="M137.84,79.065c5.697,6.123-4.772,11.118-10.072,11.661-6.312,1.137-14.569-2.218-16.829-5.892-3.079-5.385,4.244-8.352,8.787-9.453,5.64-1.477,14.063-.122,17.963,3.541l.15.143Z"/>
  <path class="st10" d="M137.697,71.597c-4.603,4.477-14.828,4.773-21.156,2.405-7.386-2.13-15.297-10.434-7.038-16.311,7.796-5.262,20.826-2.278,27.009,3.352,3.102,2.628,4.571,7.301,1.33,10.407l-.146.147Z"/>
  <path class="st65" d="M133.576,52.846c-2.723,2.415-11.315,2.955-16.131,2.66-2.333-.054-18.812-1.726-13.143-5.101,7.267-3.1,18.568-2.38,25.328-.556,1.291.447,4.866,1.181,4.012,2.911l-.067.086Z"/>
  <path class="st20" d="M138.081,94.561c3.595,5.372-.758,12.245-4.453,16.654-9.04,11.257-26.282,17.478-41.473,16.914-5.587-.289-14.554-.423-18.424-3.405-2.423-2.738,13.743-8.321,16.075-10.417,10.267-6.036,15.824-16.051,25.833-21.239,6.671-3.653,17.089-5.153,22.328,1.335l.114.159Z"/>
  <path class="st38" d="M128.287,45.082c4.365,2.431-5.142,3.643-6.828,3.834-5.138.682-12.434.29-17.006-.586-13.066-2.686-.614-5.293,5.555-5.349,5.302-.255,14.078.249,18.115,2.022l.164.078Z"/>
  <path class="st8" d="M126.543,40.842c-6.155,5.992-21.352,2.95-30.596,1.772-5.469-.769-22.381-3.548-21.804-8.173,3.29-5.172,22.475-5.312,28.833-4.655,5.984.366,25.527,4.6,23.631,10.948l-.064.107Z"/>
  <path class="st70" d="M110.272,25.408c10.774,4.857-9.476,4.907-12.983,5.769-5.117.617-10.239,1.68-15.016,3.557-5.306,2.047-10.223,5.006-14.622,8.599-6.159,5.038-10.828,10.792-17.27,14.833-6.942,4.348-17.184,8.31-24.623,3.546-7.625-5.57.271-14.933,4.851-20.118,18.213-20.792,53.241-27.11,79.479-16.269l.183.083Z"/>
  <path class="st0" d="M71.268,120.848c8.743,2.112,19.887,5.561,29.8,5.562,2.54.413,16.453-.789,15.363,2.083-.371.661-1.108,1.214-1.858,1.714-3.549,2.338-12.173,6.035-20.413,7.81-10.057,2.155-20.463,1.911-30.86-.568-31.522-8.548-18.339-23.8,7.686-16.667l.282.067Z"/>
  <path class="st8" d="M72.095,37.296c-.071.065-.622.634-.557.54.009-.046.513-.551.554-.557l.003.017Z"/>
  <path class="st8" d="M70.577,38.816c.048-.065.903-.92.85-.836.01.039-.704.761-.827.832l-.023.004Z"/>
  <path class="st38" d="M68.18,116.873c-1.224,10.121-43.137-1.708-39.204-9.479,6.84-7.182,39.022-1.409,39.232,9.329l-.028.15Z"/>
  <path class="st68" d="M54.509,100.028c5.155,3.192-5.043,5.266-7.449,5.699-5.287,1.013-12.42.328-16.761-.799-11.643-3.163-.43-6.63,5.585-7.216,5.347-.781,14.348.147,18.456,2.225l.169.091Z"/>
  <path class="st66" d="M25.102,67.458c6.916-4.856,19.508-5.482,25.117,1.612,5.305,7.953-6.659,14.099-15.532,13.72-8.677.206-20.297-7.645-9.792-15.189l.207-.144Z"/>
  <path class="st24" d="M50.115,86.417c8.181,5.984-3.459,12.404-9.538,12.373-6.828.926-18.569-3.572-19.704-8.299-.948-4.695,4.894-6.421,8.766-7.392,6.142-1.496,15.41-.133,20.277,3.182l.199.137Z"/>
  <g id="Generative_Object">
    <path class="st88" d="M152.233,99.478c2.259,1.964,3.722,4.462,4.971,7.158-1.305,14.783-26.028,31.002-39.368,33.602-.064.012-.135-.011-.199,0-10.968,1.948-30.968-1.603-41.853-4.971-.425-.131-1.623-.453-1.69-.994,1.58-.681,4.708-2.841,6.561-2.982,1.12-.085,3.514.641,4.772.795,4.944.605,9.901,1.522,14.912,1.392,15.014.487,30.732-4.34,42.052-14.316,4.951-4.363,11.852-12.242,9.444-19.286.079-.248-.121-.475.398-.398Z"/>
    <path class="st95" d="M114.058,14.976c-.257.033-.538-.033-.795,0-14.43,1.827-23.674,2.101-36.982,8.947-18.645,9.592-31.227,31.193-52.093,34.596-1.86.303-4.081.499-5.965.398-4.554-.244-11.234-2.652-12.526-7.555,8.193,8.296,20.856,4.968,29.924,0,12.479-6.837,21.098-19.215,33.204-26.643,11.319-6.945,24.131-9.638,37.181-11.333,5.537-.719,11.802-.193,17-2.386,1.838,3.127-7.127,3.743-8.947,3.977Z"/>
    <path class="st4" d="M140.701,26.906c-.821.149-1.27,1.178-1.889,1.591-7.834,5.229-31.379,1.882-40.859.398-2.783-.436-14.575-2.267-16.204-3.778-.258-.239-.284-.459-.497-.696-.05-1.231,7.216-3.841,8.55-3.479-1.767,3.197,7.715,4.276,9.643,4.573,6.78,1.045,23.626,2.365,29.625-.199,6.733-2.878-4.039-5.646-6.362-6.164l-12.626-1.789c3.358-.223,7.19-.018,10.438-.398.109-.013,1.073-.237.895-.596,4.769,1.01,18.562,4.865,19.286,10.538Z"/>
    <path class="st87" d="M41.684,112.999c6.316,1.355,23.74,6.434,22.468,15.111-.401-1.161-2.207,1.079-3.281,1.591-7.601,3.62-21.077.366-28.83-2.187-6.773-2.231-14.542-5.569-18.988-11.333.236-1.822,2.616-2.692,4.175-2.982l10.339.994c-2.44.188-9.47.345-7.158,4.474,2.122,3.79,21.799,8.364,26.345,8.649,3.133.196,16.208-.239,9.345-5.766-4.776-3.846-14.684-6.141-20.579-7.754,1.907-.239,3.902-.713,5.766-1.193-.066.492.101.334.398.398Z"/>
    <path class="st50" d="M157.8,61.502l-4.871,4.573c-.543-.473-2.349-5.194-3.38-3.977-.943,1.114,4.645,5.132,0,5.965-.452-.09-2.121-5.442-3.579-5.368-.913.232,2.518,5.292,2.287,5.865-7.442,3.167-17.267,3.172-24.655-.099-.888-.393-1.771-1.056-2.585-1.591-.077-.344.021-.271.199-.398,1.231-.875,1.95-3.889,2.585-5.368,5.901,1.632,15.483,1.417,21.573.596,3.643-.491,8.379-1.153,10.24-4.573.969,1.306,1.994,2.697,2.187,4.374Z"/>
    <path class="st15" d="M42.877,71.443c-.627,6.72-10.486,11.217-16.304,11.93-.193.024-.402-.02-.596,0-2.822.289-5.554.009-8.351.199l-5.667-1.591c-3.831-1.731-8.427-4.167-9.245-8.748,1.881.467.624-2.354,1.789-.199.727,1.344,1.686,2.268,2.883,3.181.17,0,1.865-2.391,1.491-2.982.453.116.928.112,1.392.199l-2.187,3.281c7.547,5.035,18.711,5.229,26.643.795l-2.187-4.672c.175-.054.674-.282.994-.398,1.092.535,1.904,4.488,2.684,4.374,3.057-.447-.504-3.915-.895-5.368.611-.295,1.064-.33,1.193-.398l2.684,3.579c.164-.233,1.295-1.201,1.292-1.292-.008-.243-1.843-3.062-1.988-3.479-.067-.192-.249-.627-.099-.795.635-.986,2.054,3.737,2.585,3.977l1.889-1.591Z"/>
    <path class="st5" d="M113.263,14.976c.049.329.54.19.795.199,1.917.065,5.394.777,7.357,1.193.178.359-.785.584-.895.596-3.248.38-7.081.175-10.438.398-4.728.314-11.063.588-15.608,1.591-1.007.222-4.2,1.134-4.672,1.988-1.333-.361-8.6,2.248-8.55,3.479.213.237.239.457.497.696,1.629,1.511,13.422,3.342,16.204,3.778l.298,1.591,14.216,1.988c-1.179-.02-2.43-.347-3.579-.199-8.071-1.344-16.431-1.872-24.356-3.977-2.537-.674-7.402-1.676-8.251-4.374,13.308-6.846,22.552-7.12,36.982-8.947Z"/>
    <path class="st39" d="M157.8,61.502c.832,7.203-7.825,10.955-13.719,11.93-.393.065-.8.034-1.193.199-.393-.024-.799.022-1.193,0-3.003-.167-5.456.24-8.748-.199-5.697-.76-12.592-3.207-16.105-7.953,1.705,1.892,3.962,3.185,6.064,4.573l.696-1.591c7.388,3.272,17.212,3.267,24.655.099.231-.574-3.2-5.633-2.287-5.865,1.458-.074,3.127,5.279,3.579,5.368,4.645-.833-.943-4.851,0-5.965,1.031-1.218,2.838,3.504,3.38,3.977l4.871-4.573Z"/>
    <path class="st54" d="M64.152,128.109c-.171,1.167-1.575,2.939-2.585,3.579-2.845,1.803-8.546,1.8-11.83,1.591-2.235-.143-6.11-1.348-8.053-1.193.021-.173-.05-.181-.199-.199-6.611-.785-23.412-6.456-27.239-12.029-.727-1.059-1.361-2.382-1.193-3.678,4.446,5.764,12.215,9.103,18.988,11.333,7.753,2.553,21.229,5.808,28.83,2.187,1.073-.511,2.88-2.752,3.281-1.591Z"/>
    <path class="st90" d="M142.888,73.631c.178.011.809.161,1.193.199,3.579.356,6.947,1.666,9.743,3.977.419,1.013,1.57,1.773,2.187,2.585.936,2.134,1.331,3.815-1.292,4.573-.148-.341-1.499-1.96-1.491-2.088.006-.095,1.229-1.096.895-1.69l-4.275,3.778c-.81-.6-2.194.536-3.281.795-4.218,1.007-8.664,1.54-13.023,1.392l.199-2.187c4.31.393,11.145-.533,14.813-2.982,6.393-4.269-3.722-6.201-7.058-6.561l.199-1.789c.394.022.8-.024,1.193,0Z"/>
    <path class="st39" d="M25.977,83.373c-.079.587.286.332.596.398,3.145.661,5.267.681,8.55,1.789l-1.392.596c-5.707-1.641-18.144-1.468-23.561.994-6.069,2.758,2.194,6.443,5.07,7.158l-.398,2.187c-1.153-.195-3.059-.645-4.175-.994-.326-.102-.672-.277-.994-.398-.467-.175-1.405-.357-1.789-.596-.105-.065-.295-.132-.398-.199-.086-.056-.774-1.232-1.292-1.591-.745-.515-1.43-.356-1.988-.994-.206.768.029,1.639-1.292,2.187-1.835-7.351,9.4-9.979,14.713-10.339,2.797-.19,5.529.09,8.351-.199Z"/>
    <path class="st93" d="M41.684,112.601c-.112.029-.285-.029-.398,0-1.864.48-3.859.954-5.766,1.193-2.881.361-5.161.183-7.953.398l-10.339-.994c.41-.369-.335-.56-.497-.596-1.998-.448-8.817-1.31-8.251-4.374,9.672,3.622,21.927,4.656,32.111,2.585,1.044-.212,7.49-1.808,7.257-3.082l-2.386-1.889c7.021,3.352.051,5.75-3.778,6.76Z"/>
    <path class="st39" d="M140.701,26.906c.384,3.006-3.093,4.46-5.567,5.17-.107.031-.286-.029-.398,0-7.347,1.908-14.827.524-22.269.398l-14.216-1.988-.298-1.591c9.48,1.484,33.026,4.831,40.859-.398.618-.413,1.068-1.442,1.889-1.591Z"/>
    <path class="st93" d="M36.913,99.876l.895,1.591c.437-.314.787-.58,1.292-.795-.789.964-2.767,1.941-3.977,2.386-.175.064-.415.14-.596.199-5.26,1.705-10.415,1.464-15.707.398-.121-.024-.278.026-.398,0-3.376-.735-6.835-1.909-9.743-3.778l1.193-1.591c5.34,4.511,20.869,4.593,27.041,1.591Z"/>
    <path class="st4" d="M138.713,38.836c-.186.033-.213.169-.398.199-7.49,1.215-14.625-.417-21.473.199-2.01-.377-13.738-1.317-13.52-3.977,8.6,2.174,17.824,3.296,26.742,2.982,1.768-.062,13.708-1.063,14.017-2.485.076-.348-.545-.57-.596-.895,3.331,2.829-2.849,3.635-4.772,3.977Z"/>
    <path class="st4" d="M150.046,43.409c.027.182.042.77,0,.895-.69,2.033-9.728,3.306-11.731,3.479-.13.011-.267-.01-.398,0-4.721.362-9.175-.45-13.719.596.087-.302.795-.281.994-.398.221-.129.336-.148,0-.199-3.402-.579-7.338-.794-10.637-1.789-1.304-.394-4.437-1.405-4.871-2.784,10.097,3.079,21.35,4.15,31.912,2.784,2.912-.377,5.944-1.027,8.45-2.585Z"/>
    <path class="st22" d="M145.87,93.315c.022.003-.074.114.398.199,7.135,1.276,11.614,5.442,10.936,13.123-1.249-2.696-2.712-5.193-4.971-7.158-2.571-2.236-4.736-3.045-8.152-3.38.031-.839-.08-2.319.596-2.784.384.036.821-.055,1.193,0Z"/>
    <path class="st87" d="M7.486,94.309c-1.053,1.032-2.013,2.366-1.193,3.778-1.355-.698-3.018-2.724-3.38-4.175,1.321-.548,1.086-1.419,1.292-2.187.558.639,1.243.479,1.988.994.518.358,1.206,1.535,1.292,1.591Z"/>
    <path class="st15" d="M7.884,94.508c-.543.736-1.233,2.766.298,2.784.747.008.967-1.849,1.491-2.187.322.121.668.296.994.398l-1.392,2.088c-.026.383.377.51.596.696l-1.193,1.591c-.764-.491-1.914-.976-2.386-1.789-.82-1.412.14-2.746,1.193-3.778.102.066.293.134.398.199Z"/>
    <path class="st39" d="M5.697,71.841c-.299.632-1.19.409-1.193,1.193-1.165-2.155.092.665-1.789.199-.431-2.414-.092-3.614,1.193-5.567-.174.602.378,3.042.895,3.181.113.03,1.746-.804.895.994Z"/>
    <path class="st85" d="M156.011,80.391c-.618-.812-1.768-1.572-2.187-2.585,1.436,1.187,1.405.802,2.187,2.585Z"/>
    <path class="st61" d="M144.081,73.432v.398c-.384-.038-1.015-.188-1.193-.199.393-.165.8-.134,1.193-.199Z"/>
    <path class="st61" d="M114.058,14.976v.199c-.255-.009-.746.13-.795-.199.257-.033.539.033.795,0Z"/>
    <path class="st61" d="M138.713,39.233c-.183-.02-.404.083-.398-.199.185-.03.211-.166.398-.199v.398Z"/>
    <path class="st61" d="M138.315,47.783v.199c-.132-.045-.409.107-.398-.199.13-.01.268.011.398,0Z"/>
    <path class="st61" d="M117.836,140.636c-.279-.07-.217-.18-.199-.398.064-.011.135.012.199,0v.398Z"/>
    <path class="st61" d="M41.684,132.086c-.014.001.074.153-.199.199v-.398c.149.018.22.026.199.199Z"/>
    <g>
      <path class="st18" d="M123.005,11c-5.198,2.193-11.463,1.667-17,2.386-13.05,1.695-25.862,4.389-37.181,11.333-12.106,7.428-20.725,19.806-33.204,26.643-9.068,4.968-21.731,8.296-29.924,0-2.565-9.733,10.819-23.496,17.795-29.228C46.331,3.37,78.962-2.2,107.397,4.637c2.696.648,14.397,4.303,15.608,6.362Z"/>
      <path class="st1" d="M86.123,4.24c2.579-.083,5.173.062,7.754,0l-.199.398C60.244,6.949,33.183,27.705,12.357,52.356c-3.9-4.474.321-10.256,3.281-14.017C32.496,16.913,59.107,5.112,86.123,4.24Z"/>
    </g>
    <path class="st61" d="M76.281,23.924c.85,2.698,5.715,3.701,8.251,4.374,7.925,2.104,16.285,2.632,24.356,3.977-.9.116-5.482,1.937-5.567,2.982-.218,2.659,11.511,3.6,13.52,3.977-1.724.155-7.892,1.644-7.158,3.977.434,1.379,3.567,2.39,4.871,2.784,3.3.996,7.235,1.211,10.637,1.789v.199c-.2.117-.907.095-.994.398-1.983.457-2.958.787-4.772,1.789-6.39,3.531-7.46,9.899-2.585,15.31,3.513,4.746,10.408,7.193,16.105,7.953l-6.86,2.386c-1.576,1.009-3.232,1.692-4.474,3.181-6.549,7.854,6.005,14.435,12.725,14.713v.199c-17.051,3.245-28.566,24.197-43.643,32.21l-10.041,5.17c-1.854.141-4.981,2.302-6.561,2.982-.19.082-.656.394-.696.398-.418.038-7.006-1.714-8.152-1.988-1.167-.279-2.258-1.055-3.678-.994,1.01-.64,2.414-2.412,2.585-3.579,1.272-8.677-16.152-13.756-22.468-15.111v-.398c3.829-1.01,10.798-3.408,3.778-6.76-2.149-1.026-8.079-2.761-10.339-2.386v-.398c1.21-.445,3.188-1.422,3.977-2.386,3.503-1.491,6.174-4.995,4.971-8.748-.291-.909-.33-.566-.596-.994-.763-1.226-.726-1.1-1.789-1.988-2.041-1.706-4.057-2.535-6.561-3.38-3.283-1.108-5.404-1.128-8.55-1.789v-.398c5.818-.713,15.677-5.21,16.304-11.93.589-6.308-6.623-10.956-12.029-12.129-1.95-.423-4.757.012-6.661-.795,20.866-3.403,33.448-25.004,52.093-34.596Z"/>
    <g>
      <path class="st63" d="M61.567,131.688c1.42-.061,2.511.715,3.678.994,1.146.274,7.734,2.026,8.152,1.988.04-.004.506-.316.696-.398.067.541,1.265.863,1.69.994,10.885,3.367,30.885,6.918,41.853,4.971-.019.218-.08.327.199.398,1.7.429,13.212-.594,8.848,3.778-7.06,7.072-33.95,12.991-43.941,13.321-11.238.372-42.234-3.932-47.818-15.21-2.479-5.007,1.786-9.438,6.561-10.24.272-.046.185-.198.199-.199,1.942-.155,5.817,1.05,8.053,1.193,3.285.21,8.986.213,11.83-1.591Z"/>
      <path class="st28" d="M51.725,136.659c19.819-.752,36.749,7.372,56.268,8.351,3.394.17,6.856-.213,10.24.099-10.411,1.221-20.918.272-31.117-1.889-4.862-1.03-9.64-2.808-14.514-3.778-11.076-2.203-22.618-2.683-33.801-.994l5.766-1.193c2.388-.014,4.782-.506,7.158-.596Z"/>
    </g>
    <path class="st52" d="M144.081,96.098c3.416.335,5.581,1.144,8.152,3.38-.519-.078-.319.149-.398.398-.47,1.486-.364,3.28-.994,5.07-5.444,15.453-35.271,28.136-50.502,28.532-5.011.13-9.968-.786-14.912-1.392.435-1.215,2.834-1.324,4.076-1.789,19.521-7.321,33.423-36.271,54.578-34.198Z"/>
    <path class="st11" d="M144.677,93.315c-.676.464-.566,1.945-.596,2.784-21.155-2.072-35.057,26.877-54.578,34.198-1.242.466-3.641.575-4.076,1.789-1.258-.154-3.652-.88-4.772-.795l10.041-5.17c15.077-8.013,26.592-28.965,43.643-32.21.217-.041.576.136.596-.199.565.002,1.087-.19,1.392-.199,3.058-.091,5.096-.502,8.351-.199Z"/>
    <path class="st22" d="M100.339,133.478c15.232-.396,45.058-13.079,50.502-28.532.631-1.79.525-3.584.994-5.07,2.407,7.044-4.493,14.923-9.444,19.286-11.32,9.975-27.038,14.803-42.052,14.316Z"/>
    <path class="st90" d="M110.081,17.362l12.626,1.789c2.323.518,13.096,3.286,6.362,6.164-5.999,2.564-22.845,1.243-29.625.199-1.928-.297-11.41-1.376-9.643-4.573.472-.855,3.666-1.766,4.672-1.988,4.545-1.003,10.88-1.277,15.608-1.591Z"/>
    <path class="st60" d="M35.521,113.794c5.895,1.613,15.803,3.908,20.579,7.754,6.864,5.527-6.212,5.962-9.345,5.766-4.545-.285-24.222-4.859-26.345-8.649-2.312-4.128,4.718-4.286,7.158-4.474,2.792-.215,5.072-.036,7.953-.398Z"/>
    <path class="st61" d="M41.684,112.601v.398c-.297-.064-.464.094-.398-.398.113-.029.286.029.398,0Z"/>
    <g>
      <path class="st50" d="M24.188,58.52c1.903.807,4.711.372,6.661.795,5.406,1.173,12.618,5.82,12.029,12.129l-1.889,1.591c-.531-.239-1.95-4.962-2.585-3.977-.149.168.032.603.099.795-.815.122-1.308.838-1.988,1.193-.129.067-.582.102-1.193.398-.501.242-1.283.81-1.789.994-.32.116-.82.343-.994.398-6.111,1.9-16.01,1.766-22.269.596-.464-.087-.939-.083-1.392-.199-1.123-.288-2.323-.527-3.181-1.392.851-1.798-.782-.964-.895-.994-.516-.139-1.069-2.58-.895-3.181,2.916-4.433,9.521-7.343,14.614-8.152l-.298-.596c1.884.101,4.105-.094,5.965-.398Z"/>
      <path class="st60" d="M21.901,60.707c1.366-.095,3.63-.13,4.971,0,1.839.178,10.072,2.371,8.45,5.269-.966,1.727-12.921,3.933-15.21,4.076-2.375.149-12.292.377-11.631-3.678.501-3.077,10.761-5.481,13.421-5.667Z"/>
    </g>
    <path class="st5" d="M32.538,72.835l2.187,4.672c-7.932,4.434-19.096,4.239-26.643-.795l2.187-3.281c6.258,1.17,16.158,1.303,22.269-.596Z"/>
    <path class="st39" d="M8.878,73.233c.374.591-1.322,2.982-1.491,2.982-1.197-.913-2.156-1.838-2.883-3.181.003-.784.894-.561,1.193-1.193.859.864,2.058,1.104,3.181,1.392Z"/>
    <path class="st39" d="M33.533,72.438c.507-.184,1.289-.752,1.789-.994.391,1.454,3.951,4.922.895,5.368-.78.114-1.593-3.839-2.684-4.374Z"/>
    <path class="st39" d="M38.503,69.853c.145.417,1.98,3.237,1.988,3.479.003.091-1.129,1.059-1.292,1.292l-2.684-3.579c.68-.355,1.173-1.071,1.988-1.193Z"/>
    <path class="st72" d="M119.426,60.11c.066.035.804-.285,1.193.497-.309.562-2.619,3.693-2.585,3.977.074.614,2.441,1.931,2.982,2.287.814.535,1.697,1.197,2.585,1.591l-.696,1.591c-2.102-1.388-4.359-2.681-6.064-4.573-4.875-5.411-3.806-11.778,2.585-15.31-4.595,3.266-7.861,8.86-2.684,13.321l2.684-3.38Z"/>
    <path class="st23" d="M122.806,60.707c-.812,1.978-2.332,3.471-1.591,5.766-.178.126-.276.054-.199.398-.541-.356-2.909-1.673-2.982-2.287-.034-.283,2.276-3.415,2.585-3.977-.389-.782-1.127-.462-1.193-.497-1.645-.884-3.431-1.936-2.684-3.977,1.347,2.338,3.569,3.713,6.064,4.573Z"/>
    <path class="st72" d="M123.8,61.104c-.635,1.479-1.354,4.493-2.585,5.368-.741-2.295.778-3.788,1.591-5.766.279.096.756.332.994.398Z"/>
    <g>
      <path class="st41" d="M137.917,47.783c-.011.305.265.154.398.199,6.558,2.231,12.747,3.014,17.298,9.146-1.861,3.42-6.596,4.082-10.24,4.573-6.09.821-15.672,1.036-21.573-.596-.239-.066-.715-.301-.994-.398-2.495-.86-4.717-2.235-6.064-4.573-.746,2.04,1.039,3.093,2.684,3.977l-2.684,3.38c-5.177-4.462-1.911-10.056,2.684-13.321,1.814-1.003,2.789-1.333,4.772-1.789,4.544-1.046,8.998-.234,13.719-.596Z"/>
      <path class="st75" d="M130.063,48.777c4.234-.23,13.355,1.009,16.9,3.38,1.777,1.188,2.045,1.802.199,3.181-4.391,3.281-23.604,5.445-26.544-.298-2.34-4.572,6.593-6.108,9.444-6.263Z"/>
    </g>
    <path class="st61" d="M26.574,83.373v.398c-.31-.065-.675.189-.596-.398.194-.02.403.024.596,0Z"/>
    <g>
      <path class="st41" d="M138.315,39.035c-.007.282.214.179.398.199,1.947.212,11.032,2.116,11.333,4.175-2.506,1.558-5.539,2.208-8.45,2.585-10.562,1.366-21.815.296-31.912-2.784-.734-2.333,5.434-3.822,7.158-3.977,6.849-.615,13.983,1.017,21.473-.199Z"/>
      <path class="st75" d="M119.128,40.029c.521-.06,2.205.397,2.784.398,4.321.003,17.032-.992,20.28.398,1.136.486,1.401,1.343.398,2.187-3.051,2.566-21.183,2.126-24.456-.199-1.617-1.149-.793-2.578.994-2.784Z"/>
    </g>
    <g>
      <path class="st33" d="M35.123,103.455c2.26-.375,8.19,1.36,10.339,2.386l2.386,1.889c.232,1.274-6.213,2.869-7.257,3.082-10.184,2.071-22.439,1.037-32.111-2.585.418-2.265,7.999-3.901,9.941-4.175.328-.046.457.068.398-.398,5.292,1.066,10.447,1.308,15.707-.398.001.28.398.232.596.199Z"/>
      <path class="st61" d="M18.819,103.654c.059.466-.069.351-.398.398v-.398c.119.026.277-.024.398,0Z"/>
      <path class="st94" d="M32.041,104.449c1.402-.026,11.985.359,8.152,3.38-3.495,2.754-19.973,1.734-24.456.596-1.017-.258-3.028-.587-2.684-1.889.203-.766,3.111-1.404,3.877-1.491,3.909-.444,10.969-.521,15.111-.596Z"/>
      <path class="st61" d="M35.123,103.057v.398c-.199.033-.595.081-.596-.199.181-.059.422-.135.596-.199Z"/>
    </g>
    <path class="st41" d="M141.695,73.631l-.199,1.789c-3.61-.39-15.162-.322-16.9,3.678-1.568,3.608,6.726,5.645,9.146,5.865l-.199,2.187c-2.178-.074-4.669-.373-6.76-.994-1.046-.311-1.845-.807-2.784-1.193-.888-.365-1.581-1.441-1.69.398-.664.501-.907-3.271-.895-3.678.014-.469,1.247-3.31.199-2.684,1.242-1.489,2.898-2.173,4.474-3.181l6.86-2.386c3.292.439,5.745.032,8.748.199Z"/>
    <g>
      <path class="st41" d="M135.134,32.473c2.404.311,6.488.804,8.351,2.386.052.325.672.547.596.895-.31,1.422-12.249,2.423-14.017,2.485-8.918.314-18.142-.808-26.742-2.982.086-1.045,4.667-2.866,5.567-2.982,1.149-.148,2.4.179,3.579.199,7.442.126,14.922,1.51,22.269-.398-.058.462.065.355.398.398Z"/>
      <path class="st61" d="M135.134,32.076v.398c-.333-.043-.456.064-.398-.398.111-.029.291.031.398,0Z"/>
      <path class="st75" d="M110.976,33.07c6.512.267,12.953,1.014,19.485.795.622-.021,8.723-1.594,5.766.994-2.962,2.592-18.088,1.558-22.07.596-1.025-.248-4.412-.964-3.181-2.386Z"/>
    </g>
    <path class="st41" d="M141.496,75.42c3.336.36,13.451,2.292,7.058,6.561-3.667,2.449-10.503,3.376-14.813,2.982-2.42-.221-10.714-2.257-9.146-5.865,1.739-4,13.29-4.068,16.9-3.678Z"/>
    <path class="st4" d="M149.847,84.964c.173.128,1.681,2.381,1.591,2.684-.073.245-3.202,1.878-3.678,2.088-3.87,1.702-8.027,2.328-12.228,1.988-3.34-.271-7.083-1.078-9.743-3.181l.994-2.386c2.091.621,4.582.92,6.76.994,4.359.148,8.805-.385,13.023-1.392,1.086-.259,2.471-1.396,3.281-.795Z"/>
    <path class="st60" d="M33.731,86.157c3.614,1.039,6.145,2.709,2.088,5.766-4.712,3.55-15.067,3.756-20.579,2.386-2.876-.715-11.139-4.4-5.07-7.158,5.417-2.462,17.854-2.635,23.561-.994Z"/>
    <path class="st87" d="M36.913,99.876c-6.171,3.002-21.7,2.92-27.041-1.591-.219-.185-.622-.313-.596-.696l1.392-2.088c1.116.349,3.022.799,4.175.994,6.695,1.13,16.377,1.081,22.666-1.591-.79,1.406.703,2.426,1.392,3.678-.018.179-1.711,1.157-1.988,1.292Z"/>
    <path class="st4" d="M41.684,88.94l1.789,1.988c.267.429.305.085.596.994-.311,1.777.614,3.38-1.491,4.374-3.252-2.554.631-2.347-.398-4.772-1.2,1.603-2.854,2.608-4.672,3.38-6.29,2.671-15.972,2.721-22.666,1.591l.398-2.187c5.512,1.371,15.866,1.164,20.579-2.386,4.058-3.057,1.527-4.727-2.088-5.766l1.392-.596c2.504.846,4.521,1.674,6.561,3.38Z"/>
    <path class="st87" d="M9.673,95.104c-.525.338-.744,2.195-1.491,2.187-1.532-.017-.841-2.048-.298-2.784.384.239,1.322.422,1.789.596Z"/>
    <path class="st4" d="M123.999,84.964c-2.627,1.803.173,2.851,1.69,3.977l.099-.398c2.659,2.103,6.402,2.911,9.743,3.181-.006.979-.238,1.424.795,1.789-.305.009-.826.201-1.392.199-.197,0-.4.008-.596,0-6.72-.279-19.274-6.86-12.725-14.713,1.048-.626-.185,2.215-.199,2.684-.012.407.231,4.18.895,3.678.109-1.839.802-.763,1.69-.398Z"/>
    <g>
      <path class="st85" d="M146.268,93.116c-.171.03-.405-.092-.398.199-.372-.055-.809.036-1.193,0-3.255-.303-5.292.108-8.351.199-1.034-.365-.801-.811-.795-1.789,4.201.34,8.358-.286,12.228-1.988.477-.21,3.605-1.842,3.678-2.088.09-.304-1.418-2.556-1.591-2.684l4.275-3.778c.334.594-.889,1.595-.895,1.69-.008.128,1.343,1.747,1.491,2.088,2.623-.758,2.228-2.439,1.292-4.573,4.409,5.796-4.461,11.788-9.743,12.725Z"/>
      <path class="st61" d="M146.268,93.116v.398c-.472-.084-.376-.196-.398-.199-.008-.291.227-.169.398-.199Z"/>
      <path class="st4" d="M151.935,83.771c.455-.006,1.461,1.394,1.889,1.69.123.36-1.194,1.489-1.292,1.491-.338.008-2.771-3.154-.596-3.181Z"/>
    </g>
    <path class="st15" d="M43.474,90.929l-1.789-1.988c1.063.889,1.026.762,1.789,1.988Z"/>
    <path class="st61" d="M125.192,47.982v-.199c.336.051.221.07,0,.199Z"/>
    <path class="st61" d="M134.935,93.712c-.02.335-.38.158-.596.199v-.199c.197.008.399,0,.596,0Z"/>
    <path class="st23" d="M126.783,86.157l-.994,2.386-.099.398c-1.517-1.126-4.317-2.174-1.69-3.977.938.386,1.738.882,2.784,1.193Z"/>
    <g>
      <path class="st15" d="M44.07,91.923c1.203,3.753-1.467,7.258-4.971,8.748-.505.215-.856.482-1.292.795l-.895-1.591c.277-.135,1.971-1.113,1.988-1.292-.688-1.252-2.182-2.272-1.392-3.678,1.819-.772,3.472-1.777,4.672-3.38,1.029,2.425-2.854,2.218.398,4.772,2.105-.994,1.18-2.597,1.491-4.374Z"/>
      <path class="st87" d="M39,94.508c.565-.095,1.879,1.799,1.889,2.088.021.593-1.183,1.505-1.292,1.491-.212-.027-2.188-3.381-.596-3.579Z"/>
    </g>
  </g>
  <g id="Generative_Object1" data-name="Generative_Object">
    <path class="st59" d="M122.451,10.83c.087.598-.531.385-.895.398-4.867.164-9.747-.206-14.613,0-13.756.581-27.87,3.451-39.862,10.338-12.105,6.951-19.855,18.448-32.009,25.05C14.935,57.555-1.962,52.482,17.676,30.413,33.866,12.218,60.767,2.181,84.875,1.883c7.407-.091,32.916,3.347,37.576,8.947Z"/>
    <path class="st81" d="M64.198,126.141c.271,2.21-.291,4.612-2.386,5.766-.05.028-.145-.026-.199,0-1.179.57-3.147.508-3.877,1.392,4.518-.043,8.345,2.428,12.525,3.579,10.739,2.957,23.444,4.836,34.594,5.169,2.059.062,9.168.304,10.736-.199.06-.019.394-.298.199-.398l-2.088-.398c1.117.065,2.262-.057,3.38,0,.131.007.267-.007.398,0,2.431.125,5.204-.068,7.555.596-20.054,11.481-42.815,14.787-65.509,9.941-8.675-1.853-19.007-5.216-25.349-11.531-.545-4.93,3.756-5.928,7.157-8.052-4.519-.926-9.097-2.056-13.42-3.678-3.986-1.496-14.672-6.199-14.812-11.134,12.138,6.437,28.094,12.009,42.049,11.332,3.079-.149,6.502-.543,9.046-2.386Z"/>
    <path class="st48" d="M41.136,112.622c-.025.196.075.166.199.199,6.329,1.692,21.894,5.418,22.864,13.32-2.544,1.842-5.967,2.237-9.046,2.386-13.955.676-29.911-4.895-42.049-11.332-.063-2.24,1.89-3.19,3.38-4.374,4.962.982,9.886,1.016,14.911.795,3.274-.144,6.531-.276,9.742-.994Z"/>
    <path class="st22" d="M84.875,1.883c-24.108.298-51.009,10.335-67.199,28.53-19.638,22.069-2.741,27.142,17.396,16.203,12.154-6.603,19.904-18.099,32.009-25.05,11.993-6.887,26.106-9.757,39.862-10.338.028.225-.203,1.141-.298,1.193-.413.224-7.967.751-9.344.994-11.764,2.077-22.886,6.592-32.605,13.519-15.389,10.969-25.392,28.865-47.119,29.027-5.02.037-5.945-1.086-10.04-2.485-.635-.217-.641-.085-.596.497-6.482-9.194,7.563-24.288,14.215-30.021,10.75-9.264,22.235-14.467,35.786-18.291.198-.056,0-.542.199-.596.177-.049.521.325.994.199,1.455-.387,3.894-1.362,4.97-1.591,1.232-.262,3.052-.222,4.175-.398,5.816-.91,11.655-1.66,17.595-1.392Z"/>
    <path class="st29" d="M145.911,92.939c5.186,1.353,10.549,4.398,11.332,10.239,1.926,14.362-18.276,28.776-29.723,33.898-3.064,1.371-7.29,2.316-10.04,3.777-.092.049-.413-.114-.398.199-1.118-.057-2.263.065-3.38,0-1.065-.062-2.121-.129-3.181-.199,4.234-1.971,8.774-3.218,13.022-5.169,10.223-4.695,27.013-15.661,30.319-26.939,4.271-14.569-10.64-13.446-19.782-9.444-13.575,5.943-19.344,17.77-30.816,26.045-6.765,4.879-14.53,8.345-22.367,11.134-1.193-.273-2.375-.705-3.579-.994,7.634-3.452,15.11-7.287,21.969-12.128,11.246-7.937,18.445-19.031,30.418-25.846l9.046-3.976c2.44-.012,4.699-.032,7.157-.596Z"/>
    <path class="st95" d="M114.896,15.005c-7.33,1.102-13.855,1.314-21.273,2.982-1.742.392-3.449.682-5.169,1.193-3.94,1.169-7.084,2.599-10.736,4.374-.82.399-1.579.763-2.386,1.193-11.739,6.258-17.281,13.305-26.939,21.472-7.221,6.105-15.777,10.587-25.15,12.326-1.202-.072-2.32.266-3.579.199-4.65-.247-9.784-.602-12.724-4.772-.044-.582-.038-.714.596-.497,4.095,1.4,5.02,2.523,10.04,2.485,21.727-.162,31.73-18.058,47.119-29.027,9.719-6.927,20.841-11.442,32.605-13.519,1.378-.243,8.931-.77,9.344-.994.095-.051.326-.968.298-1.193,4.866-.206,9.746.164,14.613,0,.363-.012.981.201.895-.398.114.137.762.515.795.696.479,2.621-6.619,3.219-8.35,3.479Z"/>
    <path class="st95" d="M125.035,141.649c2.144.606,3.363,1.387,1.292,3.181-9.186,7.956-35.931,13.094-47.914,12.923-9.594-.137-42.883-5.453-44.236-17.694,6.342,6.315,16.674,9.679,25.349,11.531,22.694,4.847,45.455,1.54,65.509-9.941Z"/>
    <path class="st11" d="M93.623,17.987c1.611.786,4.01.303,5.865.398,6.984.357,36.222,3.783,39.862,9.444.448.697.634,1.578.199,2.286-1.303,1.17-3.259,1.779-4.97,2.187-8.876,2.114-16.449-.269-24.454.398.021-.171-.048-.184-.199-.199-9.171-.897-20.761-2.838-29.524-5.567-1.591-.496-3.695-1.237-5.07-2.187.807-.43,1.566-.794,2.386-1.193,15.121,4.002,31.886,6.788,47.616,6.362,2.172-.059,9.864-.346,11.531-.994.132-.051.579-.283.497-.497-.079-.809-11.344-3.359-12.823-3.678-11.565-2.494-23.775-3.986-35.588-4.772l-.497-.795c1.72-.51,3.427-.801,5.169-1.193Z"/>
    <path class="st16" d="M142.73,69.877c4.071-.099,9.108-1.071,12.426-3.579,1.155-.873,2.157-2.437,2.883-3.579.083,6.283-7.807,10.02-13.122,10.935-3.57.615-7.566.473-11.134,0-.407-.054-.685-.147-.994-.199-7.808-1.313-21.728-7.885-18.092-17.893l2.187,4.672c6.128,7.243,16.661,9.866,25.846,9.642Z"/>
    <path class="st30" d="M114.896,15.005l11.034,2.386c4.323,1.441,16.25,5.223,14.812,11.432-.148.637-.83.966-1.193,1.292.435-.708.249-1.589-.199-2.286-3.64-5.661-32.878-9.086-39.862-9.444-1.855-.095-4.254.388-5.865-.398,7.418-1.668,13.943-1.88,21.273-2.982Z"/>
    <path class="st28" d="M134.578,32.301c1.693.816,9.474,1.016,9.742,3.38-6.882,1.495-14.227,1.603-21.273,1.591-6.272-.011-12.583-.03-18.688-1.591-.028-1.58,4.42-2.87,5.766-2.982,8.005-.667,15.578,1.716,24.454-.398Z"/>
    <path class="st47" d="M27.02,83.396c-1.888-.136-5.328.11-7.356.199-.991.043-1.83-.284-2.783-.199-5.302-.851-14.364-4.687-14.513-10.935l3.082,3.38c.425.38,1.11.564,1.491.795,6.1,3.694,13.838,3.946,20.677,2.585,6.105-1.215,12.974-4.317,14.513-10.935,2.18,8.624-8.209,13.668-15.11,15.11Z"/>
    <path class="st16" d="M6.344,95.524c5.24,3.661,14.183,5.047,20.478,4.97.503,4.408-.697,2.849-4.076,3.38l.398-.596-3.678.398c-.197.008-.401-.014-.596,0-5.087-.8-16.975-5.433-16.502-11.73.736-.119.582.038.895.398,1.186,1.363,1.455,2.045,3.082,3.181Z"/>
    <path class="st2" d="M137.163,47.212c-.171,1.08,1.939.801,2.684.994,6.089,1.576,18.093,7.097,18.191,14.513-.726,1.141-1.728,2.706-2.883,3.579-3.318,2.508-8.355,3.48-12.426,3.579l-1.392-.398c1.733-.01,7.158-.799,8.648-1.591,1.377-.731,2.701-2.943,4.076-3.877.003-.402-1.072.425-1.193.497,3.462-3.546,1.911-6.304-1.292-9.145-4.261-3.78-12.448-6.333-17.794-6.561-.971-1.326.432-.485.795-1.392.197-.007.4.009.596,0,.689-.031,1.327-.15,1.988-.199Z"/>
    <path class="st55" d="M144.32,35.681c.284,2.506-6.758,3.034-8.549,3.38-.349.094-.337.276,0,.398.681.246,2.216.149,2.982.199-.058.002-1.177.224-.994.596-3.775-.403-7.206-.496-11.134-.398-.88-.937-3.061-.178-4.175-.199.846-.772.585-1.259.596-2.386,7.046.013,14.391-.096,21.273-1.591Z"/>
    <path class="st45" d="M157.442,82.601c.533,5.85-6.693,9.228-11.531,10.338-2.458.564-4.718.584-7.157.596-.976.005-2.003.083-2.982,0l7.456-.398.497-.298-.398-2.684c1.777-.173,4.054-.66,5.766-1.193.863-.268,1.956-.79,2.783-1.193,1.47-.716,3.637-1.932,4.573-3.28.343-.495.413-1.674.994-1.889Z"/>
    <path class="st25" d="M23.243,58.545c2.017.121,4.169.261,6.163.596l-9.145,1.392c-4.11.5-12.864,3.529-14.712,7.555-.973.677-.808-.676-1.789-.398,2.003-3.318,6.259-5.557,9.642-7.157l6.263-1.789c1.259.067,2.376-.271,3.579-.199Z"/>
    <path class="st47" d="M11.115,109.242c1.086.97,3.567,1.033,4.871,1.392.321.088.017.664.596.795,3.037.69,9.191.821,12.426.795-.177,2.019,1.075.654,2.386,1.392-5.025.221-9.949.187-14.911-.795-1.935-.383-8.463-1.855-8.35-4.374,1.301.128,1.537,1.929,2.982.795Z"/>
    <path class="st82" d="M5.548,68.088c-1.321,2.877-.01,5.288,2.386,6.958-.537.406-1.063.829-.994,1.591-.381-.231-1.066-.415-1.491-.795l-3.082-3.38c-.041-1.711.528-3.341,1.392-4.772.982-.278.816,1.074,1.789.398Z"/>
    <path class="st82" d="M7.338,87.77c-2.218,1.686-2.006,3.894-.199,5.766-.308.756-1.178,1.182-.795,1.988-1.627-1.136-1.896-1.818-3.082-3.181-.313-.359-.159-.516-.895-.398.181-2.409,2.279-4.06,4.175-5.169l.795.994Z"/>
    <path class="st25" d="M19.664,83.595c-1.899,1.885-4.908,1.481-7.456,2.187-.918.254-4.206,1.483-4.871,1.988l-.795-.994c2.273-1.33,7.989-3.17,10.338-3.38.954-.085,1.792.242,2.783.199Z"/>
    <path class="st47" d="M137.163,47.212c-.661.049-1.299.168-1.988.199l-.895-.398c3.217.315,15.306-1.547,3.976-.994.799-.58,2.253-.47,3.28-.596,2.849-.35,6.246-.455,8.549-2.386.133.31.286.494.199.895-.695,2.453-10.837,3.11-13.122,3.28Z"/>
    <path class="st2" d="M146.308,41.248c1.046.322,3.246.548,3.777,1.789-2.303,1.93-5.7,2.036-8.549,2.386l-.199-.398c1.682-.198,8.378-1.114,4.374-3.181l.596-.596Z"/>
    <path class="st80" d="M146.308,41.248l-.596.596c-.517-.267-1.039-.431-1.591-.596-1.791-.535-4.465-.791-6.362-.994-.183-.372.936-.595.994-.596,1.768-.05,5.745,1.034,7.555,1.591Z"/>
    <path class="st80" d="M10.121,106.459c.424,1.273-.13,1.78.994,2.783-1.445,1.134-1.681-.667-2.982-.795.051-1.146,1.267-1.575,1.988-1.988Z"/>
    <path class="st61" d="M117.48,140.854v.199c-.131-.007-.267.007-.398,0-.016-.313.305-.15.398-.199Z"/>
    <path class="st61" d="M135.771,39.459c-.337-.122-.349-.303,0-.398v.398Z"/>
    <path class="st61" d="M75.332,24.747c1.375.95,3.478,1.691,5.07,2.187,8.763,2.728,20.352,4.67,29.524,5.567l.199.199c-1.346.112-5.794,1.402-5.766,2.982.022,1.216,2.852,2.101,3.877,2.386,2.911.81,6.62.969,9.642,1.193v.398c-1.792.292-9.582,1.226-7.555,3.976,2.047,2.777,13.755,3.596,17.297,3.777v.398c-.718.099-2.14.079-2.684.199-.228.051.208.421-.497.596l-.596.199c-3.254.914-2.935.338-5.766,2.783-1.306,1.128-2.756,2.259-3.38,3.976-3.636,10.008,10.284,16.58,18.092,17.893-1.168.964-3.205.893-4.672,1.392-3.023,1.029-7.993,3.712-8.648,7.157-1.346,7.078,9.543,10.602,14.911,11.332v.199c-2.551,1.222-5.57,1.96-8.251,3.38-8.589,4.548-13.799,12.001-20.875,18.291-9.398,8.353-19.959,14.4-31.512,19.285-3.938-.949-7.894-1.906-11.929-2.386v-.199c2.095-1.153,2.657-3.556,2.386-5.766-.969-7.902-16.535-11.628-22.864-13.32l.199-.398c.281-.068.482-.167.596-.199,1.715-.474,4.677-.985,5.567-2.783.789-1.593-.125-2.487-1.491-3.38-1.704-1.113-9.209-2.958-11.233-2.982,4.035-1.398,9.649-4.12,9.543-9.145-.132-6.284-12.419-10.17-17.496-10.537,6.901-1.442,17.29-6.486,15.11-15.11-.561-2.219-1.105-2.655-2.585-4.175-2.692-2.767-6.304-4.324-10.139-4.97-1.994-.336-4.146-.476-6.163-.596,9.373-1.739,17.929-6.221,25.15-12.326,9.659-8.167,15.2-15.214,26.939-21.472Z"/>
    <path class="st6" d="M61.813,132.106c4.035.479,7.991,1.436,11.929,2.386,1.202.29,2.386.708,3.579.994,1.204.289,2.386.721,3.579.994,10.401,2.379,18.93,3.669,29.623,4.374,1.06.07,2.116.137,3.181.199l2.088.398c.195.099-.139.379-.199.398-1.568.503-8.677.26-10.736.199-11.149-.333-23.854-2.212-34.594-5.169-4.18-1.151-8.007-3.622-12.525-3.579.73-.883,2.698-.821,3.877-1.392-.021.173.05.181.199.199Z"/>
    <path class="st61" d="M134.379,93.536v-.199c.065.009.134-.008.199,0,.031.221-.126.164-.199.199Z"/>
    <path class="st61" d="M110.124,32.699l-.199-.199c.151.015.22.028.199.199Z"/>
    <path class="st61" d="M61.813,132.106c-.149-.018-.22-.026-.199-.199.054-.026.149.028.199,0v.199Z"/>
    <path class="st61" d="M124.439,48.604c-.073.018-.377.137-.596.199l.596-.199Z"/>
    <path class="st61" d="M41.534,112.423l-.199.398c-.124-.033-.223-.003-.199-.199.022-.005-.027-.096.398-.199Z"/>
    <path class="st16" d="M42.13,110.833c1.272,1.135-.094.344,0,1.392-.115.032-.316.13-.596.199-.424.103-.376.194-.398.199-3.211.718-6.467.85-9.742.994-1.311-.738-2.562.627-2.386-1.392,4.337-.035,8.899-.431,13.122-1.392Z"/>
    <path class="st19" d="M110.522,140.854c-10.693-.704-19.222-1.995-29.623-4.374,7.837-2.788,15.602-6.255,22.367-11.134,11.472-8.274,17.242-20.102,30.816-26.045,9.142-4.002,24.053-5.125,19.782,9.444-3.306,11.278-20.096,22.245-30.319,26.939-4.248,1.951-8.788,3.198-13.022,5.169Z"/>
    <path class="st17" d="M135.771,93.536c.98.083,2.006.005,2.982,0l-9.046,3.976c-11.974,6.815-19.173,17.909-30.418,25.846-6.859,4.841-14.335,8.675-21.969,12.128-1.193-.287-2.376-.704-3.579-.994,11.553-4.885,22.114-10.932,31.512-19.285,7.077-6.29,12.286-13.743,20.875-18.291,2.681-1.42,5.7-2.158,8.251-3.38.073-.035.23.022.199-.199.415.052.777.164,1.193.199Z"/>
    <path class="st7" d="M77.718,23.554c3.652-1.775,6.796-3.205,10.736-4.374l.497.795c11.813.785,24.023,2.277,35.588,4.772,1.479.319,12.744,2.869,12.823,3.678.082.214-.365.446-.497.497-1.667.648-9.359.935-11.531.994-15.73.426-32.495-2.36-47.616-6.362Z"/>
    <path class="st47" d="M151.875,87.77c-.827.403-1.921.924-2.783,1.193.089-.677-.79-.271-1.093-.199-2.463.584-4.114.859-6.66.994-3.202.17-8.621-.035-11.631-.994-.862-.275-3.084-1.151-1.292-1.789,7.662,2.387,19.113,2.387,25.548-2.982-.221,1.46-2.285,2.274-2.088,3.777Z"/>
    <path class="st82" d="M133.783,73.655c-.49.601.443.321.398.497-.29,1.12-2.595.829-3.479,1.093-4.173,1.247-12.578,4.732-6.66,9.742-.584.045-1.105.67-.994,1.193-1.787-1.31-2.56-2.193-3.579-4.175.655-3.445,5.626-6.129,8.648-7.157,1.467-.499,3.504-.427,4.672-1.392.309.052.587.145.994.199Z"/>
    <path class="st13" d="M124.041,84.987c1.213,1.027,2.877,1.522,4.374,1.988-1.791.638.43,1.515,1.292,1.789,3.009.959,8.429,1.164,11.631.994l.199.398c-6.103.332-13.426-.264-18.49-3.976-.111-.523.41-1.147.994-1.193Z"/>
    <g>
      <path class="st32" d="M144.917,73.655c-.042.257-.836.287-.099.596.783.329,2.811.452,3.777.795,3.094,1.099,8.517,3.936,8.847,7.555-.582.215-.651,1.394-.994,1.889-.936,1.348-3.103,2.564-4.573,3.28-.197-1.504,1.867-2.317,2.088-3.777-6.435,5.37-17.886,5.369-25.548,2.982-1.497-.466-3.16-.961-4.374-1.988-5.918-5.01,2.487-8.495,6.66-9.742.884-.264,3.189.026,3.479-1.093.046-.176-.888.104-.398-.497,3.568.473,7.564.615,11.134,0Z"/>
      <path class="st17" d="M143.326,78.028l.795,6.859-3.579.099c-.009-.062-.296-.422-.398-1.193-.223-1.684-.483-3.37-.596-5.07.203-.438,2.287-.22,2.982-.298.61-.068.215-.371.795-.398Z"/>
      <path class="st57" d="M140.145,85.583c0-.24.427-.383.398-.596l3.579-.099-.795-6.859c2.366-.107,5.569.36,7.953.696l-7.257.099,1.093,6.66c-.147.378-4.374.178-4.97.099Z"/>
      <path class="st29" d="M133.385,78.227l.199,5.269c-.156.457-3.219.337-3.777.298l3.181-.298-.199-4.374-3.976-.199,4.573-.696Z"/>
      <path class="st42" d="M138.952,78.028c.235,1.994.334,3.793.398,5.766.018.56.103,1.047.199,1.591-.12-.057-.304.405-.596-.099l-.596-7.157c.096-.182.414-.077.596-.099Z"/>
      <path class="st69" d="M129.21,84.391c.025-.025.049-.444.398-.596.066.006.133-.005.199,0,.558.039,3.621.159,3.777-.298l-.199-5.269.398.099.199,5.567c-.232.719-4.006.446-4.772.497Z"/>
      <path class="st57" d="M142.531,78.426c-.695.078-2.779-.14-2.982.298.114,1.7.374,3.386.596,5.07h-.795c-.063-1.972-.163-3.772-.398-5.766.67-.082,2.77.308,3.579.398Z"/>
      <path class="st42" d="M129.608,83.794c-.349.153-.372.571-.398.596-.799.794-2.1.449-2.187-.696l.497-.497c1.016-.376,1.764.568,2.088.596Z"/>
      <path class="st37" d="M140.145,83.794c.102.771.389,1.131.398,1.193.029.213-.398.357-.398.596-.394-.052-.337-.075-.596-.199-.096-.543-.181-1.03-.199-1.591h.795Z"/>
    </g>
    <path class="st82" d="M118.077,51.586l1.193.795c-5.014,5.478,3.2,11.05,7.754,12.923-1.352.107-.502,1.364.099,1.193.189-.054-.236-.804.994-.596.81.137.032.811.398,1.193.152.159,3.716,1.271,4.175,1.392,2.03.534,6.534,1.007,8.648.994l1.392.398c-9.185.223-19.718-2.399-25.846-9.642l-2.187-4.672c.624-1.717,2.074-2.848,3.38-3.976Z"/>
    <path class="st45" d="M44.516,93.934c.105,5.025-5.508,7.748-9.543,9.145-.447-.005-.721.168-1.193.199-.606.039-1.379.344-2.187.398-4.51.302-8.113-.154-12.128,0l3.678-.398-.398.596c3.379-.531,4.578,1.028,4.076-3.38,1.472-.018,4.27-.119,5.666-.398.217-.043,1.532-.174,1.193-.596-.936-.157-2.131.377-2.982.398-1.845.044-6.652-.118-8.35-.398-.541-.089-.512-.777-.596-.795-.641-.142-1.795-.028-2.585-.199-.166-.036-1.141-.2-.696-.596,6.833,1.195,14.173,1.186,20.478-1.988-2.246,2.715-.716,2.891,1.789,1.392,1.326-.793,2.775-1.761,3.082-3.38h.696Z"/>
    <path class="st76" d="M42.13,110.236c-2.3.821-5.244.816-7.654,1.193.674-.676.358-1.994.696-2.485.516-.751,1.161.207,1.591-.298.558-.656-.32-1.172.398-1.392l4.772-.099c-1.525-.023-3.263-.314-4.772-.099-1.182.168-.552.295-.596.596h-.596c-1.437,0-2.274.188-3.777,0l-.596-3.976c.808-.054,1.581-.359,2.187-.398.079.45-.527.526.099.795,1.011.434,4.738.462,6.163.795,3.652.854,8.212,3.182,2.088,5.368Z"/>
    <path class="st13" d="M34.973,103.079c2.024.024,9.529,1.869,11.233,2.982,1.367.893,2.28,1.787,1.491,3.38-.314-1.051-2.012.517-2.883.795-.716.229-1.592.228-2.286.398l-.398-.398c6.124-2.186,1.564-4.514-2.088-5.368-1.425-.333-5.153-.361-6.163-.795-.627-.269-.021-.345-.099-.795.472-.03.746-.204,1.193-.199Z"/>
    <path class="st57" d="M47.697,109.441c-.89,1.799-3.851,2.31-5.567,2.783-.094-1.047,1.272-.257,0-1.392.432-.098.376-.194.398-.199.694-.17,1.57-.169,2.286-.398.871-.278,2.569-1.846,2.883-.795Z"/>
    <g>
      <path class="st17" d="M19.465,103.675c4.014-.154,7.618.302,12.128,0l.596,3.976c-1.755-.22-1.518-1.852-3.181.795-.225.184-.766.349-.497.795.395-.166.399-.639.497-.795,1.007-.824,1.08-.301,1.292-.398.227-.103-.031-.634.199-.795.073-.051,1.243.754,1.591.795.582.07,4.172.356,3.877-.398h.596c-.034.23-.11.922.199.994-.43.505-1.074-.453-1.591.298-.338.491-.022,1.809-.696,2.485,2.41-.376,5.354-.372,7.654-1.193l.398.398c-.022.005.034.101-.398.199-4.223.96-8.785,1.357-13.122,1.392-3.235.026-9.389-.105-12.426-.795-.579-.132-.275-.707-.596-.795-1.304-.359-3.785-.422-4.871-1.392-1.124-1.003-.57-1.511-.994-2.783,1.434-.822,7.206-2.671,8.748-2.783.196-.014.4.008.596,0Z"/>
      <path class="st78" d="M18.173,106.658c-.488,4.491,2.556.278,4.175.398.724.053,1.649,1.876,1.988,1.988.151.05,3.02.05,3.181,0,.303-.094.837-1.417,1.093-.895-.126,1.61-3.261,1.58-4.473,1.292-.599-.142-1.809-1.753-2.187-1.789-1.536-.147-6.212,4.688-3.777-.994Z"/>
      <path class="st78" d="M32.189,107.652c1.504.188,2.341,0,3.777,0,.296.754-3.295.468-3.877.398-.347-.042-1.518-.846-1.591-.795-.23.161.028.692-.199.795-.212.097-.286-.427-1.292.398,1.663-2.647,1.426-1.015,3.181-.795Z"/>
      <path class="st57" d="M37.16,107.055v.199c-.717.22.161.735-.398,1.392-.309-.072-.233-.764-.199-.994.045-.302-.586-.429.596-.596Z"/>
      <path class="st78" d="M29.008,108.447c-.098.156-.102.63-.497.795-.269-.446.272-.611.497-.795Z"/>
    </g>
    <path class="st27" d="M123.047,37.272c-.011,1.126.249,1.613-.596,2.386-1.178-.022-2.414-.326-3.579-.398-.327-.02-.667.024-.994,0-3.023-.224-6.731-.383-9.642-1.193-1.025-.285-3.855-1.17-3.877-2.386,6.105,1.56,12.416,1.579,18.688,1.591Z"/>
    <path class="st2" d="M42.13,68.287c-1.539,6.618-8.409,9.719-14.513,10.935l-.398-.398c3.107-.527,6.841-1.869,9.245-3.976.39-.342,3.086-3.237,1.69-3.579,1.293-2.01,1.603-4.151.199-6.163l1.193-.994c1.48,1.52,2.024,1.957,2.585,4.175Z"/>
    <path class="st13" d="M13.501,77.233c.044.887,2.358.649,2.883.795.073.02-.006.623.795.795,3.025.65,7.043.509,10.04,0l.398.398c-6.838,1.361-14.577,1.11-20.677-2.585-.069-.762.457-1.184.994-1.591,1.733,1.209,3.534,1.724,5.567,2.187Z"/>
    <path class="st13" d="M18.471,97.91c-.445.396.53.56.696.596.789.171,1.943.056,2.585.199.084.019.056.706.596.795,1.698.28,6.505.442,8.35.398.852-.021,2.046-.554,2.982-.398.339.422-.976.553-1.193.596-1.397.279-4.194.38-5.666.398-6.295.077-15.237-1.31-20.478-4.97-.383-.806.487-1.232.795-1.988,2.345,2.429,8.065,3.802,11.332,4.374Z"/>
    <path class="st47" d="M141.338,69.48c-2.114.013-6.619-.46-8.648-.994-.459-.121-4.023-1.233-4.175-1.392-.365-.382.413-1.056-.398-1.193-1.23-.207-.805.542-.994.596-.601.172-1.452-1.086-.099-1.193,8.32,3.422,18.096,3.842,25.846-.795.121-.072,1.196-.899,1.193-.497-1.375.934-2.699,3.146-4.076,3.877-1.491.791-6.916,1.58-8.648,1.591Z"/>
    <path class="st25" d="M129.21,47.411c1.932.059,3.43.068,5.368,0-.363.907-1.766.065-.795,1.392-3.939-.168-11.696.5-14.513,3.579l-1.193-.795c2.831-2.445,2.512-1.869,5.766-2.783.22-.062.524-.181.596-.199.705-.176.269-.546.497-.596.544-.12,1.966-.1,2.684-.199.422-.058.887.204.795-.398.263.01.532-.008.795,0Z"/>
    <path class="st16" d="M141.338,45.025l.199.398c-1.027.126-2.481.016-3.28.596,11.33-.553-.76,1.31-3.976.994l.895.398c-.197.009-.399-.007-.596,0-1.938.068-3.436.059-5.368,0-.053-1.116,1.498-.278,1.591-.497l-.398-.895c1.961-.005,3.913.042,5.865-.199l-3.28-.298c0-.14,2.528-.283,2.783-.298,1.769-.106,3.815.008,5.567-.199Z"/>
    <path class="st90" d="M137.759,40.254c1.897.203,4.571.459,6.362.994-.273.343.125.932,0,1.193-1.606.069-4.295-.548-5.766-.398-.128.013-.345-.03-.398,0-.669.386-.182,1.455-.596,1.988-1.527-.552-4.078-.23-5.467-.596-.778-.205-2.265-1.822-2.783-1.591-.195.087.322.487,0,.596-.312.106-.647-.575-.795-.596-1.971-.28-4.57.763-6.561.994-.093-.638.229-1.058.298-1.789.059-.629-.246-.349-.199-.994,1.528-.121,3.235-.16,4.772-.199,3.928-.099,7.359-.006,11.134.398Z"/>
    <path class="st25" d="M122.451,39.658c1.114.021,3.295-.738,4.175.199-1.537.039-3.244.078-4.772.199-1.49.118-8.583.957-9.444,1.591-1.174.863-.101,1.555.696,1.988l.199.298-.596.099c-.571-.172-2.479-1.011-2.386-.398-2.028-2.75,5.763-3.684,7.555-3.976.454-.074,1.095.243.994-.398,1.165.072,2.4.376,3.579.398Z"/>
    <path class="st16" d="M123.047,86.18c5.064,3.712,12.387,4.308,18.49,3.976.588-.032,1.206.057,1.789,0l.398,2.684-.497.298-7.456.398c-.416-.035-.778-.147-1.193-.199-.065-.008-.134.009-.199,0-5.368-.731-16.257-4.254-14.911-11.332,1.019,1.982,1.791,2.865,3.579,4.175Z"/>
    <path class="st3" d="M149.092,88.963c-1.712.532-3.988,1.02-5.766,1.193-.583.057-1.201-.032-1.789,0l-.199-.398c2.547-.135,4.197-.41,6.66-.994.304-.072,1.182-.478,1.093.199Z"/>
    <path class="st82" d="M39.545,64.112l-1.193.994c-3.497-5.012-12.449-5.259-18.092-4.573l9.145-1.392c3.835.646,7.447,2.203,10.139,4.97Z"/>
    <path class="st17" d="M145.712,41.844c4.005,2.067-2.691,2.983-4.374,3.181-1.752.206-3.798.092-5.567.199l.298-.795c-1.445-.162-4.065.021-5.368-.398-.288-.093.659-.454-.099-.596,2.244.236,4.494.674,6.76.795.623.003.548-1.584.596-2.187.053-.03.269.013.398,0-.034.462,1.613.577,1.889.596.526.036,3.727.114,3.877-.199.125-.261-.273-.85,0-1.193.552.165,1.074.33,1.591.596Z"/>
    <path class="st2" d="M112.709,44.031c5.691,1.717,11.754,2.004,17.694,1.988l.398.895c-.093.219-1.644-.619-1.591.497-.263-.008-.532.01-.795,0-.345-.014-.611.009-.795,0-3.542-.182-15.25-1.001-17.297-3.777-.093-.614,1.815.225,2.386.398Z"/>
    <path class="st61" d="M128.415,47.411c.092.602-.373.34-.795.398v-.398c.184.009.45-.014.795,0Z"/>
    <path class="st61" d="M118.872,39.26c.101.641-.54.324-.994.398v-.398c.327.024.667-.02.994,0Z"/>
    <path class="st77" d="M37.16,107.254v-.199c1.509-.214,3.246.076,4.772.099l-4.772.099Z"/>
    <g>
      <path class="st44" d="M27.02,83.396c5.077.367,17.364,4.253,17.496,10.537h-.696c-.307,1.619-1.756,2.586-3.082,3.38-2.503.056,1.101-2.793.497-3.181-.722.207-1.832,1.24-2.286,1.789-6.305,3.174-13.645,3.183-20.478,1.988-3.267-.571-8.987-1.945-11.332-4.374-1.807-1.871-2.02-4.08.199-5.766.664-.505,3.953-1.734,4.871-1.988,2.547-.706,5.556-.302,7.456-2.187,2.029-.089,5.468-.335,7.356-.199Z"/>
      <path class="st16" d="M40.738,97.313c-2.506,1.499-4.035,1.324-1.789-1.392.454-.549,1.565-1.582,2.286-1.789.604.388-3,3.237-.497,3.181Z"/>
      <path class="st78" d="M26.225,91.747c-.439.498-.841,1.195-.596,1.789-.216-.032-.453.549-1.193-.099-.518-.454-2.851-5.027-3.479-5.07-1.131.481-4.076,5.551-4.573,5.766-.452.195-3.678-1.245-4.573-.994.313-.968,2.955.48,3.28-.298l.398-4.772-3.777.199c-.135-.281,4.408-1.044,4.573-.795-.114.778-.815,5.287-.298,5.467l4.97-5.567c1.799,1.185,2.896,6.186,5.269,4.374Z"/>
      <path class="st57" d="M31.394,93.337c.496.036.888.256,1.392.199.007.029.573-.081.596.099.067.515-6.967.018-7.754-.099-.245-.595.158-1.291.596-1.789.179-.203,3.637-2.932,3.877-2.982.371-.078,6.998.47,7.555.596.027.006.608.297.398.398-1.951.083-5.598-.833-7.356-.398-.805.199-3.474,2.99-4.473,3.479.02.367,4.563.454,5.169.497Z"/>
      <path class="st29" d="M32.786,93.536c-.503.057-.895-.163-1.392-.199-.175-.809-1.186-.695-.099-1.789,2.045-.09,1.23.89,1.491,1.988Z"/>
    </g>
    <path class="st47" d="M27.219,78.824c-2.998.509-7.015.65-10.04,0-.801-.172-.723-.775-.795-.795-.525-.147-2.839.091-2.883-.795,6.819,1.551,20.423.607,24.653-5.964,1.397.342-1.3,3.237-1.69,3.579-2.403,2.107-6.138,3.449-9.245,3.976Z"/>
    <g>
      <path class="st86" d="M133.783,48.803c5.346.228,13.533,2.781,17.794,6.561,3.203,2.842,4.754,5.599,1.292,9.145-7.75,4.637-17.526,4.217-25.846.795-4.554-1.873-12.768-7.445-7.754-12.923,2.817-3.078,10.574-3.746,14.513-3.579Z"/>
      <path class="st25" d="M133.982,58.942c-.299-.096-.381.168-.596.199-.431.062-6.922-.256-7.257-.398-.141-.06-.065-.393-.298-.497l5.07-4.871c.832-.078,2.553,4.778,3.082,5.567Z"/>
      <path class="st29" d="M131.994,52.978c-.013-.013-.057.367-.298.199-.13-.091-.116-.805-.398-.795-1.403.05.84,1.015.895,1.093.865,1.236,2.217,4.808,2.585,6.263-.16-.179-.688-.635-.795-.795-.529-.789-2.249-5.644-3.082-5.567l-5.07,4.871c.233.104.157.437.298.497.334.142,6.825.46,7.257.398-.109.217-.154.911-.199.994l-.398.398c-.74.21-3.721-.171-4.374-.795,1.228.065,2.446.191,3.678.199-1.89-.596-4.76-.701-6.859-.398-2.757-.675-.423-2.095.895-3.38.533-.52,4.831-4.352,5.169-4.374.477-.031.75.803.696,1.193Z"/>
      <path class="st80" d="M137.958,59.34c.095-.22-.055-.362.398-.994.289-.404.764-.698.795-1.193.497-.352,2.856-2.336,3.082-2.386,1.571-.344,6.778,1.38,8.648,1.491-.059.4-7.071-.963-8.052-.696-.696.19-3.791,3.375-4.871,3.777Z"/>
      <path class="st69" d="M138.356,58.346c-.453.633-.302.774-.398.994-.022.052-.866.419-.497.795l8.35.596-9.444-.199c-.229.035-.186-.192-.199-.199l2.187-1.988Z"/>
      <path class="st78" d="M131.994,52.978c1.177,1.196,2.55,4.901,3.579,6.561.182.293.253.54.199.895.134.233.257-.175.398-.099.012.007-.031.234.199.199-1.053.748-1.176-.329-1.591-.795-.368-1.454-1.719-5.026-2.585-6.263-.055-.078-2.298-1.044-.895-1.093.282-.01.268.704.398.795.241.169.286-.212.298-.199Z"/>
      <path class="st29" d="M143.028,56.954c.724.381-.24,1.619,1.093,1.093.323-2.422,1.34.853.895,1.491-1.918-.626-3.024-.275-1.988-2.585Z"/>
      <path class="st29" d="M138.356,58.346l-2.187,1.988c-.141-.076-.263.333-.398.099.054-.355-.017-.601-.199-.895,1.173-.808,2.418-1.565,3.579-2.386-.031.495-.506.789-.795,1.193Z"/>
      <path class="st92" d="M128.415,59.738c-.919-.049-2.312.014-3.181-.199,2.099-.303,4.969-.199,6.859.398-1.232-.008-2.45-.133-3.678-.199Z"/>
      <path class="st92" d="M132.789,60.533l.398-.398c-.169.313.218.222-.398.398Z"/>
    </g>
    <path class="st76" d="M130.602,43.435c.759.142-.189.504.099.596,1.303.419,3.923.236,5.368.398l-.298.795c-.256.015-2.784.158-2.783.298l3.28.298c-1.952.241-3.904.193-5.865.199-5.941.016-12.003-.271-17.694-1.988l.596-.099-.199-.298c.776.422,6.944,1.604,7.157,1.292l-.199-1.093c1.732-.022,6.03-2.154,7.853-1.789.556.111,1.513,1.695,2.386,1.789.142.015.012-.428.298-.398Z"/>
    <path class="st76" d="M121.854,40.055c-.048.645.258.365.199.994-1.449.58-1.835,1.594-2.783,2.684.117.175.592.102.795.099l.199,1.093c-.214.312-6.381-.87-7.157-1.292-.797-.433-1.869-1.125-.696-1.988.861-.633,7.953-1.473,9.444-1.591Z"/>
    <path class="st29" d="M137.362,44.031v.199c-2.265-.121-4.516-.559-6.76-.795-.286-.03-.156.413-.298.398-.873-.094-1.83-1.678-2.386-1.789-1.823-.365-6.122,1.767-7.853,1.789-.203.003-.679.076-.795-.099.948-1.09,1.334-2.104,2.783-2.684-.069.732-.391,1.151-.298,1.789,1.991-.231,4.59-1.274,6.561-.994.149.021.483.702.795.596.322-.109-.195-.51,0-.596.518-.232,2.005,1.385,2.783,1.591,1.39.367,3.94.044,5.467.596Z"/>
    <path class="st13" d="M144.121,42.441c-.15.313-3.351.235-3.877.199-.276-.019-1.923-.134-1.889-.596,1.47-.151,4.159.467,5.766.398Z"/>
    <path class="st46" d="M137.362,44.23v-.199c.414-.533-.072-1.602.596-1.988-.048.603.026,2.19-.596,2.187Z"/>
    <g>
      <path class="st58" d="M38.353,65.106c1.404,2.012,1.095,4.154-.199,6.163-4.23,6.572-17.834,7.516-24.653,5.964-2.033-.463-3.833-.978-5.567-2.187-2.396-1.671-3.707-4.081-2.386-6.958,1.848-4.026,10.603-7.055,14.712-7.555,5.643-.686,14.595-.439,18.092,4.573Z"/>
      <path class="st57" d="M22.249,70.672c.162-.402,2.094-2.763.795-2.187.441-.526,2.295-3.291,2.485-3.38,1.268-.594,8.937-.142,10.835-.298-2.203.971-8.05-.127-9.841.696-.964.443-2.693,4.823-4.274,5.169Z"/>
      <path class="st47" d="M21.652,71.666c-.256-.998.507-.581.596-.596,1.278-.227,8.149-1.419,8.847-1.193.32.104.32.492,0,.596-2.02.656-6.43.306-8.748.795-.078.017-.48.334-.696.398Z"/>
      <g>
        <path class="st29" d="M23.044,68.485c1.299-.576-.633,1.785-.795,2.187-.033.081.017.272,0,.398-.089.016-.852-.402-.596.596-.044.013-.289.649-.696.596-.138-.018-.843-.966-.994-.994-1.618-.299-6.663,1.031-8.549.398-.166-.056-.477-.46-.497-.696-.051-.605,4.185-5.475,4.672-6.461.525-.052,4.329,5.573,4.97,5.964.956.584,1.983-1.389,2.485-1.988Z"/>
        <path class="st56" d="M15.588,65.901l3.678,4.672-6.66.497c-.166-.163-.312-.226-.298-.497.015-.285,3.073-3.883,3.28-4.672Z"/>
      </g>
    </g>
  </g>
  <g id="Generative_Object2" data-name="Generative_Object">
    <path class="st90" d="M122.08,10.01l-.994.795c-.255-.032-.536.009-.795,0-.461-.016-.93.005-1.392,0-21.321-.239-37.804,2.544-55.561,14.71-12.132,8.313-38.981,37.627-54.965,26.24l3.777-6.162c2.711,1.59,9.707-3.469,12.027-5.168,10.657-7.809,19.261-16.12,31.11-22.86,5.875-3.342,12.305-6.301,18.686-8.548,3.318-1.168,6.797-1.972,10.138-3.081-1.087-.183-1.808-2.696-.298-2.684-1.789-.532-5.373,1.522-4.671-1.392,9.656-.337,35.426,1.986,42.938,8.15Z"/>
    <path class="st27" d="M150.109,94.693l-.199.596c-5.79-.803-11.938-.357-17.294,1.888.81.928,1.02.105,1.093.099,3.63-.271,11.825-2.814,14.909,0,.614.56,1.064,1.467.895,2.286-.459,2.226-16.756,12.779-19.58,14.213-6.098,3.098-17.238,7.751-23.059,2.584-5.016,4.25-10.379,8.222-16.4,10.933l-.398-.596c1.648-.891,3.708-2.136,5.268-3.181,13.084-8.766,23.088-26.427,39.26-29.619.279-.055.214-.191.199-.398,4.264.419,7.019.217,11.132-.795l4.175,1.988Z"/>
    <path class="st71" d="M142.953,49.171c15.33,5.032,22.769,20.059,2.485,24.252-.221.046-1.034.214-.895.596-.065-.01-.134.01-.199,0-3.407-.51-6.85-.805-10.337-.398-.384.06-.627-.143-.994-.199-7.85-1.199-23.922-9.081-18.288-19.084,1.526-.157.758,1.839,1.988,2.385-.099.813.162,1.217.398,1.988.565,1.853,4.405,7.84,6.461,7.554.453-.063,4.092-4.286,4.97-4.97,4.838-3.767,10.379-4.014,16.301-4.175.36-.219.17-.546.099-.895-.237-1.174-1.483-3.361-1.789-4.274-.052-.154-.714-2.663-.199-2.783Z"/>
    <path class="st79" d="M156.669,100.855c1.772,8.4-6.367,16.426-12.623,20.873-11.782,8.376-29.918,13.118-44.329,12.325-6.035-.332-12.083-2.277-18.189-1.789-.256-.097-1.281.095-1.292-.596,1.982-.288,8.854-4.261,10.238-4.175.584.036,1.787,1.166,2.485,1.392,11.756,3.804,30.352-1.04,40.95-6.958,9.099-5.08,20.18-15.096,16.002-26.637l.199-.596c2.888,1.588,5.277,2.985,6.56,6.162Z"/>
    <path class="st31" d="M155.874,110.993c-5.228,13.62-23.865,26.626-37.968,29.222-.349.064-.627.15-.994.199-.357.048-.577.161-.994.199-3.037.274-6.3-.052-9.343-.199-4.494-.216-8.304-.67-12.722-1.392s-8.878-1.654-13.219-2.783c-1.874-.488-4.293-1.09-5.864-1.988,4.672-3.304,10.31-4.852,15.307-7.554l.398.596v.199c-1.384-.086-8.256,3.887-10.238,4.175.011.692,1.037.5,1.292.596,2.88,1.088,12.259,2.27,16.002,2.584,20.931,1.754,46.086-6.034,58.344-23.854Z"/>
    <path class="st89" d="M114.924,14.979c.188.008.204.184.398.199,5.667.425,18.445,4.382,22.86,7.951l.497,1.193c-12.194-4.316-26.182-3.732-38.962-2.584-.351.693.715.224.895.497.099.15-.07,1.175,0,1.491-4.613.514-8.257,1.778-11.331,5.367-4.683-1.098-9.289-2.728-13.716-4.572,10.452-5.59,27.455-10.048,39.36-9.542Z"/>
    <path class="st60" d="M73.974,9.016c-6.381,2.247-12.811,5.206-18.686,8.548l-3.081-8.747c-12.942,4.489-25.453,11.731-34.291,22.363-1.632,1.963-4.856,6.192-5.765,8.448l-3.181-1.59C19.965,20.833,38.706,9.696,58.27,4.841c-.05.266.311,1.845.398,1.888.567.286,10.235-2.232,12.027-2.286,1.451-.044,1.309.62,1.392.596.244-.07-.188-1.003.596-.795l1.292,4.771Z"/>
    <path class="st54" d="M115.322,14.781c-.188.015-.404-.079-.398.199-11.904-.506-28.908,3.951-39.36,9.542-12.559,6.717-18.813,15.205-29.619,23.457l-2.187-3.181c.05-.038.347-.557.398-.596,22.957-17.595,31.924-29.295,63.314-32.005,5.12-.442,10.644.225,15.605-1.193,1.048,2.681-5.918,3.633-7.753,3.777Z"/>
    <path class="st64" d="M22.687,58.911c5.91-.123,11.953.763,16.499,4.771l-1.789,1.59c-2.619-2.811-7.591-4.296-11.331-4.771-5.951-.756-13.207.181-17.493,4.771-1.188.908-4.178,3.953-4.175,5.467.002.797,1.968,4.436,2.584,5.168.971,1.154,2.111,1.747,3.379,2.485,4.819,2.805,10.215,3.323,15.704,2.385.262,1.462-.014,2.464,1.59,2.385,3.325.991,6.141,1.548,9.343,2.982l-.596,1.59c-2.547-1.375-5.947-2.153-8.747-2.584-1.79-.276-2.597-.542-4.572-.596-7.638-.212-27.61,4.538-13.12,13.319,3.408,2.065,7.77,3.375,11.728,3.777-.068,1.042-.507,1.679.199,2.584-1.108-.029-2.795-.649-3.777-.596.021-.173-.05-.181-.199-.199-6.639-.798-21.839-8.739-12.225-16.102,2.887-2.211,6.628-2.874,10.039-3.777.166-.044.549.09.596-.099-.203-.073-.41-.252-.596-.298-21.457-5.36-13.936-21.506,3.379-24.053.311-.046.754-.194.795-.199.065-.007.133.007.199,0,.372-.038,1.979.013,2.584,0Z"/>
    <path class="st79" d="M140.567,26.31c.216,1.223.191,1.112-.398,2.187-9.899,4.794-21.739,3.556-32.303,1.789l.099,1.59c-6.263-.877-12.51-1.335-18.686-2.783,3.074-3.589,6.718-4.853,11.331-5.367,3.576-.399,7.343-.277,10.933,0-1.894.163-9.982,1.034-11.231,1.789-.176.106-.516.451-.497.696.196,2.179,15.443,3.148,17.791,4.274l-.099-6.958c5.568-.14,12.415-.687,16.897,3.28-1.038.379-2.812,2.84-1.093,3.28,1.421.364,6.566-2.084,7.256-3.777Z"/>
    <path class="st34" d="M69.998,157.112c.951-1.184.393-3.157.795-4.572.361.039.43-.234.795-.199,17.814,1.738,36.18.142,52.281-7.951.839-.354,1.552-.31,2.385-.994h.199c-2.016,3.096-7.64,5.606-11.231,7.156-14.162,6.113-29.895,8.465-45.224,6.56Z"/>
    <path class="st33" d="M58.469,132.86c-.509.417,1.031.591,1.093.596,3.097.264,6.197.485,9.244-.199.189.032.408-.033.596,0l-.994,1.59c-.065-.007-.133.005-.199,0-1.644-.121-5.872.229-7.653.398-7.161.678-13.271,2.088-18.785,6.958-1.718-.875-3.432-1.653-4.87-2.982l-.497.497c4.538,4.065,11.016,6.425,16.797,8.25,1.362.43,3.8.684,4.97,1.193.841.366.586.092.497.994-6.151-1.437-19.632-5.625-23.457-10.635-.257-.336-.5-1.264-.696-1.69-.508.174-.314,1.372-.298,1.789-1.399-1.572.872-4.032,2.087-4.97,1.876-1.447,4.321-2.146,6.659-2.385.342-.035.453.053.398-.398,4.86.828,10.16,1.867,15.108.994Z"/>
    <path class="st74" d="M58.667,150.154c3.711.867,8.781,2.026,12.126,2.385-.402,1.415.156,3.388-.795,4.572-8.081-1.004-35.381-7.141-35.782-17.493-.016-.417-.21-1.615.298-1.789.195.425.439,1.353.696,1.69,3.825,5.01,17.305,9.198,23.457,10.635Z"/>
    <path class="st31" d="M64.432,127.095c.118,2.311-1.248,3.78-3.181,4.771-.052.027-.144-.026-.199,0-.595.277-2.008.892-2.584.994-4.948.873-10.248-.166-15.108-.994-.125-.021-.273.022-.398,0-6.831-1.211-25.746-5.887-28.824-12.325,8.111,4.87,18.925,7.643,28.327,8.945,6.77.938,15.92,2.054,21.966-1.392Z"/>
    <path class="st73" d="M43.758,44.797l2.187,3.181c-7.175,5.479-14.134,9.279-23.258,10.536-.827.114-1.824.115-2.584.398-.066.007-.133-.007-.199,0h-.795c-5.618,0-9.968-1.051-12.524-6.361,4.615,4.332,12.197,3.863,17.99,2.584,6.632-1.464,13.804-6.26,19.183-10.337Z"/>
    <path class="st83" d="M33.223,104.433c.224.344.316.535-.099.795-2.633,1.65-9.202.979-10.834,5.268.337.722,12.124.105,13.716-.099.051.282-.118,1.049.099,1.193.549.363,11.552-2.082,12.424-3.777.551,3.415-5.064,4.067-7.355,4.97-4.998-.226-11.827,1.104-17.593.994-1.846-.035-4.497-.901-6.262-.596-2.318-1.163-12.111-2.837-6.56-6.56-3.223,3.256,4.102,4.566,6.262,5.168.248-.09.496-2.156.497-2.485,0-.058-.773-.331-.596-.994.214-.803,4.146-1.704,4.572-2.684,3.947-.272,7.816-.618,11.728-1.193Z"/>
    <path class="st79" d="M15.332,114.373c2.478,1.064,5.314.789,7.951.795-.052.495-.015.648.497.795.627.181,5.212.739,6.063.795-.652,1.051-5.002.257-5.367,1.093-.196.449.332,2.491.696,2.882.916.988,2.478.528,3.479.596-.148.678.404.629.895.795,4.105,1.396,8.918,2.388,13.219,2.982.08.356-.112,1.503,0,1.69.055.092,2.264.35,1.491,1.093-6.061-1.23-26.994-4.637-29.917-10.039-.266-.492-.162-1.275-.596-1.69.456-1.164.664-1.133,1.59-1.789Z"/>
    <path class="st79" d="M138.182,23.13c1.181.955,2.12,1.674,2.385,3.181-.69,1.693-5.835,4.14-7.256,3.777-1.719-.44.055-2.901,1.093-3.28-4.481-3.967-11.329-3.42-16.897-3.28-1.911.048-4.078.036-5.964.199-3.59-.277-7.357-.399-10.933,0-.07-.316.099-1.341,0-1.491-.18-.273-1.246.196-.895-.497,12.78-1.147,26.768-1.731,38.962,2.584l-.497-1.193Z"/>
    <path class="st12" d="M118.9,10.805c-.271.511-2.152.568-2.684.596-17.457.941-29.699,1.775-45.323,10.536-10.452,5.861-18.249,14.125-27.532,21.27-6.028,4.639-13.943,9.907-21.568,11.132-5.184.833-12.769.919-16.002-3.976-.231-1.069-.338-1.427-.398-2.584.633,2.01,1.324,2.795,2.982,3.976,15.983,11.388,42.833-17.927,54.965-26.24,17.757-12.167,34.24-14.949,55.561-14.71Z"/>
    <path class="st31" d="M145.935,92.705c-4.113,1.012-6.868,1.214-11.132.795-.066-.006-.133.007-.199,0-2.346-.252-4.359-.766-6.56-1.59l.795-2.187c6.265,2.417,17.271,2.272,22.761-1.988,7.217-5.599-.905-11.42-6.858-11.927-.057-.197-.132-.336-.199-.596-.114-.443-.074-.794-.199-1.193.065.01.134-.01.199,0,16.177,2.621,17.926,14.616,1.392,18.686Z"/>
    <path class="st29" d="M123.074,11.004c-4.96,1.418-10.485.751-15.605,1.193-31.389,2.71-40.356,14.41-63.314,32.005l-.795-.994c9.283-7.145,17.08-15.41,27.532-21.27,15.625-8.761,27.866-9.594,45.323-10.536.532-.029,2.413-.086,2.684-.596.461.005.931-.016,1.392,0-.134.634.73.025,1.292.199.224-.3-.328-.177-.497-.199l.994-.795c.334.274.828.571.994.994Z"/>
    <path class="st83" d="M155.874,110.993c-12.258,17.82-37.413,25.609-58.344,23.854-3.744-.314-13.122-1.496-16.002-2.584,6.106-.488,12.154,1.457,18.189,1.789,14.411.793,32.547-3.949,44.329-12.325,6.256-4.447,14.395-12.473,12.623-20.873,1.621,4.014.668,6.326-.795,10.138Z"/>
    <path class="st62" d="M79.142,1.859c-.701,2.914,2.883.859,4.671,1.392-1.509-.012-.789,2.501.298,2.684-3.341,1.11-6.82,1.913-10.138,3.081l-1.292-4.771c-.784-.208-.352.725-.596.795-.082.024.059-.64-1.392-.596-1.792.054-11.46,2.572-12.027,2.286-.086-.043-.448-1.622-.398-1.888,6.809-1.69,13.85-2.737,20.873-2.982Z"/>
    <path class="st83" d="M42.764,125.107c2.23.308,4.505.494,6.759.596.07.391-.14,1.818.099,1.988.464.329,10.455.05,11.331-.398,1.062-.543,1.183-2.421,2.286-2.982.616,1.092,1.117,1.303,1.193,2.783-6.046,3.446-15.196,2.33-21.966,1.392-9.402-1.303-20.216-4.076-28.327-8.945-.442-.925-.549-1.119-.596-2.187v-.199c.04-.476.013-.521.199-.994.434.414.33,1.198.596,1.69,2.923,5.401,23.857,8.809,29.917,10.039.773-.743-1.436-1.001-1.491-1.093-.112-.187.08-1.333,0-1.69Z"/>
    <path class="st79" d="M142.953,34.659c.348.332.794.436.596,1.093-.384,1.282-9.19,2.687-10.734,2.882-.449.057-.941-.053-1.392,0l-4.97-.795c.695-1.129,4.284-.508,3.777-2.485-.371-1.448-3.63-.381-3.976-1.69,3.423-.012,7.424-.143,10.834-.398.323-.024.723-.068.895-.398,1.831.457,3.411.762,4.97,1.789Z"/>
    <path class="st62" d="M12.151,39.629c-.649,1.612-1.839,4.886,0,5.964l-3.777,6.162c-1.657-1.181-2.349-1.966-2.982-3.976-.003-.066.002-.133,0-.199-.012-.392-.013-.8,0-1.193.123-3.768,1.605-5.261,3.578-8.349l3.181,1.59Z"/>
    <path class="st89" d="M140.17,28.497c-1.174,2.145-3.727,2.949-5.964,3.479,1.14.534,2.567.592,3.777.895-.172.329-.571.373-.895.398-3.41.255-7.411.386-10.834.398-3.835.013-7.696-.354-11.53-.398-1.865-.021-4.469-.36-6.162-.199l1.988-.696c-.853-.135-1.736-.378-2.584-.497l-.099-1.59c10.564,1.767,22.404,3.005,32.303-1.789Z"/>
    <path class="st33" d="M43.361,43.207l.795.994c-.051.039-.348.559-.398.596-5.379,4.077-12.551,8.873-19.183,10.337-5.794,1.279-13.375,1.748-17.99-2.584-.43-.893-.582-1.199-.795-2.187,3.234,4.894,10.819,4.808,16.002,3.976,7.626-1.225,15.541-6.493,21.568-11.132Z"/>
    <path class="st89" d="M137.983,47.58c-.066.005-.133-.004-.199,0-.158.011-.365.177-.795.199-.784.04-2.169-.22-3.181-.199l-.099-.795-2.485.099c.263-.948,1.878-.324,2.584-.497.612.034.33.382.497.398,1.829.174,2.148-.344,3.479-.596.008.647,1.526.425,1.888.398,1.351-.103,9.706-1.391,9.84-2.684.199-1.917-9.237-2.931-10.734-3.081s-3.57-.369-5.566-.398c-.305-.69-.751-1.033-.398-1.789,1.545-.195,10.35-1.601,10.734-2.882.197-.658-.248-.762-.596-1.093.132.087,1.018.112,1.193.696.654,2.184-4.423,3.235-5.964,3.578,2.919,1.343,7.013,1.572,9.84,2.882.83.385,2.298,1.052,2.286,2.087-.25,2.171-10.404,3.537-12.325,3.678Z"/>
    <path class="st79" d="M21.494,105.626c-.426.979-4.358,1.881-4.572,2.684-.176.663.597.936.596.994,0,.329-.249,2.395-.497,2.485-2.16-.602-9.485-1.912-6.262-5.168.623-.629.809-.477,1.392-.795,3.089.505,6.254.014,9.343-.199Z"/>
    <path class="st89" d="M41.174,112.782c.398.018,1.067.347,1.392.398-.694.36-1.63.641-2.385.795-5.372,1.098-11.415,1.205-16.897,1.193-2.637-.006-5.474.269-7.951-.795.393-.279,1.612-1.128,1.988-1.193,1.765-.305,4.416.561,6.262.596,5.766.11,12.595-1.22,17.593-.994Z"/>
    <path class="st31" d="M36.006,102.843c.193-.005,1.52.335,1.988.398-.598.744-2.11.847-2.982.994-.596.101-1.205.113-1.789.199-3.912.575-7.781.921-11.728,1.193-3.089.213-6.254.704-9.343.199.899-.492,4.927-2.116,5.765-2.187.066-.006.133.004.199,0,.982-.052,2.669.567,3.777.596,2.593.068,5.042.263,7.653,0,1.918-.193,4.971-1.356,6.461-1.392Z"/>
    <path class="st29" d="M137.983,47.978c1.755.442,3.041.56,4.97,1.193-.516.12.147,2.629.199,2.783-1.02-.6-6.64-1.791-6.759-2.485-.015-.088.653-1.361.596-1.69.43-.022.637-.188.795-.199-.018.217-.08.327.199.398Z"/>
    <path class="st46" d="M116.912,140.414c.099.338.706.196.994.199,2.56.023,5.535.236,7.554,1.193-3.314.129-6.621.187-9.939.199l.398-1.392c.417-.038.637-.151.994-.199Z"/>
    <path class="st61" d="M125.46,141.805c.285.135.554.169.795.398-.247-.02-.185.194-.199.199-4.157.331-8.356.217-12.524.199v-.596c.66.005,1.328.002,1.988,0,3.319-.011,6.626-.07,9.939-.199Z"/>
    <path class="st53" d="M126.652,142.799c-.056.42-.096.258-.199.398-.008.011-.187.189-.199.199-.834.684-1.546.64-2.385.994-.812.342-5.022,2.144-5.467,2.187-.336.032-.782-.551-1.491-.398,3.064-.724,6.325-2.845,9.144-3.777.013-.004-.048-.219.199-.199l.398.596Z"/>
    <path class="st61" d="M117.906,140.215v.398c-.288-.003-.895.139-.994-.199.367-.049.645-.135.994-.199Z"/>
    <path class="st12" d="M5.393,47.58v-1.193c-.013.392-.012.8,0,1.193Z"/>
    <path class="st61" d="M126.652,142.799l-.398-.596c.254.242.466.086.398.596Z"/>
    <path class="st61" d="M19.904,58.911c-.041.005-.484.153-.795.199v-.199h.795Z"/>
    <path class="st61" d="M43.361,131.866c.056.451-.055.363-.398.398v-.398c.125.022.272-.021.398,0Z"/>
    <path class="st61" d="M15.729,83.561v-.398c.186.046.393.225.596.298-.047.189-.431.056-.596.099Z"/>
    <path class="st61" d="M13.543,117.354c-.007-.16-.016-.012,0-.199v.199Z"/>
    <path class="st61" d="M137.983,47.978c-.279-.07-.217-.18-.199-.398.066-.004.133.005.199,0v.398Z"/>
    <path class="st61" d="M126.454,143.395h-.199c.012-.009.19-.187.199-.199v.199Z"/>
    <path class="st61" d="M115.322,14.781v.398c-.193-.014-.21-.191-.398-.199-.006-.278.21-.184.398-.199Z"/>
    <path class="st61" d="M18.115,103.638c-.066.004-.133-.006-.199,0v-.199c.149.018.22.026.199.199Z"/>
    <path class="st90" d="M55.288,17.564c-11.85,6.74-20.453,15.052-31.11,22.86-2.32,1.7-9.315,6.758-12.027,5.168-1.839-1.078-.649-4.352,0-5.964.909-2.257,4.133-6.485,5.765-8.448,8.838-10.632,21.349-17.875,34.291-22.363l3.081,8.747Z"/>
    <path class="st53" d="M121.086,10.805c.169.021.721-.101.497.199-.563-.173-1.426.435-1.292-.199.259.009.541-.032.795,0Z"/>
    <path class="st21" d="M149.91,95.289c4.177,11.542-6.904,21.557-16.002,26.637-10.598,5.917-29.194,10.761-40.95,6.958-.698-.226-1.901-1.355-2.485-1.392v-.199c6.02-2.711,11.384-6.683,16.4-10.933,5.821,5.166,16.961.514,23.059-2.584,2.824-1.435,19.121-11.988,19.58-14.213.169-.819-.281-1.726-.895-2.286-3.084-2.814-11.279-.271-14.909,0-.073.005-.283.828-1.093-.099,5.356-2.246,11.504-2.692,17.294-1.888Z"/>
    <path class="st91" d="M133.809,47.58c1.012-.021,2.397.239,3.181.199.057.329-.612,1.601-.596,1.69.119.693,5.739,1.884,6.759,2.485.306.913,1.552,3.1,1.789,4.274.07.348.26.676-.099.895-5.921.16-11.462.407-16.301,4.175-.877.683-4.516,4.907-4.97,4.97-2.055.286-5.895-5.701-6.461-7.554,3.333-.572,6.267-2.511,9.641-2.982,4.035-.563,10.416.593,13.716-.199,5.382-1.292-2.843-4.747-4.572-5.168-5.134-1.25-18.337-.599-19.183,6.361-1.23-.546-.462-2.542-1.988-2.385,2.088-3.708,7.225-5.6,11.132-6.361.279-.054.214-.191.199-.398,2.466.126,5.266.052,7.753,0Z"/>
    <path class="st90" d="M117.111,58.712c-.235-.771-.496-1.175-.398-1.988.845-6.96,14.049-7.611,19.183-6.361,1.729.421,9.954,3.876,4.572,5.168-3.3.792-9.681-.364-13.716.199-3.374.471-6.308,2.41-9.641,2.982Z"/>
    <path class="st83" d="M144.344,74.019c.124.398.085.75.199,1.193-6.423-.483-14.363-1.405-19.481,3.181-2.54,1.505-3.404,2.851-2.584,5.765.256.909.427,1.242.994,1.988-.801-.016-1.666.799-2.187,1.392-6.108-7.734,5.469-12.775,11.728-13.716.329-.05.82-.178.994-.199,3.487-.408,6.93-.113,10.337.398Z"/>
    <path class="st61" d="M134.007,73.621c-.174.02-.665.149-.994.199v-.398c.367.056.61.259.994.199Z"/>
    <path class="st62" d="M74.769,134.251c1.571.898,3.99,1.5,5.864,1.988,4.341,1.129,8.789,2.059,13.219,2.783l-1.59,1.193c-1.796-.288-3.577-.642-5.367-.994-5.627-1.107-13.242-3.839-18.487-4.373l.994-1.59c1.46.251,4.108,1.411,5.367.994Z"/>
    <path class="st90" d="M106.575,140.414l-.199,1.392c-4.886-.272-9.303-.819-14.114-1.59l1.59-1.193c4.418.722,8.229,1.175,12.722,1.392Z"/>
    <path class="st49" d="M115.918,140.612l-.398,1.392c-.66.002-1.328.005-1.988,0-2.403-.019-4.758-.065-7.156-.199l.199-1.392c3.043.147,6.306.473,9.343.199Z"/>
    <path class="st43" d="M37.397,65.272c7.183,7.71-4.531,14.344-11.331,15.505-5.489.938-10.885.42-15.704-2.385,2.386-2.186,4.132-4.889,6.659-6.958,1.526-1.249,11.951-7.325,12.027-8.051.08-.772-2.609-1.906-3.181-2.087l.199-.795c3.739.475,8.712,1.96,11.331,4.771Z"/>
    <path class="st51" d="M36.403,87.735c.219.119.785.458.994.596.023.016.182.237.398.398,7.836,5.839-.175,11.196-6.461,12.524-3.12.659-6.477.719-9.641.398-3.959-.402-8.321-1.712-11.728-3.777,1.523-.738,2.982-1.628,4.373-2.584,4.014,1.176,8.229-2.592,11.828-4.175,2.086-.917,4.377-1.534,6.56-2.187-1.62-1.244-3.959-1.955-5.069-3.777,2.799.431,6.2,1.209,8.747,2.584Z"/>
    <path class="st62" d="M25.868,61.297c.571.181,3.261,1.315,3.181,2.087-.076.726-10.501,6.802-12.027,8.051-2.528,2.069-4.273,4.772-6.659,6.958-1.268-.738-2.409-1.331-3.379-2.485-.616-.733-2.582-4.372-2.584-5.168-.004-1.513,2.987-4.559,4.175-5.467,4.404-3.366,11.926-5.681,17.294-3.976Z"/>
    <path class="st62" d="M23.085,84.555c.856.819,5.21.602,4.373,2.485-.392.882-7.496,4.229-8.846,5.069-1.507.937-2.829,2.187-4.274,3.181-1.392.957-2.85,1.846-4.373,2.584-14.49-8.78,5.482-13.53,13.12-13.319Z"/>
    <path class="st15" d="M36.006,102.843c-1.49.035-4.543,1.198-6.461,1.392-2.612.263-5.06.068-7.653,0-.706-.906-.267-1.543-.199-2.584,3.164.321,6.521.261,9.641-.398,6.285-1.327,14.297-6.685,6.461-12.524.122-.68.577-1.365,1.193-1.59,9.316,5.549,5.531,12.498-2.982,15.704Z"/>
    <path class="st85" d="M27.657,83.163c-1.605.079-1.329-.924-1.59-2.385,6.8-1.162,18.514-7.795,11.331-15.505l1.789-1.59c9.547,8.418-2.937,19.06-11.53,19.481Z"/>
    <path class="st90" d="M27.657,85.151c1.11,1.822,3.449,2.533,5.069,3.777-2.183.653-4.474,1.27-6.56,2.187-3.599,1.583-7.814,5.35-11.828,4.175,1.445-.993,2.767-2.243,4.274-3.181,1.35-.84,8.454-4.187,8.846-5.069.836-1.883-3.517-1.666-4.373-2.485,1.975.055,2.782.321,4.572.596Z"/>
    <path class="st62" d="M26.066,60.501l-.199.795c-5.368-1.706-12.89.61-17.294,3.976,4.287-4.59,11.542-5.526,17.493-4.771Z"/>
    <path class="st15" d="M38.192,86.741c-.195.659-1.08,1.176-.795,1.59-.209-.138-.774-.478-.994-.596l.596-1.59c.445.199.768.371,1.193.596Z"/>
    <path class="st61" d="M22.687,58.514v.398c-.605.013-2.212-.038-2.584,0,.76-.282,1.758-.284,2.584-.398Z"/>
    <path class="st83" d="M117.508,23.527l.099,6.958c-2.348-1.125-17.596-2.095-17.791-4.274-.019-.245.321-.59.497-.696,1.25-.755,9.338-1.626,11.231-1.789s4.052-.151,5.964-.199Z"/>
    <path class="st53" d="M41.77,142.203c9.554,4.867,18.386,6.718,29.023,7.753,11.885,1.156,23.594.848,35.384-1.193-7.835,1.7-15.669,2.814-24.153,2.783-1.532-.006-8.801-.877-9.542-.596-.077.029-.804,1.179-.895,1.392-.365-.036-.434.238-.795.199-3.345-.359-8.415-1.518-12.126-2.385.089-.902.344-.628-.497-.994-1.17-.509-3.608-.763-4.97-1.193-5.782-1.825-12.259-4.184-16.797-8.25l.497-.497c1.438,1.328,3.152,2.107,4.87,2.982Z"/>
    <path class="st60" d="M123.869,144.389c-16.101,8.093-34.467,9.689-52.281,7.951.091-.212.817-1.362.895-1.392.74-.28,8.01.591,9.542.596,8.484.031,16.318-1.083,24.153-2.783,3.606-.782,7.142-1.806,10.734-2.584.709-.153,1.155.43,1.491.398.444-.043,4.655-1.844,5.467-2.187Z"/>
    <path class="st77" d="M68.209,134.848c-3.103,3.891-.218,6.277,1.193,9.741.696,1.709,1.346,3.497,1.392,5.367-10.636-1.035-19.468-2.886-29.023-7.753,5.514-4.869,11.624-6.28,18.785-6.958,1.781-.168,6.009-.519,7.653-.398Z"/>
    <path class="st60" d="M86.895,139.221c-1.079,1.038,2.993.921,3.479,1.392l-.696.596c-1.023.214-2.521.965-3.678,1.193-5.468,1.075-11.006,2.029-16.599,2.187-1.411-3.463-4.296-5.85-1.193-9.741.066.005.133-.007.199,0,5.245.534,12.861,3.267,18.487,4.373Z"/>
    <path class="st37" d="M61.252,132.065c2.57.304,5.015.769,7.554,1.193-3.047.683-6.146.463-9.244.199-.062-.005-1.603-.179-1.093-.596.576-.102,1.989-.716,2.584-.994-.021.173.05.181.199.199Z"/>
    <path class="st61" d="M134.604,93.898v-.398c.066.007.133-.006.199,0,.016.207.08.342-.199.398Z"/>
    <path class="st61" d="M125.857,47.978v-.398c.066.003.133-.003.199,0,.015.206.08.343-.199.398Z"/>
    <path class="st61" d="M61.252,132.065c-.149-.018-.22-.026-.199-.199.055-.026.147.027.199,0v.199Z"/>
    <path class="st14" d="M35.012,104.235c1.251.551,9.228,1.896,9.542,3.081.426,1.609-7.335,2.925-8.548,3.081-1.593.204-13.38.821-13.716.099,1.632-4.289,8.201-3.618,10.834-5.268.416-.261.324-.451.099-.795.584-.086,1.194-.098,1.789-.199Z"/>
    <path class="st35" d="M48.529,107.813c-.872,1.695-11.875,4.14-12.424,3.777-.217-.144-.049-.911-.099-1.193,1.213-.156,8.974-1.473,8.548-3.081-.314-1.185-8.291-2.53-9.542-3.081.872-.147,2.384-.25,2.982-.994,2.175.291,10.145,2.149,10.536,4.572Z"/>
    <path class="st40" d="M61.252,121.728c-1.869,4.714-7.582,4.164-11.728,3.976-2.254-.102-4.528-.288-6.759-.596-4.301-.594-9.114-1.586-13.219-2.982-.49-.167-1.042-.117-.895-.795,3.959.271,21.46.758,23.457-2.882.616-1.124-6.004-3.232-6.858-3.28-.88-.05-1.196.421-2.087.596-.402-1.246-2.036-1.109-2.982-1.789.756-.155,1.691-.435,2.385-.795,6.345.994,14.276,3.781,18.686,8.548Z"/>
    <path class="st26" d="M28.651,121.33c-1.001-.069-2.563.391-3.479-.596-.363-.392-.892-2.433-.696-2.882.365-.836,4.716-.043,5.367-1.093,4.621.307,8.865-.117,13.319-.994.891-.175,1.207-.646,2.087-.596.854.048,7.474,2.156,6.858,3.28-1.997,3.641-19.498,3.154-23.457,2.882Z"/>
    <path class="st79" d="M40.18,113.975c.946.68,2.58.543,2.982,1.789-4.454.877-8.698,1.301-13.319.994-.851-.057-5.436-.614-6.063-.795-.512-.148-.549-.3-.497-.795,5.482.012,11.525-.095,16.897-1.193Z"/>
    <path class="st36" d="M128.839,89.723c-.585-.226-.782-.496-.994-.596,1.573-.86,2.47-2.642,3.876-3.777,4.341-3.502,10.197-3.935,15.108-6.361l.298-.497c-.62-.516-1.255-.948-1.988-1.292-.196-.445-.262-.924-.398-1.392,5.953.507,14.075,6.328,6.858,11.927-5.491,4.26-16.496,4.405-22.761,1.988Z"/>
    <path class="st83" d="M123.472,86.145c1.268,1.669,2.567,2.127,4.373,2.982.212.1.409.371.994.596l-.795,2.187c-2.534-.95-5.044-2.202-6.759-4.373.52-.593,1.386-1.407,2.187-1.392Z"/>
    <path class="st35" d="M144.543,75.212c.067.26.141.399.199.596.136.468.202.947.398,1.392-.054-.025-.143.024-.199,0-5.569-2.456-14.623-1.921-19.879,1.193,5.118-4.585,13.058-3.663,19.481-3.181Z"/>
    <path class="st83" d="M63.239,124.312c-1.103.561-1.224,2.439-2.286,2.982-.876.448-10.867.727-11.331.398-.239-.17-.029-1.597-.099-1.988,4.147.188,9.859.738,11.728-3.976.833.9,1.375,1.497,1.988,2.584Z"/>
    <path class="st83" d="M126.255,33.665c.345,1.309,3.605.241,3.976,1.69.507,1.977-3.082,1.356-3.777,2.485-.066-.007-.133.007-.199,0-2.604-.274-5.172-.551-7.753-.994-1.415-.243-7.177-1.144-8.051-1.59-2.43-1.24,4.917-.851,4.274-1.988,3.833.044,7.694.411,11.53.398Z"/>
    <path class="st31" d="M118.105,38.039c2.05.179,5.58.691,7.454.596.691-.035.778.048.696-.795.066.007.133-.007.199,0l4.97.795c-4.396.516-8.905.821-13.319,1.193-.8.067-2.027.214-2.783,0,.375-.143,1.391-.108,1.093-.596-1.144-.231-2.344-.349-3.479-.596l-1.292-1.392c2.151.213,4.311.607,6.461.795Z"/>
    <path class="st83" d="M131.423,38.635c.45-.053.942.057,1.392,0-.353.756.093,1.099.398,1.789-3.578-.052-8.634-.011-12.126.398.074-1.408-2.643.114-2.982-.994,4.414-.372,8.923-.677,13.319-1.193Z"/>
    <path class="st83" d="M108.563,33.069c1.694-.162,4.297.177,6.162.199.643,1.137-6.703.747-4.274,1.988.874.446,6.635,1.347,8.051,1.59l-.398,1.193c-2.15-.188-4.309-.582-6.461-.795l1.292,1.392c-1.422-.31-7.944-1.496-8.349-2.882-.525-1.796,2.625-2.555,3.976-2.684Z"/>
    <path class="st9" d="M118.105,39.828c.338,1.108,3.056-.414,2.982.994-11.962,1.399-2.696,4.26,2.584,4.97,3.283.442,5.956.287,9.144.398.414.014.935.196.994.199-.706.173-2.321-.451-2.584.497l2.485-.099.099.795c-2.487.052-5.286.126-7.753,0-.066-.003-.133.003-.199,0-2.804-.145-14.165-1.134-15.307-3.876-.979-2.353,3.32-3.325,4.771-3.876.756.214,1.983.067,2.783,0Z"/>
    <path class="st83" d="M138.778,40.822c-.565.712,1.006.223,1.193.497.056.082-.302.571-.199.994.107.437,1.176,3.352.994,3.578-.931.364-2.054.122-2.982.298-1.331.253-1.649.77-3.479.596-.167-.016.115-.364-.497-.398-.059-.003-.58-.184-.994-.199v-1.392c.382-.072,2.585-.648,2.584-1.093-1.065-.854-1.643-2.049-2.187-3.28,1.996.029,4.065.247,5.566.398Z"/>
    <path class="st79" d="M137.784,46.189c.928-.176,2.051.065,2.982-.298.182-.226-.887-3.141-.994-3.578-.103-.423.254-.912.199-.994-.186-.274-1.758.215-1.193-.497,1.498.15,10.933,1.164,10.734,3.081-.134,1.292-8.489,2.581-9.84,2.684-.362.028-1.881.249-1.888-.398Z"/>
    <path class="st67" d="M113.532,142.6c4.168.018,8.367.133,12.524-.199-2.819.932-6.08,3.053-9.144,3.777-3.593.778-7.129,1.802-10.734,2.584-11.79,2.041-23.499,2.349-35.384,1.193-.046-1.87-.695-3.658-1.392-5.367,5.593-.158,11.131-1.112,16.599-2.187,1.156-.227,2.654-.978,3.678-1.193,3.546-.743,8.047.88,11.828,1.193,3.982.329,8.034.182,12.027.199Z"/>
    <path class="st60" d="M92.262,140.215c4.811.772,9.228,1.318,14.114,1.59,2.398.134,4.753.18,7.156.199v.596c-3.992-.017-8.045.13-12.027-.199-3.78-.312-8.282-1.935-11.828-1.193l.696-.596c-.485-.47-4.558-.353-3.479-1.392,1.79.352,3.571.706,5.367.994Z"/>
    <path class="st64" d="M38.987,87.139c-.616.225-1.071.911-1.193,1.59-.215-.16-.374-.382-.398-.398-.285-.414.6-.931.795-1.59.255.135.464.2.795.398Z"/>
    <path class="st35" d="M127.845,89.127c-1.806-.855-3.105-1.313-4.373-2.982-.567-.746-.738-1.079-.994-1.988,3.233-1.12,6.318-2.901,9.641-3.777,2.507-.661,10.906-1.239,12.126-1.988.359-.22.666-.764.696-1.193.056.024.145-.025.199,0,.732.344,1.368.776,1.988,1.292l-.298.497c-4.911,2.426-10.767,2.86-15.108,6.361-1.407,1.135-2.303,2.917-3.876,3.777Z"/>
    <path class="st55" d="M144.941,77.2c-.03.429-.337.972-.696,1.193-1.22.749-9.619,1.327-12.126,1.988-3.323.876-6.408,2.657-9.641,3.777-.819-2.914.044-4.26,2.584-5.765,5.255-3.114,14.309-3.649,19.879-1.193Z"/>
    <path class="st79" d="M126.255,37.84c.082.844-.005.76-.696.795-1.875.095-5.405-.417-7.454-.596l.398-1.193c2.581.443,5.149.72,7.753.994Z"/>
    <path class="st55" d="M133.212,40.424c.544,1.231,1.121,2.426,2.187,3.28,0,.445-2.202,1.021-2.584,1.093-2.566.484-5.996.235-8.647.199l-.497.795c-5.28-.71-14.546-3.571-2.584-4.97,3.492-.408,8.548-.449,12.126-.398Z"/>
    <path class="st9" d="M132.815,44.797v1.392c-3.188-.111-5.861.044-9.144-.398l.497-.795c2.651.036,6.082.286,8.647-.199Z"/>
  </g>
</svg>