<?xml version="1.0" encoding="UTF-8"?>
<svg id="Layer_1" xmlns="http://www.w3.org/2000/svg" version="1.1" viewBox="0 0 160 160">
  <!-- Generator: Adobe Illustrator 29.8.2, SVG Export Plug-In . SVG Version: 2.1.1 Build 3)  -->
  <defs>
    <style>
      .st0 {
        fill: #a30518;
      }

      .st1 {
        fill: #a20505;
      }

      .st2 {
        fill: #d62d2d;
      }

      .st3 {
        fill: #fa4949;
      }

      .st4 {
        fill: #d40f22;
      }

      .st5 {
        fill: #ba081a;
      }

      .st6 {
        fill: #be1c1c;
      }

      .st7 {
        fill: #eb1528;
      }

      .st8 {
        fill: #c60a1d;
      }

      .st9 {
        fill: #f81a2b;
      }

      .st10 {
        fill: #f34343;
      }
    </style>
  </defs>
  <path class="st10" d="M155.083,78.918c7.44,7.996-6.232,14.52-13.154,15.229-8.244,1.485-19.026-2.897-21.978-7.695-4.021-7.032,5.543-10.907,11.476-12.345,7.365-1.929,18.367-.16,23.46,4.624l.196.186Z"/>
  <path class="st2" d="M154.896,69.165c-6.012,5.847-19.365,6.234-27.629,3.141-9.646-2.782-19.978-13.627-9.191-21.302,10.182-6.872,27.199-2.975,35.274,4.378,4.052,3.432,5.97,9.535,1.736,13.591l-.19.192Z"/>
  <path class="st6" d="M149.514,44.676c-3.556,3.154-14.778,3.859-21.067,3.474-3.047-.071-24.569-2.254-17.164-6.662,9.491-4.049,24.249-3.109,33.078-.727,1.686.584,6.355,1.543,5.24,3.802l-.088.113Z"/>
  <path class="st3" d="M155.397,99.156c4.696,7.016-.989,15.992-5.816,21.749-11.806,14.702-34.324,22.826-54.163,22.09-7.296-.378-19.008-.553-24.061-4.447-3.165-3.576,17.948-10.868,20.994-13.605,13.408-7.883,20.666-20.962,33.738-27.738,8.712-4.771,22.318-6.729,29.161,1.743l.148.207Z"/>
  <path class="st5" d="M142.606,34.537c5.7,3.175-6.715,4.757-8.918,5.008-6.71.89-16.239.379-22.209-.765-17.064-3.508-.801-6.912,7.255-6.985,6.924-.333,18.386.326,23.658,2.64l.214.102Z"/>
  <path class="st1" d="M140.329,28.999c-8.038,7.826-27.886,3.853-39.959,2.314-7.142-1.004-29.23-4.634-28.476-10.674,4.296-6.754,29.352-6.938,37.655-6.079,7.816.478,33.338,6.008,30.862,14.298l-.083.14Z"/>
  <path class="st9" d="M119.08,8.843c14.071,6.343-12.376,6.409-16.956,7.535-6.683.805-13.372,2.194-19.61,4.645-6.929,2.673-13.351,6.537-19.096,11.23-8.043,6.58-14.141,14.094-22.554,19.372-9.067,5.679-22.442,10.853-32.157,4.631-9.958-7.274.353-19.503,6.335-26.274C38.828,2.828,84.573-5.423,118.841,8.735l.239.108Z"/>
  <path class="st0" d="M68.14,133.486c11.419,2.758,25.972,7.263,38.919,7.264,3.318.54,21.487-1.031,20.064,2.72-.485.863-1.447,1.586-2.427,2.238-4.635,3.053-15.898,7.882-26.659,10.2-13.134,2.815-26.724,2.496-40.303-.742-41.167-11.164-23.951-31.083,10.037-21.767l.369.087Z"/>
  <path class="st1" d="M69.221,24.368c-.092.085-.813.828-.727.705.011-.06.67-.719.724-.727l.004.023Z"/>
  <path class="st1" d="M67.238,26.354c.063-.084,1.18-1.202,1.11-1.091.013.051-.919.994-1.08,1.086l-.03.005Z"/>
  <path class="st5" d="M64.108,128.296c-1.598,13.218-56.336-2.23-51.2-12.38,8.933-9.38,50.963-1.84,51.236,12.184l-.036.196Z"/>
  <path class="st8" d="M46.253,106.295c6.732,4.168-6.586,6.877-9.728,7.443-6.905,1.323-16.22.428-21.89-1.043-15.206-4.131-.561-8.659,7.295-9.424,6.983-1.02,18.738.192,24.103,2.906l.221.119Z"/>
  <path class="st7" d="M7.848,63.759c9.032-6.342,25.478-7.159,32.803,2.105,6.928,10.386-8.696,18.413-20.284,17.919-11.332.269-26.508-9.985-12.789-19.836l.27-.188Z"/>
  <path class="st4" d="M40.514,88.52c10.684,7.815-4.517,16.199-12.456,16.159-8.917,1.21-24.251-4.664-25.733-10.839-1.239-6.132,6.391-8.386,11.448-9.654,8.021-1.954,20.125-.173,26.482,4.155l.259.178Z"/>
</svg>