<svg xmlns="http://www.w3.org/2000/svg" viewBox="0 0 504.5 504.9"><g fill="#000000" class="jsopx-icon-wrapper"><path d="M294.76,175.11h-20.88v37.73h20.53c6.07,0,10.7-1.53,13.88-4.58,3.18-3.05,4.78-7.37,4.78-12.94,0-6.11-1.64-10.99-4.91-14.64-3.27-3.65-7.73-5.51-13.39-5.57Z"></path><path d="M140.77,387.75c-1.13-.6-2.36-.95-3.38-1.13-.49-.09-.88-.12-1.12-.15-.09-.01-.16-.01-.19-.01H35.75c-2.72,0-4.21.69-5.04,1.29-.88.63-1.58,1.53-2.13,2.71-.56,1.21-.88,2.52-1.05,3.62-.09.53-.12.94-.15,1.19,0,.11,0,.18-.01.21v53.57c0,2.91.66,4.49,1.21,5.38.59.95,1.43,1.69,2.54,2.27,1.13.6,2.36.95,3.38,1.13.49.09.88.13,1.12.15.09.01.16.01.19.01h100.33c2.72,0,4.21-.69,5.04-1.29.46-.32.87-.74,1.23-1.22.06-.62.13-1.23.26-1.86l1.84-9.61v-48.61c0-2.9-.65-4.49-1.21-5.38-.58-.94-1.43-1.68-2.53-2.27Z"></path><path d="M457,54.22c0-32.23-52.86-60.47-82.69-52.66L45.38,54.26C20.27,55.44.25,77.13.25,103.74v353.57c0,26.04,21.31,47.34,47.34,47.34h409.33c26.03,0,47.33-21.3,47.33-47.34V103.74c0-27.35-21.15-49.52-47.25-49.52ZM358.41,43.23c9.95-2.6,51.18-6.61,51.18,4.13v7.26h-234.3l183.12-11.39ZM395.8,150.77v130.81h-31.23v-130.81h31.23ZM344.82,195.15c0,12.76-4.54,22.96-13.61,30.59s-21.52,11.46-37.35,11.46h-19.99v44.38h-31.32v-130.81h51.85c9.94,0,18.73,1.84,26.37,5.53s13.56,8.93,17.76,15.72c4.19,6.8,6.29,14.51,6.29,23.13ZM149.28,136.55h32.65l53.23,145.03h-37.3l-8.41-27.09h-47.59l-8.31,27.09h-37.1l52.83-145.03ZM472.06,484.81h-96.03c-6.12,0-11.07-6-11.07-13.41h118.19c0,7.4-4.96,13.41-11.08,13.41ZM483.14,425.31v41.62h-117.14v-41l-19.76,52.3c-3.08,8.15-12.08,12.07-20.12,8.74l-87.2-36.18c-4.56-1.89-7.83-5.72-9.23-10.17l-5.75,30.06c-1.79,9.41-10.53,15.51-19.51,13.63l-48.76-10.25c-5.1-1.06-9.18-4.48-11.42-8.96-2.13,1.12-4.79,1.83-8.11,1.83h-33.47c0,5.96.69,10.43,2.09,13.41h6.27c2.31,0,4.19,2,4.19,4.47h-58.58c0-2.46,1.87-4.47,4.19-4.47h6.27c1.4-2.98,2.09-7.45,2.09-13.41h-33.47s-16.74,0-16.74-17.89v-53.65s0-7.63,4.67-12.92c2.48-2.81,6.26-4.96,12.07-4.96h100.4s16.74,0,16.74,17.89v4.79l9.33-48.8c1.8-9.41,6.54-15.51,15.51-13.62l52.77,10.24c8.97,1.89,14.8,11.04,12.99,20.45l-9.96,52.07,18.74-49.6c3.08-8.15,12.08-12.06,20.12-8.74l87.2,36.18c2.59,1.08,4.76,2.77,6.41,4.85v-12.29c0-7.4,5.62-13.42,12.54-13.42h92.04c3.16,0,6.05,1.24,8.25,3.32,2.63,2.45,4.3,6.07,4.3,10.1v34.38Z"></path><path d="M165.6 177.19L150.17 227.49 181.14 227.49 165.6 177.19z"></path><path d="M356.8,405.76l-87.2-36.19c-4.01-1.67-8.51.29-10.06,4.37l-22.31,59.07c-1.53,4.08.47,8.74,4.48,10.4l87.2,36.18c4.02,1.67,8.52-.29,10.06-4.37l22.31-59.07c1.55-4.08-.46-8.74-4.48-10.39ZM342.86,442.67c-1.53,4.08-6.04,6.04-10.06,4.37-4.01-1.67-6.01-6.33-4.47-10.4,1.53-4.08,6.04-6.03,10.05-4.37,4.02,1.67,6.03,6.33,4.48,10.4Z"></path><path d="M470.59,386.46h-92.04c-2.31,0-4.18,1.99-4.18,4.47v67.05h100.41v-67.05c0-2.48-1.87-4.47-4.19-4.47Z"></path><path d="M368.04,406.53c-.55-1.18-1.23-2.29-2.04-3.31h0c.81,1.03,1.49,2.14,2.04,3.31Z"></path><path d="M228.87,356.53l-48.76-10.25c-4.49-.94-8.86,2.12-9.76,6.82l-17.46,91.32v4.61s0,4.58-2.17,9.11c.44,3.6,3.01,6.65,6.59,7.4l48.76,10.24c4.49.94,8.86-2.11,9.77-6.81l19.53-102.22c.91-4.7-2-9.28-6.5-10.23ZM193.07,455.34c-.9,4.7-5.26,7.75-9.76,6.81s-7.4-5.52-6.51-10.23c.91-4.7,5.28-7.75,9.77-6.81,4.48.94,7.39,5.52,6.5,10.23Z"></path><path d="M366 425.92L366 425.93 368.26 419.94 366 425.92z"></path><path d="M233.53,420.54l-3.84,20.08c-1.06-3.38-1.06-7.11.27-10.62l2.09-5.54-2.09,5.53c-1.33,3.52-1.33,7.25-.27,10.63l3.84-20.09h0Z"></path><path d="M471.51 27.81L473.89 27.81 473.89 19.71 476.86 19.71 476.86 17.86 468.6 17.86 468.6 19.71 471.51 19.71 471.51 27.81z"></path><path d="M480.27 25.49L480.04 20.72 482.44 27.81 484.02 27.81 486.41 20.73 486.18 25.49 486.18 27.81 488.56 27.81 488.56 17.86 485.43 17.86 483.23 24.78 481.02 17.86 477.89 17.86 477.89 27.81 480.27 27.81 480.27 25.49z"></path></g></svg>