<?xml version="1.0" encoding="UTF-8"?><svg id="a" xmlns="http://www.w3.org/2000/svg" viewBox="0 0 504.58 504.9"><path d="M504.33,103.76v297.13c0,16.76-7.95,31.58-20.11,40.53v-34.38c0-4.04-1.67-7.65-4.3-10.11v-3.31c0-5.76-2.81-10.83-7.09-13.79v-22.66c13.91-6.36,23.63-20.91,23.63-37.83s-9.72-31.46-23.63-37.83v-23.38c13.91-6.36,23.63-20.91,23.63-37.83s-9.72-31.46-23.63-37.84v-23.37c13.91-6.37,23.63-20.91,23.63-37.83,0-22.8-17.63-41.28-39.38-41.28-8.28,0-15.97,2.69-22.31,7.27H69.9c-6.34-4.58-14.04-7.27-22.31-7.27-21.75,0-39.38,18.48-39.38,41.28,0,16.92,9.72,31.46,23.62,37.83v23.37c-13.9,6.38-23.62,20.91-23.62,37.84s9.72,31.47,23.62,37.83v23.38c-13.9,6.37-23.62,20.91-23.62,37.83s9.72,31.47,23.62,37.83v22.66c-4.27,2.96-7.08,8.03-7.08,13.79v4.96c-4.67,5.3-4.67,12.92-4.67,12.92v29.65c-11.96-8.98-19.75-23.66-19.75-40.26V103.76c0-26.61,20.02-48.3,45.13-49.48L374.39,1.58c29.83-7.81,82.69,20.43,82.69,52.66,26.1,0,47.25,22.17,47.25,49.52ZM409.67,54.64v-7.26c0-10.74-41.23-6.73-51.18-4.13l-183.12,11.39h234.3Z" style="fill:#fff;"/><path d="M358.55,487.91c0,7.4,5.61,13.41,12.54,13.41h108.77c6.93,0,12.56-6,12.56-13.41h-133.87Z" style="fill:#fff;"/><path d="M456.92,154.68c17.4,0,31.51-14.78,31.51-33.02s-14.1-33.02-31.51-33.02-31.49,14.78-31.49,33.02,14.1,33.02,31.49,33.02ZM441.23,121.22c0-2.55.35-4.91,1.04-7.06.71-2.17,1.72-4.05,3.08-5.64,1.36-1.59,3.02-2.82,5.02-3.71,1.98-.9,4.28-1.36,6.89-1.36s4.93.46,6.92,1.36c2,.88,3.68,2.12,5.04,3.71s2.39,3.47,3.08,5.64c.69,2.15,1.04,4.5,1.04,7.06v.68c0,2.53-.35,4.88-1.04,7.06-.69,2.15-1.72,4.03-3.08,5.64-1.36,1.59-3.02,2.82-5.01,3.71-1.99.88-4.29,1.32-6.9,1.32s-4.91-.44-6.92-1.32c-2-.88-3.68-2.12-5.04-3.71-1.36-1.61-2.37-3.49-3.08-5.64-.69-2.17-1.04-4.52-1.04-7.06v-.68Z" style="fill:#fff;"/><path d="M456.92,253.72c17.4,0,31.51-14.78,31.51-33.02s-14.1-33.02-31.51-33.02-31.49,14.78-31.49,33.02,14.1,33.02,31.49,33.02ZM444.6,200.08h8.44l.3,2.81c.68-.9,1.48-1.62,2.36-2.2,1.27-.78,2.76-1.18,4.5-1.18,1.85,0,3.47.36,4.87,1.1,1.41.73,2.6,1.78,3.55,3.16.96,1.36,1.69,2.98,2.18,4.88.48,1.89.72,4,.72,6.32v.59c0,2.22-.24,4.28-.72,6.17-.49,1.9-1.21,3.56-2.16,4.97s-2.13,2.51-3.55,3.29c-1.4.77-3.02,1.16-4.87,1.16-1.74,0-3.24-.4-4.49-1.22-.77-.49-1.47-1.1-2.07-1.83v14.21h-9.07v-42.26Z" style="fill:#fff;"/><path d="M456.92,352.76c17.4,0,31.51-14.78,31.51-33.02s-14.1-33.02-31.51-33.02-31.49,14.78-31.49,33.02,14.1,33.02,31.49,33.02ZM440,299.3h10.8l6.41,13.65,6.41-13.65h10.76l-10.92,20.37,11.22,20.7h-10.88l-6.6-13.9-6.6,13.9h-10.9l11.26-20.7-10.96-20.37Z" style="fill:#fff;"/><path d="M452.8,128.58c.43.84,1.01,1.49,1.75,1.96.74.48,1.67.72,2.77.72s1.99-.24,2.71-.72c.74-.47,1.32-1.12,1.76-1.96.43-.86.74-1.86.92-3,.19-1.14.28-2.36.28-3.67v-.68c0-1.27-.09-2.45-.28-3.57-.18-1.14-.49-2.14-.92-3-.44-.88-1.02-1.57-1.76-2.06s-1.66-.74-2.77-.74-2,.25-2.74.74c-.72.49-1.29,1.18-1.71,2.06-.44.86-.74,1.86-.93,3-.18,1.12-.27,2.31-.27,3.57v.68c0,1.31.09,2.53.27,3.67.19,1.14.49,2.14.93,3Z" style="fill:#fff;"/><path d="M458.01,223.84c.86,0,1.58-.21,2.15-.63.57-.43,1.03-1.02,1.38-1.77.34-.77.58-1.66.72-2.65.15-1,.22-2.07.22-3.21v-.59c0-1.19-.09-2.26-.25-3.25-.16-1-.43-1.86-.78-2.59-.34-.74-.8-1.3-1.37-1.7-.58-.39-1.29-.58-2.13-.58-.97,0-1.79.16-2.45.47-.65.3-1.16.77-1.56,1.41-.1.17-.19.34-.27.52v12.04c.3.66.73,1.21,1.27,1.64.75.6,1.77.91,3.07.91Z" style="fill:#fff;"/><path d="M339.3,448.78c-4.01-1.66-8.51.29-10.05,4.37-1.55,4.08.46,8.74,4.47,10.4,4.02,1.67,8.52-.29,10.06-4.37,1.55-4.08-.46-8.74-4.48-10.4Z" style="fill:#fff;"/><path d="M366.92,442.43l2.26-5.98-2.26,5.99v41h117.14v-76c0-4.03-1.67-7.65-4.3-10.1-2.21-2.07-5.1-3.32-8.25-3.32h-92.04c-6.92,0-12.54,6.01-12.54,13.42v12.29c.81,1.02,1.49,2.14,2.04,3.31-.55-1.17-1.23-2.29-2.04-3.3h0c-1.65-2.09-3.82-3.78-6.41-4.86l-87.2-36.18c-8.03-3.33-17.04.58-20.12,8.74l-18.74,49.6-3.84,20.09c1.4,4.45,4.67,8.28,9.23,10.17l87.2,36.18c8.03,3.34,17.04-.58,20.12-8.74l19.76-52.3h0ZM375.29,407.44c0-2.48,1.87-4.47,4.18-4.47h92.04c2.32,0,4.19,1.99,4.19,4.47v67.05h-100.41v-67.05ZM362.2,432.66l-22.31,59.07c-1.53,4.08-6.04,6.04-10.06,4.37l-87.2-36.18c-4.01-1.67-6.01-6.33-4.48-10.4l22.31-59.07c1.55-4.08,6.05-6.04,10.06-4.37l87.2,36.19c4.02,1.66,6.03,6.32,4.48,10.39Z" style="fill:#fff;"/><path d="M230.88,446.5l2.09-5.53-2.09,5.54c-1.33,3.51-1.33,7.24-.27,10.62l3.84-20.08h0s9.96-52.08,9.96-52.08c1.8-9.41-4.02-18.56-12.99-20.45l-52.77-10.24c-8.97-1.89-13.71,4.21-15.51,13.62l-9.33,48.8v-4.79c0-17.89-16.74-17.89-16.74-17.89H36.66c-5.81,0-9.6,2.15-12.07,4.96-4.67,5.3-4.67,12.92-4.67,12.92v53.65c0,17.89,16.74,17.89,16.74,17.89h33.47c0,5.96-.69,10.43-2.09,13.41h-6.27c-2.32,0-4.19,2-4.19,4.47h58.58c0-2.46-1.88-4.47-4.19-4.47h-6.27c-1.4-2.98-2.09-7.45-2.09-13.41h33.47c3.32,0,5.98-.71,8.11-1.83,2.24,4.48,6.33,7.9,11.42,8.96l48.76,10.25c8.98,1.88,17.72-4.22,19.51-13.63l5.75-30.06c-1.06-3.38-1.06-7.11.27-10.63ZM145.43,460.52l-1.84,9.61c-.12.63-.2,1.24-.26,1.86-.36.48-.77.9-1.23,1.22-.83.59-2.32,1.29-5.04,1.29H36.73s-.1,0-.19-.01c-.24-.01-.63-.06-1.12-.15-1.02-.18-2.25-.53-3.38-1.13-1.11-.58-1.95-1.32-2.54-2.27-.55-.88-1.21-2.46-1.21-5.38v-53.57s.01-.1.01-.21c.02-.25.06-.66.15-1.19.17-1.1.49-2.41,1.05-3.62.55-1.18,1.24-2.08,2.13-2.71.83-.59,2.32-1.29,5.04-1.29h100.33s.1,0,.19.01c.24.02.63.06,1.12.15,1.02.18,2.25.53,3.38,1.13,1.1.59,1.95,1.33,2.53,2.27.56.88,1.21,2.48,1.21,5.38v48.61ZM216.75,485.49c-.91,4.7-5.28,7.75-9.77,6.81l-48.76-10.24c-3.57-.75-6.15-3.81-6.59-7.4,2.17-4.52,2.17-9.11,2.17-9.11v-4.61l17.46-91.32c.9-4.7,5.26-7.76,9.76-6.82l48.76,10.25c4.49.94,7.4,5.52,6.5,10.23l-19.53,102.22Z" style="fill:#fff;"/><path d="M187.5,461.62c-4.49-.94-8.86,2.11-9.77,6.81-.9,4.7,2.02,9.28,6.51,10.23s8.86-2.11,9.76-6.81c.9-4.7-2.02-9.28-6.5-10.23Z" style="fill:#fff;"/><path d="M47.43,154.68c17.39,0,31.49-14.78,31.49-33.02s-14.1-33.02-31.49-33.02-31.51,14.78-31.51,33.02,14.1,33.02,31.51,33.02ZM65.14,121.66c0,5.89-2.62,11.14-6.71,14.55l-5.11-12.49,11.65-4.58c.11.83.17,1.67.17,2.52ZM30.83,128.23c-.73-2.05-1.13-4.27-1.13-6.57,0-10.26,7.93-18.57,17.72-18.57,5.19,0,9.86,2.34,13.09,6.06l-15.06,6.32,3.93,10.32,5.25,12.85c-2.21,1.03-4.65,1.6-7.21,1.6-2.22,0-4.32-.43-6.27-1.2l-6.53,8.21c-4.95-2.72-9.02-6.99-11.61-12.17l7.83-6.83Z" style="fill:#fff;"/><path d="M47.43,352.76c17.39,0,31.49-14.78,31.49-33.02s-14.1-33.02-31.49-33.02-31.51,14.78-31.51,33.02,14.1,33.02,31.51,33.02ZM31.67,319.38c0-3.56,2.5-6,5.42-6.94v-6.1c0-6.27,4.85-11.36,10.83-11.36s10.82,5.08,10.82,11.36v6.1c2.92.94,5.42,3.38,5.42,6.94v13.62c0,4.63-4.23,7.37-8.12,7.37h-16.24c-3.9,0-8.13-2.74-8.13-7.37v-13.62Z" style="fill:#fff;"/><path d="M46.32,253.32c17.8,0,32.22-15.12,32.22-33.77s-14.43-33.77-32.22-33.77-32.21,15.12-32.21,33.77,14.43,33.77,32.21,33.77ZM57.31,208.17c-.68-.71-.68-1.86,0-2.56.68-.71,1.78-.71,2.46,0l12.22,12.67c.68.71.68,1.85,0,2.55l-12.22,12.67c-.68.71-1.78.71-2.46,0-.68-.71-.68-1.86,0-2.56l10.98-11.38-10.98-11.38ZM37.67,242.53l13.97-47.03c.28-.95,1.25-1.49,2.17-1.2.93.29,1.44,1.31,1.16,2.26l-13.97,47.03c-.28.95-1.25,1.49-2.18,1.2-.92-.29-1.43-1.31-1.15-2.26ZM20.66,218.27l12.22-12.67c.67-.71,1.78-.71,2.46,0,.68.71.68,1.86,0,2.56l-10.99,11.38,10.99,11.38c.68.71.68,1.86,0,2.56-.68.71-1.79.71-2.46,0l-12.22-12.67c-.68-.71-.68-1.85,0-2.55Z" style="fill:#fff;"/><path d="M53.33,306.34c0-3.14-2.42-5.68-5.41-5.68s-5.42,2.54-5.42,5.68v5.67h10.83v-5.67Z" style="fill:#fff;"/><path d="M39.1,123.59l-2.34,3.7c-.24.36-.22.84.03,1.2.26.35.69.49,1.09.35l3.19-1.11-2.35,3.68c-.24.37-.21.85.04,1.2.25.35.69.49,1.09.36l5.91-2.07-.63-1.95-3.18,1.11,2.34-3.68c.24-.37.22-.85-.03-1.2-.26-.36-.69-.49-1.1-.36l-3.18,1.11,2.34-3.68c.24-.37.22-.85-.03-1.2-.26-.35-.69-.49-1.1-.35l-5.9,2.06.63,1.96,3.18-1.12Z" style="fill:#fff;"/><polygon points="471.58 27.83 473.97 27.83 473.97 19.73 476.93 19.73 476.93 17.87 468.67 17.87 468.67 19.73 471.58 19.73 471.58 27.83" style="fill:#fff;"/><polygon points="480.35 25.5 480.12 20.74 482.52 27.83 484.09 27.83 486.48 20.75 486.25 25.5 486.25 27.83 488.64 27.83 488.64 17.87 485.5 17.87 483.3 24.8 481.1 17.87 477.97 17.87 477.97 27.83 480.35 27.83 480.35 25.5" style="fill:#fff;"/><path d="M130.58,305.96c11.1,10.16,26.65,15.23,46.66,15.23,11.94,0,22.76-2.54,32.47-7.62s17.28-12.23,22.7-21.46c5.42-9.22,8.13-19.72,8.13-31.48v-126.83h-44.14v126.83c0,8.3-1.66,14.75-4.98,19.36-3.32,4.61-8.05,6.92-14.19,6.92-6.81,0-11.66-1.9-14.56-5.71s-4.35-9.94-4.35-18.41h-44.39c0,18.62,5.55,33.01,16.65,43.16Z" style="fill:#fff;"/><path d="M342.36,287.04c-3.76,2.81-8.87,4.21-15.34,4.21-10.12,0-17.42-2.08-21.92-6.23-4.5-4.16-6.75-10.61-6.75-19.37h-39.27c0,10.78,2.69,20.31,8.09,28.58,5.39,8.27,13.42,14.79,24.09,19.54,10.67,4.75,22.59,7.13,35.75,7.13,18.67,0,33.35-4.08,44.06-12.24,10.71-8.16,16.06-19.39,16.06-33.69,0-17.89-8.78-31.93-26.33-42.11-7.21-4.19-16.44-8.1-27.67-11.74-11.23-3.63-19.08-7.15-23.54-10.56-4.46-3.41-6.69-7.21-6.69-11.4,0-4.79,2.03-8.74,6.08-11.85,4.05-3.11,9.57-4.66,16.57-4.66s12.4,1.84,16.45,5.5c4.05,3.67,6.08,8.84,6.08,15.5h39.04c0-9.96-2.57-18.81-7.7-26.56s-12.33-13.72-21.58-17.91c-9.26-4.19-19.73-6.29-31.4-6.29s-22.76,1.93-32.35,5.78c-9.59,3.86-17.01,9.25-22.25,16.17-5.24,6.93-7.86,14.92-7.86,23.98,0,18.19,10.52,32.49,31.57,42.9,6.47,3.22,14.8,6.55,24.99,10,10.19,3.45,17.31,6.78,21.36,10,4.05,3.22,6.08,7.71,6.08,13.48,0,5.09-1.88,9.04-5.63,11.85Z" style="fill:#fff;"/></svg>