<svg xmlns="http://www.w3.org/2000/svg" enable-background="new 0 0 528 528" height="528" width="528" viewBox="0 0 528 528"><title>jsopx react logo color fill</title><g class="jsopx-icon-wrapper"><g class="st0" id="1729573337016-4649260_Layer_2" opacity="0"><path class="st1" d="M0 0H528V528H0z" fill="#FFFFFF"></path></g><g id="1729573337016-4649260_Layer_1"><g id="1729573337016-4649260_jsopx-logo"><g id="1729573337016-4649260_XMLID_00000098916552542147406250000000532646841085305771_"><path class="st2" d="M516.2,115.1v297.1c0,16.8-8,31.6-20.1,40.5v-34.4c0-4-1.7-7.6-4.3-10.1V405c0-5.8-2.8-10.8-7.1-13.8v-22.3 c9.6-4.4,17.1-12.7,20.9-23c0.1-0.4,0.3-0.8,0.4-1.1c1.5-4.4,2.3-9.1,2.3-14c0-16.9-9.7-31.5-23.6-37.8v-23 c9.6-4.4,17.1-12.8,20.9-23c0.1-0.4,0.3-0.8,0.4-1.1c1.5-4.4,2.3-9.1,2.3-14c0-16.9-9.7-31.5-23.6-37.8v-23 c9.2-4.2,16.5-12.1,20.4-21.8c0.2-0.4,0.3-0.8,0.5-1.2c1.8-4.7,2.8-9.8,2.8-15.2c0-22.8-17.6-41.3-39.4-41.3 c-8.3,0-16,2.7-22.3,7.3H81.7c-6.3-4.6-14-7.3-22.3-7.3c-16.5,0-30.5,10.6-36.4,25.6c-0.1,0.2-0.1,0.4-0.2,0.6 c-1.9,4.8-2.9,10-2.9,15.5c0,16.9,9.7,31.5,23.6,37.8v23c-9.2,4.3-16.5,12.1-20.4,21.8c-0.1,0.3-0.3,0.6-0.4,1 c-1.8,4.8-2.8,9.9-2.8,15.4c0,16.9,9.7,31.5,23.6,37.8v23.1c-9.2,4.2-16.5,12-20.4,21.7c-0.1,0.4-0.3,0.7-0.4,1.1 c-1.8,4.8-2.8,10-2.8,15.4c0,16.9,9.7,31.5,23.6,37.8v22.4c-2.7,1.9-4.8,4.6-5.9,7.8c-0.8,1.9-1.2,4-1.2,6.2v4.7 c-1.3,1.6-2.3,3.3-2.9,5c-0.1,0.2-0.2,0.5-0.3,0.7c-1.5,3.9-1.5,7.4-1.5,7.4v29.1c-11.9-9-19.6-23.6-19.6-40.1V115.1 c0-26.6,20-48.3,45.1-49.5l328.9-52.7c29.8-7.8,82.7,20.4,82.7,52.7C495,65.6,516.2,87.7,516.2,115.1z M421.5,66v-7.3 c0-10.7-41.2-6.7-51.2-4.1L187.2,66H421.5z" fill="#4CC7E8"></path><path class="st1" d="M508.1,232c0,4.8-0.8,9.3-2.2,13.6c-0.1,0.4-0.3,0.8-0.4,1.1c-3.8,10.2-11.4,18.4-20.9,22.7v0.3 c0,0-0.1,0.1-0.2,0.1v23.4c13.9,6.4,23.6,20.9,23.6,37.8c0,4.8-0.8,9.3-2.2,13.6c-0.1,0.4-0.3,0.8-0.4,1.1 c-3.8,10.2-11.4,18.4-20.9,22.7v0.3c0,0-0.1,0.1-0.2,0.1v22.6c4.3,3,7.1,8,7.1,13.8v3.3c-2.2-2.1-5.1-3.3-8.2-3.3h-92 c-6.9,0-12.6,6-12.6,13.4v12.3c-1.6-2.1-3.8-3.8-6.4-4.9L285.1,390c-8-3.3-17,0.6-20.1,8.7l-18.7,49.6l10-52.1 c1.8-9.4-4-18.6-13-20.4l-52.8-10.2c-9-1.9-13.7,4.2-15.5,13.6l-9.3,48.8v-4.8c0-17.9-16.7-17.9-16.7-17.9H48.5 c-5.8,0-9.6,2.1-12.1,5v-0.2c0.1-0.1,0.1-0.1,0.2-0.2v-5c0-2.1,0.4-4,1-5.8c1.2-3.1,3.3-5.7,5.9-7.6v-0.3c0,0,0.1-0.1,0.2-0.1 v-22.7C29.8,362.1,20,347.6,20,330.7c0-5.3,0.9-10.3,2.7-15c0.1-0.4,0.3-0.7,0.4-1.1c4-9.5,11.3-17.2,20.4-21.4v-0.3 c0,0,0.1-0.1,0.2-0.1v-23.4C29.8,263.1,20,248.6,20,231.6c0-5.3,0.9-10.3,2.7-15c0.1-0.3,0.2-0.7,0.4-1 c4-9.6,11.3-17.3,20.4-21.5v-0.3c0,0,0.1-0.1,0.2-0.1v-23.4C29.8,164.1,20,149.5,20,132.6c0-5.3,1-10.4,2.7-15.1 c0.1-0.2,0.1-0.4,0.2-0.6c6-14.8,20-25.2,36.3-25.2c8.3,0,16,2.7,22.3,7.3h364.9c6.3-4.6,14-7.3,22.3-7.3 c21.8,0,39.4,18.5,39.4,41.3c0,5.2-0.9,10.2-2.6,14.8c-0.1,0.4-0.3,0.8-0.5,1.2c-4,9.6-11.3,17.3-20.4,21.5v0.3 c0,0-0.1,0.1-0.2,0.1v23.4C498.4,200.6,508.1,215.1,508.1,232z M500.2,133c0-18.2-14.1-33-31.5-33s-31.5,14.8-31.5,33 s14.1,33,31.5,33S500.2,151.2,500.2,133z M500.2,232c0-18.2-14.1-33-31.5-33s-31.5,14.8-31.5,33c0,18.2,14.1,33,31.5,33 S500.2,250.3,500.2,232z M500.2,331.1c0-18.2-14.1-33-31.5-33s-31.5,14.8-31.5,33c0,18.2,14.1,33,31.5,33 S500.2,349.3,500.2,331.1z M90.8,133c0-18.2-14.1-33-31.5-33s-31.5,14.8-31.5,33s14.1,33,31.5,33S90.8,151.2,90.8,133z M90.8,331.1c0-18.2-14.1-33-31.5-33s-31.5,14.8-31.5,33c0,18.2,14.1,33,31.5,33S90.8,349.3,90.8,331.1z M90.4,230.9 c0-18.7-14.4-33.8-32.2-33.8c-17.8,0-32.2,15.1-32.2,33.8s14.4,33.8,32.2,33.8C75.9,264.6,90.4,249.5,90.4,230.9z" fill="#FFFFFF"></path><path class="st3" d="M370.4,499.2h133.9c0,7.4-5.6,13.4-12.5,13.4H382.9C376,512.7,370.4,506.6,370.4,499.2z" fill="#2DB4D2"></path><path class="st4" d="M484.6,170.4c9.1-4.2,16.5-11.9,20.4-21.5c-3.9,9.7-11.2,17.5-20.4,21.8V170.4z" fill="#6D439A"></path><path class="st4" d="M484.6,269.5c9.5-4.4,17.1-12.5,20.9-22.7c-3.8,10.3-11.3,18.6-20.9,23V269.5z" fill="#6D439A"></path><path class="st4" d="M484.6,368.5c9.5-4.4,17.1-12.5,20.9-22.7c-3.8,10.3-11.3,18.6-20.9,23V368.5z" fill="#6D439A"></path><path class="st3" d="M500.5 29.2L500.5 39.2 498.1 39.2 498.1 36.8 498.3 32.1 495.9 39.2 494.3 39.2 491.9 32.1 492.2 36.8 492.2 39.2 489.8 39.2 489.8 29.2 492.9 29.2 495.1 36.1 497.3 29.2z" fill="#2DB4D2"></path><path class="st3" d="M495.9,453.1v41.6H378.7v-41l2.6-6.8c2.1-5.5,0.9-11.6-2.6-15.9v-12.3c0-7.4,5.6-13.4,12.6-13.4h92 c3.2,0,6.1,1.2,8.2,3.3v46.2c0,0.4,0,0.8,0,1.1C493,455.1,494.5,454.2,495.9,453.1z M487.5,485.8v-67.1c0-2.5-1.9-4.5-4.2-4.5 h-92c-2.3,0-4.2,2-4.2,4.5v67.1H487.5z" fill="#2DB4D2"></path><path class="st3" d="M495.9,418.8v34.4c-1.4,1-2.8,2-4.3,2.9c0-0.4,0-0.7,0-1.1v-46.2C494.2,411.1,495.9,414.7,495.9,418.8z" fill="#2DB4D2"></path><path class="st2" d="M468.8,100c17.4,0,31.5,14.8,31.5,33s-14.1,33-31.5,33s-31.5-14.8-31.5-33S451.4,100,468.8,100z M485.2,133.2v-0.7c0-2.6-0.4-4.9-1.1-7.1c-0.7-2.2-1.7-4.1-3.1-5.7c-1.4-1.6-3-2.8-5-3.7c-2-0.9-4.3-1.4-6.9-1.4 c-2.6,0-4.9,0.5-6.9,1.4c-2,0.9-3.7,2.1-5,3.7c-1.4,1.6-2.4,3.5-3.1,5.7c-0.7,2.2-1,4.5-1,7.1v0.7c0,2.5,0.3,4.9,1,7 c0.7,2.2,1.7,4,3.1,5.7c1.4,1.6,3,2.8,5,3.7c2,0.9,4.3,1.3,6.9,1.3c2.6,0,4.9-0.4,6.9-1.3c2-0.9,3.6-2.1,5-3.7 c1.4-1.6,2.4-3.5,3.1-5.7C484.8,138.1,485.2,135.8,485.2,133.2z" fill="#4CC7E8"></path><path class="st2" d="M468.8,199c17.4,0,31.5,14.8,31.5,33c0,18.2-14.1,33-31.5,33s-31.5-14.8-31.5-33 C437.2,213.8,451.4,199,468.8,199z M483.4,226.9v-0.6c0-2.3-0.2-4.4-0.7-6.3c-0.5-1.9-1.2-3.5-2.2-4.9c-0.9-1.4-2.1-2.4-3.5-3.2 c-1.4-0.7-3-1.1-4.9-1.1c-1.8,0-3.2,0.4-4.5,1.2c-0.9,0.6-1.7,1.3-2.4,2.2l-0.3-2.8h-8.4v42.3h9.1v-14.2 c0.6,0.7,1.3,1.3,2.1,1.8c1.3,0.8,2.8,1.2,4.5,1.2c1.9,0,3.5-0.4,4.9-1.2c1.4-0.8,2.6-1.9,3.6-3.3c1-1.4,1.7-3.1,2.2-5 C483.1,231.2,483.4,229.1,483.4,226.9z" fill="#4CC7E8"></path><path class="st2" d="M468.8,298.1c17.4,0,31.5,14.8,31.5,33c0,18.2-14.1,33-31.5,33s-31.5-14.8-31.5-33 C437.2,312.8,451.4,298.1,468.8,298.1z M486.5,351.7L475.3,331l10.9-20.4h-10.8l-6.4,13.7l-6.4-13.7h-10.8l11,20.4l-11.3,20.7 h10.9l6.6-13.9l6.6,13.9H486.5z" fill="#4CC7E8"></path><path class="st3" d="M488.8 29.2L488.8 31.1 485.8 31.1 485.8 39.2 483.4 39.2 483.4 31.1 480.5 31.1 480.5 29.2z" fill="#2DB4D2"></path><path class="st1" d="M487.5,418.8v67.1H387.1v-67.1c0-2.5,1.9-4.5,4.2-4.5h92C485.6,414.3,487.5,416.3,487.5,418.8z" fill="#FFFFFF"></path><path class="st1" d="M475.3 331L486.5 351.7 475.6 351.7 469 337.8 462.4 351.7 451.5 351.7 462.8 331 451.8 310.6 462.6 310.6 469 324.3 475.4 310.6 486.2 310.6z" fill="#FFFFFF"></path><path class="st1" d="M485.2,132.6v0.7c0,2.5-0.4,4.9-1.1,7c-0.7,2.2-1.7,4-3.1,5.7c-1.4,1.6-3,2.8-5,3.7c-2,0.9-4.3,1.3-6.9,1.3 c-2.6,0-4.9-0.4-6.9-1.3c-2-0.9-3.7-2.1-5-3.7c-1.4-1.6-2.4-3.5-3.1-5.7c-0.7-2.2-1-4.5-1-7v-0.7c0-2.6,0.3-4.9,1-7.1 c0.7-2.2,1.7-4.1,3.1-5.7c1.4-1.6,3-2.8,5-3.7c2-0.9,4.3-1.4,6.9-1.4c2.6,0,4.9,0.5,6.9,1.4c2,0.9,3.7,2.1,5,3.7 c1.4,1.6,2.4,3.5,3.1,5.7C484.8,127.7,485.2,130,485.2,132.6z M474.8,133.2v-0.7c0-1.3-0.1-2.4-0.3-3.6c-0.2-1.1-0.5-2.1-0.9-3 c-0.4-0.9-1-1.6-1.8-2.1c-0.7-0.5-1.7-0.7-2.8-0.7c-1.1,0-2,0.2-2.7,0.7c-0.7,0.5-1.3,1.2-1.7,2.1c-0.4,0.9-0.7,1.9-0.9,3 c-0.2,1.1-0.3,2.3-0.3,3.6v0.7c0,1.3,0.1,2.5,0.3,3.7c0.2,1.1,0.5,2.1,0.9,3c0.4,0.8,1,1.5,1.7,2c0.7,0.5,1.7,0.7,2.8,0.7 c1.1,0,2-0.2,2.7-0.7c0.7-0.5,1.3-1.1,1.8-2c0.4-0.9,0.7-1.9,0.9-3C474.7,135.8,474.8,134.6,474.8,133.2z" fill="#FFFFFF"></path><path class="st1" d="M483.4,226.3v0.6c0,2.2-0.2,4.3-0.7,6.2c-0.5,1.9-1.2,3.6-2.2,5c-1,1.4-2.1,2.5-3.6,3.3 c-1.4,0.8-3,1.2-4.9,1.2c-1.7,0-3.2-0.4-4.5-1.2c-0.8-0.5-1.5-1.1-2.1-1.8v14.2h-9.1v-42.3h8.4l0.3,2.8c0.7-0.9,1.5-1.6,2.4-2.2 c1.3-0.8,2.8-1.2,4.5-1.2c1.9,0,3.5,0.4,4.9,1.1c1.4,0.7,2.6,1.8,3.5,3.2c1,1.4,1.7,3,2.2,4.9 C483.1,221.9,483.4,224,483.4,226.3z M474.3,226.9v-0.6c0-1.2-0.1-2.3-0.2-3.2c-0.2-1-0.4-1.9-0.8-2.6c-0.3-0.7-0.8-1.3-1.4-1.7 c-0.6-0.4-1.3-0.6-2.1-0.6c-1,0-1.8,0.2-2.5,0.5c-0.6,0.3-1.2,0.8-1.6,1.4c-0.1,0.2-0.2,0.3-0.3,0.5v12c0.3,0.7,0.7,1.2,1.3,1.6 c0.8,0.6,1.8,0.9,3.1,0.9c0.9,0,1.6-0.2,2.2-0.6c0.6-0.4,1-1,1.4-1.8c0.3-0.8,0.6-1.7,0.7-2.7 C474.2,229.1,474.3,228,474.3,226.9z" fill="#FFFFFF"></path><path class="st2" d="M474.8,132.6v0.7c0,1.3-0.1,2.5-0.3,3.7c-0.2,1.1-0.5,2.1-0.9,3c-0.4,0.8-1,1.5-1.8,2 c-0.7,0.5-1.6,0.7-2.7,0.7c-1.1,0-2-0.2-2.8-0.7c-0.7-0.5-1.3-1.1-1.7-2c-0.4-0.9-0.7-1.9-0.9-3c-0.2-1.1-0.3-2.4-0.3-3.7v-0.7 c0-1.3,0.1-2.4,0.3-3.6c0.2-1.1,0.5-2.1,0.9-3c0.4-0.9,1-1.6,1.7-2.1c0.7-0.5,1.7-0.7,2.7-0.7c1.1,0,2,0.2,2.8,0.7 c0.7,0.5,1.3,1.2,1.8,2.1c0.4,0.9,0.7,1.9,0.9,3C474.7,130.1,474.8,131.3,474.8,132.6z" fill="#4CC7E8"></path><path class="st2" d="M474.3,226.3v0.6c0,1.1-0.1,2.2-0.2,3.2c-0.1,1-0.4,1.9-0.7,2.7c-0.3,0.8-0.8,1.3-1.4,1.8 c-0.6,0.4-1.3,0.6-2.2,0.6c-1.3,0-2.3-0.3-3.1-0.9c-0.5-0.4-1-1-1.3-1.6v-12c0.1-0.2,0.2-0.3,0.3-0.5c0.4-0.6,0.9-1.1,1.6-1.4 c0.7-0.3,1.5-0.5,2.5-0.5c0.8,0,1.5,0.2,2.1,0.6c0.6,0.4,1,1,1.4,1.7c0.4,0.7,0.6,1.6,0.8,2.6 C474.2,224.1,474.3,225.1,474.3,226.3z" fill="#4CC7E8"></path><path class="st3" d="M378.7,431.1c3.5,4.4,4.6,10.4,2.6,15.9l-2.6,6.8V431.1z" fill="#2DB4D2"></path><path class="st3" d="M378.7,431.1v22.7L359,506.1c-3.1,8.2-12.1,12.1-20.1,8.7l-87.2-36.2c-4.6-1.9-7.8-5.7-9.2-10.2l3.8-20.1 l18.7-49.6c3.1-8.2,12.1-12.1,20.1-8.7l87.2,36.2C374.9,427.3,377.1,429,378.7,431.1z M374,444c1.5-4.1-0.5-8.7-4.5-10.4 l-87.2-36.2c-4-1.7-8.5,0.3-10.1,4.4L250,460.9c-1.5,4.1,0.5,8.7,4.5,10.4l87.2,36.2c4,1.7,8.5-0.3,10.1-4.4L374,444z" fill="#2DB4D2"></path><path class="st1" d="M369.5,433.6c4,1.7,6,6.3,4.5,10.4l-22.3,59.1c-1.5,4.1-6,6-10.1,4.4l-87.2-36.2c-4-1.7-6-6.3-4.5-10.4 l22.3-59.1c1.5-4.1,6-6,10.1-4.4L369.5,433.6z M355.6,470.5c1.5-4.1-0.5-8.7-4.5-10.4c-4-1.7-8.5,0.3-10,4.4 c-1.5,4.1,0.5,8.7,4.5,10.4C349.6,476.5,354.1,474.6,355.6,470.5z" fill="#FFFFFF"></path><path class="st3" d="M351.1,460.1c4,1.7,6,6.3,4.5,10.4c-1.5,4.1-6,6-10.1,4.4c-4-1.7-6-6.3-4.5-10.4 C342.6,460.4,347.1,458.5,351.1,460.1z" fill="#2DB4D2"></path><path class="st3" d="M243.2,375.9c9,1.9,14.8,11,13,20.4l-10,52.1l-3.6,9.5c-1.3,3.5-1.3,7.2-0.3,10.6l-5.8,30.1 c-1.8,9.4-10.5,15.5-19.5,13.6l-48.8-10.2c-5.1-1.1-9.2-4.5-11.4-9c3.2-1.7,5.2-4.3,6.5-7c0.4,3.6,3,6.7,6.6,7.4l48.8,10.2 c4.5,0.9,8.9-2.1,9.8-6.8l19.5-102.2c0.9-4.7-2-9.3-6.5-10.2l-48.8-10.2c-4.5-0.9-8.9,2.1-9.8,6.8l-17.5,91.3V428l9.3-48.8 c1.8-9.4,6.5-15.5,15.5-13.6L243.2,375.9z" fill="#2DB4D2"></path><path class="st1" d="M241.6,384.4c4.5,1,7.4,5.5,6.5,10.2l-19.5,102.2c-0.9,4.7-5.3,7.8-9.8,6.8L170,493.4 c-3.6-0.8-6.1-3.8-6.6-7.4c2.2-4.5,2.2-9.1,2.2-9.1v-4.6l17.5-91.3c0.9-4.7,5.3-7.8,9.8-6.8L241.6,384.4z M205.8,483.2 c0.9-4.7-2-9.3-6.5-10.2c-4.5-0.9-8.9,2.1-9.8,6.8c-0.9,4.7,2,9.3,6.5,10.2C200.6,490.9,204.9,487.9,205.8,483.2z" fill="#FFFFFF"></path><path class="st3" d="M246.3,448.4l-3.8,20.1c-1.1-3.4-1.1-7.1,0.3-10.6L246.3,448.4z" fill="#2DB4D2"></path><path class="st3" d="M199.3,473c4.5,0.9,7.4,5.5,6.5,10.2c-0.9,4.7-5.3,7.8-9.8,6.8c-4.5-0.9-7.4-5.5-6.5-10.2 C190.5,475.1,194.8,472,199.3,473z" fill="#2DB4D2"></path><path class="st3" d="M165.6,472.3v4.6c0,0,0,4.6-2.2,9.1c-0.1-0.9-0.1-1.9,0.1-2.8L165.6,472.3z" fill="#2DB4D2"></path><path class="st3" d="M165.6,428v44.2l-2.1,10.9c-0.2,0.9-0.2,1.9-0.1,2.8c-1.3,2.7-3.3,5.3-6.5,7c-1.4-2.9-2.1-6.2-1.8-9.6 c0.3-0.4,0.6-0.9,0.9-1.5c0.6-1.2,0.9-2.5,1.1-3.6c0.1-0.5,0.1-0.9,0.1-1.2c0-0.1,0-0.2,0-0.2v-5L165.6,428z" fill="#2DB4D2"></path><path class="st3" d="M165.6,423.2v4.8l-8.4,43.8v-48.6c0-2.9-0.6-4.5-1.2-5.4c-0.6-0.9-1.4-1.7-2.5-2.3 c-1.1-0.6-2.4-0.9-3.4-1.1c-0.5-0.1-0.9-0.1-1.1-0.1c-0.1,0-0.2,0-0.2,0H48.5c-2.7,0-4.2,0.7-5,1.3c-0.9,0.6-1.6,1.5-2.1,2.7 c-0.6,1.2-0.9,2.5-1,3.6c-0.1,0.5-0.1,0.9-0.2,1.2c0,0.1,0,0.2,0,0.2v53.6c0,2.9,0.7,4.5,1.2,5.4c0.6,0.9,1.4,1.7,2.5,2.3 c1.1,0.6,2.4,0.9,3.4,1.1c0.5,0.1,0.9,0.1,1.1,0.1c0.1,0,0.2,0,0.2,0h100.3c2.7,0,4.2-0.7,5-1.3c0.5-0.3,0.9-0.7,1.2-1.2 c-0.3,3.4,0.4,6.7,1.8,9.6c-2.1,1.1-4.8,1.8-8.1,1.8h-33.5c0,6,0.7,10.4,2.1,13.4h6.3c2.3,0,4.2,2,4.2,4.5H69.4 c0-2.5,1.9-4.5,4.2-4.5h6.3c1.4-3,2.1-7.4,2.1-13.4H48.5c0,0-16.7,0-16.7-17.9v-24c1.5,1.1,3.1,2.2,4.7,3.1c0-0.4,0-0.7,0-1.1 v-44.6c2.5-2.8,6.3-5,12.1-5h100.4C148.9,405.4,165.6,405.4,165.6,423.2z" fill="#2DB4D2"></path><path class="st3" d="M157.2,471.9v5c0,0,0,0.1,0,0.2c0,0.2,0,0.7-0.1,1.2c-0.2,1.1-0.5,2.4-1.1,3.6c-0.2,0.6-0.6,1.1-0.9,1.5 c0.1-0.6,0.1-1.2,0.3-1.9L157.2,471.9z" fill="#2DB4D2"></path><path class="st1" d="M157.2,423.2v48.6l-1.8,9.6c-0.1,0.6-0.2,1.2-0.3,1.9c-0.4,0.5-0.8,0.9-1.2,1.2c-0.8,0.6-2.3,1.3-5,1.3 H48.6c0,0-0.1,0-0.2,0c-0.2,0-0.6,0-1.1-0.1c-1-0.2-2.2-0.5-3.4-1.1c-1.1-0.6-1.9-1.3-2.5-2.3c-0.5-0.9-1.2-2.5-1.2-5.4v-53.6 c0,0,0-0.1,0-0.2c0-0.2,0.1-0.7,0.2-1.2c0.2-1.1,0.5-2.4,1-3.6c0.5-1.2,1.2-2.1,2.1-2.7c0.8-0.6,2.3-1.3,5-1.3h100.3 c0,0,0.1,0,0.2,0c0.2,0,0.6,0.1,1.1,0.1c1,0.2,2.2,0.5,3.4,1.1c1.1,0.6,2,1.3,2.5,2.3C156.6,418.8,157.2,420.3,157.2,423.2z" fill="#FFFFFF"></path><path class="st1" d="M83.8,229.6c0.7,0.7,0.7,1.8,0,2.6l-12.2,12.7c-0.7,0.7-1.8,0.7-2.5,0c-0.7-0.7-0.7-1.9,0-2.6l11-11.4 l-11-11.4c-0.7-0.7-0.7-1.9,0-2.6c0.7-0.7,1.8-0.7,2.5,0L83.8,229.6z" fill="#FFFFFF"></path><path class="st2" d="M59.2,100c17.4,0,31.5,14.8,31.5,33s-14.1,33-31.5,33s-31.5-14.8-31.5-33S41.8,100,59.2,100z M77,133 c0-0.9-0.1-1.7-0.2-2.5l-11.7,4.6l5.1,12.5C74.3,144.1,77,138.9,77,133z M57.3,126.8l15.1-6.3c-3.2-3.7-7.9-6.1-13.1-6.1 c-9.8,0-17.7,8.3-17.7,18.6c0,2.3,0.4,4.5,1.1,6.6l-7.8,6.8c2.6,5.2,6.7,9.5,11.6,12.2l6.5-8.2c1.9,0.8,4,1.2,6.3,1.2 c2.6,0,5-0.6,7.2-1.6l-5.2-12.9L57.3,126.8z" fill="#4CC7E8"></path><path class="st2" d="M59.2,298.1c17.4,0,31.5,14.8,31.5,33c0,18.2-14.1,33-31.5,33s-31.5-14.8-31.5-33 C27.8,312.8,41.8,298.1,59.2,298.1z M76,344.3v-13.6c0-3.6-2.5-6-5.4-7v-6.1c0-6.3-4.8-11.4-10.8-11.4c-6,0-10.8,5.1-10.8,11.4 v6.1c-2.9,0.9-5.4,3.4-5.4,7v13.6c0,4.6,4.2,7.4,8.1,7.4h16.2C71.8,351.7,76,349,76,344.3z" fill="#4CC7E8"></path><path class="st2" d="M58.1,197.1c17.8,0,32.2,15.1,32.2,33.8s-14.4,33.8-32.2,33.8c-17.8,0-32.2-15.1-32.2-33.8 S40.4,197.1,58.1,197.1z M83.8,232.2c0.7-0.7,0.7-1.9,0-2.6l-12.2-12.7c-0.7-0.7-1.8-0.7-2.5,0c-0.7,0.7-0.7,1.9,0,2.6l11,11.4 l-11,11.4c-0.7,0.7-0.7,1.9,0,2.6c0.7,0.7,1.8,0.7,2.5,0L83.8,232.2z M66.8,207.9c0.3-1-0.2-2-1.2-2.3c-0.9-0.3-1.9,0.2-2.2,1.2 l-14,47c-0.3,0.9,0.2,2,1.2,2.3c0.9,0.3,1.9-0.2,2.2-1.2L66.8,207.9z M47.2,219.5c0.7-0.7,0.7-1.9,0-2.6c-0.7-0.7-1.8-0.7-2.5,0 l-12.2,12.7c-0.7,0.7-0.7,1.8,0,2.6l12.2,12.7c0.7,0.7,1.8,0.7,2.5,0c0.7-0.7,0.7-1.9,0-2.6l-11-11.4L47.2,219.5z" fill="#4CC7E8"></path><path class="st1" d="M76.8,130.5c0.1,0.8,0.2,1.7,0.2,2.5c0,5.9-2.6,11.1-6.7,14.5l-5.1-12.5L76.8,130.5z" fill="#FFFFFF"></path><path class="st1" d="M76,330.7v13.6c0,4.6-4.2,7.4-8.1,7.4H51.6c-3.9,0-8.1-2.7-8.1-7.4v-13.6c0-3.6,2.5-6,5.4-7v-6.1 c0-6.3,4.8-11.4,10.8-11.4c6,0,10.8,5.1,10.8,11.4v6.1C73.5,324.7,76,327.1,76,330.7z M65.2,323.3v-5.7c0-3.1-2.4-5.7-5.4-5.7 s-5.4,2.5-5.4,5.7v5.7H65.2z" fill="#FFFFFF"></path><path class="st1" d="M72.3,120.5l-15.1,6.3l3.9,10.3l5.2,12.9c-2.2,1-4.6,1.6-7.2,1.6c-2.2,0-4.3-0.4-6.3-1.2l-6.5,8.2 c-4.9-2.7-9-7-11.6-12.2l7.8-6.8c-0.7-2-1.1-4.3-1.1-6.6c0-10.3,7.9-18.6,17.7-18.6C64.4,114.4,69.1,116.8,72.3,120.5z M57.6,142.2l-0.6-1.9l-3.2,1.1l2.3-3.7c0.2-0.4,0.2-0.9,0-1.2c-0.2-0.4-0.7-0.5-1.1-0.4l-3.2,1.1l2.4-3.7 c0.2-0.4,0.2-0.8,0-1.2c-0.3-0.3-0.7-0.5-1.1-0.3l-5.9,2.1l0.6,2l3.2-1.1l-2.3,3.7c-0.2,0.4-0.2,0.8,0,1.2 c0.3,0.4,0.7,0.5,1.1,0.4l3.2-1.1l-2.3,3.7c-0.2,0.4-0.2,0.9,0,1.2c0.2,0.4,0.7,0.5,1.1,0.4L57.6,142.2z" fill="#FFFFFF"></path><path class="st1" d="M65.6,205.6c0.9,0.3,1.4,1.3,1.2,2.3l-14,47c-0.3,1-1.3,1.5-2.2,1.2c-0.9-0.3-1.4-1.3-1.2-2.3l14-47 C63.7,205.9,64.7,205.3,65.6,205.6z" fill="#FFFFFF"></path><path class="st2" d="M65.2,317.7v5.7H54.3v-5.7c0-3.1,2.4-5.7,5.4-5.7S65.2,314.5,65.2,317.7z" fill="#4CC7E8"></path><path class="st2" d="M57,140.3l0.6,1.9l-5.9,2.1c-0.4,0.1-0.8,0-1.1-0.4c-0.2-0.3-0.3-0.8,0-1.2l2.3-3.7l-3.2,1.1 c-0.4,0.1-0.8,0-1.1-0.4c-0.2-0.4-0.3-0.8,0-1.2l2.3-3.7l-3.2,1.1l-0.6-2L53,132c0.4-0.2,0.8,0,1.1,0.3c0.3,0.4,0.3,0.8,0,1.2 l-2.4,3.7l3.2-1.1c0.4-0.1,0.8,0,1.1,0.4c0.3,0.3,0.3,0.8,0,1.2l-2.3,3.7L57,140.3z" fill="#4CC7E8"></path><path class="st1" d="M47.2,216.9c0.7,0.7,0.7,1.9,0,2.6l-11,11.4l11,11.4c0.7,0.7,0.7,1.9,0,2.6c-0.7,0.7-1.8,0.7-2.5,0 l-12.2-12.7c-0.7-0.7-0.7-1.9,0-2.6l12.2-12.7C45.4,216.2,46.5,216.2,47.2,216.9z" fill="#FFFFFF"></path><path class="st4" d="M43.7,368.5v22.7c-0.1,0-0.1,0.1-0.2,0.1v-22.4c-13.9-6.4-23.6-20.9-23.6-37.8c0-5.4,1-10.6,2.8-15.4 c-1.7,4.6-2.7,9.7-2.7,15C20,347.6,29.8,362.1,43.7,368.5z" fill="#6D439A"></path><path class="st4" d="M43.7,269.5v23.4c-0.1,0-0.1,0.1-0.2,0.1v-23.1C29.6,263.5,19.9,249,19.9,232c0-5.4,1-10.6,2.8-15.4 c-1.7,4.6-2.7,9.7-2.7,15C20,248.6,29.8,263.1,43.7,269.5z" fill="#6D439A"></path><path class="st4" d="M43.7,170.4v23.4c-0.1,0-0.1,0.1-0.2,0.1v-23c-13.9-6.4-23.6-20.9-23.6-37.8c0-5.5,1-10.7,2.9-15.5 c-1.8,4.7-2.7,9.8-2.7,15.1C20,149.5,29.8,164.1,43.7,170.4z" fill="#6D439A"></path><path class="st4" d="M37.6,399.1c-0.7,1.8-1,3.8-1,5.8v5c0,0.1-0.1,0.1-0.2,0.2v-4.7C36.4,403.1,36.8,401,37.6,399.1z" fill="#6D439A"></path><path class="st3" d="M36.4,454.9c0,0.4,0,0.8,0,1.1c-1.6-0.9-3.2-2-4.7-3.1v-0.5c0,0,0.1,0.1,0.1,0.1v-29.7c0,0,0-3.3,1.3-7 c0.1-0.2,0.2-0.5,0.3-0.7c0.7-1.6,1.6-3.3,2.9-4.8V454.9z" fill="#2DB4D2"></path><path class="st4" d="M33.2,415.8c-1.3,3.8-1.3,7-1.3,7v29.7c0,0-0.1-0.1-0.1-0.1v-29.1C31.8,423.2,31.8,419.7,33.2,415.8z" fill="#6D439A"></path></g></g><g id="1729573337016-4649260_Layer_3"><g id="1729573337016-4649260_XMLID_00000054972006541790230560000006536425620762938785_"><path class="st5" d="M353.1,239.7c18.4,21,26,42.6,18.6,55.4c-7.2,12.5-28.1,16.4-54.5,11.4c-2.9-0.5-5.7-1.2-8.6-1.9 c-0.6,2.2-1.3,4.4-2,6.5c-9,26.4-23.9,43.8-38.7,43.8c-14.4,0-28.2-16.2-37.1-41.5c-1-2.8-1.8-5.5-2.7-8.3 c-2.2,0.6-4.4,1-6.6,1.5c-27.4,5.4-49.9,1.2-57.3-11.7c-7.2-12.4-0.1-32.5,17.4-52.9c2-2.3,4.1-4.6,6.3-6.8 c-1.9-1.9-3.7-3.9-5.5-6c-18-20.6-25.5-41-18.3-53.5c7.5-13,30.3-16.9,58.6-11c1.8,0.4,3.5,0.8,5.3,1.2c0.8-2.6,1.6-5.2,2.4-7.7 c8.9-25.9,22.8-42.6,37.2-42.6c15,0,29.7,17.9,38.9,45.3c0.6,1.7,1.1,3.4,1.6,5.1c2.6-0.6,5.2-1.2,7.9-1.8 c26.8-5.2,48.3-1.5,55.5,11c7.5,13-0.6,34.7-19.8,56.3c-1,1.1-2.1,2.3-3.2,3.4C350.3,236.4,351.7,238.1,353.1,239.7z M362.9,290 c2.1-5.4,1.9-11.5-0.6-16.8c-2-4.9-4.4-9.7-7.2-14.2c-2.8-4.5-6-8.7-9.6-12.6c-1.3-1.4-2.6-2.9-4-4.4 c-8,7.4-16.6,14.3-25.6,20.5c-0.8,10.8-2.4,21.5-4.6,32.1c2.7,0.7,5.4,1.3,8,1.7C341.7,300.7,358.5,297.5,362.9,290z M344.2,224.6c16.6-18.6,23.2-36.4,18.6-44.4c-4.3-7.5-21.7-10.5-44.7-6.1c-2.4,0.5-4.8,1-7.3,1.6c2.3,10.5,4,21.1,4.9,31.7 c9,6.1,17.6,12.9,25.7,20.2C342.4,226.7,343.3,225.6,344.2,224.6z M316.6,249.4c6.1-4.5,11.9-9.3,17.4-14.5 c-5.6-5-11.4-9.8-17.5-14.2c0.2,4.8,0.3,9.6,0.3,14.5C316.9,239.9,316.8,244.6,316.6,249.4z M306,256.9 c0.5-7.3,0.7-14.5,0.7-21.8c0-7.3-0.3-14.6-0.8-21.9c-6.1-4-12.2-7.9-18.5-11.5c-6.3-3.6-12.7-7-19.2-10.2 c-6.4,3.1-12.9,6.5-19.3,10.2c-6.4,3.7-12.6,7.6-18.5,11.6c-0.5,7.3-0.8,14.5-0.8,21.8c0,7.3,0.3,14.6,0.8,21.8 c6,4.1,12.2,8,18.5,11.6c6.4,3.7,12.8,7.1,19.4,10.2c6.3-3.1,12.7-6.5,19.1-10.2C293.9,264.8,300.1,260.9,306,256.9z M301.3,291.9c1.6-7.3,2.7-14.6,3.5-22c-4,2.6-8.1,5.1-12.3,7.5c-4.1,2.4-8.2,4.6-12.3,6.8C287.4,287.2,294.5,289.8,301.3,291.9 z M304.6,200.2c-0.9-7.3-2.1-14.5-3.7-21.7c-6.7,2.1-13.7,4.6-20.8,7.6c4.1,2.2,8.2,4.4,12.3,6.7 C296.6,195.2,300.6,197.7,304.6,200.2z M297,307.8c0.7-2,1.3-3.9,1.9-5.9c-10.4-3.2-20.6-7.1-30.5-11.7 c-9.8,4.7-19.9,8.7-30.3,12.1c0.8,2.6,1.6,5.2,2.5,7.8c7.6,21.7,18.7,34.7,27.4,34.7c2.9-0.4,5.6-1.5,8-3c2.4-1.5,4.5-3.5,6.2-6 C288.8,327.4,293.8,317.9,297,307.8z M298.4,168.6c-0.4-1.6-0.9-3.1-1.4-4.7c-7.9-23.7-19.9-38.3-29.1-38.3 c-8.7,0-20,13.5-27.6,35.7c-0.8,2.4-1.5,4.7-2.2,7.1c10.3,3.2,20.4,7.2,30.2,11.8C278,175.7,288.1,171.8,298.4,168.6z M256.4,284.4c-4.3-2.2-8.5-4.5-12.7-6.9c-4.1-2.4-8.1-4.8-12.1-7.3c1,7.8,2.3,15.2,3.8,22.2C242.6,290,249.6,287.4,256.4,284.4 z M256.2,186.1c-6.8-2.9-13.7-5.5-20.7-7.7c-1.6,6.9-2.8,14.2-3.8,21.8C239.6,195.1,247.8,190.4,256.2,186.1z M225.6,175.7 c-1.6-0.4-3.2-0.8-4.8-1.1c-24.5-5-43.1-1.9-47.7,6.1c-0.9,1.6-1.4,3.6-1.4,5.9c0,8.6,6.4,21.9,18.5,35.8 c1.7,1.9,3.4,3.8,5.1,5.6c7.9-7.3,16.4-14.1,25.2-20.3C221.5,196.9,223.2,186.2,225.6,175.7z M219.6,296.5c2-0.4,4-0.9,6-1.4 c-2.4-10.7-4.1-21.5-5.1-32.5c-8.9-6.2-17.3-13-25.2-20.3c-2,2.1-4,4.2-5.8,6.4c-15,17.4-20.7,33.5-16.3,41.1 c3.7,4.6,9,7.4,14.9,7.8C198.6,299.1,209.3,298.8,219.6,296.5z M219.3,235.2c0-4.7,0.1-9.4,0.3-14.1 c-6.1,4.6-11.8,9.3-16.9,14.1c5.2,4.8,10.8,9.5,16.9,14.1C219.4,244.6,219.3,239.9,219.3,235.2z" fill="#509FD6"></path><path class="st5" d="M286.5,224.3c5.9,10.2,2.4,23.3-7.8,29.2c-10.2,5.9-23.3,2.4-29.2-7.8c-5.9-10.2-2.4-23.3,7.8-29.2 c3.4-1.9,7-2.9,10.7-2.9C275.4,213.6,282.6,217.4,286.5,224.3z" fill="#509FD6"></path></g></g></g></g></svg>