<svg xmlns="http://www.w3.org/2000/svg" style="height: 0; width: 0; position: absolute;"><symbol id="icon-wind" viewBox="0 0 16 16"><g class="jsopx-icon-wrapper"><path d="M12.5 2A2.5 2.5 0 0 0 10 4.5a.5.5 0 0 1-1 0A3.5 3.5 0 1 1 12.5 8H.5a.5.5 0 0 1 0-1h12a2.5 2.5 0 0 0 0-5m-7 1a1 1 0 0 0-1 1 .5.5 0 0 1-1 0 2 2 0 1 1 2 2h-5a.5.5 0 0 1 0-1h5a1 1 0 0 0 0-2M0 9.5A.5.5 0 0 1 .5 9h10.042a3 3 0 1 1-3 3 .5.5 0 0 1 1 0 2 2 0 1 0 2-2H.5a.5.5 0 0 1-.5-.5" stroke="none"></path></g></symbol><symbol id="icon-water" viewBox="0 0 16 16"><g class="jsopx-icon-wrapper"><path d="M.036 3.314a.5.5 0 0 1 .65-.278l1.757.703a1.5 1.5 0 0 0 1.114 0l1.014-.406a2.5 2.5 0 0 1 1.857 0l1.015.406a1.5 1.5 0 0 0 1.114 0l1.014-.406a2.5 2.5 0 0 1 1.857 0l1.015.406a1.5 1.5 0 0 0 1.114 0l1.757-.703a.5.5 0 1 1 .372.928l-1.758.703a2.5 2.5 0 0 1-1.857 0l-1.014-.406a1.5 1.5 0 0 0-1.114 0l-1.015.406a2.5 2.5 0 0 1-1.857 0l-1.014-.406a1.5 1.5 0 0 0-1.114 0l-1.015.406a2.5 2.5 0 0 1-1.857 0L.314 3.964a.5.5 0 0 1-.278-.65m0 3a.5.5 0 0 1 .65-.278l1.757.703a1.5 1.5 0 0 0 1.114 0l1.014-.406a2.5 2.5 0 0 1 1.857 0l1.015.406a1.5 1.5 0 0 0 1.114 0l1.014-.406a2.5 2.5 0 0 1 1.857 0l1.015.406a1.5 1.5 0 0 0 1.114 0l1.757-.703a.5.5 0 1 1 .372.928l-1.758.703a2.5 2.5 0 0 1-1.857 0l-1.014-.406a1.5 1.5 0 0 0-1.114 0l-1.015.406a2.5 2.5 0 0 1-1.857 0l-1.014-.406a1.5 1.5 0 0 0-1.114 0l-1.015.406a2.5 2.5 0 0 1-1.857 0L.314 6.964a.5.5 0 0 1-.278-.65m0 3a.5.5 0 0 1 .65-.278l1.757.703a1.5 1.5 0 0 0 1.114 0l1.014-.406a2.5 2.5 0 0 1 1.857 0l1.015.406a1.5 1.5 0 0 0 1.114 0l1.014-.406a2.5 2.5 0 0 1 1.857 0l1.015.406a1.5 1.5 0 0 0 1.114 0l1.757-.703a.5.5 0 1 1 .372.928l-1.758.703a2.5 2.5 0 0 1-1.857 0l-1.014-.406a1.5 1.5 0 0 0-1.114 0l-1.015.406a2.5 2.5 0 0 1-1.857 0l-1.014-.406a1.5 1.5 0 0 0-1.114 0l-1.015.406a2.5 2.5 0 0 1-1.857 0L.314 9.964a.5.5 0 0 1-.278-.65m0 3a.5.5 0 0 1 .65-.278l1.757.703a1.5 1.5 0 0 0 1.114 0l1.014-.406a2.5 2.5 0 0 1 1.857 0l1.015.406a1.5 1.5 0 0 0 1.114 0l1.014-.406a2.5 2.5 0 0 1 1.857 0l1.015.406a1.5 1.5 0 0 0 1.114 0l1.757-.703a.5.5 0 1 1 .372.928l-1.758.703a2.5 2.5 0 0 1-1.857 0l-1.014-.406a1.5 1.5 0 0 0-1.114 0l-1.015.406a2.5 2.5 0 0 1-1.857 0l-1.014-.406a1.5 1.5 0 0 0-1.114 0l-1.015.406a2.5 2.5 0 0 1-1.857 0l-1.757-.703a.5.5 0 0 1-.278-.65" stroke="none"></path></g></symbol><symbol id="icon-umbrella-fill" viewBox="0 0 16 16"><g class="jsopx-icon-wrapper"><path fill-rule="evenodd" d="M8 0a.5.5 0 0 1 .5.5v.514C12.625 1.238 16 4.22 16 8c0 0 0 .5-.5.5-.149 0-.352-.145-.352-.145l-.004-.004-.025-.023a3.5 3.5 0 0 0-.555-.394A3.17 3.17 0 0 0 13 7.5c-.638 0-1.178.213-1.564.434a3.5 3.5 0 0 0-.555.394l-.025.023-.003.003s-.204.146-.353.146-.352-.145-.352-.145l-.004-.004-.025-.023a3.5 3.5 0 0 0-.555-.394 3.3 3.3 0 0 0-1.064-.39V13.5H8h.5v.039l-.005.083a3 3 0 0 1-.298 1.102 2.26 2.26 0 0 1-.763.88C7.06 15.851 6.587 16 6 16s-1.061-.148-1.434-.396a2.26 2.26 0 0 1-.763-.88 3 3 0 0 1-.302-1.185v-.025l-.001-.009v-.003s0-.002.5-.002h-.5V13a.5.5 0 0 1 1 0v.506l.003.044a2 2 0 0 0 .195.726c.095.191.23.367.423.495.19.127.466.229.879.229s.689-.102.879-.229c.193-.128.328-.304.424-.495a2 2 0 0 0 .197-.77V7.544a3.3 3.3 0 0 0-1.064.39 3.5 3.5 0 0 0-.58.417l-.004.004S5.65 8.5 5.5 8.5s-.352-.145-.352-.145l-.004-.004a3.5 3.5 0 0 0-.58-.417A3.17 3.17 0 0 0 3 7.5c-.638 0-1.177.213-1.564.434a3.5 3.5 0 0 0-.58.417l-.004.004S.65 8.5.5 8.5C0 8.5 0 8 0 8c0-3.78 3.375-6.762 7.5-6.986V.5A.5.5 0 0 1 8 0" stroke="none"></path></g></symbol><symbol id="icon-umbrella" viewBox="0 0 16 16"><g class="jsopx-icon-wrapper"><path d="M8 0a.5.5 0 0 1 .5.5v.514C12.625 1.238 16 4.22 16 8c0 0 0 .5-.5.5-.149 0-.352-.145-.352-.145l-.004-.004-.025-.023a3.5 3.5 0 0 0-.555-.394A3.17 3.17 0 0 0 13 7.5c-.638 0-1.178.213-1.564.434a3.5 3.5 0 0 0-.555.394l-.025.023-.003.003s-.204.146-.353.146-.352-.145-.352-.145l-.004-.004-.025-.023a3.5 3.5 0 0 0-.555-.394 3.3 3.3 0 0 0-1.064-.39V13.5H8h.5v.039l-.005.083a3 3 0 0 1-.298 1.102 2.26 2.26 0 0 1-.763.88C7.06 15.851 6.587 16 6 16s-1.061-.148-1.434-.396a2.26 2.26 0 0 1-.763-.88 3 3 0 0 1-.302-1.185v-.025l-.001-.009v-.003s0-.002.5-.002h-.5V13a.5.5 0 0 1 1 0v.506l.003.044a2 2 0 0 0 .195.726c.095.191.23.367.423.495.19.127.466.229.879.229s.689-.102.879-.229c.193-.128.328-.304.424-.495a2 2 0 0 0 .197-.77V7.544a3.3 3.3 0 0 0-1.064.39 3.5 3.5 0 0 0-.58.417l-.004.004S5.65 8.5 5.5 8.5s-.352-.145-.352-.145l-.004-.004a3.5 3.5 0 0 0-.58-.417A3.17 3.17 0 0 0 3 7.5c-.638 0-1.177.213-1.564.434a3.5 3.5 0 0 0-.58.417l-.004.004S.65 8.5.5 8.5C0 8.5 0 8 0 8c0-3.78 3.375-6.762 7.5-6.986V.5A.5.5 0 0 1 8 0M6.577 2.123c-2.833.5-4.99 2.458-5.474 4.854A4.1 4.1 0 0 1 3 6.5c.806 0 1.48.25 1.962.511a9.7 9.7 0 0 1 .344-2.358c.242-.868.64-1.765 1.271-2.53m-.615 4.93A4.16 4.16 0 0 1 8 6.5a4.16 4.16 0 0 1 2.038.553 8.7 8.7 0 0 0-.307-2.13C9.434 3.858 8.898 2.83 8 2.117c-.898.712-1.434 1.74-1.731 2.804a8.7 8.7 0 0 0-.307 2.131zm3.46-4.93c.631.765 1.03 1.662 1.272 2.53.233.833.328 1.66.344 2.358A4.14 4.14 0 0 1 13 6.5c.77 0 1.42.23 1.897.477-.484-2.396-2.641-4.355-5.474-4.854z" stroke="none"></path></g></symbol><symbol id="icon-tsunami" viewBox="0 0 16 16"><g class="jsopx-icon-wrapper"><path d="M.036 12.314a.5.5 0 0 1 .65-.278l1.757.703a1.5 1.5 0 0 0 1.114 0l1.014-.406a2.5 2.5 0 0 1 1.857 0l1.015.406a1.5 1.5 0 0 0 1.114 0l1.014-.406a2.5 2.5 0 0 1 1.857 0l1.015.406a1.5 1.5 0 0 0 1.114 0l1.757-.703a.5.5 0 1 1 .372.928l-1.758.703a2.5 2.5 0 0 1-1.857 0l-1.014-.406a1.5 1.5 0 0 0-1.114 0l-1.015.406a2.5 2.5 0 0 1-1.857 0l-1.014-.406a1.5 1.5 0 0 0-1.114 0l-1.015.406a2.5 2.5 0 0 1-1.857 0l-1.757-.703a.5.5 0 0 1-.278-.65m0 2a.5.5 0 0 1 .65-.278l1.757.703a1.5 1.5 0 0 0 1.114 0l1.014-.406a2.5 2.5 0 0 1 1.857 0l1.015.406a1.5 1.5 0 0 0 1.114 0l1.014-.406a2.5 2.5 0 0 1 1.857 0l1.015.406a1.5 1.5 0 0 0 1.114 0l1.757-.703a.5.5 0 1 1 .372.928l-1.758.703a2.5 2.5 0 0 1-1.857 0l-1.014-.406a1.5 1.5 0 0 0-1.114 0l-1.015.406a2.5 2.5 0 0 1-1.857 0l-1.014-.406a1.5 1.5 0 0 0-1.114 0l-1.015.406a2.5 2.5 0 0 1-1.857 0l-1.757-.703a.5.5 0 0 1-.278-.65M2.662 8.08c-.456 1.063-.994 2.098-1.842 2.804a.5.5 0 0 1-.64-.768c.652-.544 1.114-1.384 1.564-2.43.14-.328.281-.68.427-1.044.302-.754.624-1.559 1.01-2.308C3.763 3.2 4.528 2.105 5.7 1.299 6.877.49 8.418 0 10.5 0c1.463 0 2.511.4 3.179 1.058.67.66.893 1.518.819 2.302-.074.771-.441 1.516-1.02 1.965a1.88 1.88 0 0 1-1.904.27c-.65.642-.907 1.679-.71 2.614C11.076 9.215 11.784 10 13 10h2.5a.5.5 0 0 1 0 1H13c-1.784 0-2.826-1.215-3.114-2.585-.232-1.1.005-2.373.758-3.284L10.5 5.06l-.777.388a.5.5 0 0 1-.447 0l-1-.5a.5.5 0 0 1 .447-.894l.777.388.776-.388a.5.5 0 0 1 .447 0l1 .5.034.018c.44.264.81.195 1.108-.036.328-.255.586-.729.637-1.27.05-.529-.1-1.076-.525-1.495s-1.19-.77-2.477-.77c-1.918 0-3.252.448-4.232 1.123C5.283 2.8 4.61 3.738 4.07 4.79c-.365.71-.655 1.433-.945 2.16-.15.376-.301.753-.463 1.13" stroke="none"></path></g></symbol><symbol id="icon-tropical-storm" viewBox="0 0 16 16"><g class="jsopx-icon-wrapper"><path d="M8 9.5a2 2 0 1 0 0-4 2 2 0 0 0 0 4" stroke="none"></path><path d="M9.5 2c-.9 0-1.75.216-2.501.6A5 5 0 0 1 13 7.5a6.5 6.5 0 1 1-13 0 .5.5 0 0 1 1 0 5.5 5.5 0 0 0 8.001 4.9A5 5 0 0 1 3 7.5a6.5 6.5 0 0 1 13 0 .5.5 0 0 1-1 0A5.5 5.5 0 0 0 9.5 2M8 3.5a4 4 0 1 0 0 8 4 4 0 0 0 0-8" stroke="none"></path></g></symbol><symbol id="icon-tornado" viewBox="0 0 16 16"><g class="jsopx-icon-wrapper"><path d="M1.125 2.45A.9.9 0 0 1 1 2c0-.26.116-.474.258-.634a1.9 1.9 0 0 1 .513-.389c.387-.21.913-.385 1.52-.525C4.514.17 6.18 0 8 0c1.821 0 3.486.17 4.709.452.607.14 1.133.314 1.52.525.193.106.374.233.513.389.141.16.258.374.258.634 0 1.011-.35 1.612-.634 2.102l-.116.203a2.6 2.6 0 0 0-.313.809 3 3 0 0 0-.011.891.5.5 0 0 1 .428.849q-.091.09-.215.195c.204 1.116.088 1.99-.3 2.711-.453.84-1.231 1.383-2.02 1.856q-.307.183-.62.364c-1.444.832-2.928 1.689-3.735 3.706a.5.5 0 0 1-.748.226l-.001-.001-.002-.001-.004-.003-.01-.008a2 2 0 0 1-.147-.115 4.1 4.1 0 0 1-1.179-1.656 3.8 3.8 0 0 1-.247-1.296A.5.5 0 0 1 5 12.5v-.018l.008-.079a.73.73 0 0 1 .188-.386c.09-.489.272-1.014.573-1.574a.5.5 0 0 1 .073-.918 3.3 3.3 0 0 1 .617-.144l.15-.193c.285-.356.404-.639.437-.861a.95.95 0 0 0-.122-.619c-.249-.455-.815-.903-1.613-1.43q-.291-.19-.609-.394l-.119-.076a12 12 0 0 1-1.241-.334.5.5 0 0 1-.285-.707l-.23-.18C2.117 4.01 1.463 3.32 1.125 2.45m1.973 1.051q.17.156.358.308c.472.381.99.722 1.515 1.06 1.54.317 3.632.5 5.43.14a.5.5 0 0 1 .197.981c-1.216.244-2.537.26-3.759.157.399.326.744.682.963 1.081.203.373.302.79.233 1.247q-.077.494-.39.985l.22.053.006.002c.481.12.863.213 1.47.01a.5.5 0 1 1 .317.95c-.888.295-1.505.141-2.023.012l-.006-.002a4 4 0 0 0-.644-.123c-.37.55-.598 1.05-.726 1.497q.212.068.465.194a.5.5 0 1 1-.448.894 3 3 0 0 0-.148-.07c.012.345.084.643.18.895.14.369.342.666.528.886.992-1.903 2.583-2.814 3.885-3.56q.305-.173.584-.34c.775-.464 1.34-.89 1.653-1.472.212-.393.33-.9.26-1.617A6.74 6.74 0 0 1 10 8.5a.5.5 0 0 1 0-1 5.76 5.76 0 0 0 3.017-.872l-.007-.03c-.135-.673-.14-1.207-.056-1.665.084-.46.253-.81.421-1.113l.131-.23q.098-.167.182-.327c-.29.107-.62.202-.98.285C11.487 3.83 9.822 4 8 4c-1.821 0-3.486-.17-4.709-.452q-.098-.022-.193-.047M13.964 2a1 1 0 0 0-.214-.145c-.272-.148-.697-.297-1.266-.428C11.354 1.166 9.769 1 8 1s-3.354.166-4.484.427c-.569.13-.994.28-1.266.428A1 1 0 0 0 2.036 2q.058.058.214.145c.272.148.697.297 1.266.428C4.646 2.834 6.231 3 8 3s3.354-.166 4.484-.427c.569-.13.994-.28 1.266-.428A1 1 0 0 0 13.964 2" stroke="none"></path></g></symbol><symbol id="icon-thermometer-sun-2" viewBox="0 0 16 16"><g class="jsopx-icon-wrapper"><path d="M5 12.5a1.5 1.5 0 1 1-2-1.415V2.5a.5.5 0 0 1 1 0v8.585A1.5 1.5 0 0 1 5 12.5" stroke="none"></path><path d="M1 2.5a2.5 2.5 0 0 1 5 0v7.55a3.5 3.5 0 1 1-5 0zM3.5 1A1.5 1.5 0 0 0 2 2.5v7.987l-.167.15a2.5 2.5 0 1 0 3.333 0L5 10.486V2.5A1.5 1.5 0 0 0 3.5 1m5 1a.5.5 0 0 1 .5.5v1a.5.5 0 0 1-1 0v-1a.5.5 0 0 1 .5-.5m4.243 1.757a.5.5 0 0 1 0 .707l-.707.708a.5.5 0 1 1-.708-.708l.708-.707a.5.5 0 0 1 .707 0M8 5.5a.5.5 0 0 1 .5-.5 3 3 0 1 1 0 6 .5.5 0 0 1 0-1 2 2 0 0 0 0-4 .5.5 0 0 1-.5-.5M12.5 8a.5.5 0 0 1 .5-.5h1a.5.5 0 1 1 0 1h-1a.5.5 0 0 1-.5-.5m-1.172 2.828a.5.5 0 0 1 .708 0l.707.708a.5.5 0 0 1-.707.707l-.708-.707a.5.5 0 0 1 0-.708M8.5 12a.5.5 0 0 1 .5.5v1a.5.5 0 0 1-1 0v-1a.5.5 0 0 1 .5-.5" stroke="none"></path></g></symbol><symbol id="icon-thermometer-half-2" viewBox="0 0 16 16"><g class="jsopx-icon-wrapper"><path d="M9.5 12.5a1.5 1.5 0 1 1-2-1.415V6.5a.5.5 0 0 1 1 0v4.585a1.5 1.5 0 0 1 1 1.415" stroke="none"></path><path d="M5.5 2.5a2.5 2.5 0 0 1 5 0v7.55a3.5 3.5 0 1 1-5 0zM8 1a1.5 1.5 0 0 0-1.5 1.5v7.987l-.167.15a2.5 2.5 0 1 0 3.333 0l-.166-.15V2.5A1.5 1.5 0 0 0 8 1" stroke="none"></path></g></symbol><symbol id="icon-thermometer-snow-4" viewBox="0 0 16 16"><g class="jsopx-icon-wrapper"><path d="M5 12.5a1.5 1.5 0 1 1-2-1.415V9.5a.5.5 0 0 1 1 0v1.585A1.5 1.5 0 0 1 5 12.5" stroke="none"></path><path d="M1 2.5a2.5 2.5 0 0 1 5 0v7.55a3.5 3.5 0 1 1-5 0zM3.5 1A1.5 1.5 0 0 0 2 2.5v7.987l-.167.15a2.5 2.5 0 1 0 3.333 0L5 10.486V2.5A1.5 1.5 0 0 0 3.5 1m5 1a.5.5 0 0 1 .5.5v1.293l.646-.647a.5.5 0 0 1 .708.708L9 5.207v1.927l1.669-.963.495-1.85a.5.5 0 1 1 .966.26l-.237.882 1.12-.646a.5.5 0 0 1 .5.866l-1.12.646.884.237a.5.5 0 1 1-.26.966l-1.848-.495L9.5 8l1.669.963 1.849-.495a.5.5 0 1 1 .258.966l-.883.237 1.12.646a.5.5 0 0 1-.5.866l-1.12-.646.237.883a.5.5 0 1 1-.966.258L10.67 9.83 9 8.866v1.927l1.354 1.353a.5.5 0 0 1-.708.708L9 12.207V13.5a.5.5 0 0 1-1 0v-11a.5.5 0 0 1 .5-.5" stroke="none"></path></g></symbol><symbol id="icon-thermometer-half-1" viewBox="0 0 16 16"><g class="jsopx-icon-wrapper"><path d="M9.5 12.5a1.5 1.5 0 1 1-2-1.415V6.5a.5.5 0 0 1 1 0v4.585a1.5 1.5 0 0 1 1 1.415" stroke="none"></path><path d="M5.5 2.5a2.5 2.5 0 0 1 5 0v7.55a3.5 3.5 0 1 1-5 0zM8 1a1.5 1.5 0 0 0-1.5 1.5v7.987l-.167.15a2.5 2.5 0 1 0 3.333 0l-.166-.15V2.5A1.5 1.5 0 0 0 8 1" stroke="none"></path></g></symbol><symbol id="icon-thermometer-high-2" viewBox="0 0 16 16"><g class="jsopx-icon-wrapper"><path d="M9.5 12.5a1.5 1.5 0 1 1-2-1.415V2.5a.5.5 0 0 1 1 0v8.585a1.5 1.5 0 0 1 1 1.415" stroke="none"></path><path d="M5.5 2.5a2.5 2.5 0 0 1 5 0v7.55a3.5 3.5 0 1 1-5 0zM8 1a1.5 1.5 0 0 0-1.5 1.5v7.987l-.167.15a2.5 2.5 0 1 0 3.333 0l-.166-.15V2.5A1.5 1.5 0 0 0 8 1" stroke="none"></path></g></symbol><symbol id="icon-thermometer-low-2" viewBox="0 0 16 16"><g class="jsopx-icon-wrapper"><path d="M9.5 12.5a1.5 1.5 0 1 1-2-1.415V9.5a.5.5 0 0 1 1 0v1.585a1.5 1.5 0 0 1 1 1.415" stroke="none"></path><path d="M5.5 2.5a2.5 2.5 0 0 1 5 0v7.55a3.5 3.5 0 1 1-5 0zM8 1a1.5 1.5 0 0 0-1.5 1.5v7.987l-.167.15a2.5 2.5 0 1 0 3.333 0l-.166-.15V2.5A1.5 1.5 0 0 0 8 1" stroke="none"></path></g></symbol><symbol id="icon-thermometer-2" viewBox="0 0 16 16"><g class="jsopx-icon-wrapper"><path d="M8 14a1.5 1.5 0 1 0 0-3 1.5 1.5 0 0 0 0 3" stroke="none"></path><path d="M8 0a2.5 2.5 0 0 0-2.5 2.5v7.55a3.5 3.5 0 1 0 5 0V2.5A2.5 2.5 0 0 0 8 0M6.5 2.5a1.5 1.5 0 1 1 3 0v7.987l.167.15a2.5 2.5 0 1 1-3.333 0l.166-.15z" stroke="none"></path></g></symbol><symbol id="icon-thermometer-low-1" viewBox="0 0 16 16"><g class="jsopx-icon-wrapper"><path d="M9.5 12.5a1.5 1.5 0 1 1-2-1.415V9.5a.5.5 0 0 1 1 0v1.585a1.5 1.5 0 0 1 1 1.415" stroke="none"></path><path d="M5.5 2.5a2.5 2.5 0 0 1 5 0v7.55a3.5 3.5 0 1 1-5 0zM8 1a1.5 1.5 0 0 0-1.5 1.5v7.987l-.167.15a2.5 2.5 0 1 0 3.333 0l-.166-.15V2.5A1.5 1.5 0 0 0 8 1" stroke="none"></path></g></symbol><symbol id="icon-thermometer-high-1" viewBox="0 0 16 16"><g class="jsopx-icon-wrapper"><path d="M9.5 12.5a1.5 1.5 0 1 1-2-1.415V2.5a.5.5 0 0 1 1 0v8.585a1.5 1.5 0 0 1 1 1.415" stroke="none"></path><path d="M5.5 2.5a2.5 2.5 0 0 1 5 0v7.55a3.5 3.5 0 1 1-5 0zM8 1a1.5 1.5 0 0 0-1.5 1.5v7.987l-.167.15a2.5 2.5 0 1 0 3.333 0l-.166-.15V2.5A1.5 1.5 0 0 0 8 1" stroke="none"></path></g></symbol><symbol id="icon-thermometer-1" viewBox="0 0 16 16"><g class="jsopx-icon-wrapper"><path d="M8 14a1.5 1.5 0 1 0 0-3 1.5 1.5 0 0 0 0 3" stroke="none"></path><path d="M8 0a2.5 2.5 0 0 0-2.5 2.5v7.55a3.5 3.5 0 1 0 5 0V2.5A2.5 2.5 0 0 0 8 0M6.5 2.5a1.5 1.5 0 1 1 3 0v7.987l.167.15a2.5 2.5 0 1 1-3.333 0l.166-.15z" stroke="none"></path></g></symbol><symbol id="icon-thermometer-sun-1" viewBox="0 0 16 16"><g class="jsopx-icon-wrapper"><path d="M5 12.5a1.5 1.5 0 1 1-2-1.415V2.5a.5.5 0 0 1 1 0v8.585A1.5 1.5 0 0 1 5 12.5" stroke="none"></path><path d="M1 2.5a2.5 2.5 0 0 1 5 0v7.55a3.5 3.5 0 1 1-5 0zM3.5 1A1.5 1.5 0 0 0 2 2.5v7.987l-.167.15a2.5 2.5 0 1 0 3.333 0L5 10.486V2.5A1.5 1.5 0 0 0 3.5 1m5 1a.5.5 0 0 1 .5.5v1a.5.5 0 0 1-1 0v-1a.5.5 0 0 1 .5-.5m4.243 1.757a.5.5 0 0 1 0 .707l-.707.708a.5.5 0 1 1-.708-.708l.708-.707a.5.5 0 0 1 .707 0M8 5.5a.5.5 0 0 1 .5-.5 3 3 0 1 1 0 6 .5.5 0 0 1 0-1 2 2 0 0 0 0-4 .5.5 0 0 1-.5-.5M12.5 8a.5.5 0 0 1 .5-.5h1a.5.5 0 1 1 0 1h-1a.5.5 0 0 1-.5-.5m-1.172 2.828a.5.5 0 0 1 .708 0l.707.708a.5.5 0 0 1-.707.707l-.708-.707a.5.5 0 0 1 0-.708M8.5 12a.5.5 0 0 1 .5.5v1a.5.5 0 0 1-1 0v-1a.5.5 0 0 1 .5-.5" stroke="none"></path></g></symbol><symbol id="icon-thermometer-snow-3" viewBox="0 0 16 16"><g class="jsopx-icon-wrapper"><path d="M5 12.5a1.5 1.5 0 1 1-2-1.415V9.5a.5.5 0 0 1 1 0v1.585A1.5 1.5 0 0 1 5 12.5" stroke="none"></path><path d="M1 2.5a2.5 2.5 0 0 1 5 0v7.55a3.5 3.5 0 1 1-5 0zM3.5 1A1.5 1.5 0 0 0 2 2.5v7.987l-.167.15a2.5 2.5 0 1 0 3.333 0L5 10.486V2.5A1.5 1.5 0 0 0 3.5 1m5 1a.5.5 0 0 1 .5.5v1.293l.646-.647a.5.5 0 0 1 .708.708L9 5.207v1.927l1.669-.963.495-1.85a.5.5 0 1 1 .966.26l-.237.882 1.12-.646a.5.5 0 0 1 .5.866l-1.12.646.884.237a.5.5 0 1 1-.26.966l-1.848-.495L9.5 8l1.669.963 1.849-.495a.5.5 0 1 1 .258.966l-.883.237 1.12.646a.5.5 0 0 1-.5.866l-1.12-.646.237.883a.5.5 0 1 1-.966.258L10.67 9.83 9 8.866v1.927l1.354 1.353a.5.5 0 0 1-.708.708L9 12.207V13.5a.5.5 0 0 1-1 0v-11a.5.5 0 0 1 .5-.5" stroke="none"></path></g></symbol><symbol id="icon-sun" viewBox="0 0 16 16"><g class="jsopx-icon-wrapper"><path d="M8 11a3 3 0 1 1 0-6 3 3 0 0 1 0 6m0 1a4 4 0 1 0 0-8 4 4 0 0 0 0 8M8 0a.5.5 0 0 1 .5.5v2a.5.5 0 0 1-1 0v-2A.5.5 0 0 1 8 0m0 13a.5.5 0 0 1 .5.5v2a.5.5 0 0 1-1 0v-2A.5.5 0 0 1 8 13m8-5a.5.5 0 0 1-.5.5h-2a.5.5 0 0 1 0-1h2a.5.5 0 0 1 .5.5M3 8a.5.5 0 0 1-.5.5h-2a.5.5 0 0 1 0-1h2A.5.5 0 0 1 3 8m10.657-5.657a.5.5 0 0 1 0 .707l-1.414 1.415a.5.5 0 1 1-.707-.708l1.414-1.414a.5.5 0 0 1 .707 0m-9.193 9.193a.5.5 0 0 1 0 .707L3.05 13.657a.5.5 0 0 1-.707-.707l1.414-1.414a.5.5 0 0 1 .707 0m9.193 2.121a.5.5 0 0 1-.707 0l-1.414-1.414a.5.5 0 0 1 .707-.707l1.414 1.414a.5.5 0 0 1 0 .707M4.464 4.465a.5.5 0 0 1-.707 0L2.343 3.05a.5.5 0 1 1 .707-.707l1.414 1.414a.5.5 0 0 1 0 .708" stroke="none"></path></g></symbol><symbol id="icon-emoji-sunglasses-fill" viewBox="0 0 16 16"><g class="jsopx-icon-wrapper"><path d="M8 16A8 8 0 1 0 8 0a8 8 0 0 0 0 16M2.31 5.243A1 1 0 0 1 3.28 4H6a1 1 0 0 1 1 1v.116A4.2 4.2 0 0 1 8 5c.35 0 .69.04 1 .116V5a1 1 0 0 1 1-1h2.72a1 1 0 0 1 .97 1.243l-.311 1.242A2 2 0 0 1 11.439 8H11a2 2 0 0 1-1.994-1.839A3 3 0 0 0 8 6c-.393 0-.74.064-1.006.161A2 2 0 0 1 5 8h-.438a2 2 0 0 1-1.94-1.515zM4.969 9.75A3.5 3.5 0 0 0 8 11.5a3.5 3.5 0 0 0 3.032-1.75.5.5 0 1 1 .866.5A4.5 4.5 0 0 1 8 12.5a4.5 4.5 0 0 1-3.898-2.25.5.5 0 0 1 .866-.5z" stroke="none"></path></g></symbol><symbol id="icon-sun-fill" viewBox="0 0 16 16"><g class="jsopx-icon-wrapper"><path d="M8 12a4 4 0 1 0 0-8 4 4 0 0 0 0 8M8 0a.5.5 0 0 1 .5.5v2a.5.5 0 0 1-1 0v-2A.5.5 0 0 1 8 0m0 13a.5.5 0 0 1 .5.5v2a.5.5 0 0 1-1 0v-2A.5.5 0 0 1 8 13m8-5a.5.5 0 0 1-.5.5h-2a.5.5 0 0 1 0-1h2a.5.5 0 0 1 .5.5M3 8a.5.5 0 0 1-.5.5h-2a.5.5 0 0 1 0-1h2A.5.5 0 0 1 3 8m10.657-5.657a.5.5 0 0 1 0 .707l-1.414 1.415a.5.5 0 1 1-.707-.708l1.414-1.414a.5.5 0 0 1 .707 0m-9.193 9.193a.5.5 0 0 1 0 .707L3.05 13.657a.5.5 0 0 1-.707-.707l1.414-1.414a.5.5 0 0 1 .707 0m9.193 2.121a.5.5 0 0 1-.707 0l-1.414-1.414a.5.5 0 0 1 .707-.707l1.414 1.414a.5.5 0 0 1 0 .707M4.464 4.465a.5.5 0 0 1-.707 0L2.343 3.05a.5.5 0 1 1 .707-.707l1.414 1.414a.5.5 0 0 1 0 .708" stroke="none"></path></g></symbol><symbol id="icon-thermometer-sun" viewBox="0 0 16 16"><g class="jsopx-icon-wrapper"><path d="M5 12.5a1.5 1.5 0 1 1-2-1.415V2.5a.5.5 0 0 1 1 0v8.585A1.5 1.5 0 0 1 5 12.5" stroke="none"></path><path d="M1 2.5a2.5 2.5 0 0 1 5 0v7.55a3.5 3.5 0 1 1-5 0zM3.5 1A1.5 1.5 0 0 0 2 2.5v7.987l-.167.15a2.5 2.5 0 1 0 3.333 0L5 10.486V2.5A1.5 1.5 0 0 0 3.5 1m5 1a.5.5 0 0 1 .5.5v1a.5.5 0 0 1-1 0v-1a.5.5 0 0 1 .5-.5m4.243 1.757a.5.5 0 0 1 0 .707l-.707.708a.5.5 0 1 1-.708-.708l.708-.707a.5.5 0 0 1 .707 0M8 5.5a.5.5 0 0 1 .5-.5 3 3 0 1 1 0 6 .5.5 0 0 1 0-1 2 2 0 0 0 0-4 .5.5 0 0 1-.5-.5M12.5 8a.5.5 0 0 1 .5-.5h1a.5.5 0 1 1 0 1h-1a.5.5 0 0 1-.5-.5m-1.172 2.828a.5.5 0 0 1 .708 0l.707.708a.5.5 0 0 1-.707.707l-.708-.707a.5.5 0 0 1 0-.708M8.5 12a.5.5 0 0 1 .5.5v1a.5.5 0 0 1-1 0v-1a.5.5 0 0 1 .5-.5" stroke="none"></path></g></symbol><symbol id="icon-sunset-fill" viewBox="0 0 16 16"><g class="jsopx-icon-wrapper"><path d="M7.646 4.854a.5.5 0 0 0 .708 0l1.5-1.5a.5.5 0 0 0-.708-.708l-.646.647V1.5a.5.5 0 0 0-1 0v1.793l-.646-.647a.5.5 0 1 0-.708.708zm-5.303-.51a.5.5 0 0 1 .707 0l1.414 1.413a.5.5 0 0 1-.707.707L2.343 5.05a.5.5 0 0 1 0-.707zm11.314 0a.5.5 0 0 1 0 .706l-1.414 1.414a.5.5 0 1 1-.707-.707l1.414-1.414a.5.5 0 0 1 .707 0zM11.709 11.5a4 4 0 1 0-7.418 0H.5a.5.5 0 0 0 0 1h15a.5.5 0 0 0 0-1h-3.79zM0 10a.5.5 0 0 1 .5-.5h2a.5.5 0 0 1 0 1h-2A.5.5 0 0 1 0 10m13 0a.5.5 0 0 1 .5-.5h2a.5.5 0 0 1 0 1h-2a.5.5 0 0 1-.5-.5" stroke="none"></path></g></symbol><symbol id="icon-sunset" viewBox="0 0 16 16"><g class="jsopx-icon-wrapper"><path d="M7.646 4.854a.5.5 0 0 0 .708 0l1.5-1.5a.5.5 0 0 0-.708-.708l-.646.647V1.5a.5.5 0 0 0-1 0v1.793l-.646-.647a.5.5 0 1 0-.708.708zm-5.303-.51a.5.5 0 0 1 .707 0l1.414 1.413a.5.5 0 0 1-.707.707L2.343 5.05a.5.5 0 0 1 0-.707zm11.314 0a.5.5 0 0 1 0 .706l-1.414 1.414a.5.5 0 1 1-.707-.707l1.414-1.414a.5.5 0 0 1 .707 0zM8 7a3 3 0 0 1 2.599 4.5H5.4A3 3 0 0 1 8 7m3.71 4.5a4 4 0 1 0-7.418 0H.499a.5.5 0 0 0 0 1h15a.5.5 0 0 0 0-1h-3.79zM0 10a.5.5 0 0 1 .5-.5h2a.5.5 0 0 1 0 1h-2A.5.5 0 0 1 0 10m13 0a.5.5 0 0 1 .5-.5h2a.5.5 0 0 1 0 1h-2a.5.5 0 0 1-.5-.5" stroke="none"></path></g></symbol><symbol id="icon-sunrise-fill" viewBox="0 0 16 16"><g class="jsopx-icon-wrapper"><path d="M7.646 1.146a.5.5 0 0 1 .708 0l1.5 1.5a.5.5 0 0 1-.708.708L8.5 2.707V4.5a.5.5 0 0 1-1 0V2.707l-.646.647a.5.5 0 1 1-.708-.708zM2.343 4.343a.5.5 0 0 1 .707 0l1.414 1.414a.5.5 0 0 1-.707.707L2.343 5.05a.5.5 0 0 1 0-.707m11.314 0a.5.5 0 0 1 0 .707l-1.414 1.414a.5.5 0 1 1-.707-.707l1.414-1.414a.5.5 0 0 1 .707 0M11.709 11.5a4 4 0 1 0-7.418 0H.5a.5.5 0 0 0 0 1h15a.5.5 0 0 0 0-1h-3.79zM0 10a.5.5 0 0 1 .5-.5h2a.5.5 0 0 1 0 1h-2A.5.5 0 0 1 0 10m13 0a.5.5 0 0 1 .5-.5h2a.5.5 0 0 1 0 1h-2a.5.5 0 0 1-.5-.5" stroke="none"></path></g></symbol><symbol id="icon-sunrise" viewBox="0 0 16 16"><g class="jsopx-icon-wrapper"><path d="M7.646 1.146a.5.5 0 0 1 .708 0l1.5 1.5a.5.5 0 0 1-.708.708L8.5 2.707V4.5a.5.5 0 0 1-1 0V2.707l-.646.647a.5.5 0 1 1-.708-.708zM2.343 4.343a.5.5 0 0 1 .707 0l1.414 1.414a.5.5 0 0 1-.707.707L2.343 5.05a.5.5 0 0 1 0-.707m11.314 0a.5.5 0 0 1 0 .707l-1.414 1.414a.5.5 0 1 1-.707-.707l1.414-1.414a.5.5 0 0 1 .707 0M8 7a3 3 0 0 1 2.599 4.5H5.4A3 3 0 0 1 8 7m3.71 4.5a4 4 0 1 0-7.418 0H.499a.5.5 0 0 0 0 1h15a.5.5 0 0 0 0-1h-3.79zM0 10a.5.5 0 0 1 .5-.5h2a.5.5 0 0 1 0 1h-2A.5.5 0 0 1 0 10m13 0a.5.5 0 0 1 .5-.5h2a.5.5 0 0 1 0 1h-2a.5.5 0 0 1-.5-.5" stroke="none"></path></g></symbol><symbol id="icon-sunglasses" viewBox="0 0 16 16"><g class="jsopx-icon-wrapper"><path d="M3 5a2 2 0 0 0-2 2v.5H.5a.5.5 0 0 0 0 1H1V9a2 2 0 0 0 2 2h1a3 3 0 0 0 3-3 1 1 0 1 1 2 0 3 3 0 0 0 3 3h1a2 2 0 0 0 2-2v-.5h.5a.5.5 0 0 0 0-1H15V7a2 2 0 0 0-2-2h-2a2 2 0 0 0-1.888 1.338A2 2 0 0 0 8 6a2 2 0 0 0-1.112.338A2 2 0 0 0 5 5zm0 1h.941c.264 0 .348.356.112.474l-.457.228a2 2 0 0 0-.894.894l-.228.457C2.356 8.289 2 8.205 2 7.94V7a1 1 0 0 1 1-1" stroke="none"></path></g></symbol><symbol id="icon-emoji-sunglasses" viewBox="0 0 16 16"><g class="jsopx-icon-wrapper"><path d="M4.968 9.75a.5.5 0 1 0-.866.5A4.5 4.5 0 0 0 8 12.5a4.5 4.5 0 0 0 3.898-2.25.5.5 0 1 0-.866-.5A3.5 3.5 0 0 1 8 11.5a3.5 3.5 0 0 1-3.032-1.75M7 5.116V5a1 1 0 0 0-1-1H3.28a1 1 0 0 0-.97 1.243l.311 1.242A2 2 0 0 0 4.561 8H5a2 2 0 0 0 1.994-1.839A3 3 0 0 1 8 6c.393 0 .74.064 1.006.161A2 2 0 0 0 11 8h.438a2 2 0 0 0 1.94-1.515l.311-1.242A1 1 0 0 0 12.72 4H10a1 1 0 0 0-1 1v.116A4.2 4.2 0 0 0 8 5c-.35 0-.69.04-1 .116" stroke="none"></path><path d="M16 8A8 8 0 1 1 0 8a8 8 0 0 1 16 0m-1 0A7 7 0 1 0 1 8a7 7 0 0 0 14 0" stroke="none"></path></g></symbol><symbol id="icon-stars" viewBox="0 0 16 16"><g class="jsopx-icon-wrapper"><path d="M7.657 6.247c.11-.33.576-.33.686 0l.645 1.937a2.89 2.89 0 0 0 1.829 1.828l1.936.645c.33.11.33.576 0 .686l-1.937.645a2.89 2.89 0 0 0-1.828 1.829l-.645 1.936a.361.361 0 0 1-.686 0l-.645-1.937a2.89 2.89 0 0 0-1.828-1.828l-1.937-.645a.361.361 0 0 1 0-.686l1.937-.645a2.89 2.89 0 0 0 1.828-1.828zM3.794 1.148a.217.217 0 0 1 .412 0l.387 1.162c.173.518.579.924 1.097 1.097l1.162.387a.217.217 0 0 1 0 .412l-1.162.387A1.73 1.73 0 0 0 4.593 5.69l-.387 1.162a.217.217 0 0 1-.412 0L3.407 5.69A1.73 1.73 0 0 0 2.31 4.593l-1.162-.387a.217.217 0 0 1 0-.412l1.162-.387A1.73 1.73 0 0 0 3.407 2.31zM10.863.099a.145.145 0 0 1 .274 0l.258.774c.115.346.386.617.732.732l.774.258a.145.145 0 0 1 0 .274l-.774.258a1.16 1.16 0 0 0-.732.732l-.258.774a.145.145 0 0 1-.274 0l-.258-.774a1.16 1.16 0 0 0-.732-.732L9.1 2.137a.145.145 0 0 1 0-.274l.774-.258c.346-.115.617-.386.732-.732z" stroke="none"></path></g></symbol><symbol id="icon-snow3-2" viewBox="0 0 16 16"><g class="jsopx-icon-wrapper"><path d="M8 7.5a.5.5 0 1 0 0 1 .5.5 0 0 0 0-1" stroke="none"></path><path d="M8 16a.5.5 0 0 1-.5-.5v-1.293l-.646.647a.5.5 0 0 1-.707-.708L7.5 12.793v-1.51l-2.053-1.232-1.348.778-.495 1.85a.5.5 0 1 1-.966-.26l.237-.882-1.12.646a.5.5 0 0 1-.5-.866l1.12-.646-.883-.237a.5.5 0 1 1 .258-.966l1.85.495L5 9.155v-2.31l-1.4-.808-1.85.495a.5.5 0 1 1-.259-.966l.884-.237-1.12-.646a.5.5 0 0 1 .5-.866l1.12.646-.237-.883a.5.5 0 1 1 .966-.258l.495 1.849 1.348.778L7.5 4.717v-1.51L6.147 1.854a.5.5 0 1 1 .707-.708l.646.647V.5a.5.5 0 0 1 1 0v1.293l.647-.647a.5.5 0 1 1 .707.708L8.5 3.207v1.51l2.053 1.232 1.348-.778.495-1.85a.5.5 0 1 1 .966.26l-.236.882 1.12-.646a.5.5 0 0 1 .5.866l-1.12.646.883.237a.5.5 0 1 1-.26.966l-1.848-.495-1.4.808v2.31l1.4.808 1.849-.495a.5.5 0 1 1 .259.966l-.883.237 1.12.646a.5.5 0 0 1-.5.866l-1.12-.646.236.883a.5.5 0 1 1-.966.258l-.495-1.849-1.348-.778L8.5 11.283v1.51l1.354 1.353a.5.5 0 0 1-.707.708l-.647-.647V15.5a.5.5 0 0 1-.5.5m2-6.783V6.783l-2-1.2-2 1.2v2.434l2 1.2z" stroke="none"></path></g></symbol><symbol id="icon-thermometer-snow-2" viewBox="0 0 16 16"><g class="jsopx-icon-wrapper"><path d="M5 12.5a1.5 1.5 0 1 1-2-1.415V9.5a.5.5 0 0 1 1 0v1.585A1.5 1.5 0 0 1 5 12.5" stroke="none"></path><path d="M1 2.5a2.5 2.5 0 0 1 5 0v7.55a3.5 3.5 0 1 1-5 0zM3.5 1A1.5 1.5 0 0 0 2 2.5v7.987l-.167.15a2.5 2.5 0 1 0 3.333 0L5 10.486V2.5A1.5 1.5 0 0 0 3.5 1m5 1a.5.5 0 0 1 .5.5v1.293l.646-.647a.5.5 0 0 1 .708.708L9 5.207v1.927l1.669-.963.495-1.85a.5.5 0 1 1 .966.26l-.237.882 1.12-.646a.5.5 0 0 1 .5.866l-1.12.646.884.237a.5.5 0 1 1-.26.966l-1.848-.495L9.5 8l1.669.963 1.849-.495a.5.5 0 1 1 .258.966l-.883.237 1.12.646a.5.5 0 0 1-.5.866l-1.12-.646.237.883a.5.5 0 1 1-.966.258L10.67 9.83 9 8.866v1.927l1.354 1.353a.5.5 0 0 1-.708.708L9 12.207V13.5a.5.5 0 0 1-1 0v-11a.5.5 0 0 1 .5-.5" stroke="none"></path></g></symbol><symbol id="icon-snow3-1" viewBox="0 0 16 16"><g class="jsopx-icon-wrapper"><path d="M8 7.5a.5.5 0 1 0 0 1 .5.5 0 0 0 0-1" stroke="none"></path><path d="M8 16a.5.5 0 0 1-.5-.5v-1.293l-.646.647a.5.5 0 0 1-.707-.708L7.5 12.793v-1.51l-2.053-1.232-1.348.778-.495 1.85a.5.5 0 1 1-.966-.26l.237-.882-1.12.646a.5.5 0 0 1-.5-.866l1.12-.646-.883-.237a.5.5 0 1 1 .258-.966l1.85.495L5 9.155v-2.31l-1.4-.808-1.85.495a.5.5 0 1 1-.259-.966l.884-.237-1.12-.646a.5.5 0 0 1 .5-.866l1.12.646-.237-.883a.5.5 0 1 1 .966-.258l.495 1.849 1.348.778L7.5 4.717v-1.51L6.147 1.854a.5.5 0 1 1 .707-.708l.646.647V.5a.5.5 0 0 1 1 0v1.293l.647-.647a.5.5 0 1 1 .707.708L8.5 3.207v1.51l2.053 1.232 1.348-.778.495-1.85a.5.5 0 1 1 .966.26l-.236.882 1.12-.646a.5.5 0 0 1 .5.866l-1.12.646.883.237a.5.5 0 1 1-.26.966l-1.848-.495-1.4.808v2.31l1.4.808 1.849-.495a.5.5 0 1 1 .259.966l-.883.237 1.12.646a.5.5 0 0 1-.5.866l-1.12-.646.236.883a.5.5 0 1 1-.966.258l-.495-1.849-1.348-.778L8.5 11.283v1.51l1.354 1.353a.5.5 0 0 1-.707.708l-.647-.647V15.5a.5.5 0 0 1-.5.5m2-6.783V6.783l-2-1.2-2 1.2v2.434l2 1.2z" stroke="none"></path></g></symbol><symbol id="icon-thermometer-snow-1" viewBox="0 0 16 16"><g class="jsopx-icon-wrapper"><path d="M5 12.5a1.5 1.5 0 1 1-2-1.415V9.5a.5.5 0 0 1 1 0v1.585A1.5 1.5 0 0 1 5 12.5" stroke="none"></path><path d="M1 2.5a2.5 2.5 0 0 1 5 0v7.55a3.5 3.5 0 1 1-5 0zM3.5 1A1.5 1.5 0 0 0 2 2.5v7.987l-.167.15a2.5 2.5 0 1 0 3.333 0L5 10.486V2.5A1.5 1.5 0 0 0 3.5 1m5 1a.5.5 0 0 1 .5.5v1.293l.646-.647a.5.5 0 0 1 .708.708L9 5.207v1.927l1.669-.963.495-1.85a.5.5 0 1 1 .966.26l-.237.882 1.12-.646a.5.5 0 0 1 .5.866l-1.12.646.884.237a.5.5 0 1 1-.26.966l-1.848-.495L9.5 8l1.669.963 1.849-.495a.5.5 0 1 1 .258.966l-.883.237 1.12.646a.5.5 0 0 1-.5.866l-1.12-.646.237.883a.5.5 0 1 1-.966.258L10.67 9.83 9 8.866v1.927l1.354 1.353a.5.5 0 0 1-.708.708L9 12.207V13.5a.5.5 0 0 1-1 0v-11a.5.5 0 0 1 .5-.5" stroke="none"></path></g></symbol><symbol id="icon-snow2-2" viewBox="0 0 16 16"><g class="jsopx-icon-wrapper"><path d="M8 16a.5.5 0 0 1-.5-.5v-1.293l-.646.647a.5.5 0 0 1-.707-.708L7.5 12.793v-1.086l-.646.647a.5.5 0 0 1-.707-.708L7.5 10.293V8.866l-1.236.713-.495 1.85a.5.5 0 1 1-.966-.26l.237-.882-.94.542-.496 1.85a.5.5 0 1 1-.966-.26l.237-.882-1.12.646a.5.5 0 0 1-.5-.866l1.12-.646-.884-.237a.5.5 0 1 1 .26-.966l1.848.495.94-.542-.882-.237a.5.5 0 1 1 .258-.966l1.85.495L7 8l-1.236-.713-1.849.495a.5.5 0 1 1-.258-.966l.883-.237-.94-.542-1.85.495a.5.5 0 0 1-.258-.966l.883-.237-1.12-.646a.5.5 0 1 1 .5-.866l1.12.646-.237-.883a.5.5 0 0 1 .966-.258l.495 1.849.94.542-.236-.883a.5.5 0 0 1 .966-.258l.495 1.849 1.236.713V5.707L6.147 4.354a.5.5 0 1 1 .707-.708l.646.647V3.207L6.147 1.854a.5.5 0 1 1 .707-.708l.646.647V.5a.5.5 0 0 1 1 0v1.293l.647-.647a.5.5 0 1 1 .707.708L8.5 3.207v1.086l.647-.647a.5.5 0 1 1 .707.708L8.5 5.707v1.427l1.236-.713.495-1.85a.5.5 0 1 1 .966.26l-.236.882.94-.542.495-1.85a.5.5 0 1 1 .966.26l-.236.882 1.12-.646a.5.5 0 0 1 .5.866l-1.12.646.883.237a.5.5 0 1 1-.26.966l-1.848-.495-.94.542.883.237a.5.5 0 1 1-.26.966l-1.848-.495L9 8l1.236.713 1.849-.495a.5.5 0 0 1 .259.966l-.883.237.94.542 1.849-.495a.5.5 0 0 1 .259.966l-.883.237 1.12.646a.5.5 0 0 1-.5.866l-1.12-.646.236.883a.5.5 0 1 1-.966.258l-.495-1.849-.94-.542.236.883a.5.5 0 0 1-.966.258L9.736 9.58 8.5 8.866v1.427l1.354 1.353a.5.5 0 0 1-.707.708l-.647-.647v1.086l1.354 1.353a.5.5 0 0 1-.707.708l-.647-.647V15.5a.5.5 0 0 1-.5.5" stroke="none"></path></g></symbol><symbol id="icon-snow2-1" viewBox="0 0 16 16"><g class="jsopx-icon-wrapper"><path d="M8 16a.5.5 0 0 1-.5-.5v-1.293l-.646.647a.5.5 0 0 1-.707-.708L7.5 12.793v-1.086l-.646.647a.5.5 0 0 1-.707-.708L7.5 10.293V8.866l-1.236.713-.495 1.85a.5.5 0 1 1-.966-.26l.237-.882-.94.542-.496 1.85a.5.5 0 1 1-.966-.26l.237-.882-1.12.646a.5.5 0 0 1-.5-.866l1.12-.646-.884-.237a.5.5 0 1 1 .26-.966l1.848.495.94-.542-.882-.237a.5.5 0 1 1 .258-.966l1.85.495L7 8l-1.236-.713-1.849.495a.5.5 0 1 1-.258-.966l.883-.237-.94-.542-1.85.495a.5.5 0 0 1-.258-.966l.883-.237-1.12-.646a.5.5 0 1 1 .5-.866l1.12.646-.237-.883a.5.5 0 0 1 .966-.258l.495 1.849.94.542-.236-.883a.5.5 0 0 1 .966-.258l.495 1.849 1.236.713V5.707L6.147 4.354a.5.5 0 1 1 .707-.708l.646.647V3.207L6.147 1.854a.5.5 0 1 1 .707-.708l.646.647V.5a.5.5 0 0 1 1 0v1.293l.647-.647a.5.5 0 1 1 .707.708L8.5 3.207v1.086l.647-.647a.5.5 0 1 1 .707.708L8.5 5.707v1.427l1.236-.713.495-1.85a.5.5 0 1 1 .966.26l-.236.882.94-.542.495-1.85a.5.5 0 1 1 .966.26l-.236.882 1.12-.646a.5.5 0 0 1 .5.866l-1.12.646.883.237a.5.5 0 1 1-.26.966l-1.848-.495-.94.542.883.237a.5.5 0 1 1-.26.966l-1.848-.495L9 8l1.236.713 1.849-.495a.5.5 0 0 1 .259.966l-.883.237.94.542 1.849-.495a.5.5 0 0 1 .259.966l-.883.237 1.12.646a.5.5 0 0 1-.5.866l-1.12-.646.236.883a.5.5 0 1 1-.966.258l-.495-1.849-.94-.542.236.883a.5.5 0 0 1-.966.258L9.736 9.58 8.5 8.866v1.427l1.354 1.353a.5.5 0 0 1-.707.708l-.647-.647v1.086l1.354 1.353a.5.5 0 0 1-.707.708l-.647-.647V15.5a.5.5 0 0 1-.5.5" stroke="none"></path></g></symbol><symbol id="icon-snow-2" viewBox="0 0 16 16"><g class="jsopx-icon-wrapper"><path d="M8 16a.5.5 0 0 1-.5-.5v-1.293l-.646.647a.5.5 0 0 1-.707-.708L7.5 12.793V8.866l-3.4 1.963-.496 1.85a.5.5 0 1 1-.966-.26l.237-.882-1.12.646a.5.5 0 0 1-.5-.866l1.12-.646-.884-.237a.5.5 0 1 1 .26-.966l1.848.495L7 8 3.6 6.037l-1.85.495a.5.5 0 0 1-.258-.966l.883-.237-1.12-.646a.5.5 0 1 1 .5-.866l1.12.646-.237-.883a.5.5 0 1 1 .966-.258l.495 1.849L7.5 7.134V3.207L6.147 1.854a.5.5 0 1 1 .707-.708l.646.647V.5a.5.5 0 1 1 1 0v1.293l.647-.647a.5.5 0 1 1 .707.708L8.5 3.207v3.927l3.4-1.963.496-1.85a.5.5 0 1 1 .966.26l-.236.882 1.12-.646a.5.5 0 0 1 .5.866l-1.12.646.883.237a.5.5 0 1 1-.26.966l-1.848-.495L9 8l3.4 1.963 1.849-.495a.5.5 0 0 1 .259.966l-.883.237 1.12.646a.5.5 0 0 1-.5.866l-1.12-.646.236.883a.5.5 0 1 1-.966.258l-.495-1.849-3.4-1.963v3.927l1.353 1.353a.5.5 0 0 1-.707.708l-.647-.647V15.5a.5.5 0 0 1-.5.5z" stroke="none"></path></g></symbol><symbol id="icon-snow-1" viewBox="0 0 16 16"><g class="jsopx-icon-wrapper"><path d="M8 16a.5.5 0 0 1-.5-.5v-1.293l-.646.647a.5.5 0 0 1-.707-.708L7.5 12.793V8.866l-3.4 1.963-.496 1.85a.5.5 0 1 1-.966-.26l.237-.882-1.12.646a.5.5 0 0 1-.5-.866l1.12-.646-.884-.237a.5.5 0 1 1 .26-.966l1.848.495L7 8 3.6 6.037l-1.85.495a.5.5 0 0 1-.258-.966l.883-.237-1.12-.646a.5.5 0 1 1 .5-.866l1.12.646-.237-.883a.5.5 0 1 1 .966-.258l.495 1.849L7.5 7.134V3.207L6.147 1.854a.5.5 0 1 1 .707-.708l.646.647V.5a.5.5 0 1 1 1 0v1.293l.647-.647a.5.5 0 1 1 .707.708L8.5 3.207v3.927l3.4-1.963.496-1.85a.5.5 0 1 1 .966.26l-.236.882 1.12-.646a.5.5 0 0 1 .5.866l-1.12.646.883.237a.5.5 0 1 1-.26.966l-1.848-.495L9 8l3.4 1.963 1.849-.495a.5.5 0 0 1 .259.966l-.883.237 1.12.646a.5.5 0 0 1-.5.866l-1.12-.646.236.883a.5.5 0 1 1-.966.258l-.495-1.849-3.4-1.963v3.927l1.353 1.353a.5.5 0 0 1-.707.708l-.647-.647V15.5a.5.5 0 0 1-.5.5z" stroke="none"></path></g></symbol><symbol id="icon-rainbow" viewBox="0 0 16 16"><g class="jsopx-icon-wrapper"><path d="M8 4.5a7 7 0 0 0-7 7 .5.5 0 0 1-1 0 8 8 0 1 1 16 0 .5.5 0 0 1-1 0 7 7 0 0 0-7-7m0 2a5 5 0 0 0-5 5 .5.5 0 0 1-1 0 6 6 0 1 1 12 0 .5.5 0 0 1-1 0 5 5 0 0 0-5-5m0 2a3 3 0 0 0-3 3 .5.5 0 0 1-1 0 4 4 0 1 1 8 0 .5.5 0 0 1-1 0 3 3 0 0 0-3-3m0 2a1 1 0 0 0-1 1 .5.5 0 0 1-1 0 2 2 0 1 1 4 0 .5.5 0 0 1-1 0 1 1 0 0 0-1-1" stroke="none"></path></g></symbol><symbol id="icon-moon-fill-2" viewBox="0 0 16 16"><g class="jsopx-icon-wrapper"><path d="M6 .278a.77.77 0 0 1 .08.858 7.2 7.2 0 0 0-.878 3.46c0 4.021 3.278 7.277 7.318 7.277q.792-.001 1.533-.16a.79.79 0 0 1 .81.316.73.73 0 0 1-.031.893A8.35 8.35 0 0 1 8.344 16C3.734 16 0 12.286 0 7.71 0 4.266 2.114 1.312 5.124.06A.75.75 0 0 1 6 .278" stroke="none"></path></g></symbol><symbol id="icon-cloud-moon-4" viewBox="0 0 16 16"><g class="jsopx-icon-wrapper"><path d="M7 8a3.5 3.5 0 0 1 3.5 3.555.5.5 0 0 0 .625.492A1.503 1.503 0 0 1 13 13.5a1.5 1.5 0 0 1-1.5 1.5H3a2 2 0 1 1 .1-3.998.5.5 0 0 0 .509-.375A3.5 3.5 0 0 1 7 8m4.473 3a4.5 4.5 0 0 0-8.72-.99A3 3 0 0 0 3 16h8.5a2.5 2.5 0 0 0 0-5z" stroke="none"></path><path d="M11.286 1.778a.5.5 0 0 0-.565-.755 4.595 4.595 0 0 0-3.18 5.003 5.5 5.5 0 0 1 1.055.209A3.6 3.6 0 0 1 9.83 2.617a4.593 4.593 0 0 0 4.31 5.744 3.58 3.58 0 0 1-2.241.634q.244.477.394 1a4.59 4.59 0 0 0 3.624-2.04.5.5 0 0 0-.565-.755 3.593 3.593 0 0 1-4.065-5.422z" stroke="none"></path></g></symbol><symbol id="icon-cloud-moon-fill-4" viewBox="0 0 16 16"><g class="jsopx-icon-wrapper"><path d="M11.473 11a4.5 4.5 0 0 0-8.72-.99A3 3 0 0 0 3 16h8.5a2.5 2.5 0 0 0 0-5z" stroke="none"></path><path d="M11.286 1.778a.5.5 0 0 0-.565-.755 4.595 4.595 0 0 0-3.18 5.003 5.5 5.5 0 0 1 1.055.209A3.6 3.6 0 0 1 9.83 2.617a4.593 4.593 0 0 0 4.31 5.744 3.58 3.58 0 0 1-2.241.634q.244.477.394 1a4.59 4.59 0 0 0 3.624-2.04.5.5 0 0 0-.565-.755 3.593 3.593 0 0 1-4.065-5.422z" stroke="none"></path></g></symbol><symbol id="icon-moon-stars-fill-2" viewBox="0 0 16 16"><g class="jsopx-icon-wrapper"><path d="M6 .278a.77.77 0 0 1 .08.858 7.2 7.2 0 0 0-.878 3.46c0 4.021 3.278 7.277 7.318 7.277q.792-.001 1.533-.16a.79.79 0 0 1 .81.316.73.73 0 0 1-.031.893A8.35 8.35 0 0 1 8.344 16C3.734 16 0 12.286 0 7.71 0 4.266 2.114 1.312 5.124.06A.75.75 0 0 1 6 .278" stroke="none"></path><path d="M10.794 3.148a.217.217 0 0 1 .412 0l.387 1.162c.173.518.579.924 1.097 1.097l1.162.387a.217.217 0 0 1 0 .412l-1.162.387a1.73 1.73 0 0 0-1.097 1.097l-.387 1.162a.217.217 0 0 1-.412 0l-.387-1.162A1.73 1.73 0 0 0 9.31 6.593l-1.162-.387a.217.217 0 0 1 0-.412l1.162-.387a1.73 1.73 0 0 0 1.097-1.097zM13.863.099a.145.145 0 0 1 .274 0l.258.774c.115.346.386.617.732.732l.774.258a.145.145 0 0 1 0 .274l-.774.258a1.16 1.16 0 0 0-.732.732l-.258.774a.145.145 0 0 1-.274 0l-.258-.774a1.16 1.16 0 0 0-.732-.732l-.774-.258a.145.145 0 0 1 0-.274l.774-.258c.346-.115.617-.386.732-.732z" stroke="none"></path></g></symbol><symbol id="icon-moon-stars-2" viewBox="0 0 16 16"><g class="jsopx-icon-wrapper"><path d="M6 .278a.77.77 0 0 1 .08.858 7.2 7.2 0 0 0-.878 3.46c0 4.021 3.278 7.277 7.318 7.277q.792-.001 1.533-.16a.79.79 0 0 1 .81.316.73.73 0 0 1-.031.893A8.35 8.35 0 0 1 8.344 16C3.734 16 0 12.286 0 7.71 0 4.266 2.114 1.312 5.124.06A.75.75 0 0 1 6 .278M4.858 1.311A7.27 7.27 0 0 0 1.025 7.71c0 4.02 3.279 7.276 7.319 7.276a7.32 7.32 0 0 0 5.205-2.162q-.506.063-1.029.063c-4.61 0-8.343-3.714-8.343-8.29 0-1.167.242-2.278.681-3.286" stroke="none"></path><path d="M10.794 3.148a.217.217 0 0 1 .412 0l.387 1.162c.173.518.579.924 1.097 1.097l1.162.387a.217.217 0 0 1 0 .412l-1.162.387a1.73 1.73 0 0 0-1.097 1.097l-.387 1.162a.217.217 0 0 1-.412 0l-.387-1.162A1.73 1.73 0 0 0 9.31 6.593l-1.162-.387a.217.217 0 0 1 0-.412l1.162-.387a1.73 1.73 0 0 0 1.097-1.097zM13.863.099a.145.145 0 0 1 .274 0l.258.774c.115.346.386.617.732.732l.774.258a.145.145 0 0 1 0 .274l-.774.258a1.16 1.16 0 0 0-.732.732l-.258.774a.145.145 0 0 1-.274 0l-.258-.774a1.16 1.16 0 0 0-.732-.732l-.774-.258a.145.145 0 0 1 0-.274l.774-.258c.346-.115.617-.386.732-.732z" stroke="none"></path></g></symbol><symbol id="icon-moon-fill-1" viewBox="0 0 16 16"><g class="jsopx-icon-wrapper"><path d="M6 .278a.77.77 0 0 1 .08.858 7.2 7.2 0 0 0-.878 3.46c0 4.021 3.278 7.277 7.318 7.277q.792-.001 1.533-.16a.79.79 0 0 1 .81.316.73.73 0 0 1-.031.893A8.35 8.35 0 0 1 8.344 16C3.734 16 0 12.286 0 7.71 0 4.266 2.114 1.312 5.124.06A.75.75 0 0 1 6 .278" stroke="none"></path></g></symbol><symbol id="icon-moon-2" viewBox="0 0 16 16"><g class="jsopx-icon-wrapper"><path d="M6 .278a.77.77 0 0 1 .08.858 7.2 7.2 0 0 0-.878 3.46c0 4.021 3.278 7.277 7.318 7.277q.792-.001 1.533-.16a.79.79 0 0 1 .81.316.73.73 0 0 1-.031.893A8.35 8.35 0 0 1 8.344 16C3.734 16 0 12.286 0 7.71 0 4.266 2.114 1.312 5.124.06A.75.75 0 0 1 6 .278M4.858 1.311A7.27 7.27 0 0 0 1.025 7.71c0 4.02 3.279 7.276 7.319 7.276a7.32 7.32 0 0 0 5.205-2.162q-.506.063-1.029.063c-4.61 0-8.343-3.714-8.343-8.29 0-1.167.242-2.278.681-3.286" stroke="none"></path></g></symbol><symbol id="icon-cloud-moon-fill-3" viewBox="0 0 16 16"><g class="jsopx-icon-wrapper"><path d="M11.473 11a4.5 4.5 0 0 0-8.72-.99A3 3 0 0 0 3 16h8.5a2.5 2.5 0 0 0 0-5z" stroke="none"></path><path d="M11.286 1.778a.5.5 0 0 0-.565-.755 4.595 4.595 0 0 0-3.18 5.003 5.5 5.5 0 0 1 1.055.209A3.6 3.6 0 0 1 9.83 2.617a4.593 4.593 0 0 0 4.31 5.744 3.58 3.58 0 0 1-2.241.634q.244.477.394 1a4.59 4.59 0 0 0 3.624-2.04.5.5 0 0 0-.565-.755 3.593 3.593 0 0 1-4.065-5.422z" stroke="none"></path></g></symbol><symbol id="icon-moon-1" viewBox="0 0 16 16"><g class="jsopx-icon-wrapper"><path d="M6 .278a.77.77 0 0 1 .08.858 7.2 7.2 0 0 0-.878 3.46c0 4.021 3.278 7.277 7.318 7.277q.792-.001 1.533-.16a.79.79 0 0 1 .81.316.73.73 0 0 1-.031.893A8.35 8.35 0 0 1 8.344 16C3.734 16 0 12.286 0 7.71 0 4.266 2.114 1.312 5.124.06A.75.75 0 0 1 6 .278M4.858 1.311A7.27 7.27 0 0 0 1.025 7.71c0 4.02 3.279 7.276 7.319 7.276a7.32 7.32 0 0 0 5.205-2.162q-.506.063-1.029.063c-4.61 0-8.343-3.714-8.343-8.29 0-1.167.242-2.278.681-3.286" stroke="none"></path></g></symbol><symbol id="icon-moon-stars-fill-1" viewBox="0 0 16 16"><g class="jsopx-icon-wrapper"><path d="M6 .278a.77.77 0 0 1 .08.858 7.2 7.2 0 0 0-.878 3.46c0 4.021 3.278 7.277 7.318 7.277q.792-.001 1.533-.16a.79.79 0 0 1 .81.316.73.73 0 0 1-.031.893A8.35 8.35 0 0 1 8.344 16C3.734 16 0 12.286 0 7.71 0 4.266 2.114 1.312 5.124.06A.75.75 0 0 1 6 .278" stroke="none"></path><path d="M10.794 3.148a.217.217 0 0 1 .412 0l.387 1.162c.173.518.579.924 1.097 1.097l1.162.387a.217.217 0 0 1 0 .412l-1.162.387a1.73 1.73 0 0 0-1.097 1.097l-.387 1.162a.217.217 0 0 1-.412 0l-.387-1.162A1.73 1.73 0 0 0 9.31 6.593l-1.162-.387a.217.217 0 0 1 0-.412l1.162-.387a1.73 1.73 0 0 0 1.097-1.097zM13.863.099a.145.145 0 0 1 .274 0l.258.774c.115.346.386.617.732.732l.774.258a.145.145 0 0 1 0 .274l-.774.258a1.16 1.16 0 0 0-.732.732l-.258.774a.145.145 0 0 1-.274 0l-.258-.774a1.16 1.16 0 0 0-.732-.732l-.774-.258a.145.145 0 0 1 0-.274l.774-.258c.346-.115.617-.386.732-.732z" stroke="none"></path></g></symbol><symbol id="icon-moon-stars-1" viewBox="0 0 16 16"><g class="jsopx-icon-wrapper"><path d="M6 .278a.77.77 0 0 1 .08.858 7.2 7.2 0 0 0-.878 3.46c0 4.021 3.278 7.277 7.318 7.277q.792-.001 1.533-.16a.79.79 0 0 1 .81.316.73.73 0 0 1-.031.893A8.35 8.35 0 0 1 8.344 16C3.734 16 0 12.286 0 7.71 0 4.266 2.114 1.312 5.124.06A.75.75 0 0 1 6 .278M4.858 1.311A7.27 7.27 0 0 0 1.025 7.71c0 4.02 3.279 7.276 7.319 7.276a7.32 7.32 0 0 0 5.205-2.162q-.506.063-1.029.063c-4.61 0-8.343-3.714-8.343-8.29 0-1.167.242-2.278.681-3.286" stroke="none"></path><path d="M10.794 3.148a.217.217 0 0 1 .412 0l.387 1.162c.173.518.579.924 1.097 1.097l1.162.387a.217.217 0 0 1 0 .412l-1.162.387a1.73 1.73 0 0 0-1.097 1.097l-.387 1.162a.217.217 0 0 1-.412 0l-.387-1.162A1.73 1.73 0 0 0 9.31 6.593l-1.162-.387a.217.217 0 0 1 0-.412l1.162-.387a1.73 1.73 0 0 0 1.097-1.097zM13.863.099a.145.145 0 0 1 .274 0l.258.774c.115.346.386.617.732.732l.774.258a.145.145 0 0 1 0 .274l-.774.258a1.16 1.16 0 0 0-.732.732l-.258.774a.145.145 0 0 1-.274 0l-.258-.774a1.16 1.16 0 0 0-.732-.732l-.774-.258a.145.145 0 0 1 0-.274l.774-.258c.346-.115.617-.386.732-.732z" stroke="none"></path></g></symbol><symbol id="icon-cloud-moon-3" viewBox="0 0 16 16"><g class="jsopx-icon-wrapper"><path d="M7 8a3.5 3.5 0 0 1 3.5 3.555.5.5 0 0 0 .625.492A1.503 1.503 0 0 1 13 13.5a1.5 1.5 0 0 1-1.5 1.5H3a2 2 0 1 1 .1-3.998.5.5 0 0 0 .509-.375A3.5 3.5 0 0 1 7 8m4.473 3a4.5 4.5 0 0 0-8.72-.99A3 3 0 0 0 3 16h8.5a2.5 2.5 0 0 0 0-5z" stroke="none"></path><path d="M11.286 1.778a.5.5 0 0 0-.565-.755 4.595 4.595 0 0 0-3.18 5.003 5.5 5.5 0 0 1 1.055.209A3.6 3.6 0 0 1 9.83 2.617a4.593 4.593 0 0 0 4.31 5.744 3.58 3.58 0 0 1-2.241.634q.244.477.394 1a4.59 4.59 0 0 0 3.624-2.04.5.5 0 0 0-.565-.755 3.593 3.593 0 0 1-4.065-5.422z" stroke="none"></path></g></symbol><symbol id="icon-moisture" viewBox="0 0 16 16"><g class="jsopx-icon-wrapper"><path d="M13.5 0a.5.5 0 0 0 0 1H15v2.75h-.5a.5.5 0 0 0 0 1h.5V7.5h-1.5a.5.5 0 0 0 0 1H15v2.75h-.5a.5.5 0 0 0 0 1h.5V15h-1.5a.5.5 0 0 0 0 1h2a.5.5 0 0 0 .5-.5V.5a.5.5 0 0 0-.5-.5zM7 1.5l.364-.343a.5.5 0 0 0-.728 0l-.002.002-.006.007-.022.023-.08.088a29 29 0 0 0-1.274 1.517c-.769.983-1.714 2.325-2.385 3.727C2.368 7.564 2 8.682 2 9.733 2 12.614 4.212 15 7 15s5-2.386 5-5.267c0-1.05-.368-2.169-.867-3.212-.671-1.402-1.616-2.744-2.385-3.727a29 29 0 0 0-1.354-1.605l-.022-.023-.006-.007-.002-.001zm0 0-.364-.343zm-.016.766L7 2.247l.016.019c.24.274.572.667.944 1.144.611.781 1.32 1.776 1.901 2.827H4.14c.58-1.051 1.29-2.046 1.9-2.827.373-.477.706-.87.945-1.144zM3 9.733c0-.755.244-1.612.638-2.496h6.724c.395.884.638 1.741.638 2.496C11 12.117 9.182 14 7 14s-4-1.883-4-4.267" stroke="none"></path></g></symbol><symbol id="icon-lightning-fill" viewBox="0 0 16 16"><g class="jsopx-icon-wrapper"><path d="M5.52.359A.5.5 0 0 1 6 0h4a.5.5 0 0 1 .474.658L8.694 6H12.5a.5.5 0 0 1 .395.807l-7 9a.5.5 0 0 1-.873-.454L6.823 9.5H3.5a.5.5 0 0 1-.48-.641z" stroke="none"></path></g></symbol><symbol id="icon-lightning-charge-fill" viewBox="0 0 16 16"><g class="jsopx-icon-wrapper"><path d="M11.251.068a.5.5 0 0 1 .227.58L9.677 6.5H13a.5.5 0 0 1 .364.843l-8 8.5a.5.5 0 0 1-.842-.49L6.323 9.5H3a.5.5 0 0 1-.364-.843l8-8.5a.5.5 0 0 1 .615-.09z" stroke="none"></path></g></symbol><symbol id="icon-lightning-charge" viewBox="0 0 16 16"><g class="jsopx-icon-wrapper"><path d="M11.251.068a.5.5 0 0 1 .227.58L9.677 6.5H13a.5.5 0 0 1 .364.843l-8 8.5a.5.5 0 0 1-.842-.49L6.323 9.5H3a.5.5 0 0 1-.364-.843l8-8.5a.5.5 0 0 1 .615-.09zM4.157 8.5H7a.5.5 0 0 1 .478.647L6.11 13.59l5.732-6.09H9a.5.5 0 0 1-.478-.647L9.89 2.41z" stroke="none"></path></g></symbol><symbol id="icon-lightning" viewBox="0 0 16 16"><g class="jsopx-icon-wrapper"><path d="M5.52.359A.5.5 0 0 1 6 0h4a.5.5 0 0 1 .474.658L8.694 6H12.5a.5.5 0 0 1 .395.807l-7 9a.5.5 0 0 1-.873-.454L6.823 9.5H3.5a.5.5 0 0 1-.48-.641zM6.374 1 4.168 8.5H7.5a.5.5 0 0 1 .478.647L6.78 13.04 11.478 7H8a.5.5 0 0 1-.474-.658L9.306 1z" stroke="none"></path></g></symbol><symbol id="icon-hurricane" viewBox="0 0 16 16"><g class="jsopx-icon-wrapper"><path d="M6.999 2.6A5.5 5.5 0 0 1 15 7.5a.5.5 0 0 0 1 0 6.5 6.5 0 1 0-13 0 5 5 0 0 0 6.001 4.9A5.5 5.5 0 0 1 1 7.5a.5.5 0 0 0-1 0 6.5 6.5 0 1 0 13 0 5 5 0 0 0-6.001-4.9M10 7.5a2 2 0 1 1-4 0 2 2 0 0 1 4 0" stroke="none"></path></g></symbol><symbol id="icon-cloud-moon-2" viewBox="0 0 16 16"><g class="jsopx-icon-wrapper"><path d="M7 8a3.5 3.5 0 0 1 3.5 3.555.5.5 0 0 0 .625.492A1.503 1.503 0 0 1 13 13.5a1.5 1.5 0 0 1-1.5 1.5H3a2 2 0 1 1 .1-3.998.5.5 0 0 0 .509-.375A3.5 3.5 0 0 1 7 8m4.473 3a4.5 4.5 0 0 0-8.72-.99A3 3 0 0 0 3 16h8.5a2.5 2.5 0 0 0 0-5z" stroke="none"></path><path d="M11.286 1.778a.5.5 0 0 0-.565-.755 4.595 4.595 0 0 0-3.18 5.003 5.5 5.5 0 0 1 1.055.209A3.6 3.6 0 0 1 9.83 2.617a4.593 4.593 0 0 0 4.31 5.744 3.58 3.58 0 0 1-2.241.634q.244.477.394 1a4.59 4.59 0 0 0 3.624-2.04.5.5 0 0 0-.565-.755 3.593 3.593 0 0 1-4.065-5.422z" stroke="none"></path></g></symbol><symbol id="icon-cloud-moon-1" viewBox="0 0 16 16"><g class="jsopx-icon-wrapper"><path d="M7 8a3.5 3.5 0 0 1 3.5 3.555.5.5 0 0 0 .625.492A1.503 1.503 0 0 1 13 13.5a1.5 1.5 0 0 1-1.5 1.5H3a2 2 0 1 1 .1-3.998.5.5 0 0 0 .509-.375A3.5 3.5 0 0 1 7 8m4.473 3a4.5 4.5 0 0 0-8.72-.99A3 3 0 0 0 3 16h8.5a2.5 2.5 0 0 0 0-5z" stroke="none"></path><path d="M11.286 1.778a.5.5 0 0 0-.565-.755 4.595 4.595 0 0 0-3.18 5.003 5.5 5.5 0 0 1 1.055.209A3.6 3.6 0 0 1 9.83 2.617a4.593 4.593 0 0 0 4.31 5.744 3.58 3.58 0 0 1-2.241.634q.244.477.394 1a4.59 4.59 0 0 0 3.624-2.04.5.5 0 0 0-.565-.755 3.593 3.593 0 0 1-4.065-5.422z" stroke="none"></path></g></symbol><symbol id="icon-cloud-arrow-down-fill-2" viewBox="0 0 16 16"><g class="jsopx-icon-wrapper"><path d="M8 2a5.53 5.53 0 0 0-3.594 1.342c-.766.66-1.321 1.52-1.464 2.383C1.266 6.095 0 7.555 0 9.318 0 11.366 1.708 13 3.781 13h8.906C14.502 13 16 11.57 16 9.773c0-1.636-1.242-2.969-2.834-3.194C12.923 3.999 10.69 2 8 2m2.354 6.854-2 2a.5.5 0 0 1-.708 0l-2-2a.5.5 0 1 1 .708-.708L7.5 9.293V5.5a.5.5 0 0 1 1 0v3.793l1.146-1.147a.5.5 0 0 1 .708.708" stroke="none"></path></g></symbol><symbol id="icon-cloud-2" viewBox="0 0 16 16"><g class="jsopx-icon-wrapper"><path d="M4.406 3.342A5.53 5.53 0 0 1 8 2c2.69 0 4.923 2 5.166 4.579C14.758 6.804 16 8.137 16 9.773 16 11.569 14.502 13 12.687 13H3.781C1.708 13 0 11.366 0 9.318c0-1.763 1.266-3.223 2.942-3.593.143-.863.698-1.723 1.464-2.383m.653.757c-.757.653-1.153 1.44-1.153 2.056v.448l-.445.049C2.064 6.805 1 7.952 1 9.318 1 10.785 2.23 12 3.781 12h8.906C13.98 12 15 10.988 15 9.773c0-1.216-1.02-2.228-2.313-2.228h-.5v-.5C12.188 4.825 10.328 3 8 3a4.53 4.53 0 0 0-2.941 1.1z" stroke="none"></path></g></symbol><symbol id="icon-cloudy-fill-2" viewBox="0 0 16 16"><g class="jsopx-icon-wrapper"><path d="M13.405 7.027a5.001 5.001 0 0 0-9.499-1.004A3.5 3.5 0 1 0 3.5 13H13a3 3 0 0 0 .405-5.973" stroke="none"></path></g></symbol><symbol id="icon-cloudy-2" viewBox="0 0 16 16"><g class="jsopx-icon-wrapper"><path d="M13.405 8.527a5.001 5.001 0 0 0-9.499-1.004A3.5 3.5 0 1 0 3.5 14.5H13a3 3 0 0 0 .405-5.973M8.5 5.5a4 4 0 0 1 3.976 3.555.5.5 0 0 0 .5.445H13a2 2 0 0 1-.001 4H3.5a2.5 2.5 0 1 1 .605-4.926.5.5 0 0 0 .596-.329A4 4 0 0 1 8.5 5.5" stroke="none"></path></g></symbol><symbol id="icon-cloud-upload-fill-2" viewBox="0 0 16 16"><g class="jsopx-icon-wrapper"><path fill-rule="evenodd" d="M8 0a5.53 5.53 0 0 0-3.594 1.342c-.766.66-1.321 1.52-1.464 2.383C1.266 4.095 0 5.555 0 7.318 0 9.366 1.708 11 3.781 11H7.5V5.707L5.354 7.854a.5.5 0 1 1-.708-.708l3-3a.5.5 0 0 1 .708 0l3 3a.5.5 0 0 1-.708.708L8.5 5.707V11h4.188C14.502 11 16 9.57 16 7.773c0-1.636-1.242-2.969-2.834-3.194C12.923 1.999 10.69 0 8 0m-.5 14.5V11h1v3.5a.5.5 0 0 1-1 0" stroke="none"></path></g></symbol><symbol id="icon-cloud-upload-2" viewBox="0 0 16 16"><g class="jsopx-icon-wrapper"><path fill-rule="evenodd" d="M4.406 1.342A5.53 5.53 0 0 1 8 0c2.69 0 4.923 2 5.166 4.579C14.758 4.804 16 6.137 16 7.773 16 9.569 14.502 11 12.687 11H10a.5.5 0 0 1 0-1h2.688C13.979 10 15 8.988 15 7.773c0-1.216-1.02-2.228-2.313-2.228h-.5v-.5C12.188 2.825 10.328 1 8 1a4.53 4.53 0 0 0-2.941 1.1c-.757.652-1.153 1.438-1.153 2.055v.448l-.445.049C2.064 4.805 1 5.952 1 7.318 1 8.785 2.23 10 3.781 10H6a.5.5 0 0 1 0 1H3.781C1.708 11 0 9.366 0 7.318c0-1.763 1.266-3.223 2.942-3.593.143-.863.698-1.723 1.464-2.383" stroke="none"></path><path fill-rule="evenodd" d="M7.646 4.146a.5.5 0 0 1 .708 0l3 3a.5.5 0 0 1-.708.708L8.5 5.707V14.5a.5.5 0 0 1-1 0V5.707L5.354 7.854a.5.5 0 1 1-.708-.708z" stroke="none"></path></g></symbol><symbol id="icon-cloud-sun-fill-2" viewBox="0 0 16 16"><g class="jsopx-icon-wrapper"><path d="M11.473 11a4.5 4.5 0 0 0-8.72-.99A3 3 0 0 0 3 16h8.5a2.5 2.5 0 0 0 0-5z" stroke="none"></path><path d="M10.5 1.5a.5.5 0 0 0-1 0v1a.5.5 0 0 0 1 0zm3.743 1.964a.5.5 0 1 0-.707-.707l-.708.707a.5.5 0 0 0 .708.708zm-7.779-.707a.5.5 0 0 0-.707.707l.707.708a.5.5 0 1 0 .708-.708zm1.734 3.374a2 2 0 1 1 3.296 2.198q.3.423.516.898a3 3 0 1 0-4.84-3.225q.529.017 1.028.129m4.484 4.074c.6.215 1.125.59 1.522 1.072a.5.5 0 0 0 .039-.742l-.707-.707a.5.5 0 0 0-.854.377M14.5 6.5a.5.5 0 0 0 0 1h1a.5.5 0 0 0 0-1z" stroke="none"></path></g></symbol><symbol id="icon-cloud-sun-2" viewBox="0 0 16 16"><g class="jsopx-icon-wrapper"><path d="M7 8a3.5 3.5 0 0 1 3.5 3.555.5.5 0 0 0 .624.492A1.503 1.503 0 0 1 13 13.5a1.5 1.5 0 0 1-1.5 1.5H3a2 2 0 1 1 .1-3.998.5.5 0 0 0 .51-.375A3.5 3.5 0 0 1 7 8m4.473 3a4.5 4.5 0 0 0-8.72-.99A3 3 0 0 0 3 16h8.5a2.5 2.5 0 0 0 0-5z" stroke="none"></path><path d="M10.5 1.5a.5.5 0 0 0-1 0v1a.5.5 0 0 0 1 0zm3.743 1.964a.5.5 0 1 0-.707-.707l-.708.707a.5.5 0 0 0 .708.708zm-7.779-.707a.5.5 0 0 0-.707.707l.707.708a.5.5 0 1 0 .708-.708zm1.734 3.374a2 2 0 1 1 3.296 2.198q.3.423.516.898a3 3 0 1 0-4.84-3.225q.529.017 1.028.129m4.484 4.074c.6.215 1.125.59 1.522 1.072a.5.5 0 0 0 .039-.742l-.707-.707a.5.5 0 0 0-.854.377M14.5 6.5a.5.5 0 0 0 0 1h1a.5.5 0 0 0 0-1z" stroke="none"></path></g></symbol><symbol id="icon-cloud-snow-fill-2" viewBox="0 0 16 16"><g class="jsopx-icon-wrapper"><path d="M2.625 11.5a.25.25 0 0 1 .25.25v.57l.501-.287a.25.25 0 0 1 .248.434l-.495.283.495.283a.25.25 0 0 1-.248.434l-.501-.286v.569a.25.25 0 1 1-.5 0v-.57l-.501.287a.25.25 0 0 1-.248-.434l.495-.283-.495-.283a.25.25 0 0 1 .248-.434l.501.286v-.569a.25.25 0 0 1 .25-.25m2.75 2a.25.25 0 0 1 .25.25v.57l.5-.287a.25.25 0 0 1 .249.434l-.495.283.495.283a.25.25 0 0 1-.248.434l-.501-.286v.569a.25.25 0 1 1-.5 0v-.57l-.501.287a.25.25 0 0 1-.248-.434l.495-.283-.495-.283a.25.25 0 0 1 .248-.434l.501.286v-.569a.25.25 0 0 1 .25-.25m5.5 0a.25.25 0 0 1 .25.25v.57l.5-.287a.25.25 0 0 1 .249.434l-.495.283.495.283a.25.25 0 0 1-.248.434l-.501-.286v.569a.25.25 0 0 1-.5 0v-.57l-.501.287a.25.25 0 0 1-.248-.434l.495-.283-.495-.283a.25.25 0 0 1 .248-.434l.501.286v-.569a.25.25 0 0 1 .25-.25m-2.75-2a.25.25 0 0 1 .25.25v.57l.5-.287a.25.25 0 0 1 .249.434l-.495.283.495.283a.25.25 0 0 1-.248.434l-.501-.286v.569a.25.25 0 1 1-.5 0v-.57l-.501.287a.25.25 0 0 1-.248-.434l.495-.283-.495-.283a.25.25 0 0 1 .248-.434l.501.286v-.569a.25.25 0 0 1 .25-.25m5.5 0a.25.25 0 0 1 .25.25v.57l.5-.287a.25.25 0 0 1 .249.434l-.495.283.495.283a.25.25 0 0 1-.248.434l-.501-.286v.569a.25.25 0 0 1-.5 0v-.57l-.501.287a.25.25 0 1 1-.248-.434l.495-.283-.495-.283a.25.25 0 0 1 .248-.434l.501.286v-.569a.25.25 0 0 1 .25-.25m-.22-7.223a5.001 5.001 0 0 0-9.499-1.004A3.5 3.5 0 1 0 3.5 10.25H13a3 3 0 0 0 .405-5.973" stroke="none"></path></g></symbol><symbol id="icon-cloud-snow-2" viewBox="0 0 16 16"><g class="jsopx-icon-wrapper"><path d="M13.405 4.277a5.001 5.001 0 0 0-9.499-1.004A3.5 3.5 0 1 0 3.5 10.25H13a3 3 0 0 0 .405-5.973M8.5 1.25a4 4 0 0 1 3.976 3.555.5.5 0 0 0 .5.445H13a2 2 0 0 1-.001 4H3.5a2.5 2.5 0 1 1 .605-4.926.5.5 0 0 0 .596-.329A4 4 0 0 1 8.5 1.25M2.625 11.5a.25.25 0 0 1 .25.25v.57l.501-.287a.25.25 0 0 1 .248.434l-.495.283.495.283a.25.25 0 0 1-.248.434l-.501-.286v.569a.25.25 0 1 1-.5 0v-.57l-.501.287a.25.25 0 0 1-.248-.434l.495-.283-.495-.283a.25.25 0 0 1 .248-.434l.501.286v-.569a.25.25 0 0 1 .25-.25m2.75 2a.25.25 0 0 1 .25.25v.57l.501-.287a.25.25 0 0 1 .248.434l-.495.283.495.283a.25.25 0 0 1-.248.434l-.501-.286v.569a.25.25 0 1 1-.5 0v-.57l-.501.287a.25.25 0 0 1-.248-.434l.495-.283-.495-.283a.25.25 0 0 1 .248-.434l.501.286v-.569a.25.25 0 0 1 .25-.25m5.5 0a.25.25 0 0 1 .25.25v.57l.501-.287a.25.25 0 0 1 .248.434l-.495.283.495.283a.25.25 0 0 1-.248.434l-.501-.286v.569a.25.25 0 1 1-.5 0v-.57l-.501.287a.25.25 0 0 1-.248-.434l.495-.283-.495-.283a.25.25 0 0 1 .248-.434l.501.286v-.569a.25.25 0 0 1 .25-.25m-2.75-2a.25.25 0 0 1 .25.25v.57l.501-.287a.25.25 0 0 1 .248.434l-.495.283.495.283a.25.25 0 0 1-.248.434l-.501-.286v.569a.25.25 0 1 1-.5 0v-.57l-.501.287a.25.25 0 0 1-.248-.434l.495-.283-.495-.283a.25.25 0 0 1 .248-.434l.501.286v-.569a.25.25 0 0 1 .25-.25m5.5 0a.25.25 0 0 1 .25.25v.57l.501-.287a.25.25 0 0 1 .248.434l-.495.283.495.283a.25.25 0 0 1-.248.434l-.501-.286v.569a.25.25 0 1 1-.5 0v-.57l-.501.287a.25.25 0 0 1-.248-.434l.495-.283-.495-.283a.25.25 0 0 1 .248-.434l.501.286v-.569a.25.25 0 0 1 .25-.25" stroke="none"></path></g></symbol><symbol id="icon-cloud-sleet-fill-2" viewBox="0 0 16 16"><g class="jsopx-icon-wrapper"><path d="M2.375 13.5a.25.25 0 0 1 .25.25v.57l.501-.287a.25.25 0 0 1 .248.434l-.495.283.495.283a.25.25 0 1 1-.248.434l-.501-.286v.569a.25.25 0 1 1-.5 0v-.57l-.501.287a.25.25 0 1 1-.248-.434l.495-.283-.495-.283a.25.25 0 1 1 .248-.434l.501.286v-.569a.25.25 0 0 1 .25-.25m1.849-2.447a.5.5 0 0 1 .223.67l-.5 1a.5.5 0 0 1-.894-.447l.5-1a.5.5 0 0 1 .67-.223zM6.375 13.5a.25.25 0 0 1 .25.25v.57l.5-.287a.25.25 0 0 1 .249.434l-.495.283.495.283a.25.25 0 1 1-.248.434l-.501-.286v.569a.25.25 0 1 1-.5 0v-.57l-.501.287a.25.25 0 1 1-.248-.434l.495-.283-.495-.283a.25.25 0 1 1 .248-.434l.501.286v-.569a.25.25 0 0 1 .25-.25m1.849-2.447a.5.5 0 0 1 .223.67l-.5 1a.5.5 0 0 1-.894-.447l.5-1a.5.5 0 0 1 .67-.223zm2.151 2.447a.25.25 0 0 1 .25.25v.57l.5-.287a.25.25 0 0 1 .249.434l-.495.283.495.283a.25.25 0 1 1-.248.434l-.501-.286v.569a.25.25 0 0 1-.5 0v-.57l-.501.287a.25.25 0 1 1-.248-.434l.495-.283-.495-.283a.25.25 0 1 1 .248-.434l.501.286v-.569a.25.25 0 0 1 .25-.25m1.849-2.447a.5.5 0 0 1 .223.67l-.5 1a.5.5 0 1 1-.894-.447l.5-1a.5.5 0 0 1 .67-.223zm1.181-7.026a5.001 5.001 0 0 0-9.499-1.004A3.5 3.5 0 1 0 3.5 10H13a3 3 0 0 0 .405-5.973" stroke="none"></path></g></symbol><symbol id="icon-cloud-sleet-2" viewBox="0 0 16 16"><g class="jsopx-icon-wrapper"><path d="M13.405 4.027a5.001 5.001 0 0 0-9.499-1.004A3.5 3.5 0 1 0 3.5 10H13a3 3 0 0 0 .405-5.973M8.5 1a4 4 0 0 1 3.976 3.555.5.5 0 0 0 .5.445H13a2 2 0 0 1 0 4H3.5a2.5 2.5 0 1 1 .605-4.926.5.5 0 0 0 .596-.329A4 4 0 0 1 8.5 1M2.375 13.5a.25.25 0 0 1 .25.25v.57l.501-.287a.25.25 0 0 1 .248.434l-.495.283.495.283a.25.25 0 0 1-.248.434l-.501-.286v.569a.25.25 0 1 1-.5 0v-.57l-.501.287a.25.25 0 0 1-.248-.434l.495-.283-.495-.283a.25.25 0 0 1 .248-.434l.501.286v-.569a.25.25 0 0 1 .25-.25m1.849-2.447a.5.5 0 0 1 .223.67l-.5 1a.5.5 0 1 1-.894-.447l.5-1a.5.5 0 0 1 .67-.223zM6.375 13.5a.25.25 0 0 1 .25.25v.57l.501-.287a.25.25 0 0 1 .248.434l-.495.283.495.283a.25.25 0 0 1-.248.434l-.501-.286v.569a.25.25 0 1 1-.5 0v-.57l-.501.287a.25.25 0 0 1-.248-.434l.495-.283-.495-.283a.25.25 0 0 1 .248-.434l.501.286v-.569a.25.25 0 0 1 .25-.25m1.849-2.447a.5.5 0 0 1 .223.67l-.5 1a.5.5 0 1 1-.894-.447l.5-1a.5.5 0 0 1 .67-.223zm2.151 2.447a.25.25 0 0 1 .25.25v.57l.501-.287a.25.25 0 0 1 .248.434l-.495.283.495.283a.25.25 0 0 1-.248.434l-.501-.286v.569a.25.25 0 1 1-.5 0v-.57l-.501.287a.25.25 0 0 1-.248-.434l.495-.283-.495-.283a.25.25 0 0 1 .248-.434l.501.286v-.569a.25.25 0 0 1 .25-.25m1.849-2.447a.5.5 0 0 1 .223.67l-.5 1a.5.5 0 1 1-.894-.447l.5-1a.5.5 0 0 1 .67-.223z" stroke="none"></path></g></symbol><symbol id="icon-cloud-slash-fill-2" viewBox="0 0 16 16"><g class="jsopx-icon-wrapper"><path fill-rule="evenodd" d="M3.112 5.112a3 3 0 0 0-.17.613C1.266 6.095 0 7.555 0 9.318 0 11.366 1.708 13 3.781 13H11zm11.372 7.372L4.937 2.937A5.5 5.5 0 0 1 8 2c2.69 0 4.923 2 5.166 4.579C14.758 6.804 16 8.137 16 9.773a3.2 3.2 0 0 1-1.516 2.711m-.838 1.87-12-12 .708-.708 12 12z" stroke="none"></path></g></symbol><symbol id="icon-cloud-slash-2" viewBox="0 0 16 16"><g class="jsopx-icon-wrapper"><path fill-rule="evenodd" d="M3.112 5.112a3 3 0 0 0-.17.613C1.266 6.095 0 7.555 0 9.318 0 11.366 1.708 13 3.781 13H11l-1-1H3.781C2.231 12 1 10.785 1 9.318c0-1.365 1.064-2.513 2.46-2.666l.446-.05v-.447q0-.113.018-.231zm2.55-1.45-.725-.725A5.5 5.5 0 0 1 8 2c2.69 0 4.923 2 5.166 4.579C14.758 6.804 16 8.137 16 9.773a3.2 3.2 0 0 1-1.516 2.711l-.733-.733C14.498 11.378 15 10.626 15 9.773c0-1.216-1.02-2.228-2.313-2.228h-.5v-.5C12.188 4.825 10.328 3 8 3c-.875 0-1.678.26-2.339.661z" stroke="none"></path><path d="m13.646 14.354-12-12 .708-.708 12 12z" stroke="none"></path></g></symbol><symbol id="icon-clouds-fill-2" viewBox="0 0 16 16"><g class="jsopx-icon-wrapper"><path d="M11.473 9a4.5 4.5 0 0 0-8.72-.99A3 3 0 0 0 3 14h8.5a2.5 2.5 0 1 0-.027-5" stroke="none"></path><path d="M14.544 9.772a3.5 3.5 0 0 0-2.225-1.676 5.5 5.5 0 0 0-6.337-4.002 4.002 4.002 0 0 1 7.392.91 2.5 2.5 0 0 1 1.17 4.769z" stroke="none"></path></g></symbol><symbol id="icon-clouds-2" viewBox="0 0 16 16"><g class="jsopx-icon-wrapper"><path d="M16 7.5a2.5 2.5 0 0 1-1.456 2.272 3.5 3.5 0 0 0-.65-.824 1.5 1.5 0 0 0-.789-2.896.5.5 0 0 1-.627-.421 3 3 0 0 0-5.22-1.625 5.6 5.6 0 0 0-1.276.088 4.002 4.002 0 0 1 7.392.91A2.5 2.5 0 0 1 16 7.5" stroke="none"></path><path d="M7 5a4.5 4.5 0 0 1 4.473 4h.027a2.5 2.5 0 0 1 0 5H3a3 3 0 0 1-.247-5.99A4.5 4.5 0 0 1 7 5m3.5 4.5a3.5 3.5 0 0 0-6.89-.873.5.5 0 0 1-.51.375A2 2 0 1 0 3 13h8.5a1.5 1.5 0 1 0-.376-2.953.5.5 0 0 1-.624-.492z" stroke="none"></path></g></symbol><symbol id="icon-cloud-rain-heavy-fill-2" viewBox="0 0 16 16"><g class="jsopx-icon-wrapper"><path d="M4.176 11.032a.5.5 0 0 1 .292.643l-1.5 4a.5.5 0 0 1-.936-.35l1.5-4a.5.5 0 0 1 .644-.293m3 0a.5.5 0 0 1 .292.643l-1.5 4a.5.5 0 0 1-.936-.35l1.5-4a.5.5 0 0 1 .644-.293m3 0a.5.5 0 0 1 .292.643l-1.5 4a.5.5 0 0 1-.936-.35l1.5-4a.5.5 0 0 1 .644-.293m3 0a.5.5 0 0 1 .292.643l-1.5 4a.5.5 0 0 1-.936-.35l1.5-4a.5.5 0 0 1 .644-.293m.229-7.005a5.001 5.001 0 0 0-9.499-1.004A3.5 3.5 0 1 0 3.5 10H13a3 3 0 0 0 .405-5.973" stroke="none"></path></g></symbol><symbol id="icon-cloud-rain-fill-2" viewBox="0 0 16 16"><g class="jsopx-icon-wrapper"><path d="M4.158 12.025a.5.5 0 0 1 .316.633l-.5 1.5a.5.5 0 1 1-.948-.316l.5-1.5a.5.5 0 0 1 .632-.317m3 0a.5.5 0 0 1 .316.633l-1 3a.5.5 0 1 1-.948-.316l1-3a.5.5 0 0 1 .632-.317m3 0a.5.5 0 0 1 .316.633l-.5 1.5a.5.5 0 1 1-.948-.316l.5-1.5a.5.5 0 0 1 .632-.317m3 0a.5.5 0 0 1 .316.633l-1 3a.5.5 0 1 1-.948-.316l1-3a.5.5 0 0 1 .632-.317m.247-6.998a5.001 5.001 0 0 0-9.499-1.004A3.5 3.5 0 1 0 3.5 11H13a3 3 0 0 0 .405-5.973" stroke="none"></path></g></symbol><symbol id="icon-cloud-rain-2" viewBox="0 0 16 16"><g class="jsopx-icon-wrapper"><path d="M4.158 12.025a.5.5 0 0 1 .316.633l-.5 1.5a.5.5 0 0 1-.948-.316l.5-1.5a.5.5 0 0 1 .632-.317m3 0a.5.5 0 0 1 .316.633l-1 3a.5.5 0 0 1-.948-.316l1-3a.5.5 0 0 1 .632-.317m3 0a.5.5 0 0 1 .316.633l-.5 1.5a.5.5 0 0 1-.948-.316l.5-1.5a.5.5 0 0 1 .632-.317m3 0a.5.5 0 0 1 .316.633l-1 3a.5.5 0 1 1-.948-.316l1-3a.5.5 0 0 1 .632-.317m.247-6.998a5.001 5.001 0 0 0-9.499-1.004A3.5 3.5 0 1 0 3.5 11H13a3 3 0 0 0 .405-5.973M8.5 2a4 4 0 0 1 3.976 3.555.5.5 0 0 0 .5.445H13a2 2 0 0 1 0 4H3.5a2.5 2.5 0 1 1 .605-4.926.5.5 0 0 0 .596-.329A4 4 0 0 1 8.5 2" stroke="none"></path></g></symbol><symbol id="icon-cloud-plus-fill-2" viewBox="0 0 16 16"><g class="jsopx-icon-wrapper"><path d="M8 2a5.53 5.53 0 0 0-3.594 1.342c-.766.66-1.321 1.52-1.464 2.383C1.266 6.095 0 7.555 0 9.318 0 11.366 1.708 13 3.781 13h8.906C14.502 13 16 11.57 16 9.773c0-1.636-1.242-2.969-2.834-3.194C12.923 3.999 10.69 2 8 2m.5 4v1.5H10a.5.5 0 0 1 0 1H8.5V10a.5.5 0 0 1-1 0V8.5H6a.5.5 0 0 1 0-1h1.5V6a.5.5 0 0 1 1 0" stroke="none"></path></g></symbol><symbol id="icon-cloud-plus-2" viewBox="0 0 16 16"><g class="jsopx-icon-wrapper"><path fill-rule="evenodd" d="M8 5.5a.5.5 0 0 1 .5.5v1.5H10a.5.5 0 0 1 0 1H8.5V10a.5.5 0 0 1-1 0V8.5H6a.5.5 0 0 1 0-1h1.5V6a.5.5 0 0 1 .5-.5" stroke="none"></path><path d="M4.406 3.342A5.53 5.53 0 0 1 8 2c2.69 0 4.923 2 5.166 4.579C14.758 6.804 16 8.137 16 9.773 16 11.569 14.502 13 12.687 13H3.781C1.708 13 0 11.366 0 9.318c0-1.763 1.266-3.223 2.942-3.593.143-.863.698-1.723 1.464-2.383m.653.757c-.757.653-1.153 1.44-1.153 2.056v.448l-.445.049C2.064 6.805 1 7.952 1 9.318 1 10.785 2.23 12 3.781 12h8.906C13.98 12 15 10.988 15 9.773c0-1.216-1.02-2.228-2.313-2.228h-.5v-.5C12.188 4.825 10.328 3 8 3a4.53 4.53 0 0 0-2.941 1.1z" stroke="none"></path></g></symbol><symbol id="icon-cloud-moon-fill-2" viewBox="0 0 16 16"><g class="jsopx-icon-wrapper"><path d="M11.473 11a4.5 4.5 0 0 0-8.72-.99A3 3 0 0 0 3 16h8.5a2.5 2.5 0 0 0 0-5z" stroke="none"></path><path d="M11.286 1.778a.5.5 0 0 0-.565-.755 4.595 4.595 0 0 0-3.18 5.003 5.5 5.5 0 0 1 1.055.209A3.6 3.6 0 0 1 9.83 2.617a4.593 4.593 0 0 0 4.31 5.744 3.58 3.58 0 0 1-2.241.634q.244.477.394 1a4.59 4.59 0 0 0 3.624-2.04.5.5 0 0 0-.565-.755 3.593 3.593 0 0 1-4.065-5.422z" stroke="none"></path></g></symbol><symbol id="icon-cloud-lightning-rain-2" viewBox="0 0 16 16"><g class="jsopx-icon-wrapper"><path d="M2.658 11.026a.5.5 0 0 1 .316.632l-.5 1.5a.5.5 0 1 1-.948-.316l.5-1.5a.5.5 0 0 1 .632-.316m9.5 0a.5.5 0 0 1 .316.632l-.5 1.5a.5.5 0 1 1-.948-.316l.5-1.5a.5.5 0 0 1 .632-.316m-7.5 1.5a.5.5 0 0 1 .316.632l-.5 1.5a.5.5 0 1 1-.948-.316l.5-1.5a.5.5 0 0 1 .632-.316m9.5 0a.5.5 0 0 1 .316.632l-.5 1.5a.5.5 0 1 1-.948-.316l.5-1.5a.5.5 0 0 1 .632-.316m-.753-8.499a5.001 5.001 0 0 0-9.499-1.004A3.5 3.5 0 1 0 3.5 10H13a3 3 0 0 0 .405-5.973M8.5 1a4 4 0 0 1 3.976 3.555.5.5 0 0 0 .5.445H13a2 2 0 0 1 0 4H3.5a2.5 2.5 0 1 1 .605-4.926.5.5 0 0 0 .596-.329A4 4 0 0 1 8.5 1M7.053 11.276A.5.5 0 0 1 7.5 11h1a.5.5 0 0 1 .474.658l-.28.842H9.5a.5.5 0 0 1 .39.812l-2 2.5a.5.5 0 0 1-.875-.433L7.36 14H6.5a.5.5 0 0 1-.447-.724z" stroke="none"></path></g></symbol><symbol id="icon-cloud-minus-fill-2" viewBox="0 0 16 16"><g class="jsopx-icon-wrapper"><path d="M8 2a5.53 5.53 0 0 0-3.594 1.342c-.766.66-1.321 1.52-1.464 2.383C1.266 6.095 0 7.555 0 9.318 0 11.366 1.708 13 3.781 13h8.906C14.502 13 16 11.57 16 9.773c0-1.636-1.242-2.969-2.834-3.194C12.923 3.999 10.69 2 8 2M6 7.5h4a.5.5 0 0 1 0 1H6a.5.5 0 0 1 0-1" stroke="none"></path></g></symbol><symbol id="icon-cloud-minus-2" viewBox="0 0 16 16"><g class="jsopx-icon-wrapper"><path d="M4.406 3.342A5.53 5.53 0 0 1 8 2c2.69 0 4.923 2 5.166 4.579C14.758 6.804 16 8.137 16 9.773 16 11.569 14.502 13 12.687 13H3.781C1.708 13 0 11.366 0 9.318c0-1.763 1.266-3.223 2.942-3.593.143-.863.698-1.723 1.464-2.383m.653.757c-.757.653-1.153 1.44-1.153 2.056v.448l-.445.049C2.064 6.805 1 7.952 1 9.318 1 10.785 2.23 12 3.781 12h8.906C13.98 12 15 10.988 15 9.773c0-1.216-1.02-2.228-2.313-2.228h-.5v-.5C12.188 4.825 10.328 3 8 3a4.53 4.53 0 0 0-2.941 1.1z" stroke="none"></path><path d="M6 7.5a.5.5 0 0 0 0 1h4a.5.5 0 0 0 0-1z" stroke="none"></path></g></symbol><symbol id="icon-cloud-lightning-rain-fill-2" viewBox="0 0 16 16"><g class="jsopx-icon-wrapper"><path d="M2.658 11.026a.5.5 0 0 1 .316.632l-.5 1.5a.5.5 0 1 1-.948-.316l.5-1.5a.5.5 0 0 1 .632-.316m9.5 0a.5.5 0 0 1 .316.632l-.5 1.5a.5.5 0 0 1-.948-.316l.5-1.5a.5.5 0 0 1 .632-.316m-7.5 1.5a.5.5 0 0 1 .316.632l-.5 1.5a.5.5 0 1 1-.948-.316l.5-1.5a.5.5 0 0 1 .632-.316m9.5 0a.5.5 0 0 1 .316.632l-.5 1.5a.5.5 0 0 1-.948-.316l.5-1.5a.5.5 0 0 1 .632-.316m-7.105-1.25A.5.5 0 0 1 7.5 11h1a.5.5 0 0 1 .474.658l-.28.842H9.5a.5.5 0 0 1 .39.812l-2 2.5a.5.5 0 0 1-.875-.433L7.36 14H6.5a.5.5 0 0 1-.447-.724zm6.352-7.249a5.001 5.001 0 0 0-9.499-1.004A3.5 3.5 0 1 0 3.5 10H13a3 3 0 0 0 .405-5.973" stroke="none"></path></g></symbol><symbol id="icon-cloud-lightning-rain-1" viewBox="0 0 16 16"><g class="jsopx-icon-wrapper"><path d="M2.658 11.026a.5.5 0 0 1 .316.632l-.5 1.5a.5.5 0 1 1-.948-.316l.5-1.5a.5.5 0 0 1 .632-.316m9.5 0a.5.5 0 0 1 .316.632l-.5 1.5a.5.5 0 1 1-.948-.316l.5-1.5a.5.5 0 0 1 .632-.316m-7.5 1.5a.5.5 0 0 1 .316.632l-.5 1.5a.5.5 0 1 1-.948-.316l.5-1.5a.5.5 0 0 1 .632-.316m9.5 0a.5.5 0 0 1 .316.632l-.5 1.5a.5.5 0 1 1-.948-.316l.5-1.5a.5.5 0 0 1 .632-.316m-.753-8.499a5.001 5.001 0 0 0-9.499-1.004A3.5 3.5 0 1 0 3.5 10H13a3 3 0 0 0 .405-5.973M8.5 1a4 4 0 0 1 3.976 3.555.5.5 0 0 0 .5.445H13a2 2 0 0 1 0 4H3.5a2.5 2.5 0 1 1 .605-4.926.5.5 0 0 0 .596-.329A4 4 0 0 1 8.5 1M7.053 11.276A.5.5 0 0 1 7.5 11h1a.5.5 0 0 1 .474.658l-.28.842H9.5a.5.5 0 0 1 .39.812l-2 2.5a.5.5 0 0 1-.875-.433L7.36 14H6.5a.5.5 0 0 1-.447-.724z" stroke="none"></path></g></symbol><symbol id="icon-cloud-lightning-fill-2" viewBox="0 0 16 16"><g class="jsopx-icon-wrapper"><path d="M7.053 11.276A.5.5 0 0 1 7.5 11h1a.5.5 0 0 1 .474.658l-.28.842H9.5a.5.5 0 0 1 .39.812l-2 2.5a.5.5 0 0 1-.875-.433L7.36 14H6.5a.5.5 0 0 1-.447-.724zm6.352-7.249a5.001 5.001 0 0 0-9.499-1.004A3.5 3.5 0 1 0 3.5 10H13a3 3 0 0 0 .405-5.973" stroke="none"></path></g></symbol><symbol id="icon-cloud-lightning-2" viewBox="0 0 16 16"><g class="jsopx-icon-wrapper"><path d="M13.405 4.027a5.001 5.001 0 0 0-9.499-1.004A3.5 3.5 0 1 0 3.5 10H13a3 3 0 0 0 .405-5.973M8.5 1a4 4 0 0 1 3.976 3.555.5.5 0 0 0 .5.445H13a2 2 0 0 1 0 4H3.5a2.5 2.5 0 1 1 .605-4.926.5.5 0 0 0 .596-.329A4 4 0 0 1 8.5 1M7.053 11.276A.5.5 0 0 1 7.5 11h1a.5.5 0 0 1 .474.658l-.28.842H9.5a.5.5 0 0 1 .39.812l-2 2.5a.5.5 0 0 1-.875-.433L7.36 14H6.5a.5.5 0 0 1-.447-.724z" stroke="none"></path></g></symbol><symbol id="icon-cloud-haze-fill-2" viewBox="0 0 16 16"><g class="jsopx-icon-wrapper"><path d="M4 11.5a.5.5 0 0 1 .5-.5h9a.5.5 0 0 1 0 1h-9a.5.5 0 0 1-.5-.5m-3 2a.5.5 0 0 1 .5-.5h9a.5.5 0 0 1 0 1h-9a.5.5 0 0 1-.5-.5m2 2a.5.5 0 0 1 .5-.5h9a.5.5 0 0 1 0 1h-9a.5.5 0 0 1-.5-.5M13.405 4.027a5.001 5.001 0 0 0-9.499-1.004A3.5 3.5 0 1 0 3.5 10H13a3 3 0 0 0 .405-5.973" stroke="none"></path></g></symbol><symbol id="icon-cloud-haze2-fill-2" viewBox="0 0 16 16"><g class="jsopx-icon-wrapper"><path d="M8.5 2a5 5 0 0 1 4.905 4.027A3 3 0 0 1 13 12H3.5A3.5 3.5 0 0 1 .035 9H5.5a.5.5 0 0 0 0-1H.035a3.5 3.5 0 0 1 3.871-2.977A5 5 0 0 1 8.5 2m-6 8a.5.5 0 0 0 0 1h9a.5.5 0 0 0 0-1zM0 13.5a.5.5 0 0 1 .5-.5h9a.5.5 0 0 1 0 1h-9a.5.5 0 0 1-.5-.5" stroke="none"></path></g></symbol><symbol id="icon-cloud-haze2-2" viewBox="0 0 16 16"><g class="jsopx-icon-wrapper"><path d="M8.5 3a4 4 0 0 0-3.8 2.745.5.5 0 1 1-.949-.313 5.002 5.002 0 0 1 9.654.595A3 3 0 0 1 13 12H4.5a.5.5 0 0 1 0-1H13a2 2 0 0 0 .001-4h-.026a.5.5 0 0 1-.5-.445A4 4 0 0 0 8.5 3M0 7.5A.5.5 0 0 1 .5 7h5a.5.5 0 0 1 0 1h-5a.5.5 0 0 1-.5-.5m2 2a.5.5 0 0 1 .5-.5h9a.5.5 0 0 1 0 1h-9a.5.5 0 0 1-.5-.5m-2 4a.5.5 0 0 1 .5-.5h9a.5.5 0 0 1 0 1h-9a.5.5 0 0 1-.5-.5" stroke="none"></path></g></symbol><symbol id="icon-cloud-haze-2" viewBox="0 0 16 16"><g class="jsopx-icon-wrapper"><path d="M4 11.5a.5.5 0 0 1 .5-.5h9a.5.5 0 0 1 0 1h-9a.5.5 0 0 1-.5-.5m-3 2a.5.5 0 0 1 .5-.5h9a.5.5 0 0 1 0 1h-9a.5.5 0 0 1-.5-.5m2 2a.5.5 0 0 1 .5-.5h9a.5.5 0 0 1 0 1h-9a.5.5 0 0 1-.5-.5M13.405 4.027a5.001 5.001 0 0 0-9.499-1.004A3.5 3.5 0 1 0 3.5 10H13a3 3 0 0 0 .405-5.973M8.5 1a4 4 0 0 1 3.976 3.555.5.5 0 0 0 .5.445H13a2 2 0 0 1 0 4H3.5a2.5 2.5 0 1 1 .605-4.926.5.5 0 0 0 .596-.329A4 4 0 0 1 8.5 1" stroke="none"></path></g></symbol><symbol id="icon-cloud-hail-fill-2" viewBox="0 0 16 16"><g class="jsopx-icon-wrapper"><path d="M3.75 15.25a.75.75 0 1 1-1.5 0 .75.75 0 0 1 1.5 0m.408-3.724a.5.5 0 0 1 .316.632l-.5 1.5a.5.5 0 1 1-.948-.316l.5-1.5a.5.5 0 0 1 .632-.316M7.75 15.25a.75.75 0 1 1-1.5 0 .75.75 0 0 1 1.5 0m.408-3.724a.5.5 0 0 1 .316.632l-.5 1.5a.5.5 0 1 1-.948-.316l.5-1.5a.5.5 0 0 1 .632-.316m3.592 3.724a.75.75 0 1 1-1.5 0 .75.75 0 0 1 1.5 0m.408-3.724a.5.5 0 0 1 .316.632l-.5 1.5a.5.5 0 1 1-.948-.316l.5-1.5a.5.5 0 0 1 .632-.316m1.247-6.999a5.001 5.001 0 0 0-9.499-1.004A3.5 3.5 0 1 0 3.5 10.5H13a3 3 0 0 0 .405-5.973" stroke="none"></path></g></symbol><symbol id="icon-cloud-hail-2" viewBox="0 0 16 16"><g class="jsopx-icon-wrapper"><path d="M13.405 4.527a5.001 5.001 0 0 0-9.499-1.004A3.5 3.5 0 1 0 3.5 10.5H13a3 3 0 0 0 .405-5.973M8.5 1.5a4 4 0 0 1 3.976 3.555.5.5 0 0 0 .5.445H13a2 2 0 0 1-.001 4H3.5a2.5 2.5 0 1 1 .605-4.926.5.5 0 0 0 .596-.329A4 4 0 0 1 8.5 1.5M3.75 15.25a.75.75 0 1 1-1.5 0 .75.75 0 0 1 1.5 0m.408-3.724a.5.5 0 0 1 .316.632l-.5 1.5a.5.5 0 1 1-.948-.316l.5-1.5a.5.5 0 0 1 .632-.316M7.75 15.25a.75.75 0 1 1-1.5 0 .75.75 0 0 1 1.5 0m.408-3.724a.5.5 0 0 1 .316.632l-.5 1.5a.5.5 0 1 1-.948-.316l.5-1.5a.5.5 0 0 1 .632-.316m3.592 3.724a.75.75 0 1 1-1.5 0 .75.75 0 0 1 1.5 0m.408-3.724a.5.5 0 0 1 .316.632l-.5 1.5a.5.5 0 1 1-.948-.316l.5-1.5a.5.5 0 0 1 .632-.316" stroke="none"></path></g></symbol><symbol id="icon-cloud-fog-fill-2" viewBox="0 0 16 16"><g class="jsopx-icon-wrapper"><path d="M3 13.5a.5.5 0 0 1 .5-.5h9a.5.5 0 0 1 0 1h-9a.5.5 0 0 1-.5-.5m0 2a.5.5 0 0 1 .5-.5h9a.5.5 0 0 1 0 1h-9a.5.5 0 0 1-.5-.5m10.405-9.473a5.001 5.001 0 0 0-9.499-1.004A3.5 3.5 0 1 0 3.5 12H13a3 3 0 0 0 .405-5.973" stroke="none"></path></g></symbol><symbol id="icon-cloud-fog2-fill-2" viewBox="0 0 16 16"><g class="jsopx-icon-wrapper"><path d="M8.5 3a5 5 0 0 1 4.905 4.027A3 3 0 0 1 13 13h-1.5a.5.5 0 0 0 0-1H1.05a3.5 3.5 0 0 1-.713-1H9.5a.5.5 0 0 0 0-1H.035a3.5 3.5 0 0 1 0-1H7.5a.5.5 0 0 0 0-1H.337a3.5 3.5 0 0 1 3.57-1.977A5 5 0 0 1 8.5 3" stroke="none"></path></g></symbol><symbol id="icon-cloud-fog2-2" viewBox="0 0 16 16"><g class="jsopx-icon-wrapper"><path d="M8.5 4a4 4 0 0 0-3.8 2.745.5.5 0 1 1-.949-.313 5.002 5.002 0 0 1 9.654.595A3 3 0 0 1 13 13H.5a.5.5 0 0 1 0-1H13a2 2 0 0 0 .001-4h-.026a.5.5 0 0 1-.5-.445A4 4 0 0 0 8.5 4M0 8.5A.5.5 0 0 1 .5 8h7a.5.5 0 0 1 0 1h-7a.5.5 0 0 1-.5-.5m0 2a.5.5 0 0 1 .5-.5h9a.5.5 0 0 1 0 1h-9a.5.5 0 0 1-.5-.5" stroke="none"></path></g></symbol><symbol id="icon-cloud-fog-2" viewBox="0 0 16 16"><g class="jsopx-icon-wrapper"><path d="M3 13.5a.5.5 0 0 1 .5-.5h9a.5.5 0 0 1 0 1h-9a.5.5 0 0 1-.5-.5m0 2a.5.5 0 0 1 .5-.5h9a.5.5 0 0 1 0 1h-9a.5.5 0 0 1-.5-.5m10.405-9.473a5.001 5.001 0 0 0-9.499-1.004A3.5 3.5 0 1 0 3.5 12H13a3 3 0 0 0 .405-5.973M8.5 3a4 4 0 0 1 3.976 3.555.5.5 0 0 0 .5.445H13a2 2 0 0 1 0 4H3.5a2.5 2.5 0 1 1 .605-4.926.5.5 0 0 0 .596-.329A4 4 0 0 1 8.5 3" stroke="none"></path></g></symbol><symbol id="icon-cloud-fill-2" viewBox="0 0 16 16"><g class="jsopx-icon-wrapper"><path d="M4.406 3.342A5.53 5.53 0 0 1 8 2c2.69 0 4.923 2 5.166 4.579C14.758 6.804 16 8.137 16 9.773 16 11.569 14.502 13 12.687 13H3.781C1.708 13 0 11.366 0 9.318c0-1.763 1.266-3.223 2.942-3.593.143-.863.698-1.723 1.464-2.383" stroke="none"></path></g></symbol><symbol id="icon-cloud-drizzle-fill-2" viewBox="0 0 16 16"><g class="jsopx-icon-wrapper"><path d="M4.158 12.025a.5.5 0 0 1 .316.633l-.5 1.5a.5.5 0 0 1-.948-.316l.5-1.5a.5.5 0 0 1 .632-.317m6 0a.5.5 0 0 1 .316.633l-.5 1.5a.5.5 0 0 1-.948-.316l.5-1.5a.5.5 0 0 1 .632-.317m-3.5 1.5a.5.5 0 0 1 .316.633l-.5 1.5a.5.5 0 0 1-.948-.316l.5-1.5a.5.5 0 0 1 .632-.317m6 0a.5.5 0 0 1 .316.633l-.5 1.5a.5.5 0 1 1-.948-.316l.5-1.5a.5.5 0 0 1 .632-.317m.747-8.498a5.001 5.001 0 0 0-9.499-1.004A3.5 3.5 0 1 0 3.5 11H13a3 3 0 0 0 .405-5.973" stroke="none"></path></g></symbol></svg>